<?xml version="1.0" standalone="no"?>
<!DOCTYPE svg PUBLIC "-//W3C//DTD SVG 20010904//EN"
 "http://www.w3.org/TR/2001/REC-SVG-20010904/DTD/svg10.dtd">
<svg version="1.0" xmlns="http://www.w3.org/2000/svg"
 width="899.000000pt" height="82.000000pt" viewBox="0 0 899.000000 82.000000"
 preserveAspectRatio="xMidYMid meet">

<g transform="translate(0.000000,82.000000) scale(0.100000,-0.100000)"
fill="#000000" stroke="none">
<path d="M2265 705 c-137 -18 -414 -53 -615 -78 l-365 -45 -595 -6 c-327 -3
-616 -6 -642 -6 l-48 0 0 -196 0 -196 662 4 663 5 619 78 620 78 95 -15 c53
-9 336 -59 629 -112 576 -104 528 -98 1017 -111 110 -3 353 -8 540 -11 l340
-6 607 76 c333 42 636 76 672 76 36 0 285 -17 553 -37 413 -31 535 -37 793
-37 304 0 1057 20 1138 30 l42 5 0 196 0 196 -162 -7 c-90 -3 -371 -13 -626
-21 l-464 -16 -656 46 -657 46 -649 -81 -649 -81 -621 16 c-680 16 -611 10
-1071 95 -554 102 -835 150 -875 149 -25 -1 -157 -16 -295 -34z"/>
</g>
</svg>
