<?xml version="1.0" encoding="UTF-8"?>
<!DOCTYPE svg PUBLIC "-//W3C//DTD SVG 1.1//EN" "http://www.w3.org/Graphics/SVG/1.1/DTD/svg11.dtd">
<svg xmlns="http://www.w3.org/2000/svg" version="1.1" width="500px" height="500px" style="shape-rendering:geometricPrecision; text-rendering:geometricPrecision; image-rendering:optimizeQuality; fill-rule:evenodd; clip-rule:evenodd" xmlns:xlink="http://www.w3.org/1999/xlink">
<g><path style="opacity:0.19" fill="#a3a3a3" d="M 276.5,23.5 C 269.167,23.5 261.833,23.5 254.5,23.5C 254.611,22.8826 254.944,22.3826 255.5,22C 261.833,21.3333 268.167,21.3333 274.5,22C 275.416,22.2784 276.082,22.7784 276.5,23.5 Z"/></g>
<g><path style="opacity:1" fill="#161616" d="M 207.5,29.5 C 208.463,30.3635 208.463,31.0302 207.5,31.5C 199.715,28.7471 191.715,27.9138 183.5,29C 181.881,29.2355 180.881,30.0689 180.5,31.5C 177.206,32.4664 174.872,34.4664 173.5,37.5C 171.973,37.427 170.973,38.0937 170.5,39.5C 167.633,39.3692 165.967,40.7026 165.5,43.5C 165.167,44.1667 164.833,44.8333 164.5,45.5C 161.58,47.6625 159.913,50.6625 159.5,54.5C 158.631,56.717 158.298,59.0504 158.5,61.5C 158.5,64.8333 158.5,68.1667 158.5,71.5C 158.283,77.5127 160.283,82.5127 164.5,86.5C 164.981,89.8335 166.647,92.1669 169.5,93.5C 170.192,96.935 172.192,98.935 175.5,99.5C 175.833,101.833 177.167,103.167 179.5,103.5C 179.5,104.833 179.5,106.167 179.5,107.5C 177.784,107.371 176.117,107.038 174.5,106.5C 174.027,105.094 173.027,104.427 171.5,104.5C 171.5,102.5 170.5,101.5 168.5,101.5C 167.164,99.9897 165.997,98.3231 165,96.5C 164.184,95.1772 163.017,94.5106 161.5,94.5C 160.526,90.5512 158.526,87.2179 155.5,84.5C 155.488,79.6162 153.654,75.6162 150,72.5C 147.683,73.412 145.516,74.412 143.5,75.5C 137.864,76.8942 133.364,79.8942 130,84.5C 129.51,85.7932 129.343,87.1266 129.5,88.5C 126.858,88.4877 125.525,89.821 125.5,92.5C 125.5,92.8333 125.5,93.1667 125.5,93.5C 124.069,93.8807 123.236,94.8807 123,96.5C 121.059,103.826 121.059,111.16 123,118.5C 123.383,119.056 123.883,119.389 124.5,119.5C 124.934,124.367 126.934,128.367 130.5,131.5C 131.478,134.478 133.478,136.478 136.5,137.5C 136.574,139.411 137.574,140.578 139.5,141C 142.063,142.079 144.729,142.579 147.5,142.5C 149.099,142.232 150.432,142.566 151.5,143.5C 157.421,145.298 163.754,146.131 170.5,146C 170.167,146.333 169.833,146.667 169.5,147C 161.507,147.5 153.507,147.666 145.5,147.5C 141.54,146.503 137.54,145.503 133.5,144.5C 133.461,143.417 133.127,142.417 132.5,141.5C 130.798,138.963 128.631,136.963 126,135.5C 123.1,138.4 120.1,141.4 117,144.5C 115.878,146.407 115.045,148.407 114.5,150.5C 112.492,156.549 112.159,162.549 113.5,168.5C 113.403,174.171 115.403,178.838 119.5,182.5C 121.769,187.982 125.769,191.648 131.5,193.5C 132.635,195.213 134.302,195.88 136.5,195.5C 136.414,196.496 136.748,197.329 137.5,198C 141.086,199.108 144.753,199.608 148.5,199.5C 154.5,199.5 160.5,199.5 166.5,199.5C 171.923,199.482 177.256,198.815 182.5,197.5C 183.239,197.369 183.906,197.536 184.5,198C 179.965,199.425 175.465,200.925 171,202.5C 160.648,203.462 150.481,203.795 140.5,203.5C 140.177,209.69 140.51,215.69 141.5,221.5C 141.5,222.167 141.5,222.833 141.5,223.5C 141.01,229.966 143.343,234.966 148.5,238.5C 148.709,239.922 149.209,241.255 150,242.5C 152.999,243.683 155.499,245.516 157.5,248C 164.73,251.265 172.063,252.098 179.5,250.5C 180.167,250.5 180.833,250.5 181.5,250.5C 187.913,250.197 193.58,248.03 198.5,244C 202.941,240.563 207.107,236.73 211,232.5C 211.608,230.846 212.108,229.179 212.5,227.5C 214.213,226.365 214.88,224.698 214.5,222.5C 216.344,220.721 217.01,218.388 216.5,215.5C 217.5,215.5 218.5,215.5 219.5,215.5C 219.5,219.5 219.5,223.5 219.5,227.5C 216.862,229.839 215.528,232.839 215.5,236.5C 213.658,238.052 211.991,239.718 210.5,241.5C 205.096,246.558 199.096,250.891 192.5,254.5C 191.614,255.325 191.281,256.325 191.5,257.5C 183.574,258.93 175.574,259.597 167.5,259.5C 165.833,259.5 164.167,259.5 162.5,259.5C 162.167,259.5 161.833,259.5 161.5,259.5C 160.158,258.207 158.491,257.374 156.5,257C 152.341,253.841 148.508,250.341 145,246.5C 141.725,242.943 139.225,238.943 137.5,234.5C 135.594,227.216 135.261,219.883 136.5,212.5C 137.192,209.103 137.192,205.77 136.5,202.5C 134.929,201.691 133.262,201.357 131.5,201.5C 129.516,198.836 126.849,197.169 123.5,196.5C 122.829,192.637 120.495,190.304 116.5,189.5C 116.649,188.448 116.483,187.448 116,186.5C 113.72,184.386 111.887,182.053 110.5,179.5C 107.88,169.159 107.88,158.825 110.5,148.5C 112.245,146.967 113.245,144.967 113.5,142.5C 116.086,141.362 117.753,139.362 118.5,136.5C 120.824,136.338 122.491,135.172 123.5,133C 122.576,130.135 121.576,127.302 120.5,124.5C 116.817,113.449 116.817,102.449 120.5,91.5C 121.038,89.8828 121.371,88.2161 121.5,86.5C 125.222,82.1115 129.222,78.1115 133.5,74.5C 136.608,74.6254 138.608,73.2921 139.5,70.5C 143.462,69.6245 147.462,68.9578 151.5,68.5C 151.5,64.1667 151.5,59.8333 151.5,55.5C 151.5,54.8333 151.5,54.1667 151.5,53.5C 154.127,51.5477 155.46,48.8811 155.5,45.5C 157.89,43.2661 159.724,40.5994 161,37.5C 164.167,35.6667 166.667,33.1667 168.5,30C 171.115,29.3881 172.781,27.8881 173.5,25.5C 180.718,23.6521 188.051,23.1521 195.5,24C 199.383,26.1259 203.383,27.9593 207.5,29.5 Z"/></g>
<g><path style="opacity:0.998" fill="#0f0f0f" d="M 284.5,24.5 C 285.347,25.9663 286.68,26.7996 288.5,27C 292.816,27.9964 297.149,28.8297 301.5,29.5C 305.214,32.6366 309.547,34.6366 314.5,35.5C 319.427,40.9736 325.427,44.9736 332.5,47.5C 334.15,51.8169 337.15,54.8169 341.5,56.5C 342.412,58.5952 343.579,60.5952 345,62.5C 345.671,63.2524 346.504,63.5858 347.5,63.5C 348.247,66.3615 349.914,68.3615 352.5,69.5C 352.66,71.153 353.326,72.4863 354.5,73.5C 355.496,77.5006 357.496,80.8339 360.5,83.5C 362.742,89.6549 365.742,95.3215 369.5,100.5C 369.12,102.698 369.787,104.365 371.5,105.5C 371.5,105.833 371.5,106.167 371.5,106.5C 371.806,112.086 373.473,117.086 376.5,121.5C 376.646,125.519 376.979,129.519 377.5,133.5C 378.833,142.5 378.833,151.5 377.5,160.5C 377.017,167.248 376.017,173.914 374.5,180.5C 373.503,180.47 372.836,180.97 372.5,182C 368.772,191.045 364.772,199.879 360.5,208.5C 356.919,211.32 354.585,214.986 353.5,219.5C 350.428,220.301 348.762,222.301 348.5,225.5C 345.812,226.024 344.312,227.691 344,230.5C 337.898,235.992 332.231,241.992 327,248.5C 326.517,249.448 326.351,250.448 326.5,251.5C 326.5,252.167 326.167,252.5 325.5,252.5C 322.379,253.288 320.712,255.288 320.5,258.5C 318.003,259.129 316.67,260.796 316.5,263.5C 314.561,264.014 313.561,265.347 313.5,267.5C 312.614,272.81 311.947,278.143 311.5,283.5C 311.313,288.845 310.98,294.178 310.5,299.5C 307.837,302.269 306.004,305.603 305,309.5C 301.708,312.873 298.208,315.873 294.5,318.5C 284.857,319.325 275.191,319.658 265.5,319.5C 265.167,319.5 264.833,319.5 264.5,319.5C 256.607,316.727 253.607,311.061 255.5,302.5C 254.849,258.694 254.182,215.027 253.5,171.5C 253.181,122.47 253.514,73.4702 254.5,24.5C 264.5,24.5 274.5,24.5 284.5,24.5 Z M 261.5,31.5 C 267.5,31.8333 273.5,32.1667 279.5,32.5C 279.833,32.5 280.167,32.5 280.5,32.5C 280.97,33.6935 281.97,34.3601 283.5,34.5C 286.14,35.0951 288.807,35.4285 291.5,35.5C 292.568,36.4345 293.901,36.7678 295.5,36.5C 298.057,38.6074 301.057,39.9408 304.5,40.5C 309.224,43.5273 314.224,46.194 319.5,48.5C 320.129,50.9971 321.796,52.3304 324.5,52.5C 332.516,59.5496 339.85,67.2163 346.5,75.5C 347.069,78.7191 348.736,81.0525 351.5,82.5C 354.91,89.6543 358.577,96.6543 362.5,103.5C 362.402,105.553 363.069,107.22 364.5,108.5C 364.166,111.491 365.166,113.824 367.5,115.5C 367.565,118.428 368.232,121.095 369.5,123.5C 369.98,128.53 370.647,133.53 371.5,138.5C 371.5,144.833 371.5,151.167 371.5,157.5C 370.949,160.807 370.616,164.14 370.5,167.5C 370.5,167.833 370.5,168.167 370.5,168.5C 369.232,170.905 368.565,173.572 368.5,176.5C 367.766,177.708 367.433,179.041 367.5,180.5C 365.386,181.784 364.386,183.784 364.5,186.5C 361.4,191.039 359.067,196.039 357.5,201.5C 354.723,203.951 352.723,206.951 351.5,210.5C 348.677,211.992 347.01,214.326 346.5,217.5C 341.747,221.917 337.747,226.917 334.5,232.5C 332.5,232.5 331.5,233.5 331.5,235.5C 329.833,237.167 328.167,238.833 326.5,240.5C 323.791,243.208 321.458,246.208 319.5,249.5C 312.78,254.89 309.114,261.89 308.5,270.5C 307.57,274.4 307.237,278.4 307.5,282.5C 305.72,283.99 305.054,285.99 305.5,288.5C 305.5,289.5 305.5,290.5 305.5,291.5C 304.213,295.313 303.213,299.313 302.5,303.5C 300.273,305.607 298.273,307.94 296.5,310.5C 293.946,311.606 291.279,312.439 288.5,313C 281.174,313.5 273.841,313.666 266.5,313.5C 266.167,313.5 265.833,313.5 265.5,313.5C 263.289,312.889 261.622,311.556 260.5,309.5C 260.391,216.831 260.724,124.165 261.5,31.5 Z"/></g>
<g><path style="opacity:0.993" fill="#121212" d="M 236.5,28.5 C 237.492,28.3284 238.158,28.6618 238.5,29.5C 238.265,30.0967 237.765,30.4301 237,30.5C 235.5,30 234,29.5 232.5,29C 226.115,28.4648 219.781,28.4648 213.5,29C 221.05,25.868 228.717,25.7014 236.5,28.5 Z"/></g>
<g><path style="opacity:0.475" fill="#8e8e8e" d="M 284.5,24.5 C 290.718,24.7984 296.385,26.4651 301.5,29.5C 297.149,28.8297 292.816,27.9964 288.5,27C 286.68,26.7996 285.347,25.9663 284.5,24.5 Z"/></g>
<g><path style="opacity:0.467" fill="#989898" d="M 213.5,26.5 C 212.313,28.9754 210.313,29.9754 207.5,29.5C 203.383,27.9593 199.383,26.1259 195.5,24C 188.051,23.1521 180.718,23.6521 173.5,25.5C 181.3,21.2418 189.633,20.4084 198.5,23C 203.068,26.3633 208.068,27.5299 213.5,26.5 Z"/></g>
<g><path style="opacity:0.086" fill="#bababa" d="M 236.5,26.5 C 239.704,27.3833 242.371,29.0499 244.5,31.5C 242.5,30.8333 240.5,30.1667 238.5,29.5C 238.158,28.6618 237.492,28.3284 236.5,28.5C 236.5,27.8333 236.5,27.1667 236.5,26.5 Z"/></g>
<g><path style="opacity:0.569" fill="#626262" d="M 254.5,23.5 C 261.833,23.5 269.167,23.5 276.5,23.5C 279.385,23.1936 282.052,23.5269 284.5,24.5C 274.5,24.5 264.5,24.5 254.5,24.5C 253.514,73.4702 253.181,122.47 253.5,171.5C 253.5,212.833 253.5,254.167 253.5,295.5C 252.431,206.666 251.931,117.666 252,28.5C 252.05,26.256 252.883,24.5893 254.5,23.5 Z"/></g>
<g><path style="opacity:0.761" fill="#565656" d="M 279.5,32.5 C 273.5,32.1667 267.5,31.8333 261.5,31.5C 261.167,31.5 260.833,31.5 260.5,31.5C 262.397,30.1952 264.731,29.5286 267.5,29.5C 271.836,29.6778 275.836,30.6778 279.5,32.5 Z"/></g>
<g><path style="opacity:0.333" fill="#767676" d="M 195.5,29.5 C 199.78,30.6531 204.114,31.6531 208.5,32.5C 217.03,29.3443 225.696,28.8443 234.5,31C 235.381,31.7083 236.047,32.5416 236.5,33.5C 228.499,30.8335 220.499,30.8335 212.5,33.5C 210.167,33.5 207.833,33.5 205.5,33.5C 202.273,33.3239 199.273,32.6572 196.5,31.5C 196.167,30.8333 195.833,30.1667 195.5,29.5 Z"/></g>
<g><path style="opacity:0.071" fill="#9d9d9d" d="M 173.5,25.5 C 172.781,27.8881 171.115,29.3881 168.5,30C 166.667,33.1667 164.167,35.6667 161,37.5C 159.724,40.5994 157.89,43.2661 155.5,45.5C 156.049,43.0987 156.882,40.7654 158,38.5C 160.043,36.792 161.71,34.792 163,32.5C 166.128,29.5264 169.628,27.1931 173.5,25.5 Z"/></g>
<g><path style="opacity:0.631" fill="#888888" d="M 195.5,29.5 C 195.833,30.1667 196.167,30.8333 196.5,31.5C 191.434,31.3399 186.434,31.8399 181.5,33C 179.047,34.9751 176.381,36.4751 173.5,37.5C 174.872,34.4664 177.206,32.4664 180.5,31.5C 185.343,29.961 190.343,29.2943 195.5,29.5 Z"/></g>
<g><path style="opacity:0.365" fill="#919191" d="M 301.5,29.5 C 306.522,30.1802 310.856,32.1802 314.5,35.5C 309.547,34.6366 305.214,32.6366 301.5,29.5 Z"/></g>
<g><path style="opacity:0.3" fill="#9e9e9e" d="M 205.5,33.5 C 207.833,33.5 210.167,33.5 212.5,33.5C 211.848,34.7251 210.681,35.3917 209,35.5C 207.319,35.3917 206.152,34.7251 205.5,33.5 Z"/></g>
<g><path style="opacity:0.324" fill="#9a9a9a" d="M 280.5,32.5 C 283.551,32.3645 286.551,32.6978 289.5,33.5C 290.713,33.7472 291.38,34.4138 291.5,35.5C 288.807,35.4285 286.14,35.0951 283.5,34.5C 281.97,34.3601 280.97,33.6935 280.5,32.5 Z"/></g>
<g><path style="opacity:0.155" fill="#a8a8a8" d="M 295.5,36.5 C 298.574,36.8726 301.574,37.5392 304.5,38.5C 304.5,39.1667 304.5,39.8333 304.5,40.5C 301.057,39.9408 298.057,38.6074 295.5,36.5 Z"/></g>
<g><path style="opacity:0.1" fill="#bbbbbb" d="M 173.5,37.5 C 173.027,38.9063 172.027,39.573 170.5,39.5C 170.973,38.0937 171.973,37.427 173.5,37.5 Z"/></g>
<g><path style="opacity:0.808" fill="#636363" d="M 170.5,39.5 C 170.34,41.153 169.674,42.4863 168.5,43.5C 167.5,43.5 166.5,43.5 165.5,43.5C 165.967,40.7026 167.633,39.3692 170.5,39.5 Z"/></g>
<g><path style="opacity:0.314" fill="#797979" d="M 244.5,31.5 C 246.26,34.7006 247.094,38.3673 247,42.5C 247.5,61.4971 247.667,80.4971 247.5,99.5C 246.833,96.1667 246.167,92.8333 245.5,89.5C 245.543,70.8248 245.209,52.1581 244.5,33.5C 244.5,32.8333 244.5,32.1667 244.5,31.5 Z"/></g>
<g><path style="opacity:0.529" fill="#7e7e7e" d="M 237.5,33.5 C 238.93,33.4208 240.264,33.7542 241.5,34.5C 242.806,37.9798 242.806,41.3132 241.5,44.5C 241.813,41.7531 241.48,39.0865 240.5,36.5C 238.787,36.1207 237.787,35.1207 237.5,33.5 Z"/></g>
<g><path style="opacity:0.365" fill="#8f8f8f" d="M 314.5,35.5 C 321.126,38.4853 327.126,42.4853 332.5,47.5C 325.427,44.9736 319.427,40.9736 314.5,35.5 Z"/></g>
<g><path style="opacity:0.196" fill="#868686" d="M 304.5,38.5 C 309.018,41.163 313.685,43.663 318.5,46C 319.252,46.6708 319.586,47.5041 319.5,48.5C 314.224,46.194 309.224,43.5273 304.5,40.5C 304.5,39.8333 304.5,39.1667 304.5,38.5 Z"/></g>
<g><path style="opacity:0.025" fill="#b3b3b3" d="M 165.5,43.5 C 166.5,43.5 167.5,43.5 168.5,43.5C 167.18,45.8171 165.514,47.8171 163.5,49.5C 163.433,48.0413 163.766,46.7079 164.5,45.5C 164.833,44.8333 165.167,44.1667 165.5,43.5 Z"/></g>
<g><path style="opacity:0.29" fill="#a5a5a5" d="M 155.5,45.5 C 155.46,48.8811 154.127,51.5477 151.5,53.5C 151.518,50.0787 152.851,47.4121 155.5,45.5 Z"/></g>
<g><path style="opacity:0.835" fill="#4b4b4b" d="M 164.5,45.5 C 163.766,46.7079 163.433,48.0413 163.5,49.5C 162.069,50.7804 161.402,52.4471 161.5,54.5C 160.833,54.5 160.167,54.5 159.5,54.5C 159.913,50.6625 161.58,47.6625 164.5,45.5 Z"/></g>
<g><path style="opacity:0.035" fill="#a8a8a8" d="M 319.5,48.5 C 322.204,48.6696 323.871,50.0029 324.5,52.5C 321.796,52.3304 320.129,50.9971 319.5,48.5 Z"/></g>
<g><path style="opacity:0.251" fill="#9c9c9c" d="M 332.5,47.5 C 334.978,49.8025 337.645,51.9692 340.5,54C 341.252,54.6708 341.586,55.5041 341.5,56.5C 337.15,54.8169 334.15,51.8169 332.5,47.5 Z"/></g>
<g><path style="opacity:0.047" fill="#d8d8d8" d="M 163.5,49.5 C 163.598,51.5529 162.931,53.2196 161.5,54.5C 161.402,52.4471 162.069,50.7804 163.5,49.5 Z"/></g>
<g><path style="opacity:0.02" fill="#a9a9a9" d="M 159.5,54.5 C 160.167,54.5 160.833,54.5 161.5,54.5C 161.241,57.2718 160.241,59.6051 158.5,61.5C 158.298,59.0504 158.631,56.717 159.5,54.5 Z"/></g>
<g><path style="opacity:1" fill="#080808" d="M 244.5,33.5 C 245.209,52.1581 245.543,70.8248 245.5,89.5C 246.57,163.496 246.737,237.496 246,311.5C 245.426,313.492 244.259,314.992 242.5,316C 231.814,316.679 221.148,316.512 210.5,315.5C 209.167,315.5 207.833,315.5 206.5,315.5C 205.448,313.744 203.781,313.077 201.5,313.5C 199.889,311.359 198.389,309.026 197,306.5C 196.329,305.748 195.496,305.414 194.5,305.5C 194.167,302.167 193.833,298.833 193.5,295.5C 192.593,283.503 192.093,271.503 192,259.5C 192.383,260.056 192.883,260.389 193.5,260.5C 194.021,264.481 194.354,268.481 194.5,272.5C 195.408,280.799 196.242,289.132 197,297.5C 197.232,298.737 197.732,299.737 198.5,300.5C 200.634,305.076 204.301,307.409 209.5,307.5C 209.577,308.75 210.244,309.583 211.5,310C 214.168,310.567 216.834,311.067 219.5,311.5C 226.422,311.812 233.256,311.479 240,310.5C 240.5,297.171 240.667,283.837 240.5,270.5C 240.5,233.167 240.5,195.833 240.5,158.5C 240.5,155.833 240.5,153.167 240.5,150.5C 241.585,111.49 242.918,72.4896 244.5,33.5 Z"/></g>
<g><path style="opacity:0.047" fill="#b5b5b5" d="M 341.5,56.5 C 344.243,58.2393 346.243,60.5726 347.5,63.5C 346.504,63.5858 345.671,63.2524 345,62.5C 343.579,60.5952 342.412,58.5952 341.5,56.5 Z"/></g>
<g><path style="opacity:0.106" fill="#bbbbbb" d="M 347.5,63.5 C 349.89,64.8908 351.557,66.8908 352.5,69.5C 349.914,68.3615 348.247,66.3615 347.5,63.5 Z"/></g>
<g><path style="opacity:0.243" fill="#8d8d8d" d="M 151.5,55.5 C 151.5,59.8333 151.5,64.1667 151.5,68.5C 147.462,68.9578 143.462,69.6245 139.5,70.5C 142.626,68.0103 146.292,66.677 150.5,66.5C 150.185,62.6286 150.518,58.9619 151.5,55.5 Z"/></g>
<g><path style="opacity:0.012" fill="#dbdbdb" d="M 352.5,69.5 C 354.104,70.287 354.771,71.6203 354.5,73.5C 353.326,72.4863 352.66,71.153 352.5,69.5 Z"/></g>
<g><path style="opacity:0.075" fill="#9d9d9d" d="M 324.5,52.5 C 331.7,57.1889 338.2,62.8556 344,69.5C 345.559,71.2166 346.392,73.2166 346.5,75.5C 339.85,67.2163 332.516,59.5496 324.5,52.5 Z"/></g>
<g><path style="opacity:0.369" fill="#898989" d="M 139.5,70.5 C 138.608,73.2921 136.608,74.6254 133.5,74.5C 134.663,72.0178 136.663,70.6845 139.5,70.5 Z"/></g>
<g><path style="opacity:0.09" fill="#dedede" d="M 299.5,74.5 C 297.821,74.2852 296.821,74.9519 296.5,76.5C 295.596,75.791 295.263,74.791 295.5,73.5C 297.099,73.2322 298.432,73.5655 299.5,74.5 Z"/></g>
<g><path style="opacity:0.913" fill="#3f3f3f" d="M 236.5,26.5 C 236.5,27.1667 236.5,27.8333 236.5,28.5C 228.717,25.7014 221.05,25.868 213.5,29C 219.781,28.4648 226.115,28.4648 232.5,29C 234,29.5 235.5,30 237,30.5C 237.765,30.4301 238.265,30.0967 238.5,29.5C 240.5,30.1667 242.5,30.8333 244.5,31.5C 244.5,32.1667 244.5,32.8333 244.5,33.5C 242.918,72.4896 241.585,111.49 240.5,150.5C 240.5,140.5 240.5,130.5 240.5,120.5C 240.268,95.1538 240.601,69.8204 241.5,44.5C 242.806,41.3132 242.806,37.9798 241.5,34.5C 240.264,33.7542 238.93,33.4208 237.5,33.5C 237.167,33.5 236.833,33.5 236.5,33.5C 236.047,32.5416 235.381,31.7083 234.5,31C 225.696,28.8443 217.03,29.3443 208.5,32.5C 204.114,31.6531 199.78,30.6531 195.5,29.5C 190.343,29.2943 185.343,29.961 180.5,31.5C 180.881,30.0689 181.881,29.2355 183.5,29C 191.715,27.9138 199.715,28.7471 207.5,31.5C 208.463,31.0302 208.463,30.3635 207.5,29.5C 210.313,29.9754 212.313,28.9754 213.5,26.5C 216.865,24.9608 220.531,24.2942 224.5,24.5C 228.777,24.3367 232.777,25.0033 236.5,26.5 Z"/></g>
<g><path style="opacity:0.345" fill="#8f8f8f" d="M 299.5,74.5 C 304.139,74.8243 307.806,76.8243 310.5,80.5C 307.188,79.1796 303.855,77.8462 300.5,76.5C 299.702,76.0431 299.369,75.3764 299.5,74.5 Z"/></g>
<g><path style="opacity:0.596" fill="#929292" d="M 155.5,84.5 C 154.542,84.0472 153.708,83.3805 153,82.5C 152.399,79.3634 151.399,76.3634 150,73.5C 147.843,75.495 145.343,76.8283 142.5,77.5C 142.833,76.8333 143.167,76.1667 143.5,75.5C 145.516,74.412 147.683,73.412 150,72.5C 153.654,75.6162 155.488,79.6162 155.5,84.5 Z"/></g>
<g><path style="opacity:0.02" fill="#c9c9c9" d="M 296.5,76.5 C 297.906,76.9731 298.573,77.9731 298.5,79.5C 297.094,79.0269 296.427,78.0269 296.5,76.5 Z"/></g>
<g><path style="opacity:0.408" fill="#8d8d8d" d="M 346.5,75.5 C 349.773,76.5958 351.439,78.9291 351.5,82.5C 348.736,81.0525 347.069,78.7191 346.5,75.5 Z"/></g>
<g><path style="opacity:0.51" fill="#999999" d="M 354.5,73.5 C 355.496,73.4142 356.329,73.7476 357,74.5C 358.741,77.3093 359.908,80.3093 360.5,83.5C 357.496,80.8339 355.496,77.5006 354.5,73.5 Z"/></g>
<g><path style="opacity:0.184" fill="#aaaaaa" d="M 158.5,71.5 C 160.874,76.2766 162.874,81.2766 164.5,86.5C 160.283,82.5127 158.283,77.5127 158.5,71.5 Z"/></g>
<g><path style="opacity:0.765" fill="#5e5e5e" d="M 300.5,79.5 C 304.208,80.9316 306.541,83.5983 307.5,87.5C 305.596,87.2624 304.262,86.2624 303.5,84.5C 303.573,82.9731 302.906,81.9731 301.5,81.5C 301.167,80.8333 300.833,80.1667 300.5,79.5 Z"/></g>
<g><path style="opacity:0.998" fill="#111111" d="M 299.5,74.5 C 299.369,75.3764 299.702,76.0431 300.5,76.5C 303.855,77.8462 307.188,79.1796 310.5,80.5C 310.694,82.9118 312.027,83.9118 314.5,83.5C 315.144,86.8103 317.144,88.8103 320.5,89.5C 321.167,89.5 321.5,89.8333 321.5,90.5C 322.256,93.3939 323.923,95.3939 326.5,96.5C 329.802,101.731 332.135,107.398 333.5,113.5C 334.764,120.807 334.764,128.14 333.5,135.5C 332.671,132.198 332.004,128.865 331.5,125.5C 331.253,124.287 330.586,123.62 329.5,123.5C 329.162,121.146 328.662,118.813 328,116.5C 327.583,115.244 326.75,114.577 325.5,114.5C 325.598,112.447 324.931,110.78 323.5,109.5C 323.625,106.392 322.292,104.392 319.5,103.5C 318.644,99.1171 316.31,95.7837 312.5,93.5C 312.238,90.3013 310.572,88.3013 307.5,87.5C 306.541,83.5983 304.208,80.9316 300.5,79.5C 299.833,79.5 299.167,79.5 298.5,79.5C 298.573,77.9731 297.906,76.9731 296.5,76.5C 296.821,74.9519 297.821,74.2852 299.5,74.5 Z"/></g>
<g><path style="opacity:0.737" fill="#525252" d="M 143.5,75.5 C 143.167,76.1667 142.833,76.8333 142.5,77.5C 142.158,78.3382 141.492,78.6716 140.5,78.5C 137.796,78.6696 136.129,80.0029 135.5,82.5C 135.167,83.5 134.5,84.1667 133.5,84.5C 131.5,84.5 130.5,85.5 130.5,87.5C 130.5,88.1667 130.167,88.5 129.5,88.5C 129.343,87.1266 129.51,85.7932 130,84.5C 133.364,79.8942 137.864,76.8942 143.5,75.5 Z"/></g>
<g><path style="opacity:0.086" fill="#a8a8a8" d="M 140.5,78.5 C 139.794,80.8764 138.127,82.2097 135.5,82.5C 136.129,80.0029 137.796,78.6696 140.5,78.5 Z"/></g>
<g><path style="opacity:0.041" fill="#cccccc" d="M 298.5,79.5 C 299.167,79.5 299.833,79.5 300.5,79.5C 300.833,80.1667 301.167,80.8333 301.5,81.5C 299.973,81.573 298.973,80.9063 298.5,79.5 Z"/></g>
<g><path style="opacity:0.039" fill="#dfdfdf" d="M 301.5,81.5 C 302.906,81.9731 303.573,82.9731 303.5,84.5C 302.094,84.0269 301.427,83.0269 301.5,81.5 Z"/></g>
<g><path style="opacity:0.161" fill="#a8a8a8" d="M 310.5,80.5 C 312.632,80.5544 313.965,81.5544 314.5,83.5C 312.027,83.9118 310.694,82.9118 310.5,80.5 Z"/></g>
<g><path style="opacity:0.09" fill="#a9a9a9" d="M 133.5,74.5 C 129.222,78.1115 125.222,82.1115 121.5,86.5C 123.833,80.8333 127.833,76.8333 133.5,74.5 Z"/></g>
<g><path style="opacity:0.486" fill="#818181" d="M 351.5,82.5 C 352.643,82.9081 353.643,83.5748 354.5,84.5C 355.392,87.9518 357.058,90.9518 359.5,93.5C 361.095,96.6801 362.095,100.013 362.5,103.5C 358.577,96.6543 354.91,89.6543 351.5,82.5 Z"/></g>
<g><path style="opacity:0.027" fill="#c5c5c5" d="M 133.5,84.5 C 133.5,86.5 132.5,87.5 130.5,87.5C 130.5,85.5 131.5,84.5 133.5,84.5 Z"/></g>
<g><path style="opacity:0.129" fill="#818181" d="M 314.5,83.5 C 317.438,84.622 319.438,86.622 320.5,89.5C 317.144,88.8103 315.144,86.8103 314.5,83.5 Z"/></g>
<g><path style="opacity:0.184" fill="#9d9d9d" d="M 121.5,86.5 C 121.371,88.2161 121.038,89.8828 120.5,91.5C 119.833,91.5 119.167,91.5 118.5,91.5C 118.259,88.9664 119.259,87.2998 121.5,86.5 Z"/></g>
<g><path style="opacity:0.286" fill="#959595" d="M 155.5,84.5 C 158.526,87.2179 160.526,90.5512 161.5,94.5C 158.272,91.931 156.272,88.5977 155.5,84.5 Z"/></g>
<g><path style="opacity:0.247" fill="#9f9f9f" d="M 307.5,87.5 C 310.572,88.3013 312.238,90.3013 312.5,93.5C 309.914,92.3615 308.247,90.3615 307.5,87.5 Z"/></g>
<g><path style="opacity:0.057" fill="#a5a5a5" d="M 321.5,90.5 C 324.562,91.2678 326.228,93.2678 326.5,96.5C 323.923,95.3939 322.256,93.3939 321.5,90.5 Z"/></g>
<g><path style="opacity:0.231" fill="#696969" d="M 129.5,88.5 C 129.672,89.4916 129.338,90.1583 128.5,90.5C 127.778,91.5511 126.778,92.2178 125.5,92.5C 125.525,89.821 126.858,88.4877 129.5,88.5 Z"/></g>
<g><path style="opacity:0.216" fill="#9f9f9f" d="M 164.5,86.5 C 167.323,87.9923 168.99,90.3257 169.5,93.5C 166.647,92.1669 164.981,89.8335 164.5,86.5 Z"/></g>
<g><path style="opacity:0.024" fill="#c7c7c7" d="M 128.5,90.5 C 127.958,93.9122 126.625,96.9122 124.5,99.5C 124.517,97.4352 124.85,95.4352 125.5,93.5C 125.5,93.1667 125.5,92.8333 125.5,92.5C 126.778,92.2178 127.778,91.5511 128.5,90.5 Z"/></g>
<g><path style="opacity:0.018" fill="#b9b9b9" d="M 169.5,93.5 C 172.386,94.5964 174.386,96.5964 175.5,99.5C 172.192,98.935 170.192,96.935 169.5,93.5 Z"/></g>
<g><path style="opacity:0.79" fill="#525252" d="M 118.5,91.5 C 119.167,91.5 119.833,91.5 120.5,91.5C 116.817,102.449 116.817,113.449 120.5,124.5C 119.833,124.5 119.167,124.5 118.5,124.5C 116.682,116.661 116.015,108.661 116.5,100.5C 117.768,98.0948 118.435,95.4282 118.5,92.5C 118.5,92.1667 118.5,91.8333 118.5,91.5 Z"/></g>
<g><path style="opacity:0.903" fill="#5b5b5b" d="M 125.5,93.5 C 124.85,95.4352 124.517,97.4352 124.5,99.5C 123.488,105.477 123.488,111.477 124.5,117.5C 124.5,118.167 124.5,118.833 124.5,119.5C 123.883,119.389 123.383,119.056 123,118.5C 121.059,111.16 121.059,103.826 123,96.5C 123.236,94.8807 124.069,93.8807 125.5,93.5 Z"/></g>
<g><path style="opacity:0.133" fill="#ababab" d="M 161.5,94.5 C 163.017,94.5106 164.184,95.1772 165,96.5C 165.997,98.3231 167.164,99.9897 168.5,101.5C 165.189,100.189 162.855,97.8553 161.5,94.5 Z"/></g>
<g><path style="opacity:0.137" fill="#9a9a9a" d="M 360.5,83.5 C 361.376,83.3691 362.043,83.7025 362.5,84.5C 365.419,89.662 367.752,94.9953 369.5,100.5C 365.742,95.3215 362.742,89.6549 360.5,83.5 Z"/></g>
<g><path style="opacity:0.392" fill="#a8a8a8" d="M 118.5,92.5 C 118.435,95.4282 117.768,98.0948 116.5,100.5C 116.294,97.5049 116.96,94.8383 118.5,92.5 Z"/></g>
<g><path style="opacity:0.026" fill="#a4a4a4" d="M 312.5,93.5 C 316.31,95.7837 318.644,99.1171 319.5,103.5C 316.395,100.725 314.062,97.3918 312.5,93.5 Z"/></g>
<g><path style="opacity:0.198" fill="#a8a8a8" d="M 326.5,96.5 C 328.451,97.7158 329.951,99.3825 331,101.5C 332.336,105.631 333.836,109.631 335.5,113.5C 334.833,113.5 334.167,113.5 333.5,113.5C 332.135,107.398 329.802,101.731 326.5,96.5 Z"/></g>
<g><path style="opacity:0.014" fill="#c6c6c6" d="M 175.5,99.5 C 177.773,99.9568 179.106,101.29 179.5,103.5C 177.167,103.167 175.833,101.833 175.5,99.5 Z"/></g>
<g><path style="opacity:0.417" fill="#a2a2a2" d="M 260.5,31.5 C 260.833,31.5 261.167,31.5 261.5,31.5C 260.724,124.165 260.391,216.831 260.5,309.5C 259.263,220.998 259.263,132.331 260.5,43.5C 260.5,39.5 260.5,35.5 260.5,31.5 Z"/></g>
<g><path style="opacity:0.078" fill="#a5a5a5" d="M 168.5,101.5 C 170.5,101.5 171.5,102.5 171.5,104.5C 169.5,104.5 168.5,103.5 168.5,101.5 Z"/></g>
<g><path style="opacity:0.424" fill="#9a9a9a" d="M 369.5,100.5 C 370.931,101.78 371.598,103.447 371.5,105.5C 369.787,104.365 369.12,102.698 369.5,100.5 Z"/></g>
<g><path style="opacity:0.122" fill="#b6b6b6" d="M 171.5,104.5 C 173.027,104.427 174.027,105.094 174.5,106.5C 172.973,106.573 171.973,105.906 171.5,104.5 Z"/></g>
<g><path style="opacity:0.137" fill="#b4b4b4" d="M 362.5,103.5 C 363.931,104.78 364.598,106.447 364.5,108.5C 363.069,107.22 362.402,105.553 362.5,103.5 Z"/></g>
<g><path style="opacity:0.112" fill="#9d9d9d" d="M 319.5,103.5 C 322.292,104.392 323.625,106.392 323.5,109.5C 321.27,108.225 319.937,106.225 319.5,103.5 Z"/></g>
<g><path style="opacity:0.018" fill="#d3d3d3" d="M 179.5,103.5 C 180.807,105.223 180.807,107.057 179.5,109C 177.072,109.747 175.406,108.914 174.5,106.5C 176.117,107.038 177.784,107.371 179.5,107.5C 179.5,106.167 179.5,104.833 179.5,103.5 Z"/></g>
<g><path style="opacity:0.078" fill="#909090" d="M 371.5,106.5 C 372.497,106.47 373.164,106.97 373.5,108C 375.076,112.38 376.076,116.88 376.5,121.5C 373.473,117.086 371.806,112.086 371.5,106.5 Z"/></g>
<g><path style="opacity:0.184" fill="#909090" d="M 364.5,108.5 C 366.821,110.09 367.821,112.423 367.5,115.5C 365.166,113.824 364.166,111.491 364.5,108.5 Z"/></g>
<g><path style="opacity:0.114" fill="#d6d6d6" d="M 180.5,111.5 C 181.919,110.549 183.585,110.216 185.5,110.5C 185.802,113.059 185.468,115.393 184.5,117.5C 184.5,115.5 184.5,113.5 184.5,111.5C 183.167,111.5 181.833,111.5 180.5,111.5 Z"/></g>
<g><path style="opacity:0.102" fill="#bdbdbd" d="M 323.5,109.5 C 324.931,110.78 325.598,112.447 325.5,114.5C 324.069,113.22 323.402,111.553 323.5,109.5 Z"/></g>
<g><path style="opacity:0.376" fill="#999999" d="M 325.5,114.5 C 326.75,114.577 327.583,115.244 328,116.5C 328.662,118.813 329.162,121.146 329.5,123.5C 329.5,123.833 329.5,124.167 329.5,124.5C 327.215,121.665 325.882,118.332 325.5,114.5 Z"/></g>
<g><path style="opacity:1" fill="#131313" d="M 181.5,124.5 C 180.226,131.296 180.226,137.963 181.5,144.5C 182.936,153.107 187.102,160.107 194,165.5C 194.667,166.833 194.667,168.167 194,169.5C 192.644,168.62 191.144,168.286 189.5,168.5C 188.167,165.647 185.834,163.981 182.5,163.5C 179.752,160.268 177.752,156.602 176.5,152.5C 176.411,149.216 175.078,146.716 172.5,145C 173.469,140.263 173.803,135.43 173.5,130.5C 174.219,128.236 174.552,125.903 174.5,123.5C 175.376,123.631 176.043,123.298 176.5,122.5C 177.513,119.812 178.513,117.146 179.5,114.5C 181.017,114.489 182.184,113.823 183,112.5C 183.167,113 183.333,113.5 183.5,114C 182.274,117.402 181.607,120.902 181.5,124.5 Z"/></g>
<g><path style="opacity:0.371" fill="#8b8b8b" d="M 180.5,111.5 C 181.833,111.5 183.167,111.5 184.5,111.5C 184.5,113.5 184.5,115.5 184.5,117.5C 184.552,119.903 184.219,122.236 183.5,124.5C 182.833,124.5 182.167,124.5 181.5,124.5C 181.607,120.902 182.274,117.402 183.5,114C 183.333,113.5 183.167,113 183,112.5C 182.184,113.823 181.017,114.489 179.5,114.5C 179.263,113.209 179.596,112.209 180.5,111.5 Z"/></g>
<g><path style="opacity:0.722" fill="#868686" d="M 179.5,114.5 C 178.513,117.146 177.513,119.812 176.5,122.5C 176.043,123.298 175.376,123.631 174.5,123.5C 174.49,119.497 176.157,116.497 179.5,114.5 Z"/></g>
<g><path style="opacity:0.11" fill="#a4a4a4" d="M 124.5,117.5 C 126.798,122.002 128.798,126.669 130.5,131.5C 126.934,128.367 124.934,124.367 124.5,119.5C 124.5,118.833 124.5,118.167 124.5,117.5 Z"/></g>
<g><path style="opacity:0.451" fill="#7a7a7a" d="M 369.5,123.5 C 370.586,123.62 371.253,124.287 371.5,125.5C 372.493,129.791 373.16,134.124 373.5,138.5C 372.833,138.5 372.167,138.5 371.5,138.5C 370.647,133.53 369.98,128.53 369.5,123.5 Z"/></g>
<g><path style="opacity:0.027" fill="#a1a1a1" d="M 118.5,124.5 C 119.167,124.5 119.833,124.5 120.5,124.5C 121.576,127.302 122.576,130.135 123.5,133C 122.491,135.172 120.824,136.338 118.5,136.5C 119.445,135.007 120.445,133.507 121.5,132C 119.807,129.78 118.807,127.28 118.5,124.5 Z"/></g>
<g><path style="opacity:0.331" fill="#727272" d="M 333.5,113.5 C 334.167,113.5 334.833,113.5 335.5,113.5C 338.029,122.453 338.029,131.453 335.5,140.5C 334.167,140.5 332.833,140.5 331.5,140.5C 330.74,135.18 330.073,129.847 329.5,124.5C 329.5,124.167 329.5,123.833 329.5,123.5C 330.586,123.62 331.253,124.287 331.5,125.5C 332.004,128.865 332.671,132.198 333.5,135.5C 334.764,128.14 334.764,120.807 333.5,113.5 Z"/></g>
<g><path style="opacity:0.094" fill="#b9b9b9" d="M 376.5,121.5 C 378.692,125.098 379.692,129.098 379.5,133.5C 378.833,133.5 378.167,133.5 377.5,133.5C 376.979,129.519 376.646,125.519 376.5,121.5 Z"/></g>
<g><path style="opacity:0.302" fill="#acacac" d="M 174.5,123.5 C 174.552,125.903 174.219,128.236 173.5,130.5C 173.167,130.5 172.833,130.5 172.5,130.5C 172.41,127.848 173.076,125.515 174.5,123.5 Z"/></g>
<g><path style="opacity:0.122" fill="#a5a5a5" d="M 130.5,131.5 C 133.522,132.522 135.522,134.522 136.5,137.5C 133.478,136.478 131.478,134.478 130.5,131.5 Z"/></g>
<g><path style="opacity:0.086" fill="#d2d2d2" d="M 181.5,124.5 C 182.167,124.5 182.833,124.5 183.5,124.5C 181.627,130.924 180.96,137.591 181.5,144.5C 180.226,137.963 180.226,131.296 181.5,124.5 Z"/></g>
<g><path style="opacity:0.871" fill="#6f6f6f" d="M 133.5,144.5 C 130.401,143.366 127.901,141.366 126,138.5C 123.972,141.692 121.472,144.359 118.5,146.5C 117.527,148.139 116.194,149.473 114.5,150.5C 115.045,148.407 115.878,146.407 117,144.5C 120.1,141.4 123.1,138.4 126,135.5C 128.631,136.963 130.798,138.963 132.5,141.5C 133.127,142.417 133.461,143.417 133.5,144.5 Z"/></g>
<g><path style="opacity:0.075" fill="#eeeeee" d="M 172.5,133.5 C 173.069,137.329 172.402,140.663 170.5,143.5C 170.718,140.634 170.885,137.634 171,134.5C 171.383,133.944 171.883,133.611 172.5,133.5 Z"/></g>
<g><path style="opacity:0.068" fill="#b8b8b8" d="M 118.5,136.5 C 117.753,139.362 116.086,141.362 113.5,142.5C 114.692,140.122 116.359,138.122 118.5,136.5 Z"/></g>
<g><path style="opacity:0.541" fill="#808080" d="M 136.5,137.5 C 140.485,138.6 144.151,140.267 147.5,142.5C 144.729,142.579 142.063,142.079 139.5,141C 137.574,140.578 136.574,139.411 136.5,137.5 Z"/></g>
<g><path style="opacity:0.294" fill="#7b7b7b" d="M 377.5,133.5 C 378.167,133.5 378.833,133.5 379.5,133.5C 380.833,142.5 380.833,151.5 379.5,160.5C 378.833,160.5 378.167,160.5 377.5,160.5C 378.833,151.5 378.833,142.5 377.5,133.5 Z"/></g>
<g><path style="opacity:0.537" fill="#9b9b9b" d="M 113.5,142.5 C 113.245,144.967 112.245,146.967 110.5,148.5C 110.461,145.911 111.461,143.911 113.5,142.5 Z"/></g>
<g><path style="opacity:0.98" fill="#434343" d="M 172.5,130.5 C 172.833,130.5 173.167,130.5 173.5,130.5C 173.803,135.43 173.469,140.263 172.5,145C 175.078,146.716 176.411,149.216 176.5,152.5C 175.833,152.5 175.167,152.5 174.5,152.5C 174.5,150.833 174.5,149.167 174.5,147.5C 168.702,148.399 162.869,149.066 157,149.5C 152.905,149.569 149.072,148.903 145.5,147.5C 153.507,147.666 161.507,147.5 169.5,147C 169.833,146.667 170.167,146.333 170.5,146C 163.754,146.131 157.421,145.298 151.5,143.5C 157.833,143.5 164.167,143.5 170.5,143.5C 172.402,140.663 173.069,137.329 172.5,133.5C 172.5,132.5 172.5,131.5 172.5,130.5 Z"/></g>
<g><path style="opacity:0.417" fill="#7c7c7c" d="M 133.5,144.5 C 137.54,145.503 141.54,146.503 145.5,147.5C 149.072,148.903 152.905,149.569 157,149.5C 162.869,149.066 168.702,148.399 174.5,147.5C 174.5,149.167 174.5,150.833 174.5,152.5C 173.842,151.602 173.176,150.602 172.5,149.5C 163.221,151.883 153.887,152.05 144.5,150C 140.467,148.777 136.801,146.943 133.5,144.5 Z"/></g>
<g><path style="opacity:0.058" fill="#cecece" d="M 371.5,138.5 C 372.167,138.5 372.833,138.5 373.5,138.5C 373.5,144.833 373.5,151.167 373.5,157.5C 372.833,157.5 372.167,157.5 371.5,157.5C 371.5,151.167 371.5,144.833 371.5,138.5 Z"/></g>
<g><path style="opacity:0.122" fill="#b2b2b2" d="M 118.5,146.5 C 117.568,150.294 116.235,153.961 114.5,157.5C 113.511,161.107 113.177,164.774 113.5,168.5C 112.159,162.549 112.492,156.549 114.5,150.5C 116.194,149.473 117.527,148.139 118.5,146.5 Z"/></g>
<g><path style="opacity:0.376" fill="#979797" d="M 174.5,152.5 C 175.167,152.5 175.833,152.5 176.5,152.5C 177.752,156.602 179.752,160.268 182.5,163.5C 180.983,163.489 179.816,162.823 179,161.5C 176.788,158.807 175.288,155.807 174.5,152.5 Z"/></g>
<g><path style="opacity:0.2" fill="#d4d4d4" d="M 240.5,120.5 C 240.5,130.5 240.5,140.5 240.5,150.5C 240.5,153.167 240.5,155.833 240.5,158.5C 239.833,158.167 239.167,157.833 238.5,157.5C 238.333,146.162 238.5,134.828 239,123.5C 239.232,122.263 239.732,121.263 240.5,120.5 Z"/></g>
<g><path style="opacity:0.18" fill="#a7a7a7" d="M 181.5,144.5 C 183.711,147.913 185.711,151.579 187.5,155.5C 190.123,158.625 192.956,161.625 196,164.5C 197.243,171.957 195.076,173.29 189.5,168.5C 191.144,168.286 192.644,168.62 194,169.5C 194.667,168.167 194.667,166.833 194,165.5C 187.102,160.107 182.936,153.107 181.5,144.5 Z"/></g>
<g><path style="opacity:0.793" fill="#868686" d="M 110.5,148.5 C 107.88,158.825 107.88,169.159 110.5,179.5C 107.12,175.028 105.786,169.862 106.5,164C 106.494,159.764 106.994,155.598 108,151.5C 108.377,150.058 109.21,149.058 110.5,148.5 Z"/></g>
<g><path style="opacity:0.686" fill="#969696" d="M 182.5,163.5 C 185.834,163.981 188.167,165.647 189.5,168.5C 186.281,167.931 183.948,166.264 182.5,163.5 Z"/></g>
<g><path style="opacity:0.435" fill="#848484" d="M 371.5,157.5 C 372.167,157.5 372.833,157.5 373.5,157.5C 372.949,160.807 372.616,164.14 372.5,167.5C 371.833,167.5 371.167,167.5 370.5,167.5C 370.616,164.14 370.949,160.807 371.5,157.5 Z"/></g>
<g><path style="opacity:0.604" fill="#2d2d2d" d="M 260.5,43.5 C 259.263,132.331 259.263,220.998 260.5,309.5C 261.622,311.556 263.289,312.889 265.5,313.5C 262.955,315.023 260.955,314.357 259.5,311.5C 258.333,229.502 258.167,147.502 259,65.5C 259.171,57.9885 259.671,50.6552 260.5,43.5 Z"/></g>
<g><path style="opacity:0.02" fill="#cfcfcf" d="M 377.5,160.5 C 378.167,160.5 378.833,160.5 379.5,160.5C 379.025,167.567 377.359,174.234 374.5,180.5C 376.017,173.914 377.017,167.248 377.5,160.5 Z"/></g>
<g><path style="opacity:0.612" fill="#444444" d="M 370.5,167.5 C 371.167,167.5 371.833,167.5 372.5,167.5C 371.997,172.682 370.33,177.348 367.5,181.5C 367.5,181.167 367.5,180.833 367.5,180.5C 367.433,179.041 367.766,177.708 368.5,176.5C 370.04,174.162 370.706,171.495 370.5,168.5C 370.5,168.167 370.5,167.833 370.5,167.5 Z"/></g>
<g><path style="opacity:0.176" fill="#a8a8a8" d="M 113.5,168.5 C 116.068,172.856 118.068,177.522 119.5,182.5C 115.403,178.838 113.403,174.171 113.5,168.5 Z"/></g>
<g><path style="opacity:0.263" fill="#a0a0a0" d="M 370.5,168.5 C 370.706,171.495 370.04,174.162 368.5,176.5C 368.565,173.572 369.232,170.905 370.5,168.5 Z"/></g>
<g><path style="opacity:0.996" fill="#131313" d="M 327.5,192.5 C 324.752,193.475 322.752,195.308 321.5,198C 314.223,200.118 314.056,198.951 321,194.5C 322.411,192.35 323.245,190.016 323.5,187.5C 324.496,187.586 325.329,187.252 326,186.5C 327.437,180.718 329.77,175.384 333,170.5C 333.667,173.167 333.667,175.833 333,178.5C 330.87,183.057 329.037,187.723 327.5,192.5 Z"/></g>
<g><path style="opacity:0.278" fill="#7e7e7e" d="M 327.5,192.5 C 329.037,187.723 330.87,183.057 333,178.5C 333.667,175.833 333.667,173.167 333,170.5C 329.77,175.384 327.437,180.718 326,186.5C 325.329,187.252 324.496,187.586 323.5,187.5C 325.389,180.831 328.056,174.498 331.5,168.5C 332.689,167.571 334.022,167.238 335.5,167.5C 335.666,171.514 335.499,175.514 335,179.5C 333.147,183.385 331.48,187.385 330,191.5C 329.329,192.252 328.496,192.586 327.5,192.5 Z"/></g>
<g><path style="opacity:0.282" fill="#b0b0b0" d="M 110.5,179.5 C 111.887,182.053 113.72,184.386 116,186.5C 116.483,187.448 116.649,188.448 116.5,189.5C 112.977,187.127 110.977,183.793 110.5,179.5 Z"/></g>
<g><path style="opacity:0.259" fill="#949494" d="M 367.5,180.5 C 367.5,180.833 367.5,181.167 367.5,181.5C 367.741,184.034 366.741,185.7 364.5,186.5C 364.386,183.784 365.386,181.784 367.5,180.5 Z"/></g>
<g><path style="opacity:0.349" fill="#8e8e8e" d="M 119.5,182.5 C 123.5,186.167 127.5,189.833 131.5,193.5C 125.769,191.648 121.769,187.982 119.5,182.5 Z"/></g>
<g><path style="opacity:0.494" fill="#878787" d="M 116.5,189.5 C 120.495,190.304 122.829,192.637 123.5,196.5C 120.167,195.167 117.833,192.833 116.5,189.5 Z"/></g>
<g><path style="opacity:0.171" fill="#868686" d="M 364.5,186.5 C 364.662,188.527 364.495,190.527 364,192.5C 362.038,194.864 360.538,197.531 359.5,200.5C 359.043,201.298 358.376,201.631 357.5,201.5C 359.067,196.039 361.4,191.039 364.5,186.5 Z"/></g>
<g><path style="opacity:0.22" fill="#adadad" d="M 131.5,193.5 C 133.553,193.402 135.22,194.069 136.5,195.5C 134.302,195.88 132.635,195.213 131.5,193.5 Z"/></g>
<g><path style="opacity:0.149" fill="#8a8a8a" d="M 374.5,180.5 C 371.696,189.064 368.196,197.398 364,205.5C 363.241,207.063 362.074,208.063 360.5,208.5C 364.772,199.879 368.772,191.045 372.5,182C 372.836,180.97 373.503,180.47 374.5,180.5 Z"/></g>
<g><path style="opacity:0.263" fill="#949494" d="M 136.5,195.5 C 140.127,196.429 143.793,197.263 147.5,198C 148.056,198.383 148.389,198.883 148.5,199.5C 144.753,199.608 141.086,199.108 137.5,198C 136.748,197.329 136.414,196.496 136.5,195.5 Z"/></g>
<g><path style="opacity:0.467" fill="#929292" d="M 182.5,195.5 C 182.5,196.167 182.5,196.833 182.5,197.5C 177.256,198.815 171.923,199.482 166.5,199.5C 166.611,198.883 166.944,198.383 167.5,198C 172.545,197.357 177.545,196.524 182.5,195.5 Z"/></g>
<g><path style="opacity:0.137" fill="#ababab" d="M 123.5,196.5 C 126.849,197.169 129.516,198.836 131.5,201.5C 127.859,201.348 125.193,199.682 123.5,196.5 Z"/></g>
<g><path style="opacity:0.529" fill="#8e8e8e" d="M 183.5,195.5 C 184.542,194.209 185.708,194.209 187,195.5C 187.667,197.167 187.667,198.833 187,200.5C 184.699,201.867 182.199,202.534 179.5,202.5C 180.784,200.386 182.784,199.386 185.5,199.5C 185.843,197.517 185.176,196.183 183.5,195.5 Z"/></g>
<g><path style="opacity:0.157" fill="#929292" d="M 323.5,187.5 C 323.245,190.016 322.411,192.35 321,194.5C 314.056,198.951 314.223,200.118 321.5,198C 322.752,195.308 324.752,193.475 327.5,192.5C 326.817,196.019 324.817,198.519 321.5,200C 319.376,201.582 317.21,201.749 315,200.5C 314.333,199.5 314.333,198.5 315,197.5C 318.107,194.21 320.94,190.877 323.5,187.5 Z"/></g>
<g><path style="opacity:0.91" fill="#494949" d="M 182.5,195.5 C 182.833,195.5 183.167,195.5 183.5,195.5C 185.176,196.183 185.843,197.517 185.5,199.5C 182.784,199.386 180.784,200.386 179.5,202.5C 178.432,203.434 177.099,203.768 175.5,203.5C 173.833,203.5 172.167,203.5 170.5,203.5C 166.39,203.701 162.724,204.701 159.5,206.5C 156.556,207.588 153.556,207.588 150.5,206.5C 150.389,205.883 150.056,205.383 149.5,205C 146.456,204.637 143.456,204.137 140.5,203.5C 150.481,203.795 160.648,203.462 171,202.5C 175.465,200.925 179.965,199.425 184.5,198C 183.906,197.536 183.239,197.369 182.5,197.5C 182.5,196.833 182.5,196.167 182.5,195.5 Z"/></g>
<g><path style="opacity:0.037" fill="#dcdcdc" d="M 170.5,203.5 C 172.167,203.5 173.833,203.5 175.5,203.5C 174.448,205.256 172.781,205.923 170.5,205.5C 170.5,204.833 170.5,204.167 170.5,203.5 Z"/></g>
<g><path style="opacity:0.282" fill="#9d9d9d" d="M 140.5,203.5 C 143.456,204.137 146.456,204.637 149.5,205C 150.056,205.383 150.389,205.883 150.5,206.5C 147.552,206.777 144.719,206.444 142,205.5C 141.501,210.823 141.334,216.156 141.5,221.5C 140.51,215.69 140.177,209.69 140.5,203.5 Z"/></g>
<g><path style="opacity:0.424" fill="#828282" d="M 170.5,203.5 C 170.5,204.167 170.5,204.833 170.5,205.5C 166.901,206.344 163.234,206.677 159.5,206.5C 162.724,204.701 166.39,203.701 170.5,203.5 Z"/></g>
<g><path style="opacity:0.208" fill="#9e9e9e" d="M 357.5,201.5 C 356.723,205.408 354.723,208.408 351.5,210.5C 352.723,206.951 354.723,203.951 357.5,201.5 Z"/></g>
<g><path style="opacity:0.855" fill="#7e7e7e" d="M 131.5,201.5 C 133.262,201.357 134.929,201.691 136.5,202.5C 137.192,205.77 137.192,209.103 136.5,212.5C 135.833,212.833 135.167,213.167 134.5,213.5C 134.319,210.603 134.652,207.77 135.5,205C 134.653,203.229 133.32,202.063 131.5,201.5 Z"/></g>
<g><path style="opacity:0.68" fill="#2c2c2c" d="M 253.5,171.5 C 254.182,215.027 254.849,258.694 255.5,302.5C 254.833,301.833 254.167,301.167 253.5,300.5C 253.5,298.833 253.5,297.167 253.5,295.5C 253.5,254.167 253.5,212.833 253.5,171.5 Z"/></g>
<g><path style="opacity:0.306" fill="#9a9a9a" d="M 360.5,208.5 C 359.429,212.976 357.096,216.643 353.5,219.5C 354.585,214.986 356.919,211.32 360.5,208.5 Z"/></g>
<g><path style="opacity:0.367" fill="#8e8e8e" d="M 219.5,227.5 C 219.5,223.5 219.5,219.5 219.5,215.5C 218.5,215.5 217.5,215.5 216.5,215.5C 217.01,218.388 216.344,220.721 214.5,222.5C 214.211,219.351 214.711,216.351 216,213.5C 217.049,212.483 218.216,212.316 219.5,213C 220.824,217.933 220.824,222.766 219.5,227.5 Z"/></g>
<g><path style="opacity:0.569" fill="#8f8f8f" d="M 351.5,210.5 C 351.435,214.107 349.769,216.44 346.5,217.5C 347.01,214.326 348.677,211.992 351.5,210.5 Z"/></g>
<g><path style="opacity:0.282" fill="#9e9e9e" d="M 346.5,217.5 C 346.291,218.922 345.791,220.255 345,221.5C 341.945,225.624 338.445,229.291 334.5,232.5C 337.747,226.917 341.747,221.917 346.5,217.5 Z"/></g>
<g><path style="opacity:0.323" fill="#969696" d="M 238.5,157.5 C 239.167,157.833 239.833,158.167 240.5,158.5C 240.5,195.833 240.5,233.167 240.5,270.5C 239.833,270.5 239.167,270.5 238.5,270.5C 238.5,232.833 238.5,195.167 238.5,157.5 Z"/></g>
<g><path style="opacity:0.866" fill="#444444" d="M 245.5,89.5 C 246.167,92.8333 246.833,96.1667 247.5,99.5C 247.824,171.529 247.49,243.529 246.5,315.5C 245.47,318.192 243.47,319.692 240.5,320C 234.651,320.818 228.985,320.652 223.5,319.5C 223.389,318.883 223.056,318.383 222.5,318C 218.264,317.665 214.264,316.832 210.5,315.5C 221.148,316.512 231.814,316.679 242.5,316C 244.259,314.992 245.426,313.492 246,311.5C 246.737,237.496 246.57,163.496 245.5,89.5 Z"/></g>
<g><path style="opacity:0.031" fill="#a6a6a6" d="M 353.5,219.5 C 352.774,222.288 351.107,224.288 348.5,225.5C 348.762,222.301 350.428,220.301 353.5,219.5 Z"/></g>
<g><path style="opacity:0.706" fill="#6a6a6a" d="M 136.5,212.5 C 135.261,219.883 135.594,227.216 137.5,234.5C 136.833,234.5 136.167,234.5 135.5,234.5C 133.437,227.564 133.104,220.564 134.5,213.5C 135.167,213.167 135.833,212.833 136.5,212.5 Z"/></g>
<g><path style="opacity:0.459" fill="#a3a3a3" d="M 214.5,222.5 C 214.88,224.698 214.213,226.365 212.5,227.5C 212.402,225.447 213.069,223.78 214.5,222.5 Z"/></g>
<g><path style="opacity:0.22" fill="#999999" d="M 141.5,223.5 C 144.017,228.372 146.351,233.372 148.5,238.5C 143.343,234.966 141.01,229.966 141.5,223.5 Z"/></g>
<g><path style="opacity:0.027" fill="#a4a4a4" d="M 348.5,225.5 C 348.291,226.922 347.791,228.255 347,229.5C 340.272,237.056 333.439,244.39 326.5,251.5C 326.351,250.448 326.517,249.448 327,248.5C 332.231,241.992 337.898,235.992 344,230.5C 344.312,227.691 345.812,226.024 348.5,225.5 Z"/></g>
<g><path style="opacity:0.086" fill="#a7a7a7" d="M 219.5,227.5 C 219.674,231.36 218.341,234.36 215.5,236.5C 215.528,232.839 216.862,229.839 219.5,227.5 Z"/></g>
<g><path style="opacity:0.329" fill="#a4a4a4" d="M 334.5,232.5 C 334.5,234.5 333.5,235.5 331.5,235.5C 331.5,233.5 332.5,232.5 334.5,232.5 Z"/></g>
<g><path style="opacity:0.259" fill="#9c9c9c" d="M 212.5,227.5 C 212.108,229.179 211.608,230.846 211,232.5C 207.107,236.73 202.941,240.563 198.5,244C 193.58,248.03 187.913,250.197 181.5,250.5C 186.016,248.344 190.683,246.177 195.5,244C 197.305,241.597 199.638,239.93 202.5,239C 206.413,235.593 209.747,231.759 212.5,227.5 Z"/></g>
<g><path style="opacity:0.639" fill="#848484" d="M 135.5,234.5 C 136.167,234.5 136.833,234.5 137.5,234.5C 139.225,238.943 141.725,242.943 145,246.5C 148.508,250.341 152.341,253.841 156.5,257C 158.491,257.374 160.158,258.207 161.5,259.5C 153.871,257.859 147.871,253.859 143.5,247.5C 142.396,245.611 141.063,243.945 139.5,242.5C 137.127,240.421 135.794,237.754 135.5,234.5 Z"/></g>
<g><path style="opacity:0.063" fill="#a1a1a1" d="M 215.5,236.5 C 214.165,240.495 211.831,243.828 208.5,246.5C 208.392,244.486 209.058,242.82 210.5,241.5C 211.991,239.718 213.658,238.052 215.5,236.5 Z"/></g>
<g><path style="opacity:0.714" fill="#676767" d="M 331.5,235.5 C 331.116,239.555 329.116,242.555 325.5,244.5C 325.833,243.167 326.167,241.833 326.5,240.5C 328.167,238.833 329.833,237.167 331.5,235.5 Z"/></g>
<g><path style="opacity:0.047" fill="#c0c0c0" d="M 139.5,242.5 C 141.063,243.945 142.396,245.611 143.5,247.5C 141.003,246.871 139.67,245.204 139.5,242.5 Z"/></g>
<g><path style="opacity:0.078" fill="#b3b3b3" d="M 326.5,240.5 C 326.167,241.833 325.833,243.167 325.5,244.5C 324.135,246.86 322.135,248.527 319.5,249.5C 321.458,246.208 323.791,243.208 326.5,240.5 Z"/></g>
<g><path style="opacity:0.918" fill="#4d4d4d" d="M 210.5,241.5 C 209.058,242.82 208.392,244.486 208.5,246.5C 204.869,247.608 201.869,249.774 199.5,253C 197.541,253.931 195.541,254.764 193.5,255.5C 192.566,257.095 192.566,258.761 193.5,260.5C 192.883,260.389 192.383,260.056 192,259.5C 192.093,271.503 192.593,283.503 193.5,295.5C 192.833,294.5 192.167,293.5 191.5,292.5C 190.624,281.521 189.957,270.521 189.5,259.5C 188.5,259.5 187.5,259.5 186.5,259.5C 180.011,260.617 173.678,260.617 167.5,259.5C 175.574,259.597 183.574,258.93 191.5,257.5C 191.281,256.325 191.614,255.325 192.5,254.5C 199.096,250.891 205.096,246.558 210.5,241.5 Z"/></g>
<g><path style="opacity:0.22" fill="#a1a1a1" d="M 208.5,246.5 C 204.456,251.031 199.789,254.865 194.5,258C 196.003,263.02 196.67,268.187 196.5,273.5C 195.833,273.167 195.167,272.833 194.5,272.5C 194.354,268.481 194.021,264.481 193.5,260.5C 192.566,258.761 192.566,257.095 193.5,255.5C 195.541,254.764 197.541,253.931 199.5,253C 201.869,249.774 204.869,247.608 208.5,246.5 Z"/></g>
<g><path style="opacity:0.153" fill="#949494" d="M 148.5,238.5 C 151.938,240.759 155.271,243.259 158.5,246C 161.881,247.339 165.214,248.672 168.5,250C 172.152,250.499 175.818,250.665 179.5,250.5C 172.063,252.098 164.73,251.265 157.5,248C 155.499,245.516 152.999,243.683 150,242.5C 149.209,241.255 148.709,239.922 148.5,238.5 Z"/></g>
<g><path style="opacity:0.11" fill="#9c9c9c" d="M 325.5,252.5 C 324.927,255.407 323.261,257.407 320.5,258.5C 320.712,255.288 322.379,253.288 325.5,252.5 Z"/></g>
<g><path style="opacity:0.227" fill="#989898" d="M 320.5,258.5 C 320.316,261.337 318.982,263.337 316.5,264.5C 316.5,264.167 316.5,263.833 316.5,263.5C 316.67,260.796 318.003,259.129 320.5,258.5 Z"/></g>
<g><path style="opacity:0.173" fill="#acacac" d="M 162.5,259.5 C 164.167,259.5 165.833,259.5 167.5,259.5C 173.678,260.617 180.011,260.617 186.5,259.5C 186.209,260.649 185.376,261.316 184,261.5C 177.667,262.833 171.333,262.833 165,261.5C 163.624,261.316 162.791,260.649 162.5,259.5 Z"/></g>
<g><path style="opacity:0.267" fill="#7e7e7e" d="M 319.5,249.5 C 314.945,256.147 311.278,263.147 308.5,270.5C 309.114,261.89 312.78,254.89 319.5,249.5 Z"/></g>
<g><path style="opacity:0.008" fill="#dddddd" d="M 316.5,264.5 C 316.198,267.373 315.531,270.039 314.5,272.5C 314.111,269.447 314.777,266.78 316.5,264.5 Z"/></g>
<g><path style="opacity:0.319" fill="#606060" d="M 316.5,263.5 C 316.5,263.833 316.5,264.167 316.5,264.5C 314.777,266.78 314.111,269.447 314.5,272.5C 314.756,276.269 314.423,279.936 313.5,283.5C 312.833,283.5 312.167,283.5 311.5,283.5C 311.947,278.143 312.614,272.81 313.5,267.5C 313.561,265.347 314.561,264.014 316.5,263.5 Z"/></g>
<g><path style="opacity:0.286" fill="#b1b1b1" d="M 247.5,99.5 C 248.665,170.665 248.832,241.999 248,313.5C 247.722,314.416 247.222,315.082 246.5,315.5C 247.49,243.529 247.824,171.529 247.5,99.5 Z"/></g>
<g><path style="opacity:0.137" fill="#bbbbbb" d="M 307.5,282.5 C 307.975,285.082 307.308,287.082 305.5,288.5C 305.054,285.99 305.72,283.99 307.5,282.5 Z"/></g>
<g><path style="opacity:0.243" fill="#afafaf" d="M 311.5,283.5 C 312.167,283.5 312.833,283.5 313.5,283.5C 313.946,289.245 312.946,294.579 310.5,299.5C 310.98,294.178 311.313,288.845 311.5,283.5 Z"/></g>
<g><path style="opacity:0.196" fill="#bababa" d="M 238.5,270.5 C 239.167,270.5 239.833,270.5 240.5,270.5C 240.667,283.837 240.5,297.171 240,310.5C 233.256,311.479 226.422,311.812 219.5,311.5C 219.5,310.833 219.5,310.167 219.5,309.5C 225.833,309.5 232.167,309.5 238.5,309.5C 238.5,296.5 238.5,283.5 238.5,270.5 Z"/></g>
<g><path style="opacity:0.915" fill="#606060" d="M 194.5,272.5 C 195.167,272.833 195.833,273.167 196.5,273.5C 197.872,280.96 198.539,288.626 198.5,296.5C 198.5,297.833 198.5,299.167 198.5,300.5C 197.732,299.737 197.232,298.737 197,297.5C 196.242,289.132 195.408,280.799 194.5,272.5 Z"/></g>
<g><path style="opacity:0.612" fill="#848484" d="M 191.5,292.5 C 192.167,293.5 192.833,294.5 193.5,295.5C 193.833,298.833 194.167,302.167 194.5,305.5C 193.069,305.119 192.236,304.119 192,302.5C 191.502,299.183 191.335,295.85 191.5,292.5 Z"/></g>
<g><path style="opacity:0.027" fill="#b2b2b2" d="M 198.5,296.5 C 201.167,301.167 204.833,304.833 209.5,307.5C 204.301,307.409 200.634,305.076 198.5,300.5C 198.5,299.167 198.5,297.833 198.5,296.5 Z"/></g>
<g><path style="opacity:0.51" fill="#949494" d="M 305.5,291.5 C 306.957,296.127 305.957,300.127 302.5,303.5C 303.213,299.313 304.213,295.313 305.5,291.5 Z"/></g>
<g><path style="opacity:0.224" fill="#909090" d="M 302.5,303.5 C 302.68,307.656 300.68,309.99 296.5,310.5C 298.273,307.94 300.273,305.607 302.5,303.5 Z"/></g>
<g><path style="opacity:0.186" fill="#9b9b9b" d="M 194.5,305.5 C 195.496,305.414 196.329,305.748 197,306.5C 198.389,309.026 199.889,311.359 201.5,313.5C 197.703,312.041 195.369,309.374 194.5,305.5 Z"/></g>
<g><path style="opacity:0.714" fill="#606060" d="M 209.5,307.5 C 212.906,307.956 216.239,308.622 219.5,309.5C 219.5,310.167 219.5,310.833 219.5,311.5C 216.834,311.067 214.168,310.567 211.5,310C 210.244,309.583 209.577,308.75 209.5,307.5 Z"/></g>
<g><path style="opacity:0.567" fill="#8f8f8f" d="M 201.5,313.5 C 203.781,313.077 205.448,313.744 206.5,315.5C 204.447,315.598 202.78,314.931 201.5,313.5 Z"/></g>
<g><path style="opacity:0.159" fill="#989898" d="M 296.5,310.5 C 296.586,311.496 296.252,312.329 295.5,313C 289.687,314.949 283.687,315.782 277.5,315.5C 273.435,315.489 269.768,314.822 266.5,313.5C 273.841,313.666 281.174,313.5 288.5,313C 291.279,312.439 293.946,311.606 296.5,310.5 Z"/></g>
<g><path style="opacity:0.09" fill="#6c6c6c" d="M 253.5,300.5 C 254.167,301.167 254.833,301.833 255.5,302.5C 253.607,311.061 256.607,316.727 264.5,319.5C 260.65,319.822 257.483,318.489 255,315.5C 253.675,310.599 253.175,305.599 253.5,300.5 Z"/></g>
<g><path style="opacity:0.043" fill="#999999" d="M 310.5,299.5 C 309.992,306.349 306.992,311.849 301.5,316C 299.35,317.411 297.016,318.245 294.5,318.5C 298.208,315.873 301.708,312.873 305,309.5C 306.004,305.603 307.837,302.269 310.5,299.5 Z"/></g>
<g><path style="opacity:0.293" fill="#9a9a9a" d="M 206.5,315.5 C 207.833,315.5 209.167,315.5 210.5,315.5C 214.264,316.832 218.264,317.665 222.5,318C 223.056,318.383 223.389,318.883 223.5,319.5C 217.251,319.923 211.584,318.589 206.5,315.5 Z"/></g>
<g><path style="opacity:0.176" fill="#c6c6c6" d="M 294.5,318.5 C 292.958,319.163 291.291,319.83 289.5,320.5C 285.5,320.833 281.5,321.167 277.5,321.5C 273.107,321.491 269.107,320.824 265.5,319.5C 275.191,319.658 284.857,319.325 294.5,318.5 Z"/></g>
<g><path style="opacity:0.296" fill="#4a4a4a" d="M 205.5,324.5 C 234.997,323.336 264.664,323.169 294.5,324C 297.019,325.338 298.353,327.504 298.5,330.5C 298.332,332.171 297.665,333.504 296.5,334.5C 297.296,330.316 295.963,327.15 292.5,325C 263.502,324.5 234.502,324.333 205.5,324.5 Z"/></g>
<g><path style="opacity:1" fill="#161616" d="M 205.5,324.5 C 234.502,324.333 263.502,324.5 292.5,325C 295.963,327.15 297.296,330.316 296.5,334.5C 295.653,335.966 294.32,336.8 292.5,337C 263.761,337.824 235.095,337.658 206.5,336.5C 202.894,332.84 202.561,328.84 205.5,324.5 Z"/></g>
<g><path style="opacity:0.527" fill="#6a6b6a" d="M 205.5,324.5 C 202.561,328.84 202.894,332.84 206.5,336.5C 201.338,334.303 200.171,330.636 203,325.5C 203.671,324.748 204.504,324.414 205.5,324.5 Z"/></g>
<g><path style="opacity:0.369" fill="#2c2c2c" d="M 206.5,339.5 C 236.338,339.169 266.005,339.502 295.5,340.5C 295.427,342.027 296.094,343.027 297.5,343.5C 298.924,346.125 298.591,348.458 296.5,350.5C 297.544,345.806 295.877,342.639 291.5,341C 262.791,340.183 234.125,340.35 205.5,341.5C 205.833,340.833 206.167,340.167 206.5,339.5 Z"/></g>
<g><path style="opacity:0.963" fill="#020202" d="M 296.5,350.5 C 294.517,350.157 293.183,350.824 292.5,352.5C 263.833,352.5 235.167,352.5 206.5,352.5C 202.98,349.064 202.646,345.397 205.5,341.5C 234.125,340.35 262.791,340.183 291.5,341C 295.877,342.639 297.544,345.806 296.5,350.5 Z"/></g>
<g><path style="opacity:0.153" fill="#9a9a9a" d="M 295.5,340.5 C 296.906,340.973 297.573,341.973 297.5,343.5C 296.094,343.027 295.427,342.027 295.5,340.5 Z"/></g>
<g><path style="opacity:0.558" fill="#6e6e6e" d="M 206.5,339.5 C 206.167,340.167 205.833,340.833 205.5,341.5C 202.646,345.397 202.98,349.064 206.5,352.5C 201.338,350.303 200.171,346.636 203,341.5C 203.816,340.177 204.983,339.511 206.5,339.5 Z"/></g>
<g><path style="opacity:0.663" fill="#656565" d="M 296.5,350.5 C 295.713,352.104 294.38,352.771 292.5,352.5C 293.183,350.824 294.517,350.157 296.5,350.5 Z"/></g>
<g><path style="opacity:0.939" fill="#050505" d="M 286.5,358.5 C 285.25,358.577 284.417,359.244 284,360.5C 282.228,364.313 281.395,368.313 281.5,372.5C 260.833,372.5 240.167,372.5 219.5,372.5C 218.44,368.82 217.274,365.154 216,361.5C 215.583,360.244 214.75,359.577 213.5,359.5C 213.196,358.85 212.863,358.183 212.5,357.5C 213.736,356.643 215.069,355.977 216.5,355.5C 239.801,356.72 263.134,356.72 286.5,355.5C 286.5,356.5 286.5,357.5 286.5,358.5 Z"/></g>
<g><path style="opacity:0.68" fill="#5b5b5b" d="M 286.5,358.5 C 285.204,363.393 283.538,368.06 281.5,372.5C 281.395,368.313 282.228,364.313 284,360.5C 284.417,359.244 285.25,358.577 286.5,358.5 Z"/></g>
<g><path style="opacity:0.329" fill="#595959" d="M 213.5,359.5 C 214.75,359.577 215.583,360.244 216,361.5C 217.274,365.154 218.44,368.82 219.5,372.5C 218.25,372.423 217.417,371.756 217,370.5C 215.726,366.846 214.56,363.18 213.5,359.5 Z"/></g>
<g><path style="opacity:0.832" fill="#000000" d="M 14.5,388.5 C 16.679,388.84 18.5123,389.84 20,391.5C 25.0075,398.003 30.1742,404.336 35.5,410.5C 41.2859,403.759 46.9526,396.926 52.5,390C 54.6806,387.922 56.6806,388.089 58.5,390.5C 59.8333,406.167 59.8333,421.833 58.5,437.5C 56.3052,438.769 54.1385,438.769 52,437.5C 51.6667,426.167 51.3333,414.833 51,403.5C 46.7597,408.317 42.7597,413.317 39,418.5C 35.4,421.354 32.4,420.687 30,416.5C 26.9088,411.986 23.5755,407.653 20,403.5C 19.6667,414.5 19.3333,425.5 19,436.5C 16.975,438.725 14.6417,439.059 12,437.5C 11.3333,421.833 11.3333,406.167 12,390.5C 12.9947,389.934 13.828,389.267 14.5,388.5 Z"/></g>
<g><path style="opacity:0.89" fill="#000000" d="M 73.5,388.5 C 83.5056,388.334 93.5056,388.5 103.5,389C 105.602,390.733 105.935,392.733 104.5,395C 95.5062,395.5 86.5062,395.666 77.5,395.5C 77.5,400.5 77.5,405.5 77.5,410.5C 84.8635,410.169 92.1968,410.503 99.5,411.5C 100.61,413.496 100.276,415.329 98.5,417C 91.5079,417.5 84.5079,417.666 77.5,417.5C 77.5,422.167 77.5,426.833 77.5,431.5C 86.1731,431.334 94.8397,431.5 103.5,432C 105.602,433.733 105.935,435.733 104.5,438C 93.2569,438.82 82.0902,438.653 71,437.5C 70.3333,421.833 70.3333,406.167 71,390.5C 71.9947,389.934 72.828,389.267 73.5,388.5 Z"/></g>
<g><path style="opacity:0.824" fill="#000000" d="M 115.5,388.5 C 118.614,389.091 121.114,390.758 123,393.5C 131.242,403.653 139.242,413.986 147,424.5C 147.333,413.167 147.667,401.833 148,390.5C 150.222,387.956 152.389,387.956 154.5,390.5C 155.65,405.789 155.817,421.122 155,436.5C 153.303,440.039 151.137,440.373 148.5,437.5C 139.523,426.022 130.356,414.689 121,403.5C 120.667,414.833 120.333,426.167 120,437.5C 118,438.833 116,438.833 114,437.5C 112.367,422.593 112.033,407.593 113,392.5C 113.662,391.016 114.496,389.683 115.5,388.5 Z"/></g>
<g><path style="opacity:0.807" fill="#000000" d="M 163.5,388.5 C 174.838,388.333 186.172,388.5 197.5,389C 200.473,390.224 201.14,392.224 199.5,395C 194.628,396.388 189.628,396.888 184.5,396.5C 184.667,410.171 184.5,423.837 184,437.5C 181.358,439.059 179.025,438.725 177,436.5C 176.5,423.171 176.333,409.837 176.5,396.5C 171.372,396.888 166.372,396.388 161.5,395C 159.933,392.094 160.6,389.928 163.5,388.5 Z"/></g>
<g><path style="opacity:0.89" fill="#000000" d="M 209.5,388.5 C 219.506,388.334 229.506,388.5 239.5,389C 241.602,390.733 241.935,392.733 240.5,395C 231.506,395.5 222.506,395.666 213.5,395.5C 213.5,400.5 213.5,405.5 213.5,410.5C 220.863,410.169 228.197,410.503 235.5,411.5C 236.61,413.496 236.276,415.329 234.5,417C 227.508,417.5 220.508,417.666 213.5,417.5C 213.5,422.167 213.5,426.833 213.5,431.5C 222.173,431.334 230.84,431.5 239.5,432C 241.602,433.733 241.935,435.733 240.5,438C 229.257,438.82 218.09,438.653 207,437.5C 206.333,421.833 206.333,406.167 207,390.5C 207.995,389.934 208.828,389.267 209.5,388.5 Z"/></g>
<g><path style="opacity:0.828" fill="#000000" d="M 276.5,388.5 C 284.461,387.046 291.294,389.046 297,394.5C 298.293,397.862 297.293,399.862 294,400.5C 291.672,400.183 289.839,399.016 288.5,397C 283.928,394.625 279.762,395.125 276,398.5C 275.056,401.347 275.556,403.847 277.5,406C 283.623,408.815 289.623,411.815 295.5,415C 302.833,426.33 300.167,434.33 287.5,439C 277.396,441.422 270.063,438.089 265.5,429C 266.443,426.019 268.443,425.019 271.5,426C 277.264,433.224 283.764,434.057 291,428.5C 291.667,426.167 291.667,423.833 291,421.5C 285.064,417.96 278.897,414.793 272.5,412C 267.393,407.002 266.227,401.168 269,394.5C 271.114,391.879 273.614,389.879 276.5,388.5 Z"/></g>
<g><path style="opacity:0.832" fill="#000000" d="M 311.5,388.5 C 313.679,388.84 315.512,389.84 317,391.5C 322.008,398.003 327.174,404.336 332.5,410.5C 338.286,403.759 343.953,396.926 349.5,390C 351.681,387.922 353.681,388.089 355.5,390.5C 356.833,406.167 356.833,421.833 355.5,437.5C 353.305,438.769 351.139,438.769 349,437.5C 348.667,426.167 348.333,414.833 348,403.5C 343.76,408.317 339.76,413.317 336,418.5C 332.4,421.354 329.4,420.687 327,416.5C 323.909,411.986 320.575,407.653 317,403.5C 316.667,414.5 316.333,425.5 316,436.5C 313.975,438.725 311.642,439.059 309,437.5C 308.333,421.833 308.333,406.167 309,390.5C 309.995,389.934 310.828,389.267 311.5,388.5 Z"/></g>
<g><path style="opacity:0.844" fill="#000000" d="M 383.5,388.5 C 385.484,388.383 387.15,389.05 388.5,390.5C 395.109,405.385 401.442,420.385 407.5,435.5C 405.808,439.609 403.308,440.275 400,437.5C 398.963,434.595 397.796,431.761 396.5,429C 388.833,428.333 381.167,428.333 373.5,429C 372.167,432 370.833,435 369.5,438C 366.407,439.026 364.073,438.193 362.5,435.5C 368.744,419.358 375.744,403.692 383.5,388.5 Z M 384.5,400.5 C 387.865,406.897 390.865,413.564 393.5,420.5C 387.833,421.833 382.167,421.833 376.5,420.5C 379.733,414.037 382.4,407.371 384.5,400.5 Z"/></g>
<g><path style="opacity:0.842" fill="#000000" d="M 416.5,388.5 C 423.896,388.2 431.229,388.7 438.5,390C 449.754,396.031 452.587,404.864 447,416.5C 445.316,418.351 443.483,420.018 441.5,421.5C 444.528,425.361 447.361,429.361 450,433.5C 451.165,436.814 449.998,438.814 446.5,439.5C 441.365,435.101 437.032,429.935 433.5,424C 429.514,423.501 425.514,423.334 421.5,423.5C 421.666,428.179 421.499,432.845 421,437.5C 418.358,439.059 416.025,438.725 414,436.5C 413.333,421.5 413.333,406.5 414,391.5C 414.698,390.309 415.531,389.309 416.5,388.5 Z M 421.5,395.5 C 429.077,394.347 435.577,396.347 441,401.5C 443.674,408.473 441.507,413.307 434.5,416C 430.179,416.499 425.846,416.666 421.5,416.5C 421.5,409.5 421.5,402.5 421.5,395.5 Z"/></g>
<g><path style="opacity:0.86" fill="#000000" d="M 455.5,388.5 C 467.171,388.333 478.838,388.5 490.5,389C 493.623,391.239 493.79,393.406 491,395.5C 486.219,396.419 481.385,396.752 476.5,396.5C 476.667,410.171 476.5,423.837 476,437.5C 474,438.833 472,438.833 470,437.5C 469.5,423.837 469.333,410.171 469.5,396.5C 464.615,396.752 459.781,396.419 455,395.5C 452.315,393.248 452.482,390.915 455.5,388.5 Z"/></g>
</svg>
