<?xml version="1.0" encoding="UTF-8"?>
<!DOCTYPE svg PUBLIC "-//W3C//DTD SVG 1.1//EN" "http://www.w3.org/Graphics/SVG/1.1/DTD/svg11.dtd">
<svg xmlns="http://www.w3.org/2000/svg" version="1.1" width="500px" height="500px" style="shape-rendering:geometricPrecision; text-rendering:geometricPrecision; image-rendering:optimizeQuality; fill-rule:evenodd; clip-rule:evenodd" xmlns:xlink="http://www.w3.org/1999/xlink">
<g><path style="opacity:0.117" fill="#a4a4a6" d="M 192.5,23.5 C 189.167,23.5 185.833,23.5 182.5,23.5C 182.611,22.8826 182.944,22.3826 183.5,22C 185,21.8333 186.5,21.6667 188,21.5C 189.986,21.5687 191.486,22.2353 192.5,23.5 Z"/></g>
<g><path style="opacity:0.996" fill="#efefef" d="M 290.5,25.5 C 291.959,25.4326 293.292,25.7659 294.5,26.5C 302.232,30.5172 310.232,34.1838 318.5,37.5C 318.833,37.5 319.167,37.5 319.5,37.5C 322.239,42.2222 326.239,45.5555 331.5,47.5C 332.167,47.5 332.5,47.8333 332.5,48.5C 333.28,51.5531 335.28,53.2197 338.5,53.5C 339.5,55.8333 341.167,57.5 343.5,58.5C 344.226,61.2878 345.893,63.2878 348.5,64.5C 348.762,67.6987 350.428,69.6987 353.5,70.5C 353.833,71.1667 354.167,71.8333 354.5,72.5C 355.32,74.8123 356.153,77.1457 357,79.5C 358.952,82.4406 361.118,85.1073 363.5,87.5C 363.077,89.7812 363.744,91.4479 365.5,92.5C 366.338,92.8417 366.672,93.5084 366.5,94.5C 366.259,97.0336 367.259,98.7002 369.5,99.5C 369.77,105.987 371.77,111.654 375.5,116.5C 376.903,119.909 377.57,123.575 377.5,127.5C 377.157,129.483 377.824,130.817 379.5,131.5C 379.5,133.5 379.5,135.5 379.5,137.5C 378.604,145 377.937,152.667 377.5,160.5C 377.5,162.167 377.5,163.833 377.5,165.5C 377.678,169.122 377.011,172.456 375.5,175.5C 374.503,175.47 373.836,175.97 373.5,177C 372.594,179.791 371.927,182.624 371.5,185.5C 371.5,185.833 371.5,186.167 371.5,186.5C 370.069,187.78 369.402,189.447 369.5,191.5C 368.624,191.369 367.957,191.702 367.5,192.5C 364.505,198.492 361.005,204.159 357,209.5C 355.716,212.53 354.549,215.53 353.5,218.5C 348.384,220.955 345.051,224.955 343.5,230.5C 343.5,231.167 343.167,231.5 342.5,231.5C 340.167,231.833 338.833,233.167 338.5,235.5C 338.672,236.492 338.338,237.158 337.5,237.5C 334.856,238.144 333.189,239.811 332.5,242.5C 331.094,242.973 330.427,243.973 330.5,245.5C 330.5,245.833 330.5,246.167 330.5,246.5C 327.936,247.866 325.436,249.533 323,251.5C 321.738,254.757 319.738,257.423 317,259.5C 315.991,261.025 315.491,262.692 315.5,264.5C 315.159,270.249 314.493,275.916 313.5,281.5C 312.307,281.97 311.64,282.97 311.5,284.5C 310.863,290.908 309.863,297.241 308.5,303.5C 308.5,303.833 308.5,304.167 308.5,304.5C 306.065,305.27 304.731,306.937 304.5,309.5C 304.5,310.167 304.167,310.5 303.5,310.5C 299.946,311.769 296.946,313.769 294.5,316.5C 282.746,318.162 271.079,317.829 259.5,315.5C 258.119,314.119 256.785,312.785 255.5,311.5C 255.5,311.167 255.5,310.833 255.5,310.5C 256.069,306.671 255.402,303.337 253.5,300.5C 253.5,298.833 253.5,297.167 253.5,295.5C 254.484,265.544 254.818,235.544 254.5,205.5C 254.5,146.167 254.5,86.8333 254.5,27.5C 254.33,26.1779 254.663,25.0113 255.5,24C 267.209,23.4653 278.875,23.9653 290.5,25.5 Z M 298.5,37.5 C 300.936,38.871 303.603,39.871 306.5,40.5C 306.833,40.5 307.167,40.5 307.5,40.5C 308.3,42.7409 309.966,43.7409 312.5,43.5C 313.659,45.2503 315.326,46.2503 317.5,46.5C 318.585,48.5869 320.251,49.9202 322.5,50.5C 323.167,50.8333 323.833,51.1667 324.5,51.5C 324.414,52.4959 324.748,53.3292 325.5,54C 328.982,55.6707 331.982,57.8373 334.5,60.5C 335.614,63.4036 337.614,65.4036 340.5,66.5C 340.328,67.4916 340.662,68.1583 341.5,68.5C 341.833,70.8333 343.167,72.1667 345.5,72.5C 345.5,72.8333 345.5,73.1667 345.5,73.5C 348.871,78.2206 351.871,83.2206 354.5,88.5C 354.957,89.2975 355.624,89.6309 356.5,89.5C 356.971,91.5786 357.637,93.5786 358.5,95.5C 358.937,98.225 360.27,100.225 362.5,101.5C 363.546,107.319 365.546,112.652 368.5,117.5C 368.216,119.415 368.549,121.081 369.5,122.5C 369.844,126.894 370.51,131.228 371.5,135.5C 371.5,142.5 371.5,149.5 371.5,156.5C 371.5,158.167 371.5,159.833 371.5,161.5C 370.416,166.055 369.249,170.722 368,175.5C 364.832,184.853 360.999,193.853 356.5,202.5C 355.504,202.414 354.671,202.748 354,203.5C 353.345,205.628 352.511,207.628 351.5,209.5C 348.723,211.951 346.723,214.951 345.5,218.5C 343.167,218.833 341.833,220.167 341.5,222.5C 340.662,222.842 340.328,223.508 340.5,224.5C 338.5,225.167 337.167,226.5 336.5,228.5C 332.862,232.474 329.195,236.474 325.5,240.5C 324.4,241.605 323.733,242.938 323.5,244.5C 320.833,245.167 319.167,246.833 318.5,249.5C 318.167,250.167 317.833,250.833 317.5,251.5C 314.647,252.833 312.981,255.166 312.5,258.5C 309.433,261.015 308.099,264.349 308.5,268.5C 307.439,275.108 306.773,281.775 306.5,288.5C 306.5,289.167 306.5,289.833 306.5,290.5C 304.787,291.635 304.12,293.302 304.5,295.5C 304.5,295.833 304.5,296.167 304.5,296.5C 302.991,299.678 301.658,303.011 300.5,306.5C 298.517,307.471 296.517,308.471 294.5,309.5C 292.152,309.592 290.486,310.592 289.5,312.5C 281.833,312.5 274.167,312.5 266.5,312.5C 265.653,311.034 264.32,310.2 262.5,310C 261.748,309.329 261.414,308.496 261.5,307.5C 261.5,263.167 261.5,218.833 261.5,174.5C 261.5,161.5 261.5,148.5 261.5,135.5C 262.048,100.836 262.382,66.1692 262.5,31.5C 274.941,31.3849 286.941,33.3849 298.5,37.5 Z"/></g>
<g><path style="opacity:0.802" fill="#6a6867" d="M 199.5,24.5 C 203.008,25.5041 206.174,27.1707 209,29.5C 211.194,26.8194 214.027,25.3194 217.5,25C 222.167,24.3333 226.833,24.3333 231.5,25C 236.816,26.6636 241.816,28.8303 246.5,31.5C 246.5,34.5 246.5,37.5 246.5,40.5C 245.833,38.5 245.167,36.5 244.5,34.5C 244.631,33.6236 244.298,32.9569 243.5,32.5C 239.569,31.1379 235.902,29.3046 232.5,27C 227.5,26.3333 222.5,26.3333 217.5,27C 214.461,27.3534 211.795,28.5201 209.5,30.5C 206.848,29.2484 204.181,28.2484 201.5,27.5C 200.449,26.7777 199.782,25.7777 199.5,24.5 Z"/></g>
<g><path style="opacity:0.318" fill="#858585" d="M 290.5,25.5 C 278.875,23.9653 267.209,23.4653 255.5,24C 254.663,25.0113 254.33,26.1779 254.5,27.5C 253.826,56.7356 253.159,86.0689 252.5,115.5C 251.833,101.004 251.5,86.3372 251.5,71.5C 251.364,55.4491 251.864,39.4491 253,23.5C 265.135,22.1201 277.301,22.2868 289.5,24C 290.056,24.3826 290.389,24.8826 290.5,25.5 Z"/></g>
<g><path style="opacity:1" fill="#f4d669" d="M 201.5,31.5 C 203.734,32.4469 206.068,33.1136 208.5,33.5C 210.693,33.2814 212.693,32.6148 214.5,31.5C 221.161,30.2263 227.828,30.2263 234.5,31.5C 236.954,32.2271 239.287,33.2271 241.5,34.5C 242.031,48.6117 241.198,62.6117 239,76.5C 238.5,154.833 238.333,233.166 238.5,311.5C 226.596,311.61 214.929,309.943 203.5,306.5C 198.074,302.187 196.074,296.521 197.5,289.5C 197.082,280.235 195.749,271.235 193.5,262.5C 193.5,262.167 193.5,261.833 193.5,261.5C 193.5,259.833 193.5,258.167 193.5,256.5C 196.614,256.445 198.948,255.112 200.5,252.5C 203.533,250.821 206.533,249.821 209.5,249.5C 211.321,248.272 212.321,246.606 212.5,244.5C 213.552,244.649 214.552,244.483 215.5,244C 215.167,243.667 214.833,243.333 214.5,243C 219.585,234.232 221.918,224.732 221.5,214.5C 219.219,214.077 217.552,214.744 216.5,216.5C 216.5,216.833 216.5,217.167 216.5,217.5C 215.223,224.391 212.556,230.724 208.5,236.5C 200.976,244.261 191.976,249.428 181.5,252C 176.845,252.499 172.179,252.666 167.5,252.5C 165.898,250.926 163.898,250.259 161.5,250.5C 150.454,245.621 143.621,237.287 141,225.5C 140.5,218.508 140.334,211.508 140.5,204.5C 142.903,204.448 145.236,204.781 147.5,205.5C 154.321,206.655 161.321,206.821 168.5,206C 169.858,205.066 171.192,204.232 172.5,203.5C 174.786,203.405 176.786,202.738 178.5,201.5C 181.798,201.984 184.464,200.984 186.5,198.5C 185.833,198.167 185.167,197.833 184.5,197.5C 180.239,198.686 175.906,199.353 171.5,199.5C 161.828,199.666 152.161,199.5 142.5,199C 139.476,198.084 136.809,196.584 134.5,194.5C 132.955,193.548 131.288,193.215 129.5,193.5C 121.077,188.009 115.577,180.342 113,170.5C 111.125,159.637 113.625,149.97 120.5,141.5C 122.363,139.295 124.697,137.961 127.5,137.5C 133.159,144.476 140.492,148.476 149.5,149.5C 157.672,150.539 166.005,150.539 174.5,149.5C 174.263,150.791 174.596,151.791 175.5,152.5C 179.716,161.05 186.383,166.717 195.5,169.5C 190.516,163.315 186.016,156.649 182,149.5C 179.769,137.887 180.269,126.387 183.5,115C 183.167,114.167 182.833,113.333 182.5,112.5C 180.448,113.611 179.114,115.277 178.5,117.5C 176.273,118.401 175.273,120.067 175.5,122.5C 174.504,122.414 173.671,122.748 173,123.5C 171.235,130.053 170.402,136.719 170.5,143.5C 157.721,145.061 145.721,143.061 134.5,137.5C 132.34,133.703 130.007,129.869 127.5,126C 126.225,121.955 126.225,117.955 127.5,114C 122.449,109.984 122.282,105.817 127,101.5C 127.498,98.5184 127.665,95.5184 127.5,92.5C 131.377,92.5175 132.043,91.3508 129.5,89C 130.252,88.3292 130.586,87.4959 130.5,86.5C 131.167,83.8333 132.833,82.1667 135.5,81.5C 136.873,81.6567 138.207,81.49 139.5,81C 142.722,78.112 146.222,75.612 150,73.5C 151.257,78.3836 152.924,83.0502 155,87.5C 156.711,90.0459 158.877,92.0459 161.5,93.5C 166.552,98.7201 172.052,103.387 178,107.5C 178.5,107.167 179,106.833 179.5,106.5C 171.571,98.9183 165.238,90.2517 160.5,80.5C 160.761,76.5075 160.094,72.6742 158.5,69C 158.683,64.0559 160.349,59.7226 163.5,56C 162.919,55.1074 162.585,54.1074 162.5,53C 165.135,46.8553 168.802,41.3553 173.5,36.5C 174.436,35.0256 175.77,34.0256 177.5,33.5C 185.276,30.4075 193.276,29.7409 201.5,31.5 Z"/></g>
<g><path style="opacity:0.635" fill="#7e7e7e" d="M 294.5,26.5 C 300.782,27.8042 306.782,29.9708 312.5,33C 315.106,33.7918 317.106,35.2918 318.5,37.5C 310.232,34.1838 302.232,30.5172 294.5,26.5 Z"/></g>
<g><path style="opacity:0.929" fill="#d8d8d8" d="M 254.5,27.5 C 254.5,86.8333 254.5,146.167 254.5,205.5C 253.833,200.5 253.167,195.5 252.5,190.5C 252.5,165.5 252.5,140.5 252.5,115.5C 253.159,86.0689 253.826,56.7356 254.5,27.5 Z"/></g>
<g><path style="opacity:0.256" fill="#848484" d="M 298.5,37.5 C 286.941,33.3849 274.941,31.3849 262.5,31.5C 262.382,66.1692 262.048,100.836 261.5,135.5C 260.833,135.5 260.167,135.5 259.5,135.5C 259.406,100.161 259.739,64.828 260.5,29.5C 273.163,28.9342 285.33,30.9342 297,35.5C 298.03,35.8361 298.53,36.5028 298.5,37.5 Z"/></g>
<g><path style="opacity:0.235" fill="#515151" d="M 298.5,37.5 C 301.716,37.3455 304.383,38.3455 306.5,40.5C 303.603,39.871 300.936,38.871 298.5,37.5 Z"/></g>
<g><path style="opacity:1" fill="#070606" d="M 241.5,34.5 C 242.348,33.375 243.348,33.375 244.5,34.5C 245.158,54.1598 245.491,73.8265 245.5,93.5C 246.766,167.524 246.766,241.524 245.5,315.5C 244.833,315.5 244.5,315.833 244.5,316.5C 233.112,318.933 221.779,318.6 210.5,315.5C 207.5,314.833 204.5,314.167 201.5,313.5C 200.876,311.246 199.543,309.579 197.5,308.5C 196.68,306.188 195.847,303.854 195,301.5C 193.646,289.353 192.479,277.186 191.5,265C 191.508,263.293 191.842,261.793 192.5,260.5C 192.5,261.167 192.833,261.5 193.5,261.5C 193.5,261.833 193.5,262.167 193.5,262.5C 194.098,271.738 195.431,280.738 197.5,289.5C 196.074,296.521 198.074,302.187 203.5,306.5C 204.058,307.79 205.058,308.623 206.5,309C 209.353,310.43 212.353,311.263 215.5,311.5C 216.263,312.268 217.263,312.768 218.5,313C 225.679,313.821 232.679,313.655 239.5,312.5C 241.497,238.841 242.164,164.841 241.5,90.5C 242.639,71.6718 242.639,53.0051 241.5,34.5 Z"/></g>
<g><path style="opacity:0.094" fill="#6f6f6f" d="M 307.5,40.5 C 310.034,40.2591 311.7,41.2591 312.5,43.5C 309.966,43.7409 308.3,42.7409 307.5,40.5 Z"/></g>
<g><path style="opacity:0.877" fill="#434444" d="M 182.5,23.5 C 185.833,23.5 189.167,23.5 192.5,23.5C 194.903,23.448 197.236,23.7814 199.5,24.5C 199.782,25.7777 200.449,26.7777 201.5,27.5C 195.15,24.7133 188.483,23.88 181.5,25C 177.506,26.156 173.839,27.9894 170.5,30.5C 167.196,33.3935 164.029,36.3935 161,39.5C 158.96,43.7475 156.793,47.9142 154.5,52C 153.009,57.3898 152.176,62.8898 152,68.5C 145.984,70.501 140.151,73.001 134.5,76C 132.072,79.0976 129.072,81.431 125.5,83C 124.061,85.2246 122.394,87.2246 120.5,89C 121.712,90.1068 121.379,90.6068 119.5,90.5C 125.439,78.3376 135.105,70.6709 148.5,67.5C 150.088,50.1814 157.755,36.348 171.5,26C 175.014,24.4383 178.681,23.605 182.5,23.5 Z"/></g>
<g><path style="opacity:0.086" fill="#515151" d="M 312.5,43.5 C 314.674,43.7497 316.341,44.7497 317.5,46.5C 315.326,46.2503 313.659,45.2503 312.5,43.5 Z"/></g>
<g><path style="opacity:0.404" fill="#939393" d="M 319.5,37.5 C 323.222,39.053 326.555,41.2197 329.5,44C 330.823,44.8159 331.489,45.9826 331.5,47.5C 326.239,45.5555 322.239,42.2222 319.5,37.5 Z"/></g>
<g><path style="opacity:0.169" fill="#6d6d6d" d="M 317.5,46.5 C 320.344,46.3426 322.011,47.676 322.5,50.5C 320.251,49.9202 318.585,48.5869 317.5,46.5 Z"/></g>
<g><path style="opacity:0.404" fill="#8c8c8c" d="M 332.5,48.5 C 335.712,48.7124 337.712,50.3791 338.5,53.5C 335.28,53.2197 333.28,51.5531 332.5,48.5 Z"/></g>
<g><path style="opacity:0.165" fill="#818181" d="M 324.5,51.5 C 329.104,53.1053 332.438,56.1053 334.5,60.5C 331.982,57.8373 328.982,55.6707 325.5,54C 324.748,53.3292 324.414,52.4959 324.5,51.5 Z"/></g>
<g><path style="opacity:0.165" fill="#606060" d="M 338.5,53.5 C 341.167,54.1667 342.833,55.8333 343.5,58.5C 341.167,57.5 339.5,55.8333 338.5,53.5 Z"/></g>
<g><path style="opacity:1" fill="#d9c571" d="M 173.5,36.5 C 168.802,41.3553 165.135,46.8553 162.5,53C 162.585,54.1074 162.919,55.1074 163.5,56C 160.349,59.7226 158.683,64.0559 158.5,69C 160.094,72.6742 160.761,76.5075 160.5,80.5C 154.335,62.6674 158.668,48.0008 173.5,36.5 Z"/></g>
<g><path style="opacity:0.627" fill="#7c7c7b" d="M 244.5,34.5 C 245.167,36.5 245.833,38.5 246.5,40.5C 248.647,131.967 248.981,223.3 247.5,314.5C 247.667,245.166 247.5,175.833 247,106.5C 246.825,101.981 246.325,97.6472 245.5,93.5C 245.491,73.8265 245.158,54.1598 244.5,34.5 Z"/></g>
<g><path style="opacity:0.063" fill="#767676" d="M 343.5,58.5 C 345.914,59.9108 347.581,61.9108 348.5,64.5C 345.893,63.2878 344.226,61.2878 343.5,58.5 Z"/></g>
<g><path style="opacity:0.086" fill="#797979" d="M 334.5,60.5 C 337.5,61.5 339.5,63.5 340.5,66.5C 337.614,65.4036 335.614,63.4036 334.5,60.5 Z"/></g>
<g><path style="opacity:0.031" fill="#5e5e5e" d="M 348.5,64.5 C 350.914,65.9108 352.581,67.9108 353.5,70.5C 350.428,69.6987 348.762,67.6987 348.5,64.5 Z"/></g>
<g><path style="opacity:0.098" fill="#636363" d="M 341.5,68.5 C 343.773,68.9568 345.106,70.2901 345.5,72.5C 343.167,72.1667 341.833,70.8333 341.5,68.5 Z"/></g>
<g><path style="opacity:0.599" fill="#858585" d="M 298.5,73.5 C 301.393,73.0311 303.393,74.0311 304.5,76.5C 302.883,75.962 301.216,75.6287 299.5,75.5C 299.433,76.9587 299.766,78.2921 300.5,79.5C 298.596,79.2624 297.262,78.2624 296.5,76.5C 296.285,74.8212 296.952,73.8212 298.5,73.5 Z"/></g>
<g><path style="opacity:0.029" fill="#1e1e1e" d="M 298.5,73.5 C 296.952,73.8212 296.285,74.8212 296.5,76.5C 295.566,75.4324 295.232,74.099 295.5,72.5C 296.791,72.2627 297.791,72.596 298.5,73.5 Z"/></g>
<g><path style="opacity:1" fill="#161512" d="M 201.5,27.5 C 204.181,28.2484 206.848,29.2484 209.5,30.5C 211.795,28.5201 214.461,27.3534 217.5,27C 222.5,26.3333 227.5,26.3333 232.5,27C 235.902,29.3046 239.569,31.1379 243.5,32.5C 244.298,32.9569 244.631,33.6236 244.5,34.5C 243.348,33.375 242.348,33.375 241.5,34.5C 239.287,33.2271 236.954,32.2271 234.5,31.5C 231.282,30.0458 227.782,29.3791 224,29.5C 220.523,29.3275 217.356,29.9942 214.5,31.5C 212.693,32.6148 210.693,33.2814 208.5,33.5C 206.068,33.1136 203.734,32.4469 201.5,31.5C 200.737,30.7321 199.737,30.2321 198.5,30C 193.5,29.3333 188.5,29.3333 183.5,30C 181.121,30.7162 179.121,31.8828 177.5,33.5C 175.77,34.0256 174.436,35.0256 173.5,36.5C 158.668,48.0008 154.335,62.6674 160.5,80.5C 165.238,90.2517 171.571,98.9183 179.5,106.5C 179,106.833 178.5,107.167 178,107.5C 172.052,103.387 166.552,98.7201 161.5,93.5C 157.792,88.7514 155.126,83.4181 153.5,77.5C 153.167,75.5 152.833,73.5 152.5,71.5C 151.209,71.2627 150.209,71.596 149.5,72.5C 143.81,74.0057 139.143,77.0057 135.5,81.5C 132.833,82.1667 131.167,83.8333 130.5,86.5C 126.618,89.9178 124.118,94.2511 123,99.5C 121.943,109.824 123.276,119.824 127,129.5C 129.275,132.39 131.775,135.056 134.5,137.5C 136.578,140.051 139.244,141.884 142.5,143C 145.742,143.406 148.742,144.239 151.5,145.5C 157.653,146.653 163.986,146.82 170.5,146C 171.416,145.722 172.082,145.222 172.5,144.5C 172.334,140.154 172.501,135.821 173,131.5C 173.156,128.809 173.989,126.476 175.5,124.5C 177.065,122.491 178.065,120.157 178.5,117.5C 179.114,115.277 180.448,113.611 182.5,112.5C 182.833,113.333 183.167,114.167 183.5,115C 180.269,126.387 179.769,137.887 182,149.5C 186.016,156.649 190.516,163.315 195.5,169.5C 186.383,166.717 179.716,161.05 175.5,152.5C 175.99,150.052 175.157,148.385 173,147.5C 165.257,149.116 157.424,149.783 149.5,149.5C 140.492,148.476 133.159,144.476 127.5,137.5C 126.391,136.71 125.058,136.21 123.5,136C 124.059,135.275 124.392,134.442 124.5,133.5C 117.416,120.514 116.082,107.014 120.5,93C 120.257,92.0979 119.923,91.2646 119.5,90.5C 121.379,90.6068 121.712,90.1068 120.5,89C 122.394,87.2246 124.061,85.2246 125.5,83C 129.072,81.431 132.072,79.0976 134.5,76C 140.151,73.001 145.984,70.501 152,68.5C 152.176,62.8898 153.009,57.3898 154.5,52C 156.793,47.9142 158.96,43.7475 161,39.5C 164.029,36.3935 167.196,33.3935 170.5,30.5C 173.839,27.9894 177.506,26.156 181.5,25C 188.483,23.88 195.15,24.7133 201.5,27.5 Z"/></g>
<g><path style="opacity:1" fill="#5c563e" d="M 149.5,72.5 C 150.209,71.596 151.209,71.2627 152.5,71.5C 152.833,73.5 153.167,75.5 153.5,77.5C 152.309,75.6732 150.975,74.0066 149.5,72.5 Z"/></g>
<g><path style="opacity:1" fill="#a1945f" d="M 234.5,31.5 C 227.828,30.2263 221.161,30.2263 214.5,31.5C 217.356,29.9942 220.523,29.3275 224,29.5C 227.782,29.3791 231.282,30.0458 234.5,31.5 Z"/></g>
<g><path style="opacity:1" fill="#837a57" d="M 201.5,31.5 C 193.276,29.7409 185.276,30.4075 177.5,33.5C 179.121,31.8828 181.121,30.7162 183.5,30C 188.5,29.3333 193.5,29.3333 198.5,30C 199.737,30.2321 200.737,30.7321 201.5,31.5 Z"/></g>
<g><path style="opacity:1" fill="#d5c071" d="M 149.5,72.5 C 150.975,74.0066 152.309,75.6732 153.5,77.5C 155.126,83.4181 157.792,88.7514 161.5,93.5C 158.877,92.0459 156.711,90.0459 155,87.5C 152.924,83.0502 151.257,78.3836 150,73.5C 146.222,75.612 142.722,78.112 139.5,81C 138.207,81.49 136.873,81.6567 135.5,81.5C 139.143,77.0057 143.81,74.0057 149.5,72.5 Z"/></g>
<g><path style="opacity:0.999" fill="#f1f1f1" d="M 304.5,76.5 C 307.206,79.5208 310.539,81.5208 314.5,82.5C 315.478,85.4778 317.478,87.4778 320.5,88.5C 321.167,88.5 321.5,88.8333 321.5,89.5C 321.5,91.5 322.5,92.5 324.5,92.5C 325.401,93.2905 326.068,94.2905 326.5,95.5C 327.075,98.9542 328.742,101.621 331.5,103.5C 333.014,109.404 334.014,115.404 334.5,121.5C 334.826,125.884 334.492,130.217 333.5,134.5C 332.662,129.801 331.662,125.134 330.5,120.5C 330.253,119.287 329.586,118.62 328.5,118.5C 327.584,110.303 323.917,103.97 317.5,99.5C 317.209,95.2234 315.209,92.2234 311.5,90.5C 311.027,89.0937 310.027,88.427 308.5,88.5C 308.573,86.9731 307.906,85.9731 306.5,85.5C 305.738,83.7376 304.404,82.7376 302.5,82.5C 302.573,80.9731 301.906,79.9731 300.5,79.5C 299.766,78.2921 299.433,76.9587 299.5,75.5C 301.216,75.6287 302.883,75.962 304.5,76.5 Z"/></g>
<g><path style="opacity:0.298" fill="#6c6c6c" d="M 354.5,72.5 C 358.737,76.7419 361.737,81.7419 363.5,87.5C 361.118,85.1073 358.952,82.4406 357,79.5C 356.153,77.1457 355.32,74.8123 354.5,72.5 Z"/></g>
<g><path style="opacity:0.033" fill="#262626" d="M 300.5,79.5 C 301.906,79.9731 302.573,80.9731 302.5,82.5C 301.094,82.0269 300.427,81.0269 300.5,79.5 Z"/></g>
<g><path style="opacity:0.184" fill="#727272" d="M 304.5,76.5 C 308.461,77.4792 311.794,79.4792 314.5,82.5C 310.539,81.5208 307.206,79.5208 304.5,76.5 Z"/></g>
<g><path style="opacity:0.082" fill="#444444" d="M 302.5,82.5 C 304.404,82.7376 305.738,83.7376 306.5,85.5C 304.596,85.2624 303.262,84.2624 302.5,82.5 Z"/></g>
<g><path style="opacity:0.098" fill="#5f5f5f" d="M 314.5,82.5 C 317.522,83.5222 319.522,85.5222 320.5,88.5C 317.478,87.4778 315.478,85.4778 314.5,82.5 Z"/></g>
<g><path style="opacity:0.165" fill="#949494" d="M 345.5,73.5 C 346.239,73.369 346.906,73.5357 347.5,74C 349.15,76.8131 351.15,79.3131 353.5,81.5C 355.076,83.9793 356.076,86.646 356.5,89.5C 355.624,89.6309 354.957,89.2975 354.5,88.5C 351.871,83.2206 348.871,78.2206 345.5,73.5 Z"/></g>
<g><path style="opacity:0.031" fill="#454545" d="M 306.5,85.5 C 307.906,85.9731 308.573,86.9731 308.5,88.5C 307.094,88.0269 306.427,87.0269 306.5,85.5 Z"/></g>
<g><path style="opacity:0.129" fill="#666666" d="M 308.5,88.5 C 310.027,88.427 311.027,89.0937 311.5,90.5C 309.973,90.573 308.973,89.9063 308.5,88.5 Z"/></g>
<g><path style="opacity:0.078" fill="#5a5a5a" d="M 321.5,89.5 C 323.5,89.5 324.5,90.5 324.5,92.5C 324.5,90.5 323.5,89.5 321.5,89.5 Z"/></g>
<g><path style="opacity:0.549" fill="#949494" d="M 363.5,87.5 C 364.931,88.7804 365.598,90.4471 365.5,92.5C 363.744,91.4479 363.077,89.7812 363.5,87.5 Z"/></g>
<g><path style="opacity:0.459" fill="#a0a0a0" d="M 311.5,90.5 C 315.209,92.2234 317.209,95.2234 317.5,99.5C 314.719,97.0463 312.719,94.0463 311.5,90.5 Z"/></g>
<g><path style="opacity:1" fill="#dcc56f" d="M 130.5,86.5 C 130.586,87.4959 130.252,88.3292 129.5,89C 132.043,91.3508 131.377,92.5175 127.5,92.5C 127.665,95.5184 127.498,98.5184 127,101.5C 122.282,105.817 122.449,109.984 127.5,114C 126.225,117.955 126.225,121.955 127.5,126C 130.007,129.869 132.34,133.703 134.5,137.5C 131.775,135.056 129.275,132.39 127,129.5C 123.276,119.824 121.943,109.824 123,99.5C 124.118,94.2511 126.618,89.9178 130.5,86.5 Z"/></g>
<g><path style="opacity:0.318" fill="#767676" d="M 358.5,95.5 C 361.292,96.3918 362.625,98.3918 362.5,101.5C 362.625,98.3918 361.292,96.3918 358.5,95.5 Z"/></g>
<g><path style="opacity:0.396" fill="#656565" d="M 366.5,94.5 C 368.741,95.2998 369.741,96.9664 369.5,99.5C 367.259,98.7002 366.259,97.0336 366.5,94.5 Z"/></g>
<g><path style="opacity:0.451" fill="#6f6f6f" d="M 326.5,95.5 C 329.138,97.4179 330.805,100.085 331.5,103.5C 328.742,101.621 327.075,98.9542 326.5,95.5 Z"/></g>
<g><path style="opacity:0.78" fill="#8a8a8a" d="M 369.5,99.5 C 372.658,104.633 374.658,110.3 375.5,116.5C 371.77,111.654 369.77,105.987 369.5,99.5 Z"/></g>
<g><path style="opacity:0.651" fill="#9c9c9c" d="M 317.5,99.5 C 323.917,103.97 327.584,110.303 328.5,118.5C 327.624,118.631 326.957,118.298 326.5,117.5C 324.36,111.039 321.36,105.039 317.5,99.5 Z"/></g>
<g><path style="opacity:0.376" fill="#8b8b8b" d="M 362.5,101.5 C 363.75,101.577 364.583,102.244 365,103.5C 366.482,108.108 367.649,112.775 368.5,117.5C 365.546,112.652 363.546,107.319 362.5,101.5 Z"/></g>
<g><path style="opacity:0.537" fill="#818181" d="M 331.5,103.5 C 335.3,109.127 336.967,115.46 336.5,122.5C 335.833,122.167 335.167,121.833 334.5,121.5C 334.014,115.404 333.014,109.404 331.5,103.5 Z"/></g>
<g><path style="opacity:1" fill="#806f4a" d="M 178.5,117.5 C 178.065,120.157 177.065,122.491 175.5,124.5C 175.5,123.833 175.5,123.167 175.5,122.5C 175.273,120.067 176.273,118.401 178.5,117.5 Z"/></g>
<g><path style="opacity:0.5" fill="#8c8c8c" d="M 369.5,122.5 C 370.586,122.62 371.253,123.287 371.5,124.5C 372.276,128.159 372.943,131.825 373.5,135.5C 372.833,135.5 372.167,135.5 371.5,135.5C 370.51,131.228 369.844,126.894 369.5,122.5 Z"/></g>
<g><path style="opacity:0.353" fill="#616161" d="M 336.5,122.5 C 337.147,123.274 337.48,124.274 337.5,125.5C 337.099,129.024 336.433,132.358 335.5,135.5C 335.467,131.131 335.8,126.798 336.5,122.5 Z"/></g>
<g><path style="opacity:0.125" fill="#303030" d="M 377.5,127.5 C 379.176,128.183 379.843,129.517 379.5,131.5C 377.824,130.817 377.157,129.483 377.5,127.5 Z"/></g>
<g><path style="opacity:0.624" fill="#acacac" d="M 328.5,118.5 C 329.586,118.62 330.253,119.287 330.5,120.5C 331.662,125.134 332.662,129.801 333.5,134.5C 334.492,130.217 334.826,125.884 334.5,121.5C 335.167,121.833 335.833,122.167 336.5,122.5C 335.8,126.798 335.467,131.131 335.5,135.5C 335.5,135.833 335.5,136.167 335.5,136.5C 334.167,136.833 332.833,137.167 331.5,137.5C 330.593,131.153 329.593,124.82 328.5,118.5 Z"/></g>
<g><path style="opacity:1" fill="#d2be71" d="M 241.5,34.5 C 242.639,53.0051 242.639,71.6718 241.5,90.5C 240.83,164.402 240.164,238.402 239.5,312.5C 231.466,312.698 223.466,312.365 215.5,311.5C 212.353,311.263 209.353,310.43 206.5,309C 205.058,308.623 204.058,307.79 203.5,306.5C 214.929,309.943 226.596,311.61 238.5,311.5C 238.333,233.166 238.5,154.833 239,76.5C 241.198,62.6117 242.031,48.6117 241.5,34.5 Z"/></g>
<g><path style="opacity:0.039" fill="#484848" d="M 335.5,136.5 C 335.5,137.5 335.5,138.5 335.5,139.5C 333.517,139.843 332.183,139.176 331.5,137.5C 332.833,137.167 334.167,136.833 335.5,136.5 Z"/></g>
<g><path style="opacity:1" fill="#dbc574" d="M 175.5,122.5 C 175.5,123.167 175.5,123.833 175.5,124.5C 173.989,126.476 173.156,128.809 173,131.5C 172.501,135.821 172.334,140.154 172.5,144.5C 165.535,145.341 158.535,145.674 151.5,145.5C 148.742,144.239 145.742,143.406 142.5,143C 139.244,141.884 136.578,140.051 134.5,137.5C 145.721,143.061 157.721,145.061 170.5,143.5C 170.402,136.719 171.235,130.053 173,123.5C 173.671,122.748 174.504,122.414 175.5,122.5 Z"/></g>
<g><path style="opacity:0.055" fill="#313131" d="M 371.5,135.5 C 372.167,135.5 372.833,135.5 373.5,135.5C 374.128,142.913 373.461,149.913 371.5,156.5C 371.5,149.5 371.5,142.5 371.5,135.5 Z"/></g>
<g><path style="opacity:1" fill="#5e5441" d="M 172.5,144.5 C 172.082,145.222 171.416,145.722 170.5,146C 163.986,146.82 157.653,146.653 151.5,145.5C 158.535,145.674 165.535,145.341 172.5,144.5 Z"/></g>
<g><path style="opacity:1" fill="#91875b" d="M 175.5,152.5 C 174.596,151.791 174.263,150.791 174.5,149.5C 166.005,150.539 157.672,150.539 149.5,149.5C 157.424,149.783 165.257,149.116 173,147.5C 175.157,148.385 175.99,150.052 175.5,152.5 Z"/></g>
<g><path style="opacity:0.188" fill="#6e6e6e" d="M 379.5,137.5 C 380.709,145.018 380.709,152.685 379.5,160.5C 378.833,160.5 378.167,160.5 377.5,160.5C 377.937,152.667 378.604,145 379.5,137.5 Z"/></g>
<g><path style="opacity:0.932" fill="#232323" d="M 245.5,93.5 C 246.325,97.6472 246.825,101.981 247,106.5C 247.5,175.833 247.667,245.166 247.5,314.5C 246.833,314.833 246.167,315.167 245.5,315.5C 246.766,241.524 246.766,167.524 245.5,93.5 Z"/></g>
<g><path style="opacity:0.031" fill="#202020" d="M 377.5,160.5 C 378.167,160.5 378.833,160.5 379.5,160.5C 379.88,162.698 379.213,164.365 377.5,165.5C 377.5,163.833 377.5,162.167 377.5,160.5 Z"/></g>
<g><path style="opacity:0.655" fill="#4c4c4b" d="M 119.5,90.5 C 119.923,91.2646 120.257,92.0979 120.5,93C 116.082,107.014 117.416,120.514 124.5,133.5C 124.392,134.442 124.059,135.275 123.5,136C 125.058,136.21 126.391,136.71 127.5,137.5C 124.697,137.961 122.363,139.295 120.5,141.5C 120.631,140.761 120.464,140.094 120,139.5C 109.931,148.291 106.431,159.291 109.5,172.5C 108.833,172.5 108.167,172.5 107.5,172.5C 105.789,164.057 106.623,155.723 110,147.5C 113.675,142.332 117.508,137.332 121.5,132.5C 116.11,121.827 114.277,110.494 116,98.5C 116.578,95.4702 117.745,92.8035 119.5,90.5 Z"/></g>
<g><path style="opacity:0.154" fill="#606060" d="M 259.5,135.5 C 260.167,135.5 260.833,135.5 261.5,135.5C 261.5,148.5 261.5,161.5 261.5,174.5C 260.833,174.5 260.167,174.5 259.5,174.5C 259.5,161.5 259.5,148.5 259.5,135.5 Z"/></g>
<g><path style="opacity:0.843" fill="#767779" d="M 107.5,172.5 C 108.167,172.5 108.833,172.5 109.5,172.5C 109.851,175.238 110.518,177.904 111.5,180.5C 114.616,186.583 118.616,191.916 123.5,196.5C 114.702,190.93 109.369,182.93 107.5,172.5 Z"/></g>
<g><path style="opacity:0.267" fill="#6a6a6a" d="M 332.5,181.5 C 333.331,177.524 333.497,173.524 333,169.5C 332.583,170.756 331.75,171.423 330.5,171.5C 330.183,167.828 331.849,166.162 335.5,166.5C 335.666,170.514 335.499,174.514 335,178.5C 334.764,180.119 333.931,181.119 332.5,181.5 Z"/></g>
<g><path style="opacity:0.996" fill="#e6e6e6" d="M 332.5,181.5 C 331.624,181.369 330.957,181.702 330.5,182.5C 329.151,185.859 327.818,189.192 326.5,192.5C 324.246,193.254 322.413,194.587 321,196.5C 320.5,196.167 320,195.833 319.5,195.5C 321.635,192.717 323.635,189.883 325.5,187C 324.748,186.329 324.414,185.496 324.5,184.5C 326.112,179.918 328.112,175.585 330.5,171.5C 331.75,171.423 332.583,170.756 333,169.5C 333.497,173.524 333.331,177.524 332.5,181.5 Z"/></g>
<g><path style="opacity:0.124" fill="#626262" d="M 375.5,175.5 C 375.493,179.554 374.16,182.887 371.5,185.5C 371.927,182.624 372.594,179.791 373.5,177C 373.836,175.97 374.503,175.47 375.5,175.5 Z"/></g>
<g><path style="opacity:0.553" fill="#969696" d="M 371.5,161.5 C 372.411,165.732 372.077,170.066 370.5,174.5C 368.074,180.607 365.741,186.774 363.5,193C 361.509,196.509 359.176,199.675 356.5,202.5C 360.999,193.853 364.832,184.853 368,175.5C 369.249,170.722 370.416,166.055 371.5,161.5 Z"/></g>
<g><path style="opacity:0.2" fill="#858585" d="M 332.5,181.5 C 332.201,185.105 331.035,188.439 329,191.5C 328.329,192.252 327.496,192.586 326.5,192.5C 327.818,189.192 329.151,185.859 330.5,182.5C 330.957,181.702 331.624,181.369 332.5,181.5 Z"/></g>
<g><path style="opacity:0.102" fill="#484848" d="M 371.5,186.5 C 371.598,188.553 370.931,190.22 369.5,191.5C 369.402,189.447 370.069,187.78 371.5,186.5 Z"/></g>
<g><path style="opacity:0.837" fill="#a7a7a7" d="M 324.5,184.5 C 324.414,185.496 324.748,186.329 325.5,187C 323.635,189.883 321.635,192.717 319.5,195.5C 320,195.833 320.5,196.167 321,196.5C 322.413,194.587 324.246,193.254 326.5,192.5C 325.833,195.167 324.167,196.833 321.5,197.5C 319.565,198.15 317.565,198.483 315.5,198.5C 317.983,193.543 320.983,188.877 324.5,184.5 Z"/></g>
<g><path style="opacity:0.714" fill="#777777" d="M 369.5,191.5 C 365.93,201.655 360.596,210.655 353.5,218.5C 354.549,215.53 355.716,212.53 357,209.5C 361.005,204.159 364.505,198.492 367.5,192.5C 367.957,191.702 368.624,191.369 369.5,191.5 Z"/></g>
<g><path style="opacity:0.2" fill="#a4a5a5" d="M 123.5,196.5 C 127.833,198.5 132.167,200.5 136.5,202.5C 136.768,204.099 136.434,205.432 135.5,206.5C 135.489,204.983 134.823,203.816 133.5,203C 130.382,201.941 127.382,200.608 124.5,199C 123.748,198.329 123.414,197.496 123.5,196.5 Z"/></g>
<g><path style="opacity:1" fill="#d7c173" d="M 129.5,193.5 C 131.288,193.215 132.955,193.548 134.5,194.5C 136.809,196.584 139.476,198.084 142.5,199C 152.161,199.5 161.828,199.666 171.5,199.5C 169.5,200.167 167.5,200.833 165.5,201.5C 158.798,201.664 152.131,201.331 145.5,200.5C 139.22,200.082 133.887,197.749 129.5,193.5 Z"/></g>
<g><path style="opacity:1" fill="#3a3529" d="M 178.5,201.5 C 174.363,201.034 170.029,201.034 165.5,201.5C 167.5,200.833 169.5,200.167 171.5,199.5C 175.906,199.353 180.239,198.686 184.5,197.5C 185.167,197.833 185.833,198.167 186.5,198.5C 184.464,200.984 181.798,201.984 178.5,201.5 Z"/></g>
<g><path style="opacity:0.02" fill="#383838" d="M 321.5,197.5 C 319.699,200.799 317.699,201.132 315.5,198.5C 317.565,198.483 319.565,198.15 321.5,197.5 Z"/></g>
<g><path style="opacity:1" fill="#b6a66a" d="M 172.5,203.5 C 171.192,204.232 169.858,205.066 168.5,206C 161.321,206.821 154.321,206.655 147.5,205.5C 155.906,205.638 164.24,204.971 172.5,203.5 Z"/></g>
<g><path style="opacity:0.298" fill="#7f7f7f" d="M 356.5,202.5 C 355.99,205.674 354.323,208.008 351.5,209.5C 352.511,207.628 353.345,205.628 354,203.5C 354.671,202.748 355.504,202.414 356.5,202.5 Z"/></g>
<g><path style="opacity:1" fill="#181715" d="M 120.5,141.5 C 113.625,149.97 111.125,159.637 113,170.5C 115.577,180.342 121.077,188.009 129.5,193.5C 133.887,197.749 139.22,200.082 145.5,200.5C 149.034,202.048 152.867,202.714 157,202.5C 160.021,202.498 162.854,202.164 165.5,201.5C 170.029,201.034 174.363,201.034 178.5,201.5C 176.786,202.738 174.786,203.405 172.5,203.5C 164.24,204.971 155.906,205.638 147.5,205.5C 145.236,204.781 142.903,204.448 140.5,204.5C 140.334,211.508 140.5,218.508 141,225.5C 143.621,237.287 150.454,245.621 161.5,250.5C 163.102,252.074 165.102,252.741 167.5,252.5C 172.179,252.666 176.845,252.499 181.5,252C 191.976,249.428 200.976,244.261 208.5,236.5C 214.255,231.595 216.921,225.262 216.5,217.5C 216.5,217.167 216.5,216.833 216.5,216.5C 217.496,216.414 218.329,216.748 219,217.5C 219.667,220.833 219.667,224.167 219,227.5C 214.895,237.427 208.728,245.761 200.5,252.5C 198.307,253.68 195.974,254.68 193.5,255.5C 192.548,257.045 192.215,258.712 192.5,260.5C 191.842,261.793 191.508,263.293 191.5,265C 192.479,277.186 193.646,289.353 195,301.5C 195.847,303.854 196.68,306.188 197.5,308.5C 196.21,307.942 195.377,306.942 195,305.5C 194.351,300.456 193.185,295.789 191.5,291.5C 190.57,284.223 190.236,276.89 190.5,269.5C 190.789,265.894 190.456,262.394 189.5,259C 179.456,261.199 169.456,260.866 159.5,258C 152.448,253.787 146.114,248.621 140.5,242.5C 138.147,238.109 136.813,233.442 136.5,228.5C 135.012,220.026 135.678,211.692 138.5,203.5C 138.043,202.702 137.376,202.369 136.5,202.5C 132.167,200.5 127.833,198.5 123.5,196.5C 118.616,191.916 114.616,186.583 111.5,180.5C 110.518,177.904 109.851,175.238 109.5,172.5C 106.431,159.291 109.931,148.291 120,139.5C 120.464,140.094 120.631,140.761 120.5,141.5 Z"/></g>
<g><path style="opacity:1" fill="#595441" d="M 145.5,200.5 C 152.131,201.331 158.798,201.664 165.5,201.5C 162.854,202.164 160.021,202.498 157,202.5C 152.867,202.714 149.034,202.048 145.5,200.5 Z"/></g>
<g><path style="opacity:0.459" fill="#aeb3b0" d="M 135.5,207.5 C 135.923,209.781 135.256,211.448 133.5,212.5C 133.402,210.447 134.069,208.78 135.5,207.5 Z"/></g>
<g><path style="opacity:0.643" fill="#969696" d="M 351.5,209.5 C 350.996,213.642 348.996,216.642 345.5,218.5C 346.723,214.951 348.723,211.951 351.5,209.5 Z"/></g>
<g><path style="opacity:0.929" fill="#39393b" d="M 136.5,202.5 C 137.376,202.369 138.043,202.702 138.5,203.5C 135.678,211.692 135.012,220.026 136.5,228.5C 135.167,228.5 134.5,227.833 134.5,226.5C 134.815,222.629 134.482,218.962 133.5,215.5C 133.5,214.5 133.5,213.5 133.5,212.5C 135.256,211.448 135.923,209.781 135.5,207.5C 135.5,207.167 135.5,206.833 135.5,206.5C 136.434,205.432 136.768,204.099 136.5,202.5 Z"/></g>
<g><path style="opacity:0.102" fill="#606060" d="M 345.5,218.5 C 345.106,220.71 343.773,222.043 341.5,222.5C 341.833,220.167 343.167,218.833 345.5,218.5 Z"/></g>
<g><path style="opacity:0.051" fill="#c9c4c5" d="M 133.5,215.5 C 134.482,218.962 134.815,222.629 134.5,226.5C 133.833,226.5 133.5,226.833 133.5,227.5C 132.167,223.5 132.167,219.5 133.5,215.5 Z"/></g>
<g><path style="opacity:0.141" fill="#717171" d="M 252.5,190.5 C 253.167,195.5 253.833,200.5 254.5,205.5C 254.818,235.544 254.484,265.544 253.5,295.5C 252.502,260.671 252.168,225.671 252.5,190.5 Z"/></g>
<g><path style="opacity:0.225" fill="#707070" d="M 340.5,224.5 C 340.167,226.833 338.833,228.167 336.5,228.5C 337.167,226.5 338.5,225.167 340.5,224.5 Z"/></g>
<g><path style="opacity:0.133" fill="#808080" d="M 353.5,218.5 C 350.461,222.861 347.127,226.861 343.5,230.5C 345.051,224.955 348.384,220.955 353.5,218.5 Z"/></g>
<g><path style="opacity:1" fill="#3e3a2d" d="M 241.5,90.5 C 242.164,164.841 241.497,238.841 239.5,312.5C 240.164,238.402 240.83,164.402 241.5,90.5 Z"/></g>
<g><path style="opacity:0.042" fill="#1c1c1c" d="M 259.5,174.5 C 260.167,174.5 260.833,174.5 261.5,174.5C 261.5,218.833 261.5,263.167 261.5,307.5C 260.833,307.5 260.167,307.5 259.5,307.5C 259.5,263.167 259.5,218.833 259.5,174.5 Z"/></g>
<g><path style="opacity:1" fill="#544e39" d="M 216.5,217.5 C 216.921,225.262 214.255,231.595 208.5,236.5C 212.556,230.724 215.223,224.391 216.5,217.5 Z"/></g>
<g><path style="opacity:0.502" fill="#787878" d="M 336.5,228.5 C 334.223,233.777 330.556,237.777 325.5,240.5C 329.195,236.474 332.862,232.474 336.5,228.5 Z"/></g>
<g><path style="opacity:0.114" fill="#797979" d="M 342.5,231.5 C 342.167,233.833 340.833,235.167 338.5,235.5C 338.833,233.167 340.167,231.833 342.5,231.5 Z"/></g>
<g><path style="opacity:0.133" fill="#636363" d="M 337.5,237.5 C 336.833,240.167 335.167,241.833 332.5,242.5C 333.189,239.811 334.856,238.144 337.5,237.5 Z"/></g>
<g><path style="opacity:0.047" fill="#636363" d="M 332.5,242.5 C 332.573,244.027 331.906,245.027 330.5,245.5C 330.427,243.973 331.094,242.973 332.5,242.5 Z"/></g>
<g><path style="opacity:1" fill="#e2c870" d="M 200.5,252.5 C 208.728,245.761 214.895,237.427 219,227.5C 219.667,224.167 219.667,220.833 219,217.5C 218.329,216.748 217.496,216.414 216.5,216.5C 217.552,214.744 219.219,214.077 221.5,214.5C 221.918,224.732 219.585,234.232 214.5,243C 214.833,243.333 215.167,243.667 215.5,244C 214.552,244.483 213.552,244.649 212.5,244.5C 212.321,246.606 211.321,248.272 209.5,249.5C 206.533,249.821 203.533,250.821 200.5,252.5 Z"/></g>
<g><path style="opacity:0.051" fill="#585858" d="M 323.5,244.5 C 322.167,246.5 320.5,248.167 318.5,249.5C 319.167,246.833 320.833,245.167 323.5,244.5 Z"/></g>
<g><path style="opacity:1" fill="#7d724d" d="M 161.5,250.5 C 163.898,250.259 165.898,250.926 167.5,252.5C 165.102,252.741 163.102,252.074 161.5,250.5 Z"/></g>
<g><path style="opacity:0.306" fill="#757575" d="M 330.5,246.5 C 325.418,252.569 320.418,258.569 315.5,264.5C 315.491,262.692 315.991,261.025 317,259.5C 319.738,257.423 321.738,254.757 323,251.5C 325.436,249.533 327.936,247.866 330.5,246.5 Z"/></g>
<g><path style="opacity:0.525" fill="#838483" d="M 134.5,226.5 C 134.5,227.833 135.167,228.5 136.5,228.5C 136.813,233.442 138.147,238.109 140.5,242.5C 146.114,248.621 152.448,253.787 159.5,258C 169.456,260.866 179.456,261.199 189.5,259C 190.456,262.394 190.789,265.894 190.5,269.5C 188.906,266.939 187.906,263.939 187.5,260.5C 165.722,265.835 148.889,259.168 137,240.5C 134.979,236.346 133.813,232.013 133.5,227.5C 133.5,226.833 133.833,226.5 134.5,226.5 Z"/></g>
<g><path style="opacity:0.375" fill="#929292" d="M 317.5,251.5 C 316.772,253.512 315.938,255.512 315,257.5C 314.329,258.252 313.496,258.586 312.5,258.5C 312.981,255.166 314.647,252.833 317.5,251.5 Z"/></g>
<g><path style="opacity:1" fill="#a29568" d="M 200.5,252.5 C 198.948,255.112 196.614,256.445 193.5,256.5C 193.5,258.167 193.5,259.833 193.5,261.5C 192.833,261.5 192.5,261.167 192.5,260.5C 192.215,258.712 192.548,257.045 193.5,255.5C 195.974,254.68 198.307,253.68 200.5,252.5 Z"/></g>
<g><path style="opacity:0.394" fill="#7d7d7d" d="M 312.5,258.5 C 311.213,261.698 310.547,265.031 310.5,268.5C 309.833,268.5 309.167,268.5 308.5,268.5C 308.099,264.349 309.433,261.015 312.5,258.5 Z"/></g>
<g><path style="opacity:1" fill="#534d38" d="M 193.5,262.5 C 195.749,271.235 197.082,280.235 197.5,289.5C 195.431,280.738 194.098,271.738 193.5,262.5 Z"/></g>
<g><path style="opacity:0.711" fill="#adadad" d="M 308.5,268.5 C 309.167,268.5 309.833,268.5 310.5,268.5C 309.703,273.793 309.037,279.126 308.5,284.5C 308.415,286.333 307.748,287.666 306.5,288.5C 306.773,281.775 307.439,275.108 308.5,268.5 Z"/></g>
<g><path style="opacity:0.273" fill="#707070" d="M 306.5,290.5 C 306.923,292.781 306.256,294.448 304.5,295.5C 304.12,293.302 304.787,291.635 306.5,290.5 Z"/></g>
<g><path style="opacity:0.167" fill="#676767" d="M 313.5,281.5 C 313.55,286.552 313.05,291.552 312,296.5C 311.33,299.174 310.163,301.507 308.5,303.5C 309.863,297.241 310.863,290.908 311.5,284.5C 311.64,282.97 312.307,281.97 313.5,281.5 Z"/></g>
<g><path style="opacity:0.643" fill="#9d9d9d" d="M 304.5,296.5 C 305.598,297.601 305.765,298.934 305,300.5C 304.138,302.087 303.471,303.754 303,305.5C 302.329,306.252 301.496,306.586 300.5,306.5C 301.658,303.011 302.991,299.678 304.5,296.5 Z"/></g>
<g><path style="opacity:0.294" fill="#7e7e7e" d="M 253.5,300.5 C 255.402,303.337 256.069,306.671 255.5,310.5C 253.598,307.663 252.931,304.329 253.5,300.5 Z"/></g>
<g><path style="opacity:0.208" fill="#7b7b7b" d="M 308.5,304.5 C 308.33,307.204 306.997,308.871 304.5,309.5C 304.731,306.937 306.065,305.27 308.5,304.5 Z"/></g>
<g><path style="opacity:0.435" fill="#818283" d="M 191.5,291.5 C 193.185,295.789 194.351,300.456 195,305.5C 195.377,306.942 196.21,307.942 197.5,308.5C 199.543,309.579 200.876,311.246 201.5,313.5C 192.809,308.9 189.476,301.567 191.5,291.5 Z"/></g>
<g><path style="opacity:0.257" fill="#787878" d="M 259.5,307.5 C 260.167,307.5 260.833,307.5 261.5,307.5C 261.414,308.496 261.748,309.329 262.5,310C 264.32,310.2 265.653,311.034 266.5,312.5C 262.521,313.019 260.187,311.352 259.5,307.5 Z"/></g>
<g><path style="opacity:0.224" fill="#5b5b5b" d="M 294.5,309.5 C 293.7,311.741 292.034,312.741 289.5,312.5C 290.486,310.592 292.152,309.592 294.5,309.5 Z"/></g>
<g><path style="opacity:1" fill="#575039" d="M 215.5,311.5 C 223.466,312.365 231.466,312.698 239.5,312.5C 232.679,313.655 225.679,313.821 218.5,313C 217.263,312.768 216.263,312.268 215.5,311.5 Z"/></g>
<g><path style="opacity:0.557" fill="#808080" d="M 303.5,310.5 C 301.777,314.209 298.777,316.209 294.5,316.5C 296.946,313.769 299.946,311.769 303.5,310.5 Z"/></g>
<g><path style="opacity:0.69" fill="#939395" d="M 201.5,313.5 C 204.5,314.167 207.5,314.833 210.5,315.5C 211.448,316.978 212.781,317.978 214.5,318.5C 210.681,318.395 207.014,317.562 203.5,316C 202.244,315.583 201.577,314.75 201.5,313.5 Z"/></g>
<g><path style="opacity:0.407" fill="#6d6d6d" d="M 255.5,311.5 C 256.785,312.785 258.119,314.119 259.5,315.5C 271.079,317.829 282.746,318.162 294.5,316.5C 293.319,318.067 291.653,318.901 289.5,319C 281.167,319.667 272.833,319.667 264.5,319C 261.823,318.751 259.49,317.751 257.5,316C 255.963,314.89 255.297,313.39 255.5,311.5 Z"/></g>
<g><path style="opacity:0.855" fill="#383838" d="M 210.5,315.5 C 221.779,318.6 233.112,318.933 244.5,316.5C 243.653,317.966 242.32,318.8 240.5,319C 234.984,319.173 229.651,319.673 224.5,320.5C 223.833,320.5 223.167,320.5 222.5,320.5C 220.721,318.656 218.388,317.99 215.5,318.5C 215.167,318.5 214.833,318.5 214.5,318.5C 212.781,317.978 211.448,316.978 210.5,315.5 Z"/></g>
<g><path style="opacity:0.008" fill="#b1b1b0" d="M 215.5,318.5 C 218.388,317.99 220.721,318.656 222.5,320.5C 219.772,320.829 217.438,320.163 215.5,318.5 Z"/></g>
<g><path style="opacity:0.408" fill="#babab9" d="M 247.5,314.5 C 247.141,316.371 246.141,317.871 244.5,319C 241.289,320.153 237.956,320.82 234.5,321C 254.5,321.333 274.5,321.667 294.5,322C 298.064,324.994 298.898,328.494 297,332.5C 295.89,334.037 294.39,334.703 292.5,334.5C 292.821,332.952 293.821,332.285 295.5,332.5C 297.287,328.878 296.62,325.878 293.5,323.5C 264.671,322.502 235.671,322.169 206.5,322.5C 215.051,322.024 221.051,321.358 224.5,320.5C 229.651,319.673 234.984,319.173 240.5,319C 242.32,318.8 243.653,317.966 244.5,316.5C 244.5,315.833 244.833,315.5 245.5,315.5C 246.167,315.167 246.833,314.833 247.5,314.5 Z"/></g>
<g><path style="opacity:0.892" fill="#dbdbdb" d="M 206.5,322.5 C 235.671,322.169 264.671,322.502 293.5,323.5C 264.165,323.333 234.831,323.5 205.5,324C 203.957,327.907 204.624,331.407 207.5,334.5C 202.338,332.303 201.171,328.636 204,323.5C 204.671,322.748 205.504,322.414 206.5,322.5 Z"/></g>
<g><path style="opacity:1" fill="#e8e8e8" d="M 293.5,323.5 C 296.62,325.878 297.287,328.878 295.5,332.5C 293.821,332.285 292.821,332.952 292.5,334.5C 264.167,335.833 235.833,335.833 207.5,334.5C 204.624,331.407 203.957,327.907 205.5,324C 234.831,323.5 264.165,323.333 293.5,323.5 Z"/></g>
<g><path style="opacity:0.925" fill="#fafafa" d="M 297.5,345.5 C 295.443,347.168 293.443,348.835 291.5,350.5C 263.5,350.5 235.5,350.5 207.5,350.5C 206.793,348.866 205.627,347.532 204,346.5C 203.506,344.866 203.34,343.199 203.5,341.5C 203.511,339.983 204.177,338.816 205.5,338C 235.167,337.333 264.833,337.333 294.5,338C 297.223,340.028 298.223,342.528 297.5,345.5 Z"/></g>
<g><path style="opacity:0.039" fill="#707070" d="M 203.5,341.5 C 203.34,343.199 203.506,344.866 204,346.5C 205.627,347.532 206.793,348.866 207.5,350.5C 202.751,348.933 201.417,345.933 203.5,341.5 Z"/></g>
<g><path style="opacity:0.035" fill="#969696" d="M 297.5,345.5 C 297.032,348.966 295.032,350.632 291.5,350.5C 293.443,348.835 295.443,347.168 297.5,345.5 Z"/></g>
<g><path style="opacity:0.988" fill="#f9f9f9" d="M 285.5,358.5 C 283.637,359.967 282.304,361.967 281.5,364.5C 281.863,365.183 282.196,365.85 282.5,366.5C 282.5,367.5 282.5,368.5 282.5,369.5C 261.156,369.833 239.823,369.5 218.5,368.5C 217.03,364.088 215.363,359.755 213.5,355.5C 213.833,354.5 214.5,353.833 215.5,353.5C 239.371,354.775 263.038,354.775 286.5,353.5C 286.634,355.292 286.301,356.958 285.5,358.5 Z"/></g>
<g><path style="opacity:0.327" fill="#9a9a9a" d="M 285.5,358.5 C 284.871,361.397 283.871,364.064 282.5,366.5C 282.196,365.85 281.863,365.183 281.5,364.5C 282.304,361.967 283.637,359.967 285.5,358.5 Z"/></g>
<g><path style="opacity:0.846" fill="#fefffe" d="M 14.5,388.5 C 16.679,388.84 18.5123,389.84 20,391.5C 25.0075,398.003 30.1742,404.336 35.5,410.5C 41.2859,403.759 46.9526,396.926 52.5,390C 54.6806,387.922 56.6806,388.089 58.5,390.5C 59.8333,406.167 59.8333,421.833 58.5,437.5C 56.3052,438.769 54.1385,438.769 52,437.5C 51.6667,426.167 51.3333,414.833 51,403.5C 46.952,407.88 43.2853,412.546 40,417.5C 36.3513,421.598 33.018,421.265 30,416.5C 26.9088,411.986 23.5755,407.653 20,403.5C 19.6667,414.5 19.3333,425.5 19,436.5C 16.975,438.725 14.6417,439.059 12,437.5C 11.3333,421.833 11.3333,406.167 12,390.5C 12.9947,389.934 13.828,389.267 14.5,388.5 Z"/></g>
<g><path style="opacity:0.904" fill="#fefffe" d="M 72.5,388.5 C 82.5056,388.334 92.5056,388.5 102.5,389C 105.473,390.224 106.14,392.224 104.5,395C 95.5062,395.5 86.5062,395.666 77.5,395.5C 77.5,400.5 77.5,405.5 77.5,410.5C 84.5079,410.334 91.5079,410.5 98.5,411C 100.032,413.33 99.6983,415.33 97.5,417C 90.8417,417.5 84.175,417.666 77.5,417.5C 77.5,422.167 77.5,426.833 77.5,431.5C 85.84,431.334 94.1733,431.5 102.5,432C 105.473,433.224 106.14,435.224 104.5,438C 93.2569,438.82 82.0902,438.653 71,437.5C 70.8333,429.5 70.6667,421.5 70.5,413.5C 70.5305,404.935 71.1972,396.601 72.5,388.5 Z"/></g>
<g><path style="opacity:0.869" fill="#fefffe" d="M 115.5,388.5 C 118.614,389.091 121.114,390.758 123,393.5C 131,403.5 139,413.5 147,423.5C 147.333,412.5 147.667,401.5 148,390.5C 150.333,387.833 152.667,387.833 155,390.5C 155.667,405.833 155.667,421.167 155,436.5C 153.303,440.039 151.137,440.373 148.5,437.5C 139.523,426.022 130.356,414.689 121,403.5C 120.667,414.833 120.333,426.167 120,437.5C 118,438.833 116,438.833 114,437.5C 113.833,429.5 113.667,421.5 113.5,413.5C 113.53,404.935 114.197,396.601 115.5,388.5 Z"/></g>
<g><path style="opacity:0.82" fill="#fefffe" d="M 163.5,388.5 C 175.171,388.333 186.838,388.5 198.5,389C 200.602,390.733 200.935,392.733 199.5,395C 194.628,396.388 189.628,396.888 184.5,396.5C 184.667,410.171 184.5,423.837 184,437.5C 181.358,439.059 179.025,438.725 177,436.5C 176.5,423.171 176.333,409.837 176.5,396.5C 171.372,396.888 166.372,396.388 161.5,395C 159.933,392.094 160.6,389.928 163.5,388.5 Z"/></g>
<g><path style="opacity:0.899" fill="#fefffe" d="M 208.5,388.5 C 218.839,388.334 229.172,388.5 239.5,389C 241.602,390.733 241.935,392.733 240.5,395C 231.506,395.5 222.506,395.666 213.5,395.5C 213.5,400.5 213.5,405.5 213.5,410.5C 220.863,410.169 228.197,410.503 235.5,411.5C 236.61,413.496 236.276,415.329 234.5,417C 227.508,417.5 220.508,417.666 213.5,417.5C 213.5,422.167 213.5,426.833 213.5,431.5C 222.173,431.334 230.84,431.5 239.5,432C 241.698,433.67 242.032,435.67 240.5,438C 229.257,438.82 218.09,438.653 207,437.5C 206.333,421.833 206.333,406.167 207,390.5C 207.717,389.956 208.217,389.289 208.5,388.5 Z"/></g>
<g><path style="opacity:0.844" fill="#fefffe" d="M 276.5,388.5 C 284.461,387.046 291.294,389.046 297,394.5C 297.667,396.167 297.667,397.833 297,399.5C 296.275,400.059 295.442,400.392 294.5,400.5C 290.909,397.924 286.909,396.258 282.5,395.5C 275.425,396.501 273.759,400.001 277.5,406C 283.779,408.473 289.779,411.473 295.5,415C 302.833,426.33 300.167,434.33 287.5,439C 277.396,441.422 270.063,438.089 265.5,429C 266.443,426.019 268.443,425.019 271.5,426C 277.264,433.224 283.764,434.057 291,428.5C 291.667,426.167 291.667,423.833 291,421.5C 285.064,417.96 278.897,414.793 272.5,412C 267.393,407.002 266.227,401.168 269,394.5C 271.114,391.879 273.614,389.879 276.5,388.5 Z"/></g>
<g><path style="opacity:0.847" fill="#fefffe" d="M 311.5,388.5 C 314.195,388.933 316.362,390.266 318,392.5C 322.623,398.792 327.623,404.792 333,410.5C 338.5,403.667 344,396.833 349.5,390C 351.785,388.046 353.952,388.213 356,390.5C 356.824,406.408 356.657,422.241 355.5,438C 352.937,438.918 350.77,438.418 349,436.5C 348.667,425.5 348.333,414.5 348,403.5C 344.425,407.653 341.091,411.986 338,416.5C 335.6,420.687 332.6,421.354 329,418.5C 325.24,413.317 321.24,408.317 317,403.5C 316.667,414.833 316.333,426.167 316,437.5C 313.861,438.769 311.695,438.769 309.5,437.5C 308.35,422.211 308.183,406.878 309,391.5C 309.698,390.309 310.531,389.309 311.5,388.5 Z"/></g>
<g><path style="opacity:0.858" fill="#fefffe" d="M 383.5,388.5 C 385.484,388.383 387.15,389.05 388.5,390.5C 395.109,405.385 401.442,420.385 407.5,435.5C 405.808,439.609 403.308,440.275 400,437.5C 398.963,434.595 397.796,431.761 396.5,429C 388.833,428.333 381.167,428.333 373.5,429C 372.167,432 370.833,435 369.5,438C 366.407,439.026 364.073,438.193 362.5,435.5C 368.744,419.358 375.744,403.692 383.5,388.5 Z M 384.5,400.5 C 387.865,406.897 390.865,413.564 393.5,420.5C 387.833,421.833 382.167,421.833 376.5,420.5C 379.733,414.037 382.4,407.371 384.5,400.5 Z"/></g>
<g><path style="opacity:0.895" fill="#fefffe" d="M 416.5,388.5 C 422.176,388.334 427.843,388.501 433.5,389C 447.891,392.616 452.724,401.45 448,415.5C 445.984,417.684 443.817,419.684 441.5,421.5C 444.528,425.361 447.361,429.361 450,433.5C 450.728,438.047 448.894,439.714 444.5,438.5C 440.712,433.756 437.045,428.923 433.5,424C 429.514,423.501 425.514,423.334 421.5,423.5C 421.666,428.179 421.499,432.845 421,437.5C 419,438.833 417,438.833 415,437.5C 414.833,429.5 414.667,421.5 414.5,413.5C 414.53,404.935 415.197,396.601 416.5,388.5 Z M 421.5,395.5 C 427.362,395.152 433.028,395.985 438.5,398C 444.103,404.04 443.769,409.707 437.5,415C 432.264,416.339 426.93,416.839 421.5,416.5C 421.5,409.5 421.5,402.5 421.5,395.5 Z"/></g>
<g><path style="opacity:0.82" fill="#fefffe" d="M 455.5,388.5 C 467.171,388.333 478.838,388.5 490.5,389C 493.473,390.224 494.14,392.224 492.5,395C 487.599,396.325 482.599,396.825 477.5,396.5C 477.781,410.536 477.448,424.536 476.5,438.5C 474.208,438.756 472.041,438.423 470,437.5C 469.5,423.837 469.333,410.171 469.5,396.5C 464.372,396.888 459.372,396.388 454.5,395C 453.144,392.586 453.478,390.419 455.5,388.5 Z"/></g>
</svg>
