<?xml version="1.0" encoding="UTF-8"?>
<!DOCTYPE svg PUBLIC "-//W3C//DTD SVG 1.1//EN" "http://www.w3.org/Graphics/SVG/1.1/DTD/svg11.dtd">
<svg xmlns="http://www.w3.org/2000/svg" version="1.1" width="500px" height="500px" style="shape-rendering:geometricPrecision; text-rendering:geometricPrecision; image-rendering:optimizeQuality; fill-rule:evenodd; clip-rule:evenodd" xmlns:xlink="http://www.w3.org/1999/xlink">
<g><path style="opacity:0.061" fill="#b0b0b1" d="M 194.5,23.5 C 190.5,23.5 186.5,23.5 182.5,23.5C 182.611,22.8826 182.944,22.3826 183.5,22C 185,21.8333 186.5,21.6667 188,21.5C 190.544,21.336 192.71,22.0027 194.5,23.5 Z"/></g>
<g><path style="opacity:0.275" fill="#9a9a9a" d="M 276.5,23.5 C 269.5,23.5 262.5,23.5 255.5,23.5C 255.167,23.5 254.833,23.5 254.5,23.5C 257.598,22.179 261.098,21.5123 265,21.5C 268.5,21.6667 272,21.8333 275.5,22C 276.056,22.3826 276.389,22.8826 276.5,23.5 Z"/></g>
<g><path style="opacity:0.91" fill="#525252" d="M 182.5,23.5 C 186.5,23.5 190.5,23.5 194.5,23.5C 199.943,23.8929 204.609,25.8929 208.5,29.5C 203.769,28.301 199.103,26.801 194.5,25C 185.313,23.6316 176.647,25.1316 168.5,29.5C 168.937,27.9256 169.937,26.7589 171.5,26C 175.014,24.4383 178.681,23.605 182.5,23.5 Z"/></g>
<g><path style="opacity:0.999" fill="#0e0e0e" d="M 255.5,23.5 C 262.5,23.5 269.5,23.5 276.5,23.5C 279.385,23.1936 282.052,23.5269 284.5,24.5C 285.347,25.9663 286.68,26.7996 288.5,27C 292.816,27.9964 297.149,28.8297 301.5,29.5C 309.618,34.7312 317.951,39.7312 326.5,44.5C 328.216,46.0248 330.216,47.0248 332.5,47.5C 334.15,51.8169 337.15,54.8169 341.5,56.5C 342.092,60.0889 344.092,62.4222 347.5,63.5C 348.247,66.3615 349.914,68.3615 352.5,69.5C 352.66,71.153 353.326,72.4863 354.5,73.5C 355.496,77.5006 357.496,80.8339 360.5,83.5C 362.772,88.8 365.105,94.1334 367.5,99.5C 367.957,100.298 368.624,100.631 369.5,100.5C 369.804,103.522 370.304,106.522 371,109.5C 372.369,113.802 374.203,117.802 376.5,121.5C 376.552,125.198 376.886,128.865 377.5,132.5C 378.799,141.829 378.799,151.162 377.5,160.5C 377.073,164.824 376.739,169.158 376.5,173.5C 375.172,174.507 374.172,175.84 373.5,177.5C 370.222,185.725 367.222,194.059 364.5,202.5C 361.68,203.465 360.347,205.465 360.5,208.5C 359.357,208.908 358.357,209.575 357.5,210.5C 354.048,215.273 351.048,220.273 348.5,225.5C 345.812,226.024 344.312,227.691 344,230.5C 337.898,235.992 332.231,241.992 327,248.5C 326.517,249.448 326.351,250.448 326.5,251.5C 326.5,252.167 326.167,252.5 325.5,252.5C 322.379,253.288 320.712,255.288 320.5,258.5C 318.003,259.129 316.67,260.796 316.5,263.5C 314.175,264.655 313.008,266.655 313,269.5C 312.389,274.496 311.889,279.496 311.5,284.5C 311.249,289.507 310.916,294.507 310.5,299.5C 307.837,302.269 306.004,305.603 305,309.5C 301.708,312.873 298.208,315.873 294.5,318.5C 284.857,319.325 275.191,319.658 265.5,319.5C 265.167,319.5 264.833,319.5 264.5,319.5C 256.607,316.727 253.607,311.061 255.5,302.5C 253.931,210.864 253.431,119.197 254,27.5C 254.41,26.0993 254.91,24.766 255.5,23.5 Z M 261.5,31.5 C 264.5,31.5 267.5,31.5 270.5,31.5C 275.092,32.3532 279.759,33.3532 284.5,34.5C 288.112,35.4222 291.779,36.0889 295.5,36.5C 303.709,39.9378 311.709,43.9378 319.5,48.5C 320.27,50.9354 321.937,52.2687 324.5,52.5C 327.874,56.8755 331.874,60.5422 336.5,63.5C 337.757,66.4274 339.757,68.7607 342.5,70.5C 345.046,74.9645 348.046,78.9645 351.5,82.5C 354.93,89.6968 358.597,96.6968 362.5,103.5C 362.402,105.553 363.069,107.22 364.5,108.5C 364.166,111.491 365.166,113.824 367.5,115.5C 367.565,118.428 368.232,121.095 369.5,123.5C 369.98,128.53 370.647,133.53 371.5,138.5C 371.5,145.167 371.5,151.833 371.5,158.5C 370.426,168.217 368.093,177.55 364.5,186.5C 361.4,191.039 359.067,196.039 357.5,201.5C 354.723,203.951 352.723,206.951 351.5,210.5C 348.677,211.992 347.01,214.326 346.5,217.5C 341.747,221.917 337.747,226.917 334.5,232.5C 332.5,232.5 331.5,233.5 331.5,235.5C 329.833,237.167 328.167,238.833 326.5,240.5C 323.791,243.208 321.458,246.208 319.5,249.5C 312.78,254.89 309.114,261.89 308.5,270.5C 307.57,274.4 307.237,278.4 307.5,282.5C 305.72,283.99 305.054,285.99 305.5,288.5C 305.5,289.5 305.5,290.5 305.5,291.5C 304.213,295.313 303.213,299.313 302.5,303.5C 300.273,305.607 298.273,307.94 296.5,310.5C 293.946,311.606 291.279,312.439 288.5,313C 281.174,313.5 273.841,313.666 266.5,313.5C 266.167,313.5 265.833,313.5 265.5,313.5C 263.706,312.767 262.039,311.767 260.5,310.5C 260.5,310.167 260.5,309.833 260.5,309.5C 260.391,216.831 260.724,124.165 261.5,31.5 Z"/></g>
<g><path style="opacity:0.533" fill="#858585" d="M 284.5,24.5 C 290.718,24.7984 296.385,26.4651 301.5,29.5C 297.149,28.8297 292.816,27.9964 288.5,27C 286.68,26.7996 285.347,25.9663 284.5,24.5 Z"/></g>
<g><path style="opacity:0.851" fill="#716d6c" d="M 246.5,38.5 C 245.833,37.8333 245.167,37.1667 244.5,36.5C 244.5,35.8333 244.5,35.1667 244.5,34.5C 244.631,33.6236 244.298,32.9569 243.5,32.5C 232.72,25.7293 221.387,24.7293 209.5,29.5C 209.414,28.5041 209.748,27.6708 210.5,27C 218.732,24.1502 227.065,23.8168 235.5,26C 239.099,28.1312 242.765,29.9646 246.5,31.5C 246.5,33.8333 246.5,36.1667 246.5,38.5 Z"/></g>
<g><path style="opacity:0.734" fill="#3a3a3a" d="M 281.5,31.5 C 277.833,31.5 274.167,31.5 270.5,31.5C 267.5,31.5 264.5,31.5 261.5,31.5C 261.167,31.5 260.833,31.5 260.5,31.5C 262.397,30.1952 264.731,29.5286 267.5,29.5C 272.397,29.5327 277.063,30.1994 281.5,31.5 Z"/></g>
<g><path style="opacity:1" fill="#f4d669" d="M 204.5,32.5 C 206.379,33.3414 208.379,33.6747 210.5,33.5C 213.425,33.5402 216.091,32.7068 218.5,31C 223.871,30.3239 229.204,30.4905 234.5,31.5C 236.954,32.2271 239.287,33.2271 241.5,34.5C 241.463,48.5087 241.129,62.5087 240.5,76.5C 239.681,79.3054 239.181,82.3054 239,85.5C 238.5,160.833 238.333,236.166 238.5,311.5C 231.5,311.5 224.5,311.5 217.5,311.5C 216.833,311.5 216.167,311.5 215.5,311.5C 210.863,309.182 206.197,306.848 201.5,304.5C 199.437,302.551 198.104,300.218 197.5,297.5C 197.553,291.804 197.22,286.138 196.5,280.5C 196.667,274.497 195.667,268.83 193.5,263.5C 193.5,262.833 193.5,262.167 193.5,261.5C 192.481,259.46 192.481,257.46 193.5,255.5C 197.452,253.535 201.119,251.202 204.5,248.5C 206.288,248.785 207.955,248.452 209.5,247.5C 210.703,244.367 212.537,241.701 215,239.5C 215.49,238.207 215.657,236.873 215.5,235.5C 220.225,230.207 221.558,224.207 219.5,217.5C 218.817,215.824 217.483,215.157 215.5,215.5C 215.731,219.993 215.064,224.326 213.5,228.5C 206.848,239.142 197.515,246.475 185.5,250.5C 179.794,250.829 174.128,250.495 168.5,249.5C 168.291,248.914 167.957,248.414 167.5,248C 164.5,247.667 161.5,247.333 158.5,247C 157.809,245.933 157.309,244.766 157,243.5C 155.224,244.536 153.391,244.536 151.5,243.5C 146.161,238.641 142.661,232.641 141,225.5C 140.5,218.508 140.334,211.508 140.5,204.5C 142.95,204.298 145.283,204.631 147.5,205.5C 152.316,206.65 157.316,206.816 162.5,206C 165.797,205.796 168.797,204.963 171.5,203.5C 173.861,203.326 176.194,202.993 178.5,202.5C 180.967,202.245 182.967,201.245 184.5,199.5C 186.048,199.179 186.715,198.179 186.5,196.5C 184.435,196.517 182.435,196.85 180.5,197.5C 172.532,198.355 164.532,199.022 156.5,199.5C 151.833,199.333 147.167,199.167 142.5,199C 139.564,196.744 136.23,195.411 132.5,195C 129.248,191.576 125.582,188.742 121.5,186.5C 112.773,176.759 110.273,165.425 114,152.5C 116.62,146.246 120.453,140.913 125.5,136.5C 131.889,143.192 139.556,147.525 148.5,149.5C 156.316,150.492 164.316,150.826 172.5,150.5C 172.67,151.822 172.337,152.989 171.5,154C 172.5,154.5 173.5,155 174.5,155.5C 176.597,159.267 178.763,162.934 181,166.5C 181.333,165.833 181.667,165.167 182,164.5C 183.011,165.337 184.178,165.67 185.5,165.5C 186.973,166.072 188.307,166.905 189.5,168C 191.259,168.798 192.926,168.631 194.5,167.5C 192.565,164.062 190.065,161.062 187,158.5C 181.808,151.574 179.642,143.741 180.5,135C 180.16,127.97 181.16,121.137 183.5,114.5C 183.267,113.068 182.6,112.568 181.5,113C 180.117,114.271 179.117,115.771 178.5,117.5C 176.926,118.984 175.593,120.651 174.5,122.5C 173.017,124.924 171.85,127.591 171,130.5C 170.501,134.821 170.334,139.154 170.5,143.5C 163.825,143.666 157.158,143.5 150.5,143C 145.984,140.972 141.317,139.472 136.5,138.5C 133.5,137.5 131.5,135.5 130.5,132.5C 126.864,125.088 124.531,117.255 123.5,109C 123.453,105.927 124.62,103.427 127,101.5C 127.175,97.789 127.675,94.1224 128.5,90.5C 130.941,89.6734 133.107,89.6734 135,90.5C 135.5,89.5 136,88.5 136.5,87.5C 135.263,86.7193 134.263,85.7193 133.5,84.5C 134.524,83.1482 135.524,81.8149 136.5,80.5C 140.421,76.5273 145.088,73.5273 150.5,71.5C 151.386,72.325 151.719,73.325 151.5,74.5C 151.343,75.8734 151.51,77.2068 152,78.5C 153.232,81.4117 154.732,84.0784 156.5,86.5C 162.452,94.4517 169.452,101.452 177.5,107.5C 178.583,106.635 178.749,105.635 178,104.5C 171.857,98.8305 166.69,92.4972 162.5,85.5C 162.245,83.0326 161.245,81.0326 159.5,79.5C 154.12,57.9451 161.12,41.9451 180.5,31.5C 188.589,29.9945 196.589,30.3278 204.5,32.5 Z"/></g>
<g><path style="opacity:0.023" fill="#c3c3c3" d="M 270.5,31.5 C 274.167,31.5 277.833,31.5 281.5,31.5C 282.209,32.404 283.209,32.7373 284.5,32.5C 284.5,33.1667 284.5,33.8333 284.5,34.5C 279.759,33.3532 275.092,32.3532 270.5,31.5 Z"/></g>
<g><path style="opacity:0.294" fill="#818181" d="M 284.5,32.5 C 287.697,32.9728 290.863,33.6394 294,34.5C 295.03,34.8361 295.53,35.5028 295.5,36.5C 291.779,36.0889 288.112,35.4222 284.5,34.5C 284.5,33.8333 284.5,33.1667 284.5,32.5 Z"/></g>
<g><path style="opacity:0.576" fill="#767676" d="M 301.5,29.5 C 307.842,31.1709 313.842,33.6709 319.5,37C 321.501,39.3245 323.834,41.1579 326.5,42.5C 326.5,43.1667 326.5,43.8333 326.5,44.5C 317.951,39.7312 309.618,34.7312 301.5,29.5 Z"/></g>
<g><path style="opacity:1" fill="#060605" d="M 241.5,34.5 C 242.348,33.375 243.348,33.375 244.5,34.5C 244.5,35.1667 244.5,35.8333 244.5,36.5C 246.567,129.517 246.9,222.517 245.5,315.5C 243.703,316.73 241.703,317.396 239.5,317.5C 231.414,317.801 223.414,317.467 215.5,316.5C 213.266,316.62 211.099,316.287 209,315.5C 204.97,313.067 200.803,311.067 196.5,309.5C 194.121,304.107 193.121,298.44 193.5,292.5C 192.717,281.829 192.217,271.162 192,260.5C 192.383,261.056 192.883,261.389 193.5,261.5C 193.5,262.167 193.5,262.833 193.5,263.5C 194.354,269.142 195.02,274.809 195.5,280.5C 195.596,286.373 196.263,292.04 197.5,297.5C 198.104,300.218 199.437,302.551 201.5,304.5C 205.037,308.935 209.703,311.268 215.5,311.5C 216.167,311.5 216.833,311.5 217.5,311.5C 224.648,312.492 231.981,312.825 239.5,312.5C 241.497,241.841 242.163,170.841 241.5,99.5C 242.425,77.6674 242.425,56.0007 241.5,34.5 Z"/></g>
<g><path style="opacity:0.176" fill="#8c8c8c" d="M 295.5,36.5 C 300.088,37.4399 304.588,38.7733 309,40.5C 311.674,43.1712 314.84,45.0046 318.5,46C 319.252,46.6708 319.586,47.5041 319.5,48.5C 311.709,43.9378 303.709,39.9378 295.5,36.5 Z"/></g>
<g><path style="opacity:0.063" fill="#cacaca" d="M 326.5,42.5 C 328.54,44.177 330.54,45.8437 332.5,47.5C 330.216,47.0248 328.216,46.0248 326.5,44.5C 326.5,43.8333 326.5,43.1667 326.5,42.5 Z"/></g>
<g><path style="opacity:0.004" fill="#b6b6b6" d="M 319.5,48.5 C 322.204,48.6696 323.871,50.0029 324.5,52.5C 321.937,52.2687 320.27,50.9354 319.5,48.5 Z"/></g>
<g><path style="opacity:0.914" fill="#505251" d="M 168.5,29.5 C 167.086,31.8115 165.253,33.8115 163,35.5C 161.171,39.8282 158.838,43.8282 156,47.5C 155.125,50.6277 153.958,53.6277 152.5,56.5C 151.675,60.1224 151.175,63.789 151,67.5C 149.644,68.3802 148.144,68.7135 146.5,68.5C 147.209,67.596 148.209,67.2627 149.5,67.5C 149.881,56.1927 153.381,45.8594 160,36.5C 162.436,33.5532 165.269,31.2199 168.5,29.5 Z"/></g>
<g><path style="opacity:0.263" fill="#999999" d="M 332.5,47.5 C 334.978,49.8025 337.645,51.9692 340.5,54C 341.252,54.6708 341.586,55.5041 341.5,56.5C 337.15,54.8169 334.15,51.8169 332.5,47.5 Z"/></g>
<g><path style="opacity:0.135" fill="#b1b1b1" d="M 324.5,52.5 C 326.255,53.0722 327.922,53.9055 329.5,55C 332.353,57.4211 334.687,60.2545 336.5,63.5C 331.874,60.5422 327.874,56.8755 324.5,52.5 Z"/></g>
<g><path style="opacity:0.098" fill="#939393" d="M 341.5,56.5 C 344.243,58.2393 346.243,60.5726 347.5,63.5C 344.092,62.4222 342.092,60.0889 341.5,56.5 Z"/></g>
<g><path style="opacity:0.082" fill="#adadad" d="M 336.5,63.5 C 339.908,64.5778 341.908,66.9111 342.5,70.5C 339.757,68.7607 337.757,66.4274 336.5,63.5 Z"/></g>
<g><path style="opacity:0.051" fill="#a6a6a6" d="M 347.5,63.5 C 349.89,64.8908 351.557,66.8908 352.5,69.5C 349.914,68.3615 348.247,66.3615 347.5,63.5 Z"/></g>
<g><path style="opacity:0.012" fill="#d8d8d8" d="M 352.5,69.5 C 354.104,70.287 354.771,71.6203 354.5,73.5C 353.326,72.4863 352.66,71.153 352.5,69.5 Z"/></g>
<g><path style="opacity:0.992" fill="#434242" d="M 146.5,68.5 C 138.794,72.8779 131.46,78.0446 124.5,84C 117.108,97.5831 115.774,111.75 120.5,126.5C 119.833,125.833 119.167,125.167 118.5,124.5C 118.5,124.167 118.5,123.833 118.5,123.5C 118.048,119.837 117.548,116.17 117,112.5C 116.617,111.944 116.117,111.611 115.5,111.5C 114.104,93.8474 121.104,80.6807 136.5,72C 139.756,70.5263 143.089,69.3597 146.5,68.5 Z"/></g>
<g><path style="opacity:1" fill="#191815" d="M 208.5,29.5 C 208.833,29.5 209.167,29.5 209.5,29.5C 221.387,24.7293 232.72,25.7293 243.5,32.5C 244.298,32.9569 244.631,33.6236 244.5,34.5C 243.348,33.375 242.348,33.375 241.5,34.5C 239.287,33.2271 236.954,32.2271 234.5,31.5C 234.082,30.7784 233.416,30.2784 232.5,30C 227.5,29.3333 222.5,29.3333 217.5,30C 214.826,30.6701 212.493,31.8368 210.5,33.5C 208.379,33.6747 206.379,33.3414 204.5,32.5C 200.43,30.1113 195.93,29.1113 191,29.5C 187.195,29.3037 183.695,29.9704 180.5,31.5C 161.12,41.9451 154.12,57.9451 159.5,79.5C 159.755,81.9674 160.755,83.9674 162.5,85.5C 166.69,92.4972 171.857,98.8305 178,104.5C 178.749,105.635 178.583,106.635 177.5,107.5C 169.452,101.452 162.452,94.4517 156.5,86.5C 155.586,82.0643 153.919,78.0643 151.5,74.5C 151.719,73.325 151.386,72.325 150.5,71.5C 145.088,73.5273 140.421,76.5273 136.5,80.5C 128.673,85.1971 124.173,92.1971 123,101.5C 122.139,108.968 122.805,116.301 125,123.5C 126.344,126.865 128.177,129.865 130.5,132.5C 131.5,135.5 133.5,137.5 136.5,138.5C 136.5,139.167 136.833,139.5 137.5,139.5C 140.733,142.697 144.733,144.364 149.5,144.5C 157.018,145.709 164.685,145.709 172.5,144.5C 172.313,138.788 172.646,133.121 173.5,127.5C 176.201,124.765 177.868,121.431 178.5,117.5C 179.117,115.771 180.117,114.271 181.5,113C 182.6,112.568 183.267,113.068 183.5,114.5C 181.16,121.137 180.16,127.97 180.5,135C 179.642,143.741 181.808,151.574 187,158.5C 190.065,161.062 192.565,164.062 194.5,167.5C 192.926,168.631 191.259,168.798 189.5,168C 188.307,166.905 186.973,166.072 185.5,165.5C 181.8,161.636 178.3,157.636 175,153.5C 174.727,151.899 174.227,150.399 173.5,149C 165.184,149.123 156.851,149.29 148.5,149.5C 139.556,147.525 131.889,143.192 125.5,136.5C 120.453,140.913 116.62,146.246 114,152.5C 110.273,165.425 112.773,176.759 121.5,186.5C 126.686,193.185 133.353,197.685 141.5,200C 149.458,201.39 157.458,201.723 165.5,201C 170.869,200.883 175.869,199.716 180.5,197.5C 182.435,196.85 184.435,196.517 186.5,196.5C 186.715,198.179 186.048,199.179 184.5,199.5C 182.033,199.755 180.033,200.755 178.5,202.5C 176.194,202.993 173.861,203.326 171.5,203.5C 163.572,204.93 155.572,205.597 147.5,205.5C 145.283,204.631 142.95,204.298 140.5,204.5C 140.334,211.508 140.5,218.508 141,225.5C 142.661,232.641 146.161,238.641 151.5,243.5C 155.969,248.067 161.302,251.067 167.5,252.5C 169.81,253.164 172.31,253.497 175,253.5C 178.805,253.696 182.305,253.03 185.5,251.5C 185.5,251.167 185.5,250.833 185.5,250.5C 197.515,246.475 206.848,239.142 213.5,228.5C 214.117,228.389 214.617,228.056 215,227.5C 215.914,223.858 216.748,220.192 217.5,216.5C 218.484,219.428 218.817,222.428 218.5,225.5C 217.503,228.817 216.503,232.15 215.5,235.5C 212.238,240.102 208.572,244.435 204.5,248.5C 201.119,251.202 197.452,253.535 193.5,255.5C 192.481,257.46 192.481,259.46 193.5,261.5C 192.883,261.389 192.383,261.056 192,260.5C 192.217,271.162 192.717,281.829 193.5,292.5C 192.833,292.5 192.167,292.5 191.5,292.5C 190.602,284.876 190.269,277.209 190.5,269.5C 190.665,266.15 190.498,262.817 190,259.5C 189.439,258.978 188.772,258.645 188,258.5C 179.383,260.24 170.883,260.907 162.5,260.5C 162.167,260.5 161.833,260.5 161.5,260.5C 160.393,258.031 158.393,257.031 155.5,257.5C 153.408,254.277 150.408,252.277 146.5,251.5C 145.811,248.811 144.144,247.144 141.5,246.5C 139.954,240.141 137.288,234.475 133.5,229.5C 133.5,228.5 133.5,227.5 133.5,226.5C 134.791,222.601 134.791,218.601 133.5,214.5C 133.5,213.833 133.5,213.167 133.5,212.5C 135.256,211.448 135.923,209.781 135.5,207.5C 135.5,207.167 135.5,206.833 135.5,206.5C 136.434,205.432 136.768,204.099 136.5,202.5C 135.5,202.5 134.5,202.5 133.5,202.5C 130.758,199.579 127.425,197.579 123.5,196.5C 121.77,192.955 119.104,190.288 115.5,188.5C 113.936,184.086 112.102,179.753 110,175.5C 107.842,167.066 108.175,158.733 111,150.5C 114.188,145.444 117.355,140.444 120.5,135.5C 122.252,135.582 123.252,134.749 123.5,133C 122.588,130.683 121.588,128.516 120.5,126.5C 115.774,111.75 117.108,97.5831 124.5,84C 131.46,78.0446 138.794,72.8779 146.5,68.5C 148.144,68.7135 149.644,68.3802 151,67.5C 151.175,63.789 151.675,60.1224 152.5,56.5C 153.958,53.6277 155.125,50.6277 156,47.5C 158.838,43.8282 161.171,39.8282 163,35.5C 165.253,33.8115 167.086,31.8115 168.5,29.5C 176.647,25.1316 185.313,23.6316 194.5,25C 199.103,26.801 203.769,28.301 208.5,29.5 Z"/></g>
<g><path style="opacity:1" fill="#b0a267" d="M 234.5,31.5 C 229.204,30.4905 223.871,30.3239 218.5,31C 216.091,32.7068 213.425,33.5402 210.5,33.5C 212.493,31.8368 214.826,30.6701 217.5,30C 222.5,29.3333 227.5,29.3333 232.5,30C 233.416,30.2784 234.082,30.7784 234.5,31.5 Z"/></g>
<g><path style="opacity:1" fill="#8b825d" d="M 204.5,32.5 C 196.589,30.3278 188.589,29.9945 180.5,31.5C 183.695,29.9704 187.195,29.3037 191,29.5C 195.93,29.1113 200.43,30.1113 204.5,32.5 Z"/></g>
<g><path style="opacity:0.03" fill="#e4e4e4" d="M 299.5,74.5 C 297.821,74.2852 296.821,74.9519 296.5,76.5C 294.451,76.2942 294.117,75.4609 295.5,74C 297.066,73.235 298.399,73.4017 299.5,74.5 Z"/></g>
<g><path style="opacity:0.369" fill="#777777" d="M 299.5,74.5 C 304.139,74.8243 307.806,76.8243 310.5,80.5C 307.229,79.2043 303.895,77.8709 300.5,76.5C 299.913,77.2334 299.913,78.2334 300.5,79.5C 299.833,79.5 299.167,79.5 298.5,79.5C 298.573,77.9731 297.906,76.9731 296.5,76.5C 296.821,74.9519 297.821,74.2852 299.5,74.5 Z"/></g>
<g><path style="opacity:0.565" fill="#858585" d="M 342.5,70.5 C 347.356,73.0335 350.356,77.0335 351.5,82.5C 348.046,78.9645 345.046,74.9645 342.5,70.5 Z"/></g>
<g><path style="opacity:1" fill="#a79a63" d="M 151.5,74.5 C 153.919,78.0643 155.586,82.0643 156.5,86.5C 154.732,84.0784 153.232,81.4117 152,78.5C 151.51,77.2068 151.343,75.8734 151.5,74.5 Z"/></g>
<g><path style="opacity:0.02" fill="#cbcbcb" d="M 296.5,76.5 C 297.906,76.9731 298.573,77.9731 298.5,79.5C 297.094,79.0269 296.427,78.0269 296.5,76.5 Z"/></g>
<g><path style="opacity:0.525" fill="#979797" d="M 354.5,73.5 C 355.496,73.4142 356.329,73.7476 357,74.5C 358.741,77.3093 359.908,80.3093 360.5,83.5C 357.496,80.8339 355.496,77.5006 354.5,73.5 Z"/></g>
<g><path style="opacity:0.998" fill="#141414" d="M 310.5,80.5 C 310.694,82.9118 312.027,83.9118 314.5,83.5C 315.144,86.8103 317.144,88.8103 320.5,89.5C 321.167,89.5 321.5,89.8333 321.5,90.5C 322.256,93.3939 323.923,95.3939 326.5,96.5C 327.722,100.369 329.722,103.702 332.5,106.5C 332.5,106.833 332.5,107.167 332.5,107.5C 333.778,113.775 334.778,120.109 335.5,126.5C 335.343,129.619 334.676,132.619 333.5,135.5C 333.036,133.025 332.036,131.025 330.5,129.5C 329.549,128.081 329.216,126.415 329.5,124.5C 329.322,121.784 328.822,119.117 328,116.5C 327.583,115.244 326.75,114.577 325.5,114.5C 325.598,112.447 324.931,110.78 323.5,109.5C 323.245,106.984 322.411,104.65 321,102.5C 318.604,99.0015 315.771,96.0015 312.5,93.5C 312.238,90.3013 310.572,88.3013 307.5,87.5C 306.5,85.1667 304.833,83.5 302.5,82.5C 301.833,82.5 301.5,82.1667 301.5,81.5C 301.167,80.8333 300.833,80.1667 300.5,79.5C 299.913,78.2334 299.913,77.2334 300.5,76.5C 303.895,77.8709 307.229,79.2043 310.5,80.5 Z"/></g>
<g><path style="opacity:1" fill="#958756" d="M 241.5,34.5 C 242.425,56.0007 242.425,77.6674 241.5,99.5C 241.167,99.5 240.833,99.5 240.5,99.5C 240.5,91.8333 240.5,84.1667 240.5,76.5C 241.129,62.5087 241.463,48.5087 241.5,34.5 Z"/></g>
<g><path style="opacity:0.039" fill="#cccccc" d="M 298.5,79.5 C 299.167,79.5 299.833,79.5 300.5,79.5C 300.833,80.1667 301.167,80.8333 301.5,81.5C 299.973,81.573 298.973,80.9063 298.5,79.5 Z"/></g>
<g><path style="opacity:0.129" fill="#9e9e9e" d="M 310.5,80.5 C 312.632,80.5544 313.965,81.5544 314.5,83.5C 312.027,83.9118 310.694,82.9118 310.5,80.5 Z"/></g>
<g><path style="opacity:1" fill="#706945" d="M 159.5,79.5 C 161.245,81.0326 162.245,83.0326 162.5,85.5C 160.755,83.9674 159.755,81.9674 159.5,79.5 Z"/></g>
<g><path style="opacity:1" fill="#d5c175" d="M 240.5,76.5 C 240.5,84.1667 240.5,91.8333 240.5,99.5C 240.83,170.571 240.497,241.571 239.5,312.5C 231.981,312.825 224.648,312.492 217.5,311.5C 224.5,311.5 231.5,311.5 238.5,311.5C 238.333,236.166 238.5,160.833 239,85.5C 239.181,82.3054 239.681,79.3054 240.5,76.5 Z"/></g>
<g><path style="opacity:0.063" fill="#b0b0b0" d="M 302.5,82.5 C 304.833,83.5 306.5,85.1667 307.5,87.5C 304.833,86.8333 303.167,85.1667 302.5,82.5 Z"/></g>
<g><path style="opacity:0.141" fill="#7e7e7e" d="M 314.5,83.5 C 317.438,84.622 319.438,86.622 320.5,89.5C 317.144,88.8103 315.144,86.8103 314.5,83.5 Z"/></g>
<g><path style="opacity:0.239" fill="#a0a0a0" d="M 307.5,87.5 C 310.572,88.3013 312.238,90.3013 312.5,93.5C 309.914,92.3615 308.247,90.3615 307.5,87.5 Z"/></g>
<g><path style="opacity:0.106" fill="#8f8f8f" d="M 351.5,82.5 C 352.643,82.9081 353.643,83.5748 354.5,84.5C 355.392,87.9518 357.058,90.9518 359.5,93.5C 361.095,96.6801 362.095,100.013 362.5,103.5C 358.597,96.6968 354.93,89.6968 351.5,82.5 Z"/></g>
<g><path style="opacity:1" fill="#e2cb71" d="M 136.5,80.5 C 135.524,81.8149 134.524,83.1482 133.5,84.5C 134.263,85.7193 135.263,86.7193 136.5,87.5C 136,88.5 135.5,89.5 135,90.5C 133.107,89.6734 130.941,89.6734 128.5,90.5C 127.675,94.1224 127.175,97.789 127,101.5C 124.62,103.427 123.453,105.927 123.5,109C 124.531,117.255 126.864,125.088 130.5,132.5C 128.177,129.865 126.344,126.865 125,123.5C 122.805,116.301 122.139,108.968 123,101.5C 124.173,92.1971 128.673,85.1971 136.5,80.5 Z"/></g>
<g><path style="opacity:0.224" fill="#949494" d="M 321.5,90.5 C 324.562,91.2678 326.228,93.2678 326.5,96.5C 323.923,95.3939 322.256,93.3939 321.5,90.5 Z"/></g>
<g><path style="opacity:0.067" fill="#9a9a9a" d="M 360.5,83.5 C 362.074,83.9371 363.241,84.9371 364,86.5C 366.153,91.1143 367.986,95.781 369.5,100.5C 368.624,100.631 367.957,100.298 367.5,99.5C 365.105,94.1334 362.772,88.8 360.5,83.5 Z"/></g>
<g><path style="opacity:0.809" fill="#2a2a2a" d="M 260.5,48.5 C 259.315,135.665 259.315,222.665 260.5,309.5C 260.5,309.833 260.5,310.167 260.5,310.5C 260.5,310.833 260.5,311.167 260.5,311.5C 258.732,307.956 257.898,303.956 258,299.5C 258.06,221.501 258.394,143.501 259,65.5C 259.173,59.6518 259.673,53.9851 260.5,48.5 Z"/></g>
<g><path style="opacity:0.206" fill="#adadad" d="M 326.5,96.5 C 329.728,99.069 331.728,102.402 332.5,106.5C 329.722,103.702 327.722,100.369 326.5,96.5 Z"/></g>
<g><path style="opacity:0.361" fill="#8f8f8f" d="M 312.5,93.5 C 315.771,96.0015 318.604,99.0015 321,102.5C 322.411,104.65 323.245,106.984 323.5,109.5C 322.624,109.631 321.957,109.298 321.5,108.5C 318.477,103.486 315.477,98.4857 312.5,93.5 Z"/></g>
<g><path style="opacity:0.129" fill="#b6b6b6" d="M 362.5,103.5 C 363.931,104.78 364.598,106.447 364.5,108.5C 363.069,107.22 362.402,105.553 362.5,103.5 Z"/></g>
<g><path style="opacity:0.173" fill="#929292" d="M 364.5,108.5 C 366.821,110.09 367.821,112.423 367.5,115.5C 365.166,113.824 364.166,111.491 364.5,108.5 Z"/></g>
<g><path style="opacity:0.094" fill="#bfbfbf" d="M 323.5,109.5 C 324.931,110.78 325.598,112.447 325.5,114.5C 324.069,113.22 323.402,111.553 323.5,109.5 Z"/></g>
<g><path style="opacity:0.247" fill="#7b7b7b" d="M 369.5,100.5 C 373.6,106.801 375.934,113.801 376.5,121.5C 374.203,117.802 372.369,113.802 371,109.5C 370.304,106.522 369.804,103.522 369.5,100.5 Z"/></g>
<g><path style="opacity:0.318" fill="#737272" d="M 115.5,111.5 C 116.117,111.611 116.617,111.944 117,112.5C 117.548,116.17 118.048,119.837 118.5,123.5C 116.658,119.841 115.658,115.841 115.5,111.5 Z"/></g>
<g><path style="opacity:0.407" fill="#acacac" d="M 260.5,31.5 C 260.833,31.5 261.167,31.5 261.5,31.5C 260.724,124.165 260.391,216.831 260.5,309.5C 259.315,222.665 259.315,135.665 260.5,48.5C 260.5,42.8333 260.5,37.1667 260.5,31.5 Z"/></g>
<g><path style="opacity:0.145" fill="#9a9a9a" d="M 325.5,114.5 C 326.75,114.577 327.583,115.244 328,116.5C 328.822,119.117 329.322,121.784 329.5,124.5C 327.215,121.665 325.882,118.332 325.5,114.5 Z"/></g>
<g><path style="opacity:1" fill="#756745" d="M 178.5,117.5 C 177.868,121.431 176.201,124.765 173.5,127.5C 174.038,125.883 174.371,124.216 174.5,122.5C 175.593,120.651 176.926,118.984 178.5,117.5 Z"/></g>
<g><path style="opacity:0.441" fill="#7d7d7d" d="M 369.5,123.5 C 370.586,123.62 371.253,124.287 371.5,125.5C 372.493,129.791 373.16,134.124 373.5,138.5C 372.833,138.5 372.167,138.5 371.5,138.5C 370.647,133.53 369.98,128.53 369.5,123.5 Z"/></g>
<g><path style="opacity:0.102" fill="#bcbcbc" d="M 376.5,121.5 C 378.568,124.763 379.568,128.43 379.5,132.5C 378.833,132.5 378.167,132.5 377.5,132.5C 376.886,128.865 376.552,125.198 376.5,121.5 Z"/></g>
<g><path style="opacity:0.098" fill="#706f70" d="M 118.5,124.5 C 119.167,125.167 119.833,125.833 120.5,126.5C 121.588,128.516 122.588,130.683 123.5,133C 123.252,134.749 122.252,135.582 120.5,135.5C 120.953,134.542 121.619,133.708 122.5,133C 120.218,130.603 118.884,127.769 118.5,124.5 Z"/></g>
<g><path style="opacity:0.357" fill="#7f7f7f" d="M 332.5,107.5 C 333.79,108.058 334.623,109.058 335,110.5C 338.09,120.464 338.256,130.464 335.5,140.5C 334.167,140.5 332.833,140.5 331.5,140.5C 330.886,136.865 330.552,133.198 330.5,129.5C 332.036,131.025 333.036,133.025 333.5,135.5C 334.676,132.619 335.343,129.619 335.5,126.5C 334.778,120.109 333.778,113.775 332.5,107.5 Z"/></g>
<g><path style="opacity:1" fill="#a99b66" d="M 137.5,139.5 C 141.78,140.675 145.78,142.342 149.5,144.5C 144.733,144.364 140.733,142.697 137.5,139.5 Z"/></g>
<g><path style="opacity:1" fill="#dfc875" d="M 174.5,122.5 C 174.371,124.216 174.038,125.883 173.5,127.5C 172.646,133.121 172.313,138.788 172.5,144.5C 164.685,145.709 157.018,145.709 149.5,144.5C 145.78,142.342 141.78,140.675 137.5,139.5C 136.833,139.5 136.5,139.167 136.5,138.5C 141.317,139.472 145.984,140.972 150.5,143C 157.158,143.5 163.825,143.666 170.5,143.5C 170.334,139.154 170.501,134.821 171,130.5C 171.85,127.591 173.017,124.924 174.5,122.5 Z"/></g>
<g><path style="opacity:0.345" fill="#7d7d7d" d="M 377.5,132.5 C 378.167,132.5 378.833,132.5 379.5,132.5C 380.805,141.846 380.805,151.179 379.5,160.5C 378.833,160.5 378.167,160.5 377.5,160.5C 378.799,151.162 378.799,141.829 377.5,132.5 Z"/></g>
<g><path style="opacity:0.058" fill="#cbcbcb" d="M 371.5,138.5 C 372.167,138.5 372.833,138.5 373.5,138.5C 373.5,145.167 373.5,151.833 373.5,158.5C 372.833,158.5 372.167,158.5 371.5,158.5C 371.5,151.833 371.5,145.167 371.5,138.5 Z"/></g>
<g><path style="opacity:0.71" fill="#5d5d5d" d="M 120.5,135.5 C 117.355,140.444 114.188,145.444 111,150.5C 108.175,158.733 107.842,167.066 110,175.5C 112.102,179.753 113.936,184.086 115.5,188.5C 107.395,179.424 104.562,168.758 107,156.5C 109.004,147.809 113.504,140.809 120.5,135.5 Z"/></g>
<g><path style="opacity:1" fill="#d1bd6e" d="M 185.5,165.5 C 184.178,165.67 183.011,165.337 182,164.5C 181.667,165.167 181.333,165.833 181,166.5C 178.763,162.934 176.597,159.267 174.5,155.5C 173.5,155 172.5,154.5 171.5,154C 172.337,152.989 172.67,151.822 172.5,150.5C 164.316,150.826 156.316,150.492 148.5,149.5C 156.851,149.29 165.184,149.123 173.5,149C 174.227,150.399 174.727,151.899 175,153.5C 178.3,157.636 181.8,161.636 185.5,165.5 Z"/></g>
<g><path style="opacity:0.879" fill="#60605f" d="M 244.5,36.5 C 245.167,37.1667 245.833,37.8333 246.5,38.5C 248.643,130.547 248.976,222.547 247.5,314.5C 246.833,314.833 246.167,315.167 245.5,315.5C 246.9,222.517 246.567,129.517 244.5,36.5 Z"/></g>
<g><path style="opacity:0.027" fill="#bdbdbd" d="M 377.5,160.5 C 378.167,160.5 378.833,160.5 379.5,160.5C 379.575,165.192 378.575,169.526 376.5,173.5C 376.739,169.158 377.073,164.824 377.5,160.5 Z"/></g>
<g><path style="opacity:0.141" fill="#818181" d="M 327.5,192.5 C 328.607,188.283 330.274,184.283 332.5,180.5C 333.496,177.203 333.663,173.869 333,170.5C 329.77,175.384 327.437,180.718 326,186.5C 324.412,188.59 322.578,190.257 320.5,191.5C 324.347,183.979 328.014,176.312 331.5,168.5C 332.689,167.571 334.022,167.238 335.5,167.5C 335.666,171.514 335.499,175.514 335,179.5C 333.147,183.385 331.48,187.385 330,191.5C 329.329,192.252 328.496,192.586 327.5,192.5 Z"/></g>
<g><path style="opacity:0.61" fill="#747474" d="M 371.5,158.5 C 372.167,158.5 372.833,158.5 373.5,158.5C 372.808,167.972 370.475,176.972 366.5,185.5C 366.043,186.298 365.376,186.631 364.5,186.5C 368.093,177.55 370.426,168.217 371.5,158.5 Z"/></g>
<g><path style="opacity:0.997" fill="#141414" d="M 327.5,192.5 C 324.752,193.475 322.752,195.308 321.5,198C 319.553,198.991 317.553,199.325 315.5,199C 318.166,197.167 319.832,194.667 320.5,191.5C 322.578,190.257 324.412,188.59 326,186.5C 327.437,180.718 329.77,175.384 333,170.5C 333.663,173.869 333.496,177.203 332.5,180.5C 330.274,184.283 328.607,188.283 327.5,192.5 Z"/></g>
<g><path style="opacity:0.183" fill="#8a8a8a" d="M 376.5,173.5 C 375.828,177.188 374.995,180.855 374,184.5C 371.292,190.829 368.126,196.829 364.5,202.5C 367.222,194.059 370.222,185.725 373.5,177.5C 374.172,175.84 375.172,174.507 376.5,173.5 Z"/></g>
<g><path style="opacity:0.227" fill="#88888c" d="M 115.5,188.5 C 119.104,190.288 121.77,192.955 123.5,196.5C 119.833,194.833 117.167,192.167 115.5,188.5 Z"/></g>
<g><path style="opacity:0.144" fill="#838383" d="M 364.5,186.5 C 364.662,188.527 364.495,190.527 364,192.5C 362.038,194.864 360.538,197.531 359.5,200.5C 359.043,201.298 358.376,201.631 357.5,201.5C 359.067,196.039 361.4,191.039 364.5,186.5 Z"/></g>
<g><path style="opacity:0.095" fill="#a7a7a7" d="M 320.5,191.5 C 319.832,194.667 318.166,197.167 315.5,199C 317.553,199.325 319.553,198.991 321.5,198C 322.752,195.308 324.752,193.475 327.5,192.5C 327.249,194.17 326.582,195.67 325.5,197C 323.194,199.139 320.527,200.639 317.5,201.5C 315.734,201.566 314.734,200.732 314.5,199C 316.35,196.323 318.35,193.823 320.5,191.5 Z"/></g>
<g><path style="opacity:0.231" fill="#969597" d="M 123.5,196.5 C 127.425,197.579 130.758,199.579 133.5,202.5C 129.207,202.023 125.873,200.023 123.5,196.5 Z"/></g>
<g><path style="opacity:1" fill="#d2be72" d="M 121.5,186.5 C 125.582,188.742 129.248,191.576 132.5,195C 136.23,195.411 139.564,196.744 142.5,199C 147.167,199.167 151.833,199.333 156.5,199.5C 164.532,199.022 172.532,198.355 180.5,197.5C 175.869,199.716 170.869,200.883 165.5,201C 157.458,201.723 149.458,201.39 141.5,200C 133.353,197.685 126.686,193.185 121.5,186.5 Z"/></g>
<g><path style="opacity:1" fill="#887c57" d="M 184.5,199.5 C 182.967,201.245 180.967,202.245 178.5,202.5C 180.033,200.755 182.033,199.755 184.5,199.5 Z"/></g>
<g><path style="opacity:0.051" fill="#d5d8d8" d="M 133.5,202.5 C 134.5,202.5 135.5,202.5 136.5,202.5C 136.768,204.099 136.434,205.432 135.5,206.5C 135.473,204.801 134.806,203.467 133.5,202.5 Z"/></g>
<g><path style="opacity:1" fill="#ab9d67" d="M 171.5,203.5 C 168.797,204.963 165.797,205.796 162.5,206C 157.316,206.816 152.316,206.65 147.5,205.5C 155.572,205.597 163.572,204.93 171.5,203.5 Z"/></g>
<g><path style="opacity:0.204" fill="#9d9d9d" d="M 357.5,201.5 C 356.723,205.408 354.723,208.408 351.5,210.5C 352.723,206.951 354.723,203.951 357.5,201.5 Z"/></g>
<g><path style="opacity:0.129" fill="#9b9b9b" d="M 364.5,202.5 C 364.316,205.337 362.982,207.337 360.5,208.5C 360.347,205.465 361.68,203.465 364.5,202.5 Z"/></g>
<g><path style="opacity:0.525" fill="#adb2af" d="M 135.5,207.5 C 135.923,209.781 135.256,211.448 133.5,212.5C 133.12,210.302 133.787,208.635 135.5,207.5 Z"/></g>
<g><path style="opacity:0.641" fill="#565656" d="M 254.5,23.5 C 254.833,23.5 255.167,23.5 255.5,23.5C 254.91,24.766 254.41,26.0993 254,27.5C 253.431,119.197 253.931,210.864 255.5,302.5C 254.833,301.833 254.167,301.167 253.5,300.5C 252.447,209.849 251.947,119.183 252,28.5C 252.05,26.256 252.883,24.5893 254.5,23.5 Z"/></g>
<g><path style="opacity:0.573" fill="#8e8e8e" d="M 351.5,210.5 C 351.435,214.107 349.769,216.44 346.5,217.5C 347.01,214.326 348.677,211.992 351.5,210.5 Z"/></g>
<g><path style="opacity:0.284" fill="#9e9e9e" d="M 346.5,217.5 C 344.588,221.417 342.255,225.083 339.5,228.5C 337.833,229.833 336.167,231.167 334.5,232.5C 337.747,226.917 341.747,221.917 346.5,217.5 Z"/></g>
<g><path style="opacity:0.031" fill="#9e9e9e" d="M 360.5,208.5 C 359.648,211.223 358.481,213.89 357,216.5C 354.141,219.616 351.308,222.616 348.5,225.5C 351.048,220.273 354.048,215.273 357.5,210.5C 358.357,209.575 359.357,208.908 360.5,208.5 Z"/></g>
<g><path style="opacity:0.345" fill="#afacad" d="M 133.5,214.5 C 134.791,218.601 134.791,222.601 133.5,226.5C 132.167,222.5 132.167,218.5 133.5,214.5 Z"/></g>
<g><path style="opacity:1" fill="#27241e" d="M 240.5,99.5 C 240.833,99.5 241.167,99.5 241.5,99.5C 242.163,170.841 241.497,241.841 239.5,312.5C 240.497,241.571 240.83,170.571 240.5,99.5 Z"/></g>
<g><path style="opacity:1" fill="#696244" d="M 219.5,217.5 C 219.806,220.385 219.473,223.052 218.5,225.5C 218.817,222.428 218.484,219.428 217.5,216.5C 216.748,220.192 215.914,223.858 215,227.5C 214.617,228.056 214.117,228.389 213.5,228.5C 215.064,224.326 215.731,219.993 215.5,215.5C 217.483,215.157 218.817,215.824 219.5,217.5 Z"/></g>
<g><path style="opacity:1" fill="#b7a76d" d="M 219.5,217.5 C 221.558,224.207 220.225,230.207 215.5,235.5C 216.503,232.15 217.503,228.817 218.5,225.5C 219.473,223.052 219.806,220.385 219.5,217.5 Z"/></g>
<g><path style="opacity:0.851" fill="#4e4e4e" d="M 339.5,228.5 C 338.095,232.236 335.429,234.569 331.5,235.5C 331.5,233.5 332.5,232.5 334.5,232.5C 336.167,231.167 337.833,229.833 339.5,228.5 Z"/></g>
<g><path style="opacity:0.027" fill="#a4a4a4" d="M 348.5,225.5 C 348.291,226.922 347.791,228.255 347,229.5C 340.272,237.056 333.439,244.39 326.5,251.5C 326.351,250.448 326.517,249.448 327,248.5C 332.231,241.992 337.898,235.992 344,230.5C 344.312,227.691 345.812,226.024 348.5,225.5 Z"/></g>
<g><path style="opacity:0.527" fill="#8e8e8e" d="M 133.5,229.5 C 137.288,234.475 139.954,240.141 141.5,246.5C 139.381,245.014 137.881,243.014 137,240.5C 135.705,236.785 134.538,233.118 133.5,229.5 Z"/></g>
<g><path style="opacity:0.718" fill="#676767" d="M 331.5,235.5 C 331.116,239.555 329.116,242.555 325.5,244.5C 325.833,243.167 326.167,241.833 326.5,240.5C 328.167,238.833 329.833,237.167 331.5,235.5 Z"/></g>
<g><path style="opacity:1" fill="#d0b86f" d="M 215.5,235.5 C 215.657,236.873 215.49,238.207 215,239.5C 212.537,241.701 210.703,244.367 209.5,247.5C 207.955,248.452 206.288,248.785 204.5,248.5C 208.572,244.435 212.238,240.102 215.5,235.5 Z"/></g>
<g><path style="opacity:0.078" fill="#b2b2b2" d="M 326.5,240.5 C 326.167,241.833 325.833,243.167 325.5,244.5C 324.135,246.86 322.135,248.527 319.5,249.5C 321.458,246.208 323.791,243.208 326.5,240.5 Z"/></g>
<g><path style="opacity:0.278" fill="#b4b5b5" d="M 141.5,246.5 C 144.144,247.144 145.811,248.811 146.5,251.5C 144.184,250.578 142.517,248.911 141.5,246.5 Z"/></g>
<g><path style="opacity:1" fill="#e2ca74" d="M 151.5,243.5 C 153.391,244.536 155.224,244.536 157,243.5C 157.309,244.766 157.809,245.933 158.5,247C 161.5,247.333 164.5,247.667 167.5,248C 167.957,248.414 168.291,248.914 168.5,249.5C 174.128,250.495 179.794,250.829 185.5,250.5C 185.5,250.833 185.5,251.167 185.5,251.5C 179.536,252.307 173.536,252.64 167.5,252.5C 161.302,251.067 155.969,248.067 151.5,243.5 Z"/></g>
<g><path style="opacity:1" fill="#4e4938" d="M 185.5,251.5 C 182.305,253.03 178.805,253.696 175,253.5C 172.31,253.497 169.81,253.164 167.5,252.5C 173.536,252.64 179.536,252.307 185.5,251.5 Z"/></g>
<g><path style="opacity:0.11" fill="#9d9d9d" d="M 325.5,252.5 C 324.927,255.407 323.261,257.407 320.5,258.5C 320.712,255.288 322.379,253.288 325.5,252.5 Z"/></g>
<g><path style="opacity:0.314" fill="#969696" d="M 146.5,251.5 C 150.408,252.277 153.408,254.277 155.5,257.5C 151.678,256.669 148.678,254.669 146.5,251.5 Z"/></g>
<g><path style="opacity:0.482" fill="#747474" d="M 319.5,249.5 C 314.945,256.147 311.278,263.147 308.5,270.5C 309.114,261.89 312.78,254.89 319.5,249.5 Z"/></g>
<g><path style="opacity:0.012" fill="#a8a8a8" d="M 155.5,257.5 C 158.393,257.031 160.393,258.031 161.5,260.5C 159.456,259.492 157.456,258.492 155.5,257.5 Z"/></g>
<g><path style="opacity:0.227" fill="#999999" d="M 320.5,258.5 C 320.316,261.337 318.982,263.337 316.5,264.5C 316.5,264.167 316.5,263.833 316.5,263.5C 316.67,260.796 318.003,259.129 320.5,258.5 Z"/></g>
<g><path style="opacity:0.314" fill="#9fa09f" d="M 190.5,269.5 C 188.906,266.939 187.906,263.939 187.5,260.5C 179.027,263.096 170.694,263.096 162.5,260.5C 170.883,260.907 179.383,260.24 188,258.5C 188.772,258.645 189.439,258.978 190,259.5C 190.498,262.817 190.665,266.15 190.5,269.5 Z"/></g>
<g><path style="opacity:1" fill="#8e8359" d="M 193.5,263.5 C 195.667,268.83 196.667,274.497 196.5,280.5C 196.167,280.5 195.833,280.5 195.5,280.5C 195.02,274.809 194.354,269.142 193.5,263.5 Z"/></g>
<g><path style="opacity:0.008" fill="#dddddd" d="M 316.5,264.5 C 316.198,267.373 315.531,270.039 314.5,272.5C 314.111,269.447 314.777,266.78 316.5,264.5 Z"/></g>
<g><path style="opacity:0.318" fill="#606060" d="M 316.5,263.5 C 316.5,263.833 316.5,264.167 316.5,264.5C 314.777,266.78 314.111,269.447 314.5,272.5C 314.756,276.269 314.423,279.936 313.5,283.5C 312.833,283.833 312.167,284.167 311.5,284.5C 311.889,279.496 312.389,274.496 313,269.5C 313.008,266.655 314.175,264.655 316.5,263.5 Z"/></g>
<g><path style="opacity:0.137" fill="#bababa" d="M 307.5,282.5 C 307.975,285.082 307.308,287.082 305.5,288.5C 305.054,285.99 305.72,283.99 307.5,282.5 Z"/></g>
<g><path style="opacity:0.135" fill="#b4b4b4" d="M 313.5,283.5 C 313.946,289.245 312.946,294.579 310.5,299.5C 310.916,294.507 311.249,289.507 311.5,284.5C 312.167,284.167 312.833,283.833 313.5,283.5 Z"/></g>
<g><path style="opacity:1" fill="#4a4432" d="M 195.5,280.5 C 195.833,280.5 196.167,280.5 196.5,280.5C 197.22,286.138 197.553,291.804 197.5,297.5C 196.263,292.04 195.596,286.373 195.5,280.5 Z"/></g>
<g><path style="opacity:0.796" fill="#6e706d" d="M 191.5,292.5 C 192.167,292.5 192.833,292.5 193.5,292.5C 193.121,298.44 194.121,304.107 196.5,309.5C 195.206,308.71 194.039,307.71 193,306.5C 191.775,301.915 191.275,297.248 191.5,292.5 Z"/></g>
<g><path style="opacity:0.514" fill="#8e8e8e" d="M 305.5,291.5 C 306.957,296.127 305.957,300.127 302.5,303.5C 303.213,299.313 304.213,295.313 305.5,291.5 Z"/></g>
<g><path style="opacity:1" fill="#a29563" d="M 201.5,304.5 C 206.197,306.848 210.863,309.182 215.5,311.5C 209.703,311.268 205.037,308.935 201.5,304.5 Z"/></g>
<g><path style="opacity:0.227" fill="#909090" d="M 302.5,303.5 C 302.68,307.656 300.68,309.99 296.5,310.5C 298.273,307.94 300.273,305.607 302.5,303.5 Z"/></g>
<g><path style="opacity:0.443" fill="#7f7f7f" d="M 260.5,310.5 C 262.039,311.767 263.706,312.767 265.5,313.5C 264.399,314.598 263.066,314.765 261.5,314C 260.748,313.329 260.414,312.496 260.5,311.5C 260.5,311.167 260.5,310.833 260.5,310.5 Z"/></g>
<g><path style="opacity:0.159" fill="#979797" d="M 296.5,310.5 C 296.586,311.496 296.252,312.329 295.5,313C 289.687,314.949 283.687,315.782 277.5,315.5C 273.435,315.489 269.768,314.822 266.5,313.5C 273.841,313.666 281.174,313.5 288.5,313C 291.279,312.439 293.946,311.606 296.5,310.5 Z"/></g>
<g><path style="opacity:0.098" fill="#737373" d="M 253.5,300.5 C 254.167,301.167 254.833,301.833 255.5,302.5C 253.607,311.061 256.607,316.727 264.5,319.5C 261.018,319.873 258.018,318.873 255.5,316.5C 253.735,311.331 253.068,305.998 253.5,300.5 Z"/></g>
<g><path style="opacity:0.043" fill="#969696" d="M 310.5,299.5 C 309.992,306.349 306.992,311.849 301.5,316C 299.35,317.411 297.016,318.245 294.5,318.5C 298.208,315.873 301.708,312.873 305,309.5C 306.004,305.603 307.837,302.269 310.5,299.5 Z"/></g>
<g><path style="opacity:0.404" fill="#767679" d="M 196.5,309.5 C 200.803,311.067 204.97,313.067 209,315.5C 211.099,316.287 213.266,316.62 215.5,316.5C 215.5,317.167 215.5,317.833 215.5,318.5C 207.455,318.726 201.121,315.726 196.5,309.5 Z"/></g>
<g><path style="opacity:0.867" fill="#979796" d="M 247.5,314.5 C 246.15,318.025 243.484,319.858 239.5,320C 233.984,320.817 228.65,320.651 223.5,319.5C 227.846,319.666 232.179,319.499 236.5,319C 237.737,318.768 238.737,318.268 239.5,317.5C 241.703,317.396 243.703,316.73 245.5,315.5C 246.167,315.167 246.833,314.833 247.5,314.5 Z"/></g>
<g><path style="opacity:0.759" fill="#434343" d="M 215.5,316.5 C 223.414,317.467 231.414,317.801 239.5,317.5C 238.737,318.268 237.737,318.768 236.5,319C 232.179,319.499 227.846,319.666 223.5,319.5C 220.615,319.806 217.948,319.473 215.5,318.5C 215.5,317.833 215.5,317.167 215.5,316.5 Z"/></g>
<g><path style="opacity:0.178" fill="#c6c6c6" d="M 294.5,318.5 C 292.958,319.163 291.291,319.83 289.5,320.5C 285.5,320.833 281.5,321.167 277.5,321.5C 273.107,321.491 269.107,320.824 265.5,319.5C 275.191,319.658 284.857,319.325 294.5,318.5 Z"/></g>
<g><path style="opacity:0.294" fill="#4a4a4a" d="M 205.5,324.5 C 234.997,323.336 264.664,323.169 294.5,324C 297.019,325.338 298.353,327.504 298.5,330.5C 298.332,332.171 297.665,333.504 296.5,334.5C 297.296,330.316 295.963,327.15 292.5,325C 263.502,324.5 234.502,324.333 205.5,324.5 Z"/></g>
<g><path style="opacity:1" fill="#161616" d="M 205.5,324.5 C 234.502,324.333 263.502,324.5 292.5,325C 295.963,327.15 297.296,330.316 296.5,334.5C 295.653,335.966 294.32,336.8 292.5,337C 263.761,337.824 235.095,337.658 206.5,336.5C 202.894,332.84 202.561,328.84 205.5,324.5 Z"/></g>
<g><path style="opacity:0.624" fill="#686868" d="M 205.5,324.5 C 202.561,328.84 202.894,332.84 206.5,336.5C 201.338,334.303 200.171,330.636 203,325.5C 203.671,324.748 204.504,324.414 205.5,324.5 Z"/></g>
<g><path style="opacity:0.93" fill="#191919" d="M 206.5,339.5 C 236.169,339.333 265.835,339.5 295.5,340C 297.037,341.11 297.703,342.61 297.5,344.5C 296.005,344.585 295.005,343.919 294.5,342.5C 264.841,341.5 235.174,341.167 205.5,341.5C 205.833,340.833 206.167,340.167 206.5,339.5 Z"/></g>
<g><path style="opacity:0.964" fill="#020202" d="M 205.5,341.5 C 235.174,341.167 264.841,341.5 294.5,342.5C 295.005,343.919 296.005,344.585 297.5,344.5C 298.833,345.833 298.833,347.167 297.5,348.5C 295.323,349.279 293.656,350.613 292.5,352.5C 263.833,352.5 235.167,352.5 206.5,352.5C 202.98,349.064 202.646,345.397 205.5,341.5 Z"/></g>
<g><path style="opacity:0.612" fill="#6c6c6c" d="M 206.5,339.5 C 206.167,340.167 205.833,340.833 205.5,341.5C 202.646,345.397 202.98,349.064 206.5,352.5C 201.338,350.303 200.171,346.636 203,341.5C 203.816,340.177 204.983,339.511 206.5,339.5 Z"/></g>
<g><path style="opacity:0.663" fill="#5e5e5e" d="M 297.5,348.5 C 297.033,351.297 295.367,352.631 292.5,352.5C 293.656,350.613 295.323,349.279 297.5,348.5 Z"/></g>
<g><path style="opacity:0.939" fill="#010101" d="M 275.5,356.5 C 278.5,356.5 281.5,356.5 284.5,356.5C 283.415,360.76 282.748,365.094 282.5,369.5C 282.5,370.5 282.5,371.5 282.5,372.5C 261.5,372.5 240.5,372.5 219.5,372.5C 217.833,367.167 216.167,361.833 214.5,356.5C 234.684,356.46 255.018,356.46 275.5,356.5 Z"/></g>
<g><path style="opacity:0.345" fill="#595959" d="M 214.5,356.5 C 216.167,361.833 217.833,367.167 219.5,372.5C 218.25,372.423 217.417,371.756 217,370.5C 215.599,366.129 214.099,361.796 212.5,357.5C 212.957,356.702 213.624,356.369 214.5,356.5 Z"/></g>
<g><path style="opacity:0.741" fill="#767676" d="M 275.5,356.5 C 278.962,355.518 282.629,355.185 286.5,355.5C 286.15,360.54 284.816,365.206 282.5,369.5C 282.748,365.094 283.415,360.76 284.5,356.5C 281.5,356.5 278.5,356.5 275.5,356.5 Z"/></g>
<g><path style="opacity:0.831" fill="#000000" d="M 14.5,388.5 C 16.679,388.84 18.5123,389.84 20,391.5C 25.0075,398.003 30.1742,404.336 35.5,410.5C 41.2859,403.759 46.9526,396.926 52.5,390C 54.6806,387.922 56.6806,388.089 58.5,390.5C 59.8333,406.167 59.8333,421.833 58.5,437.5C 56.3052,438.769 54.1385,438.769 52,437.5C 51.6667,426.167 51.3333,414.833 51,403.5C 46.952,407.88 43.2853,412.546 40,417.5C 36.3513,421.598 33.018,421.265 30,416.5C 26.9088,411.986 23.5755,407.653 20,403.5C 19.6667,414.5 19.3333,425.5 19,436.5C 16.975,438.725 14.6417,439.059 12,437.5C 11.3333,421.833 11.3333,406.167 12,390.5C 12.9947,389.934 13.828,389.267 14.5,388.5 Z"/></g>
<g><path style="opacity:0.894" fill="#000000" d="M 72.5,388.5 C 82.5056,388.334 92.5056,388.5 102.5,389C 105.473,390.224 106.14,392.224 104.5,395C 95.5062,395.5 86.5062,395.666 77.5,395.5C 77.5,400.5 77.5,405.5 77.5,410.5C 84.5079,410.334 91.5079,410.5 98.5,411C 100.032,413.33 99.6983,415.33 97.5,417C 90.8417,417.5 84.175,417.666 77.5,417.5C 77.5,422.167 77.5,426.833 77.5,431.5C 85.84,431.334 94.1733,431.5 102.5,432C 105.473,433.224 106.14,435.224 104.5,438C 93.2569,438.82 82.0902,438.653 71,437.5C 70.8333,429.5 70.6667,421.5 70.5,413.5C 70.5305,404.935 71.1972,396.601 72.5,388.5 Z"/></g>
<g><path style="opacity:0.856" fill="#000000" d="M 115.5,388.5 C 118.614,389.091 121.114,390.758 123,393.5C 131,403.5 139,413.5 147,423.5C 147.333,412.5 147.667,401.5 148,390.5C 150.333,387.833 152.667,387.833 155,390.5C 155.667,405.833 155.667,421.167 155,436.5C 153.303,440.039 151.137,440.373 148.5,437.5C 139.523,426.022 130.356,414.689 121,403.5C 120.667,414.833 120.333,426.167 120,437.5C 118,438.833 116,438.833 114,437.5C 113.833,429.5 113.667,421.5 113.5,413.5C 113.53,404.935 114.197,396.601 115.5,388.5 Z"/></g>
<g><path style="opacity:0.806" fill="#000000" d="M 163.5,388.5 C 175.171,388.333 186.838,388.5 198.5,389C 200.602,390.733 200.935,392.733 199.5,395C 194.628,396.388 189.628,396.888 184.5,396.5C 184.667,410.171 184.5,423.837 184,437.5C 181.358,439.059 179.025,438.725 177,436.5C 176.5,423.171 176.333,409.837 176.5,396.5C 171.372,396.888 166.372,396.388 161.5,395C 159.933,392.094 160.6,389.928 163.5,388.5 Z"/></g>
<g><path style="opacity:0.887" fill="#000000" d="M 208.5,388.5 C 218.839,388.334 229.172,388.5 239.5,389C 241.602,390.733 241.935,392.733 240.5,395C 231.506,395.5 222.506,395.666 213.5,395.5C 213.5,400.5 213.5,405.5 213.5,410.5C 220.863,410.169 228.197,410.503 235.5,411.5C 236.61,413.496 236.276,415.329 234.5,417C 227.508,417.5 220.508,417.666 213.5,417.5C 213.5,422.167 213.5,426.833 213.5,431.5C 222.173,431.334 230.84,431.5 239.5,432C 241.698,433.67 242.032,435.67 240.5,438C 229.257,438.82 218.09,438.653 207,437.5C 206.333,421.833 206.333,406.167 207,390.5C 207.717,389.956 208.217,389.289 208.5,388.5 Z"/></g>
<g><path style="opacity:0.828" fill="#000000" d="M 276.5,388.5 C 284.461,387.046 291.294,389.046 297,394.5C 297.667,396.167 297.667,397.833 297,399.5C 296.275,400.059 295.442,400.392 294.5,400.5C 290.909,397.924 286.909,396.258 282.5,395.5C 275.425,396.501 273.759,400.001 277.5,406C 283.779,408.473 289.779,411.473 295.5,415C 302.833,426.33 300.167,434.33 287.5,439C 277.396,441.422 270.063,438.089 265.5,429C 266.443,426.019 268.443,425.019 271.5,426C 277.264,433.224 283.764,434.057 291,428.5C 291.667,426.167 291.667,423.833 291,421.5C 285.064,417.96 278.897,414.793 272.5,412C 267.393,407.002 266.227,401.168 269,394.5C 271.114,391.879 273.614,389.879 276.5,388.5 Z"/></g>
<g><path style="opacity:0.831" fill="#000000" d="M 311.5,388.5 C 314.195,388.933 316.362,390.266 318,392.5C 322.623,398.792 327.623,404.792 333,410.5C 338.5,403.667 344,396.833 349.5,390C 351.785,388.046 353.952,388.213 356,390.5C 356.824,406.408 356.657,422.241 355.5,438C 352.937,438.918 350.77,438.418 349,436.5C 348.667,425.5 348.333,414.5 348,403.5C 344.425,407.653 341.091,411.986 338,416.5C 335.6,420.687 332.6,421.354 329,418.5C 325.24,413.317 321.24,408.317 317,403.5C 316.667,414.833 316.333,426.167 316,437.5C 313.861,438.769 311.695,438.769 309.5,437.5C 308.35,422.211 308.183,406.878 309,391.5C 309.698,390.309 310.531,389.309 311.5,388.5 Z"/></g>
<g><path style="opacity:0.843" fill="#000000" d="M 383.5,388.5 C 385.484,388.383 387.15,389.05 388.5,390.5C 395.109,405.385 401.442,420.385 407.5,435.5C 405.808,439.609 403.308,440.275 400,437.5C 398.963,434.595 397.796,431.761 396.5,429C 388.833,428.333 381.167,428.333 373.5,429C 372.167,432 370.833,435 369.5,438C 366.407,439.026 364.073,438.193 362.5,435.5C 368.744,419.358 375.744,403.692 383.5,388.5 Z M 384.5,400.5 C 387.865,406.897 390.865,413.564 393.5,420.5C 387.833,421.833 382.167,421.833 376.5,420.5C 379.733,414.037 382.4,407.371 384.5,400.5 Z"/></g>
<g><path style="opacity:0.883" fill="#000000" d="M 416.5,388.5 C 422.176,388.334 427.843,388.501 433.5,389C 447.891,392.616 452.724,401.45 448,415.5C 445.984,417.684 443.817,419.684 441.5,421.5C 444.528,425.361 447.361,429.361 450,433.5C 450.728,438.047 448.894,439.714 444.5,438.5C 440.712,433.756 437.045,428.923 433.5,424C 429.514,423.501 425.514,423.334 421.5,423.5C 421.666,428.179 421.499,432.845 421,437.5C 419,438.833 417,438.833 415,437.5C 414.833,429.5 414.667,421.5 414.5,413.5C 414.53,404.935 415.197,396.601 416.5,388.5 Z M 421.5,395.5 C 427.362,395.152 433.028,395.985 438.5,398C 444.103,404.04 443.769,409.707 437.5,415C 432.264,416.339 426.93,416.839 421.5,416.5C 421.5,409.5 421.5,402.5 421.5,395.5 Z"/></g>
<g><path style="opacity:0.808" fill="#000000" d="M 455.5,388.5 C 467.171,388.333 478.838,388.5 490.5,389C 493.473,390.224 494.14,392.224 492.5,395C 487.599,396.325 482.599,396.825 477.5,396.5C 477.781,410.536 477.448,424.536 476.5,438.5C 474.208,438.756 472.041,438.423 470,437.5C 469.5,423.837 469.333,410.171 469.5,396.5C 464.372,396.888 459.372,396.388 454.5,395C 453.144,392.586 453.478,390.419 455.5,388.5 Z"/></g>
</svg>
