<?xml version="1.0" encoding="UTF-8"?>
<!DOCTYPE svg PUBLIC "-//W3C//DTD SVG 1.1//EN" "http://www.w3.org/Graphics/SVG/1.1/DTD/svg11.dtd">
<svg xmlns="http://www.w3.org/2000/svg" version="1.1" width="500px" height="500px" style="shape-rendering:geometricPrecision; text-rendering:geometricPrecision; image-rendering:optimizeQuality; fill-rule:evenodd; clip-rule:evenodd" xmlns:xlink="http://www.w3.org/1999/xlink">
<g><path style="opacity:0.298" fill="#717171" d="M 181.5,20.5 C 179.91,22.821 177.577,23.821 174.5,23.5C 176.428,21.7061 178.762,20.7061 181.5,20.5 Z"/></g>
<g><path style="opacity:0.414" fill="#6c6c6c" d="M 199.5,22.5 C 199.167,22.5 198.833,22.5 198.5,22.5C 193.002,22.0475 187.669,21.3809 182.5,20.5C 186.311,19.3547 190.311,19.1881 194.5,20C 196.744,20.0496 198.411,20.8829 199.5,22.5 Z"/></g>
<g><path style="opacity:0.996" fill="#f1f1f1" d="M 286.5,25.5 C 287.833,25.5 289.167,25.5 290.5,25.5C 291.959,25.4326 293.292,25.7659 294.5,26.5C 302.232,30.5172 310.232,34.1838 318.5,37.5C 318.833,37.5 319.167,37.5 319.5,37.5C 322.239,42.2222 326.239,45.5555 331.5,47.5C 332.167,47.5 332.5,47.8333 332.5,48.5C 333.28,51.5531 335.28,53.2197 338.5,53.5C 339.5,55.8333 341.167,57.5 343.5,58.5C 344.226,61.2878 345.893,63.2878 348.5,64.5C 348.762,67.6987 350.428,69.6987 353.5,70.5C 353.833,71.1667 354.167,71.8333 354.5,72.5C 355.32,74.8123 356.153,77.1457 357,79.5C 358.952,82.4406 361.118,85.1073 363.5,87.5C 363.077,89.7812 363.744,91.4479 365.5,92.5C 366.338,92.8417 366.672,93.5084 366.5,94.5C 366.259,97.0336 367.259,98.7002 369.5,99.5C 369.77,105.987 371.77,111.654 375.5,116.5C 376.903,119.909 377.57,123.575 377.5,127.5C 377.5,128.833 377.5,130.167 377.5,131.5C 378.528,140.518 378.528,149.518 377.5,158.5C 377.5,160.833 377.5,163.167 377.5,165.5C 377.678,169.122 377.011,172.456 375.5,175.5C 374.503,175.47 373.836,175.97 373.5,177C 372.594,179.791 371.927,182.624 371.5,185.5C 371.5,185.833 371.5,186.167 371.5,186.5C 370.069,187.78 369.402,189.447 369.5,191.5C 368.624,191.369 367.957,191.702 367.5,192.5C 364.505,198.492 361.005,204.159 357,209.5C 355.716,212.53 354.549,215.53 353.5,218.5C 348.384,220.955 345.051,224.955 343.5,230.5C 343.5,231.167 343.167,231.5 342.5,231.5C 340.167,231.833 338.833,233.167 338.5,235.5C 338.672,236.492 338.338,237.158 337.5,237.5C 334.856,238.144 333.189,239.811 332.5,242.5C 331.094,242.973 330.427,243.973 330.5,245.5C 330.5,245.833 330.5,246.167 330.5,246.5C 328.095,247.687 325.761,249.187 323.5,251C 321.047,254.709 318.381,258.209 315.5,261.5C 314.4,263.277 313.566,265.277 313,267.5C 312.276,275.852 311.442,284.186 310.5,292.5C 309.992,296.197 309.326,299.864 308.5,303.5C 308.5,303.833 308.5,304.167 308.5,304.5C 306.065,305.27 304.731,306.937 304.5,309.5C 304.5,310.167 304.167,310.5 303.5,310.5C 299.946,311.769 296.946,313.769 294.5,316.5C 282.746,318.162 271.079,317.829 259.5,315.5C 258.119,314.119 256.785,312.785 255.5,311.5C 255.5,311.167 255.5,310.833 255.5,310.5C 256.069,306.671 255.402,303.337 253.5,300.5C 253.5,298.833 253.5,297.167 253.5,295.5C 254.477,274.879 254.81,254.213 254.5,233.5C 254.5,215.167 254.5,196.833 254.5,178.5C 253.824,128.167 253.657,77.8341 254,27.5C 254.309,26.2341 254.809,25.0674 255.5,24C 265.899,23.3185 276.232,23.8185 286.5,25.5 Z M 298.5,37.5 C 300.936,38.871 303.603,39.871 306.5,40.5C 306.833,40.5 307.167,40.5 307.5,40.5C 308.3,42.7409 309.966,43.7409 312.5,43.5C 313.659,45.2503 315.326,46.2503 317.5,46.5C 322.615,51.8649 328.282,56.5316 334.5,60.5C 335.614,63.4036 337.614,65.4036 340.5,66.5C 340.328,67.4916 340.662,68.1583 341.5,68.5C 341.833,70.8333 343.167,72.1667 345.5,72.5C 345.5,72.8333 345.5,73.1667 345.5,73.5C 348.871,78.2206 351.871,83.2206 354.5,88.5C 354.957,89.2975 355.624,89.6309 356.5,89.5C 357.512,94.1912 359.512,98.1912 362.5,101.5C 363.642,107.093 365.475,112.426 368,117.5C 369.235,123.508 370.402,129.508 371.5,135.5C 371.5,142.5 371.5,149.5 371.5,156.5C 371.5,158.167 371.5,159.833 371.5,161.5C 370.416,166.055 369.249,170.722 368,175.5C 364.832,184.853 360.999,193.853 356.5,202.5C 355.504,202.414 354.671,202.748 354,203.5C 353.345,205.628 352.511,207.628 351.5,209.5C 348.723,211.951 346.723,214.951 345.5,218.5C 343.167,218.833 341.833,220.167 341.5,222.5C 340.662,222.842 340.328,223.508 340.5,224.5C 338.5,225.167 337.167,226.5 336.5,228.5C 332.862,232.474 329.195,236.474 325.5,240.5C 324.4,241.605 323.733,242.938 323.5,244.5C 320.833,245.167 319.167,246.833 318.5,249.5C 318.167,250.167 317.833,250.833 317.5,251.5C 314.647,252.833 312.981,255.166 312.5,258.5C 309.433,261.015 308.099,264.349 308.5,268.5C 307.439,275.108 306.773,281.775 306.5,288.5C 306.5,289.167 306.5,289.833 306.5,290.5C 304.787,291.635 304.12,293.302 304.5,295.5C 304.5,295.833 304.5,296.167 304.5,296.5C 302.991,299.678 301.658,303.011 300.5,306.5C 297.558,308.217 294.391,309.55 291,310.5C 289.97,310.836 289.47,311.503 289.5,312.5C 281.833,312.5 274.167,312.5 266.5,312.5C 265.653,311.034 264.32,310.2 262.5,310C 261.748,309.329 261.414,308.496 261.5,307.5C 261.5,263.167 261.5,218.833 261.5,174.5C 261.5,161.5 261.5,148.5 261.5,135.5C 262.048,100.836 262.382,66.1692 262.5,31.5C 274.941,31.3849 286.941,33.3849 298.5,37.5 Z"/></g>
<g><path style="opacity:0.088" fill="#313131" d="M 286.5,23.5 C 288.38,23.2291 289.713,23.8958 290.5,25.5C 289.167,25.5 287.833,25.5 286.5,25.5C 286.5,24.8333 286.5,24.1667 286.5,23.5 Z"/></g>
<g><path style="opacity:0.227" fill="#929292" d="M 232.5,23.5 C 237.367,23.9333 241.367,25.9333 244.5,29.5C 239.867,28.4226 235.867,26.4226 232.5,23.5 Z"/></g>
<g><path style="opacity:0.298" fill="#7a7a7a" d="M 174.5,23.5 C 173.167,26.3528 170.834,28.0195 167.5,28.5C 168.833,25.6472 171.166,23.9805 174.5,23.5 Z"/></g>
<g><path style="opacity:0.388" fill="#7f7f7f" d="M 294.5,26.5 C 300.782,27.8042 306.782,29.9708 312.5,33C 315.106,33.7918 317.106,35.2918 318.5,37.5C 310.232,34.1838 302.232,30.5172 294.5,26.5 Z"/></g>
<g><path style="opacity:0.518" fill="#7d7d7d" d="M 185.5,28.5 C 178.584,30.9696 172.584,34.9696 167.5,40.5C 168.412,38.4048 169.579,36.4048 171,34.5C 174.462,31.5342 178.295,29.2008 182.5,27.5C 183.584,27.685 184.584,28.0183 185.5,28.5 Z"/></g>
<g><path style="opacity:0.649" fill="#9a9a9a" d="M 198.5,22.5 C 198.833,22.5 199.167,22.5 199.5,22.5C 203.23,22.8541 206.563,24.1874 209.5,26.5C 211.795,24.5201 214.461,23.3534 217.5,23C 222.684,22.1837 227.684,22.3503 232.5,23.5C 224.901,22.5414 217.901,24.0414 211.5,28C 214.22,28.0448 216.886,27.5448 219.5,26.5C 219.5,27.1667 219.5,27.8333 219.5,28.5C 212.429,32.367 205.429,32.367 198.5,28.5C 199.097,27.8614 199.93,27.528 201,27.5C 204.113,28.6575 207.28,29.1575 210.5,29C 206.142,27.0832 202.142,24.9165 198.5,22.5 Z"/></g>
<g><path style="opacity:0.475" fill="#888888" d="M 167.5,28.5 C 165.546,32.032 162.879,35.032 159.5,37.5C 161.022,33.436 163.689,30.436 167.5,28.5 Z"/></g>
<g><path style="opacity:0.235" fill="#515151" d="M 298.5,37.5 C 301.716,37.3455 304.383,38.3455 306.5,40.5C 303.603,39.871 300.936,38.871 298.5,37.5 Z"/></g>
<g><path style="opacity:0.322" fill="#838383" d="M 229.5,26.5 C 236.595,26.5176 241.261,29.6842 243.5,36C 243.392,37.6811 242.725,38.8478 241.5,39.5C 242.125,36.0295 241.125,33.1962 238.5,31C 235.568,29.8551 232.568,29.0218 229.5,28.5C 229.5,27.8333 229.5,27.1667 229.5,26.5 Z"/></g>
<g><path style="opacity:0.22" fill="#717171" d="M 167.5,41.5 C 166.299,43.9095 164.633,45.9095 162.5,47.5C 162.792,44.1991 164.459,42.1991 167.5,41.5 Z"/></g>
<g><path style="opacity:0.094" fill="#6f6f6f" d="M 307.5,40.5 C 310.034,40.2591 311.7,41.2591 312.5,43.5C 309.966,43.7409 308.3,42.7409 307.5,40.5 Z"/></g>
<g><path style="opacity:0.8" fill="#8f8f8f" d="M 159.5,37.5 C 158.615,41.8655 156.615,45.5322 153.5,48.5C 154.249,43.9911 156.249,40.3245 159.5,37.5 Z"/></g>
<g><path style="opacity:0.435" fill="#868686" d="M 244.5,29.5 C 246.268,33.0442 247.102,37.0442 247,41.5C 247.5,57.1631 247.667,72.8298 247.5,88.5C 246.669,74.6727 246.169,60.6727 246,46.5C 245.817,43.6353 245.317,40.9686 244.5,38.5C 244.5,35.5 244.5,32.5 244.5,29.5 Z"/></g>
<g><path style="opacity:0.086" fill="#515151" d="M 312.5,43.5 C 314.674,43.7497 316.341,44.7497 317.5,46.5C 315.326,46.2503 313.659,45.2503 312.5,43.5 Z"/></g>
<g><path style="opacity:0.404" fill="#939393" d="M 319.5,37.5 C 323.222,39.053 326.555,41.2197 329.5,44C 330.823,44.8159 331.489,45.9826 331.5,47.5C 326.239,45.5555 322.239,42.2222 319.5,37.5 Z"/></g>
<g><path style="opacity:0.349" fill="#909090" d="M 162.5,47.5 C 161.87,51.0477 160.87,54.3811 159.5,57.5C 158.339,54.4289 158.673,51.4289 160.5,48.5C 160.957,47.7025 161.624,47.3691 162.5,47.5 Z"/></g>
<g><path style="opacity:0.404" fill="#8c8c8c" d="M 332.5,48.5 C 335.712,48.7124 337.712,50.3791 338.5,53.5C 335.28,53.2197 333.28,51.5531 332.5,48.5 Z"/></g>
<g><path style="opacity:0.165" fill="#868686" d="M 317.5,46.5 C 319.308,46.4914 320.975,46.9914 322.5,48C 326.617,51.15 330.451,54.65 334,58.5C 334.464,59.0944 334.631,59.7611 334.5,60.5C 328.282,56.5316 322.615,51.8649 317.5,46.5 Z"/></g>
<g><path style="opacity:0.165" fill="#606060" d="M 338.5,53.5 C 341.167,54.1667 342.833,55.8333 343.5,58.5C 341.167,57.5 339.5,55.8333 338.5,53.5 Z"/></g>
<g><path style="opacity:0.999" fill="#f8f8f8" d="M 232.5,23.5 C 235.867,26.4226 239.867,28.4226 244.5,29.5C 244.5,32.5 244.5,35.5 244.5,38.5C 246.603,130.172 246.937,221.839 245.5,313.5C 229.345,317.064 214.011,315.064 199.5,307.5C 197.954,304.368 195.954,301.702 193.5,299.5C 193.5,296.167 193.5,292.833 193.5,289.5C 193.334,282.159 193.5,274.826 194,267.5C 194.333,269.5 194.667,271.5 195,273.5C 195.383,274.056 195.883,274.389 196.5,274.5C 196.5,275.833 196.5,277.167 196.5,278.5C 196.198,281.059 196.532,283.393 197.5,285.5C 197.5,288.167 197.5,290.833 197.5,293.5C 197.687,295.564 198.187,297.564 199,299.5C 199.671,300.252 200.504,300.586 201.5,300.5C 202.215,302.755 203.548,304.588 205.5,306C 210.773,307.488 216.107,308.654 221.5,309.5C 227.5,309.5 233.5,309.5 239.5,309.5C 241.22,241.168 242.22,172.501 242.5,103.5C 242.818,86.423 242.485,69.423 241.5,52.5C 241.5,48.1667 241.5,43.8333 241.5,39.5C 242.725,38.8478 243.392,37.6811 243.5,36C 241.261,29.6842 236.595,26.5176 229.5,26.5C 226.167,26.5 222.833,26.5 219.5,26.5C 216.886,27.5448 214.22,28.0448 211.5,28C 217.901,24.0414 224.901,22.5414 232.5,23.5 Z"/></g>
<g><path style="opacity:0.048" fill="#2d2d2d" d="M 219.5,26.5 C 222.833,26.5 226.167,26.5 229.5,26.5C 229.5,27.1667 229.5,27.8333 229.5,28.5C 226.167,28.5 222.833,28.5 219.5,28.5C 219.5,27.8333 219.5,27.1667 219.5,26.5 Z"/></g>
<g><path style="opacity:0.063" fill="#767676" d="M 343.5,58.5 C 345.914,59.9108 347.581,61.9108 348.5,64.5C 345.893,63.2878 344.226,61.2878 343.5,58.5 Z"/></g>
<g><path style="opacity:0.148" fill="#656565" d="M 159.5,59.5 C 159.437,64.2029 159.771,68.8696 160.5,73.5C 159.503,73.5299 158.836,73.0299 158.5,72C 157.928,69.7087 157.594,67.3754 157.5,65C 157.547,62.7047 158.213,60.8714 159.5,59.5 Z"/></g>
<g><path style="opacity:0.086" fill="#797979" d="M 334.5,60.5 C 337.5,61.5 339.5,63.5 340.5,66.5C 337.614,65.4036 335.614,63.4036 334.5,60.5 Z"/></g>
<g><path style="opacity:0.353" fill="#929292" d="M 153.5,48.5 C 152.945,54.1535 152.445,59.8202 152,65.5C 149.313,66.713 146.48,67.3797 143.5,67.5C 145.206,65.4642 147.539,64.4642 150.5,64.5C 150.335,60.8183 150.501,57.1516 151,53.5C 151.099,51.3474 151.933,49.6808 153.5,48.5 Z"/></g>
<g><path style="opacity:0.031" fill="#5e5e5e" d="M 348.5,64.5 C 350.914,65.9108 352.581,67.9108 353.5,70.5C 350.428,69.6987 348.762,67.6987 348.5,64.5 Z"/></g>
<g><path style="opacity:0.996" fill="#eaeaea" d="M 181.5,20.5 C 181.833,20.5 182.167,20.5 182.5,20.5C 187.669,21.3809 193.002,22.0475 198.5,22.5C 202.142,24.9165 206.142,27.0832 210.5,29C 207.28,29.1575 204.113,28.6575 201,27.5C 199.93,27.528 199.097,27.8614 198.5,28.5C 197.833,28.5 197.167,28.5 196.5,28.5C 195.306,27.2227 193.64,26.5561 191.5,26.5C 189.36,26.5561 187.694,27.2227 186.5,28.5C 186.167,28.5 185.833,28.5 185.5,28.5C 184.584,28.0183 183.584,27.685 182.5,27.5C 178.295,29.2008 174.462,31.5342 171,34.5C 169.579,36.4048 168.412,38.4048 167.5,40.5C 167.5,40.8333 167.5,41.1667 167.5,41.5C 164.459,42.1991 162.792,44.1991 162.5,47.5C 161.624,47.3691 160.957,47.7025 160.5,48.5C 158.673,51.4289 158.339,54.4289 159.5,57.5C 159.5,58.1667 159.5,58.8333 159.5,59.5C 158.213,60.8714 157.547,62.7047 157.5,65C 157.594,67.3754 157.928,69.7087 158.5,72C 158.836,73.0299 159.503,73.5299 160.5,73.5C 161.301,75.0418 161.634,76.7085 161.5,78.5C 161.427,80.0269 162.094,81.0269 163.5,81.5C 163.5,81.8333 163.5,82.1667 163.5,82.5C 163.464,86.1075 165.131,88.4408 168.5,89.5C 168.5,89.8333 168.5,90.1667 168.5,90.5C 169.167,93.1667 170.833,94.8333 173.5,95.5C 174.167,95.5 174.5,95.8333 174.5,96.5C 174.167,99.5 175.5,100.833 178.5,100.5C 178.5,101.5 178.5,102.5 178.5,103.5C 176.784,103.371 175.117,103.038 173.5,102.5C 171.5,102.5 170.5,101.5 170.5,99.5C 167.45,96.6117 164.95,93.2784 163,89.5C 161.989,88.6634 160.822,88.33 159.5,88.5C 159.5,88.1667 159.5,87.8333 159.5,87.5C 158.615,83.1345 156.615,79.4678 153.5,76.5C 153.5,76.1667 153.5,75.8333 153.5,75.5C 153.5,74.1667 152.833,73.5 151.5,73.5C 151.719,72.325 151.386,71.325 150.5,70.5C 149.264,71.2458 147.93,71.5792 146.5,71.5C 143.465,71.3469 141.465,72.6803 140.5,75.5C 140.158,76.3382 139.492,76.6716 138.5,76.5C 133.622,78.5393 129.788,81.8726 127,86.5C 125.218,89.6319 124.052,92.9653 123.5,96.5C 123.5,98.1667 123.5,99.8333 123.5,101.5C 123.5,103.833 123.5,106.167 123.5,108.5C 123.5,109.833 123.5,111.167 123.5,112.5C 123.768,115.74 124.434,118.906 125.5,122C 125.836,123.03 126.503,123.53 127.5,123.5C 127.106,129.072 129.439,132.738 134.5,134.5C 135.605,135.6 136.938,136.267 138.5,136.5C 138.833,136.5 139.167,136.5 139.5,136.5C 139.414,137.496 139.748,138.329 140.5,139C 142.436,139.813 144.436,140.313 146.5,140.5C 155.159,141.711 163.825,141.711 172.5,140.5C 171.175,137.469 171.175,134.469 172.5,131.5C 173.117,131.389 173.617,131.056 174,130.5C 175.019,125.427 176.185,120.427 177.5,115.5C 179.628,113.629 181.961,111.962 184.5,110.5C 184.5,111.5 184.5,112.5 184.5,113.5C 183.414,113.62 182.747,114.287 182.5,115.5C 181.574,119.13 180.907,122.797 180.5,126.5C 180.5,131.5 180.5,136.5 180.5,141.5C 181.044,145.511 182.711,148.844 185.5,151.5C 187.093,156.606 190.093,160.773 194.5,164C 192.529,164.014 190.529,163.681 188.5,163C 186.595,161.579 184.595,160.412 182.5,159.5C 181.833,156.833 180.167,155.167 177.5,154.5C 176.645,151.289 175.645,148.122 174.5,145C 172.833,144.333 171.167,144.333 169.5,145C 167.347,145.099 165.681,145.933 164.5,147.5C 160.152,148.754 155.818,148.754 151.5,147.5C 146.887,145.296 141.887,143.629 136.5,142.5C 135.267,140.204 133.267,138.87 130.5,138.5C 130.163,133.978 127.997,132.645 124,134.5C 123.517,135.448 123.351,136.448 123.5,137.5C 123.5,138.167 123.167,138.5 122.5,138.5C 119.676,138.989 118.343,140.656 118.5,143.5C 117.357,143.908 116.357,144.575 115.5,145.5C 114.187,148.754 113.187,152.088 112.5,155.5C 112.5,158.5 112.5,161.5 112.5,164.5C 112.927,167.376 113.594,170.209 114.5,173C 114.836,174.03 115.503,174.53 116.5,174.5C 117.338,174.842 117.672,175.508 117.5,176.5C 117.67,179.204 119.003,180.871 121.5,181.5C 123.104,182.287 123.771,183.62 123.5,185.5C 124.659,187.25 126.326,188.25 128.5,188.5C 129.048,190.394 130.048,192.06 131.5,193.5C 134.45,194.705 137.45,195.705 140.5,196.5C 143.096,197.265 145.763,197.599 148.5,197.5C 154.833,197.5 161.167,197.5 167.5,197.5C 171.877,197.423 176.21,196.923 180.5,196C 182.119,195.764 183.119,194.931 183.5,193.5C 183.833,193.5 184.167,193.5 184.5,193.5C 186.176,194.183 186.843,195.517 186.5,197.5C 186.167,197.5 185.833,197.5 185.5,197.5C 185.265,196.903 184.765,196.57 184,196.5C 181.815,196.698 180.315,197.698 179.5,199.5C 178.081,200.451 176.415,200.784 174.5,200.5C 170.176,200.927 165.842,201.261 161.5,201.5C 157.167,201.5 152.833,201.5 148.5,201.5C 146.208,201.756 144.041,201.423 142,200.5C 140.731,201.905 140.231,203.571 140.5,205.5C 140.5,210.167 140.5,214.833 140.5,219.5C 140.933,222.166 141.433,224.832 142,227.5C 142.417,228.756 143.25,229.423 144.5,229.5C 144.833,232.167 145.167,234.833 145.5,237.5C 149.289,238.92 152.623,241.253 155.5,244.5C 158.035,245.9 160.702,246.9 163.5,247.5C 163.833,247.5 164.167,247.5 164.5,247.5C 165.347,248.966 166.68,249.8 168.5,250C 173.866,250.736 179.2,250.569 184.5,249.5C 185.713,249.253 186.38,248.586 186.5,247.5C 186.833,247.5 187.167,247.5 187.5,247.5C 190.311,247.174 192.978,246.341 195.5,245C 196.252,244.329 196.586,243.496 196.5,242.5C 200.289,241.944 202.955,239.944 204.5,236.5C 207.243,234.761 209.243,232.427 210.5,229.5C 213.961,227.585 215.628,224.585 215.5,220.5C 215.337,218.143 215.503,215.81 216,213.5C 216.71,212.027 217.876,211.36 219.5,211.5C 219.5,215.5 219.5,219.5 219.5,223.5C 218.503,223.47 217.836,223.97 217.5,225C 214.598,234.151 209.264,241.651 201.5,247.5C 200.614,248.325 200.281,249.325 200.5,250.5C 200.167,250.5 199.833,250.5 199.5,250.5C 191.887,251.868 190.553,255.534 195.5,261.5C 196.344,265.099 196.677,268.766 196.5,272.5C 196.5,273.167 196.5,273.833 196.5,274.5C 195.883,274.389 195.383,274.056 195,273.5C 194.667,271.5 194.333,269.5 194,267.5C 193.5,274.826 193.334,282.159 193.5,289.5C 192.833,289.5 192.167,289.5 191.5,289.5C 191.5,287.833 191.5,286.167 191.5,284.5C 192.164,282.19 192.497,279.69 192.5,277C 192.475,274.071 191.809,271.571 190.5,269.5C 190.5,268.167 190.5,266.833 190.5,265.5C 192.177,262.073 191.844,259.073 189.5,256.5C 187.402,255.516 185.402,255.849 183.5,257.5C 182.391,257.557 181.391,257.89 180.5,258.5C 176.366,257.515 172.032,257.182 167.5,257.5C 165.095,256.232 162.428,255.565 159.5,255.5C 159.631,254.624 159.298,253.957 158.5,253.5C 155.812,252.487 153.146,251.487 150.5,250.5C 149.401,247.068 147.067,245.068 143.5,244.5C 140.567,238.301 137.567,232.301 134.5,226.5C 134.5,225.5 134.5,224.5 134.5,223.5C 135.341,218.99 136.008,214.324 136.5,209.5C 136.5,208.167 136.5,206.833 136.5,205.5C 136.5,204.833 136.5,204.167 136.5,203.5C 137.817,201.713 137.484,200.046 135.5,198.5C 133.029,196.929 130.363,195.929 127.5,195.5C 127.586,194.504 127.252,193.671 126.5,193C 122.362,190.685 118.695,187.852 115.5,184.5C 114.662,184.158 114.328,183.492 114.5,182.5C 113.034,178.396 111.701,174.229 110.5,170C 110.164,168.97 109.497,168.47 108.5,168.5C 108.5,164.167 108.5,159.833 108.5,155.5C 109.117,155.389 109.617,155.056 110,154.5C 111.228,149.719 112.728,145.053 114.5,140.5C 118.173,137.494 121.506,134.161 124.5,130.5C 123.482,126.943 121.982,123.61 120,120.5C 119.304,117.522 118.804,114.522 118.5,111.5C 118.334,105.824 118.501,100.157 119,94.5C 121.416,89.0648 123.916,83.7314 126.5,78.5C 128.167,77.5 129.5,76.1667 130.5,74.5C 130.842,73.6618 131.508,73.3284 132.5,73.5C 136.547,72.4854 139.88,70.4854 142.5,67.5C 142.833,67.5 143.167,67.5 143.5,67.5C 146.48,67.3797 149.313,66.713 152,65.5C 152.445,59.8202 152.945,54.1535 153.5,48.5C 156.615,45.5322 158.615,41.8655 159.5,37.5C 162.879,35.032 165.546,32.032 167.5,28.5C 170.834,28.0195 173.167,26.3528 174.5,23.5C 177.577,23.821 179.91,22.821 181.5,20.5 Z"/></g>
<g><path style="opacity:0.161" fill="#5f5f5f" d="M 196.5,28.5 C 193.167,28.5 189.833,28.5 186.5,28.5C 187.694,27.2227 189.36,26.5561 191.5,26.5C 193.64,26.5561 195.306,27.2227 196.5,28.5 Z"/></g>
<g><path style="opacity:0.651" fill="#8a8a8a" d="M 142.5,67.5 C 139.88,70.4854 136.547,72.4854 132.5,73.5C 132.414,72.5041 132.748,71.6708 133.5,71C 136.293,69.3459 139.293,68.1792 142.5,67.5 Z"/></g>
<g><path style="opacity:0.098" fill="#636363" d="M 341.5,68.5 C 343.773,68.9568 345.106,70.2901 345.5,72.5C 343.167,72.1667 341.833,70.8333 341.5,68.5 Z"/></g>
<g><path style="opacity:0.267" fill="#656565" d="M 146.5,71.5 C 145.267,73.7964 143.267,75.1298 140.5,75.5C 141.465,72.6803 143.465,71.3469 146.5,71.5 Z"/></g>
<g><path style="opacity:0.434" fill="#818181" d="M 241.5,52.5 C 242.485,69.423 242.818,86.423 242.5,103.5C 241.833,104.5 241.167,105.5 240.5,106.5C 240.17,88.3256 240.503,70.3256 241.5,52.5 Z"/></g>
<g><path style="opacity:0.599" fill="#858585" d="M 298.5,73.5 C 301.393,73.0311 303.393,74.0311 304.5,76.5C 302.883,75.962 301.216,75.6287 299.5,75.5C 299.433,76.9587 299.766,78.2921 300.5,79.5C 298.596,79.2624 297.262,78.2624 296.5,76.5C 296.285,74.8212 296.952,73.8212 298.5,73.5 Z"/></g>
<g><path style="opacity:0.041" fill="#333333" d="M 151.5,73.5 C 152.833,73.5 153.5,74.1667 153.5,75.5C 152.167,75.5 151.5,74.8333 151.5,73.5 Z"/></g>
<g><path style="opacity:0.029" fill="#1e1e1e" d="M 298.5,73.5 C 296.952,73.8212 296.285,74.8212 296.5,76.5C 295.566,75.4324 295.232,74.099 295.5,72.5C 296.791,72.2627 297.791,72.596 298.5,73.5 Z"/></g>
<g><path style="opacity:0.129" fill="#525252" d="M 130.5,74.5 C 129.5,76.1667 128.167,77.5 126.5,78.5C 126.833,76.1667 128.167,74.8333 130.5,74.5 Z"/></g>
<g><path style="opacity:0.761" fill="#7d7d7d" d="M 153.5,76.5 C 156.615,79.4678 158.615,83.1345 159.5,87.5C 156.022,84.8111 154.022,81.1444 153.5,76.5 Z"/></g>
<g><path style="opacity:0.999" fill="#f0f0f0" d="M 304.5,76.5 C 307.206,79.5208 310.539,81.5208 314.5,82.5C 315.478,85.4778 317.478,87.4778 320.5,88.5C 321.167,88.5 321.5,88.8333 321.5,89.5C 321.5,91.5 322.5,92.5 324.5,92.5C 325.401,93.2905 326.068,94.2905 326.5,95.5C 327.075,98.9542 328.742,101.621 331.5,103.5C 332.167,107.167 332.833,110.833 333.5,114.5C 334.792,121.111 334.792,127.777 333.5,134.5C 332.662,129.801 331.662,125.134 330.5,120.5C 330.253,119.287 329.586,118.62 328.5,118.5C 327.584,110.303 323.917,103.97 317.5,99.5C 317.912,97.0274 316.912,95.6941 314.5,95.5C 314.408,93.1523 313.408,91.4856 311.5,90.5C 309.973,90.573 308.973,89.9063 308.5,88.5C 308.573,86.9731 307.906,85.9731 306.5,85.5C 305.738,83.7376 304.404,82.7376 302.5,82.5C 302.573,80.9731 301.906,79.9731 300.5,79.5C 299.766,78.2921 299.433,76.9587 299.5,75.5C 301.216,75.6287 302.883,75.962 304.5,76.5 Z"/></g>
<g><path style="opacity:0.298" fill="#6e6e6e" d="M 354.5,72.5 C 358.737,76.7419 361.737,81.7419 363.5,87.5C 361.118,85.1073 358.952,82.4406 357,79.5C 356.153,77.1457 355.32,74.8123 354.5,72.5 Z"/></g>
<g><path style="opacity:0.22" fill="#787878" d="M 138.5,76.5 C 134.888,80.2871 131.388,84.2871 128,88.5C 127.059,91.154 126.226,93.8206 125.5,96.5C 124.833,96.5 124.167,96.5 123.5,96.5C 124.052,92.9653 125.218,89.6319 127,86.5C 129.788,81.8726 133.622,78.5393 138.5,76.5 Z"/></g>
<g><path style="opacity:0.033" fill="#262626" d="M 300.5,79.5 C 301.906,79.9731 302.573,80.9731 302.5,82.5C 301.094,82.0269 300.427,81.0269 300.5,79.5 Z"/></g>
<g><path style="opacity:0.184" fill="#727272" d="M 304.5,76.5 C 308.461,77.4792 311.794,79.4792 314.5,82.5C 310.539,81.5208 307.206,79.5208 304.5,76.5 Z"/></g>
<g><path style="opacity:0.075" fill="#3e3e3e" d="M 161.5,78.5 C 162.906,78.9731 163.573,79.9731 163.5,81.5C 162.094,81.0269 161.427,80.0269 161.5,78.5 Z"/></g>
<g><path style="opacity:0.082" fill="#444444" d="M 302.5,82.5 C 304.404,82.7376 305.738,83.7376 306.5,85.5C 304.596,85.2624 303.262,84.2624 302.5,82.5 Z"/></g>
<g><path style="opacity:0.098" fill="#5f5f5f" d="M 314.5,82.5 C 317.522,83.5222 319.522,85.5222 320.5,88.5C 317.478,87.4778 315.478,85.4778 314.5,82.5 Z"/></g>
<g><path style="opacity:0.278" fill="#717171" d="M 163.5,82.5 C 165.877,84.228 167.544,86.5614 168.5,89.5C 165.131,88.4408 163.464,86.1075 163.5,82.5 Z"/></g>
<g><path style="opacity:0.165" fill="#949494" d="M 345.5,73.5 C 346.239,73.369 346.906,73.5357 347.5,74C 349.15,76.8131 351.15,79.3131 353.5,81.5C 355.076,83.9793 356.076,86.646 356.5,89.5C 355.624,89.6309 354.957,89.2975 354.5,88.5C 351.871,83.2206 348.871,78.2206 345.5,73.5 Z"/></g>
<g><path style="opacity:0.031" fill="#454545" d="M 306.5,85.5 C 307.906,85.9731 308.573,86.9731 308.5,88.5C 307.094,88.0269 306.427,87.0269 306.5,85.5 Z"/></g>
<g><path style="opacity:0.139" fill="#484848" d="M 120.5,86.5 C 120.715,88.1788 120.048,89.1788 118.5,89.5C 118.932,88.2905 119.599,87.2905 120.5,86.5 Z"/></g>
<g><path style="opacity:0.812" fill="#aaaaaa" d="M 126.5,78.5 C 123.916,83.7314 121.416,89.0648 119,94.5C 118.501,100.157 118.334,105.824 118.5,111.5C 117.833,111.167 117.167,110.833 116.5,110.5C 115.998,103.318 116.665,96.3181 118.5,89.5C 120.048,89.1788 120.715,88.1788 120.5,86.5C 121.381,82.9578 123.381,80.2911 126.5,78.5 Z"/></g>
<g><path style="opacity:0.108" fill="#525252" d="M 168.5,90.5 C 171.167,91.1667 172.833,92.8333 173.5,95.5C 172.833,92.8333 171.167,91.1667 168.5,90.5 Z"/></g>
<g><path style="opacity:0.725" fill="#8f8f8f" d="M 311.5,90.5 C 313.408,91.4856 314.408,93.1523 314.5,95.5C 312.953,94.2318 311.953,92.5652 311.5,90.5 Z"/></g>
<g><path style="opacity:0.078" fill="#5a5a5a" d="M 321.5,89.5 C 323.5,89.5 324.5,90.5 324.5,92.5C 324.5,90.5 323.5,89.5 321.5,89.5 Z"/></g>
<g><path style="opacity:0.549" fill="#949494" d="M 363.5,87.5 C 364.931,88.7804 365.598,90.4471 365.5,92.5C 363.744,91.4479 363.077,89.7812 363.5,87.5 Z"/></g>
<g><path style="opacity:0.176" fill="#575757" d="M 159.5,88.5 C 160.822,88.33 161.989,88.6634 163,89.5C 164.95,93.2784 167.45,96.6117 170.5,99.5C 169.078,99.2914 167.745,98.7914 166.5,98C 163.949,94.9556 161.616,91.7889 159.5,88.5 Z"/></g>
<g><path style="opacity:0.318" fill="#8a8a8a" d="M 356.5,89.5 C 357.496,89.4142 358.329,89.7476 359,90.5C 360.278,94.1653 361.444,97.832 362.5,101.5C 359.512,98.1912 357.512,94.1912 356.5,89.5 Z"/></g>
<g><path style="opacity:0.261" fill="#6d6d6d" d="M 314.5,95.5 C 316.912,95.6941 317.912,97.0274 317.5,99.5C 316.026,98.5637 315.026,97.2303 314.5,95.5 Z"/></g>
<g><path style="opacity:0.396" fill="#656565" d="M 366.5,94.5 C 368.741,95.2998 369.741,96.9664 369.5,99.5C 367.259,98.7002 366.259,97.0336 366.5,94.5 Z"/></g>
<g><path style="opacity:0.014" fill="#242424" d="M 123.5,96.5 C 124.167,96.5 124.833,96.5 125.5,96.5C 125.88,98.698 125.213,100.365 123.5,101.5C 123.5,99.8333 123.5,98.1667 123.5,96.5 Z"/></g>
<g><path style="opacity:0.451" fill="#6f6f6f" d="M 326.5,95.5 C 329.138,97.4179 330.805,100.085 331.5,103.5C 328.742,101.621 327.075,98.9542 326.5,95.5 Z"/></g>
<g><path style="opacity:0.504" fill="#747474" d="M 174.5,96.5 C 177.67,97.5056 179.67,99.6723 180.5,103C 180.333,104.5 179.5,105.333 178,105.5C 176.019,105.101 174.519,104.101 173.5,102.5C 175.117,103.038 176.784,103.371 178.5,103.5C 178.5,102.5 178.5,101.5 178.5,100.5C 175.5,100.833 174.167,99.5 174.5,96.5 Z"/></g>
<g><path style="opacity:0.055" fill="#232323" d="M 181.5,109.5 C 182.568,108.566 183.901,108.232 185.5,108.5C 185.795,110.735 185.461,112.735 184.5,114.5C 184.5,114.167 184.5,113.833 184.5,113.5C 184.5,112.5 184.5,111.5 184.5,110.5C 183.791,109.596 182.791,109.263 181.5,109.5 Z"/></g>
<g><path style="opacity:0.651" fill="#989898" d="M 317.5,99.5 C 323.917,103.97 327.584,110.303 328.5,118.5C 327.624,118.631 326.957,118.298 326.5,117.5C 324.36,111.039 321.36,105.039 317.5,99.5 Z"/></g>
<g><path style="opacity:0.031" fill="#1c1c1c" d="M 123.5,108.5 C 125.104,109.287 125.771,110.62 125.5,112.5C 124.833,112.5 124.167,112.5 123.5,112.5C 123.5,111.167 123.5,109.833 123.5,108.5 Z"/></g>
<g><path style="opacity:0.314" fill="#6e6e6e" d="M 331.5,103.5 C 334.393,106.506 335.727,110.172 335.5,114.5C 334.833,114.5 334.167,114.5 333.5,114.5C 332.833,110.833 332.167,107.167 331.5,103.5 Z"/></g>
<g><path style="opacity:0.359" fill="#7c7c7c" d="M 116.5,110.5 C 117.167,110.833 117.833,111.167 118.5,111.5C 118.804,114.522 119.304,117.522 120,120.5C 121.982,123.61 123.482,126.943 124.5,130.5C 121.506,134.161 118.173,137.494 114.5,140.5C 116.77,136.892 119.437,133.558 122.5,130.5C 118.754,124.345 116.754,117.678 116.5,110.5 Z"/></g>
<g><path style="opacity:0.416" fill="#8f8f8f" d="M 181.5,109.5 C 182.791,109.263 183.791,109.596 184.5,110.5C 181.961,111.962 179.628,113.629 177.5,115.5C 178.34,113.147 179.674,111.147 181.5,109.5 Z"/></g>
<g><path style="opacity:0.373" fill="#8a8a8a" d="M 298.5,37.5 C 286.941,33.3849 274.941,31.3849 262.5,31.5C 262.382,66.1692 262.048,100.836 261.5,135.5C 260.833,135.5 260.167,135.5 259.5,135.5C 259.406,100.161 259.739,64.828 260.5,29.5C 273.163,28.9342 285.33,30.9342 297,35.5C 298.03,35.8361 298.53,36.5028 298.5,37.5 Z"/></g>
<g><path style="opacity:0.608" fill="#848484" d="M 369.5,99.5 C 372.658,104.633 374.658,110.3 375.5,116.5C 371.77,111.654 369.77,105.987 369.5,99.5 Z"/></g>
<g><path style="opacity:0.212" fill="#707070" d="M 123.5,112.5 C 124.167,112.5 124.833,112.5 125.5,112.5C 126.326,116.136 126.992,119.803 127.5,123.5C 126.503,123.53 125.836,123.03 125.5,122C 124.434,118.906 123.768,115.74 123.5,112.5 Z"/></g>
<g><path style="opacity:0.376" fill="#898989" d="M 184.5,113.5 C 184.5,113.833 184.5,114.167 184.5,114.5C 183.833,118.5 183.167,122.5 182.5,126.5C 181.833,126.5 181.167,126.5 180.5,126.5C 180.907,122.797 181.574,119.13 182.5,115.5C 182.747,114.287 183.414,113.62 184.5,113.5 Z"/></g>
<g><path style="opacity:0.5" fill="#959595" d="M 362.5,101.5 C 363.75,101.577 364.583,102.244 365,103.5C 365.888,108.169 367.555,112.503 370,116.5C 371.362,122.811 372.529,129.144 373.5,135.5C 372.833,135.5 372.167,135.5 371.5,135.5C 370.402,129.508 369.235,123.508 368,117.5C 365.475,112.426 363.642,107.093 362.5,101.5 Z"/></g>
<g><path style="opacity:0.467" fill="#898989" d="M 177.5,115.5 C 176.185,120.427 175.019,125.427 174,130.5C 173.617,131.056 173.117,131.389 172.5,131.5C 172.336,125.46 174.003,120.127 177.5,115.5 Z"/></g>
<g><path style="opacity:0.049" fill="#1c1c1c" d="M 247.5,101.5 C 249.204,116.632 249.871,131.965 249.5,147.5C 248.833,147.5 248.167,147.5 247.5,147.5C 247.5,132.167 247.5,116.833 247.5,101.5 Z"/></g>
<g><path style="opacity:0.353" fill="#616161" d="M 336.5,122.5 C 337.147,123.274 337.48,124.274 337.5,125.5C 337.099,129.024 336.433,132.358 335.5,135.5C 335.467,131.131 335.8,126.798 336.5,122.5 Z"/></g>
<g><path style="opacity:0.08" fill="#2f2f2f" d="M 180.5,126.5 C 181.167,126.5 181.833,126.5 182.5,126.5C 182.5,131.5 182.5,136.5 182.5,141.5C 181.833,141.5 181.167,141.5 180.5,141.5C 180.5,136.5 180.5,131.5 180.5,126.5 Z"/></g>
<g><path style="opacity:0.988" fill="#ababab" d="M 127.5,123.5 C 129.803,126.476 132.136,129.476 134.5,132.5C 134.5,133.167 134.5,133.833 134.5,134.5C 129.439,132.738 127.106,129.072 127.5,123.5 Z"/></g>
<g><path style="opacity:0.125" fill="#303030" d="M 377.5,127.5 C 379.176,128.183 379.843,129.517 379.5,131.5C 378.833,131.5 378.167,131.5 377.5,131.5C 377.5,130.167 377.5,128.833 377.5,127.5 Z"/></g>
<g><path style="opacity:0.086" fill="#454545" d="M 134.5,132.5 C 136.167,133.5 137.5,134.833 138.5,136.5C 136.938,136.267 135.605,135.6 134.5,134.5C 134.5,133.833 134.5,133.167 134.5,132.5 Z"/></g>
<g><path style="opacity:0.2" fill="#747474" d="M 130.5,138.5 C 128.956,138.297 127.622,137.63 126.5,136.5C 125.583,137.127 124.583,137.461 123.5,137.5C 123.351,136.448 123.517,135.448 124,134.5C 127.997,132.645 130.163,133.978 130.5,138.5 Z"/></g>
<g><path style="opacity:0.624" fill="#aeaeae" d="M 333.5,114.5 C 334.167,114.5 334.833,114.5 335.5,114.5C 336.473,116.948 336.806,119.615 336.5,122.5C 335.8,126.798 335.467,131.131 335.5,135.5C 335.5,135.833 335.5,136.167 335.5,136.5C 334.167,136.833 332.833,137.167 331.5,137.5C 330.593,131.153 329.593,124.82 328.5,118.5C 329.586,118.62 330.253,119.287 330.5,120.5C 331.662,125.134 332.662,129.801 333.5,134.5C 334.792,127.777 334.792,121.111 333.5,114.5 Z"/></g>
<g><path style="opacity:0.039" fill="#484848" d="M 335.5,136.5 C 335.5,137.5 335.5,138.5 335.5,139.5C 333.517,139.843 332.183,139.176 331.5,137.5C 332.833,137.167 334.167,136.833 335.5,136.5 Z"/></g>
<g><path style="opacity:0.325" fill="#6c6c6c" d="M 139.5,136.5 C 142.401,137.107 144.734,138.441 146.5,140.5C 144.436,140.313 142.436,139.813 140.5,139C 139.748,138.329 139.414,137.496 139.5,136.5 Z"/></g>
<g><path style="opacity:0.592" fill="#757575" d="M 130.5,138.5 C 133.267,138.87 135.267,140.204 136.5,142.5C 133.708,142.378 131.708,141.044 130.5,138.5 Z"/></g>
<g><path style="opacity:0.063" fill="#747474" d="M 122.5,138.5 C 121.864,140.795 120.531,142.461 118.5,143.5C 118.343,140.656 119.676,138.989 122.5,138.5 Z"/></g>
<g><path style="opacity:0.055" fill="#313131" d="M 371.5,135.5 C 372.167,135.5 372.833,135.5 373.5,135.5C 374.128,142.913 373.461,149.913 371.5,156.5C 371.5,149.5 371.5,142.5 371.5,135.5 Z"/></g>
<g><path style="opacity:0.3" fill="#737373" d="M 136.5,142.5 C 141.887,143.629 146.887,145.296 151.5,147.5C 145.715,147.813 140.715,146.146 136.5,142.5 Z"/></g>
<g><path style="opacity:0.294" fill="#787878" d="M 177.5,154.5 C 175.354,152.225 173.688,149.558 172.5,146.5C 169.916,147.393 167.249,147.726 164.5,147.5C 165.681,145.933 167.347,145.099 169.5,145C 171.167,144.333 172.833,144.333 174.5,145C 175.645,148.122 176.645,151.289 177.5,154.5 Z"/></g>
<g><path style="opacity:0.463" fill="#9c9c9c" d="M 114.5,140.5 C 112.728,145.053 111.228,149.719 110,154.5C 109.617,155.056 109.117,155.389 108.5,155.5C 108.5,155.167 108.5,154.833 108.5,154.5C 108.726,150.708 109.56,147.041 111,143.5C 111.759,141.937 112.926,140.937 114.5,140.5 Z"/></g>
<g><path style="opacity:0.62" fill="#878787" d="M 118.5,143.5 C 116.964,147.442 115.63,151.442 114.5,155.5C 113.833,155.5 113.167,155.5 112.5,155.5C 113.187,152.088 114.187,148.754 115.5,145.5C 116.357,144.575 117.357,143.908 118.5,143.5 Z"/></g>
<g><path style="opacity:0.502" fill="#868686" d="M 180.5,141.5 C 181.167,141.5 181.833,141.5 182.5,141.5C 183.499,144.829 184.499,148.162 185.5,151.5C 182.711,148.844 181.044,145.511 180.5,141.5 Z"/></g>
<g><path style="opacity:0.841" fill="#9f9f9f" d="M 286.5,23.5 C 286.5,24.1667 286.5,24.8333 286.5,25.5C 276.232,23.8185 265.899,23.3185 255.5,24C 254.809,25.0674 254.309,26.2341 254,27.5C 253.657,77.8341 253.824,128.167 254.5,178.5C 253.833,175.833 253.167,173.167 252.5,170.5C 251.75,122.835 251.583,75.168 252,27.5C 252.273,25.8988 252.773,24.3988 253.5,23C 264.534,22.2348 275.534,22.4015 286.5,23.5 Z"/></g>
<g><path style="opacity:0.188" fill="#7f7f7f" d="M 377.5,131.5 C 378.167,131.5 378.833,131.5 379.5,131.5C 380.696,140.527 380.696,149.527 379.5,158.5C 378.833,158.5 378.167,158.5 377.5,158.5C 378.528,149.518 378.528,140.518 377.5,131.5 Z"/></g>
<g><path style="opacity:0.073" fill="#858585" d="M 177.5,154.5 C 180.167,155.167 181.833,156.833 182.5,159.5C 179.833,158.833 178.167,157.167 177.5,154.5 Z"/></g>
<g><path style="opacity:0.232" fill="#5d5d5d" d="M 108.5,154.5 C 108.5,154.833 108.5,155.167 108.5,155.5C 108.5,159.833 108.5,164.167 108.5,168.5C 107.883,168.389 107.383,168.056 107,167.5C 106.333,163.5 106.333,159.5 107,155.5C 107.383,154.944 107.883,154.611 108.5,154.5 Z"/></g>
<g><path style="opacity:0.075" fill="#2e2e2e" d="M 112.5,155.5 C 113.167,155.5 113.833,155.5 114.5,155.5C 114.5,158.5 114.5,161.5 114.5,164.5C 113.833,164.5 113.167,164.5 112.5,164.5C 112.5,161.5 112.5,158.5 112.5,155.5 Z"/></g>
<g><path style="opacity:0.851" fill="#e4e4e4" d="M 244.5,38.5 C 245.317,40.9686 245.817,43.6353 246,46.5C 246.169,60.6727 246.669,74.6727 247.5,88.5C 247.5,92.8333 247.5,97.1667 247.5,101.5C 247.5,116.833 247.5,132.167 247.5,147.5C 247.5,158.167 247.5,168.833 247.5,179.5C 247.5,204.833 247.5,230.167 247.5,255.5C 247.5,273.833 247.5,292.167 247.5,310.5C 247.573,312.027 246.906,313.027 245.5,313.5C 246.937,221.839 246.603,130.172 244.5,38.5 Z"/></g>
<g><path style="opacity:0.098" fill="#3f3f3f" d="M 377.5,158.5 C 378.167,158.5 378.833,158.5 379.5,158.5C 379.662,160.527 379.495,162.527 379,164.5C 378.617,165.056 378.117,165.389 377.5,165.5C 377.5,163.167 377.5,160.833 377.5,158.5 Z"/></g>
<g><path style="opacity:0.514" fill="#919191" d="M 185.5,151.5 C 188.751,154.705 191.917,158.039 195,161.5C 197.088,163.824 196.921,165.824 194.5,167.5C 189.396,166.295 185.396,163.629 182.5,159.5C 184.595,160.412 186.595,161.579 188.5,163C 190.529,163.681 192.529,164.014 194.5,164C 190.093,160.773 187.093,156.606 185.5,151.5 Z"/></g>
<g><path style="opacity:0.192" fill="#5d5d5d" d="M 247.5,147.5 C 248.167,147.5 248.833,147.5 249.5,147.5C 249.5,158.167 249.5,168.833 249.5,179.5C 248.833,179.5 248.167,179.5 247.5,179.5C 247.5,168.833 247.5,158.167 247.5,147.5 Z"/></g>
<g><path style="opacity:0.154" fill="#606060" d="M 259.5,135.5 C 260.167,135.5 260.833,135.5 261.5,135.5C 261.5,148.5 261.5,161.5 261.5,174.5C 260.833,174.5 260.167,174.5 259.5,174.5C 259.5,161.5 259.5,148.5 259.5,135.5 Z"/></g>
<g><path style="opacity:0.463" fill="#8d8d8d" d="M 112.5,164.5 C 113.167,164.5 113.833,164.5 114.5,164.5C 115.167,167.833 115.833,171.167 116.5,174.5C 115.503,174.53 114.836,174.03 114.5,173C 113.594,170.209 112.927,167.376 112.5,164.5 Z"/></g>
<g><path style="opacity:0.563" fill="#939393" d="M 108.5,168.5 C 109.497,168.47 110.164,168.97 110.5,170C 111.701,174.229 113.034,178.396 114.5,182.5C 113.504,182.586 112.671,182.252 112,181.5C 110.051,177.371 108.884,173.037 108.5,168.5 Z"/></g>
<g><path style="opacity:0.267" fill="#6a6a6a" d="M 332.5,181.5 C 333.331,177.524 333.497,173.524 333,169.5C 332.583,170.756 331.75,171.423 330.5,171.5C 330.183,167.828 331.849,166.162 335.5,166.5C 335.666,170.514 335.499,174.514 335,178.5C 334.764,180.119 333.931,181.119 332.5,181.5 Z"/></g>
<g><path style="opacity:0.207" fill="#acacac" d="M 252.5,170.5 C 253.167,173.167 253.833,175.833 254.5,178.5C 254.5,196.833 254.5,215.167 254.5,233.5C 253.833,223.5 253.167,213.5 252.5,203.5C 252.5,192.5 252.5,181.5 252.5,170.5 Z"/></g>
<g><path style="opacity:0.216" fill="#575757" d="M 117.5,176.5 C 119.543,177.579 120.876,179.246 121.5,181.5C 119.003,180.871 117.67,179.204 117.5,176.5 Z"/></g>
<g><path style="opacity:0.996" fill="#ebebeb" d="M 332.5,181.5 C 331.624,181.369 330.957,181.702 330.5,182.5C 329.151,185.859 327.818,189.192 326.5,192.5C 324.246,193.254 322.413,194.587 321,196.5C 320.5,196.167 320,195.833 319.5,195.5C 320.782,193.821 321.782,191.987 322.5,190C 322.272,189.601 321.938,189.435 321.5,189.5C 321.5,189.167 321.5,188.833 321.5,188.5C 324.825,188.43 325.825,187.096 324.5,184.5C 326.931,182.954 328.264,180.621 328.5,177.5C 328.595,175.214 329.262,173.214 330.5,171.5C 331.75,171.423 332.583,170.756 333,169.5C 333.497,173.524 333.331,177.524 332.5,181.5 Z"/></g>
<g><path style="opacity:0.639" fill="#8c8c8c" d="M 328.5,177.5 C 328.264,180.621 326.931,182.954 324.5,184.5C 324.736,181.379 326.069,179.046 328.5,177.5 Z"/></g>
<g><path style="opacity:0.124" fill="#626262" d="M 375.5,175.5 C 375.493,179.554 374.16,182.887 371.5,185.5C 371.927,182.624 372.594,179.791 373.5,177C 373.836,175.97 374.503,175.47 375.5,175.5 Z"/></g>
<g><path style="opacity:0.198" fill="#6f6f6f" d="M 123.5,185.5 C 125.674,185.75 127.341,186.75 128.5,188.5C 126.326,188.25 124.659,187.25 123.5,185.5 Z"/></g>
<g><path style="opacity:0.839" fill="#8d8d8d" d="M 324.5,184.5 C 325.825,187.096 324.825,188.43 321.5,188.5C 322.512,187.128 323.512,185.795 324.5,184.5 Z"/></g>
<g><path style="opacity:0.553" fill="#969696" d="M 371.5,161.5 C 372.411,165.732 372.077,170.066 370.5,174.5C 368.074,180.607 365.741,186.774 363.5,193C 361.509,196.509 359.176,199.675 356.5,202.5C 360.999,193.853 364.832,184.853 368,175.5C 369.249,170.722 370.416,166.055 371.5,161.5 Z"/></g>
<g><path style="opacity:0.2" fill="#858585" d="M 332.5,181.5 C 332.201,185.105 331.035,188.439 329,191.5C 328.329,192.252 327.496,192.586 326.5,192.5C 327.818,189.192 329.151,185.859 330.5,182.5C 330.957,181.702 331.624,181.369 332.5,181.5 Z"/></g>
<g><path style="opacity:0.102" fill="#484848" d="M 371.5,186.5 C 371.598,188.553 370.931,190.22 369.5,191.5C 369.402,189.447 370.069,187.78 371.5,186.5 Z"/></g>
<g><path style="opacity:0.208" fill="#818181" d="M 115.5,184.5 C 118.695,187.852 122.362,190.685 126.5,193C 127.252,193.671 127.586,194.504 127.5,195.5C 121.99,193.48 117.99,189.814 115.5,184.5 Z"/></g>
<g><path style="opacity:0.247" fill="#9a9a9a" d="M 128.5,188.5 C 131.937,191.552 135.937,193.552 140.5,194.5C 140.5,195.167 140.5,195.833 140.5,196.5C 137.45,195.705 134.45,194.705 131.5,193.5C 130.048,192.06 129.048,190.394 128.5,188.5 Z"/></g>
<g><path style="opacity:0.106" fill="#414141" d="M 184.5,193.5 C 186.684,192.017 188.017,192.684 188.5,195.5C 188.253,196.713 187.586,197.38 186.5,197.5C 186.843,195.517 186.176,194.183 184.5,193.5 Z"/></g>
<g><path style="opacity:0.208" fill="#575757" d="M 140.5,194.5 C 143.486,194.903 146.152,195.903 148.5,197.5C 145.763,197.599 143.096,197.265 140.5,196.5C 140.5,195.833 140.5,195.167 140.5,194.5 Z"/></g>
<g><path style="opacity:0.192" fill="#5d5d5d" d="M 183.5,193.5 C 183.119,194.931 182.119,195.764 180.5,196C 176.21,196.923 171.877,197.423 167.5,197.5C 172.564,195.548 177.897,194.215 183.5,193.5 Z"/></g>
<g><path style="opacity:0.837" fill="#a5a5a5" d="M 321.5,189.5 C 321.938,189.435 322.272,189.601 322.5,190C 321.782,191.987 320.782,193.821 319.5,195.5C 320,195.833 320.5,196.167 321,196.5C 322.413,194.587 324.246,193.254 326.5,192.5C 325.833,195.167 324.167,196.833 321.5,197.5C 319.565,198.15 317.565,198.483 315.5,198.5C 317.234,195.378 319.234,192.378 321.5,189.5 Z"/></g>
<g><path style="opacity:0.137" fill="#6b6b6b" d="M 127.5,195.5 C 130.363,195.929 133.029,196.929 135.5,198.5C 137.484,200.046 137.817,201.713 136.5,203.5C 136.719,202.325 136.386,201.325 135.5,200.5C 132.06,199.795 129.394,198.129 127.5,195.5 Z"/></g>
<g><path style="opacity:0.714" fill="#777777" d="M 369.5,191.5 C 365.93,201.655 360.596,210.655 353.5,218.5C 354.549,215.53 355.716,212.53 357,209.5C 361.005,204.159 364.505,198.492 367.5,192.5C 367.957,191.702 368.624,191.369 369.5,191.5 Z"/></g>
<g><path style="opacity:0.502" fill="#919191" d="M 185.5,197.5 C 183.898,199.074 181.898,199.741 179.5,199.5C 180.315,197.698 181.815,196.698 184,196.5C 184.765,196.57 185.265,196.903 185.5,197.5 Z"/></g>
<g><path style="opacity:0.099" fill="#414141" d="M 321.5,197.5 C 319.699,200.799 317.699,201.132 315.5,198.5C 317.565,198.483 319.565,198.15 321.5,197.5 Z"/></g>
<g><path style="opacity:0.161" fill="#5b5b5b" d="M 148.5,201.5 C 148.5,202.167 148.5,202.833 148.5,203.5C 145.918,203.025 143.918,203.692 142.5,205.5C 141.833,205.5 141.167,205.5 140.5,205.5C 140.231,203.571 140.731,201.905 142,200.5C 144.041,201.423 146.208,201.756 148.5,201.5 Z"/></g>
<g><path style="opacity:0.227" fill="#575757" d="M 174.5,200.5 C 174.03,201.693 173.03,202.36 171.5,202.5C 167.868,203.246 164.202,203.579 160.5,203.5C 160.833,202.833 161.167,202.167 161.5,201.5C 165.842,201.261 170.176,200.927 174.5,200.5 Z"/></g>
<g><path style="opacity:0.169" fill="#afafaf" d="M 148.5,201.5 C 152.833,201.5 157.167,201.5 161.5,201.5C 161.167,202.167 160.833,202.833 160.5,203.5C 156.5,203.5 152.5,203.5 148.5,203.5C 148.5,202.833 148.5,202.167 148.5,201.5 Z"/></g>
<g><path style="opacity:0.298" fill="#7f7f7f" d="M 356.5,202.5 C 355.99,205.674 354.323,208.008 351.5,209.5C 352.511,207.628 353.345,205.628 354,203.5C 354.671,202.748 355.504,202.414 356.5,202.5 Z"/></g>
<g><path style="opacity:0.255" fill="#515151" d="M 136.5,205.5 C 136.5,206.833 136.5,208.167 136.5,209.5C 135.833,209.5 135.167,209.5 134.5,209.5C 134.157,207.517 134.824,206.183 136.5,205.5 Z"/></g>
<g><path style="opacity:0.033" fill="#202020" d="M 140.5,205.5 C 141.167,205.5 141.833,205.5 142.5,205.5C 142.5,210.167 142.5,214.833 142.5,219.5C 141.833,219.5 141.167,219.5 140.5,219.5C 140.5,214.833 140.5,210.167 140.5,205.5 Z"/></g>
<g><path style="opacity:0.257" fill="#7e7e7e" d="M 247.5,179.5 C 248.167,179.5 248.833,179.5 249.5,179.5C 249.5,204.833 249.5,230.167 249.5,255.5C 248.833,255.5 248.167,255.5 247.5,255.5C 247.5,230.167 247.5,204.833 247.5,179.5 Z"/></g>
<g><path style="opacity:0.643" fill="#969696" d="M 351.5,209.5 C 350.996,213.642 348.996,216.642 345.5,218.5C 346.723,214.951 348.723,211.951 351.5,209.5 Z"/></g>
<g><path style="opacity:0.192" fill="#424242" d="M 219.5,211.5 C 220.117,211.611 220.617,211.944 221,212.5C 221.667,216.167 221.667,219.833 221,223.5C 220.617,224.056 220.117,224.389 219.5,224.5C 219.5,224.167 219.5,223.833 219.5,223.5C 219.5,219.5 219.5,215.5 219.5,211.5 Z"/></g>
<g><path style="opacity:0.349" fill="#7d7d7d" d="M 134.5,209.5 C 135.167,209.5 135.833,209.5 136.5,209.5C 136.008,214.324 135.341,218.99 134.5,223.5C 133.322,218.979 133.322,214.312 134.5,209.5 Z"/></g>
<g><path style="opacity:0.102" fill="#606060" d="M 345.5,218.5 C 345.106,220.71 343.773,222.043 341.5,222.5C 341.833,220.167 343.167,218.833 345.5,218.5 Z"/></g>
<g><path style="opacity:0.286" fill="#818181" d="M 140.5,219.5 C 141.167,219.5 141.833,219.5 142.5,219.5C 143.167,222.833 143.833,226.167 144.5,229.5C 143.25,229.423 142.417,228.756 142,227.5C 141.433,224.832 140.933,222.166 140.5,219.5 Z"/></g>
<g><path style="opacity:0.373" fill="#848484" d="M 215.5,220.5 C 215.628,224.585 213.961,227.585 210.5,229.5C 211.778,227.177 212.778,224.677 213.5,222C 213.836,220.97 214.503,220.47 215.5,220.5 Z"/></g>
<g><path style="opacity:0.225" fill="#707070" d="M 340.5,224.5 C 340.167,226.833 338.833,228.167 336.5,228.5C 337.167,226.5 338.5,225.167 340.5,224.5 Z"/></g>
<g><path style="opacity:0.745" fill="#878787" d="M 219.5,223.5 C 219.5,223.833 219.5,224.167 219.5,224.5C 219.283,228.985 217.783,232.985 215,236.5C 210.992,242.008 206.159,246.674 200.5,250.5C 200.281,249.325 200.614,248.325 201.5,247.5C 209.264,241.651 214.598,234.151 217.5,225C 217.836,223.97 218.503,223.47 219.5,223.5 Z"/></g>
<g><path style="opacity:0.145" fill="#7d7d7d" d="M 353.5,218.5 C 350.461,222.861 347.127,226.861 343.5,230.5C 345.051,224.955 348.384,220.955 353.5,218.5 Z"/></g>
<g><path style="opacity:0.196" fill="#5c5c5c" d="M 210.5,229.5 C 209.243,232.427 207.243,234.761 204.5,236.5C 205.757,233.573 207.757,231.239 210.5,229.5 Z"/></g>
<g><path style="opacity:0.329" fill="#767676" d="M 336.5,228.5 C 334.223,233.777 330.556,237.777 325.5,240.5C 329.195,236.474 332.862,232.474 336.5,228.5 Z"/></g>
<g><path style="opacity:0.114" fill="#797979" d="M 342.5,231.5 C 342.167,233.833 340.833,235.167 338.5,235.5C 338.833,233.167 340.167,231.833 342.5,231.5 Z"/></g>
<g><path style="opacity:0.224" fill="#636363" d="M 134.5,226.5 C 137.567,232.301 140.567,238.301 143.5,244.5C 138.604,239.495 135.604,233.495 134.5,226.5 Z"/></g>
<g><path style="opacity:0.424" fill="#8e8e8e" d="M 144.5,229.5 C 148.378,237.123 154.378,242.456 162.5,245.5C 163.298,245.957 163.631,246.624 163.5,247.5C 160.702,246.9 158.035,245.9 155.5,244.5C 152.623,241.253 149.289,238.92 145.5,237.5C 145.167,234.833 144.833,232.167 144.5,229.5 Z"/></g>
<g><path style="opacity:0.133" fill="#636363" d="M 337.5,237.5 C 336.833,240.167 335.167,241.833 332.5,242.5C 333.189,239.811 334.856,238.144 337.5,237.5 Z"/></g>
<g><path style="opacity:0.443" fill="#777777" d="M 204.5,236.5 C 202.955,239.944 200.289,241.944 196.5,242.5C 198.8,240.016 201.467,238.016 204.5,236.5 Z"/></g>
<g><path style="opacity:0.52" fill="#bdbdbd" d="M 242.5,103.5 C 242.22,172.501 241.22,241.168 239.5,309.5C 240.496,245.905 240.829,182.238 240.5,118.5C 240.5,114.5 240.5,110.5 240.5,106.5C 241.167,105.5 241.833,104.5 242.5,103.5 Z"/></g>
<g><path style="opacity:0.047" fill="#636363" d="M 332.5,242.5 C 332.573,244.027 331.906,245.027 330.5,245.5C 330.427,243.973 331.094,242.973 332.5,242.5 Z"/></g>
<g><path style="opacity:0.667" fill="#717171" d="M 143.5,244.5 C 147.067,245.068 149.401,247.068 150.5,250.5C 147.253,249.588 144.92,247.588 143.5,244.5 Z"/></g>
<g><path style="opacity:0.285" fill="#828282" d="M 196.5,242.5 C 196.586,243.496 196.252,244.329 195.5,245C 192.978,246.341 190.311,247.174 187.5,247.5C 187.369,246.624 187.702,245.957 188.5,245.5C 191.188,244.487 193.854,243.487 196.5,242.5 Z"/></g>
<g><path style="opacity:0.391" fill="#6e6e6e" d="M 252.5,203.5 C 253.167,213.5 253.833,223.5 254.5,233.5C 254.81,254.213 254.477,274.879 253.5,295.5C 252.502,265.005 252.169,234.338 252.5,203.5 Z"/></g>
<g><path style="opacity:0.051" fill="#585858" d="M 323.5,244.5 C 322.167,246.5 320.5,248.167 318.5,249.5C 319.167,246.833 320.833,245.167 323.5,244.5 Z"/></g>
<g><path style="opacity:0.525" fill="#9c9c9c" d="M 164.5,247.5 C 171.826,248.79 179.159,248.79 186.5,247.5C 186.38,248.586 185.713,249.253 184.5,249.5C 179.2,250.569 173.866,250.736 168.5,250C 166.68,249.8 165.347,248.966 164.5,247.5 Z"/></g>
<g><path style="opacity:0.306" fill="#757575" d="M 330.5,246.5 C 325.418,252.569 320.418,258.569 315.5,264.5C 315.5,263.5 315.5,262.5 315.5,261.5C 318.381,258.209 321.047,254.709 323.5,251C 325.761,249.187 328.095,247.687 330.5,246.5 Z"/></g>
<g><path style="opacity:0.227" fill="#737373" d="M 150.5,250.5 C 153.146,251.487 155.812,252.487 158.5,253.5C 159.298,253.957 159.631,254.624 159.5,255.5C 155.728,255.116 152.728,253.45 150.5,250.5 Z"/></g>
<g><path style="opacity:0.375" fill="#929292" d="M 317.5,251.5 C 316.772,253.512 315.938,255.512 315,257.5C 314.329,258.252 313.496,258.586 312.5,258.5C 312.981,255.166 314.647,252.833 317.5,251.5 Z"/></g>
<g><path style="opacity:0.416" fill="#5b5b5b" d="M 159.5,255.5 C 162.428,255.565 165.095,256.232 167.5,257.5C 164.505,257.706 161.838,257.04 159.5,255.5 Z"/></g>
<g><path style="opacity:0.02" fill="#303030" d="M 189.5,256.5 C 187.565,257.15 185.565,257.483 183.5,257.5C 185.402,255.849 187.402,255.516 189.5,256.5 Z"/></g>
<g><path style="opacity:0.029" fill="#242424" d="M 167.5,257.5 C 172.032,257.182 176.366,257.515 180.5,258.5C 178.527,259.163 176.361,259.496 174,259.5C 171.39,259.467 169.223,258.8 167.5,257.5 Z"/></g>
<g><path style="opacity:0.365" fill="#858585" d="M 199.5,250.5 C 198.06,252.388 196.394,254.055 194.5,255.5C 195.348,257.409 195.682,259.409 195.5,261.5C 190.553,255.534 191.887,251.868 199.5,250.5 Z"/></g>
<g><path style="opacity:0.374" fill="#7d7d7d" d="M 189.5,256.5 C 191.844,259.073 192.177,262.073 190.5,265.5C 189.523,262.713 189.19,259.713 189.5,256.5 Z"/></g>
<g><path style="opacity:0.394" fill="#7c7c7c" d="M 312.5,258.5 C 311.213,261.698 310.547,265.031 310.5,268.5C 309.833,268.5 309.167,268.5 308.5,268.5C 308.099,264.349 309.433,261.015 312.5,258.5 Z"/></g>
<g><path style="opacity:0.784" fill="#8f8f8f" d="M 315.5,261.5 C 315.5,262.5 315.5,263.5 315.5,264.5C 314.762,273.88 313.762,283.213 312.5,292.5C 311.833,292.5 311.167,292.5 310.5,292.5C 311.442,284.186 312.276,275.852 313,267.5C 313.566,265.277 314.4,263.277 315.5,261.5 Z"/></g>
<g><path style="opacity:0.132" fill="#414141" d="M 247.5,255.5 C 248.167,255.5 248.833,255.5 249.5,255.5C 249.667,273.503 249.5,291.503 249,309.5C 248.617,310.056 248.117,310.389 247.5,310.5C 247.5,292.167 247.5,273.833 247.5,255.5 Z"/></g>
<g><path style="opacity:0.286" fill="#595959" d="M 190.5,269.5 C 191.809,271.571 192.475,274.071 192.5,277C 192.497,279.69 192.164,282.19 191.5,284.5C 190.513,279.695 190.179,274.695 190.5,269.5 Z"/></g>
<g><path style="opacity:0.122" fill="#333333" d="M 196.5,272.5 C 198.074,274.102 198.741,276.102 198.5,278.5C 197.833,278.5 197.167,278.5 196.5,278.5C 196.5,277.167 196.5,275.833 196.5,274.5C 196.5,273.833 196.5,273.167 196.5,272.5 Z"/></g>
<g><path style="opacity:0.521" fill="#acacac" d="M 308.5,268.5 C 309.167,268.5 309.833,268.5 310.5,268.5C 309.703,273.793 309.037,279.126 308.5,284.5C 308.415,286.333 307.748,287.666 306.5,288.5C 306.773,281.775 307.439,275.108 308.5,268.5 Z"/></g>
<g><path style="opacity:0.263" fill="#969696" d="M 196.5,278.5 C 197.167,278.5 197.833,278.5 198.5,278.5C 198.5,280.833 198.5,283.167 198.5,285.5C 198.167,285.5 197.833,285.5 197.5,285.5C 196.532,283.393 196.198,281.059 196.5,278.5 Z"/></g>
<g><path style="opacity:0.028" fill="#1b1b1b" d="M 259.5,174.5 C 260.167,174.5 260.833,174.5 261.5,174.5C 261.5,218.833 261.5,263.167 261.5,307.5C 260.833,307.5 260.167,307.5 259.5,307.5C 259.5,263.167 259.5,218.833 259.5,174.5 Z"/></g>
<g><path style="opacity:0.132" fill="#484848" d="M 197.5,285.5 C 197.833,285.5 198.167,285.5 198.5,285.5C 199.473,287.948 199.806,290.615 199.5,293.5C 198.833,293.5 198.167,293.5 197.5,293.5C 197.5,290.833 197.5,288.167 197.5,285.5 Z"/></g>
<g><path style="opacity:0.282" fill="#828282" d="M 191.5,289.5 C 192.167,289.5 192.833,289.5 193.5,289.5C 193.5,292.833 193.5,296.167 193.5,299.5C 192.883,299.389 192.383,299.056 192,298.5C 191.502,295.518 191.335,292.518 191.5,289.5 Z"/></g>
<g><path style="opacity:0.273" fill="#707070" d="M 306.5,290.5 C 306.923,292.781 306.256,294.448 304.5,295.5C 304.12,293.302 304.787,291.635 306.5,290.5 Z"/></g>
<g><path style="opacity:0.165" fill="#8c8c8c" d="M 197.5,293.5 C 198.167,293.5 198.833,293.5 199.5,293.5C 200.167,295.833 200.833,298.167 201.5,300.5C 200.504,300.586 199.671,300.252 199,299.5C 198.187,297.564 197.687,295.564 197.5,293.5 Z"/></g>
<g><path style="opacity:0.025" fill="#3d3d3d" d="M 310.5,292.5 C 311.167,292.5 311.833,292.5 312.5,292.5C 312.333,296.673 311,300.34 308.5,303.5C 309.326,299.864 309.992,296.197 310.5,292.5 Z"/></g>
<g><path style="opacity:0.643" fill="#9d9d9d" d="M 304.5,296.5 C 305.598,297.601 305.765,298.934 305,300.5C 304.138,302.087 303.471,303.754 303,305.5C 302.329,306.252 301.496,306.586 300.5,306.5C 301.658,303.011 302.991,299.678 304.5,296.5 Z"/></g>
<g><path style="opacity:0.294" fill="#7e7e7e" d="M 253.5,300.5 C 255.402,303.337 256.069,306.671 255.5,310.5C 253.598,307.663 252.931,304.329 253.5,300.5 Z"/></g>
<g><path style="opacity:0.19" fill="#8f8f8f" d="M 193.5,299.5 C 195.954,301.702 197.954,304.368 199.5,307.5C 195.635,306.294 193.635,303.627 193.5,299.5 Z"/></g>
<g><path style="opacity:0.208" fill="#7b7b7b" d="M 308.5,304.5 C 308.33,307.204 306.997,308.871 304.5,309.5C 304.731,306.937 306.065,305.27 308.5,304.5 Z"/></g>
<g><path style="opacity:0.302" fill="#939393" d="M 201.5,300.5 C 207.397,304.8 214.063,307.133 221.5,307.5C 221.5,308.167 221.5,308.833 221.5,309.5C 216.107,308.654 210.773,307.488 205.5,306C 203.548,304.588 202.215,302.755 201.5,300.5 Z"/></g>
<g><path style="opacity:0.076" fill="#444444" d="M 240.5,118.5 C 240.829,182.238 240.496,245.905 239.5,309.5C 233.5,309.5 227.5,309.5 221.5,309.5C 221.5,308.833 221.5,308.167 221.5,307.5C 227.5,307.5 233.5,307.5 239.5,307.5C 239.168,244.331 239.501,181.331 240.5,118.5 Z"/></g>
<g><path style="opacity:0.827" fill="#909090" d="M 300.5,306.5 C 299.972,307.721 299.305,308.887 298.5,310C 295.568,311.145 292.568,311.978 289.5,312.5C 289.47,311.503 289.97,310.836 291,310.5C 294.391,309.55 297.558,308.217 300.5,306.5 Z"/></g>
<g><path style="opacity:0.257" fill="#787878" d="M 259.5,307.5 C 260.167,307.5 260.833,307.5 261.5,307.5C 261.414,308.496 261.748,309.329 262.5,310C 264.32,310.2 265.653,311.034 266.5,312.5C 262.521,313.019 260.187,311.352 259.5,307.5 Z"/></g>
<g><path style="opacity:0.557" fill="#808080" d="M 303.5,310.5 C 301.777,314.209 298.777,316.209 294.5,316.5C 296.946,313.769 299.946,311.769 303.5,310.5 Z"/></g>
<g><path style="opacity:0.296" fill="#737373" d="M 199.5,307.5 C 214.011,315.064 229.345,317.064 245.5,313.5C 245.586,314.496 245.252,315.329 244.5,316C 229.654,318.686 215.321,317.019 201.5,311C 200.177,310.184 199.511,309.017 199.5,307.5 Z"/></g>
<g><path style="opacity:0.407" fill="#6d6d6d" d="M 255.5,311.5 C 256.785,312.785 258.119,314.119 259.5,315.5C 271.079,317.829 282.746,318.162 294.5,316.5C 293.319,318.067 291.653,318.901 289.5,319C 281.167,319.667 272.833,319.667 264.5,319C 261.823,318.751 259.49,317.751 257.5,316C 255.963,314.89 255.297,313.39 255.5,311.5 Z"/></g>
<g><path style="opacity:0.401" fill="#b8b8b8" d="M 206.5,322.5 C 235.664,321.336 264.997,321.17 294.5,322C 298.064,324.994 298.898,328.494 297,332.5C 295.89,334.037 294.39,334.703 292.5,334.5C 292.821,332.952 293.821,332.285 295.5,332.5C 297.287,328.878 296.62,325.878 293.5,323.5C 264.671,322.502 235.671,322.169 206.5,322.5 Z"/></g>
<g><path style="opacity:0.893" fill="#dbdbdb" d="M 206.5,322.5 C 235.671,322.169 264.671,322.502 293.5,323.5C 264.165,323.333 234.831,323.5 205.5,324C 203.957,327.907 204.624,331.407 207.5,334.5C 202.338,332.303 201.171,328.636 204,323.5C 204.671,322.748 205.504,322.414 206.5,322.5 Z"/></g>
<g><path style="opacity:1" fill="#e8e8e8" d="M 293.5,323.5 C 296.62,325.878 297.287,328.878 295.5,332.5C 293.821,332.285 292.821,332.952 292.5,334.5C 264.167,335.833 235.833,335.833 207.5,334.5C 204.624,331.407 203.957,327.907 205.5,324C 234.831,323.5 264.165,323.333 293.5,323.5 Z"/></g>
<g><path style="opacity:0.978" fill="#e7e7e7" d="M 297.5,344.5 C 296.399,343.152 295.399,341.652 294.5,340C 264.502,339.5 234.502,339.333 204.5,339.5C 204.611,338.883 204.944,338.383 205.5,338C 235.167,337.333 264.833,337.333 294.5,338C 296.558,339.49 297.891,341.49 298.5,344C 298.272,344.399 297.938,344.565 297.5,344.5 Z"/></g>
<g><path style="opacity:0.925" fill="#fefefe" d="M 204.5,339.5 C 234.502,339.333 264.502,339.5 294.5,340C 295.399,341.652 296.399,343.152 297.5,344.5C 297.5,344.833 297.5,345.167 297.5,345.5C 295.443,347.168 293.443,348.835 291.5,350.5C 263.5,350.5 235.5,350.5 207.5,350.5C 206.793,348.866 205.627,347.532 204,346.5C 203.506,344.866 203.34,343.199 203.5,341.5C 203.328,340.508 203.662,339.842 204.5,339.5 Z"/></g>
<g><path style="opacity:0.039" fill="#707070" d="M 203.5,341.5 C 203.34,343.199 203.506,344.866 204,346.5C 205.627,347.532 206.793,348.866 207.5,350.5C 202.751,348.933 201.417,345.933 203.5,341.5 Z"/></g>
<g><path style="opacity:0.035" fill="#969696" d="M 297.5,345.5 C 297.032,348.966 295.032,350.632 291.5,350.5C 293.443,348.835 295.443,347.168 297.5,345.5 Z"/></g>
<g><path style="opacity:0.988" fill="#f9f9f9" d="M 285.5,358.5 C 283.637,359.967 282.304,361.967 281.5,364.5C 281.863,365.183 282.196,365.85 282.5,366.5C 282.5,367.5 282.5,368.5 282.5,369.5C 261.156,369.833 239.823,369.5 218.5,368.5C 217.03,364.088 215.363,359.755 213.5,355.5C 213.833,354.5 214.5,353.833 215.5,353.5C 239.371,354.775 263.038,354.775 286.5,353.5C 286.634,355.292 286.301,356.958 285.5,358.5 Z"/></g>
<g><path style="opacity:0.327" fill="#9a9a9a" d="M 285.5,358.5 C 284.871,361.397 283.871,364.064 282.5,366.5C 282.196,365.85 281.863,365.183 281.5,364.5C 282.304,361.967 283.637,359.967 285.5,358.5 Z"/></g>
<g><path style="opacity:0.847" fill="#fefffe" d="M 14.5,390.5 C 16.679,390.84 18.5123,391.84 20,393.5C 25.0075,400.003 30.1742,406.336 35.5,412.5C 41.2859,405.759 46.9526,398.926 52.5,392C 54.6806,389.922 56.6806,390.089 58.5,392.5C 59.8333,408.167 59.8333,423.833 58.5,439.5C 56.3052,440.769 54.1385,440.769 52,439.5C 51.6667,428.167 51.3333,416.833 51,405.5C 46.7597,410.317 42.7597,415.317 39,420.5C 35.4,423.354 32.4,422.687 30,418.5C 26.9088,413.986 23.5755,409.653 20,405.5C 19.6667,416.5 19.3333,427.5 19,438.5C 16.975,440.725 14.6417,441.059 12,439.5C 11.3333,423.833 11.3333,408.167 12,392.5C 12.9947,391.934 13.828,391.267 14.5,390.5 Z"/></g>
<g><path style="opacity:0.901" fill="#fefffe" d="M 73.5,390.5 C 83.5056,390.334 93.5056,390.5 103.5,391C 105.602,392.733 105.935,394.733 104.5,397C 95.5062,397.5 86.5062,397.666 77.5,397.5C 77.5,402.5 77.5,407.5 77.5,412.5C 84.8635,412.169 92.1968,412.503 99.5,413.5C 100.61,415.496 100.276,417.329 98.5,419C 91.5079,419.5 84.5079,419.666 77.5,419.5C 77.5,424.167 77.5,428.833 77.5,433.5C 86.1731,433.334 94.8397,433.5 103.5,434C 105.602,435.733 105.935,437.733 104.5,440C 93.2569,440.82 82.0902,440.653 71,439.5C 70.3333,423.833 70.3333,408.167 71,392.5C 71.9947,391.934 72.828,391.267 73.5,390.5 Z"/></g>
<g><path style="opacity:0.837" fill="#fefffe" d="M 115.5,390.5 C 118.614,391.091 121.114,392.758 123,395.5C 131.242,405.653 139.242,415.986 147,426.5C 147.333,415.167 147.667,403.833 148,392.5C 150.222,389.956 152.389,389.956 154.5,392.5C 155.65,407.789 155.817,423.122 155,438.5C 153.303,442.039 151.137,442.373 148.5,439.5C 139.523,428.022 130.356,416.689 121,405.5C 120.667,416.833 120.333,428.167 120,439.5C 118,440.833 116,440.833 114,439.5C 112.367,424.593 112.033,409.593 113,394.5C 113.662,393.016 114.496,391.683 115.5,390.5 Z"/></g>
<g><path style="opacity:0.821" fill="#fefffe" d="M 163.5,390.5 C 174.838,390.333 186.172,390.5 197.5,391C 200.473,392.224 201.14,394.224 199.5,397C 194.628,398.388 189.628,398.888 184.5,398.5C 184.667,412.171 184.5,425.837 184,439.5C 181.358,441.059 179.025,440.725 177,438.5C 176.5,425.171 176.333,411.837 176.5,398.5C 171.372,398.888 166.372,398.388 161.5,397C 159.933,394.094 160.6,391.928 163.5,390.5 Z"/></g>
<g><path style="opacity:0.901" fill="#fefffe" d="M 209.5,390.5 C 219.506,390.334 229.506,390.5 239.5,391C 241.602,392.733 241.935,394.733 240.5,397C 231.506,397.5 222.506,397.666 213.5,397.5C 213.5,402.5 213.5,407.5 213.5,412.5C 220.863,412.169 228.197,412.503 235.5,413.5C 236.61,415.496 236.276,417.329 234.5,419C 227.508,419.5 220.508,419.666 213.5,419.5C 213.5,424.167 213.5,428.833 213.5,433.5C 222.173,433.334 230.84,433.5 239.5,434C 241.602,435.733 241.935,437.733 240.5,440C 229.257,440.82 218.09,440.653 207,439.5C 206.333,423.833 206.333,408.167 207,392.5C 207.995,391.934 208.828,391.267 209.5,390.5 Z"/></g>
<g><path style="opacity:0.843" fill="#fefffe" d="M 276.5,390.5 C 284.461,389.046 291.294,391.046 297,396.5C 298.293,399.862 297.293,401.862 294,402.5C 291.672,402.183 289.839,401.016 288.5,399C 283.928,396.625 279.762,397.125 276,400.5C 275.056,403.347 275.556,405.847 277.5,408C 283.623,410.815 289.623,413.815 295.5,417C 302.833,428.33 300.167,436.33 287.5,441C 277.396,443.422 270.063,440.089 265.5,431C 266.443,428.019 268.443,427.019 271.5,428C 277.264,435.224 283.764,436.057 291,430.5C 291.667,428.167 291.667,425.833 291,423.5C 285.064,419.96 278.897,416.793 272.5,414C 267.393,409.002 266.227,403.168 269,396.5C 271.114,393.879 273.614,391.879 276.5,390.5 Z"/></g>
<g><path style="opacity:0.847" fill="#fefffe" d="M 311.5,390.5 C 313.679,390.84 315.512,391.84 317,393.5C 322.008,400.003 327.174,406.336 332.5,412.5C 338.286,405.759 343.953,398.926 349.5,392C 351.681,389.922 353.681,390.089 355.5,392.5C 356.833,408.167 356.833,423.833 355.5,439.5C 353.305,440.769 351.139,440.769 349,439.5C 348.667,428.167 348.333,416.833 348,405.5C 343.76,410.317 339.76,415.317 336,420.5C 332.4,423.354 329.4,422.687 327,418.5C 323.909,413.986 320.575,409.653 317,405.5C 316.667,416.5 316.333,427.5 316,438.5C 313.975,440.725 311.642,441.059 309,439.5C 308.333,423.833 308.333,408.167 309,392.5C 309.995,391.934 310.828,391.267 311.5,390.5 Z"/></g>
<g><path style="opacity:0.859" fill="#fefffe" d="M 383.5,390.5 C 385.484,390.383 387.15,391.05 388.5,392.5C 395.109,407.385 401.442,422.385 407.5,437.5C 405.808,441.609 403.308,442.275 400,439.5C 398.963,436.595 397.796,433.761 396.5,431C 388.833,430.333 381.167,430.333 373.5,431C 372.167,434 370.833,437 369.5,440C 366.407,441.026 364.073,440.193 362.5,437.5C 368.744,421.358 375.744,405.692 383.5,390.5 Z M 384.5,402.5 C 387.865,408.897 390.865,415.564 393.5,422.5C 387.833,423.833 382.167,423.833 376.5,422.5C 379.733,416.037 382.4,409.371 384.5,402.5 Z"/></g>
<g><path style="opacity:0.857" fill="#fefffe" d="M 416.5,390.5 C 423.896,390.2 431.229,390.7 438.5,392C 449.754,398.031 452.587,406.864 447,418.5C 445.316,420.351 443.483,422.018 441.5,423.5C 444.528,427.361 447.361,431.361 450,435.5C 451.165,438.814 449.998,440.814 446.5,441.5C 441.365,437.101 437.032,431.935 433.5,426C 429.514,425.501 425.514,425.334 421.5,425.5C 421.666,430.179 421.499,434.845 421,439.5C 418.358,441.059 416.025,440.725 414,438.5C 413.333,423.5 413.333,408.5 414,393.5C 414.698,392.309 415.531,391.309 416.5,390.5 Z M 421.5,397.5 C 429.077,396.347 435.577,398.347 441,403.5C 443.674,410.473 441.507,415.307 434.5,418C 430.179,418.499 425.846,418.666 421.5,418.5C 421.5,411.5 421.5,404.5 421.5,397.5 Z"/></g>
<g><path style="opacity:0.873" fill="#fefffe" d="M 455.5,390.5 C 467.171,390.333 478.838,390.5 490.5,391C 493.623,393.239 493.79,395.406 491,397.5C 486.219,398.419 481.385,398.752 476.5,398.5C 476.667,412.171 476.5,425.837 476,439.5C 474,440.833 472,440.833 470,439.5C 469.5,425.837 469.333,412.171 469.5,398.5C 464.615,398.752 459.781,398.419 455,397.5C 452.315,395.248 452.482,392.915 455.5,390.5 Z"/></g>
</svg>
