<?xml version="1.0" encoding="UTF-8"?>
<svg version="1.1" xmlns="http://www.w3.org/2000/svg" width="256" height="256">
<path d="M0 0 C24.95662457 21.26156132 43.37225034 51.49977598 46.03808594 84.73632812 C47.76592667 118.43950722 41.46744328 149.84458558 20.03808594 176.73632812 C19.62155762 177.2596875 19.2050293 177.78304687 18.77587891 178.32226562 C-1.10162915 203.09102156 -28.5167653 219.54867668 -59.96191406 224.73632812 C-60.96996094 224.919375 -61.97800781 225.10242188 -63.01660156 225.29101562 C-97.69090312 229.20474867 -131.23407711 221.11903837 -158.96191406 199.73632812 C-162.43191711 196.86690253 -165.71230494 193.85161319 -168.96191406 190.73632812 C-169.84492188 189.92808594 -170.72792969 189.11984375 -171.63769531 188.28710938 C-193.7764495 167.33827408 -207.22482609 136.41294554 -208.24316406 106.04101562 C-208.4966996 93.05631129 -208.39576937 80.31944891 -204.96191406 67.73632812 C-204.74148437 66.92679687 -204.52105469 66.11726563 -204.29394531 65.28320312 C-194.73586506 31.5012052 -172.68062566 3.66816792 -142.03222656 -13.50195312 C-96.53202868 -37.95344233 -39.91372843 -32.74278739 0 0 Z M-38.14572144 43.42245483 C-38.73410797 44.02522247 -39.32249451 44.62799011 -39.92871094 45.24902344 C-40.57361481 45.8933432 -41.21851868 46.53766296 -41.88296509 47.20150757 C-43.99183145 49.3131392 -46.08620809 51.43853594 -48.18066406 53.56445312 C-49.64808905 55.03934599 -51.11640531 56.51335259 -52.58557129 57.98651123 C-56.4347556 61.85090855 -60.27177127 65.72716933 -64.10632324 69.6060791 C-68.02742967 73.56823147 -71.95999938 77.51897026 -75.89160156 81.47070312 C-83.59292733 89.21482332 -91.2814379 96.97153307 -98.96191406 104.73632812 C-100.06851205 103.79700703 -101.17378731 102.85612754 -102.27851868 101.91461182 C-103.20198577 101.12894018 -103.20198577 101.12894018 -104.14410877 100.32739639 C-106.80790963 97.9958546 -109.28279744 95.50214113 -111.75488281 92.97070312 C-112.8074872 91.9054705 -113.86022539 90.84037007 -114.91308594 89.77539062 C-116.54091395 88.12264813 -118.16706595 86.46831653 -119.79077148 84.81152344 C-121.37857909 83.19351491 -122.97255227 81.58178546 -124.56738281 79.97070312 C-125.04974899 79.47487732 -125.53211517 78.97905151 -126.02909851 78.46820068 C-130.09876279 74.36848761 -133.04084943 72.45160951 -138.83691406 72.36132812 C-140.07054687 72.31878906 -140.07054687 72.31878906 -141.32910156 72.27539062 C-147.69456033 73.38981812 -152.29880359 78.70836273 -156.71191406 83.11132812 C-157.57623047 83.93890625 -157.57623047 83.93890625 -158.45800781 84.78320312 C-163.04128369 89.33442812 -164.91769071 92.99448054 -165.02441406 99.61132812 C-163.59987452 108.26853697 -153.40576541 115.38637649 -147.46191406 121.23632812 C-142.39868736 126.21956704 -137.47718276 131.22237942 -132.84716797 136.61083984 C-128.87366863 141.09067477 -124.62045634 145.30402206 -120.39941406 149.54882812 C-119.01979492 150.95938477 -119.01979492 150.95938477 -117.61230469 152.3984375 C-116.26749023 153.75098633 -116.26749023 153.75098633 -114.89550781 155.13085938 C-114.09169678 155.94401611 -113.28788574 156.75717285 -112.4597168 157.5949707 C-108.80184596 160.73085039 -104.89099443 163.17294163 -99.96191406 163.11132812 C-99.34316406 163.1190625 -98.72441406 163.12679687 -98.08691406 163.13476562 C-90.73042043 161.75542307 -86.11221051 156.3185368 -81.06665039 151.24511719 C-79.75583244 149.94459412 -79.75583244 149.94459412 -78.41853333 148.61779785 C-76.03280938 146.24720391 -73.65402616 143.87006232 -71.27872682 141.48904896 C-69.29100947 139.49823336 -67.29870765 137.51203743 -65.30642813 135.52578902 C-60.60474704 130.83813661 -55.91089134 126.14274984 -51.22192383 121.44238281 C-46.39276868 116.60174671 -41.55097232 111.77402919 -36.70269567 106.95255113 C-32.53222221 102.80426454 -28.36958521 98.64822836 -24.2131235 94.48590255 C-21.73422067 92.00363626 -19.25254082 89.52432478 -16.76334572 87.05237579 C-13.9871561 84.29458552 -11.22740984 81.52069073 -8.46899414 78.74511719 C-7.64763977 77.93343079 -6.8262854 77.12174438 -5.9800415 76.28546143 C-1.75601556 72.00624993 1.26941291 68.53091994 3.03808594 62.73632812 C2.89155682 54.38416816 -2.17914773 49.15831369 -7.77441406 43.54882812 C-8.27005859 43.02869141 -8.76570312 42.50855469 -9.27636719 41.97265625 C-12.88480514 38.33635391 -16.09342358 36.38177613 -20.96191406 34.73632812 C-28.17160553 34.73632812 -33.15351719 38.47872118 -38.14572144 43.42245483 Z " fill="#FDD702" transform="translate(208.9619140625,29.263671875)"/>
<path d="M0 0 C0.99 0.495 0.99 0.495 2 1 C-14.36172224 14.29389932 -34.26641497 22.5794847 -55 26 C-56.00804687 26.18304688 -57.01609375 26.36609375 -58.0546875 26.5546875 C-84.07608204 29.49175579 -108.20246572 25.49340094 -132 15 C-128.13290761 13.60784674 -124.96417257 14.12653825 -121 15 C-118.53378404 16.17635406 -116.32958934 17.54950098 -114 19 C-103.09342803 25.33284824 -88.58952264 24.23800097 -76.4375 24.25 C-75.37409897 24.25151062 -75.37409897 24.25151062 -74.28921509 24.25305176 C-60.22610066 24.23954729 -47.26918358 23.21187619 -34.1015625 17.76953125 C-32 17 -32 17 -29 17 C-29 16.34 -29 15.68 -29 15 C-27.58398286 14.51891725 -26.16715563 14.04021859 -24.75 13.5625 C-23.96109375 13.29566406 -23.1721875 13.02882812 -22.359375 12.75390625 C-20.25178012 12.08045292 -18.15246027 11.50849405 -16 11 C-16 10.34 -16 9.68 -16 9 C-14.68 9 -13.36 9 -12 9 C-12 8.34 -12 7.68 -12 7 C-10.02 6.34 -8.04 5.68 -6 5 C-6 4.34 -6 3.68 -6 3 C-4.03533587 1.93224776 -2.03144641 0.93446535 0 0 Z " fill="#DFD556" transform="translate(204,228)"/>
<path d="M0 0 C13.59795328 20.39692992 14.11573836 53.84934534 9.54907227 76.89794922 C6.30242729 91.15626456 1.53540318 111.95992686 -10 122 C-10 120.02 -10 118.04 -10 116 C-9.01 116 -8.02 116 -7 116 C-7 114.68 -7 113.36 -7 112 C-6.34 112 -5.68 112 -5 112 C-4.71125 110.948125 -4.4225 109.89625 -4.125 108.8125 C-3.22774807 105.77181289 -2.23576581 102.91287656 -1 100 C-0.34 100 0.32 100 1 100 C1.10957031 99.40574219 1.21914062 98.81148438 1.33203125 98.19921875 C2.2202734 93.55580652 3.23241564 88.99308237 4.5 84.4375 C11.49127979 59.29714036 11.07865719 30.56181082 0.84375 6.25390625 C0 4 0 4 0 0 Z " fill="#D9D668" transform="translate(244,76)"/>
<path d="M0 0 C1.78567383 -0.01836914 1.78567383 -0.01836914 3.60742188 -0.03710938 C11.68661403 -0.05028913 19.36840124 0.72496382 27.3125 2.1875 C27.3125 2.5175 27.3125 2.8475 27.3125 3.1875 C26.07274414 3.17702637 24.83298828 3.16655273 23.55566406 3.15576172 C18.90383861 3.11923681 14.25202552 3.09648264 9.60009766 3.07763672 C7.59649516 3.06765252 5.59290695 3.05406045 3.58935547 3.03662109 C-9.60666911 2.9247346 -21.98404031 3.00851625 -34.625 7.3125 C-38.49512516 8.62652019 -41.59101031 9.4138254 -45.6875 9.1875 C-45.6875 10.1775 -45.6875 11.1675 -45.6875 12.1875 C-48.9875 12.5175 -52.2875 12.8475 -55.6875 13.1875 C-52.6455544 10.1455544 -48.87248064 9.20453741 -44.875 7.75 C-44.0193042 7.43724121 -43.1636084 7.12448242 -42.28198242 6.80224609 C-28.25635909 1.783602 -14.85855725 0.00791612 0 0 Z " fill="#D2D264" transform="translate(127.6875,0.8125)"/>
<path d="M0 0 C0 0.66 0 1.32 0 2 C-3.0783517 4.32753421 -5.70187029 5.88018428 -9.3046875 7.328125 C-13.18204343 8.95953596 -16.28670731 11.20227923 -19.5625 13.8125 C-20.12751221 14.25609863 -20.69252441 14.69969727 -21.2746582 15.15673828 C-26.4576972 19.27345349 -31.0840045 22.97360931 -34 29 C-35.6436814 30.68933922 -37.3142876 32.35259924 -39 34 C-40.51657648 35.73100246 -41.99898073 37.48631207 -43.47265625 39.25390625 C-45 41 -45 41 -46.94921875 42.82421875 C-49.397354 45.42157368 -50.9954125 48.14572981 -52.75 51.25 C-53.36359375 52.32765625 -53.9771875 53.4053125 -54.609375 54.515625 C-55.06828125 55.33546875 -55.5271875 56.1553125 -56 57 C-56.66 56.67 -57.32 56.34 -58 56 C-48.42331649 39.22382393 -22.8106327 0 0 0 Z " fill="#D8DA66" transform="translate(72,14)"/>
<path d="M0 0 C0.66 0.33 1.32 0.66 2 1 C-2.32659994 7.34992168 -6.92205756 13.23089614 -12.125 18.875 C-12.61516602 19.40955811 -13.10533203 19.94411621 -13.61035156 20.49487305 C-16.8613157 23.96818573 -20.22308324 27.10044068 -24 30 C-24.66 30 -25.32 30 -26 30 C-26 29.01 -26 28.02 -26 27 C-24.68 26.34 -23.36 25.68 -22 25 C-22 24.01 -22 23.02 -22 22 C-22 21.34 -22 20.68 -22 20 C-21.071875 19.87625 -21.071875 19.87625 -20.125 19.75 C-17.82027141 19.20605562 -17.82027141 19.20605562 -16.9375 17 C-16.628125 16.34 -16.31875 15.68 -16 15 C-15.01 14.67 -14.02 14.34 -13 14 C-12.34 14.33 -11.68 14.66 -11 15 C-11 13.68 -11 12.36 -11 11 C-10.01 10.67 -9.02 10.34 -8 10 C-7.67 9.34 -7.34 8.68 -7 8 C-6.34 8 -5.68 8 -5 8 C-5 6.68 -5 5.36 -5 4 C-4.01 3.67 -3.02 3.34 -2 3 C-1.34 2.01 -0.68 1.02 0 0 Z " fill="#FADA29" transform="translate(232,198)"/>
<path d="M0 0 C7.15990675 0.2589478 12.02991399 0.97932983 18 5 C32.52248209 13.43240896 53.87052416 11.55246435 70 12 C70 12.33 70 12.66 70 13 C44.60787336 13.52546585 23.33499856 11.28944818 0 1 C0 0.67 0 0.34 0 0 Z " fill="#C8D27A" transform="translate(72,242)"/>
<path d="M0 0 C0.33 0 0.66 0 1 0 C1.40431421 6.19948452 0.00096039 11.15800543 -2 17 C-2.3103418 17.9182959 -2.62068359 18.8365918 -2.94042969 19.78271484 C-9.98036828 39.89032054 -9.98036828 39.89032054 -17 46 C-17 44.02 -17 42.04 -17 40 C-16.01 40 -15.02 40 -14 40 C-14 38.68 -14 37.36 -14 36 C-13.34 36 -12.68 36 -12 36 C-11.71125 34.948125 -11.4225 33.89625 -11.125 32.8125 C-10.22774807 29.77181289 -9.23576581 26.91287656 -8 24 C-7.34 24 -6.68 24 -6 24 C-5.89042969 23.40574219 -5.78085938 22.81148437 -5.66796875 22.19921875 C-4.22870368 14.67525585 -2.42374054 7.27122163 0 0 Z " fill="#DED358" transform="translate(251,152)"/>
<path d="M0 0 C2.97 0.495 2.97 0.495 6 1 C6.33 2.32 6.66 3.64 7 5 C7.99 5 8.98 5 10 5 C10 6.32 10 7.64 10 9 C10.66 9 11.32 9 12 9 C13.68541577 10.64770423 15.34875895 12.31804918 17 14 C23.8627187 19.66878037 30.84548713 24.40984942 39 28 C39 28.66 39 29.32 39 30 C23.53000755 24.17765739 11.06446203 12.98471709 0 1 C0 0.67 0 0.34 0 0 Z " fill="#DCD96D" transform="translate(33,212)"/>
<path d="M0 0 C4.44554342 3.62901503 8.24958908 7.33003633 11.95703125 11.69921875 C16.08121055 16.34384898 20.57358976 20.64562898 25 25 C21.42188369 25 20.73324619 24.13534858 18 22 C17.01 21.67 16.02 21.34 15 21 C15 20.01 15 19.02 15 18 C14.01 18 13.02 18 12 18 C12 16.68 12 15.36 12 14 C10.68 13.67 9.36 13.34 8 13 C8 12.34 8 11.68 8 11 C7.34 11 6.68 11 6 11 C5.67 9.35 5.34 7.7 5 6 C3.68 6 2.36 6 1 6 C0.67 4.02 0.34 2.04 0 0 Z " fill="#DBCE40" transform="translate(65,154)"/>
<path d="M0 0 C1.2065625 0.0309375 1.2065625 0.0309375 2.4375 0.0625 C2.05078125 0.50980469 1.6640625 0.95710938 1.265625 1.41796875 C0.18238607 2.67549117 -0.89410356 3.93884961 -1.96484375 5.20703125 C-3.21780144 6.66217771 -4.53540263 8.0616973 -5.875 9.4375 C-8.27845699 13.17621087 -8.78052444 16.64750518 -8.5625 21.0625 C-7.23548898 24.47481406 -5.58890652 27.02289021 -3.5625 30.0625 C-5.5425 30.0625 -7.5225 30.0625 -9.5625 30.0625 C-9.2325 28.4125 -8.9025 26.7625 -8.5625 25.0625 C-9.2225 25.0625 -9.8825 25.0625 -10.5625 25.0625 C-10.61691656 23.16698978 -10.65548035 21.2710208 -10.6875 19.375 C-10.71070313 18.31925781 -10.73390625 17.26351562 -10.7578125 16.17578125 C-10.56015589 13.02513492 -9.83418969 10.92129848 -8.5625 8.0625 C-8.5625 7.4025 -8.5625 6.7425 -8.5625 6.0625 C-7.2425 6.0625 -5.9225 6.0625 -4.5625 6.0625 C-4.418125 5.258125 -4.27375 4.45375 -4.125 3.625 C-3.347189 0.08163876 -3.347189 0.08163876 0 0 Z " fill="#EFDA42" transform="translate(53.5625,108.9375)"/>
<path d="M0 0 C4.91377502 3.90860316 8.85586832 7.95588987 12.5 13.0625 C12.96704346 13.70791748 13.43408691 14.35333496 13.9152832 15.01831055 C25 30.64541172 25 30.64541172 25 36 C23.515 35.505 23.515 35.505 22 35 C22 34.34 22 33.68 22 33 C21.34 33 20.68 33 20 33 C20 31.35 20 29.7 20 28 C19.34 28 18.68 28 18 28 C17.60554688 26.99453125 17.21109375 25.9890625 16.8046875 24.953125 C15.04442011 20.85477677 12.72549284 17.35789097 10.125 13.75 C9.70347656 13.13898437 9.28195313 12.52796875 8.84765625 11.8984375 C6.76458473 8.98086332 5.31355767 7.18587629 2.1796875 5.328125 C1.10074219 4.67070313 1.10074219 4.67070313 0 4 C0 2.68 0 1.36 0 0 Z " fill="#D9D75E" transform="translate(219,40)"/>
<path d="M0 0 C6.15591777 0.54750466 11.41823377 1.94256091 17.1875 4.125 C18.01032471 4.43123291 18.83314941 4.73746582 19.6809082 5.05297852 C26.81479543 7.78160179 33.42633026 11.11716814 40 15 C37 16 37 16 35.23828125 15.36328125 C34.60277344 15.01652344 33.96726563 14.66976563 33.3125 14.3125 C32.59835938 13.93609375 31.88421875 13.5596875 31.1484375 13.171875 C29.83874998 12.45749999 28.530944 11.73964293 27.2265625 11.015625 C20.49528456 7.42952933 13.2389896 5.31836922 6 3 C3.99909849 2.33604397 1.99876659 1.67035556 0 1 C0 0.67 0 0.34 0 0 Z " fill="#D3D668" transform="translate(155,4)"/>
<path d="M0 0 C-0.98742187 0.27585938 -1.97484375 0.55171875 -2.9921875 0.8359375 C-5.682106 1.60351867 -8.34822632 2.42233966 -11.0078125 3.2890625 C-11.68457031 3.50820312 -12.36132812 3.72734375 -13.05859375 3.953125 C-14.44556897 4.40408859 -15.83098074 4.85988705 -17.21484375 5.3203125 C-20.9155801 6.50907676 -24.10547509 7.28792208 -28 7 C-28 7.99 -28 8.98 -28 10 C-31.3 10.33 -34.6 10.66 -38 11 C-35.94482446 8.94482446 -34.77152119 8.37924898 -32.10546875 7.37890625 C-31.32051025 7.08435547 -30.53555176 6.78980469 -29.72680664 6.48632812 C-28.88883545 6.18146484 -28.05086426 5.87660156 -27.1875 5.5625 C-25.90830688 5.09553711 -25.90830688 5.09553711 -24.60327148 4.61914062 C-5.98274239 -2.03667826 -5.98274239 -2.03667826 0 0 Z " fill="#D9D968" transform="translate(110,3)"/>
<path d="M0 0 C0.99 0.495 0.99 0.495 2 1 C2.63277787 3.18923149 3.17927935 5.40354684 3.6875 7.625 C5.93868088 16.80999602 9.53187844 25.7711398 14.77734375 33.6796875 C16 36 16 36 15.6875 38.3125 C15.460625 38.869375 15.23375 39.42625 15 40 C10.80133468 31.98630376 6.78456788 23.96273196 3.5625 15.5 C3.19294189 14.55060547 3.19294189 14.55060547 2.81591797 13.58203125 C1.13759489 9.0301614 0.46135039 4.7938018 0 0 Z " fill="#D2D667" transform="translate(4,155)"/>
<path d="M0 0 C0 3 0 3 -1.4375 4.5 C-1.953125 4.995 -2.46875 5.49 -3 6 C-3.33 6.99 -3.66 7.98 -4 9 C-4.66 9 -5.32 9 -6 9 C-6 9.99 -6 10.98 -6 12 C-7.49609375 13.31640625 -7.49609375 13.31640625 -9.4375 14.5625 C-12.23259721 16.30536929 -12.23259721 16.30536929 -14 19 C-16.5625 19.625 -16.5625 19.625 -19 20 C-13.17371096 12.84198775 -6.5617015 6.47408234 0 0 Z " fill="#E8DB51" transform="translate(185,122)"/>
<path d="M0 0 C0.65355469 0.59748047 0.65355469 0.59748047 1.3203125 1.20703125 C6.77788425 6.06214378 11.28214014 9.57113965 18.96484375 9.3046875 C22.30873865 8.804066 24.98512531 7.50743734 28 6 C27.375 7.875 27.375 7.875 26 10 C20.57588951 12.58290976 14.70093469 12.90031156 9 11 C7.29006566 9.3777546 5.62652316 7.70586575 4 6 C3.236875 5.278125 2.47375 4.55625 1.6875 3.8125 C0 2 0 2 0 0 Z " fill="#E3DB69" transform="translate(92,182)"/>
<path d="M0 0 C3.13186511 1.37817497 5.13617198 2.9439119 7.4609375 5.44140625 C8.09773438 6.10720703 8.73453125 6.77300781 9.390625 7.45898438 C10.71182519 8.85950859 12.02697001 10.26577044 13.3359375 11.67773438 C17.27485475 15.80628198 17.27485475 15.80628198 22.4765625 17.96484375 C23.30929688 17.97644531 24.14203125 17.98804688 25 18 C23.68 19.32 22.36 20.64 21 22 C18.00611124 19.03075698 15.01546454 16.05829855 12.02783203 13.08276367 C11.01017212 12.0701449 9.99161821 11.05842377 8.97216797 10.04760742 C7.51035593 8.5978706 6.05174758 7.14497792 4.59375 5.69140625 C3.71396484 4.81685791 2.83417969 3.94230957 1.92773438 3.04125977 C0 1 0 1 0 0 Z " fill="#E1D965" transform="translate(88,113)"/>
<path d="M0 0 C7.15873053 0.25890526 12.04580564 0.95114784 18 5 C18.969375 5.5775 19.93875 6.155 20.9375 6.75 C21.618125 7.1625 22.29875 7.575 23 8 C21 9 21 9 19.06054688 8.50268555 C18.28775391 8.2169165 17.51496094 7.93114746 16.71875 7.63671875 C15.87699219 7.32669922 15.03523438 7.01667969 14.16796875 6.69726562 C12.84732422 6.19743164 12.84732422 6.19743164 11.5 5.6875 C10.17935547 5.20506836 10.17935547 5.20506836 8.83203125 4.71289062 C2.26353594 2.26353594 2.26353594 2.26353594 0 0 Z " fill="#DFDA59" transform="translate(72,242)"/>
<path d="M0 0 C0 3.46551464 -0.39192151 3.79933951 -2.625 6.25 C-4.83627297 8.70581374 -6.97374919 11.18924577 -9.0625 13.75 C-11.4234741 16.5013714 -13.63401958 18.5040087 -17 20 C-17.66 19.67 -18.32 19.34 -19 19 C-12.73 12.73 -6.46 6.46 0 0 Z " fill="#DDD452" transform="translate(151,156)"/>
<path d="M0 0 C0.33 0.66 0.66 1.32 1 2 C0.34773438 2.02578125 -0.30453125 2.0515625 -0.9765625 2.078125 C-6.78645463 2.45516815 -10.33532952 3.24550913 -15 7 C-15.99 7.66 -16.98 8.32 -18 9 C-17.67 7.02 -17.34 5.04 -17 3 C-15.68 3 -14.36 3 -13 3 C-13 2.34 -13 1.68 -13 1 C-8.59085217 -0.10228696 -4.51617599 -0.07654536 0 0 Z " fill="#ECDD55" transform="translate(74,100)"/>
<path d="M0 0 C0.66 0.33 1.32 0.66 2 1 C-6.261959 12.70615034 -6.261959 12.70615034 -11 17 C-11 15.02 -11 13.04 -11 11 C-10.01 10.67 -9.02 10.34 -8 10 C-7.67 9.34 -7.34 8.68 -7 8 C-6.34 8 -5.68 8 -5 8 C-5 6.68 -5 5.36 -5 4 C-4.01 3.67 -3.02 3.34 -2 3 C-1.34 2.01 -0.68 1.02 0 0 Z " fill="#E5D644" transform="translate(232,198)"/>
<path d="M0 0 C0.33 0.66 0.66 1.32 1 2 C-0.71979609 5.43959219 -2.13422508 8.1678646 -4.91015625 10.8359375 C-7.40417654 13.41853047 -8.98539311 16.1280032 -10.75 19.25 C-11.36359375 20.32765625 -11.9771875 21.4053125 -12.609375 22.515625 C-13.06828125 23.33546875 -13.5271875 24.1553125 -14 25 C-14.66 24.67 -15.32 24.34 -16 24 C-11.12184009 15.6042554 -6.27950886 7.45060697 0 0 Z " fill="#DADA75" transform="translate(30,46)"/>
<path d="M0 0 C0 0.99 0 1.98 0 3 C-0.66 3.66 -1.32 4.32 -2 5 C-2.268125 5.598125 -2.53625 6.19625 -2.8125 6.8125 C-4.98827139 10.82049994 -8.24897073 13.49931382 -12 16 C-10.69425949 10.88209754 -8.68383644 8.2385115 -4.875 4.625 C-3.96492188 3.75101563 -3.05484375 2.87703125 -2.1171875 1.9765625 C-1.06917969 0.99816406 -1.06917969 0.99816406 0 0 Z " fill="#D1CC42" transform="translate(42,34)"/>
<path d="M0 0 C1.98 0 3.96 0 6 0 C6.33 0.66 6.66 1.32 7 2 C6.34 2 5.68 2 5 2 C6.35225523 9.68636026 6.35225523 9.68636026 9 17 C4.8602102 13.57396707 3.64731137 9.92243929 2 5 C1.33933281 3.33094605 0.67561748 1.6630584 0 0 Z " fill="#ECD82D" transform="translate(16,185)"/>
<path d="M0 0 C2.81631641 2.49493496 4.40955981 5.26562818 6.1875 8.5625 C6.71730469 9.53316406 7.24710938 10.50382812 7.79296875 11.50390625 C9 14 9 14 9 16 C8.01 15.67 7.02 15.34 6 15 C6 14.34 6 13.68 6 13 C5.34 13 4.68 13 4 13 C4 11.35 4 9.7 4 8 C3.34 8 2.68 8 2 8 C1.34 5.36 0.68 2.72 0 0 Z " fill="#E7DB62" transform="translate(235,60)"/>
<path d="M0 0 C6.96175949 3.32953715 11.73058808 8.44432224 17 14 C13.45459812 14 12.93992636 13.40614728 10.375 11.125 C9.76398438 10.59132813 9.15296875 10.05765625 8.5234375 9.5078125 C7 8 7 8 6 6 C4.7625 5.566875 4.7625 5.566875 3.5 5.125 C1 4 1 4 0.1875 1.875 C0.125625 1.25625 0.06375 0.6375 0 0 Z " fill="#CFCD4F" transform="translate(202,25)"/>
<path d="M0 0 C6.16356805 1.6658292 11.48259656 4.87805286 17 8 C14 9 14 9 12.16796875 8.328125 C11.51441406 7.97234375 10.86085937 7.6165625 10.1875 7.25 C9.49011719 6.87875 8.79273438 6.5075 8.07421875 6.125 C7.38972656 5.75375 6.70523438 5.3825 6 5 C4.845 4.4225 3.69 3.845 2.5 3.25 C1.675 2.8375 0.85 2.425 0 2 C0 1.34 0 0.68 0 0 Z " fill="#E6DE70" transform="translate(178,11)"/>
<path d="M0 0 C0.33 0.66 0.66 1.32 1 2 C0.67 2.99 0.34 3.98 0 5 C-0.66 5 -1.32 5 -2 5 C-2 5.66 -2 6.32 -2 7 C-4.88229224 8.92152816 -7.90127153 10.46387819 -11 12 C-7.49102731 7.81576108 -3.91939465 3.80411834 0 0 Z " fill="#F2E269" transform="translate(131,176)"/>
<path d="M0 0 C2.97 0.495 2.97 0.495 6 1 C6.33 2.32 6.66 3.64 7 5 C7.99 5 8.98 5 10 5 C10 5.99 10 6.98 10 8 C6.40094092 7.44449305 5.00090201 6.25112752 2.75 3.4375 C2.22921875 2.79683594 1.7084375 2.15617188 1.171875 1.49609375 C0.78515625 1.00238281 0.3984375 0.50867188 0 0 Z " fill="#DCD036" transform="translate(33,212)"/>
<path d="M0 0 C0.66 0.33 1.32 0.66 2 1 C0.75312408 1.96239452 -0.49764969 2.91974009 -1.75 3.875 C-2.44609375 4.40867188 -3.1421875 4.94234375 -3.859375 5.4921875 C-5.84722603 6.89238914 -7.79843386 7.97855265 -10 9 C-10 8.01 -10 7.02 -10 6 C-8.68 5.67 -7.36 5.34 -6 5 C-6 4.34 -6 3.68 -6 3 C-4.03533587 1.93224776 -2.03144641 0.93446535 0 0 Z " fill="#E8DB5F" transform="translate(204,228)"/>
<path d="M0 0 C2.30104014 2.12251117 3.81894459 4.15548556 5.25 6.9375 C5.78367187 7.94103516 5.78367187 7.94103516 6.328125 8.96484375 C7 11 7 11 6 15 C3.69 10.38 1.38 5.76 -1 1 C-0.67 0.67 -0.34 0.34 0 0 Z " fill="#E1DA6E" transform="translate(13,180)"/>
<path d="M0 0 C0 0.66 0 1.32 0 2 C-3.93281242 5.0900669 -7.02125936 6.52583422 -12 7 C-9.20232475 3.70861735 -4.40323273 0 0 0 Z " fill="#E6DD64" transform="translate(72,14)"/>
<path d="M0 0 C0.33 0.99 0.66 1.98 1 3 C0 5 0 5 -1.9375 5.9375 C-4.31971493 6.95345922 -4.31971493 6.95345922 -6 10 C-6.99 9.67 -7.98 9.34 -9 9 C-6.03 6.03 -3.06 3.06 0 0 Z " fill="#ECDF61" transform="translate(203,104)"/>
<path d="M0 0 C3.59905908 0.55550695 4.99909799 1.74887248 7.25 4.5625 C8.03117187 5.52349609 8.03117187 5.52349609 8.828125 6.50390625 C9.21484375 6.99761719 9.6015625 7.49132812 10 8 C6.66666667 6.33333333 3.33333333 4.66666667 0 3 C0 2.01 0 1.02 0 0 Z " fill="#D9D049" transform="translate(80,172)"/>
<path d="M0 0 C0.33 0.99 0.66 1.98 1 3 C-0.65 4.65 -2.3 6.3 -4 8 C-4.99 7.67 -5.98 7.34 -7 7 C-4.69 4.69 -2.38 2.38 0 0 Z " fill="#ECDC55" transform="translate(193,114)"/>
<path d="M0 0 C0.33 0 0.66 0 1 0 C1.3125 2.6875 1.3125 2.6875 1 6 C-1.3125 8.875 -1.3125 8.875 -4 11 C-4.99 11 -5.98 11 -7 11 C-6.21625 10.113125 -5.4325 9.22625 -4.625 8.3125 C-2.42843009 5.69279481 -1.06209659 3.28284399 0 0 Z " fill="#E8E070" transform="translate(211,92)"/>
<path d="M0 0 C0.33 0 0.66 0 1 0 C1.17835515 4.54805635 0.99785435 7.8794254 -1 12 C-1.33 12 -1.66 12 -2 12 C-2.17835515 7.45194365 -1.99785435 4.1205746 0 0 Z " fill="#EBD741" transform="translate(251,152)"/>
<path d="M0 0 C2.475 0.99 2.475 0.99 5 2 C3.35 3.65 1.7 5.3 0 7 C-0.38133299 5.0085944 -0.71325582 3.00720923 -1 1 C-0.67 0.67 -0.34 0.34 0 0 Z " fill="#F8DE3E" transform="translate(116,121)"/>
<path d="M0 0 C0.66 0.33 1.32 0.66 2 1 C-0.97 3.97 -3.94 6.94 -7 10 C-7.33 9.01 -7.66 8.02 -8 7 C-5.36 4.69 -2.72 2.38 0 0 Z " fill="#F3E474" transform="translate(166,76)"/>
<path d="M0 0 C0.99 0 1.98 0 3 0 C3 0.66 3 1.32 3 2 C-2.47619048 7 -2.47619048 7 -5 7 C-5 6.01 -5 5.02 -5 4 C-4.360625 3.71125 -3.72125 3.4225 -3.0625 3.125 C-0.84793921 2.17176549 -0.84793921 2.17176549 0 0 Z " fill="#DFD855" transform="translate(211,221)"/>
<path d="M0 0 C2.31 1.98 4.62 3.96 7 6 C6.34 6.66 5.68 7.32 5 8 C5 7.34 5 6.68 5 6 C3.68 6 2.36 6 1 6 C0.67 4.02 0.34 2.04 0 0 Z " fill="#EEE465" transform="translate(65,154)"/>
<path d="M0 0 C0.66 0.33 1.32 0.66 2 1 C-0.75 7.75 -0.75 7.75 -3 10 C-3 8.02 -3 6.04 -3 4 C-2.01 4 -1.02 4 0 4 C0 2.68 0 1.36 0 0 Z " fill="#EDD73E" transform="translate(237,188)"/>
<path d="M0 0 C1.32 0 2.64 0 4 0 C3.71125 0.53625 3.4225 1.0725 3.125 1.625 C1.83288192 4.35280484 0.91441408 7.12612718 0 10 C-0.33 10 -0.66 10 -1 10 C-0.67 6.7 -0.34 3.4 0 0 Z " fill="#E6D954" transform="translate(45,115)"/>
<path d="M0 0 C0.99 0.33 1.98 0.66 3 1 C3 1.66 3 2.32 3 3 C3.99 3 4.98 3 6 3 C6 4.65 6 6.3 6 8 C1.125 3.375 1.125 3.375 0 0 Z " fill="#DFD857" transform="translate(25,202)"/>
<path d="M0 0 C0.33 0.66 0.66 1.32 1 2 C1.66 2.33 2.32 2.66 3 3 C0.6875 4.5625 0.6875 4.5625 -2 6 C-2.99 5.67 -3.98 5.34 -5 5 C-3.35 3.35 -1.7 1.7 0 0 Z " fill="#F2D90B" transform="translate(149,160)"/>
<path d="M0 0 C0 3.16880694 -0.2058242 4.43689172 -2 7 C-4.625 7.75 -4.625 7.75 -7 8 C-6.02133662 6.85373678 -5.04205413 5.70800212 -4.0625 4.5625 C-3.51722656 3.92441406 -2.97195312 3.28632813 -2.41015625 2.62890625 C-1.63204305 1.73008851 -0.84063472 0.84063472 0 0 Z " fill="#DCD85E" transform="translate(159,148)"/>
<path d="M0 0 C2.31 0.33 4.62 0.66 7 1 C6.67 2.65 6.34 4.3 6 6 C3.97945196 4.35830472 1.97956942 2.69088222 0 1 C0 0.67 0 0.34 0 0 Z " fill="#F2DF4F" transform="translate(199,71)"/>
<path d="M0 0 C0.33 0.66 0.66 1.32 1 2 C0.22265625 3.7265625 0.22265625 3.7265625 -0.9375 5.625 C-1.618125 6.73875 -2.29875 7.8525 -3 9 C-3.66 9 -4.32 9 -5 9 C-3.7508258 5.54074837 -2.32472205 2.85306797 0 0 Z " fill="#D9D95A" transform="translate(30,46)"/>
<path d="M0 0 C0.99 0.33 1.98 0.66 3 1 C1.35 2.98 -0.3 4.96 -2 7 C-2.33 6.34 -2.66 5.68 -3 5 C-1.5625 2.375 -1.5625 2.375 0 0 Z " fill="#E9D830" transform="translate(33,43)"/>
<path d="M0 0 C6.875 3.75 6.875 3.75 8 6 C5.69 5.34 3.38 4.68 1 4 C0.67 2.68 0.34 1.36 0 0 Z " fill="#DAD759" transform="translate(202,25)"/>
</svg>
