<?xml version="1.0" encoding="UTF-8"?>
<svg version="1.1" xmlns="http://www.w3.org/2000/svg" width="256" height="256">
<path d="M0 0 C2.54565964 2.2459352 5.02208281 4.5500251 7.48828125 6.8828125 C8.81666016 8.09710938 8.81666016 8.09710938 10.171875 9.3359375 C32.29881767 30.30160801 45.75093368 61.1984525 46.76953125 91.578125 C47.48897535 128.42411848 36.58101077 161.03909157 11.22485352 188.19091797 C-4.28068167 204.1888868 -23.85451533 215.19274017 -45.07421875 221.6328125 C-45.72181152 221.83165039 -46.3694043 222.03048828 -47.03662109 222.23535156 C-57.94216714 225.37274773 -68.95727441 226.25027229 -80.26171875 226.1953125 C-81.48745605 226.18967285 -82.71319336 226.1840332 -83.97607422 226.17822266 C-114.01757798 225.777775 -143.30311321 214.53353772 -165.34375 193.89453125 C-167.59567559 191.74553699 -167.59567559 191.74553699 -170.57421875 189.5078125 C-185.88300924 175.82761675 -196.95611006 155.17341878 -202.88671875 135.6953125 C-203.12543701 134.91269043 -203.36415527 134.13006836 -203.61010742 133.32373047 C-206.83461507 122.05602959 -207.88104017 110.82016691 -207.82421875 99.1328125 C-207.8185791 97.9070752 -207.81293945 96.68133789 -207.80712891 95.41845703 C-207.37992482 63.36969141 -194.65173136 33.97745252 -172.51171875 10.8828125 C-171.70347656 9.99980469 -170.89523438 9.11679687 -170.0625 8.20703125 C-126.21209106 -38.13413336 -48.21985589 -40.64566391 0 0 Z M-36.63456726 42.50798035 C-37.23589981 43.123694 -37.83723236 43.73940765 -38.45678711 44.3737793 C-39.11129852 45.0277066 -39.76580994 45.68163391 -40.44015503 46.3553772 C-42.58691736 48.50491147 -44.71918649 50.66823283 -46.8515625 52.83203125 C-48.3428382 54.33077245 -49.83500337 55.82862909 -51.32801819 57.32563782 C-55.24461007 61.25746146 -59.14903772 65.20115064 -63.05102539 69.14746094 C-67.03908784 73.17652861 -71.0385766 77.19421851 -75.03710938 81.21289062 C-82.87318288 89.09179171 -90.69644849 96.98327953 -98.51171875 104.8828125 C-99.61831674 103.94349141 -100.723592 103.00261191 -101.82832336 102.06109619 C-102.75179046 101.27542456 -102.75179046 101.27542456 -103.69391346 100.47388077 C-106.35771431 98.14233897 -108.83260213 95.6486255 -111.3046875 93.1171875 C-112.35729189 92.05195487 -113.41003008 90.98685444 -114.46289062 89.921875 C-116.09071864 88.26913251 -117.71687064 86.61480091 -119.34057617 84.95800781 C-120.92838378 83.33999928 -122.52235696 81.72826983 -124.1171875 80.1171875 C-124.59955368 79.62136169 -125.08191986 79.12553589 -125.5789032 78.61468506 C-129.64856748 74.51497198 -132.59065411 72.59809388 -138.38671875 72.5078125 C-139.62035156 72.46527344 -139.62035156 72.46527344 -140.87890625 72.421875 C-147.00154854 73.4937916 -151.44618153 78.45305611 -155.69921875 82.6953125 C-156.47942383 83.4387793 -156.47942383 83.4387793 -157.27539062 84.19726562 C-161.917272 88.80357703 -164.4234589 93.10262711 -164.63671875 99.8203125 C-163.08734975 108.43008422 -152.94757002 115.54073455 -147.01171875 121.3828125 C-137.91479654 130.33602346 -137.91479654 130.33602346 -134.08203125 134.80078125 C-129.60452647 140.01326284 -124.74165578 144.83697566 -119.88671875 149.6953125 C-118.94912047 150.64508528 -118.01161993 151.59495456 -117.07421875 152.54492188 C-116.17445312 153.44662109 -115.2746875 154.34832031 -114.34765625 155.27734375 C-113.5386084 156.09050049 -112.72956055 156.90365723 -111.89599609 157.74145508 C-108.01627554 161.22589384 -104.85274429 163.3119736 -99.57421875 163.3203125 C-98.76082031 163.33964844 -97.94742188 163.35898438 -97.109375 163.37890625 C-89.91510493 162.00496294 -84.65561271 155.32279774 -79.70825195 150.36987305 C-78.84412689 149.51246521 -77.98000183 148.65505737 -77.08969116 147.77166748 C-74.73267955 145.43034827 -72.38027279 143.08460103 -70.0304606 140.73606849 C-68.55978008 139.26681397 -67.08768273 137.79899457 -65.61507225 136.33167458 C-60.47131453 131.20638761 -55.3327165 126.07599269 -50.19897461 120.94067383 C-45.42289871 116.16339565 -40.63577099 111.39739488 -35.84334117 106.63652772 C-31.71969348 102.53906799 -27.60383106 98.4338966 -23.49389523 94.32268363 C-21.04318821 91.87146795 -18.58951186 89.42342253 -16.12795448 86.98309898 C-13.38303831 84.26122074 -10.65439114 81.52338136 -7.92700195 78.78393555 C-7.11499832 77.98317093 -6.30299469 77.18240631 -5.46638489 76.3573761 C-0.12363147 70.95440574 3.36327168 66.82061391 3.61328125 58.9453125 C2.65888202 53.66565718 -0.83231128 50.54849084 -4.51171875 46.8828125 C-5.24390625 46.09132813 -5.97609375 45.29984375 -6.73046875 44.484375 C-11.02182389 39.94318069 -14.46830743 36.66028642 -20.51171875 34.8828125 C-27.58333731 34.8828125 -31.78747049 37.70736748 -36.63456726 42.50798035 Z " fill="#021F6C" transform="translate(208.51171875,29.1171875)"/>
<path d="M0 0 C0.33 0.99 0.66 1.98 1 3 C1.33 3 1.66 3 2 3 C2.66 2.01 3.32 1.02 4 0 C5.32 0.33 6.64 0.66 8 1 C6.51346494 4.46629835 4.54277649 6.69022036 1.8671875 9.328125 C0.65869141 10.52695313 0.65869141 10.52695313 -0.57421875 11.75 C-1.41597656 12.575 -2.25773438 13.4 -3.125 14.25 C-3.97449219 15.09046875 -4.82398438 15.9309375 -5.69921875 16.796875 C-7.79504923 18.86915683 -9.89540713 20.93662393 -12 23 C-12.99 22.01 -13.98 21.02 -15 20 C-14.01 18.35 -13.02 16.7 -12 15 C-10.68 15.33 -9.36 15.66 -8 16 C-8 15.34 -8 14.68 -8 14 C-7.34 13.34 -6.68 12.68 -6 12 C-5.63837971 10.67405895 -5.30271961 9.34061543 -5 8 C-4.67 7.67 -4.34 7.34 -4 7 C-4.66 7 -5.32 7 -6 7 C-6 4 -6 4 -4.125 1.8125 C-2 0 -2 0 0 0 Z " fill="#122D74" transform="translate(152,82)"/>
<path d="M0 0 C-2 5 -2 5 -3.1875 7.3125 C-4.33580467 11.11073852 -4.30409899 14.29253532 -3 18 C-1.41158194 20.23841011 0.29992723 22.17269102 2.2109375 24.140625 C3.99117135 25.99082437 5.49954266 27.91961129 7 30 C6.34 30.33 5.68 30.66 5 31 C5 30.34 5 29.68 5 29 C4.01 29 3.02 29 2 29 C2 29.66 2 30.32 2 31 C1.34 30.67 0.68 30.34 0 30 C-0.33333333 28.33333333 -0.66666667 26.66666667 -1 25 C-1.66 24.67 -2.32 24.34 -3 24 C-3.99 23.34 -4.98 22.68 -6 22 C-6.33 22.66 -6.66 23.32 -7 24 C-7 23.34 -7 22.68 -7 22 C-7.66 22 -8.32 22 -9 22 C-8.67 20.88625 -8.34 19.7725 -8 18.625 C-6.91839078 14.38932754 -6.8724323 10.45255358 -7.02734375 6.1015625 C-7 4 -7 4 -6 2 C-3.85118612 0.75230162 -2.50320403 0 0 0 Z " fill="#203873" transform="translate(49,115)"/>
<path d="M0 0 C0.495 1.485 0.495 1.485 1 3 C1.66 3.33 2.32 3.66 3 4 C-11.54305038 11.44780459 -27.42997925 17.93264219 -44 18 C-42.3655205 16.03553095 -41.53570606 15.07682209 -38.95703125 14.70703125 C-36.97135417 14.8046875 -34.98567708 14.90234375 -33 15 C-33 14.34 -33 13.68 -33 13 C-32.43152344 12.93941406 -31.86304688 12.87882813 -31.27734375 12.81640625 C-26.50218963 12.29823427 -21.7507695 11.70756141 -17 11 C-17 10.34 -17 9.68 -17 9 C-16.43410156 8.87882813 -15.86820313 8.75765625 -15.28515625 8.6328125 C-14.18494141 8.38144531 -14.18494141 8.38144531 -13.0625 8.125 C-12.33160156 7.96257812 -11.60070312 7.80015625 -10.84765625 7.6328125 C-8.79299706 7.17038477 -8.79299706 7.17038477 -8 5 C-6.845 4.690625 -5.69 4.38125 -4.5 4.0625 C-2.7675 3.5365625 -2.7675 3.5365625 -1 3 C-0.67 2.01 -0.34 1.02 0 0 Z " fill="#435E88" transform="translate(187,236)"/>
<path d="M0 0 C37.45001529 -0.77499236 37.45001529 -0.77499236 49 5 C44.545 5.495 44.545 5.495 40 6 C40 5.34 40 4.68 40 4 C38.700625 4.020625 37.40125 4.04125 36.0625 4.0625 C34.70834367 4.08399454 33.35243917 4.07148199 32 4 C31.505 3.505 31.505 3.505 31 3 C28.62661361 2.84028023 26.27881728 2.7407567 23.90234375 2.68359375 C23.19348526 2.66281265 22.48462677 2.64203156 21.75428772 2.62062073 C19.48212695 2.55505402 17.20984736 2.4962077 14.9375 2.4375 C13.40037817 2.39432151 11.8632685 2.35070745 10.32617188 2.30664062 C6.5509041 2.19936551 2.7755164 2.09811863 -1 2 C-0.67 1.34 -0.34 0.68 0 0 Z " fill="#517092" transform="translate(114,1)"/>
<path d="M0 0 C0 3.95875396 -1.21313946 6.49009536 -3 10 C-5.0625 11.125 -5.0625 11.125 -7 12 C-7.71727778 13.64551962 -8.38325228 15.31422289 -9 17 C-9.7734375 17.680625 -9.7734375 17.680625 -10.5625 18.375 C-12.81410406 20.92029154 -12.68969256 23.71074113 -13 27 C-13.99 27 -14.98 27 -16 27 C-16.33 27.66 -16.66 28.32 -17 29 C-17.66 29 -18.32 29 -19 29 C-14.93485772 18.19889733 -8.16132774 8.16132774 0 0 Z " fill="#4B658F" transform="translate(33,43)"/>
<path d="M0 0 C3 1 3 1 4.05908203 2.6706543 C4.37216309 3.38133057 4.68524414 4.09200684 5.0078125 4.82421875 C5.35457031 5.60603516 5.70132813 6.38785156 6.05859375 7.19335938 C6.58646484 8.42795898 6.58646484 8.42795898 7.125 9.6875 C7.48464844 10.49123047 7.84429687 11.29496094 8.21484375 12.12304688 C10.06147992 16.35232784 11.75617799 20.33152556 12 25 C11.34 25.66 10.68 26.32 10 27 C10 25.02 10 23.04 10 21 C9.34 21 8.68 21 8 21 C8 19.68 8 18.36 8 17 C7.34 17 6.68 17 6 17 C6 15.35 6 13.7 6 12 C5.34 12 4.68 12 4 12 C3.51801537 10.75108386 3.03954323 9.50081192 2.5625 8.25 C2.29566406 7.55390625 2.02882812 6.8578125 1.75390625 6.140625 C1.03853307 4.10940997 0.48634348 2.0964709 0 0 Z " fill="#435E89" transform="translate(237,65)"/>
<path d="M0 0 C0.99 0.33 1.98 0.66 3 1 C2 4 2 4 0.2109375 5.00390625 C-0.51867187 5.33261719 -1.24828125 5.66132813 -2 6 C-3.47094083 6.9601232 -4.92885459 7.9404208 -6.375 8.9375 C-9.80970343 11.24616392 -13.16115977 13.40828576 -17 15 C-17.66 14.67 -18.32 14.34 -19 14 C-6.5942029 3.5326087 -6.5942029 3.5326087 0 0 Z " fill="#3A5683" transform="translate(63,18)"/>
<path d="M0 0 C5.330218 -0.68336128 8.14698279 1.0514062 12.54296875 3.6875 C16.4878781 5.79479657 20.68536424 6.89206639 25 8 C25 8.66 25 9.32 25 10 C19.49972331 9.42329995 14.82225089 8.01773344 9.6875 6 C8.97271484 5.72671875 8.25792969 5.4534375 7.52148438 5.171875 C2.42117347 3.21058673 2.42117347 3.21058673 0 2 C0 1.34 0 0.68 0 0 Z " fill="#435F89" transform="translate(72,241)"/>
<path d="M0 0 C3.10738321 3.2486279 3.63609773 6.43439424 4.4609375 10.69140625 C4.97362562 12.88704883 5.67170773 14.714231 6.625 16.75 C7.93860713 19.85488959 8.30089366 21.69016969 8 25 C7.34 25 6.68 25 6 25 C4.98857805 21.77429922 3.99291347 18.54394135 3 15.3125 C2.71382813 14.40048828 2.42765625 13.48847656 2.1328125 12.54882812 C1.86210938 11.66259766 1.59140625 10.77636719 1.3125 9.86328125 C1.06113281 9.05157471 0.80976562 8.23986816 0.55078125 7.40356445 C-0.03200496 4.86033295 -0.09712888 2.60022093 0 0 Z " fill="#6F8BA7" transform="translate(3,150)"/>
<path d="M0 0 C-1.47721422 3.45201639 -3.43794001 5.64961936 -6.125 8.25 C-6.84945312 8.95640625 -7.57390625 9.6628125 -8.3203125 10.390625 C-8.87460938 10.92171875 -9.42890625 11.4528125 -10 12 C-10.99 11.01 -11.98 10.02 -13 9 C-12.01 7.35 -11.02 5.7 -10 4 C-8.68 4.33 -7.36 4.66 -6 5 C-6 4.34 -6 3.68 -6 3 C-2.53846154 0 -2.53846154 0 0 0 Z " fill="#384C81" transform="translate(150,93)"/>
<path d="M0 0 C0.66 0 1.32 0 2 0 C2.4125 1.010625 2.825 2.02125 3.25 3.0625 C4.3713637 5.69318734 5.61542941 8.15901828 7.0625 10.625 C8.65313209 13.39577849 9.91199722 16.00799235 11 19 C10.01 19 9.02 19 8 19 C6.65929682 16.39939496 5.32726646 13.79495084 4 11.1875 C3.6184375 10.44951172 3.236875 9.71152344 2.84375 8.95117188 C2.4828125 8.23896484 2.121875 7.52675781 1.75 6.79296875 C1.41484375 6.1383667 1.0796875 5.48376465 0.734375 4.80932617 C0 3 0 3 0 0 Z " fill="#557294" transform="translate(11,176)"/>
<path d="M0 0 C4.66666667 4.66666667 9.33333333 9.33333333 14 14 C10.25 16 10.25 16 8 16 C7.87625 15.2575 7.7525 14.515 7.625 13.75 C7.02085639 11.09176812 6.54427697 9.23920161 5 7 C2.46229997 5.71745356 2.46229997 5.71745356 0 5 C0 3.35 0 1.7 0 0 Z " fill="#2A4A77" transform="translate(68,157)"/>
<path d="M0 0 C0.99 0.33 1.98 0.66 3 1 C-0.93488794 7.4378492 -4.91340956 13.41715684 -10 19 C-10.33 18.01 -10.66 17.02 -11 16 C-10.01 15.67 -9.02 15.34 -8 15 C-7.29289322 13.35008418 -6.63437344 11.6792238 -6 10 C-4.66666667 8 -3.33333333 6 -2 4 C-2 3.34 -2 2.68 -2 2 C-1.34 2 -0.68 2 0 2 C0 1.34 0 0.68 0 0 Z " fill="#425A83" transform="translate(234,193)"/>
<path d="M0 0 C0.74886475 0.00523682 1.49772949 0.01047363 2.26928711 0.01586914 C3.07817383 0.0190918 3.88706055 0.02231445 4.72045898 0.02563477 C5.5705957 0.03401367 6.42073242 0.04239258 7.29663086 0.05102539 C8.15063477 0.05553711 9.00463867 0.06004883 9.88452148 0.06469727 C12.00108749 0.07652166 14.11761771 0.0944577 16.23413086 0.11352539 C16.23413086 0.77352539 16.23413086 1.43352539 16.23413086 2.11352539 C15.14745117 2.2044043 15.14745117 2.2044043 14.03881836 2.29711914 C9.06296553 2.72835972 4.14732695 3.18400181 -0.76586914 4.11352539 C-1.42586914 3.12352539 -2.08586914 2.13352539 -2.76586914 1.11352539 C-1.76586914 0.11352539 -1.76586914 0.11352539 0 0 Z " fill="#395382" transform="translate(59.765869140625,99.886474609375)"/>
<path d="M0 0 C2.04648515 6.00117942 -1.14017456 12.03959799 -3.5625 17.5625 C-5 20 -5 20 -7 21 C-5.62820313 13.51747162 -3.07836721 6.94395046 0 0 Z " fill="#5B7598" transform="translate(13,72)"/>
<path d="M0 0 C6.34447335 0.26435306 10.45018459 2.54472621 15 7 C15 7.66 15 8.32 15 9 C11.32305352 7.62859834 8.04681411 5.96304199 4.6875 3.9375 C3.80449219 3.41027344 2.92148437 2.88304687 2.01171875 2.33984375 C1.34785156 1.89769531 0.68398438 1.45554688 0 1 C0 0.67 0 0.34 0 0 Z " fill="#49638E" transform="translate(55,232)"/>
<path d="M0 0 C0.99 0.33 1.98 0.66 3 1 C1.59155282 4.21524305 -0.10344786 6.32183868 -2.625 8.75 C-3.57246094 9.67039063 -3.57246094 9.67039063 -4.5390625 10.609375 C-5.02117187 11.06828125 -5.50328125 11.5271875 -6 12 C-7.32 10.68 -8.64 9.36 -10 8 C-9.195625 7.87625 -8.39125 7.7525 -7.5625 7.625 C-6.716875 7.41875 -5.87125 7.2125 -5 7 C-4.67 6.34 -4.34 5.68 -4 5 C-3.34 5 -2.68 5 -2 5 C-1.34 3.35 -0.68 1.7 0 0 Z " fill="#465784" transform="translate(116,123)"/>
<path d="M0 0 C3.94949704 0.62816498 7.19892028 1.8645529 10.8125 3.5625 C12.27623047 4.24505859 12.27623047 4.24505859 13.76953125 4.94140625 C14.87361328 5.46541016 14.87361328 5.46541016 16 6 C16 6.33 16 6.66 16 7 C11.07284004 7.46192125 7.49267375 5.8275283 3 4 C3 3.34 3 2.68 3 2 C2.01 2 1.02 2 0 2 C0 1.34 0 0.68 0 0 Z " fill="#5B7699" transform="translate(172,9)"/>
<path d="M0 0 C4.77609498 1.64178265 8.79382904 4.26546702 13 7 C9.90279155 7.87840996 8.09354597 7.99435406 5 7 C5 6.01 5 5.02 5 4 C4.38125 3.87625 3.7625 3.7525 3.125 3.625 C1 3 1 3 -1 1 C-0.67 0.67 -0.34 0.34 0 0 Z " fill="#4A668E" transform="translate(188,16)"/>
<path d="M0 0 C0.99 0.66 1.98 1.32 3 2 C-1.27152492 5.95897432 -4.31251115 7.74875245 -10 9 C-6.83047153 5.73991357 -3.60062011 2.77762123 0 0 Z " fill="#415C8A" transform="translate(54,24)"/>
<path d="M0 0 C0.8125 1.6875 0.8125 1.6875 1 4 C-1.40123201 7.03685225 -3.06049508 8.72858747 -6.8125 9.8125 C-7.534375 9.874375 -8.25625 9.93625 -9 10 C-8.06409496 8.8944811 -7.12620142 7.79064547 -6.1875 6.6875 C-5.66542969 6.07261719 -5.14335937 5.45773438 -4.60546875 4.82421875 C-3.12827531 3.14575321 -1.59960869 1.56117966 0 0 Z " fill="#3F5883" transform="translate(166,141)"/>
<path d="M0 0 C0.33 0 0.66 0 1 0 C1 1.65 1 3.3 1 5 C1.66 5.33 2.32 5.66 3 6 C2.67 6.99 2.34 7.98 2 9 C1.34 9 0.68 9 0 9 C0 11.31 0 13.62 0 16 C-2.19531199 12.70703201 -2.2036671 12.25029625 -1.6875 8.5625 C-1.58824219 7.80066406 -1.48898438 7.03882812 -1.38671875 6.25390625 C-1.02286132 4.13324225 -0.55389462 2.07828837 0 0 Z " fill="#4E6C92" transform="translate(5,93)"/>
<path d="M0 0 C2.97 0.33 5.94 0.66 9 1 C8.979375 1.78375 8.95875 2.5675 8.9375 3.375 C8.81315937 5.98114961 8.81315937 5.98114961 10 8 C6.05205855 6.32971708 3.18203882 3.8204435 0 1 C0 0.67 0 0.34 0 0 Z " fill="#4D6591" transform="translate(44,223)"/>
<path d="M0 0 C0.33 1.32 0.66 2.64 1 4 C0.01 4.33 -0.98 4.66 -2 5 C-2.70211894 6.65204456 -3.36971413 8.31923769 -4 10 C-4.99 10.495 -4.99 10.495 -6 11 C-6.71484375 9.234375 -6.71484375 9.234375 -7 7 C-5.56640625 5.078125 -5.56640625 5.078125 -3.5625 3.25 C-2.90378906 2.63640625 -2.24507812 2.0228125 -1.56640625 1.390625 C-1.04949219 0.93171875 -0.53257812 0.4728125 0 0 Z " fill="#385181" transform="translate(137,170)"/>
<path d="M0 0 C0.33 0.66 0.66 1.32 1 2 C0.22265625 3.7265625 0.22265625 3.7265625 -0.9375 5.625 C-1.618125 6.73875 -2.29875 7.8525 -3 9 C-3.99 9 -4.98 9 -6 9 C-6 6 -6 6 -4.6875 4.39453125 C-4.130625 3.87246094 -3.57375 3.35039062 -3 2.8125 C-2.443125 2.28269531 -1.88625 1.75289062 -1.3125 1.20703125 C-0.6628125 0.60955078 -0.6628125 0.60955078 0 0 Z " fill="#355084" transform="translate(156,151)"/>
<path d="M0 0 C-1.33333333 3.33333333 -2.66666667 6.66666667 -4 10 C-6 7 -6 7 -7 4 C-5.53303752 1.06607504 -3.25996861 0 0 0 Z " fill="#475C8E" transform="translate(49,115)"/>
<path d="M0 0 C1.67542976 0.28604898 3.34385343 0.61781233 5 1 C3.25 4.875 3.25 4.875 1 6 C0.01 5.67 -0.98 5.34 -2 5 C-1.125 1.125 -1.125 1.125 0 0 Z " fill="#243C79" transform="translate(123,114)"/>
<path d="M0 0 C1.65 0.33 3.3 0.66 5 1 C3.60667426 4.36720387 2.0210714 5.9859524 -1 8 C-1.66 6.68 -2.32 5.36 -3 4 C-1.68 3.67 -0.36 3.34 1 3 C0.34 2.67 -0.32 2.34 -1 2 C-0.67 1.34 -0.34 0.68 0 0 Z " fill="#354981" transform="translate(155,82)"/>
<path d="M0 0 C0.66 0 1.32 0 2 0 C2.2226746 1.43534841 2.42761906 2.87345525 2.625 4.3125 C2.74101562 5.11300781 2.85703125 5.91351563 2.9765625 6.73828125 C3 9 3 9 1 12 C1 9.69 1 7.38 1 5 C0.34 5 -0.32 5 -1 5 C-0.67 3.35 -0.34 1.7 0 0 Z " fill="#426088" transform="translate(250,97)"/>
<path d="M0 0 C-0.33 4.95 -0.66 9.9 -1 15 C-3 13 -3 13 -3.0625 9.6875 C-3.041875 8.470625 -3.02125 7.25375 -3 6 C-3.28520405 4.32442621 -3.59955696 2.65182755 -4 1 C-2 0 -2 0 0 0 Z " fill="#3A4F87" transform="translate(214,82)"/>
<path d="M0 0 C0.80050781 0.03480469 1.60101563 0.06960937 2.42578125 0.10546875 C3.63814453 0.14607422 3.63814453 0.14607422 4.875 0.1875 C5.48988281 0.22230469 6.10476562 0.25710937 6.73828125 0.29296875 C6.73828125 0.95296875 6.73828125 1.61296875 6.73828125 2.29296875 C0.79828125 2.78796875 0.79828125 2.78796875 -5.26171875 3.29296875 C-2.26171875 0.29296875 -2.26171875 0.29296875 0 0 Z " fill="#517092" transform="translate(148.26171875,250.70703125)"/>
<path d="M0 0 C2 1 2 1 3.125 3.75 C3.91973395 6.70186896 4.17810598 8.97219837 4 12 C3.34 12 2.68 12 2 12 C0.40861915 7.82262526 -0.21278058 4.46839215 0 0 Z " fill="#435F88" transform="translate(7,163)"/>
<path d="M0 0 C0.99 0 1.98 0 3 0 C1.50902342 3.7952131 -0.75700849 5.61042731 -4 8 C-4.33 7.01 -4.66 6.02 -5 5 C-4.34 5 -3.68 5 -3 5 C-3 4.34 -3 3.68 -3 3 C-2.34 3 -1.68 3 -1 3 C-0.67 2.01 -0.34 1.02 0 0 Z " fill="#465887" transform="translate(165,75)"/>
<path d="M0 0 C0 0.66 0 1.32 0 2 C-4.50353262 3.75747614 -8.17639811 4.19294408 -13 4 C-8.68630028 1.12420019 -5.19265239 0 0 0 Z " fill="#5F7A9F" transform="translate(97,5)"/>
<path d="M0 0 C0.33 1.32 0.66 2.64 1 4 C-0.98 4.99 -0.98 4.99 -3 6 C-3 6.66 -3 7.32 -3 8 C-4.32 7.67 -5.64 7.34 -7 7 C-4.69 4.69 -2.38 2.38 0 0 Z " fill="#455E8C" transform="translate(177,130)"/>
<path d="M0 0 C3.46941546 0.45822468 6.67395049 0.89131683 10 2 C10 2.66 10 3.32 10 4 C6.53058454 3.54177532 3.32604951 3.10868317 0 2 C0 1.34 0 0.68 0 0 Z " fill="#526E94" transform="translate(87,247)"/>
<path d="M0 0 C3.3 1.98 6.6 3.96 10 6 C9.67 6.99 9.34 7.98 9 9 C7.68103535 8.07161713 6.37001311 7.13194268 5.0625 6.1875 C4.33160156 5.66542969 3.60070313 5.14335937 2.84765625 4.60546875 C1 3 1 3 0 0 Z " fill="#738CA8" transform="translate(35,214)"/>
<path d="M0 0 C5.57142857 5.14285714 5.57142857 5.14285714 6 9 C5.01 9 4.02 9 3 9 C0 3.375 0 3.375 0 0 Z " fill="#3F5E86" transform="translate(16,186)"/>
<path d="M0 0 C0.33 0.66 0.66 1.32 1 2 C-0.125 4.5625 -0.125 4.5625 -2 7 C-4.6875 7.8125 -4.6875 7.8125 -7 8 C-6.02133662 6.85373678 -5.04205413 5.70800212 -4.0625 4.5625 C-3.51722656 3.92441406 -2.97195312 3.28632812 -2.41015625 2.62890625 C-1.63204305 1.73008851 -0.84063472 0.84063472 0 0 Z " fill="#4C638E" transform="translate(194,113)"/>
<path d="M0 0 C4.62 0.66 9.24 1.32 14 2 C14 2.33 14 2.66 14 3 C9.38 3 4.76 3 0 3 C0 2.01 0 1.02 0 0 Z " fill="#677EA4" transform="translate(99,190)"/>
<path d="M0 0 C0 0.99 0 1.98 0 3 C0.66 3.33 1.32 3.66 2 4 C1.34 5.65 0.68 7.3 0 9 C-2 8 -2 8 -2.8125 5.625 C-3 3 -3 3 -1.5625 1.1875 C-1.046875 0.795625 -0.53125 0.40375 0 0 Z " fill="#24407B" transform="translate(238,184)"/>
<path d="M0 0 C2.64752004 2.57784846 4.94432065 4.91648098 7 8 C6.01 8.495 6.01 8.495 5 9 C5 8.34 5 7.68 5 7 C2.525 6.01 2.525 6.01 0 5 C0 3.35 0 1.7 0 0 Z " fill="#536B8D" transform="translate(68,157)"/>
<path d="M0 0 C0.99 0 1.98 0 3 0 C3 1.65 3 3.3 3 5 C2.01 5 1.02 5 0 5 C-0.33 5.66 -0.66 6.32 -1 7 C-1.66 7 -2.32 7 -3 7 C-1.125 2.25 -1.125 2.25 0 0 Z " fill="#3D5A85" transform="translate(17,65)"/>
<path d="M0 0 C-0.66 1.32 -1.32 2.64 -2 4 C-3.98 3.34 -5.96 2.68 -8 2 C-8 1.34 -8 0.68 -8 0 C-5.13822943 -1.43088528 -3.06624227 -0.59991697 0 0 Z " fill="#263E7D" transform="translate(122,121)"/>
<path d="M0 0 C0.66 0 1.32 0 2 0 C2.38909985 1.45463481 2.76088029 2.91391207 3.125 4.375 C3.33382812 5.18710938 3.54265625 5.99921875 3.7578125 6.8359375 C3.83773437 7.55007812 3.91765625 8.26421875 4 9 C3.34 9.66 2.68 10.32 2 11 C2 9.02 2 7.04 2 5 C1.34 5 0.68 5 0 5 C0 3.35 0 1.7 0 0 Z " fill="#516C94" transform="translate(245,81)"/>
<path d="M0 0 C1.65 0 3.3 0 5 0 C2.22719294 3.08089673 -0.06326356 4.68775452 -4 6 C-4 5.01 -4 4.02 -4 3 C-2.68 3 -1.36 3 0 3 C0 2.01 0 1.02 0 0 Z " fill="#445D88" transform="translate(194,233)"/>
<path d="M0 0 C0 3.57575896 -1.08840607 5.05295935 -3 8 C-4.32 7.67 -5.64 7.34 -7 7 C-4.69 4.69 -2.38 2.38 0 0 Z " fill="#5A6E98" transform="translate(202,105)"/>
<path d="M0 0 C3.057952 1.73559438 5.63379989 3.38472619 8 6 C5.69 6 3.38 6 1 6 C1.33 4.68 1.66 3.36 2 2 C1.34 2 0.68 2 0 2 C0 1.34 0 0.68 0 0 Z " fill="#557098" transform="translate(201,24)"/>
<path d="M0 0 C-0.33 1.32 -0.66 2.64 -1 4 C-3.64 4.33 -6.28 4.66 -9 5 C-6.45523312 2.20075644 -3.92372883 0 0 0 Z " fill="#61789F" transform="translate(74,13)"/>
<path d="M0 0 C2.375 0.25 2.375 0.25 5 1 C6.3125 3.0625 6.3125 3.0625 7 5 C2.25 3.125 2.25 3.125 0 2 C0 1.34 0 0.68 0 0 Z " fill="#516F92" transform="translate(63,236)"/>
<path d="M0 0 C2.31 0.66 4.62 1.32 7 2 C6.01 2.495 6.01 2.495 5 3 C4.34786708 5.02463255 4.34786708 5.02463255 4 7 C0 2.25 0 2.25 0 0 Z " fill="#526C95" transform="translate(25,202)"/>
<path d="M0 0 C0.33 0.66 0.66 1.32 1 2 C-1.40983607 6.70491803 -1.40983607 6.70491803 -4 8 C-4.33 7.01 -4.66 6.02 -5 5 C-3.35 3.35 -1.7 1.7 0 0 Z " fill="#435D8C" transform="translate(186,121)"/>
<path d="M0 0 C3.25543229 0.34879632 4.01873107 1.02133261 6.25 3.5625 C6.8275 4.366875 7.405 5.17125 8 6 C5 6 5 6 3.61328125 4.6875 C2.40885417 3.125 1.20442708 1.5625 0 0 Z " fill="#48638D" transform="translate(91,116)"/>
<path d="M0 0 C1.65 0 3.3 0 5 0 C3.60667426 3.36720387 2.0210714 4.9859524 -1 7 C-1 6.01 -1 5.02 -1 4 C-0.34 4 0.32 4 1 4 C0.67 2.68 0.34 1.36 0 0 Z " fill="#44598B" transform="translate(51,108)"/>
<path d="M0 0 C5.66153846 1.47692308 5.66153846 1.47692308 7.375 4.125 C7.684375 5.053125 7.684375 5.053125 8 6 C5 6 5 6 3.61328125 4.6875 C2.40885417 3.125 1.20442708 1.5625 0 0 Z " fill="#4C6693" transform="translate(82,107)"/>
<path d="M0 0 C-0.66 0 -1.32 0 -2 0 C-2 0.99 -2 1.98 -2 3 C-4.64 3 -7.28 3 -10 3 C-3.66666667 -1.22222222 -3.66666667 -1.22222222 0 0 Z " fill="#6380A1" transform="translate(84,10)"/>
<path d="M0 0 C0.33 0.99 0.66 1.98 1 3 C1.66 3.33 2.32 3.66 3 4 C-2.75 7 -2.75 7 -5 7 C-4.67 6.01 -4.34 5.02 -4 4 C-3.01 3.67 -2.02 3.34 -1 3 C-0.67 2.01 -0.34 1.02 0 0 Z " fill="#526F94" transform="translate(187,236)"/>
<path d="M0 0 C2.31 1.98 4.62 3.96 7 6 C6.34 6.66 5.68 7.32 5 8 C0 2.25 0 2.25 0 0 Z " fill="#426286" transform="translate(90,180)"/>
<path d="M0 0 C1.65 1.65 3.3 3.3 5 5 C4.01 5.495 4.01 5.495 3 6 C3 5.34 3 4.68 3 4 C2.01 4 1.02 4 0 4 C0 4.66 0 5.32 0 6 C-0.66 5.67 -1.32 5.34 -2 5 C-1.34 3.35 -0.68 1.7 0 0 Z " fill="#455A8C" transform="translate(51,140)"/>
<path d="M0 0 C1.32 0.33 2.64 0.66 4 1 C4.33 2.32 4.66 3.64 5 5 C4.01 5 3.02 5 2 5 C2 4.34 2 3.68 2 3 C1.34 2.67 0.68 2.34 0 2 C0 1.34 0 0.68 0 0 Z " fill="#2B4075" transform="translate(46,137)"/>
<path d="M0 0 C-0.66 1.32 -1.32 2.64 -2 4 C-2.99 4 -3.98 4 -5 4 C-5.66 3.01 -6.32 2.02 -7 1 C-2.25 0 -2.25 0 0 0 Z " fill="#5B6B8D" transform="translate(113,130)"/>
<path d="M0 0 C3.36720387 1.39332574 4.9859524 2.9789286 7 6 C4 6 4 6 1.8125 4.125 C0 2 0 2 0 0 Z " fill="#4E638E" transform="translate(203,74)"/>
<path d="M0 0 C2.88575819 0.39803561 3.82189513 0.79009069 5.75 3.0625 C6.1625 3.701875 6.575 4.34125 7 5 C6.01 5.495 6.01 5.495 5 6 C5 5.34 5 4.68 5 4 C3.68 4 2.36 4 1 4 C0.67 2.68 0.34 1.36 0 0 Z " fill="#385280" transform="translate(219,42)"/>
<path d="M0 0 C2.97 0.33 5.94 0.66 9 1 C8.67 1.99 8.34 2.98 8 4 C6.68 3.67 5.36 3.34 4 3 C4.33 2.34 4.66 1.68 5 1 C3.35 1 1.7 1 0 1 C0 0.67 0 0.34 0 0 Z " fill="#3E5994" transform="translate(107,2)"/>
</svg>
