<?xml version="1.0" encoding="UTF-8"?>
<svg version="1.1" xmlns="http://www.w3.org/2000/svg" width="512" height="512">
<path d="M0 0 C6.33021769 4.48473103 10.29347009 10.32289092 12.4921875 17.765625 C13.10219616 23.12010547 13.18933402 28.4438301 13.2421875 33.828125 C13.27039785 35.28063374 13.30033221 36.73311008 13.33203125 38.18554688 C13.40529161 41.71208776 13.45523085 45.23849487 13.4921875 48.765625 C14.49294312 48.93783569 14.49294312 48.93783569 15.51391602 49.11352539 C60.60606876 57.00070275 102.1298532 74.22876327 136.09375 105.5546875 C137.71536673 107.04953289 139.35677644 108.52314411 141.015625 109.9765625 C178.66021607 142.98797313 202.64989708 191.79178039 210.4921875 240.765625 C210.66878906 241.81516357 210.84539062 242.86470215 211.02734375 243.94604492 C212.71428591 254.99325676 212.8907442 265.92188837 212.8671875 277.078125 C212.86637177 278.53319962 212.86637177 278.53319962 212.86553955 280.01766968 C212.82543615 295.60554086 211.93892708 310.50973658 208.4921875 325.765625 C208.17072754 327.22935547 208.17072754 327.22935547 207.84277344 328.72265625 C199.0570047 367.75346585 180.46179727 404.03199166 152.9453125 433.16015625 C150.86191595 435.37293571 148.88471149 437.62810816 146.9296875 439.953125 C115.60239964 475.85051133 65.77139186 498.5881299 19.4921875 505.765625 C18.35612061 505.94222656 17.22005371 506.11882812 16.04956055 506.30078125 C5.08270496 507.84434119 -5.75460525 508.16540429 -16.8203125 508.140625 C-18.19819443 508.13980927 -18.19819443 508.13980927 -19.60391235 508.13897705 C-35.20945088 508.09668608 -50.20821707 507.0705187 -65.5078125 503.765625 C-66.99933838 503.44416504 -66.99933838 503.44416504 -68.52099609 503.11621094 C-107.61423595 494.36940886 -143.79202763 475.70104927 -172.9375 448.18359375 C-175.1386772 446.11288146 -177.38368349 444.14761293 -179.6953125 442.203125 C-215.71309739 410.77076652 -238.08506538 361.10994011 -245.5078125 314.765625 C-245.77380249 313.18696655 -245.77380249 313.18696655 -246.04516602 311.57641602 C-247.72206511 300.60828696 -247.86527833 289.77842621 -247.8203125 278.703125 C-247.81815735 277.74964172 -247.8160022 276.79615845 -247.81378174 275.81378174 C-247.76336401 261.92384288 -247.39537706 248.39785913 -244.5078125 234.765625 C-244.31445312 233.80205078 -244.12109375 232.83847656 -243.921875 231.84570312 C-238.63171001 205.9663466 -228.313714 166.27084086 -207.5078125 147.765625 C-204.51484796 146.81357723 -201.63854046 146.57362124 -198.5078125 146.765625 C-193.11022214 149.56080572 -193.11022214 149.56080572 -191.5078125 152.765625 C-190.43718873 160.07593277 -192.54584532 164.60659102 -196.4453125 170.640625 C-197.46526821 172.31428859 -198.47946255 173.99147495 -199.48828125 175.671875 C-199.99794434 176.51878906 -200.50760742 177.36570313 -201.03271484 178.23828125 C-218.4285252 208.04321815 -225.96308728 242.90708026 -225.8828125 277.140625 C-225.88226868 278.01724792 -225.88172485 278.89387085 -225.88116455 279.79705811 C-225.8395704 294.43453916 -224.80472132 308.46121273 -221.5078125 322.765625 C-221.30414063 323.68327637 -221.10046875 324.60092773 -220.890625 325.54638672 C-212.57867515 362.03302461 -193.9980271 394.6197016 -168.5078125 421.765625 C-168.01571289 422.29172363 -167.52361328 422.81782227 -167.01660156 423.35986328 C-130.14522461 462.45526389 -77.69069724 484.46775109 -24.28344727 486.62304688 C33.04036689 488.2776893 86.57499207 466.41276906 128.02050781 427.32421875 C159.11581348 397.72406168 178.4890787 359.46615569 187.4921875 317.765625 C187.67152832 316.98590332 187.85086914 316.20618164 188.03564453 315.40283203 C193.86469358 289.37181558 192.46231517 258.57213088 186.4921875 232.765625 C186.28319824 231.83733887 186.07420898 230.90905273 185.85888672 229.95263672 C177.40771412 193.44483719 159.04567673 160.97893302 133.4921875 133.765625 C133.00008789 133.23952637 132.50798828 132.71342773 132.00097656 132.17138672 C95.33225465 93.29086498 43.0389679 71.15785032 -10.09936523 68.84008789 C-51.09313078 67.75844832 -93.55722079 77.7114881 -128.0078125 100.515625 C-132.27610019 103.26362205 -135.49019685 104.87212064 -140.6328125 104.37109375 C-143.83729723 103.33631222 -145.5138 101.38276641 -147.5078125 98.765625 C-148.69955993 96.38213013 -148.61856877 95.09639379 -148.4453125 92.453125 C-148.41308594 91.69386719 -148.38085938 90.93460937 -148.34765625 90.15234375 C-144.93333923 80.4493312 -126.36476799 73.63193038 -117.81689453 69.44873047 C-95.56080292 59.09078446 -72.68715101 52.74157741 -48.5078125 48.765625 C-48.50950439 47.45126465 -48.50950439 47.45126465 -48.51123047 46.11035156 C-48.50119172 42.79931157 -48.46424212 39.49068197 -48.41015625 36.18017578 C-48.39219967 34.75872 -48.38439012 33.3370927 -48.38769531 31.91552734 C-48.40262956 21.33461419 -47.01752084 12.07369619 -39.76733398 3.77294922 C-38.11137262 2.1851397 -36.4506086 0.98289559 -34.5078125 -0.234375 C-33.88648438 -0.64429688 -33.26515625 -1.05421875 -32.625 -1.4765625 C-22.455808 -7.08315125 -9.72162164 -5.63801363 0 0 Z M-26.5078125 21.765625 C-27.55124046 24.85950548 -27.62436188 27.71913205 -27.60546875 30.96875 C-27.60224609 31.9484375 -27.59902344 32.928125 -27.59570312 33.9375 C-27.58732422 34.95328125 -27.57894531 35.9690625 -27.5703125 37.015625 C-27.56580078 38.046875 -27.56128906 39.078125 -27.55664062 40.140625 C-27.54487353 42.68231654 -27.5269386 45.22397818 -27.5078125 47.765625 C-20.9078125 47.765625 -14.3078125 47.765625 -7.5078125 47.765625 C-7.42648213 44.24432136 -7.36715078 40.72491746 -7.3203125 37.203125 C-7.29517578 36.21248047 -7.27003906 35.22183594 -7.24414062 34.20117188 C-7.18494963 28.26234179 -7.51828175 23.95723434 -10.5078125 18.765625 C-16.86123448 14.53001035 -22.09622751 15.88351168 -26.5078125 21.765625 Z " fill="#011E6C" transform="translate(273.5078125,4.234375)"/>
<path d="M0 0 C0.81308624 -0.00983917 1.62617249 -0.01967834 2.46389771 -0.02981567 C59.24016223 -0.57481271 107.9463115 17.53592492 148.78515625 57.36328125 C153.67830246 62.38561944 158.13309621 67.68470587 162.41015625 73.23828125 C162.80702637 73.75342285 163.20389648 74.26856445 163.61279297 74.79931641 C185.95021658 104.10112517 201.40924243 141.93869623 201.61328125 179.1015625 C201.61898132 179.93302292 201.6246814 180.76448334 201.6305542 181.62113953 C201.63995109 183.37672681 201.64651689 185.1323313 201.65039062 186.88793945 C201.65999095 189.50570772 201.69102086 192.12265323 201.72265625 194.74023438 C201.81627777 209.62210689 200.17277556 224.2292785 196.22265625 238.61328125 C196.01398926 239.3810791 195.80532227 240.14887695 195.59033203 240.93994141 C184.38789307 280.62424158 161.1605301 316.01573441 128.41015625 341.23828125 C127.89501465 341.63515137 127.37987305 342.03202148 126.84912109 342.44091797 C93.15438242 368.12717022 53.19130469 380.51228139 11.09765625 380.67578125 C10.26251495 380.68213593 9.42737366 380.6884906 8.56692505 380.69503784 C-6.84161897 380.76795819 -22.06794358 379.1417519 -36.96484375 375.05078125 C-37.7326416 374.84211426 -38.50043945 374.63344727 -39.29150391 374.41845703 C-78.97580408 363.21601807 -114.36729691 339.9886551 -139.58984375 307.23828125 C-139.98671387 306.72313965 -140.38358398 306.20799805 -140.79248047 305.67724609 C-172.06893498 264.64938609 -183.48134654 214.00219043 -177.9296875 163.140625 C-171.27364466 114.6652645 -144.25780977 69.01823395 -105.58984375 39.23828125 C-105.07470215 38.84141113 -104.55956055 38.44454102 -104.02880859 38.03564453 C-77.95260847 18.15717447 -47.81537599 6.36979753 -15.58984375 1.23828125 C-13.9804895 0.9745874 -13.9804895 0.9745874 -12.33862305 0.70556641 C-8.20086253 0.18979476 -4.16456964 0.04140978 0 0 Z M-98.58984375 61.23828125 C-99.57597656 62.10324219 -100.56210938 62.96820313 -101.578125 63.859375 C-128.71372263 87.98518403 -146.28611421 118.99570819 -154.58984375 154.23828125 C-154.90953125 155.511875 -155.22921875 156.78546875 -155.55859375 158.09765625 C-163.95772779 195.72596317 -156.08224269 237.94443062 -137.58984375 271.23828125 C-137.04972656 272.2540625 -136.50960937 273.26984375 -135.953125 274.31640625 C-114.65333035 312.89327404 -77.57843334 340.86157817 -35.69506836 353.41796875 C8.16462069 365.86288545 54.55453709 360.36532024 94.41015625 338.23828125 C104.08725782 332.70818448 113.04651942 326.63830852 121.41015625 319.23828125 C122.39628906 318.37332031 123.38242187 317.50835937 124.3984375 316.6171875 C151.53403513 292.49137847 169.10642671 261.48085431 177.41015625 226.23828125 C177.72984375 224.9646875 178.04953125 223.69109375 178.37890625 222.37890625 C183.06569083 201.3573372 182.78787728 175.07695025 177.41015625 154.23828125 C177.21679688 153.44067383 177.0234375 152.64306641 176.82421875 151.82128906 C165.56252866 105.99246688 137.27121522 68.10840468 97.0546875 43.53515625 C36.08612139 7.574451 -45.30538986 14.09295203 -98.58984375 61.23828125 Z " fill="#011E6C" transform="translate(244.58984375,91.76171875)"/>
<path d="M0 0 C3.41899331 3.07709398 4.36278472 5.54971533 5 10 C5.04667796 12.68717032 5.04187506 15.34347205 4.9831543 18.02807617 C4.95707245 19.67359008 4.93160346 21.31911379 4.90666199 22.96464539 C4.8922576 23.83241796 4.8778532 24.70019054 4.86301231 25.59425926 C4.78269176 31.1818313 4.77072873 36.77005338 4.74791241 42.35810375 C4.72405073 47.25959391 4.67505631 52.15833561 4.5715332 57.05883789 C4.47248461 61.81181846 4.44254322 66.56087986 4.45847511 71.31481361 C4.45235633 73.11822174 4.42166574 74.92173145 4.36514854 76.72426414 C3.79498983 86.25893486 3.79498983 86.25893486 7.39476776 94.71844864 C10.24647119 97.29785716 13.31143397 99.25349751 16.66624451 101.11274719 C20.98773767 103.55916239 22.76756407 105.84408679 25.375 110 C26.08398438 111.093125 26.79296875 112.18625 27.5234375 113.3125 C29 116 29 116 29 118 C30.63705147 117.98667633 30.63705147 117.98667633 32.30717468 117.9730835 C42.59214397 117.89199771 52.87704842 117.83203457 63.16226482 117.79275131 C68.45002756 117.7718764 73.73753226 117.74356022 79.02514648 117.69824219 C84.12798919 117.65478144 89.23058369 117.63086217 94.33359718 117.62049103 C96.28047404 117.6131001 98.22733731 117.59866734 100.17410851 117.57707977 C102.90112032 117.54804279 105.62710652 117.54404412 108.35424805 117.54589844 C109.15913666 117.53151733 109.96402527 117.51713623 110.79330444 117.50231934 C114.57229246 117.53012455 116.76473683 117.85111747 119.98957825 119.89190674 C122.80296351 122.84197356 122.90751051 124.8754552 123.140625 128.8125 C122.94202317 131.90186172 121.98747342 133.65762062 120 136 C116.29726766 138.46848823 114.3816415 138.27316721 109.95825195 138.31884766 C109.24580322 138.32889328 108.53335449 138.3389389 107.79931641 138.34928894 C105.44564619 138.38016687 103.09208995 138.39716862 100.73828125 138.4140625 C99.1058809 138.43277047 97.47349026 138.4523436 95.84111023 138.4727478 C91.54545815 138.52411433 87.2497747 138.56371577 82.95397949 138.60089111 C78.57015189 138.64090248 74.18645529 138.69200788 69.80273438 138.7421875 C61.20191234 138.8390003 52.60102557 138.92338785 44 139 C47.94635539 144.99200313 51.89337414 150.98356892 55.84082031 156.97485352 C57.17918355 159.00633214 58.51740366 161.03790506 59.85546875 163.06958008 C69.23651478 177.31515439 69.23651478 177.31515439 78.65625 191.53515625 C79.2262825 192.39585472 79.2262825 192.39585472 79.80783081 193.27394104 C82.32109217 197.0473684 84.95472099 200.71248946 87.625 204.375 C90.48982036 208.683829 92.0504447 211.87185134 91.5390625 217.08984375 C90.69715283 220.07313235 89.23105866 221.90018008 87 224 C83.44148078 225.77925961 79.87801985 225.62295816 76 225 C72.49256645 223.38801416 69.48571499 221.21103976 66.37109375 218.9453125 C64.51494953 217.65153605 62.65798679 216.35893326 60.80029297 215.06738281 C59.84644714 214.39485474 58.89260132 213.72232666 57.90985107 213.02941895 C53.18223045 209.73223204 48.35751014 206.58591912 43.53515625 203.4296875 C41.62532619 202.1723683 39.71582104 200.91455543 37.80664062 199.65625 C35.89194628 198.39580418 33.97723258 197.13538775 32.0625 195.875 C29.12671656 193.94182662 26.19104431 192.00848462 23.25547791 190.07498169 C21.45367408 188.88829566 19.65173196 187.70181957 17.84962463 186.51559448 C16.63060707 185.71292648 16.63060707 185.71292648 15.38696289 184.89404297 C14.68197159 184.4299704 13.97698029 183.96589783 13.25062561 183.48776245 C10.49519997 181.66630499 7.74740331 179.83352979 5 178 C4.99635437 178.9034465 4.99270874 179.80689301 4.98895264 180.73771667 C4.95106658 189.25702647 4.89420688 197.77595368 4.81609726 206.2949934 C4.77660874 210.67462335 4.74442713 215.05405183 4.72900391 219.43383789 C4.71384618 223.66160117 4.67941693 227.88881061 4.63169098 232.11632729 C4.61686795 233.72818497 4.60895845 235.34012173 4.60811615 236.95204735 C4.60574738 239.21236401 4.5786785 241.47114897 4.54589844 243.73120117 C4.53701599 245.01693527 4.52813354 246.30266937 4.51898193 247.62736511 C3.91458682 251.55506265 2.78780377 253.21998621 0 256 C-4.1367203 257.53924476 -7.9044212 257.46620375 -11.9375 255.75 C-14 254 -14 254 -16 251 C-16.18450195 248.16040006 -16.25218908 245.42034177 -16.22705078 242.58129883 C-16.22734283 241.72254654 -16.22763489 240.86379425 -16.22793579 239.97901917 C-16.22654155 237.13825403 -16.2109759 234.29775061 -16.1953125 231.45703125 C-16.19158271 229.48833866 -16.18873558 227.51964421 -16.18673706 225.5509491 C-16.17909796 220.36743044 -16.15944707 215.18402372 -16.1373291 210.00054932 C-16.11687665 204.71197016 -16.10773663 199.42337293 -16.09765625 194.13476562 C-16.07620147 183.75646121 -16.04206215 173.37823991 -16 163 C-16.77182617 162.7006958 -17.54365234 162.4013916 -18.33886719 162.09301758 C-28.87271584 157.76640836 -35.49774515 149.59158499 -41 140 C-41 139.34 -41 138.68 -41 138 C-42.09136765 138.00888245 -43.18273529 138.01776489 -44.30717468 138.0269165 C-54.59214397 138.10800229 -64.87704842 138.16796543 -75.16226482 138.20724869 C-80.45002756 138.2281236 -85.73753226 138.25643978 -91.02514648 138.30175781 C-96.12798919 138.34521856 -101.23058369 138.36913783 -106.33359718 138.37950897 C-108.28047404 138.3868999 -110.22733731 138.40133266 -112.17410851 138.42292023 C-114.90112032 138.45195721 -117.62710652 138.45595588 -120.35424805 138.45410156 C-121.56158096 138.47567322 -121.56158096 138.47567322 -122.79330444 138.49768066 C-126.57229246 138.46987545 -128.76473683 138.14888253 -131.98957825 136.10809326 C-134.80296351 133.15802644 -134.90751051 131.1245448 -135.140625 127.1875 C-134.94202317 124.09813828 -133.98747342 122.34237938 -132 120 C-128.29726766 117.53151177 -126.3816415 117.72683279 -121.95825195 117.68115234 C-121.24580322 117.67110672 -120.53335449 117.6610611 -119.79931641 117.65071106 C-117.44564619 117.61983313 -115.09208995 117.60283138 -112.73828125 117.5859375 C-111.1058809 117.56722953 -109.47349026 117.5476564 -107.84111023 117.5272522 C-103.54545815 117.47588567 -99.2497747 117.43628423 -94.95397949 117.39910889 C-90.57015189 117.35909752 -86.18645529 117.30799212 -81.80273438 117.2578125 C-73.20191234 117.1609997 -64.60102557 117.07661215 -56 117 C-59.13287967 112.23998808 -62.2666688 107.48057745 -65.40161133 102.72192383 C-68.05834378 98.68873101 -70.71137793 94.65313786 -73.36206055 90.6159668 C-79.14405949 81.81844956 -84.92986187 73.03105174 -90.93359375 64.3828125 C-91.78166228 63.1516204 -92.62949266 61.92026422 -93.47705078 60.6887207 C-94.98698288 58.49564635 -96.51901596 56.32608268 -98.06982422 54.16088867 C-101.63223577 48.98670417 -103.82985256 45.2492838 -103.43579102 38.86401367 C-102.73175922 35.85265076 -101.21313959 34.0829549 -99 32 C-95.51801289 30.25900645 -91.8067685 30.53984389 -88 31 C-85.42923298 32.27266429 -83.56052675 33.38986475 -81.32421875 35.0859375 C-80.02127851 36.0118653 -78.71699262 36.93590142 -77.41162109 37.85839844 C-76.70890076 38.36350952 -76.00618042 38.86862061 -75.28216553 39.38903809 C-71.03994654 42.38358565 -66.67691747 45.19659765 -62.33203125 48.0390625 C-60.42996936 49.291106 -58.52828114 50.54371734 -56.62695312 51.796875 C-54.68882909 53.07295768 -52.75067788 54.34899909 -50.8125 55.625 C-47.89809999 57.54383068 -44.98378973 59.46279701 -42.06974792 61.38217163 C-40.27447904 62.56464353 -38.47901525 63.74681961 -36.68330383 64.92861938 C-30.10561238 69.26096055 -23.54998495 73.62592684 -17 78 C-16.99635437 77.0965535 -16.99270874 76.19310699 -16.98895264 75.26228333 C-16.95106658 66.74297353 -16.89420688 58.22404632 -16.81609726 49.7050066 C-16.77660874 45.32537665 -16.74442713 40.94594817 -16.72900391 36.56616211 C-16.71384618 32.33839883 -16.67941693 28.11118939 -16.63169098 23.88367271 C-16.61686795 22.27181503 -16.60895845 20.65987827 -16.60811615 19.04795265 C-16.60574738 16.78763599 -16.5786785 14.52885103 -16.54589844 12.26879883 C-16.53257477 10.34019768 -16.53257477 10.34019768 -16.51898193 8.37263489 C-15.91207126 4.42858984 -14.82842125 2.76907659 -12 0 C-7.82898506 -1.39033831 -4.23887371 -1.11912398 0 0 Z M-53 81 C-51.30007247 86.21520978 -48.18182361 90.44442041 -45.125 94.9375 C-43.86234114 96.80274936 -42.60068461 98.6686775 -41.33984375 100.53515625 C-40.65003418 101.55625488 -39.96022461 102.57735352 -39.24951172 103.62939453 C-37.21480507 106.66222085 -35.2257853 109.72321167 -33.24481201 112.79133606 C-31.50073494 115.49061283 -29.7446671 118.18199788 -27.98797607 120.87307739 C-27.12963735 122.19438405 -26.27652749 123.51910409 -25.42901611 124.84738159 C-20.50085277 132.56229382 -15.82274054 138.9634975 -8 144 C-6.77518921 144.82709473 -6.77518921 144.82709473 -5.52563477 145.67089844 C-2.84926303 147.45867543 -0.14789332 149.20178362 2.5625 150.9375 C8.99624932 155.08781085 15.41409533 159.25619186 21.765625 163.53125 C22.86060303 164.26738525 23.95558105 165.00352051 25.08374023 165.76196289 C27.21066051 167.19508097 29.33523708 168.63168448 31.45727539 170.07202148 C32.41625732 170.71727783 33.37523926 171.36253418 34.36328125 172.02734375 C35.21188721 172.60218506 36.06049316 173.17702637 36.93481445 173.76928711 C38.88566187 175.17064159 38.88566187 175.17064159 41 175 C39.43613866 170.44742589 36.94488709 166.69329804 34.25 162.75 C30.46226347 157.17154312 26.71095817 151.57425671 23.04782104 145.91317749 C21.12922815 142.951253 19.19811677 139.99758088 17.26623535 137.04431152 C16.3049446 135.56851349 15.34887093 134.08930269 14.39831543 132.60656738 C9.11170328 124.36939585 4.42378882 117.3124314 -4 112 C-4.92385498 111.37826904 -5.84770996 110.75653809 -6.79956055 110.1159668 C-9.92875371 108.0225227 -13.08493715 105.97625883 -16.25 103.9375 C-18.54814171 102.44986658 -20.84450421 100.95950026 -23.140625 99.46875 C-23.7142981 99.09676987 -24.28797119 98.72478973 -24.87902832 98.34153748 C-31.53488948 94.01780141 -38.11621495 89.58183194 -44.67675781 85.11499023 C-45.48467773 84.57044189 -46.29259766 84.02589355 -47.125 83.46484375 C-47.82882813 82.986521 -48.53265625 82.50819824 -49.2578125 82.01538086 C-50.95190969 80.83215341 -50.95190969 80.83215341 -53 81 Z " fill="#011E6C" transform="translate(262,154)"/>
<path d="M0 0 C3.51152485 2.80921988 4.04921307 4.68321511 4.625 9.125 C4.04444294 13.9353299 2.57357407 15.36392593 -0.8125 18.75 C-3.87679776 20.28214888 -6.4290642 19.97938548 -9.8125 19.75 C-12.63525936 18.49544028 -14.27538541 17.46615278 -16.125 15 C-17.44439267 10.68198763 -17.39770303 7.06670682 -15.5625 2.9375 C-11.49337365 -2.14890794 -5.89510975 -2.62004878 0 0 Z " fill="#011E6C" transform="translate(106.8125,117.25)"/>
</svg>
