<?xml version="1.0" encoding="UTF-8"?>
<svg version="1.1" xmlns="http://www.w3.org/2000/svg" width="256" height="256">
<path d="M0 0 C1.30531174 -0.0071553 2.61062347 -0.01431061 3.95549011 -0.02168274 C5.41578651 -0.02452333 6.87608316 -0.02723502 8.33638 -0.02983093 C9.86372026 -0.0360927 11.39105897 -0.04273924 12.918396 -0.04974365 C17.07975863 -0.06718329 21.24110975 -0.07771404 25.40249991 -0.08594918 C28.00146737 -0.09109438 30.60043122 -0.0971704 33.19939613 -0.10346031 C41.3280434 -0.12252294 49.45668154 -0.13675028 57.58534688 -0.14507228 C66.97339748 -0.15484159 76.36121209 -0.18114853 85.74917954 -0.22157317 C93.00104018 -0.25172929 100.25283319 -0.26654078 107.50475532 -0.26985329 C111.83773584 -0.27220491 116.17046458 -0.28117917 120.50337791 -0.30631447 C124.58196777 -0.32959068 128.66014002 -0.33383039 132.73877907 -0.32355309 C134.23433953 -0.32305745 135.72992051 -0.32938604 137.22541809 -0.34310913 C139.27040076 -0.36082137 141.31556465 -0.35133879 143.3605957 -0.34057617 C144.50416377 -0.34296453 145.64773184 -0.34535288 146.82595348 -0.34781361 C150.73903134 0.26285266 152.91641415 1.70409676 155.99775696 4.14717102 C161.95834628 14.38947309 155.4617326 34.63224104 153.81025696 45.83467102 C153.17410839 50.18724029 152.54076543 54.54021513 151.90791321 58.89326477 C151.6677095 60.54064133 151.6677095 60.54064133 151.4226532 62.22129822 C150.33384764 69.7228225 149.30332862 77.23059198 148.30635071 84.74482727 C148.04046641 86.72897791 147.77443763 88.7131092 147.508255 90.69721985 C147.12876361 93.5273043 146.75284043 96.35759865 146.38902283 99.18974304 C146.05509017 101.78637088 145.70749462 104.38084202 145.35713196 106.97529602 C145.21681801 108.11412987 145.21681801 108.11412987 145.07366943 109.27597046 C144.08609755 116.40417514 141.2866435 120.38717313 135.99775696 125.14717102 C132.74187718 126.23246428 130.3582118 126.28109582 126.93136597 126.29434204 C125.66248535 126.30149734 124.39360474 126.30865265 123.08627319 126.31602478 C121.67729211 126.31886497 120.26831077 126.32157671 118.85932922 126.32417297 C117.37770936 126.33043833 115.89609106 126.3370852 114.41447449 126.34408569 C109.54771517 126.36511337 104.68095557 126.3754843 99.81416321 126.38545227 C98.13924073 126.38949978 96.46431842 126.39361671 94.78939629 126.39780235 C86.92345659 126.41684823 79.05752627 126.43108263 71.19156796 126.43941432 C62.10631689 126.44919622 53.02130885 126.47554295 43.93614346 126.51591522 C36.91611889 126.5460425 29.89616414 126.56087982 22.87607616 126.56419533 C18.68179634 126.56654899 14.48777634 126.57555062 10.29356575 126.60065651 C6.34955857 126.62388434 2.40598328 126.6281921 -1.53807449 126.61789513 C-2.98610048 126.61739842 -4.43414736 126.62375864 -5.88210869 126.63745117 C-7.85761671 126.65508858 -9.8333111 126.64570527 -11.80886841 126.63491821 C-12.91481071 126.63730657 -14.020753 126.63969492 -15.1602087 126.64215565 C-18.66045495 126.03253315 -19.87252968 124.94180776 -22.00224304 122.14717102 C-21.87724304 119.95967102 -21.87724304 119.95967102 -21.00224304 118.14717102 C-18.28026678 116.78618289 -16.13581425 117.01622117 -13.08734131 117.00914001 C-11.19653587 117.00096001 -11.19653587 117.00096001 -9.26753235 116.99261475 C-7.86277776 116.99149492 -6.45802312 116.9904444 -5.05326843 116.98945618 C-3.58002572 116.98478912 -2.10678444 116.97964574 -0.63354492 116.97406006 C2.54327192 116.96277043 5.72007932 116.95434051 8.89690971 116.94794083 C13.91766752 116.93727584 18.93835759 116.91703583 23.95907593 116.89482117 C38.23748174 116.8328438 52.51588359 116.77884989 66.79438782 116.74580383 C74.67695371 116.72748018 82.55940625 116.69857414 90.44188887 116.65779912 C94.61539116 116.63669358 98.7887504 116.62126685 102.96230888 116.61899185 C106.88660354 116.61685021 110.81060018 116.60103095 114.73480415 116.57460213 C116.17676782 116.56738948 117.61876751 116.56531765 119.06074524 116.56870461 C121.02580819 116.57258365 122.99088055 116.55642304 124.95587158 116.53916931 C126.05666015 116.53585917 127.15744871 116.53254902 128.29159451 116.52913857 C131.00474512 116.36399556 131.00474512 116.36399556 132.82483768 114.80528831 C134.68714801 112.17260163 134.91465336 109.56606251 135.43525696 106.39717102 C135.61846497 105.28740906 135.61846497 105.28740906 135.80537415 104.15522766 C137.15045337 95.71493935 138.16810315 87.22662611 139.227005 78.7467804 C141.15470043 63.43365346 143.4438359 48.17249269 145.71162415 32.9066925 C145.86252502 31.88589096 146.0134259 30.86508942 146.16889954 29.81335449 C146.45486873 27.87980644 146.74270582 25.94653345 147.03266907 24.01358032 C147.2237323 22.72087471 147.2237323 22.72087471 147.4186554 21.40205383 C147.58708954 20.27322784 147.58708954 20.27322784 147.75892639 19.12159729 C148.05780029 16.98225907 148.05780029 16.98225907 147.99775696 14.14717102 C147.28981995 14.65933167 147.28981995 14.65933167 146.56758118 15.18183899 C144.33627968 16.79570741 142.10456563 18.40900405 139.87275696 20.02217102 C139.05686096 20.61207825 138.24096497 21.20198547 137.40034485 21.80976868 C133.00612565 24.9841104 128.60292525 28.14469518 124.18232727 31.28218079 C119.92827326 34.30151286 115.70452594 37.33309234 111.62275696 40.58467102 C106.94593889 44.28606335 102.0174616 47.59421256 97.09004211 50.94844055 C90.91502922 55.16704241 84.94156938 59.60761741 78.99775696 64.14717102 C77.4782704 65.29478971 75.95759873 66.44084254 74.43525696 67.58467102 C73.8358429 68.03713196 73.23642883 68.4895929 72.61885071 68.95576477 C68.26381701 72.15645219 68.26381701 72.15645219 65.64619446 72.06513977 C62.15496643 70.85505336 60.28844598 69.01708976 57.62275696 66.45967102 C57.11454407 65.97852844 56.60633118 65.49738586 56.0827179 65.00166321 C54.97497058 63.95253391 53.87095042 62.89945858 52.7702179 61.8429718 C50.26323863 59.44442112 47.7274857 57.07727843 45.19062805 54.71040344 C43.93351423 53.53717093 42.67848688 52.36169706 41.42597961 51.18354797 C38.35474558 48.3023261 35.24904587 45.47734513 32.06806946 42.71748352 C27.81041119 39.01517198 23.71348711 35.15703119 19.62275696 31.27217102 C14.92945858 26.83556525 10.23400476 22.40726401 5.43525696 18.08467102 C4.68373352 17.40662415 3.93221008 16.72857727 3.15791321 16.02998352 C1.67593196 14.73827473 0.16036379 13.48440664 -1.38114929 12.26435852 C-6.88663478 7.84082062 -6.88663478 7.84082062 -7.56474304 3.77217102 C-6.54886699 -0.96858387 -4.49794483 0.01683645 0 0 Z M9.99775696 9.14717102 C14.28228763 14.32320342 18.81211773 18.96887419 23.74775696 23.52217102 C24.4558551 24.18064026 25.16395325 24.8391095 25.89350891 25.51753235 C30.39271115 29.69224574 34.93016516 33.82214372 39.50947571 37.90888977 C41.96171335 40.11474875 44.38923876 42.34466295 46.80976868 44.5851593 C47.92569419 45.61780197 49.04318295 46.64875814 50.16230774 47.67793274 C52.76966198 50.07620303 55.3594797 52.48706372 57.90791321 54.94795227 C58.78318665 55.77681946 59.65846008 56.60568665 60.56025696 57.45967102 C61.32467102 58.19830383 62.08908508 58.93693665 62.87666321 59.69795227 C64.83408746 61.32961362 64.83408746 61.32961362 66.91963196 61.13935852 C69.81563635 59.75667973 72.15597116 57.93350582 74.68525696 55.95967102 C79.00144932 52.63113242 83.3740526 49.47798711 87.96260071 46.53388977 C90.07242403 45.13642351 90.07242403 45.13642351 92.22431946 43.35029602 C96.55658291 39.90889238 101.12818966 36.81152124 105.67158508 33.65693665 C108.98739834 31.33734106 112.23254962 29.01029861 115.31806946 26.38935852 C117.82438027 24.29224131 120.34730928 22.80157207 123.20869446 21.24482727 C125.81964893 19.64290979 128.00567762 17.64152454 130.28681946 15.60810852 C132.71510384 13.53464195 135.3033477 11.85582079 137.99775696 10.14717102 C136.22256219 7.96087929 136.22256219 7.96087929 133.94956875 7.89828205 C132.67567083 7.8990992 132.67567083 7.8990992 131.3760376 7.89993286 C130.40183868 7.89573837 129.42763977 7.89154388 128.42391968 7.88722229 C127.35121323 7.8928418 126.27850677 7.8984613 125.17329407 7.9042511 C124.04629089 7.90235275 122.91928772 7.90045441 121.75813293 7.89849854 C118.01371918 7.89477919 114.26949739 7.90551598 110.52510071 7.91670227 C107.92635114 7.9178941 105.32760114 7.91834723 102.72885132 7.91809082 C97.27036158 7.91965797 91.81194147 7.92771926 86.35346985 7.94136047 C80.05974038 7.95703191 73.76607189 7.96236049 67.47232431 7.96162492 C61.40789669 7.96101204 55.34349198 7.96625318 49.2790699 7.97441673 C46.70475445 7.9775927 44.13043722 7.9795683 41.55611992 7.98031044 C37.94671001 7.98248872 34.33737522 7.99126671 30.72798157 8.00190735 C29.66944473 8.00145416 28.6109079 8.00100098 27.52029419 8.00053406 C21.59958118 8.02593982 15.8701015 8.38185013 9.99775696 9.14717102 Z " fill="#F8D10E" transform="translate(91.00224304199219,64.85282897949219)"/>
<path d="M0 0 C2.96044922 -0.3742218 2.96044922 -0.3742218 6.8046875 -0.37231445 C7.50402405 -0.37596512 8.2033606 -0.37961578 8.92388916 -0.38337708 C11.24117129 -0.39149921 13.55775774 -0.37785941 15.875 -0.36328125 C17.48160807 -0.36276284 19.08821678 -0.3632798 20.69482422 -0.36479187 C24.06422375 -0.36470207 27.43338439 -0.35425754 30.80273438 -0.33618164 C35.12741121 -0.31349408 39.45173878 -0.31294951 43.77645874 -0.31969929 C47.09467691 -0.32303658 50.41281506 -0.31641373 53.73101807 -0.30657005 C55.32586244 -0.30271362 56.92071571 -0.30157167 58.51556396 -0.3031559 C60.74232013 -0.30352568 62.96862409 -0.29093141 65.1953125 -0.2746582 C66.46391113 -0.27005081 67.73250977 -0.26544342 69.03955078 -0.26069641 C72 0 72 0 74 2 C73.44444444 6.55555556 73.44444444 6.55555556 72 8 C69.73008113 8.09439978 67.45718033 8.11742226 65.18530273 8.11352539 C64.11706772 8.11374443 64.11706772 8.11374443 63.0272522 8.1139679 C60.66266888 8.1132687 58.29816339 8.10547606 55.93359375 8.09765625 C54.29834537 8.09579209 52.66309643 8.09436818 51.02784729 8.09336853 C46.71565215 8.08954318 42.40349048 8.07971275 38.09130859 8.06866455 C33.69434054 8.0584508 29.29736711 8.05387099 24.90039062 8.04882812 C16.26691169 8.03809049 7.63346 8.02101387 -1 8 C-1.625 5.6875 -1.625 5.6875 -2 3 C-1.34 2.01 -0.68 1.02 0 0 Z " fill="#FCD403" transform="translate(33,125)"/>
<path d="M0 0 C1.33653625 -0.00945648 1.33653625 -0.00945648 2.70007324 -0.019104 C4.13921082 -0.01303131 4.13921082 -0.01303131 5.60742188 -0.00683594 C7.08861511 -0.00970612 7.08861511 -0.00970612 8.59973145 -0.01263428 C10.68774673 -0.01399543 12.7757705 -0.01030384 14.86376953 -0.00195312 C18.06366954 0.00874726 21.26300812 -0.00185088 24.46289062 -0.01464844 C26.49023562 -0.01332683 28.51758026 -0.01076441 30.54492188 -0.00683594 C31.50434692 -0.0108844 32.46377197 -0.01493286 33.45227051 -0.019104 C34.34329468 -0.01279968 35.23431885 -0.00649536 36.15234375 0 C37.32790833 0.00238678 37.32790833 0.00238678 38.52722168 0.00482178 C40.57617188 0.25878906 40.57617188 0.25878906 43.57617188 2.25878906 C43.88867188 4.75878906 43.88867188 4.75878906 43.57617188 7.25878906 C41.11762682 9.71733411 40.44454175 9.51105854 37.06640625 9.51757812 C36.13203735 9.52388245 35.19766846 9.53018677 34.23498535 9.53668213 C33.2235144 9.53263367 32.21204346 9.52858521 31.16992188 9.52441406 C30.13428101 9.52632751 29.09864014 9.52824097 28.03161621 9.5302124 C25.83927162 9.53157503 23.64691899 9.5278732 21.45458984 9.51953125 C18.08998571 9.50883299 14.72591556 9.51942409 11.36132812 9.53222656 C9.23502486 9.53090498 7.10872192 9.52834262 4.98242188 9.52441406 C3.46521545 9.53048676 3.46521545 9.53048676 1.9173584 9.53668213 C0.9829895 9.53037781 0.04862061 9.52407349 -0.9140625 9.51757812 C-2.15077698 9.51519135 -2.15077698 9.51519135 -3.41247559 9.51275635 C-5.42382812 9.25878906 -5.42382812 9.25878906 -7.42382812 7.25878906 C-7.73632812 4.75878906 -7.73632812 4.75878906 -7.42382812 2.25878906 C-4.28875177 0.16873816 -3.56866072 0.00724555 0 0 Z " fill="#FBD308" transform="translate(77.423828125,150.7412109375)"/>
<path d="M0 0 C0.89117523 -0.00315216 1.78235046 -0.00630432 2.70053101 -0.009552 C3.67027863 -0.00752777 4.64002625 -0.00550354 5.63916016 -0.00341797 C6.62945221 -0.00437469 7.61974426 -0.00533142 8.64004517 -0.00631714 C10.74001122 -0.00699919 12.83997937 -0.00514315 14.93994141 -0.00097656 C18.15743758 0.00436006 21.37479343 -0.00091487 24.59228516 -0.00732422 C26.6287438 -0.00666322 28.66520235 -0.00538161 30.70166016 -0.00341797 C31.66735931 -0.0054422 32.63305847 -0.00746643 33.62802124 -0.009552 C34.97424057 -0.00482376 34.97424057 -0.00482376 36.34765625 0 C37.13739838 0.00079559 37.9271405 0.00159119 38.74081421 0.00241089 C40.80322266 0.12939453 40.80322266 0.12939453 43.80322266 1.12939453 C44.49072266 3.44189453 44.49072266 3.44189453 44.80322266 6.12939453 C43.25070056 8.26085504 42.32383247 9.03466646 39.70957947 9.51034546 C38.90508865 9.51273224 38.10059784 9.51511902 37.27172852 9.51757812 C36.3574559 9.52703461 35.44318329 9.53649109 34.50120544 9.54623413 C33.51676956 9.54016144 32.53233368 9.53408875 31.51806641 9.52783203 C30.00002159 9.5321373 30.00002159 9.5321373 28.4513092 9.53652954 C26.3120162 9.53857123 24.17270457 9.53303405 22.03344727 9.52050781 C18.74990352 9.50443946 15.46758766 9.52036194 12.18408203 9.53955078 C10.10790743 9.5375687 8.03173359 9.53372574 5.95556641 9.52783203 C4.96910629 9.53390472 3.98264618 9.53997742 2.96629333 9.54623413 C2.05517288 9.53677765 1.14405243 9.52732117 0.20532227 9.51757812 C-1.00022057 9.51399796 -1.00022057 9.51399796 -2.2301178 9.51034546 C-3.20361427 9.32177475 -3.20361427 9.32177475 -4.19677734 9.12939453 C-6.19677734 6.12939453 -6.19677734 6.12939453 -5.88427734 3.50439453 C-4.77387131 -0.33155357 -3.76636269 0.00380193 0 0 Z " fill="#FBD406" transform="translate(40.19677734375,97.87060546875)"/>
<path d="M0 0 C1.258125 0.01417969 2.51625 0.02835938 3.8125 0.04296875 C5.070625 0.04941406 6.32875 0.05585938 7.625 0.0625 C10.8125 0.23046875 10.8125 0.23046875 12.8125 1.23046875 C13.625 3.60546875 13.625 3.60546875 13.8125 6.23046875 C12.765625 7.87890625 12.765625 7.87890625 10.8125 9.23046875 C7.52734375 9.55859375 7.52734375 9.55859375 3.75 9.48046875 C2.50089844 9.465 1.25179687 9.44953125 -0.03515625 9.43359375 C-3.1875 9.23046875 -3.1875 9.23046875 -5.1875 8.23046875 C-5.3125 5.35546875 -5.3125 5.35546875 -5.1875 2.23046875 C-3.1875 0.23046875 -3.1875 0.23046875 0 0 Z " fill="#F8D10F" transform="translate(51.1875,150.76953125)"/>
<path d="M0 0 C1.1127832 -0.01836914 1.1127832 -0.01836914 2.24804688 -0.03710938 C4.18763629 -0.04238478 6.1267371 0.06561098 8.0625 0.1875 C8.7225 0.8475 9.3825 1.5075 10.0625 2.1875 C9.50694444 6.74305556 9.50694444 6.74305556 8.0625 8.1875 C5.36595146 8.26069621 2.69558542 8.27992537 0 8.25 C-1.13791992 8.24323242 -1.13791992 8.24323242 -2.29882812 8.23632812 C-4.17841871 8.2245068 -6.05796899 8.20657078 -7.9375 8.1875 C-8.31813221 5.8614143 -8.65019945 3.52694736 -8.9375 1.1875 C-6.89483571 -0.85516429 -2.80058566 0.00242056 0 0 Z " fill="#F5CF13" transform="translate(15.9375,124.8125)"/>
<path d="M0 0 C1.125 2.3125 1.125 2.3125 2 5 C1.01 6.485 1.01 6.485 0 8 C-5.00611031 8.56672947 -7.93034032 7.95975249 -12 5 C-11.1875 2.5625 -11.1875 2.5625 -10 0 C-6.30581799 -1.231394 -3.7943739 -0.64432764 0 0 Z " fill="#F2CC16" transform="translate(39,152)"/>
</svg>
