<?xml version="1.0" encoding="UTF-8"?>
<svg version="1.1" xmlns="http://www.w3.org/2000/svg" width="512" height="433">
<path d="M0 0 C9.87121109 4.19720786 15.45015133 15.00388998 20.234375 23.96875 C21.44464574 26.18336876 22.65694205 28.39688157 23.87109375 30.609375 C24.4851709 31.73279297 25.09924805 32.85621094 25.73193359 34.01367188 C28.74951995 39.46651712 31.89302694 44.84390021 35.046875 50.21875 C35.60133301 51.16500244 36.15579102 52.11125488 36.72705078 53.08618164 C37.26442871 54.00262451 37.80180664 54.91906738 38.35546875 55.86328125 C38.87995605 56.75869629 39.40444336 57.65411133 39.94482422 58.57666016 C41.14802393 60.62199377 42.35897048 62.66277688 43.57470703 64.70068359 C44.21649902 65.7830127 44.85829102 66.8653418 45.51953125 67.98046875 C46.11000244 68.97006592 46.70047363 69.95966309 47.30883789 70.97924805 C48.609375 73.40625 48.609375 73.40625 48.609375 75.40625 C49.39699219 75.31085938 50.18460937 75.21546875 50.99609375 75.1171875 C65.90040094 73.60029943 80.39160196 76.0025174 92.859375 84.78125 C95.85546912 87.30456597 96.5527777 88.2305005 97.796875 92.09375 C97.5221657 96.94694767 97.5221657 96.94694767 95.609375 99.40625 C92.58151168 101.4944316 90.2313416 101.78458913 86.609375 101.40625 C84.14805205 100.16854006 81.87664642 98.91404828 79.546875 97.46875 C72.80535224 93.3556397 68.25509387 92.24005495 60.359375 92.28125 C59.27076172 92.27544922 59.27076172 92.27544922 58.16015625 92.26953125 C54.47121858 92.2761069 51.01284658 92.47475983 47.375 93.1015625 C43.02207718 93.45376995 42.02427643 92.97061851 38.609375 90.40625 C36.81103516 87.90795898 36.81103516 87.90795898 35.1484375 84.90234375 C34.20508545 83.22168823 34.20508545 83.22168823 33.24267578 81.50708008 C32.57317323 80.28600786 31.90374141 79.06489685 31.234375 77.84375 C30.53118083 76.58344878 29.8265695 75.32393731 29.12060547 74.06518555 C27.66428325 71.46692237 26.21327735 68.86579791 24.765625 66.26269531 C21.48506869 60.37840007 18.10985928 54.54901371 14.734375 48.71875 C14.1153833 47.64931152 13.4963916 46.57987305 12.85864258 45.47802734 C11.6661154 43.41804801 10.4731797 41.3583051 9.27978516 39.29882812 C7.70655921 36.57453976 6.14645096 33.84318265 4.58984375 31.109375 C3.70076251 29.56236108 2.81145751 28.01547572 1.921875 26.46875 C1.34300537 25.43971558 1.34300537 25.43971558 0.75244141 24.38989258 C-2.01159044 19.57635723 -2.01159044 19.57635723 -6.390625 16.40625 C-12.00608633 15.92485178 -15.1914804 16.94469249 -20.0234375 19.765625 C-20.92302689 20.28410004 -20.92302689 20.28410004 -21.84078979 20.81304932 C-23.1002659 21.54249495 -24.35562009 22.27909999 -25.60693359 23.02246094 C-27.50944339 24.15257804 -29.42299644 25.26159754 -31.33984375 26.3671875 C-39.2454123 30.84642189 -39.2454123 30.84642189 -46.390625 36.40625 C-46.89568843 40.2303017 -46.5431454 42.92009121 -45.390625 46.59375 C-42.91418635 56.03517237 -44.06287188 64.71054791 -48.390625 73.40625 C-53.41186322 81.75568647 -59.91243689 87.67517238 -69.23828125 90.70703125 C-79.89669712 93.07116563 -90.01228452 92.11708303 -99.390625 86.40625 C-102.18809511 84.18967532 -104.77970305 81.88818524 -107.33203125 79.39453125 C-109.42597217 77.25336989 -109.42597217 77.25336989 -112.390625 75.40625 C-116.63100943 75.72245629 -119.72669648 77.52819909 -123.35546875 79.64453125 C-124.48533203 80.30001953 -125.61519531 80.95550781 -126.77929688 81.63085938 C-127.36251709 81.9739917 -127.9457373 82.31712402 -128.54663086 82.6706543 C-130.31548657 83.71131451 -132.08968655 84.74229188 -133.86523438 85.77148438 C-143.32984499 90.3710488 -143.32984499 90.3710488 -150.390625 97.40625 C-151.14537877 103.98938009 -148.98222961 107.85834932 -145.765625 113.34375 C-145.27416992 114.2085498 -144.78271484 115.07334961 -144.27636719 115.96435547 C-142.66453261 118.78833389 -141.02980557 121.59806734 -139.390625 124.40625 C-138.28373539 126.31633742 -137.17696555 128.22649426 -136.0703125 130.13671875 C-133.75755222 134.11799883 -131.43282469 138.09202927 -129.1015625 142.0625 C-126.48158584 146.52980605 -123.88455064 151.0094743 -121.3046875 155.5 C-120.96602661 156.08913177 -120.62736572 156.67826355 -120.27844238 157.2852478 C-118.63784391 160.14006034 -116.99958735 162.99616685 -115.36425781 165.85400391 C-113.72128821 168.71377272 -112.05943513 171.56151341 -110.390625 174.40625 C-110.01454102 175.0775293 -109.63845703 175.74880859 -109.25097656 176.44042969 C-107.75584793 178.95720466 -106.76798602 180.25181843 -104.0234375 181.375 C-100.85551923 181.4126014 -98.31185142 180.77446195 -95.265625 179.90625 C-85.38514712 177.48904177 -76.32563214 178.34073414 -67.390625 183.40625 C-58.77242461 189.43260642 -52.33935119 197.86636535 -50.390625 208.40625 C-49.43101159 219.95851915 -52.05382549 229.38282992 -59.390625 238.40625 C-61.26969391 240.1815439 -63.15183337 241.88976755 -65.16796875 243.5078125 C-66.69663473 245.8813961 -66.67030751 247.49893601 -66.12817383 250.23730469 C-64.42400485 255.24883636 -61.47785677 259.70218028 -58.765625 264.21875 C-58.0868492 265.3681048 -57.40929955 266.51818451 -56.73291016 267.66894531 C-55.32657446 270.05957973 -53.91501884 272.4470155 -52.5 274.83251953 C-49.83585324 279.33376153 -47.23333101 283.87001162 -44.63061523 288.40698242 C-42.17151809 292.69132906 -39.69517172 296.9656023 -37.21923828 301.24023438 C-35.37024646 304.4415329 -33.53470823 307.65032024 -31.69921875 310.859375 C-30.53444515 312.87534157 -29.36910639 314.89098174 -28.203125 316.90625 C-27.41010986 318.30472168 -27.41010986 318.30472168 -26.60107422 319.73144531 C-26.10494629 320.58319336 -25.60881836 321.43494141 -25.09765625 322.3125 C-24.45534058 323.43108398 -24.45534058 323.43108398 -23.80004883 324.57226562 C-22.16124829 326.70472183 -20.90581534 327.49193738 -18.390625 328.40625 C-12.24137868 328.25029085 -8.1927749 325.88682354 -3.140625 322.71875 C-1.63846771 321.81175947 -0.13586325 320.90550913 1.3671875 320 C3.88597961 318.46341362 6.40042752 316.92002386 8.9140625 315.375 C12.79105013 313.09820948 15.67021391 311.50510906 20.171875 311.03125 C24.52750896 312.77350359 27.55650466 315.37761355 31.11328125 318.3984375 C40.20859047 325.71453913 50.38464756 326.41617277 61.609375 325.40625 C72.0336412 323.18966849 79.8601341 317.40649321 86.06640625 308.87109375 C92.63451659 298.37874534 92.68141216 287.27809426 90.921875 275.28125 C90.56311608 270.83263934 90.95719517 269.86795359 93.609375 266.40625 C96.47265625 264.43334961 96.47265625 264.43334961 99.921875 262.55859375 C100.53200439 262.22001846 101.14213379 261.88144318 101.77075195 261.53260803 C103.71056022 260.45749864 105.65885224 259.39927881 107.609375 258.34375 C109.55908455 257.28336051 111.50635812 256.21928053 113.44799805 255.1441803 C115.2087875 254.16983747 116.9772603 253.20941812 118.74609375 252.24975586 C121.49570857 250.47943342 122.98179308 249.20864887 124.609375 246.40625 C125.8218462 239.4389336 122.42973952 234.72492207 118.984375 228.96875 C118.40042969 227.96593994 117.81648438 226.96312988 117.21484375 225.92993164 C115.98011977 223.81309742 114.73875849 221.70012245 113.49121094 219.59082031 C111.67353216 216.51482109 109.87617021 213.42797528 108.0859375 210.3359375 C103.41332451 202.27828473 98.73877459 194.22702822 93.87109375 186.28515625 C93.27103516 185.29717041 92.67097656 184.30918457 92.05273438 183.29125977 C90.9161675 181.42379442 89.76841071 179.56307453 88.60742188 177.71069336 C85.44497532 172.49494962 83.68339707 168.55681116 83.609375 162.40625 C85.39506804 158.97222492 87.57447866 156.44638079 90.109375 153.53125 C96.92825697 145.36957282 99.00325301 135.44346505 98.484375 124.90625 C98.609375 121.40625 98.609375 121.40625 100.296875 118.46875 C102.93547523 116.11540385 104.0813758 115.40625 107.609375 115.40625 C110.796875 116.21875 110.796875 116.21875 113.609375 118.40625 C117.80911042 127.17250997 115.16281118 139.04194979 112.56640625 148.0078125 C110.09440575 154.83981387 106.72818303 160.45879046 102.609375 166.40625 C109.57818983 178.95459825 116.59540949 191.46352239 123.859375 203.84375 C128.11369959 211.09896175 132.32750221 218.37185913 136.421875 225.71875 C136.83663086 226.45988037 137.25138672 227.20101074 137.67871094 227.96459961 C142.04147864 235.84473174 143.22095706 243.95992175 140.99609375 252.859375 C136.85112981 262.13532954 127.09437473 267.17992601 118.609375 271.84375 C117.16111328 272.65489258 117.16111328 272.65489258 115.68359375 273.48242188 C113.33013159 274.79896259 110.97220825 276.10662764 108.609375 277.40625 C108.63257813 278.67339844 108.65578125 279.94054687 108.6796875 281.24609375 C108.69846333 282.94530655 108.71666157 284.6445258 108.734375 286.34375 C108.75113281 287.17455078 108.76789063 288.00535156 108.78515625 288.86132812 C108.89985626 303.60027973 103.23385528 316.66544261 92.984375 327.2265625 C79.41752758 339.67771523 64.89962469 343.27512948 47.00830078 342.58105469 C36.48951981 341.81457319 28.10046271 337.3971841 19.609375 331.40625 C18.949375 331.07625 18.289375 330.74625 17.609375 330.40625 C15.49712126 331.35875353 15.49712126 331.35875353 13.171875 332.828125 C12.27597656 333.35921875 11.38007813 333.8903125 10.45703125 334.4375 C8.58841043 335.56533698 6.72117329 336.69547033 4.85546875 337.828125 C-4.80981487 343.54755315 -13.14748081 346.72936024 -24.390625 344.40625 C-30.79281357 341.91651 -35.26985416 338.17318301 -38.765625 332.28125 C-39.09103271 331.73686279 -39.41644043 331.19247559 -39.75170898 330.6315918 C-40.97867963 328.56441003 -42.18553328 326.48626534 -43.390625 324.40625 C-43.91446777 323.50503418 -44.43831055 322.60381836 -44.97802734 321.67529297 C-48.45884449 315.67951938 -51.91966993 309.67242356 -55.37142944 303.65988159 C-58.35044907 298.4720835 -61.34430968 293.29296327 -64.33911133 288.11425781 C-69.17494536 279.74791562 -74.00574033 271.37859988 -78.765625 262.96875 C-79.12897949 262.33050293 -79.49233398 261.69225586 -79.86669922 261.03466797 C-83.62329113 254.36145586 -84.80864506 247.76215007 -82.8125 240.22265625 C-80.48166531 234.95708879 -76.5519572 231.49953619 -72.453125 227.5625 C-68.59084784 223.52466478 -67.57438963 220.06013165 -66.953125 214.46875 C-67.22570399 208.35349952 -69.97027545 203.96187094 -74.015625 199.53125 C-79.34576515 196.17523583 -84.17825798 194.8251594 -90.45703125 195.9609375 C-92.5228738 196.50389987 -94.58309771 197.06875177 -96.63671875 197.65625 C-103.20569016 199.44524647 -108.46237414 198.38708257 -114.390625 195.40625 C-121.19110578 191.01328208 -124.57422075 184.59890143 -128.390625 177.65625 C-129.37597934 175.90604019 -130.3613547 174.15584179 -131.34802246 172.40637207 C-132.36501725 170.59934971 -133.3762429 168.78918996 -134.38671875 166.97851562 C-137.49556303 161.42034725 -140.69926844 155.91737415 -143.890625 150.40625 C-151.390625 137.40625 -158.890625 124.40625 -166.390625 111.40625 C-166.390625 137.14625 -166.390625 162.88625 -166.390625 189.40625 C-164.740625 189.73625 -163.090625 190.06625 -161.390625 190.40625 C-147.47865449 197.06280543 -138.03358751 207.95358935 -132.16796875 222.1015625 C-127.57862627 235.7081558 -128.24645339 250.68169917 -133.8671875 263.87109375 C-140.03278166 275.93482479 -148.80884878 286.6928425 -162.06469727 291.00048828 C-163.27996849 291.39773605 -163.27996849 291.39773605 -164.51979065 291.80300903 C-165.13716599 292.00207855 -165.75454132 292.20114807 -166.390625 292.40625 C-166.38396317 293.34870575 -166.37730133 294.2911615 -166.37043762 295.26217651 C-166.30942131 304.17700735 -166.26455431 313.09179539 -166.23518848 322.00678825 C-166.21958329 326.58924998 -166.1984399 331.1715421 -166.16430664 335.75390625 C-166.13152852 340.18244196 -166.11373335 344.61081531 -166.10599327 349.03946304 C-166.1004827 350.72262245 -166.0897225 352.40577375 -166.07343483 354.08886337 C-165.96478212 365.78996007 -165.86476178 377.37461523 -174.390625 386.40625 C-180.40022068 391.1372083 -185.9699331 392.62623226 -193.5390625 392.8203125 C-194.52514999 392.84936172 -194.52514999 392.84936172 -195.53115845 392.8789978 C-197.60918635 392.93827461 -199.68727124 392.98496794 -201.765625 393.03125 C-203.1836165 393.06947778 -204.60158597 393.10853223 -206.01953125 393.1484375 C-209.47635961 393.24393171 -212.93335483 393.32815189 -216.390625 393.40625 C-216.96526489 394.61317505 -216.96526489 394.61317505 -217.55151367 395.84448242 C-223.56653994 408.22164566 -232.95319876 420.44024465 -246.390625 425.40625 C-250.05484412 425.78530715 -252.42403368 425.86410905 -255.765625 424.28125 C-258.04005818 421.65690402 -258.32159451 419.85777438 -258.390625 416.40625 C-256.4005125 412.17394408 -254.23882343 410.41032134 -250.203125 408.15625 C-240.18205685 402.04551929 -234.6509006 393.99655969 -230.890625 383.09375 C-229.32439355 379.24343101 -228.92547229 378.30880434 -225.390625 376.40625 C-222.61188731 376.09305454 -220.04554895 375.94167633 -217.265625 375.9296875 C-216.0897583 375.90631821 -216.0897583 375.90631821 -214.89013672 375.88247681 C-212.39030957 375.83504205 -209.89075924 375.80723292 -207.390625 375.78125 C-204.89068818 375.74468433 -202.39090549 375.70398106 -199.89111328 375.65859985 C-198.33749407 375.6315153 -196.78376295 375.61010301 -195.22998047 375.59506226 C-190.1349417 375.76238916 -190.1349417 375.76238916 -185.390625 374.40625 C-183.33293226 369.61320381 -183.10763948 365.12141518 -183.13525391 359.98583984 C-183.13163345 359.16233536 -183.128013 358.33883087 -183.12428284 357.4903717 C-183.11741484 355.71108479 -183.11487851 353.93177692 -183.11623001 352.15247726 C-183.1171981 349.33633996 -183.10422148 346.5205813 -183.08724976 343.70449829 C-183.04104943 335.70114004 -183.01635471 327.69782306 -183.00976562 319.69433594 C-183.00475707 314.79191185 -182.98054758 309.88988729 -182.94443893 304.98759842 C-182.93463219 303.12090068 -182.93231375 301.25414808 -182.93761063 299.3874321 C-182.9446647 296.78047514 -182.92743638 294.17471487 -182.90478516 291.56787109 C-182.91704384 290.41136299 -182.91704384 290.41136299 -182.92955017 289.23149109 C-182.87558524 285.74546517 -182.67805312 283.78415273 -180.53866577 280.97134399 C-177.89023659 279.04165967 -175.38181271 278.16244073 -172.265625 277.15625 C-161.59469095 273.19651999 -155.09420461 267.40533676 -149.73046875 257.359375 C-144.94653052 246.81518462 -145.37334834 236.15436001 -149.390625 225.40625 C-155.11833971 213.18355661 -163.0823532 208.08442904 -175.390625 203.40625 C-181.14757784 200.89234432 -181.14757784 200.89234432 -182.390625 198.40625 C-182.50268647 195.74808857 -182.55529738 193.11481775 -182.56420898 190.45581055 C-182.570896 189.63449646 -182.57758301 188.81318237 -182.58447266 187.96697998 C-182.59854017 186.17998943 -182.61042878 184.39298074 -182.62042046 182.60596275 C-182.63680926 179.77734691 -182.66004711 176.94886513 -182.68531799 174.12031555 C-182.75614623 166.07677883 -182.81618156 158.03318675 -182.86743164 149.98950195 C-182.89924244 145.07231898 -182.94052598 140.15528887 -182.98762703 135.23822975 C-183.00363749 133.36398891 -183.01596348 131.48971283 -183.02453423 129.6154232 C-183.03670267 126.9917489 -183.06085981 124.36843305 -183.08764648 121.74487305 C-183.08823563 120.97117874 -183.08882477 120.19748444 -183.08943176 119.40034485 C-183.14450074 115.32506907 -183.39268229 112.00326692 -185.390625 108.40625 C-188.42869727 106.38086849 -189.03493674 106.15365302 -192.44726562 106.1315918 C-193.25820679 106.12205978 -194.06914795 106.11252777 -194.90466309 106.10270691 C-195.77659302 106.10361832 -196.64852295 106.10452972 -197.546875 106.10546875 C-198.44555298 106.10118362 -199.34423096 106.0968985 -200.2701416 106.09248352 C-202.16983192 106.08674157 -204.06954423 106.08623897 -205.96923828 106.09057617 C-208.87961181 106.09373804 -211.78897079 106.07026904 -214.69921875 106.04492188 C-216.54426955 106.0426491 -218.38932309 106.04194528 -220.234375 106.04296875 C-221.5422699 106.02915413 -221.5422699 106.02915413 -222.87658691 106.01506042 C-223.68752808 106.02128922 -224.49846924 106.02751801 -225.33398438 106.03393555 C-226.04663452 106.03330612 -226.75928467 106.0326767 -227.49353027 106.0320282 C-229.97483626 106.52149179 -230.83931803 107.44317838 -232.390625 109.40625 C-233.40608269 112.28478686 -233.40608269 112.28478686 -234.203125 115.53125 C-236.88866965 124.67634334 -241.34129147 132.06175324 -249.390625 137.40625 C-258.68925217 142.32349013 -267.91371885 144.03294256 -278.37109375 141.7578125 C-287.59292229 138.71421888 -294.9405981 133.35132057 -300.1171875 125.0859375 C-302.20592019 120.69062884 -303.3178408 116.07050093 -304.43359375 111.34765625 C-305.14760409 108.12077587 -305.14760409 108.12077587 -308.390625 106.40625 C-311.39003523 106.22174223 -314.29439562 106.15034045 -317.29296875 106.17578125 C-318.60413414 106.17646858 -318.60413414 106.17646858 -319.94178772 106.1771698 C-321.7902258 106.18019034 -323.63866138 106.18807074 -325.48706055 106.20043945 C-328.31373131 106.21865723 -331.14007361 106.22094933 -333.96679688 106.22070312 C-335.76302366 106.22562007 -337.55924823 106.23144916 -339.35546875 106.23828125 C-340.20036362 106.23939407 -341.04525848 106.2405069 -341.91575623 106.24165344 C-342.7066011 106.24803329 -343.49744598 106.25441315 -344.31225586 106.26098633 C-345.0049205 106.26479813 -345.69758514 106.26860992 -346.41123962 106.27253723 C-348.5033885 106.41386748 -350.37547005 106.83935937 -352.390625 107.40625 C-354.15228612 112.72550329 -354.68343998 117.34121742 -354.6652832 122.92431641 C-354.67039413 123.74636063 -354.67550507 124.56840485 -354.68077087 125.4153595 C-354.69458942 128.11291934 -354.69371664 130.81022163 -354.69140625 133.5078125 C-354.69529609 135.39155166 -354.69963135 137.27528994 -354.70439148 139.1590271 C-354.71183602 143.09790905 -354.71157424 147.03670132 -354.70629883 150.97558594 C-354.70049204 156.0206683 -354.71747289 161.065385 -354.7406435 166.11040688 C-354.75537581 169.99661399 -354.75625347 173.88273277 -354.75313377 177.76896286 C-354.75364676 179.62928367 -354.75888026 181.48960945 -354.76894569 183.34990311 C-354.78128956 185.94916878 -354.77453206 188.54771836 -354.76293945 191.14697266 C-354.77058319 191.91281174 -354.77822693 192.67865082 -354.78610229 193.46769714 C-354.74201742 197.94235898 -354.20268 200.87093096 -351.390625 204.40625 C-348.96550126 205.50444547 -348.96550126 205.50444547 -346.203125 205.96875 C-337.68721312 207.97976349 -329.8731662 211.35739841 -324.7578125 218.7734375 C-318.88745969 228.33048531 -316.14072401 237.27359305 -318.015625 248.59375 C-319.81521528 256.10613359 -323.53037121 262.36370604 -329.390625 267.40625 C-330.18339844 268.14488281 -330.18339844 268.14488281 -330.9921875 268.8984375 C-336.24858951 273.39433879 -341.61593192 274.79791129 -348.31640625 276.25390625 C-351.45856235 277.1363975 -351.45856235 277.1363975 -353.05949402 279.46008301 C-354.76824311 283.24202502 -354.80338928 286.6279014 -354.76293945 290.69726562 C-354.76659012 291.51901779 -354.77024078 292.34076996 -354.77400208 293.18742371 C-354.78208901 295.89599458 -354.76851299 298.6039637 -354.75390625 301.3125 C-354.75338742 303.19909668 -354.75390601 305.0856939 -354.75541687 306.97229004 C-354.75532723 310.92317797 -354.74491445 314.87386151 -354.72680664 318.82470703 C-354.70411986 323.8854861 -354.7035763 328.94596661 -354.71032429 334.00678253 C-354.71366799 337.90157722 -354.7070266 341.79630401 -354.69719505 345.69108582 C-354.69334969 347.55697779 -354.69219208 349.42287732 -354.6937809 351.28877258 C-354.69415233 353.89773919 -354.68150945 356.50632505 -354.6652832 359.11523438 C-354.66776062 359.88421555 -354.67023804 360.65319672 -354.67279053 361.44548035 C-354.62308042 366.46118448 -354.2090036 370.39706913 -350.77124023 374.19555664 C-347.34407506 375.93848681 -344.05747562 375.80814396 -340.30078125 375.77734375 C-338.6959614 375.79472484 -337.09114373 375.81230924 -335.48632812 375.83007812 C-332.96716278 375.84014987 -330.44813973 375.84374662 -327.92895508 375.84204102 C-325.48996935 375.84561759 -323.05207265 375.87298076 -320.61328125 375.90234375 C-319.86417984 375.89416122 -319.11507843 375.8859787 -318.34327698 375.87754822 C-314.69240039 375.9293372 -312.57531663 376.28970793 -309.46020508 378.25537109 C-306.92549619 380.88965035 -306.11927248 383.1209946 -305.015625 386.59375 C-300.52261394 399.0156041 -292.62638548 405.40842792 -281.328125 411.71875 C-278.390625 413.40625 -278.390625 413.40625 -277.390625 415.40625 C-277.03542597 419.24239957 -276.84337906 421.55254634 -278.953125 424.84375 C-281.4761994 426.46110538 -283.20297084 427.11008786 -286.21484375 426.91015625 C-299.06187203 423.93481218 -308.94934049 414.38841327 -315.984375 403.703125 C-320.390625 396.50625 -320.390625 396.50625 -320.390625 392.40625 C-321.7206958 392.44552612 -321.7206958 392.44552612 -323.07763672 392.4855957 C-326.41390686 392.57155961 -329.74897605 392.63385042 -333.0859375 392.6809082 C-334.52134948 392.70582855 -335.95663757 392.73977875 -337.39160156 392.78344727 C-347.70313512 393.08905408 -355.65400034 392.26031702 -363.828125 385.34375 C-364.34375 384.704375 -364.859375 384.065 -365.390625 383.40625 C-365.926875 382.766875 -366.463125 382.1275 -367.015625 381.46875 C-370.61226104 376.07379594 -370.68758784 371.25910655 -370.68115234 364.96948242 C-370.68786957 364.02575272 -370.69458679 363.08202301 -370.70150757 362.10969543 C-370.72048605 358.99364945 -370.7244118 355.87781891 -370.7265625 352.76171875 C-370.73299085 350.59084485 -370.73971924 348.41997182 -370.74673462 346.24909973 C-370.75870725 341.69884229 -370.76241548 337.14866076 -370.76123047 332.59838867 C-370.76102736 326.77775104 -370.7883218 320.95760208 -370.82277489 315.13708019 C-370.84505167 310.65283488 -370.84906775 306.16870698 -370.84801102 301.684412 C-370.85036609 299.53907908 -370.85918429 297.39374287 -370.87467575 295.24846458 C-370.89434966 292.24236573 -370.88849167 289.23731825 -370.87646484 286.23120117 C-370.89332336 284.91156876 -370.89332336 284.91156876 -370.91052246 283.5652771 C-370.83573229 276.1802186 -368.68657611 270.60604211 -363.578125 265.21875 C-359.513685 261.95299909 -354.65617933 260.57843552 -349.72143555 259.1418457 C-346.02187632 258.05468829 -343.37499619 256.83148841 -340.390625 254.40625 C-339.730625 254.40625 -339.070625 254.40625 -338.390625 254.40625 C-337.70715818 252.74640202 -337.04474185 251.07788195 -336.390625 249.40625 C-335.99875 248.49875 -335.606875 247.59125 -335.203125 246.65625 C-333.71883759 240.71910036 -334.48731643 235.48847908 -337.390625 230.09375 C-341.49719996 224.16333803 -347.78837164 222.81633241 -354.453125 221.09375 C-359.84770382 219.53923741 -363.87226515 216.79404289 -367.390625 212.40625 C-370.36406363 206.70973101 -370.8273035 202.11036845 -370.79467773 195.74243164 C-370.80497261 194.326399 -370.80497261 194.326399 -370.81547546 192.88175964 C-370.83370301 189.77648671 -370.8299117 186.67172095 -370.82421875 183.56640625 C-370.82878244 181.39839006 -370.83408857 179.23037532 -370.84010315 177.06236267 C-370.84902629 172.52401849 -370.84662005 167.98585036 -370.83666992 163.44750977 C-370.82518068 157.64259571 -370.84539555 151.83829001 -370.87458706 146.03345585 C-370.89296613 141.55777653 -370.89265317 137.08224255 -370.88694954 132.60653496 C-370.88679654 130.46679264 -370.89282324 128.32704035 -370.90524101 126.18733406 C-370.92018136 123.19099291 -370.90945118 120.19576996 -370.89233398 117.19946289 C-370.90200195 116.32285004 -370.91166992 115.44623718 -370.92163086 114.5430603 C-370.83439379 107.22046183 -368.75773902 102.06925328 -363.890625 96.59375 C-356.55387355 90.17409248 -350.57010529 89.09630768 -340.98828125 89.10546875 C-339.99235458 89.10118362 -338.99642792 89.0968985 -337.97032166 89.09248352 C-335.86995197 89.08675607 -333.76956245 89.08622824 -331.66918945 89.09057617 C-328.46726444 89.09373605 -325.26626407 89.07025694 -322.06445312 89.04492188 C-320.01823033 89.04264862 -317.97200506 89.04194551 -315.92578125 89.04296875 C-314.49891747 89.02915413 -314.49891747 89.02915413 -313.04322815 89.01506042 C-304.46655066 89.07434875 -298.62249922 91.17437578 -292.390625 97.40625 C-289.51795228 101.66673421 -288.13645512 106.1437405 -286.890625 111.09375 C-285.5498393 116.22988146 -284.17734489 119.4935468 -279.671875 122.5859375 C-274.6739193 125.46174534 -270.09210558 126.39132256 -264.390625 125.40625 C-258.95903376 123.6085375 -255.61747384 121.19723331 -252.390625 116.40625 C-251.49300675 113.76846386 -250.7207116 111.21557085 -250.015625 108.53125 C-247.98010543 101.5410549 -246.03061358 96.1399846 -239.47926331 92.28013611 C-233.45227814 89.40274037 -228.35698485 88.83050882 -221.73046875 88.91015625 C-220.7411586 88.90870102 -219.75184845 88.90724579 -218.7325592 88.90574646 C-216.65427689 88.9073967 -214.57598123 88.91885894 -212.49780273 88.93969727 C-209.33328922 88.96870267 -206.17044945 88.96027651 -203.00585938 88.94726562 C-200.97655444 88.95350286 -198.94725473 88.96189369 -196.91796875 88.97265625 C-195.51296364 88.96825279 -195.51296364 88.96825279 -194.07957458 88.96376038 C-185.36442882 89.08778627 -178.7407621 91.0561129 -172.390625 97.40625 C-170.86522309 99.68487832 -169.64022433 101.95511285 -168.390625 104.40625 C-168.37644531 103.71660156 -168.36226562 103.02695313 -168.34765625 102.31640625 C-167.91360487 93.76442089 -165.86974231 87.46565855 -159.484375 81.5859375 C-154.46532164 77.41435071 -148.7269337 74.45196812 -143.015625 71.34375 C-141.38753906 70.4455957 -141.38753906 70.4455957 -139.7265625 69.52929688 C-137.60308963 68.35856576 -135.47718134 67.19223903 -133.34863281 66.03076172 C-129.97741969 64.1793213 -126.63664347 62.27739865 -123.30615234 60.35375977 C-117.63434996 57.54821999 -111.73790898 57.83485771 -105.765625 59.59375 C-101.61960857 61.09247891 -99.33210318 63.07773521 -96.390625 66.40625 C-90.53028032 71.93950567 -86.0012745 74.92932874 -77.734375 74.72265625 C-72.51206023 74.01764376 -68.65148868 71.7002943 -65.015625 67.96875 C-61.79099912 62.88376303 -60.64699979 58.45367265 -61.390625 52.40625 C-61.71675781 51.47425781 -62.04289062 50.54226562 -62.37890625 49.58203125 C-64.33939982 43.4280495 -64.68724663 36.07615229 -62.515625 29.9296875 C-57.23146077 20.92574977 -47.94115467 16.18719369 -39.078125 11.34375 C-37.46260742 10.4455957 -37.46260742 10.4455957 -35.81445312 9.52929688 C-32.68501 7.79872051 -29.54114455 6.09809221 -26.390625 4.40625 C-25.47635742 3.90246826 -24.56208984 3.39868652 -23.62011719 2.87963867 C-15.83605779 -1.26384653 -8.68869587 -2.15797675 0 0 Z " fill="#E9E9E9" transform="translate(370.390625,3.59375)"/>
</svg>
