<?xml version="1.0" encoding="UTF-8"?>
<svg version="1.1" xmlns="http://www.w3.org/2000/svg" width="410" height="410">
<path d="M0 0 C0.80961182 0.01772461 1.61922363 0.03544922 2.45336914 0.05371094 C66.43432627 2.15667657 66.43432627 2.15667657 84 19.5 C85.72815571 21.45589716 87.35725324 23.47072459 89 25.5 C89.66 25.5 90.32 25.5 91 25.5 C92.04497358 24.33034207 93.036096 23.11231908 94 21.875 C107.65967671 5.96681683 133.1861699 4.42989029 152.87890625 2.85546875 C159.73198276 2.40401291 166.5878995 2.22010277 173.45404053 2.14852905 C174.85260138 2.13292201 176.25110816 2.11119481 177.6494751 2.0831604 C179.62151638 2.04741815 181.59404438 2.04266669 183.56640625 2.0390625 C184.71052979 2.03084473 185.85465332 2.02262695 187.03344727 2.01416016 C190.66838035 2.60946234 191.8400513 3.5559692 194 6.5 C195.93556829 13.55629418 192.4435486 21.21427447 190.0625 27.75 C189.65644531 28.88880615 189.25039063 30.0276123 188.83203125 31.20092773 C168.68486815 86.88933439 168.68486815 86.88933439 149 96.5 C137.51700756 101.4434205 124.19395932 102.72906496 112.25 98.4921875 C107.2127015 96.27087879 102.57430686 93.5495379 98 90.5 C98 98.09 98 105.68 98 113.5 C99.381875 112.5925 100.76375 111.685 102.1875 110.75 C122.36371024 98.74035105 150.57601453 98.38701315 173.45404053 98.14852905 C174.85260138 98.13292201 176.25110816 98.11119481 177.6494751 98.0831604 C179.62151638 98.04741815 181.59404438 98.04266669 183.56640625 98.0390625 C184.71052979 98.03084473 185.85465332 98.02262695 187.03344727 98.01416016 C190.66838035 98.60946234 191.8400513 99.5559692 194 102.5 C195.93556829 109.55629418 192.4435486 117.21427447 190.0625 123.75 C189.65644531 124.88880615 189.25039063 126.0276123 188.83203125 127.20092773 C168.68486815 182.88933439 168.68486815 182.88933439 149 192.5 C137.51700756 197.4434205 124.19395932 198.72906496 112.25 194.4921875 C107.2127015 192.27087879 102.57430686 189.5495379 98 186.5 C98.33 190.79 98.66 195.08 99 199.5 C102.0009375 200.2425 102.0009375 200.2425 105.0625 201 C118.29241966 204.62371109 132.65945389 212.05005042 141.0078125 223.17578125 C143.22894436 226.04583203 144.7732794 227.801726 148 229.5 C152.7990785 229.6826882 157.46927116 228.43532752 162.1328125 227.43359375 C173.50208001 225.03688962 185.61690806 226.78464968 195.46484375 233.07421875 C197.76618796 234.77820905 199.89050016 236.56490763 202 238.5 C202.53109375 238.97695312 203.0621875 239.45390625 203.609375 239.9453125 C209.38186111 245.87297297 212.50592517 254.11278087 216 261.5 C216.59425781 261.34015625 217.18851562 261.1803125 217.80078125 261.015625 C225.1705263 259.2877274 231.61717984 261.22061361 238.140625 264.61328125 C244.44858018 268.69419118 247.81951841 274.39353992 250 281.5 C251.37535675 290.13132763 250.96451111 299.08314003 246 306.5 C245.57203125 307.16 245.1440625 307.82 244.703125 308.5 C239.91361875 314.8201732 233.16346903 318.32681283 226.390625 322.14404297 C222.77104109 324.19706268 219.18574344 326.30790847 215.59545898 328.41162109 C212.50539579 330.22093605 209.41150381 332.02353083 206.31640625 333.82421875 C200.20821816 337.37815914 194.10371076 340.93837702 188 344.5 C186.00001772 345.66669705 184.0000177 346.83336367 182 348 C180.515 348.86625 180.515 348.86625 179 349.75 C176 351.5 173 353.25 170 355 C169.00895264 355.57830566 168.01790527 356.15661133 166.99682617 356.75244141 C165.00809064 357.9121456 163.01867569 359.07068552 161.02856445 360.22802734 C155.84987459 363.24174716 150.68655037 366.27825122 145.54296875 369.3515625 C144.47884766 369.98320312 143.41472656 370.61484375 142.31835938 371.265625 C140.30083595 372.46380485 138.28746153 373.66901251 136.27929688 374.8828125 C126.3559911 380.75508277 116.7490515 384.59639288 105.13468933 384.65821838 C104.11760194 384.66562535 104.11760194 384.66562535 103.07996732 384.67318195 C100.81527681 384.68850043 98.55061454 384.69690217 96.28588867 384.70532227 C94.65955356 384.71490524 93.03322092 384.72491557 91.40689087 384.73532104 C86.99618641 384.76233076 82.5854713 384.7833616 78.17473006 384.80332303 C73.5635953 384.82520686 68.95249325 384.85258382 64.34138489 384.87937927 C55.61153337 384.92927375 46.88166366 384.97422462 38.15177661 385.01740164 C28.21228768 385.06680175 18.27283156 385.12170959 8.33337438 385.17708123 C-12.11105316 385.29085146 -32.55551205 385.39770129 -53 385.5 C-53.18719604 386.41906128 -53.18719604 386.41906128 -53.37817383 387.35668945 C-53.54857178 388.16323975 -53.71896973 388.96979004 -53.89453125 389.80078125 C-54.14360229 390.99828003 -54.14360229 390.99828003 -54.39770508 392.2199707 C-56.04246538 398.44632515 -60.83722315 402.93650329 -66 406.5 C-70.89260948 409.12527315 -75.85988726 408.82333405 -81.26953125 408.8359375 C-82.26450119 408.8425943 -83.25947113 408.8492511 -84.28459167 408.85610962 C-86.38673051 408.86621898 -88.48890133 408.87092717 -90.59106445 408.87060547 C-93.79107172 408.87497077 -96.98969038 408.91128761 -100.18945312 408.94921875 C-102.23697448 408.95508899 -104.28450235 408.959057 -106.33203125 408.9609375 C-107.28124954 408.97530853 -108.23046783 408.98967957 -109.20845032 409.00448608 C-116.43685415 408.95529602 -121.75867855 407.34039144 -127.2421875 402.53515625 C-127.78101563 401.88417969 -128.31984375 401.23320312 -128.875 400.5625 C-129.42929688 399.91410156 -129.98359375 399.26570313 -130.5546875 398.59765625 C-134.1799693 393.3360986 -134.2971336 388.61431617 -134.29052734 382.43041992 C-134.29724457 381.5257045 -134.30396179 380.62098907 -134.31088257 379.68885803 C-134.32985553 376.70267215 -134.33378652 373.71671114 -134.3359375 370.73046875 C-134.34236627 368.6492758 -134.34909469 366.56808376 -134.35610962 364.4868927 C-134.36808089 360.12494818 -134.37179063 355.76308284 -134.37060547 351.40112305 C-134.37040237 345.82261328 -134.39769572 340.24461348 -134.43214989 334.66622448 C-134.45443179 330.36727078 -134.4584426 326.06843951 -134.45738602 321.76943398 C-134.45974036 319.71341508 -134.46855446 317.65739273 -134.48405075 315.60143089 C-134.50373507 312.71984959 -134.49786279 309.83936414 -134.48583984 306.95776367 C-134.49707886 306.11541168 -134.50831787 305.27305969 -134.51989746 304.40518188 C-134.44835659 297.62799399 -132.50231616 292.52742747 -128.17578125 287.29296875 C-127.56089844 286.76316406 -126.94601563 286.23335938 -126.3125 285.6875 C-125.71050781 285.14480469 -125.10851562 284.60210937 -124.48828125 284.04296875 C-118.14034185 280.1066484 -111.4772812 279.04254459 -104.125 279.1015625 C-103.31562988 279.09869232 -102.50625977 279.09582214 -101.67236328 279.09286499 C-99.9749277 279.09083936 -98.27746797 279.09626311 -96.58007812 279.10888672 C-94.00597122 279.12496271 -91.43343402 279.10898721 -88.859375 279.08984375 C-87.19791326 279.09182645 -85.53645248 279.09567068 -83.875 279.1015625 C-83.11848145 279.09548981 -82.36196289 279.08941711 -81.58251953 279.0831604 C-73.74679515 279.18451792 -65.9971756 281.30244781 -60 286.5 C-58.89533262 288.18818188 -57.8398104 289.90912212 -56.82421875 291.65234375 C-56.29272217 292.55847412 -55.76122559 293.46460449 -55.21362305 294.39819336 C-54.81312744 295.09178955 -54.41263184 295.78538574 -54 296.5 C-52.86739746 295.72136597 -52.86739746 295.72136597 -51.71191406 294.92700195 C-48.85492812 292.97062562 -45.99153331 291.02438909 -43.12353516 289.08422852 C-41.89337321 288.24921241 -40.66573987 287.41045649 -39.44091797 286.56762695 C-29.45508166 279.70185334 -19.43490612 273.21739843 -7 272.5 C-6.97421875 271.90574219 -6.9484375 271.31148438 -6.921875 270.69921875 C-6.08662777 258.49321945 -1.90674582 248.84164843 7.1484375 240.52734375 C12.0513462 236.69134708 16.65795324 234.90207035 22.6875 233.5625 C28.57589628 232.23882505 31.75603969 230.61865723 35.35546875 225.70703125 C46.07698483 211.31829827 64.64670511 202.30715064 82 199.5 C82 195.21 82 190.92 82 186.5 C80.783125 187.4075 79.56625 188.315 78.3125 189.25 C67.07095952 196.6392992 54.16223279 198.26616345 41.078125 195.9921875 C35.25997284 194.42020229 30.04131628 191.77259931 25 188.5 C24.40574219 188.11585938 23.81148437 187.73171875 23.19921875 187.3359375 C2.14599547 171.55811959 -9.84836078 128.77356477 -13.5 104.125 C-12.76067412 100.24353915 -11.06968667 98.93083827 -8 96.5 C-5.02784231 96.05910939 -2.70172539 95.93088452 0.25 96.0625 C1.05542236 96.07990234 1.86084473 96.09730469 2.69067383 96.11523438 C13.8147144 96.44182708 24.92194852 97.47970671 36 98.5 C35.24799316 98.09587891 34.49598633 97.69175781 33.72119141 97.27539062 C32.73296387 96.74107422 31.74473633 96.20675781 30.7265625 95.65625 C29.74768066 95.12837891 28.76879883 94.60050781 27.76025391 94.05664062 C4.40087168 80.88315566 -4.05136847 43.11225007 -10.90087891 19.37841797 C-13.71200049 9.23800256 -13.71200049 9.23800256 -13 5.5 C-9.16216554 0.52557611 -6.01602787 -0.24484209 0 0 Z M7 17.5 C11.14782152 33.53114279 16.48959693 49.39989584 24.125 64.125 C24.50793213 64.87523437 24.89086426 65.62546875 25.28540039 66.3984375 C29.48391219 74.1468171 34.850726 79.88841977 43.2578125 82.83984375 C50.7698726 84.64830266 57.97989318 84.38748227 64.90234375 80.83203125 C71.86785205 76.40886862 77.15196324 71.12009189 80.25 63.375 C81.98249279 54.42378727 81.97464253 46.35700894 77 38.5 C71.03909039 30.22259829 64.15110437 26.39773214 54.4375 23.9375 C53.62249023 23.72770508 52.80748047 23.51791016 51.96777344 23.30175781 C37.26809064 19.69218758 22.09731986 18.18196616 7 17.5 Z M105.609375 34.53125 C99.29440766 42.25635568 98.14143995 50.77374112 99 60.5 C101.10501013 68.62838249 106.54393222 74.81978417 113.0625 79.875 C120.40801431 83.938476 128.2834125 84.99400643 136.49609375 82.84765625 C151.90245625 76.62636949 157.90405958 61.6851665 163.99658203 47.34350586 C170.68899844 33.79774416 170.68899844 33.79774416 174 19.5 C153.48826134 18.47630879 120.77792921 18.69152082 105.609375 34.53125 Z M77.1875 92.75 C68.13936517 99.3304617 56.83968521 100.17497196 46 100.5 C46 100.83 46 101.16 46 101.5 C47.07636719 101.73074219 48.15273437 101.96148437 49.26171875 102.19921875 C60.87101177 104.7628987 71.31347055 108.15673527 82 113.5 C82 105.91 82 98.32 82 90.5 C79.65999671 90.29176832 79.65999671 90.29176832 77.1875 92.75 Z M40 99.5 C44 100.5 44 100.5 44 100.5 Z M7 113.5 C11.14782152 129.53114279 16.48959693 145.39989584 24.125 160.125 C24.50793213 160.87523437 24.89086426 161.62546875 25.28540039 162.3984375 C29.48391219 170.1468171 34.850726 175.88841977 43.2578125 178.83984375 C50.7698726 180.64830266 57.97989318 180.38748227 64.90234375 176.83203125 C71.86785205 172.40886862 77.15196324 167.12009189 80.25 159.375 C81.98249279 150.42378727 81.97464253 142.35700894 77 134.5 C71.03909039 126.22259829 64.15110437 122.39773214 54.4375 119.9375 C53.62249023 119.72770508 52.80748047 119.51791016 51.96777344 119.30175781 C37.26809064 115.69218758 22.09731986 114.18196616 7 113.5 Z M105.609375 130.53125 C99.29440766 138.25635568 98.14143995 146.77374112 99 156.5 C101.10501013 164.62838249 106.54393222 170.81978417 113.0625 175.875 C120.40801431 179.938476 128.2834125 180.99400643 136.49609375 178.84765625 C151.90245625 172.62636949 157.90405958 157.6851665 163.99658203 143.34350586 C170.68899844 129.79774416 170.68899844 129.79774416 174 115.5 C153.48826134 114.47630879 120.77792921 114.69152082 105.609375 130.53125 Z M46.421875 239.4140625 C40.3366127 246.15767189 36.10258835 248.62168975 27.109375 249.9765625 C21.73980314 250.8804854 19.00934534 253.46718152 15.3125 257.25 C12.18598874 261.64401583 10 265.98461245 10 271.5 C10.88927043 271.50219984 10.88927043 271.50219984 11.79650593 271.50444412 C26.2627327 271.54159497 40.72874848 271.60071871 55.19478321 271.68390274 C62.19065008 271.72360848 69.18640585 271.75604369 76.18237305 271.77099609 C82.93877078 271.78545734 89.69481142 271.82066507 96.45105553 271.86830902 C99.02368862 271.88310191 101.59637091 271.89103981 104.1690464 271.89188385 C107.7833964 271.89426142 111.39680037 271.92140718 115.01098633 271.95410156 C116.59271889 271.94655602 116.59271889 271.94655602 118.20640564 271.93885803 C126.04141383 272.04791112 134.12917577 273.14428238 140.24174213 278.44342422 C145.66235025 284.19395015 147.07015602 289.7513002 148 297.5 C154.14554438 295.81828008 159.45817421 292.68266604 165 289.625 C166.56524414 288.76902222 166.56524414 288.76902222 168.16210938 287.89575195 C170.34222924 286.70315026 172.52125034 285.50853796 174.69921875 284.31201172 C178.97529575 281.96459726 183.25908947 279.63147549 187.54296875 277.29833984 C191.69705056 275.0354079 195.84868743 272.76800703 200 270.5 C197.4894706 261.26994688 194.3367279 253.05415692 186.0625 247.5 C175.04520797 241.57084666 164.08703347 243.45870636 152.50390625 246.84765625 C148.68929785 247.84147778 145.93169882 248.04230329 142 247.5 C139.5859375 245.296875 139.5859375 245.296875 137 242.5 C125.4328737 230.26553949 111.40658244 217.55625184 93.75 216.26171875 C74.03373601 215.87150103 59.33341894 224.82010526 46.421875 239.4140625 Z M216.71875 279.82421875 C215.72367432 280.35200928 214.72859863 280.8797998 213.70336914 281.42358398 C212.64625732 282.00567627 211.58914551 282.58776855 210.5 283.1875 C208.83602173 284.07900757 208.83602173 284.07900757 207.13842773 284.98852539 C203.74980015 286.80934182 200.37400118 288.65224909 197 290.5 C195.12669553 291.51635053 193.25302275 292.5320226 191.37890625 293.546875 C187.82089792 295.47863425 184.26806902 297.41951194 180.71875 299.3671875 C174.17844914 302.95417711 167.62369457 306.51393484 161.0625 310.0625 C159.96623291 310.65861084 158.86996582 311.25472168 157.74047852 311.86889648 C156.70334717 312.42907471 155.66621582 312.98925293 154.59765625 313.56640625 C153.68508057 314.06084229 152.77250488 314.55527832 151.83227539 315.06469727 C145.32581146 318.36195624 140.76337419 319.94609357 133.49438477 319.93237305 C132.67406265 319.9425647 131.85374054 319.95275635 131.00856018 319.96325684 C128.31943817 319.99325166 125.63067317 320.00263194 122.94140625 320.01171875 C121.06809823 320.02857548 119.19480146 320.04672705 117.32151794 320.06611633 C112.40776075 320.11351454 107.49404916 320.14338969 102.58013916 320.16955566 C97.55919391 320.19941262 92.53840559 320.24592529 87.51757812 320.29101562 C77.67844968 320.37693305 67.83933728 320.44278904 58 320.5 C58 314.89 58 309.28 58 303.5 C61.10390137 303.5314209 61.10390137 303.5314209 64.27050781 303.56347656 C71.10765503 303.62975799 77.94481645 303.67393984 84.78219986 303.70724869 C88.9277267 303.72812288 93.07292434 303.75643685 97.21826172 303.80175781 C101.21885157 303.84522249 105.21912481 303.86913838 109.21993256 303.87950897 C110.74619277 303.88689931 112.27243568 303.90133111 113.7985611 303.92292023 C115.93672614 303.95196424 118.07358346 303.95595585 120.21191406 303.95410156 C122.03725677 303.96742523 122.03725677 303.96742523 123.8994751 303.98101807 C127.61005647 303.40535532 128.78222935 302.47974236 131 299.5 C131.66666667 296.5 131.66666667 296.5 131 293.5 C129.1329009 291.19724444 127.64352259 289.82176129 125 288.5 C123.34191688 288.40076505 121.67987068 288.36493399 120.01882935 288.35955811 C118.96482437 288.35384796 117.9108194 288.34813782 116.82487488 288.34225464 C115.66337418 288.34113678 114.50187347 288.34001892 113.30517578 288.33886719 C112.08545578 288.33390228 110.86573578 288.32893738 109.60905457 288.32382202 C106.25515243 288.31169541 102.90131283 288.3042491 99.54739618 288.29981136 C97.44839236 288.2968793 95.34939399 288.29277397 93.25039291 288.28830719 C86.6733519 288.27462119 80.09632338 288.26496317 73.51926911 288.2611053 C65.94700236 288.25663882 58.3749174 288.23916162 50.80270588 288.2101047 C44.94010243 288.18839661 39.07754974 288.17839598 33.21490657 288.17706418 C29.71903742 288.17602152 26.22333889 288.17023129 22.72751236 288.15224457 C18.81454039 288.13250612 14.90178979 288.13708896 10.98876953 288.14355469 C9.27688194 288.12973251 9.27688194 288.12973251 7.53041077 288.1156311 C-3.43666876 288.17206906 -12.59154203 290.29064408 -22.04931641 295.87353516 C-24.75465809 297.36476354 -27.47351477 298.53918166 -30.33950615 299.68206596 C-38.99502919 303.25256853 -48.39684398 307.94618484 -53 316.5 C-55.1514628 325.03045388 -54.25404702 334.06951675 -53.83203125 342.76953125 C-53.76516161 345.17028615 -53.70443649 347.5712205 -53.65002441 349.97229004 C-53.50425208 355.81881444 -53.28235221 361.65856184 -53 367.5 C-31.93746086 367.59357689 -10.87495617 367.66404457 10.18774891 367.70724869 C19.96825435 367.72784523 29.74863038 367.75591009 39.52905273 367.80175781 C48.05692103 367.84171476 56.58469556 367.86745394 65.11265486 367.87635398 C69.62523268 367.88155376 74.13754235 367.89371412 78.65003395 367.92292023 C82.90424846 367.95022956 87.15808637 367.95841392 91.41238022 367.95243073 C92.96712356 367.95352407 94.52188053 367.96138519 96.07654762 367.9768219 C107.84883213 368.08790083 117.00336459 366.11758318 127.25 360.171875 C128.33877441 359.54531006 129.42754883 358.91874512 130.54931641 358.27319336 C131.69969279 357.59904895 132.84991662 356.92464415 134 356.25 C135.22668406 355.5391617 136.45374305 354.82897007 137.68115234 354.11938477 C147.15904508 348.627149 156.58014847 343.03671119 165.9921875 337.43261719 C173.62519768 332.89053235 181.29849966 328.4248112 189 324 C192.20787312 322.14949326 195.41505205 320.29778857 198.62207031 318.44580078 C200.97850905 317.08841304 203.33685864 315.73494465 205.69824219 314.38623047 C208.82866218 312.59742625 211.9506431 310.79459701 215.06787109 308.98291016 C216.25838318 308.29420808 217.45169496 307.61031972 218.64794922 306.93164062 C227.36022416 302.2408146 227.36022416 302.2408146 233 294.5 C233.90047635 290.42612078 233.88737053 286.37669427 232.08203125 282.55859375 C230.08208238 279.87257827 228.36300183 278.60160444 225.15039062 277.70239258 C221.49032198 277.46725643 219.9191333 278.09421023 216.71875 279.82421875 Z M-116 299.5 C-117.58345214 302.66690429 -117.16517209 306.07945974 -117.17700195 309.55810547 C-117.18357315 310.39077942 -117.19014435 311.22345337 -117.19691467 312.08135986 C-117.21666348 314.84330326 -117.22831284 317.6051923 -117.23828125 320.3671875 C-117.24235678 321.30916111 -117.2464323 322.25113472 -117.25063133 323.22165298 C-117.27149731 328.20587191 -117.2857976 333.19006324 -117.29516602 338.17431641 C-117.30624074 343.32843057 -117.34065133 348.48211421 -117.38033772 353.63607597 C-117.40645007 357.59429745 -117.41485298 361.55241544 -117.41844749 365.51071548 C-117.42332622 367.41096026 -117.43497659 369.31120003 -117.45348549 371.21136093 C-117.47776624 373.86895903 -117.47693257 376.52543102 -117.4699707 379.18310547 C-117.48278076 379.96974579 -117.49559082 380.75638611 -117.50878906 381.56686401 C-117.47539583 385.05932627 -117.27631775 387.11536033 -115.21305847 389.98745728 C-111.82671654 392.30189538 -108.39626135 392.07141714 -104.4375 392.03125 C-103.60919678 392.0350769 -102.78089355 392.03890381 -101.92749023 392.04284668 C-100.17918683 392.04556425 -98.43084266 392.03821381 -96.68261719 392.02148438 C-94.00884223 392.00007082 -91.33775404 392.02128944 -88.6640625 392.046875 C-86.96353575 392.04423169 -85.26301066 392.03910665 -83.5625 392.03125 C-82.76448975 392.03934692 -81.96647949 392.04744385 -81.14428711 392.05578613 C-77.56668942 391.99544622 -75.43472358 391.82449746 -72.52734375 389.65429688 C-69.64167931 385.58410778 -69.85176275 381.68110042 -69.85473633 376.89501953 C-69.85137772 376.12232727 -69.8480191 375.34963501 -69.84455872 374.55352783 C-69.83505214 371.99660641 -69.83310571 369.4397505 -69.83203125 366.8828125 C-69.82881833 365.1054583 -69.82545423 363.32810437 -69.82194519 361.55075073 C-69.81595456 357.82337837 -69.81410521 354.09602919 -69.81469727 350.36865234 C-69.81479885 345.59481841 -69.80114979 340.82113333 -69.78392506 336.04733467 C-69.77280056 332.37559325 -69.7707782 328.70388775 -69.77130699 325.0321312 C-69.77012744 323.27229169 -69.76570702 321.51245124 -69.75797462 319.75262833 C-69.74816622 317.28956972 -69.75105616 314.82683344 -69.75708008 312.36376953 C-69.75146057 311.63839996 -69.74584106 310.9130304 -69.74005127 310.16567993 C-69.76480966 306.17746873 -70.12780742 303.04860798 -72 299.5 C-75.95525503 296.19703726 -79.79415717 296.05870492 -84.75 296.1015625 C-85.85359863 296.09725723 -85.85359863 296.09725723 -86.97949219 296.09286499 C-88.52930474 296.09083074 -90.07914334 296.09631585 -91.62890625 296.10888672 C-93.99277493 296.1249509 -96.35493411 296.1090178 -98.71875 296.08984375 C-100.22917042 296.0918263 -101.73958978 296.09567021 -103.25 296.1015625 C-103.9522168 296.09548981 -104.65443359 296.08941711 -105.37792969 296.0831604 C-109.7445093 296.14533013 -112.52445916 296.82393155 -116 299.5 Z " fill="#FFD700" transform="translate(147,0.5)"/>
</svg>
