<?xml version="1.0" encoding="UTF-8"?>
<!DOCTYPE svg PUBLIC "-//W3C//DTD SVG 1.1//EN" "http://www.w3.org/Graphics/SVG/1.1/DTD/svg11.dtd">
<svg xmlns="http://www.w3.org/2000/svg" version="1.1" width="700px" height="500px" style="shape-rendering:geometricPrecision; text-rendering:geometricPrecision; image-rendering:optimizeQuality; fill-rule:evenodd; clip-rule:evenodd" xmlns:xlink="http://www.w3.org/1999/xlink">
<g><path style="opacity:0.06" fill="#ececec" d="M 185.5,51.5 C 183.5,51.5 181.5,51.5 179.5,51.5C 174.167,51.5 168.833,51.5 163.5,51.5C 166.768,50.1778 170.435,49.5112 174.5,49.5C 178.565,49.5112 182.232,50.1778 185.5,51.5 Z"/></g>
<g><path style="opacity:0.631" fill="#6c6c6c" d="M 179.5,51.5 C 181.5,51.5 183.5,51.5 185.5,51.5C 185.833,51.5 186.167,51.5 186.5,51.5C 188.5,52.1667 190.5,52.8333 192.5,53.5C 187.878,53.8439 183.545,53.1773 179.5,51.5 Z"/></g>
<g><path style="opacity:0.999" fill="#151515" d="M 163.5,51.5 C 168.833,51.5 174.167,51.5 179.5,51.5C 183.545,53.1773 187.878,53.8439 192.5,53.5C 231.138,63.8035 258.805,87.1369 275.5,123.5C 275.755,125.967 276.755,127.967 278.5,129.5C 282.623,138.742 285.623,148.409 287.5,158.5C 287.229,163.434 287.896,168.1 289.5,172.5C 289.5,176.5 289.5,180.5 289.5,184.5C 287.605,191.255 286.272,198.255 285.5,205.5C 279.542,224.42 270.209,241.42 257.5,256.5C 255.255,255.708 254.922,254.375 256.5,252.5C 261.143,246.566 265.31,240.233 269,233.5C 270.009,231.975 270.509,230.308 270.5,228.5C 273.201,225.765 274.868,222.431 275.5,218.5C 277.751,215.074 279.417,211.408 280.5,207.5C 281.866,204.039 282.866,200.373 283.5,196.5C 286.866,151.094 271.866,112.927 238.5,82C 237.255,81.2086 235.922,80.7086 234.5,80.5C 226.078,72.3481 216.078,67.0148 204.5,64.5C 204.53,63.5028 204.03,62.8361 203,62.5C 191.657,59.8082 180.157,58.4749 168.5,58.5C 167.698,97.8279 167.365,137.161 167.5,176.5C 167.333,232.501 167.5,288.501 168,344.5C 169.298,347.79 171.798,349.29 175.5,349C 184.186,349.632 192.852,349.466 201.5,348.5C 203.179,348.285 204.179,348.952 204.5,350.5C 203.508,350.328 202.842,350.662 202.5,351.5C 192.527,352.366 182.527,352.699 172.5,352.5C 169.872,351.186 167.205,349.853 164.5,348.5C 162.97,337.233 162.303,325.899 162.5,314.5C 161.849,228.167 161.683,141.834 162,55.5C 162.41,54.0993 162.91,52.766 163.5,51.5 Z"/></g>
<g><path style="opacity:0.031" fill="#e0e0e0" d="M 87.5,52.5 C 75.9653,58.0344 67.2986,66.7011 61.5,78.5C 60.8333,79.1667 60.1667,79.8333 59.5,80.5C 62.9537,68.8772 69.9537,60.0439 80.5,54C 82.74,53.023 85.0733,52.523 87.5,52.5 Z"/></g>
<g><path style="opacity:0.071" fill="#dadada" d="M 155.5,120.5 C 154.833,108.167 154.167,95.8333 153.5,83.5C 153.83,76.4684 153.497,69.4684 152.5,62.5C 144.336,55.8865 135.003,53.7198 124.5,56C 121.681,56.9118 119.014,58.0784 116.5,59.5C 113.594,58.5819 110.928,57.2485 108.5,55.5C 101.719,53.1979 94.7186,52.1979 87.5,52.5C 87.9175,51.7784 88.5842,51.2784 89.5,51C 99.0852,50.4198 108.085,52.5865 116.5,57.5C 124.05,53.6898 132.05,52.5231 140.5,54C 145.045,55.5462 149.378,57.5462 153.5,60C 154.297,63.7454 154.797,67.5787 155,71.5C 155.5,87.8299 155.667,104.163 155.5,120.5 Z"/></g>
<g><path style="opacity:0.482" fill="#808080" d="M 105.5,58.5 C 99.4638,58.3599 93.4638,58.6932 87.5,59.5C 90.6952,57.9704 94.1952,57.3037 98,57.5C 100.69,57.5029 103.19,57.8362 105.5,58.5 Z"/></g>
<g><path style="opacity:0.025" fill="#e3e3e3" d="M 105.5,58.5 C 111.281,61.8457 117.281,62.1791 123.5,59.5C 129.5,58.1667 135.5,58.1667 141.5,59.5C 144.945,60.1489 148.111,61.4823 151,63.5C 150.723,76.8151 150.557,90.1484 150.5,103.5C 149.833,109.167 149.167,114.833 148.5,120.5C 148.872,101.813 148.872,83.1461 148.5,64.5C 141.883,59.9389 134.549,58.4389 126.5,60C 123.212,61.8029 119.712,62.9696 116,63.5C 101.55,56.5975 88.5496,58.5975 77,69.5C 72.0903,75.992 68.2569,82.992 65.5,90.5C 65.7038,87.4824 66.0371,84.4824 66.5,81.5C 70.7713,71.6739 77.7713,64.3406 87.5,59.5C 93.4638,58.6932 99.4638,58.3599 105.5,58.5 Z"/></g>
<g><path style="opacity:0.927" fill="#2a2a2a" d="M 108.5,55.5 C 110.928,57.2485 113.594,58.5819 116.5,59.5C 119.014,58.0784 121.681,56.9118 124.5,56C 135.003,53.7198 144.336,55.8865 152.5,62.5C 153.497,69.4684 153.83,76.4684 153.5,83.5C 153.5,88.1667 153.5,92.8333 153.5,97.5C 152.732,96.7375 152.232,95.7375 152,94.5C 151.819,97.6946 151.319,100.695 150.5,103.5C 150.557,90.1484 150.723,76.8151 151,63.5C 148.111,61.4823 144.945,60.1489 141.5,59.5C 141.389,58.8826 141.056,58.3826 140.5,58C 135.167,57.3333 129.833,57.3333 124.5,58C 123.944,58.3826 123.611,58.8826 123.5,59.5C 117.281,62.1791 111.281,61.8457 105.5,58.5C 107.199,58.6602 108.866,58.4935 110.5,58C 109.244,57.5831 108.577,56.7498 108.5,55.5 Z"/></g>
<g><path style="opacity:0.331" fill="#a6a6a6" d="M 141.5,59.5 C 135.5,58.1667 129.5,58.1667 123.5,59.5C 123.611,58.8826 123.944,58.3826 124.5,58C 129.833,57.3333 135.167,57.3333 140.5,58C 141.056,58.3826 141.389,58.8826 141.5,59.5 Z"/></g>
<g><path style="opacity:0.018" fill="#e3e3e3" d="M 204.5,64.5 C 216.078,67.0148 226.078,72.3481 234.5,80.5C 224.761,74.7807 214.761,69.4474 204.5,64.5 Z"/></g>
<g><path style="opacity:0.8" fill="#5f5f5f" d="M 61.5,78.5 C 61.7406,80.8984 61.0739,82.8984 59.5,84.5C 59.5,83.1667 59.5,81.8333 59.5,80.5C 60.1667,79.8333 60.8333,79.1667 61.5,78.5 Z"/></g>
<g><path style="opacity:0.247" fill="#a6a6a6" d="M 66.5,81.5 C 66.0371,84.4824 65.7038,87.4824 65.5,90.5C 64.5151,94.6344 64.1818,98.9677 64.5,103.5C 63.3503,98.6842 63.1837,93.6842 64,88.5C 64.3903,85.8958 65.2237,83.5625 66.5,81.5 Z"/></g>
<g><path style="opacity:1" fill="#111111" d="M 153.5,97.5 C 153.456,114.352 154.122,131.019 155.5,147.5C 155.667,213.834 155.5,280.168 155,346.5C 153.74,349.428 151.573,351.261 148.5,352C 138.066,352.907 127.733,352.24 117.5,350C 110.786,347.777 105.786,343.61 102.5,337.5C 101.339,329.229 100.672,320.895 100.5,312.5C 100.19,309.287 100.523,306.287 101.5,303.5C 101.931,307.337 102.598,311.003 103.5,314.5C 104.094,320.817 104.594,327.151 105,333.5C 109.252,341.727 116.085,345.893 125.5,346C 133.345,346.822 141.011,346.656 148.5,345.5C 149.268,264.998 149.935,184.331 150.5,103.5C 151.319,100.695 151.819,97.6946 152,94.5C 152.232,95.7375 152.732,96.7375 153.5,97.5 Z"/></g>
<g><path style="opacity:0.999" fill="#191919" d="M 87.5,52.5 C 94.7186,52.1979 101.719,53.1979 108.5,55.5C 108.577,56.7498 109.244,57.5831 110.5,58C 108.866,58.4935 107.199,58.6602 105.5,58.5C 103.19,57.8362 100.69,57.5029 98,57.5C 94.1952,57.3037 90.6952,57.9704 87.5,59.5C 77.7713,64.3406 70.7713,71.6739 66.5,81.5C 65.2237,83.5625 64.3903,85.8958 64,88.5C 63.1837,93.6842 63.3503,98.6842 64.5,103.5C 68.4799,116.121 75.4799,126.787 85.5,135.5C 85.1667,135.833 84.8333,136.167 84.5,136.5C 79.4655,132.793 74.6322,128.793 70,124.5C 66.6065,118.97 63.1065,113.637 59.5,108.5C 59.4249,105.794 59.0916,103.127 58.5,100.5C 49.0231,102.828 41.1898,107.828 35,115.5C 33.4987,118.286 31.9987,120.953 30.5,123.5C 27.6272,129.98 26.9605,136.646 28.5,143.5C 29.4455,153.355 33.4455,161.688 40.5,168.5C 46.1544,173.586 52.821,176.252 60.5,176.5C 65.6509,177.327 70.9842,177.827 76.5,178C 75.944,178.383 75.6107,178.883 75.5,179.5C 67.1667,180.833 58.8333,180.833 50.5,179.5C 43.4264,176.539 37.2598,172.206 32,166.5C 19.3392,176.676 15.0059,189.676 19,205.5C 27.02,224.353 41.3533,233.687 62,233.5C 71.5588,233.556 80.8921,232.222 90,229.5C 90.8333,229.833 91.6667,230.167 92.5,230.5C 85.8009,232.835 79.1343,234.835 72.5,236.5C 63.7925,236.745 55.1258,236.411 46.5,235.5C 45.7777,234.449 44.7777,233.782 43.5,233.5C 37.9508,232.642 33.1175,230.309 29,226.5C 7.86673,204.974 8.36673,184.141 30.5,164C 27.9918,159.291 25.9918,154.458 24.5,149.5C 23.9258,143.516 23.5925,137.516 23.5,131.5C 25.6329,117.857 32.9662,108.024 45.5,102C 49.7595,100.692 53.9262,99.1918 58,97.5C 58.1753,92.9805 58.6753,88.6472 59.5,84.5C 61.0739,82.8984 61.7406,80.8984 61.5,78.5C 67.2986,66.7011 75.9653,58.0344 87.5,52.5 Z"/></g>
<g><path style="opacity:0.046" fill="#dedede" d="M 59.5,80.5 C 59.5,81.8333 59.5,83.1667 59.5,84.5C 58.6753,88.6472 58.1753,92.9805 58,97.5C 53.9262,99.1918 49.7595,100.692 45.5,102C 32.9662,108.024 25.6329,117.857 23.5,131.5C 23.1667,131.5 22.8333,131.5 22.5,131.5C 22.7353,123.958 25.2353,117.291 30,111.5C 37.1366,103.515 45.97,98.5147 56.5,96.5C 56.3347,92.8183 56.5014,89.1516 57,85.5C 57.0995,83.3474 57.9328,81.6808 59.5,80.5 Z"/></g>
<g><path style="opacity:0.082" fill="#e0e0e0" d="M 186.5,51.5 C 207.248,53.3734 225.581,61.0401 241.5,74.5C 248.572,80.7367 255.072,87.4034 261,94.5C 265.846,102.2 270.679,109.866 275.5,117.5C 277.095,120.68 278.095,124.013 278.5,127.5C 277.857,125.924 276.857,124.59 275.5,123.5C 258.805,87.1369 231.138,63.8035 192.5,53.5C 190.5,52.8333 188.5,52.1667 186.5,51.5 Z"/></g>
<g><path style="opacity:0.999" fill="#151515" d="M 242.5,137.5 C 243.821,143.605 244.821,149.772 245.5,156C 245.518,159.639 244.852,163.139 243.5,166.5C 242.833,163.358 242.166,160.358 241.5,157.5C 241.554,154.008 240.554,151.008 238.5,148.5C 231.545,131.363 220.878,116.863 206.5,105C 208.92,105.025 211.253,105.691 213.5,107C 225.733,114.733 235.399,124.899 242.5,137.5 Z"/></g>
<g><path style="opacity:0.016" fill="#dcdcdc" d="M 234.5,80.5 C 235.922,80.7086 237.255,81.2086 238.5,82C 271.866,112.927 286.866,151.094 283.5,196.5C 282.833,196.833 282.167,197.167 281.5,197.5C 284.439,177.187 282.272,157.52 275,138.5C 269.787,127.074 263.787,116.074 257,105.5C 249.944,96.6845 242.444,88.3511 234.5,80.5 Z"/></g>
<g><path style="opacity:0.195" fill="#bfbfbf" d="M 204.5,64.5 C 193.17,62.5388 181.836,60.8721 170.5,59.5C 169.651,98.5033 168.651,137.503 167.5,176.5C 167.365,137.161 167.698,97.8279 168.5,58.5C 180.157,58.4749 191.657,59.8082 203,62.5C 204.03,62.8361 204.53,63.5028 204.5,64.5 Z"/></g>
<g><path style="opacity:0.029" fill="#e1e1e1" d="M 59.5,108.5 C 58.0652,107.21 57.0652,105.544 56.5,103.5C 34.5184,112.796 26.3517,129.13 32,152.5C 35.6045,162.526 42.4378,169.359 52.5,173C 61.113,174.505 69.7797,174.839 78.5,174C 77.8841,172.6 77.5507,171.1 77.5,169.5C 77.5854,167.667 78.2521,166.334 79.5,165.5C 79.5,168.833 79.5,172.167 79.5,175.5C 73.2111,176.372 66.8778,176.705 60.5,176.5C 52.821,176.252 46.1544,173.586 40.5,168.5C 33.4455,161.688 29.4455,153.355 28.5,143.5C 28.3867,136.746 29.0533,130.079 30.5,123.5C 31.9987,120.953 33.4987,118.286 35,115.5C 41.1898,107.828 49.0231,102.828 58.5,100.5C 59.0916,103.127 59.4249,105.794 59.5,108.5 Z"/></g>
<g><path style="opacity:0.004" fill="#dfdfdf" d="M 65.5,90.5 C 65.1658,96.9936 65.9992,103.327 68,109.5C 72.7747,118.308 78.7747,125.974 86,132.5C 87.128,134.345 87.628,136.345 87.5,138.5C 85.8008,138.66 84.1341,138.494 82.5,138C 73.9716,132.438 67.1382,125.271 62,116.5C 60.6591,113.978 59.8257,111.311 59.5,108.5C 63.1065,113.637 66.6065,118.97 70,124.5C 74.6322,128.793 79.4655,132.793 84.5,136.5C 84.8333,136.167 85.1667,135.833 85.5,135.5C 75.4799,126.787 68.4799,116.121 64.5,103.5C 64.1818,98.9677 64.5151,94.6344 65.5,90.5 Z"/></g>
<g><path style="opacity:0.757" fill="#656565" d="M 275.5,123.5 C 276.857,124.59 277.857,125.924 278.5,127.5C 278.5,128.167 278.5,128.833 278.5,129.5C 276.755,127.967 275.755,125.967 275.5,123.5 Z"/></g>
<g><path style="opacity:0.031" fill="#e1e1e1" d="M 242.5,137.5 C 235.399,124.899 225.733,114.733 213.5,107C 211.253,105.691 208.92,105.025 206.5,105C 220.878,116.863 231.545,131.363 238.5,148.5C 239.15,150.435 239.483,152.435 239.5,154.5C 232.011,136.183 220.845,120.517 206,107.5C 204.991,105.975 204.491,104.308 204.5,102.5C 208.436,102.478 212.103,103.478 215.5,105.5C 225.477,111.644 233.644,119.644 240,129.5C 241.707,131.909 242.54,134.575 242.5,137.5 Z"/></g>
<g><path style="opacity:0.649" fill="#989898" d="M 22.5,131.5 C 22.8333,131.5 23.1667,131.5 23.5,131.5C 23.5925,137.516 23.9258,143.516 24.5,149.5C 24.1667,149.5 23.8333,149.5 23.5,149.5C 22.5104,143.69 22.1771,137.69 22.5,131.5 Z"/></g>
<g><path style="opacity:0.711" fill="#777777" d="M 30.5,123.5 C 29.0533,130.079 28.3867,136.746 28.5,143.5C 26.9605,136.646 27.6272,129.98 30.5,123.5 Z"/></g>
<g><path style="opacity:0.554" fill="#888888" d="M 153.5,83.5 C 154.167,95.8333 154.833,108.167 155.5,120.5C 155.5,123.5 155.5,126.5 155.5,129.5C 155.5,135.5 155.5,141.5 155.5,147.5C 154.122,131.019 153.456,114.352 153.5,97.5C 153.5,92.8333 153.5,88.1667 153.5,83.5 Z"/></g>
<g><path style="opacity:1" fill="#161616" d="M 344.5,137.5 C 344.738,139.404 345.738,140.738 347.5,141.5C 348.5,141.833 349.167,142.5 349.5,143.5C 349.427,145.027 350.094,146.027 351.5,146.5C 352.833,147.167 353.833,148.167 354.5,149.5C 354.427,151.027 355.094,152.027 356.5,152.5C 357.5,152.833 358.167,153.5 358.5,154.5C 358.427,156.027 359.094,157.027 360.5,157.5C 361.833,158.167 362.833,159.167 363.5,160.5C 363.427,162.027 364.094,163.027 365.5,163.5C 366.5,163.833 367.167,164.5 367.5,165.5C 367.511,167.017 368.177,168.184 369.5,169C 370.816,169.528 371.483,169.028 371.5,167.5C 372.167,166.167 373.167,165.167 374.5,164.5C 375.906,164.027 376.573,163.027 376.5,161.5C 376.833,160.5 377.5,159.833 378.5,159.5C 379.906,159.027 380.573,158.027 380.5,156.5C 380.833,155.5 381.5,154.833 382.5,154.5C 383.906,154.027 384.573,153.027 384.5,151.5C 385.167,150.167 386.167,149.167 387.5,148.5C 388.906,148.027 389.573,147.027 389.5,145.5C 389.833,144.5 390.5,143.833 391.5,143.5C 392.906,143.027 393.573,142.027 393.5,140.5C 396.532,134.063 400.699,133.063 406,137.5C 406.667,161.167 406.667,184.833 406,208.5C 405.617,209.056 405.117,209.389 404.5,209.5C 401.763,209.599 399.096,209.265 396.5,208.5C 396.833,190.155 396.5,171.821 395.5,153.5C 394.702,153.957 394.369,154.624 394.5,155.5C 387.613,164.649 380.28,173.316 372.5,181.5C 370.435,181.483 368.435,181.15 366.5,180.5C 359.123,172.753 352.457,164.42 346.5,155.5C 346.217,154.711 345.717,154.044 345,153.5C 344.5,171.164 344.333,188.83 344.5,206.5C 344.27,209.465 342.603,210.798 339.5,210.5C 336.699,210.536 334.865,209.203 334,206.5C 333.333,184.167 333.333,161.833 334,139.5C 334.575,136.203 336.575,134.536 340,134.5C 342.183,134.522 343.683,135.522 344.5,137.5 Z"/></g>
<g><path style="opacity:0.999" fill="#121212" d="M 475.5,135.5 C 475.427,137.027 476.094,138.027 477.5,138.5C 478.385,140.673 477.718,142.506 475.5,144C 462.171,144.5 448.837,144.667 435.5,144.5C 434.508,152.316 434.174,160.316 434.5,168.5C 445.167,168.5 455.833,168.5 466.5,168.5C 470.371,170.981 470.371,173.648 466.5,176.5C 455.833,176.5 445.167,176.5 434.5,176.5C 434.5,184.833 434.5,193.167 434.5,201.5C 447.833,201.5 461.167,201.5 474.5,201.5C 474.833,201.5 475.167,201.5 475.5,201.5C 475.427,203.027 476.094,204.027 477.5,204.5C 478.272,206.53 477.606,208.363 475.5,210C 459.167,210.667 442.833,210.667 426.5,210C 425.107,208.829 424.273,207.329 424,205.5C 423.031,182.437 423.365,159.437 425,136.5C 425.75,135.874 426.584,135.374 427.5,135C 443.574,134.183 459.574,134.35 475.5,135.5 Z"/></g>
<g><path style="opacity:1" fill="#181818" d="M 500.5,137.5 C 500.427,139.027 501.094,140.027 502.5,140.5C 503.5,140.833 504.167,141.5 504.5,142.5C 504.427,144.027 505.094,145.027 506.5,145.5C 507.5,145.833 508.167,146.5 508.5,147.5C 508.427,149.027 509.094,150.027 510.5,150.5C 511.5,150.833 512.167,151.5 512.5,152.5C 512.427,154.027 513.094,155.027 514.5,155.5C 515.5,155.833 516.167,156.5 516.5,157.5C 516.427,159.027 517.094,160.027 518.5,160.5C 519.5,160.833 520.167,161.5 520.5,162.5C 520.427,164.027 521.094,165.027 522.5,165.5C 523.5,165.833 524.167,166.5 524.5,167.5C 524.427,169.027 525.094,170.027 526.5,170.5C 527.5,170.833 528.167,171.5 528.5,172.5C 528.427,174.027 529.094,175.027 530.5,175.5C 531.5,175.833 532.167,176.5 532.5,177.5C 532.427,179.027 533.094,180.027 534.5,180.5C 535.5,180.833 536.167,181.5 536.5,182.5C 536.427,184.027 537.094,185.027 538.5,185.5C 539.5,185.833 540.167,186.5 540.5,187.5C 540.427,189.027 541.094,190.027 542.5,190.5C 542.56,191.043 542.893,191.376 543.5,191.5C 544.5,173.179 544.833,154.845 544.5,136.5C 548.418,133.384 551.585,134.051 554,138.5C 554.667,161.5 554.667,184.5 554,207.5C 550.59,212.556 546.923,212.556 543,207.5C 529.667,190.005 516.167,172.671 502.5,155.5C 502.217,154.711 501.717,154.044 501,153.5C 500.5,171.164 500.333,188.83 500.5,206.5C 500.27,209.465 498.603,210.798 495.5,210.5C 492.699,210.536 490.865,209.203 490,206.5C 489.333,184.167 489.333,161.833 490,139.5C 490.441,136.355 492.275,134.688 495.5,134.5C 497.692,134.757 499.359,135.757 500.5,137.5 Z"/></g>
<g><path style="opacity:1" fill="#0e0e0e" d="M 619.5,144.5 C 612.5,144.5 605.5,144.5 598.5,144.5C 598.5,165.167 598.5,185.833 598.5,206.5C 598.27,209.465 596.603,210.798 593.5,210.5C 590.155,210.489 588.489,208.822 588.5,205.5C 588.5,185.167 588.5,164.833 588.5,144.5C 581.5,144.5 574.5,144.5 567.5,144.5C 564.95,144.116 563.617,142.616 563.5,140C 563.484,137.695 564.484,136.028 566.5,135C 584.5,134.333 602.5,134.333 620.5,135C 624.692,137.239 625.359,140.239 622.5,144C 621.552,144.483 620.552,144.649 619.5,144.5 Z"/></g>
<g><path style="opacity:0.999" fill="#121212" d="M 684.5,135.5 C 684.427,137.027 685.094,138.027 686.5,138.5C 687.385,140.673 686.718,142.506 684.5,144C 671.171,144.5 657.837,144.667 644.5,144.5C 643.508,152.316 643.174,160.316 643.5,168.5C 654.167,168.5 664.833,168.5 675.5,168.5C 679.371,170.981 679.371,173.648 675.5,176.5C 664.833,176.5 654.167,176.5 643.5,176.5C 643.5,184.833 643.5,193.167 643.5,201.5C 656.833,201.5 670.167,201.5 683.5,201.5C 683.833,201.5 684.167,201.5 684.5,201.5C 684.427,203.027 685.094,204.027 686.5,204.5C 687.272,206.53 686.606,208.363 684.5,210C 668.167,210.667 651.833,210.667 635.5,210C 634.107,208.829 633.273,207.329 633,205.5C 632.031,182.437 632.365,159.437 634,136.5C 634.75,135.874 635.584,135.374 636.5,135C 652.574,134.183 668.574,134.35 684.5,135.5 Z"/></g>
<g><path style="opacity:0.569" fill="#838383" d="M 475.5,135.5 C 476.906,135.973 477.573,136.973 477.5,138.5C 476.094,138.027 475.427,137.027 475.5,135.5 Z"/></g>
<g><path style="opacity:0.569" fill="#838383" d="M 684.5,135.5 C 685.906,135.973 686.573,136.973 686.5,138.5C 685.094,138.027 684.427,137.027 684.5,135.5 Z"/></g>
<g><path style="opacity:0.792" fill="#8a8a8a" d="M 344.5,137.5 C 346.262,138.262 347.262,139.596 347.5,141.5C 345.738,140.738 344.738,139.404 344.5,137.5 Z"/></g>
<g><path style="opacity:0.733" fill="#8e8e8e" d="M 500.5,137.5 C 501.906,137.973 502.573,138.973 502.5,140.5C 501.094,140.027 500.427,139.027 500.5,137.5 Z"/></g>
<g><path style="opacity:0.867" fill="#272727" d="M 544.5,136.5 C 544.833,154.845 544.5,173.179 543.5,191.5C 542.893,191.376 542.56,191.043 542.5,190.5C 543.167,172.5 543.833,154.5 544.5,136.5 Z"/></g>
<g><path style="opacity:0.706" fill="#939393" d="M 393.5,140.5 C 393.573,142.027 392.906,143.027 391.5,143.5C 391.427,141.973 392.094,140.973 393.5,140.5 Z"/></g>
<g><path style="opacity:0.733" fill="#8f8f8f" d="M 504.5,142.5 C 505.906,142.973 506.573,143.973 506.5,145.5C 505.094,145.027 504.427,144.027 504.5,142.5 Z"/></g>
<g><path style="opacity:0.741" fill="#8b8b8b" d="M 349.5,143.5 C 350.906,143.973 351.573,144.973 351.5,146.5C 350.094,146.027 349.427,145.027 349.5,143.5 Z"/></g>
<g><path style="opacity:0.355" fill="#9d9d9d" d="M 150.5,103.5 C 149.935,184.331 149.268,264.998 148.5,345.5C 148.5,280.833 148.5,216.167 148.5,151.5C 148.5,141.167 148.5,130.833 148.5,120.5C 149.167,114.833 149.833,109.167 150.5,103.5 Z"/></g>
<g><path style="opacity:0.027" fill="#f4f4f4" d="M 567.5,144.5 C 574.5,144.5 581.5,144.5 588.5,144.5C 588.5,164.833 588.5,185.167 588.5,205.5C 587.503,185.674 587.17,165.674 587.5,145.5C 580.646,145.824 573.979,145.491 567.5,144.5 Z"/></g>
<g><path style="opacity:0.216" fill="#cdcdcd" d="M 619.5,144.5 C 613.021,145.491 606.354,145.824 599.5,145.5C 599.83,166.007 599.497,186.34 598.5,206.5C 598.5,185.833 598.5,165.167 598.5,144.5C 605.5,144.5 612.5,144.5 619.5,144.5 Z"/></g>
<g><path style="opacity:0.757" fill="#888888" d="M 389.5,145.5 C 389.573,147.027 388.906,148.027 387.5,148.5C 387.427,146.973 388.094,145.973 389.5,145.5 Z"/></g>
<g><path style="opacity:0.999" fill="#141414" d="M 81.5,178.5 C 80.3915,177.71 79.0581,177.21 77.5,177C 78.4158,176.722 79.0825,176.222 79.5,175.5C 80.3809,170.331 81.0475,164.998 81.5,159.5C 82.4961,153.174 85.3295,147.84 90,143.5C 89.9453,147.719 88.9453,151.719 87,155.5C 85.6454,165.459 86.6454,175.126 90,184.5C 93.5838,189.311 97.4171,193.978 101.5,198.5C 100.277,199.614 98.9437,199.781 97.5,199C 89.6965,194.037 84.3631,187.204 81.5,178.5 Z"/></g>
<g><path style="opacity:0.729" fill="#8f8f8f" d="M 508.5,147.5 C 509.906,147.973 510.573,148.973 510.5,150.5C 509.094,150.027 508.427,149.027 508.5,147.5 Z"/></g>
<g><path style="opacity:0.682" fill="#989898" d="M 354.5,149.5 C 355.906,149.973 356.573,150.973 356.5,152.5C 355.094,152.027 354.427,151.027 354.5,149.5 Z"/></g>
<g><path style="opacity:0.667" fill="#9b9b9b" d="M 384.5,151.5 C 384.573,153.027 383.906,154.027 382.5,154.5C 382.427,152.973 383.094,151.973 384.5,151.5 Z"/></g>
<g><path style="opacity:0.361" fill="#d5d5d5" d="M 242.5,137.5 C 243.75,137.577 244.583,138.244 245,139.5C 248.018,149.809 248.184,160.142 245.5,170.5C 244.167,170.5 242.833,170.5 241.5,170.5C 241.5,169.167 241.5,167.833 241.5,166.5C 241.5,163.5 241.5,160.5 241.5,157.5C 242.166,160.358 242.833,163.358 243.5,166.5C 244.852,163.139 245.518,159.639 245.5,156C 244.821,149.772 243.821,143.605 242.5,137.5 Z"/></g>
<g><path style="opacity:0.623" fill="#666666" d="M 396.5,208.5 C 395.833,190.833 395.167,173.167 394.5,155.5C 394.369,154.624 394.702,153.957 395.5,153.5C 396.5,171.821 396.833,190.155 396.5,208.5 Z"/></g>
<g><path style="opacity:0.722" fill="#919191" d="M 512.5,152.5 C 513.906,152.973 514.573,153.973 514.5,155.5C 513.094,155.027 512.427,154.027 512.5,152.5 Z"/></g>
<g><path style="opacity:0.769" fill="#606060" d="M 238.5,148.5 C 240.554,151.008 241.554,154.008 241.5,157.5C 240.833,156.5 240.167,155.5 239.5,154.5C 239.483,152.435 239.15,150.435 238.5,148.5 Z"/></g>
<g><path style="opacity:0.2" fill="#cbcbcb" d="M 346.5,155.5 C 345.833,172.5 345.167,189.5 344.5,206.5C 344.333,188.83 344.5,171.164 345,153.5C 345.717,154.044 346.217,154.711 346.5,155.5 Z"/></g>
<g><path style="opacity:0.2" fill="#cccccc" d="M 502.5,155.5 C 501.833,172.5 501.167,189.5 500.5,206.5C 500.333,188.83 500.5,171.164 501,153.5C 501.717,154.044 502.217,154.711 502.5,155.5 Z"/></g>
<g><path style="opacity:0.765" fill="#868686" d="M 358.5,154.5 C 359.906,154.973 360.573,155.973 360.5,157.5C 359.094,157.027 358.427,156.027 358.5,154.5 Z"/></g>
<g><path style="opacity:0.034" fill="#ededed" d="M 278.5,127.5 C 279.376,127.369 280.043,127.702 280.5,128.5C 290.616,150.414 293.783,173.414 290,197.5C 289.617,198.056 289.117,198.389 288.5,198.5C 288.437,193.797 288.771,189.13 289.5,184.5C 289.5,180.5 289.5,176.5 289.5,172.5C 289.638,167.586 288.972,162.919 287.5,158.5C 285.623,148.409 282.623,138.742 278.5,129.5C 278.5,128.833 278.5,128.167 278.5,127.5 Z"/></g>
<g><path style="opacity:0.725" fill="#8f8f8f" d="M 380.5,156.5 C 380.573,158.027 379.906,159.027 378.5,159.5C 378.427,157.973 379.094,156.973 380.5,156.5 Z"/></g>
<g><path style="opacity:0.718" fill="#929292" d="M 516.5,157.5 C 517.906,157.973 518.573,158.973 518.5,160.5C 517.094,160.027 516.427,159.027 516.5,157.5 Z"/></g>
<g><path style="opacity:0.243" fill="#e3e3e3" d="M 239.5,154.5 C 240.167,155.5 240.833,156.5 241.5,157.5C 241.5,160.5 241.5,163.5 241.5,166.5C 240.383,162.705 239.717,158.705 239.5,154.5 Z"/></g>
<g><path style="opacity:0.71" fill="#929292" d="M 363.5,160.5 C 364.906,160.973 365.573,161.973 365.5,163.5C 364.094,163.027 363.427,162.027 363.5,160.5 Z"/></g>
<g><path style="opacity:0.773" fill="#848484" d="M 376.5,161.5 C 376.573,163.027 375.906,164.027 374.5,164.5C 374.427,162.973 375.094,161.973 376.5,161.5 Z"/></g>
<g><path style="opacity:0.714" fill="#939393" d="M 520.5,162.5 C 521.906,162.973 522.573,163.973 522.5,165.5C 521.094,165.027 520.427,164.027 520.5,162.5 Z"/></g>
<g><path style="opacity:0.696" fill="#737373" d="M 81.5,159.5 C 81.0475,164.998 80.3809,170.331 79.5,175.5C 79.5,172.167 79.5,168.833 79.5,165.5C 79.5,164.5 79.5,163.5 79.5,162.5C 80.1667,161.5 80.8333,160.5 81.5,159.5 Z"/></g>
<g><path style="opacity:0.784" fill="#909090" d="M 367.5,165.5 C 368.605,166.6 369.938,167.267 371.5,167.5C 371.483,169.028 370.816,169.528 369.5,169C 368.177,168.184 367.511,167.017 367.5,165.5 Z"/></g>
<g><path style="opacity:0.757" fill="#676767" d="M 435.5,144.5 C 435.5,152.167 435.5,159.833 435.5,167.5C 446.014,167.172 456.347,167.506 466.5,168.5C 455.833,168.5 445.167,168.5 434.5,168.5C 434.174,160.316 434.508,152.316 435.5,144.5 Z"/></g>
<g><path style="opacity:0.757" fill="#676767" d="M 644.5,144.5 C 644.5,152.167 644.5,159.833 644.5,167.5C 655.014,167.172 665.347,167.506 675.5,168.5C 664.833,168.5 654.167,168.5 643.5,168.5C 643.174,160.316 643.508,152.316 644.5,144.5 Z"/></g>
<g><path style="opacity:0.706" fill="#949494" d="M 524.5,167.5 C 525.906,167.973 526.573,168.973 526.5,170.5C 525.094,170.027 524.427,169.027 524.5,167.5 Z"/></g>
<g><path style="opacity:0.875" fill="#4c4c4c" d="M 287.5,158.5 C 288.972,162.919 289.638,167.586 289.5,172.5C 287.896,168.1 287.229,163.434 287.5,158.5 Z"/></g>
<g><path style="opacity:0.702" fill="#959595" d="M 528.5,172.5 C 529.906,172.973 530.573,173.973 530.5,175.5C 529.094,175.027 528.427,174.027 528.5,172.5 Z"/></g>
<g><path style="opacity:0.859" fill="#5e5e5e" d="M 79.5,175.5 C 79.0825,176.222 78.4158,176.722 77.5,177C 79.0581,177.21 80.3915,177.71 81.5,178.5C 79.4352,178.517 77.4352,178.85 75.5,179.5C 75.6107,178.883 75.944,178.383 76.5,178C 70.9842,177.827 65.6509,177.327 60.5,176.5C 66.8778,176.705 73.2111,176.372 79.5,175.5 Z"/></g>
<g><path style="opacity:0.698" fill="#969696" d="M 532.5,177.5 C 533.906,177.973 534.573,178.973 534.5,180.5C 533.094,180.027 532.427,179.027 532.5,177.5 Z"/></g>
<g><path style="opacity:0.337" fill="#9e9e9e" d="M 366.5,180.5 C 368.435,181.15 370.435,181.483 372.5,181.5C 371.903,182.139 371.07,182.472 370,182.5C 368.301,182.613 367.134,181.947 366.5,180.5 Z"/></g>
<g><path style="opacity:0.087" fill="#f3f3f3" d="M 170.5,59.5 C 169.549,154.832 169.383,250.165 170,345.5C 181.448,348.065 192.948,348.065 204.5,345.5C 203.9,346.9 202.9,347.9 201.5,348.5C 192.852,349.466 184.186,349.632 175.5,349C 171.798,349.29 169.298,347.79 168,344.5C 167.5,288.501 167.333,232.501 167.5,176.5C 168.651,137.503 169.651,98.5033 170.5,59.5 Z"/></g>
<g><path style="opacity:0.69" fill="#979797" d="M 536.5,182.5 C 537.906,182.973 538.573,183.973 538.5,185.5C 537.094,185.027 536.427,184.027 536.5,182.5 Z"/></g>
<g><path style="opacity:0.686" fill="#989898" d="M 540.5,187.5 C 541.906,187.973 542.573,188.973 542.5,190.5C 541.094,190.027 540.427,189.027 540.5,187.5 Z"/></g>
<g><path style="opacity:0.22" fill="#dcdcdc" d="M 50.5,179.5 C 58.8333,180.833 67.1667,180.833 75.5,179.5C 77.4352,178.85 79.4352,178.517 81.5,178.5C 84.3631,187.204 89.6965,194.037 97.5,199C 98.9437,199.781 100.277,199.614 101.5,198.5C 97.4171,193.978 93.5838,189.311 90,184.5C 86.6454,175.126 85.6454,165.459 87,155.5C 88.9453,151.719 89.9453,147.719 90,143.5C 85.3295,147.84 82.4961,153.174 81.5,159.5C 80.8333,160.5 80.1667,161.5 79.5,162.5C 79.605,158.681 80.4383,155.014 82,151.5C 83.9345,148.629 85.6012,145.629 87,142.5C 88.6995,141.594 90.5328,141.261 92.5,141.5C 91.3575,150.043 90.0242,158.543 88.5,167C 88.9303,179.027 93.7637,188.86 103,196.5C 103.743,198.441 103.576,200.274 102.5,202C 90.5314,198.914 82.6981,191.414 79,179.5C 78.5,180 78,180.5 77.5,181C 68.829,182.94 60.1623,182.94 51.5,181C 50.944,180.617 50.6107,180.117 50.5,179.5 Z"/></g>
<g><path style="opacity:0.337" fill="#a5a5a5" d="M 283.5,196.5 C 282.866,200.373 281.866,204.039 280.5,207.5C 280.5,206.167 280.5,204.833 280.5,203.5C 280.325,201.379 280.659,199.379 281.5,197.5C 282.167,197.167 282.833,196.833 283.5,196.5 Z"/></g>
<g><path style="opacity:0.741" fill="#626262" d="M 289.5,184.5 C 288.771,189.13 288.437,193.797 288.5,198.5C 287.869,200.975 286.869,203.309 285.5,205.5C 286.272,198.255 287.605,191.255 289.5,184.5 Z"/></g>
<g><path style="opacity:0.427" fill="#929292" d="M 466.5,176.5 C 456.347,177.494 446.014,177.828 435.5,177.5C 435.5,185.167 435.5,192.833 435.5,200.5C 448.677,200.171 461.677,200.505 474.5,201.5C 461.167,201.5 447.833,201.5 434.5,201.5C 434.5,193.167 434.5,184.833 434.5,176.5C 445.167,176.5 455.833,176.5 466.5,176.5 Z"/></g>
<g><path style="opacity:0.427" fill="#929292" d="M 675.5,176.5 C 665.347,177.494 655.014,177.828 644.5,177.5C 644.5,185.167 644.5,192.833 644.5,200.5C 657.677,200.171 670.677,200.505 683.5,201.5C 670.167,201.5 656.833,201.5 643.5,201.5C 643.5,193.167 643.5,184.833 643.5,176.5C 654.167,176.5 664.833,176.5 675.5,176.5 Z"/></g>
<g><path style="opacity:0.026" fill="#e9e9e9" d="M 280.5,203.5 C 280.5,204.833 280.5,206.167 280.5,207.5C 279.417,211.408 277.751,215.074 275.5,218.5C 276.209,213.041 277.875,208.041 280.5,203.5 Z"/></g>
<g><path style="opacity:0.651" fill="#757575" d="M 475.5,201.5 C 476.906,201.973 477.573,202.973 477.5,204.5C 476.094,204.027 475.427,203.027 475.5,201.5 Z"/></g>
<g><path style="opacity:0.651" fill="#757575" d="M 684.5,201.5 C 685.906,201.973 686.573,202.973 686.5,204.5C 685.094,204.027 684.427,203.027 684.5,201.5 Z"/></g>
<g><path style="opacity:0.063" fill="#ececec" d="M 155.5,129.5 C 156.29,130.609 156.79,131.942 157,133.5C 157.833,204.836 157.667,276.169 156.5,347.5C 155.158,351.346 152.491,353.513 148.5,354C 134.586,355.493 121.252,353.493 108.5,348C 106.957,346.122 105.124,344.622 103,343.5C 101.589,341.35 100.755,339.016 100.5,336.5C 101.167,336.833 101.833,337.167 102.5,337.5C 105.786,343.61 110.786,347.777 117.5,350C 127.733,352.24 138.066,352.907 148.5,352C 151.573,351.261 153.74,349.428 155,346.5C 155.5,280.168 155.667,213.834 155.5,147.5C 155.5,141.5 155.5,135.5 155.5,129.5 Z"/></g>
<g><path style="opacity:0.024" fill="#dadada" d="M 241.5,198.5 C 242.833,198.5 244.167,198.5 245.5,198.5C 245.666,202.514 245.499,206.514 245,210.5C 242.333,220.827 236.333,228.494 227,233.5C 225.978,232.646 225.145,231.646 224.5,230.5C 228.558,226.01 231.892,221.01 234.5,215.5C 236.36,209.566 238.694,203.9 241.5,198.5 Z"/></g>
<g><path style="opacity:0.937" fill="#5f5f5f" d="M 396.5,208.5 C 399.096,209.265 401.763,209.599 404.5,209.5C 403.551,210.152 402.385,210.486 401,210.5C 398.992,210.693 397.492,210.026 396.5,208.5 Z"/></g>
<g><path style="opacity:0.999" fill="#1a1a1a" d="M 242.5,201.5 C 243.037,213.434 238.37,223.1 228.5,230.5C 228.167,230.167 227.833,229.833 227.5,229.5C 234.081,221.004 239.081,211.67 242.5,201.5 Z"/></g>
<g><path style="opacity:0.137" fill="#dadada" d="M 50.5,179.5 C 43.039,178.534 36.8723,175.201 32,169.5C 17.7689,182.798 15.7689,197.798 26,214.5C 35.7019,227.02 48.5353,232.687 64.5,231.5C 73.8526,231.426 83.0192,230.092 92,227.5C 96.4772,229.205 96.4772,231.205 92,233.5C 86.6493,235.38 81.1493,236.38 75.5,236.5C 74.5,236.5 73.5,236.5 72.5,236.5C 79.1343,234.835 85.8009,232.835 92.5,230.5C 91.6667,230.167 90.8333,229.833 90,229.5C 80.8921,232.222 71.5588,233.556 62,233.5C 41.3533,233.687 27.02,224.353 19,205.5C 15.0059,189.676 19.3392,176.676 32,166.5C 37.2598,172.206 43.4264,176.539 50.5,179.5 Z"/></g>
<g><path style="opacity:0.034" fill="#eeeeee" d="M 275.5,218.5 C 274.868,222.431 273.201,225.765 270.5,228.5C 271.031,225.763 271.864,223.096 273,220.5C 273.417,219.244 274.25,218.577 275.5,218.5 Z"/></g>
<g><path style="opacity:0.037" fill="#e9e9e9" d="M 46.5,235.5 C 55.1258,236.411 63.7925,236.745 72.5,236.5C 73.5,236.5 74.5,236.5 75.5,236.5C 71.6023,238.282 67.269,239.282 62.5,239.5C 57.8781,238.615 53.2115,238.282 48.5,238.5C 47.6017,249.178 48.935,259.511 52.5,269.5C 49.5448,265.961 47.5448,261.961 46.5,257.5C 46.5,250.167 46.5,242.833 46.5,235.5 Z"/></g>
<g><path style="opacity:1" fill="#1a1a1a" d="M 380.5,247.5 C 380.427,249.027 381.094,250.027 382.5,250.5C 384.469,254.887 382.969,257.553 378,258.5C 376.358,258.022 375.191,257.022 374.5,255.5C 373.738,253.738 372.404,252.738 370.5,252.5C 364.061,249.72 357.728,249.886 351.5,253C 349.015,256.251 348.348,259.751 349.5,263.5C 349.833,265.833 351.167,267.167 353.5,267.5C 361.353,270.928 369.02,274.594 376.5,278.5C 377.539,280.531 379.205,281.864 381.5,282.5C 381.427,284.027 382.094,285.027 383.5,285.5C 384.167,285.5 384.5,285.833 384.5,286.5C 385.254,291.463 385.587,296.463 385.5,301.5C 382.903,309.834 377.236,315.001 368.5,317C 358.776,318.838 349.776,317.171 341.5,312C 336.744,308.611 334.91,304.111 336,298.5C 338.109,296.582 340.275,296.249 342.5,297.5C 342.833,298.5 343.5,299.167 344.5,299.5C 345.167,299.5 345.5,299.833 345.5,300.5C 345.5,302.5 346.5,303.5 348.5,303.5C 355.491,307.832 362.824,308.498 370.5,305.5C 372.833,305.167 374.167,303.833 374.5,301.5C 376.547,296.271 375.547,291.771 371.5,288C 365.07,284.451 358.404,281.451 351.5,279C 338.065,271.896 334.731,261.729 341.5,248.5C 343.167,247.5 344.5,246.167 345.5,244.5C 346.058,243.21 347.058,242.377 348.5,242C 360.404,237.484 371.07,239.317 380.5,247.5 Z"/></g>
<g><path style="opacity:0.427" fill="#9a9a9a" d="M 594.5,241.5 C 584.448,241.216 574.448,241.55 564.5,242.5C 564.611,241.883 564.944,241.383 565.5,241C 575.342,240.175 585.009,240.342 594.5,241.5 Z"/></g>
<g><path style="opacity:1" fill="#111111" d="M 413.5,245.5 C 413.427,247.027 414.094,248.027 415.5,248.5C 416.5,248.833 417.167,249.5 417.5,250.5C 417.738,252.404 418.738,253.738 420.5,254.5C 421.5,254.833 422.167,255.5 422.5,256.5C 422.427,258.027 423.094,259.027 424.5,259.5C 425.833,260.167 426.833,261.167 427.5,262.5C 427.427,264.027 428.094,265.027 429.5,265.5C 430.5,265.833 431.167,266.5 431.5,267.5C 431.427,269.027 432.094,270.027 433.5,270.5C 435.167,271.833 436.833,273.167 438.5,274.5C 439.906,274.027 440.573,273.027 440.5,271.5C 440.833,270.5 441.5,269.833 442.5,269.5C 443.906,269.027 444.573,268.027 444.5,266.5C 444.833,265.5 445.5,264.833 446.5,264.5C 447.906,264.027 448.573,263.027 448.5,261.5C 449.167,260.167 450.167,259.167 451.5,258.5C 452.906,258.027 453.573,257.027 453.5,255.5C 453.833,254.5 454.5,253.833 455.5,253.5C 456.906,253.027 457.573,252.027 457.5,250.5C 457.833,249.5 458.5,248.833 459.5,248.5C 460.906,248.027 461.573,247.027 461.5,245.5C 464.615,239.841 468.449,239.174 473,243.5C 473.667,267.167 473.667,290.833 473,314.5C 472.617,315.056 472.117,315.389 471.5,315.5C 468.763,315.599 466.096,315.265 463.5,314.5C 463.5,314.167 463.5,313.833 463.5,313.5C 463.667,295.497 463.5,277.497 463,259.5C 462.283,260.044 461.783,260.711 461.5,261.5C 455.166,269.339 448.999,277.339 443,285.5C 440.029,289.092 436.696,289.425 433,286.5C 426.667,278.005 420.167,269.671 413.5,261.5C 413.217,260.711 412.717,260.044 412,259.5C 411.5,277.497 411.333,295.497 411.5,313.5C 411.126,315.95 409.626,316.95 407,316.5C 404.966,316.646 403.299,315.98 402,314.5C 401.333,290.833 401.333,267.167 402,243.5C 406.551,239.174 410.385,239.841 413.5,245.5 Z"/></g>
<g><path style="opacity:1" fill="#1a1a1a" d="M 515.5,240.5 C 518.272,240.22 520.772,240.887 523,242.5C 532.528,264.084 541.861,285.751 551,307.5C 552.648,315.187 549.814,318.021 542.5,316C 539.808,311.089 537.808,305.923 536.5,300.5C 524.495,300.333 512.495,300.5 500.5,301C 498.546,306.205 496.213,311.205 493.5,316C 486.51,318.005 483.676,315.505 485,308.5C 494,287.167 503,265.833 512,244.5C 513.376,243.295 514.542,241.962 515.5,240.5 Z M 517.5,257.5 C 518.167,257.833 518.833,258.167 519.5,258.5C 522.981,268.782 526.981,278.782 531.5,288.5C 527.386,289.826 522.886,290.493 518,290.5C 513.32,290.499 508.82,290.166 504.5,289.5C 509.346,279.128 513.679,268.461 517.5,257.5 Z"/></g>
<g><path style="opacity:1" fill="#161616" d="M 594.5,241.5 C 599.903,241.87 604.569,243.87 608.5,247.5C 608.738,249.404 609.738,250.738 611.5,251.5C 615.92,255.79 617.92,261.123 617.5,267.5C 617.586,272.49 616.419,277.156 614,281.5C 610.958,284.711 607.791,287.711 604.5,290.5C 606.22,293.202 607.887,295.868 609.5,298.5C 609.738,300.404 610.738,301.738 612.5,302.5C 612.427,304.027 613.094,305.027 614.5,305.5C 614.738,307.404 615.738,308.738 617.5,309.5C 618.917,315.579 616.417,317.912 610,316.5C 603.924,309.592 598.424,302.258 593.5,294.5C 590.572,293.18 587.239,292.514 583.5,292.5C 579.982,292.502 576.649,292.835 573.5,293.5C 573.666,300.508 573.5,307.508 573,314.5C 569.337,317.333 566.004,317 563,313.5C 562.333,290.5 562.333,267.5 563,244.5C 563.278,243.584 563.778,242.918 564.5,242.5C 574.448,241.55 584.448,241.216 594.5,241.5 Z M 599.5,253.5 C 600.167,254.833 601.167,255.833 602.5,256.5C 606.865,262.425 607.532,268.758 604.5,275.5C 602.5,276.833 600.833,278.5 599.5,280.5C 590.974,282.336 582.307,283.003 573.5,282.5C 573.5,271.833 573.5,261.167 573.5,250.5C 582.402,249.929 591.069,250.929 599.5,253.5 Z"/></g>
<g><path style="opacity:1" fill="#111111" d="M 681.5,241.5 C 682.219,243.764 682.552,246.097 682.5,248.5C 681.942,249.79 680.942,250.623 679.5,251C 672.508,251.5 665.508,251.666 658.5,251.5C 658.667,272.503 658.5,293.503 658,314.5C 655.447,316.729 652.614,317.062 649.5,315.5C 648.702,315.043 648.369,314.376 648.5,313.5C 648.5,292.5 648.5,271.5 648.5,250.5C 641.5,250.5 634.5,250.5 627.5,250.5C 623.114,249.164 621.947,246.497 624,242.5C 624.75,241.874 625.584,241.374 626.5,241C 644.907,240.181 663.24,240.348 681.5,241.5 Z"/></g>
<g><path style="opacity:0.999" fill="#121212" d="M 46.5,257.5 C 47.5448,261.961 49.5448,265.961 52.5,269.5C 52.7086,270.922 53.2086,272.255 54,273.5C 58.9107,278.566 64.7441,282.233 71.5,284.5C 71.9175,285.222 72.5842,285.722 73.5,286C 76.3333,286.167 79.1667,286.333 82,286.5C 86.1327,286.714 89.966,286.048 93.5,284.5C 106.249,279.258 116.082,270.591 123,258.5C 123.995,255.23 124.828,251.897 125.5,248.5C 127.012,254.031 126.512,259.364 124,264.5C 118.667,275.167 110.667,283.167 100,288.5C 99.5099,290.545 99.6765,292.545 100.5,294.5C 100.704,297.518 101.037,300.518 101.5,303.5C 100.523,306.287 100.19,309.287 100.5,312.5C 100.167,312.5 99.8333,312.5 99.5,312.5C 99.1661,305.493 98.6661,298.493 98,291.5C 96.0565,290.193 94.2232,290.193 92.5,291.5C 85.1616,292.783 77.8283,292.783 70.5,291.5C 52.0106,285.842 42.344,273.342 41.5,254C 41.7213,248.728 42.388,243.561 43.5,238.5C 44.2216,238.082 44.7216,237.416 45,236.5C 45.1715,243.679 45.6715,250.679 46.5,257.5 Z"/></g>
<g><path style="opacity:0.581" fill="#656565" d="M 43.5,233.5 C 44.7777,233.782 45.7777,234.449 46.5,235.5C 46.5,242.833 46.5,250.167 46.5,257.5C 45.6715,250.679 45.1715,243.679 45,236.5C 44.7216,237.416 44.2216,238.082 43.5,238.5C 43.5,236.833 43.5,235.167 43.5,233.5 Z"/></g>
<g><path style="opacity:0.875" fill="#656565" d="M 681.5,241.5 C 682.993,242.312 683.66,243.645 683.5,245.5C 683.48,246.726 683.147,247.726 682.5,248.5C 682.552,246.097 682.219,243.764 681.5,241.5 Z"/></g>
<g><path style="opacity:0.596" fill="#9c9c9c" d="M 345.5,244.5 C 344.5,246.167 343.167,247.5 341.5,248.5C 341.833,246.167 343.167,244.833 345.5,244.5 Z"/></g>
<g><path style="opacity:0.718" fill="#919191" d="M 413.5,245.5 C 414.906,245.973 415.573,246.973 415.5,248.5C 414.094,248.027 413.427,247.027 413.5,245.5 Z"/></g>
<g><path style="opacity:0.651" fill="#9e9e9e" d="M 461.5,245.5 C 461.573,247.027 460.906,248.027 459.5,248.5C 459.427,246.973 460.094,245.973 461.5,245.5 Z"/></g>
<g><path style="opacity:0.78" fill="#8f8f8f" d="M 608.5,247.5 C 610.262,248.262 611.262,249.596 611.5,251.5C 609.738,250.738 608.738,249.404 608.5,247.5 Z"/></g>
<g><path style="opacity:0.482" fill="#989898" d="M 380.5,247.5 C 381.906,247.973 382.573,248.973 382.5,250.5C 381.094,250.027 380.427,249.027 380.5,247.5 Z"/></g>
<g><path style="opacity:0.792" fill="#8a8a8a" d="M 417.5,250.5 C 419.262,251.262 420.262,252.596 420.5,254.5C 418.738,253.738 417.738,252.404 417.5,250.5 Z"/></g>
<g><path style="opacity:0.71" fill="#939393" d="M 457.5,250.5 C 457.573,252.027 456.906,253.027 455.5,253.5C 455.427,251.973 456.094,250.973 457.5,250.5 Z"/></g>
<g><path style="opacity:0.275" fill="#c2c2c2" d="M 627.5,250.5 C 634.5,250.5 641.5,250.5 648.5,250.5C 648.5,271.5 648.5,292.5 648.5,313.5C 647.503,293.007 647.169,272.34 647.5,251.5C 640.646,251.824 633.979,251.491 627.5,250.5 Z"/></g>
<g><path style="opacity:0.667" fill="#9c9c9c" d="M 370.5,252.5 C 372.404,252.738 373.738,253.738 374.5,255.5C 372.596,255.262 371.262,254.262 370.5,252.5 Z"/></g>
<g><path style="opacity:0.867" fill="#808080" d="M 599.5,253.5 C 601.5,253.5 602.5,254.5 602.5,256.5C 601.167,255.833 600.167,254.833 599.5,253.5 Z"/></g>
<g><path style="opacity:0.761" fill="#878787" d="M 453.5,255.5 C 453.573,257.027 452.906,258.027 451.5,258.5C 451.427,256.973 452.094,255.973 453.5,255.5 Z"/></g>
<g><path style="opacity:0.027" fill="#c9c9c9" d="M 519.5,258.5 C 518.833,258.167 518.167,257.833 517.5,257.5C 518.301,255.207 518.968,255.54 519.5,258.5 Z"/></g>
<g><path style="opacity:0.18" fill="#d5d5d5" d="M 288.5,198.5 C 288.297,203.648 287.297,208.648 285.5,213.5C 277.904,231.637 267.904,248.303 255.5,263.5C 248.04,272.054 240.374,280.388 232.5,288.5C 231.5,289.167 230.5,289.833 229.5,290.5C 239.188,279.477 248.521,268.144 257.5,256.5C 270.209,241.42 279.542,224.42 285.5,205.5C 286.869,203.309 287.869,200.975 288.5,198.5 Z"/></g>
<g><path style="opacity:0.737" fill="#8c8c8c" d="M 422.5,256.5 C 423.906,256.973 424.573,257.973 424.5,259.5C 423.094,259.027 422.427,258.027 422.5,256.5 Z"/></g>
<g><path style="opacity:0.443" fill="#919191" d="M 413.5,261.5 C 412.833,278.833 412.167,296.167 411.5,313.5C 411.333,295.497 411.5,277.497 412,259.5C 412.717,260.044 413.217,260.711 413.5,261.5 Z"/></g>
<g><path style="opacity:0.384" fill="#9f9f9f" d="M 463.5,313.5 C 462.833,296.167 462.167,278.833 461.5,261.5C 461.783,260.711 462.283,260.044 463,259.5C 463.5,277.497 463.667,295.497 463.5,313.5 Z"/></g>
<g><path style="opacity:0.671" fill="#9a9a9a" d="M 448.5,261.5 C 448.573,263.027 447.906,264.027 446.5,264.5C 446.427,262.973 447.094,261.973 448.5,261.5 Z"/></g>
<g><path style="opacity:0.682" fill="#989898" d="M 427.5,262.5 C 428.906,262.973 429.573,263.973 429.5,265.5C 428.094,265.027 427.427,264.027 427.5,262.5 Z"/></g>
<g><path style="opacity:0.776" fill="#999999" d="M 349.5,263.5 C 351.167,264.5 352.5,265.833 353.5,267.5C 351.167,267.167 349.833,265.833 349.5,263.5 Z"/></g>
<g><path style="opacity:0.098" fill="#dcdcdc" d="M 23.5,149.5 C 23.8333,149.5 24.1667,149.5 24.5,149.5C 25.9918,154.458 27.9918,159.291 30.5,164C 8.36673,184.141 7.86673,204.974 29,226.5C 33.1175,230.309 37.9508,232.642 43.5,233.5C 43.5,235.167 43.5,236.833 43.5,238.5C 42.388,243.561 41.7213,248.728 41.5,254C 42.344,273.342 52.0106,285.842 70.5,291.5C 71.5,292.167 72.5,292.833 73.5,293.5C 54.8885,290.055 43.7219,279.055 40,260.5C 39.5301,252.095 39.8635,243.762 41,235.5C 16.2967,224.16 7.79666,205.327 15.5,179C 19.1504,173.687 23.1504,168.687 27.5,164C 25.3073,159.395 23.974,154.562 23.5,149.5 Z"/></g>
<g><path style="opacity:0.729" fill="#8f8f8f" d="M 444.5,266.5 C 444.573,268.027 443.906,269.027 442.5,269.5C 442.427,267.973 443.094,266.973 444.5,266.5 Z"/></g>
<g><path style="opacity:0.761" fill="#868686" d="M 431.5,267.5 C 432.906,267.973 433.573,268.973 433.5,270.5C 432.094,270.027 431.427,269.027 431.5,267.5 Z"/></g>
<g><path style="opacity:0.78" fill="#828282" d="M 440.5,271.5 C 440.573,273.027 439.906,274.027 438.5,274.5C 438.427,272.973 439.094,271.973 440.5,271.5 Z"/></g>
<g><path style="opacity:0.125" fill="#dedede" d="M 52.5,269.5 C 56.7329,272.973 61.0662,276.473 65.5,280C 69.2299,280.911 72.5632,282.411 75.5,284.5C 74.1667,284.5 72.8333,284.5 71.5,284.5C 64.7441,282.233 58.9107,278.566 54,273.5C 53.2086,272.255 52.7086,270.922 52.5,269.5 Z"/></g>
<g><path style="opacity:0.129" fill="#e0e0e0" d="M 270.5,228.5 C 270.509,230.308 270.009,231.975 269,233.5C 265.31,240.233 261.143,246.566 256.5,252.5C 246.571,264.27 236.405,275.936 226,287.5C 224,290.833 222,294.167 220,297.5C 218.601,308.487 217.268,319.487 216,330.5C 214.422,335.23 212.088,339.564 209,343.5C 207.67,344.582 206.17,345.249 204.5,345.5C 205.3,343.318 206.8,341.651 209,340.5C 210.682,337.136 212.349,333.802 214,330.5C 215.513,319.522 216.846,308.522 218,297.5C 226.845,283.321 237.178,270.321 249,258.5C 256.801,248.857 263.967,238.857 270.5,228.5 Z"/></g>
<g><path style="opacity:0.627" fill="#8d8d8d" d="M 604.5,275.5 C 603.833,278.167 602.167,279.833 599.5,280.5C 600.833,278.5 602.5,276.833 604.5,275.5 Z"/></g>
<g><path style="opacity:0.953" fill="#868686" d="M 376.5,278.5 C 378.754,279.124 380.421,280.457 381.5,282.5C 379.205,281.864 377.539,280.531 376.5,278.5 Z"/></g>
<g><path style="opacity:0.028" fill="#dcdcdc" d="M 102.5,297.5 C 101.833,296.5 101.167,295.5 100.5,294.5C 99.6765,292.545 99.5099,290.545 100,288.5C 110.667,283.167 118.667,275.167 124,264.5C 126.512,259.364 127.012,254.031 125.5,248.5C 124.828,251.897 123.995,255.23 123,258.5C 116.082,270.591 106.249,279.258 93.5,284.5C 92.1667,284.5 90.8333,284.5 89.5,284.5C 89.4701,283.503 89.9701,282.836 91,282.5C 109.335,277.127 120.335,265.127 124,246.5C 125.587,245.273 126.921,245.606 128,247.5C 128.925,253.471 128.425,259.305 126.5,265C 123.729,270.102 120.562,274.936 117,279.5C 112.355,283.655 107.355,287.322 102,290.5C 102.207,292.751 102.373,295.085 102.5,297.5 Z"/></g>
<g><path style="opacity:0.494" fill="#959595" d="M 381.5,282.5 C 382.906,282.973 383.573,283.973 383.5,285.5C 382.094,285.027 381.427,284.027 381.5,282.5 Z"/></g>
<g><path style="opacity:0.725" fill="#838383" d="M 71.5,284.5 C 72.8333,284.5 74.1667,284.5 75.5,284.5C 80.1667,284.5 84.8333,284.5 89.5,284.5C 90.8333,284.5 92.1667,284.5 93.5,284.5C 89.966,286.048 86.1327,286.714 82,286.5C 79.1667,286.333 76.3333,286.167 73.5,286C 72.5842,285.722 71.9175,285.222 71.5,284.5 Z"/></g>
<g><path style="opacity:0.561" fill="#727272" d="M 531.5,288.5 C 532.404,289.209 532.737,290.209 532.5,291.5C 522.81,291.832 513.144,291.498 503.5,290.5C 503.624,289.893 503.957,289.56 504.5,289.5C 508.82,290.166 513.32,290.499 518,290.5C 522.886,290.493 527.386,289.826 531.5,288.5 Z"/></g>
<g><path style="opacity:0.816" fill="#5a5a5a" d="M 70.5,291.5 C 77.8283,292.783 85.1616,292.783 92.5,291.5C 91.1667,292.167 89.8333,292.833 88.5,293.5C 83.5,293.5 78.5,293.5 73.5,293.5C 72.5,292.833 71.5,292.167 70.5,291.5 Z"/></g>
<g><path style="opacity:0.998" fill="#1e1e1e" d="M 256.5,252.5 C 254.922,254.375 255.255,255.708 257.5,256.5C 248.521,268.144 239.188,279.477 229.5,290.5C 227.14,292.713 225.306,295.379 224,298.5C 222.597,311.262 220.597,323.929 218,336.5C 215.341,342.991 210.841,347.658 204.5,350.5C 204.179,348.952 203.179,348.285 201.5,348.5C 202.9,347.9 203.9,346.9 204.5,345.5C 206.17,345.249 207.67,344.582 209,343.5C 212.088,339.564 214.422,335.23 216,330.5C 217.268,319.487 218.601,308.487 220,297.5C 222,294.167 224,290.833 226,287.5C 236.405,275.936 246.571,264.27 256.5,252.5 Z"/></g>
<g><path style="opacity:0.305" fill="#b7b7b7" d="M 573.5,293.5 C 576.649,292.835 579.982,292.502 583.5,292.5C 587.239,292.514 590.572,293.18 593.5,294.5C 586.922,293.54 580.255,293.207 573.5,293.5 Z"/></g>
<g><path style="opacity:0.039" fill="#fcfcfc" d="M 73.5,293.5 C 78.5,293.5 83.5,293.5 88.5,293.5C 86.6028,294.805 84.2695,295.471 81.5,295.5C 79.1667,295.333 76.8333,295.167 74.5,295C 73.944,294.617 73.6107,294.117 73.5,293.5 Z"/></g>
<g><path style="opacity:0.773" fill="#6f6f6f" d="M 384.5,286.5 C 385.991,289.186 386.657,292.186 386.5,295.5C 386.495,297.696 386.162,299.696 385.5,301.5C 385.587,296.463 385.254,291.463 384.5,286.5 Z"/></g>
<g><path style="opacity:0.016" fill="#b9b9b9" d="M 342.5,297.5 C 343.833,297.5 344.5,298.167 344.5,299.5C 343.5,299.167 342.833,298.5 342.5,297.5 Z"/></g>
<g><path style="opacity:0.427" fill="#a2a2a2" d="M 100.5,294.5 C 101.167,295.5 101.833,296.5 102.5,297.5C 103.324,300.764 103.658,304.098 103.5,307.5C 103.5,309.833 103.5,312.167 103.5,314.5C 102.598,311.003 101.931,307.337 101.5,303.5C 101.037,300.518 100.704,297.518 100.5,294.5 Z"/></g>
<g><path style="opacity:0.702" fill="#7c7c7c" d="M 609.5,298.5 C 611.262,299.262 612.262,300.596 612.5,302.5C 610.738,301.738 609.738,300.404 609.5,298.5 Z"/></g>
<g><path style="opacity:0.706" fill="#9d9d9d" d="M 345.5,300.5 C 346.833,301.167 347.833,302.167 348.5,303.5C 346.5,303.5 345.5,302.5 345.5,300.5 Z"/></g>
<g><path style="opacity:0.808" fill="#686868" d="M 374.5,301.5 C 374.167,303.833 372.833,305.167 370.5,305.5C 371.5,303.833 372.833,302.5 374.5,301.5 Z"/></g>
<g><path style="opacity:0.588" fill="#828282" d="M 612.5,302.5 C 613.906,302.973 614.573,303.973 614.5,305.5C 613.094,305.027 612.427,304.027 612.5,302.5 Z"/></g>
<g><path style="opacity:0.275" fill="#c8c8c8" d="M 163.5,51.5 C 162.91,52.766 162.41,54.0993 162,55.5C 161.683,141.834 161.849,228.167 162.5,314.5C 161.833,295.167 161.167,275.833 160.5,256.5C 160.107,188.148 160.107,119.815 160.5,51.5C 161.5,51.5 162.5,51.5 163.5,51.5 Z"/></g>
<g><path style="opacity:0.032" fill="#e9e9e9" d="M 232.5,288.5 C 230.156,292.36 227.989,296.36 226,300.5C 223.739,311.043 222.072,321.71 221,332.5C 218.056,345.111 210.223,352.611 197.5,355C 193.667,355.167 189.833,355.333 186,355.5C 181.771,355.49 177.938,354.823 174.5,353.5C 182.507,353.666 190.507,353.5 198.5,353C 200.058,352.79 201.391,352.29 202.5,351.5C 202.842,350.662 203.508,350.328 204.5,350.5C 210.841,347.658 215.341,342.991 218,336.5C 220.597,323.929 222.597,311.262 224,298.5C 225.306,295.379 227.14,292.713 229.5,290.5C 230.5,289.833 231.5,289.167 232.5,288.5 Z"/></g>
<g><path style="opacity:0.733" fill="#7a7a7a" d="M 614.5,305.5 C 616.262,306.262 617.262,307.596 617.5,309.5C 615.738,308.738 614.738,307.404 614.5,305.5 Z"/></g>
<g><path style="opacity:0.134" fill="#e9e9e9" d="M 148.5,151.5 C 148.5,216.167 148.5,280.833 148.5,345.5C 141.011,346.656 133.345,346.822 125.5,346C 116.085,345.893 109.252,341.727 105,333.5C 104.594,327.151 104.094,320.817 103.5,314.5C 103.5,312.167 103.5,309.833 103.5,307.5C 104.117,307.611 104.617,307.944 105,308.5C 105.722,316.162 106.388,323.829 107,331.5C 107.45,333.519 108.283,335.352 109.5,337C 114.012,341.065 119.345,343.398 125.5,344C 132.826,344.5 140.159,344.666 147.5,344.5C 147.168,279.998 147.501,215.665 148.5,151.5 Z"/></g>
<g><path style="opacity:0.925" fill="#636363" d="M 463.5,314.5 C 466.096,315.265 468.763,315.599 471.5,315.5C 470.551,316.152 469.385,316.486 468,316.5C 465.992,316.693 464.492,316.026 463.5,314.5 Z"/></g>
<g><path style="opacity:0.073" fill="#e2e2e2" d="M 99.5,312.5 C 99.3437,320.529 99.677,328.529 100.5,336.5C 99.8826,336.389 99.3826,336.056 99,335.5C 97.9741,321.174 97.1408,306.841 96.5,292.5C 93.8728,293.092 91.2062,293.425 88.5,293.5C 89.8333,292.833 91.1667,292.167 92.5,291.5C 94.2232,290.193 96.0565,290.193 98,291.5C 98.6661,298.493 99.1661,305.493 99.5,312.5 Z"/></g>
<g><path style="opacity:0.925" fill="#454545" d="M 99.5,312.5 C 99.8333,312.5 100.167,312.5 100.5,312.5C 100.672,320.895 101.339,329.229 102.5,337.5C 101.833,337.167 101.167,336.833 100.5,336.5C 99.677,328.529 99.3437,320.529 99.5,312.5 Z"/></g>
<g><path style="opacity:0.03" fill="#e9e9e9" d="M 160.5,256.5 C 161.167,275.833 161.833,295.167 162.5,314.5C 162.303,325.899 162.97,337.233 164.5,348.5C 163.849,347.909 163.182,347.243 162.5,346.5C 161.67,340.528 161.17,334.528 161,328.5C 160.5,304.502 160.333,280.502 160.5,256.5 Z"/></g>
<g><path style="opacity:0.082" fill="#c7c7c7" d="M 164.5,348.5 C 167.205,349.853 169.872,351.186 172.5,352.5C 172.5,352.833 172.5,353.167 172.5,353.5C 168.399,353.798 165.733,352.132 164.5,348.5 Z"/></g>
<g><path style="opacity:0.784" fill="#585858" d="M 202.5,351.5 C 201.391,352.29 200.058,352.79 198.5,353C 190.507,353.5 182.507,353.666 174.5,353.5C 173.833,353.5 173.167,353.5 172.5,353.5C 172.5,353.167 172.5,352.833 172.5,352.5C 182.527,352.699 192.527,352.366 202.5,351.5 Z"/></g>
<g><path style="opacity:0.474" fill="#adadad" d="M 112.5,358.5 C 142.664,357.336 172.997,357.169 203.5,358C 207.385,360.708 208.218,364.208 206,368.5C 204.829,369.893 203.329,370.727 201.5,371C 172.5,371.667 143.5,371.667 114.5,371C 113.584,370.722 112.918,370.222 112.5,369.5C 142.502,369.667 172.502,369.5 202.5,369C 204.646,368.521 205.646,367.188 205.5,365C 205.387,362.601 204.387,360.768 202.5,359.5C 172.671,358.502 142.671,358.169 112.5,358.5 Z"/></g>
<g><path style="opacity:0.906" fill="#2b2b2b" d="M 112.5,358.5 C 142.671,358.169 172.671,358.502 202.5,359.5C 172.123,359.182 141.79,359.515 111.5,360.5C 111.833,359.833 112.167,359.167 112.5,358.5 Z"/></g>
<g><path style="opacity:1" fill="#010101" d="M 202.5,359.5 C 204.387,360.768 205.387,362.601 205.5,365C 205.646,367.188 204.646,368.521 202.5,369C 172.502,369.5 142.502,369.667 112.5,369.5C 110.319,366.737 109.985,363.737 111.5,360.5C 141.79,359.515 172.123,359.182 202.5,359.5 Z"/></g>
<g><path style="opacity:0.063" fill="#e8e8e8" d="M 112.5,358.5 C 112.167,359.167 111.833,359.833 111.5,360.5C 109.985,363.737 110.319,366.737 112.5,369.5C 109.862,368.758 108.529,366.925 108.5,364C 108.529,361.075 109.862,359.242 112.5,358.5 Z"/></g>
<g><path style="opacity:0.307" fill="#c4c4c4" d="M 201.5,386.5 C 205.077,384.142 206.244,380.809 205,376.5C 203.933,375.809 202.766,375.309 201.5,375C 172.5,374.333 143.5,374.333 114.5,375C 110.018,377.722 109.351,381.222 112.5,385.5C 109.862,384.758 108.529,382.925 108.5,380C 108.598,377.127 109.932,375.127 112.5,374C 143.167,373.333 173.833,373.333 204.5,374C 207.504,377.172 208.004,380.672 206,384.5C 204.89,386.037 203.39,386.703 201.5,386.5 Z"/></g>
<g><path style="opacity:1" fill="#090909" d="M 201.5,386.5 C 171.662,386.831 141.995,386.498 112.5,385.5C 109.351,381.222 110.018,377.722 114.5,375C 143.5,374.333 172.5,374.333 201.5,375C 202.766,375.309 203.933,375.809 205,376.5C 206.244,380.809 205.077,384.142 201.5,386.5 Z"/></g>
<g><path style="opacity:0.052" fill="#ececec" d="M 191.5,404.5 C 191.5,403.5 191.5,402.5 191.5,401.5C 191.998,398.171 192.998,395.005 194.5,392C 169.997,391.17 145.663,391.337 121.5,392.5C 120.957,392.44 120.624,392.107 120.5,391.5C 144.849,390.596 169.182,390.096 193.5,390C 194.578,390.674 195.245,391.674 195.5,393C 194.633,397.106 193.3,400.939 191.5,404.5 Z"/></g>
<g><path style="opacity:1" fill="#010101" d="M 191.5,401.5 C 190.069,402.78 189.402,404.447 189.5,406.5C 168.091,406.822 146.758,406.488 125.5,405.5C 125.975,402.918 125.308,400.918 123.5,399.5C 123.975,396.918 123.308,394.918 121.5,393.5C 121.5,393.167 121.5,392.833 121.5,392.5C 145.663,391.337 169.997,391.17 194.5,392C 192.998,395.005 191.998,398.171 191.5,401.5 Z"/></g>
<g><path style="opacity:0.863" fill="#878787" d="M 121.5,393.5 C 123.308,394.918 123.975,396.918 123.5,399.5C 122.262,397.786 121.595,395.786 121.5,393.5 Z"/></g>
<g><path style="opacity:0.827" fill="#8e8e8e" d="M 123.5,399.5 C 125.308,400.918 125.975,402.918 125.5,405.5C 124.262,403.786 123.595,401.786 123.5,399.5 Z"/></g>
<g><path style="opacity:0.235" fill="#c3c3c3" d="M 191.5,401.5 C 191.5,402.5 191.5,403.5 191.5,404.5C 191.5,405.5 191.5,406.5 191.5,407.5C 169.141,408.156 147.141,407.489 125.5,405.5C 146.758,406.488 168.091,406.822 189.5,406.5C 189.402,404.447 190.069,402.78 191.5,401.5 Z"/></g>
</svg>
