<?xml version="1.0" encoding="UTF-8"?>
<!DOCTYPE svg PUBLIC "-//W3C//DTD SVG 1.1//EN" "http://www.w3.org/Graphics/SVG/1.1/DTD/svg11.dtd">
<svg xmlns="http://www.w3.org/2000/svg" version="1.1" width="1200px" height="500px" style="shape-rendering:geometricPrecision; text-rendering:geometricPrecision; image-rendering:optimizeQuality; fill-rule:evenodd; clip-rule:evenodd" xmlns:xlink="http://www.w3.org/1999/xlink">
<g><path style="opacity:0.236" fill="#b3b3b3" d="M 139.5,72.5 C 134.833,72.5 130.167,72.5 125.5,72.5C 127.397,71.1952 129.731,70.5286 132.5,70.5C 135.269,70.5286 137.603,71.1952 139.5,72.5 Z"/></g>
<g><path style="opacity:0.222" fill="#a6a6a6" d="M 222.5,70.5 C 215.167,71.8333 207.833,71.8333 200.5,70.5C 207.833,69.1667 215.167,69.1667 222.5,70.5 Z"/></g>
<g><path style="opacity:0.143" fill="#a3a3a3" d="M 223.5,70.5 C 226.553,70.1107 229.22,70.7773 231.5,72.5C 231.167,72.5 230.833,72.5 230.5,72.5C 227.612,73.0102 225.279,72.3435 223.5,70.5 Z"/></g>
<g><path style="opacity:0.998" fill="#101010" d="M 200.5,70.5 C 207.833,71.8333 215.167,71.8333 222.5,70.5C 222.833,70.5 223.167,70.5 223.5,70.5C 225.279,72.3435 227.612,73.0102 230.5,72.5C 230.611,73.1174 230.944,73.6174 231.5,74C 234.852,74.8379 238.185,75.6712 241.5,76.5C 243.764,77.2186 246.097,77.552 248.5,77.5C 252.214,80.6366 256.547,82.6366 261.5,83.5C 262.663,85.9822 264.663,87.3155 267.5,87.5C 267.414,88.4959 267.748,89.3292 268.5,90C 271.071,91.4538 273.738,92.6205 276.5,93.5C 278.987,97.415 282.32,100.415 286.5,102.5C 287.412,104.595 288.579,106.595 290,108.5C 292.184,110.288 294.351,111.954 296.5,113.5C 296.427,115.027 297.094,116.027 298.5,116.5C 298.581,119.513 299.914,121.513 302.5,122.5C 302.981,125.834 304.647,128.167 307.5,129.5C 308.404,130.209 308.737,131.209 308.5,132.5C 310.941,137.891 313.275,143.391 315.5,149C 316.371,150.364 317.371,151.53 318.5,152.5C 318.768,155.74 319.434,158.906 320.5,162C 320.836,163.03 321.503,163.53 322.5,163.5C 323.167,167.5 323.833,171.5 324.5,175.5C 327.131,189.846 327.131,204.18 324.5,218.5C 324.296,221.518 323.963,224.518 323.5,227.5C 323.634,229.292 323.301,230.958 322.5,232.5C 319.636,234.738 318.303,237.738 318.5,241.5C 315.889,244.133 313.722,247.133 312,250.5C 308.893,256.085 306.06,261.751 303.5,267.5C 301.896,268.287 301.229,269.62 301.5,271.5C 298.703,271.967 297.369,273.633 297.5,276.5C 293.152,278.52 290.152,281.853 288.5,286.5C 283.548,289.382 279.715,293.382 277,298.5C 276.517,299.448 276.351,300.448 276.5,301.5C 274.821,301.285 273.821,301.952 273.5,303.5C 270.069,305.004 268.069,307.671 267.5,311.5C 265.5,312.167 264.167,313.5 263.5,315.5C 261.306,317.221 260.139,319.555 260,322.5C 259.499,327.508 258.999,332.508 258.5,337.5C 258.494,342.215 257.994,346.882 257,351.5C 255.003,355.327 253.503,359.327 252.5,363.5C 249.856,364.144 248.189,365.811 247.5,368.5C 245.368,368.554 244.035,369.554 243.5,371.5C 241.524,373.011 239.191,373.844 236.5,374C 227.755,374.802 219.088,374.636 210.5,373.5C 208.077,372.451 205.743,371.118 203.5,369.5C 202.91,368.234 202.41,366.901 202,365.5C 201.064,331.674 200.231,298.007 199.5,264.5C 199.5,250.5 199.5,236.5 199.5,222.5C 199.5,173.5 199.5,124.5 199.5,75.5C 199.5,74.1667 199.5,72.8333 199.5,71.5C 199.5,70.8333 199.833,70.5 200.5,70.5 Z M 224.5,80.5 C 225.167,80.5 225.833,80.5 226.5,80.5C 226.611,81.1174 226.944,81.6174 227.5,82C 230.827,82.6103 234.161,83.1103 237.5,83.5C 239.599,84.6118 241.933,85.2785 244.5,85.5C 244.833,85.5 245.167,85.5 245.5,85.5C 247.64,88.3409 250.64,89.6743 254.5,89.5C 257.161,92.5023 260.495,94.5023 264.5,95.5C 265.948,98.264 268.281,99.9307 271.5,100.5C 271.414,101.496 271.748,102.329 272.5,103C 275.065,105.08 277.732,106.913 280.5,108.5C 283.202,112.863 286.536,116.53 290.5,119.5C 292.062,123.392 294.395,126.725 297.5,129.5C 297.5,129.833 297.5,130.167 297.5,130.5C 298.124,132.754 299.457,134.421 301.5,135.5C 301.5,135.833 301.5,136.167 301.5,136.5C 302.383,139.704 304.05,142.371 306.5,144.5C 306.604,146.703 307.27,148.703 308.5,150.5C 309.11,152.434 310.11,154.101 311.5,155.5C 314.447,163.283 316.78,171.283 318.5,179.5C 320.335,189.639 321.002,199.972 320.5,210.5C 320.5,210.833 320.5,211.167 320.5,211.5C 319.883,211.611 319.383,211.944 319,212.5C 317.915,221.174 315.749,229.507 312.5,237.5C 309.4,242.039 307.067,247.039 305.5,252.5C 302.862,254.418 301.195,257.085 300.5,260.5C 299.504,260.414 298.671,260.748 298,261.5C 297.345,263.628 296.511,265.628 295.5,267.5C 292.736,268.948 291.069,271.281 290.5,274.5C 287.438,275.268 285.772,277.268 285.5,280.5C 284.761,280.369 284.094,280.536 283.5,281C 275.902,289.66 268.402,298.494 261,307.5C 260.517,308.448 260.351,309.448 260.5,310.5C 259.504,310.414 258.671,310.748 258,311.5C 256.273,314.618 255.439,317.951 255.5,321.5C 255.5,322.167 255.5,322.833 255.5,323.5C 254.262,325.214 253.595,327.214 253.5,329.5C 253.5,330.833 253.5,332.167 253.5,333.5C 253.5,334.167 253.5,334.833 253.5,335.5C 252.539,337.265 252.205,339.265 252.5,341.5C 251.841,344.455 251.508,347.455 251.5,350.5C 250.262,352.214 249.595,354.214 249.5,356.5C 246.473,360.194 243.14,363.527 239.5,366.5C 228.833,367.833 218.167,367.833 207.5,366.5C 206.385,270.872 206.385,175.205 207.5,79.5C 213.172,79.7599 218.839,80.0932 224.5,80.5 Z"/></g>
<g><path style="opacity:0.314" fill="#969696" d="M 120.5,73.5 C 118.516,76.1639 115.849,77.8305 112.5,78.5C 114.193,75.3182 116.859,73.6516 120.5,73.5 Z"/></g>
<g><path style="opacity:0.331" fill="#737373" d="M 199.5,71.5 C 199.5,72.8333 199.5,74.1667 199.5,75.5C 198.833,75.5 198.167,75.5 197.5,75.5C 197.157,73.5168 197.824,72.1834 199.5,71.5 Z"/></g>
<g><path style="opacity:0.255" fill="#6a6a6a" d="M 230.5,72.5 C 230.833,72.5 231.167,72.5 231.5,72.5C 234.988,72.5399 238.321,73.2066 241.5,74.5C 241.5,75.1667 241.5,75.8333 241.5,76.5C 238.185,75.6712 234.852,74.8379 231.5,74C 230.944,73.6174 230.611,73.1174 230.5,72.5 Z"/></g>
<g><path style="opacity:0.995" fill="#272727" d="M 178.5,74.5 C 180.339,77.1347 183.006,78.4681 186.5,78.5C 187.114,80.2825 188.28,81.6159 190,82.5C 190.259,85.5867 190.759,88.5867 191.5,91.5C 191.5,97.1667 191.5,102.833 191.5,108.5C 190.673,103.015 190.173,97.3482 190,91.5C 188.897,99.5751 188.063,107.575 187.5,115.5C 187.5,111.833 187.5,108.167 187.5,104.5C 187.5,99.5 187.5,94.5 187.5,89.5C 188.622,87.7116 188.789,85.7116 188,83.5C 186.89,81.9632 185.39,81.2965 183.5,81.5C 183.167,81.5 182.833,81.5 182.5,81.5C 180.898,79.9261 178.898,79.2594 176.5,79.5C 174.603,78.1952 172.269,77.5286 169.5,77.5C 167.167,77.6667 164.833,77.8333 162.5,78C 160.881,78.2355 159.881,79.0689 159.5,80.5C 155.178,81.7259 150.845,81.7259 146.5,80.5C 144.58,79.9348 142.913,78.9348 141.5,77.5C 144.148,78.1621 146.815,78.8288 149.5,79.5C 150.416,79.4573 151.083,79.1239 151.5,78.5C 154.271,78.5793 156.937,78.0793 159.5,77C 160.756,76.5831 161.423,75.7498 161.5,74.5C 167.266,73.196 172.933,73.196 178.5,74.5 Z"/></g>
<g><path style="opacity:0.306" fill="#929292" d="M 178.5,74.5 C 181.881,74.5397 184.548,75.873 186.5,78.5C 183.006,78.4681 180.339,77.1347 178.5,74.5 Z"/></g>
<g><path style="opacity:0.396" fill="#9c9c9c" d="M 241.5,74.5 C 244.346,74.5516 246.68,75.5516 248.5,77.5C 246.097,77.552 243.764,77.2186 241.5,76.5C 241.5,75.8333 241.5,75.1667 241.5,74.5 Z"/></g>
<g><path style="opacity:0.452" fill="#757575" d="M 141.5,77.5 C 142.913,78.9348 144.58,79.9348 146.5,80.5C 141.527,79.8363 136.527,79.5029 131.5,79.5C 129.5,79.5 127.5,79.5 125.5,79.5C 126.263,78.7321 127.263,78.2321 128.5,78C 132.821,77.501 137.154,77.3343 141.5,77.5 Z"/></g>
<g><path style="opacity:0.118" fill="#979797" d="M 144.5,73.5 C 147.94,74.1351 151.106,75.4684 154,77.5C 156.22,75.8069 158.72,74.8069 161.5,74.5C 161.423,75.7498 160.756,76.5831 159.5,77C 156.937,78.0793 154.271,78.5793 151.5,78.5C 149.78,77.1359 147.78,76.1359 145.5,75.5C 144.702,75.0431 144.369,74.3764 144.5,73.5 Z"/></g>
<g><path style="opacity:0.248" fill="#7f7f7f" d="M 176.5,79.5 C 171.12,79.3243 165.787,79.6576 160.5,80.5C 160.167,80.5 159.833,80.5 159.5,80.5C 159.881,79.0689 160.881,78.2355 162.5,78C 164.833,77.8333 167.167,77.6667 169.5,77.5C 172.269,77.5286 174.603,78.1952 176.5,79.5 Z"/></g>
<g><path style="opacity:0.267" fill="#bcbcbc" d="M 176.5,79.5 C 178.898,79.2594 180.898,79.9261 182.5,81.5C 180.214,81.405 178.214,80.7384 176.5,79.5 Z"/></g>
<g><path style="opacity:0.051" fill="#d2d2d2" d="M 125.5,79.5 C 127.5,79.5 129.5,79.5 131.5,79.5C 129.039,80.531 126.373,81.1977 123.5,81.5C 124.167,80.8333 124.833,80.1667 125.5,79.5 Z"/></g>
<g><path style="opacity:0.024" fill="#b3b3b3" d="M 112.5,78.5 C 111.647,80.8927 109.981,82.226 107.5,82.5C 108.539,80.4689 110.205,79.1355 112.5,78.5 Z"/></g>
<g><path style="opacity:0.11" fill="#b7b7b7" d="M 146.5,80.5 C 150.845,81.7259 155.178,81.7259 159.5,80.5C 159.833,80.5 160.167,80.5 160.5,80.5C 155.804,84.3974 151.137,84.3974 146.5,80.5 Z"/></g>
<g><path style="opacity:0.263" fill="#959595" d="M 226.5,80.5 C 229.551,80.3645 232.551,80.6978 235.5,81.5C 236.713,81.7472 237.38,82.4138 237.5,83.5C 234.161,83.1103 230.827,82.6103 227.5,82C 226.944,81.6174 226.611,81.1174 226.5,80.5 Z"/></g>
<g><path style="opacity:0.051" fill="#939393" d="M 183.5,81.5 C 185.39,81.2965 186.89,81.9632 188,83.5C 188.789,85.7116 188.622,87.7116 187.5,89.5C 187.785,87.712 187.452,86.0453 186.5,84.5C 184.787,84.1207 183.787,83.1207 183.5,81.5 Z"/></g>
<g><path style="opacity:0.125" fill="#a1a1a1" d="M 248.5,77.5 C 253.443,78.3612 257.776,80.3612 261.5,83.5C 256.547,82.6366 252.214,80.6366 248.5,77.5 Z"/></g>
<g><path style="opacity:0.353" fill="#a5a5a5" d="M 237.5,83.5 C 240.228,83.1706 242.562,83.8372 244.5,85.5C 241.933,85.2785 239.599,84.6118 237.5,83.5 Z"/></g>
<g><path style="opacity:0.225" fill="#7b7b7b" d="M 186.5,78.5 C 188.679,78.84 190.512,79.84 192,81.5C 192.498,84.8168 192.665,88.1501 192.5,91.5C 192.167,91.5 191.833,91.5 191.5,91.5C 190.759,88.5867 190.259,85.5867 190,82.5C 188.28,81.6159 187.114,80.2825 186.5,78.5 Z"/></g>
<g><path style="opacity:0.114" fill="#969696" d="M 261.5,83.5 C 264.267,83.8702 266.267,85.2036 267.5,87.5C 266.267,85.2036 264.267,83.8702 261.5,83.5 Z"/></g>
<g><path style="opacity:0.118" fill="#9f9f9f" d="M 245.5,85.5 C 249.161,85.5284 252.161,86.8617 254.5,89.5C 250.64,89.6743 247.64,88.3409 245.5,85.5 Z"/></g>
<g><path style="opacity:0.024" fill="#d9d9d9" d="M 268.5,87.5 C 270.027,87.427 271.027,88.0937 271.5,89.5C 269.973,89.573 268.973,88.9063 268.5,87.5 Z"/></g>
<g><path style="opacity:0.184" fill="#9b9b9b" d="M 123.5,81.5 C 121.924,83.7306 119.757,85.3972 117,86.5C 110.352,93.4738 105.518,101.474 102.5,110.5C 102.325,108.379 102.659,106.379 103.5,104.5C 104.068,99.3631 106.235,95.0297 110,91.5C 112.833,88.6667 115.667,85.8333 118.5,83C 120.025,81.9914 121.692,81.4914 123.5,81.5 Z"/></g>
<g><path style="opacity:0.369" fill="#8e8e8e" d="M 267.5,87.5 C 267.833,87.5 268.167,87.5 268.5,87.5C 268.973,88.9063 269.973,89.573 271.5,89.5C 273.749,90.0798 275.415,91.4131 276.5,93.5C 273.738,92.6205 271.071,91.4538 268.5,90C 267.748,89.3292 267.414,88.4959 267.5,87.5 Z"/></g>
<g><path style="opacity:0.725" fill="#8c8c8c" d="M 107.5,82.5 C 103.883,89.7681 99.8826,96.7681 95.5,103.5C 96.871,97.7798 99.2044,92.4464 102.5,87.5C 103.954,85.5635 105.621,83.8968 107.5,82.5 Z"/></g>
<g><path style="opacity:0.188" fill="#949494" d="M 254.5,89.5 C 258.843,89.9974 262.176,91.9974 264.5,95.5C 260.495,94.5023 257.161,92.5023 254.5,89.5 Z"/></g>
<g><path style="opacity:0.094" fill="#ababab" d="M 276.5,93.5 C 279.603,95.4233 282.603,97.59 285.5,100C 286.252,100.671 286.586,101.504 286.5,102.5C 282.32,100.415 278.987,97.415 276.5,93.5 Z"/></g>
<g><path style="opacity:0.086" fill="#8c8c8c" d="M 197.5,76.5 C 198.719,93.6762 198.719,111.01 197.5,128.5C 196.167,111.167 196.167,93.8333 197.5,76.5 Z"/></g>
<g><path style="opacity:0.282" fill="#8b8b8b" d="M 264.5,95.5 C 268.107,95.5647 270.44,97.2314 271.5,100.5C 268.281,99.9307 265.948,98.264 264.5,95.5 Z"/></g>
<g><path style="opacity:0.11" fill="#c4c4c4" d="M 191.5,91.5 C 191.833,91.5 192.167,91.5 192.5,91.5C 193.48,104.421 193.814,117.421 193.5,130.5C 192.833,130.5 192.167,130.5 191.5,130.5C 191.5,123.167 191.5,115.833 191.5,108.5C 191.5,102.833 191.5,97.1667 191.5,91.5 Z"/></g>
<g><path style="opacity:0.086" fill="#a5a5a5" d="M 271.5,100.5 C 272.922,100.709 274.255,101.209 275.5,102C 277.288,104.184 278.954,106.351 280.5,108.5C 277.732,106.913 275.065,105.08 272.5,103C 271.748,102.329 271.414,101.496 271.5,100.5 Z"/></g>
<g><path style="opacity:0.996" fill="#060606" d="M 191.5,108.5 C 191.5,115.833 191.5,123.167 191.5,130.5C 192.709,209.567 192.709,288.567 191.5,367.5C 190.871,369.997 189.204,371.33 186.5,371.5C 179.864,372.798 173.197,372.798 166.5,371.5C 161.463,371.092 156.463,370.426 151.5,369.5C 149.328,367.055 146.662,365.055 143.5,363.5C 141.384,361.6 140.051,359.267 139.5,356.5C 137.805,345.269 137.305,333.936 138,322.5C 138.191,324.708 138.691,326.708 139.5,328.5C 140.388,331.054 140.721,333.721 140.5,336.5C 141.109,341.812 141.609,347.146 142,352.5C 142.232,353.737 142.732,354.737 143.5,355.5C 144.599,358.932 146.933,360.932 150.5,361.5C 150.47,362.497 150.97,363.164 152,363.5C 156.092,364.875 160.259,365.875 164.5,366.5C 171.755,366.813 178.921,366.48 186,365.5C 186.829,300.763 186.663,236.096 185.5,171.5C 185.5,169.5 185.5,167.5 185.5,165.5C 187.456,159.588 188.123,153.255 187.5,146.5C 187.5,139.5 187.5,132.5 187.5,125.5C 187.5,122.167 187.5,118.833 187.5,115.5C 188.063,107.575 188.897,99.5751 190,91.5C 190.173,97.3482 190.673,103.015 191.5,108.5 Z"/></g>
<g><path style="opacity:0.047" fill="#949494" d="M 280.5,108.5 C 283.412,110.066 286.079,112.066 288.5,114.5C 289.95,115.85 290.617,117.516 290.5,119.5C 286.536,116.53 283.202,112.863 280.5,108.5 Z"/></g>
<g><path style="opacity:0.155" fill="#a9a9a9" d="M 286.5,102.5 C 290.505,105.475 293.839,109.142 296.5,113.5C 294.351,111.954 292.184,110.288 290,108.5C 288.579,106.595 287.412,104.595 286.5,102.5 Z"/></g>
<g><path style="opacity:0.62" fill="#535353" d="M 103.5,104.5 C 102.659,106.379 102.325,108.379 102.5,110.5C 102.413,115.537 102.746,120.537 103.5,125.5C 103.5,126.167 103.5,126.833 103.5,127.5C 102.307,127.03 101.64,126.03 101.5,124.5C 100.217,118.492 100.217,112.492 101.5,106.5C 101.747,105.287 102.414,104.62 103.5,104.5 Z"/></g>
<g><path style="opacity:0.075" fill="#bababa" d="M 296.5,113.5 C 297.906,113.973 298.573,114.973 298.5,116.5C 297.094,116.027 296.427,115.027 296.5,113.5 Z"/></g>
<g><path style="opacity:0.204" fill="#8a8a8a" d="M 95.5,105.5 C 95.6655,109.514 95.4988,113.514 95,117.5C 91.3096,119.007 87.4763,120.007 83.5,120.5C 86.5785,117.805 90.2452,116.472 94.5,116.5C 94.185,112.629 94.5184,108.962 95.5,105.5 Z"/></g>
<g><path style="opacity:0.691" fill="#282828" d="M 197.5,76.5 C 197.5,76.1667 197.5,75.8333 197.5,75.5C 198.167,75.5 198.833,75.5 199.5,75.5C 199.5,124.5 199.5,173.5 199.5,222.5C 198.833,222.5 198.167,222.5 197.5,222.5C 197.5,191.167 197.5,159.833 197.5,128.5C 198.719,111.01 198.719,93.6762 197.5,76.5 Z"/></g>
<g><path style="opacity:0.239" fill="#929292" d="M 298.5,116.5 C 301.044,117.708 302.378,119.708 302.5,122.5C 299.914,121.513 298.581,119.513 298.5,116.5 Z"/></g>
<g><path style="opacity:0.997" fill="#151515" d="M 125.5,72.5 C 130.167,72.5 134.833,72.5 139.5,72.5C 141.415,72.2155 143.081,72.5489 144.5,73.5C 144.369,74.3764 144.702,75.0431 145.5,75.5C 147.78,76.1359 149.78,77.1359 151.5,78.5C 151.083,79.1239 150.416,79.4573 149.5,79.5C 146.815,78.8288 144.148,78.1621 141.5,77.5C 137.154,77.3343 132.821,77.501 128.5,78C 127.263,78.2321 126.263,78.7321 125.5,79.5C 124.833,80.1667 124.167,80.8333 123.5,81.5C 121.692,81.4914 120.025,81.9914 118.5,83C 115.667,85.8333 112.833,88.6667 110,91.5C 106.235,95.0297 104.068,99.3631 103.5,104.5C 102.414,104.62 101.747,105.287 101.5,106.5C 100.217,112.492 100.217,118.492 101.5,124.5C 101.64,126.03 102.307,127.03 103.5,127.5C 105.162,135.801 109.495,142.135 116.5,146.5C 117.167,149.167 118.833,150.833 121.5,151.5C 122.63,153.315 123.296,155.315 123.5,157.5C 122.5,157.5 121.5,157.5 120.5,157.5C 119.871,155.003 118.204,153.67 115.5,153.5C 111.614,149.423 107.947,145.09 104.5,140.5C 101.269,135.169 98.2692,129.836 95.5,124.5C 95.5,123.5 95.5,122.5 95.5,121.5C 94.209,121.263 93.209,121.596 92.5,122.5C 80.7429,125.923 72.4096,133.256 67.5,144.5C 66.8857,148.135 66.5524,151.802 66.5,155.5C 66.5,156.833 66.5,158.167 66.5,159.5C 66.3564,163.375 66.6898,167.208 67.5,171C 67.9586,172.942 68.9586,174.442 70.5,175.5C 70.5,175.833 70.5,176.167 70.5,176.5C 71.1667,178.5 71.8333,180.5 72.5,182.5C 76.2894,188.105 81.456,192.105 88,194.5C 91.4019,195.726 94.9019,196.393 98.5,196.5C 103.619,197.103 108.285,196.436 112.5,194.5C 113.5,194.5 114.5,194.5 115.5,194.5C 115.323,190.766 115.656,187.099 116.5,183.5C 118.294,181.897 119.294,179.73 119.5,177C 119.257,176.098 118.923,175.265 118.5,174.5C 118.5,174.167 118.5,173.833 118.5,173.5C 121.084,172.952 122.084,171.285 121.5,168.5C 123.69,167.198 125.69,165.531 127.5,163.5C 128.386,164.325 128.719,165.325 128.5,166.5C 127.414,166.62 126.747,167.287 126.5,168.5C 125.703,171.82 125.036,175.154 124.5,178.5C 124.334,184.509 124.501,190.509 125,196.5C 125.421,199.02 126.588,201.02 128.5,202.5C 128.375,205.608 129.708,207.608 132.5,208.5C 133.069,211.335 134.736,213.001 137.5,213.5C 138.014,215.366 138.68,217.2 139.5,219C 139.164,220.03 138.497,220.53 137.5,220.5C 137.167,220.5 136.833,220.5 136.5,220.5C 135.486,219.326 134.153,218.66 132.5,218.5C 131.965,216.554 130.632,215.554 128.5,215.5C 126.183,211.854 123.516,208.52 120.5,205.5C 120.335,203.173 119.669,201.007 118.5,199C 114.999,198.904 111.666,199.404 108.5,200.5C 108.167,200.5 107.833,200.5 107.5,200.5C 103.5,200.5 99.5,200.5 95.5,200.5C 94.5,200.5 93.5,200.5 92.5,200.5C 87.4113,198.137 82.0779,196.137 76.5,194.5C 76.0269,193.094 75.0269,192.427 73.5,192.5C 73.5,190.5 72.5,189.5 70.5,189.5C 70.5,189.167 70.5,188.833 70.5,188.5C 69.9232,186.348 68.7565,186.015 67,187.5C 66.5357,186.906 66.369,186.239 66.5,185.5C 67.8409,182.148 66.8409,179.481 63.5,177.5C 62.2967,170.709 61.2967,163.876 60.5,157C 61.1772,151.088 62.1772,145.255 63.5,139.5C 67.073,135.356 70.4063,131.022 73.5,126.5C 75.0269,126.573 76.0269,125.906 76.5,124.5C 79.6817,124.416 82.015,123.083 83.5,120.5C 87.4763,120.007 91.3096,119.007 95,117.5C 95.4988,113.514 95.6655,109.514 95.5,105.5C 95.5,104.833 95.5,104.167 95.5,103.5C 99.8826,96.7681 103.883,89.7681 107.5,82.5C 109.981,82.226 111.647,80.8927 112.5,78.5C 115.849,77.8305 118.516,76.1639 120.5,73.5C 121.919,72.5489 123.585,72.2155 125.5,72.5 Z"/></g>
<g><path style="opacity:0.239" fill="#979797" d="M 83.5,120.5 C 82.015,123.083 79.6817,124.416 76.5,124.5C 77.985,121.917 80.3183,120.584 83.5,120.5 Z"/></g>
<g><path style="opacity:0.012" fill="#e6e6e6" d="M 92.5,122.5 C 93.209,121.596 94.209,121.263 95.5,121.5C 95.5,122.5 95.5,123.5 95.5,124.5C 94.7777,123.449 93.7777,122.782 92.5,122.5 Z"/></g>
<g><path style="opacity:0.021" fill="#e4e4e4" d="M 246.5,123.5 C 244.517,123.157 243.183,123.824 242.5,125.5C 241.596,124.791 241.263,123.791 241.5,122.5C 243.415,122.216 245.081,122.549 246.5,123.5 Z"/></g>
<g><path style="opacity:0.151" fill="#cbcbcb" d="M 187.5,104.5 C 187.5,108.167 187.5,111.833 187.5,115.5C 187.5,118.833 187.5,122.167 187.5,125.5C 186.833,125.5 186.167,125.5 185.5,125.5C 185.334,118.825 185.5,112.158 186,105.5C 186.383,104.944 186.883,104.611 187.5,104.5 Z"/></g>
<g><path style="opacity:0.078" fill="#b1b1b1" d="M 290.5,119.5 C 291.473,119.987 292.473,120.487 293.5,121C 294.053,122.878 295.053,124.378 296.5,125.5C 296.833,126.833 297.167,128.167 297.5,129.5C 294.395,126.725 292.062,123.392 290.5,119.5 Z"/></g>
<g><path style="opacity:0.063" fill="#b2b2b2" d="M 302.5,122.5 C 305.323,123.992 306.99,126.326 307.5,129.5C 304.647,128.167 302.981,125.834 302.5,122.5 Z"/></g>
<g><path style="opacity:0.212" fill="#acacac" d="M 76.5,124.5 C 76.0269,125.906 75.0269,126.573 73.5,126.5C 73.9731,125.094 74.9731,124.427 76.5,124.5 Z"/></g>
<g><path style="opacity:0.698" fill="#999999" d="M 246.5,123.5 C 248.564,123.687 250.564,124.187 252.5,125C 253.252,125.671 253.586,126.504 253.5,127.5C 250.576,127.102 248.242,125.769 246.5,123.5 Z"/></g>
<g><path style="opacity:0.184" fill="#ababab" d="M 242.5,125.5 C 245.747,126.412 248.08,128.412 249.5,131.5C 246.573,130.243 244.239,128.243 242.5,125.5 Z"/></g>
<g><path style="opacity:0.997" fill="#181818" d="M 246.5,123.5 C 248.242,125.769 250.576,127.102 253.5,127.5C 255.193,130.682 257.859,132.348 261.5,132.5C 262.478,135.478 264.478,137.478 267.5,138.5C 267.833,140.833 269.167,142.167 271.5,142.5C 271.427,144.027 272.094,145.027 273.5,145.5C 273.421,146.93 273.754,148.264 274.5,149.5C 276.216,150.549 277.549,151.882 278.5,153.5C 278.826,157.622 280.16,161.289 282.5,164.5C 282.5,171.833 282.5,179.167 282.5,186.5C 281.5,186.5 280.5,186.5 279.5,186.5C 279.975,183.918 279.308,181.918 277.5,180.5C 276.454,177.272 275.788,173.939 275.5,170.5C 275.697,166.738 274.364,163.738 271.5,161.5C 271.155,157.083 269.155,153.75 265.5,151.5C 265.5,151.167 265.5,150.833 265.5,150.5C 265.21,147.873 263.876,146.206 261.5,145.5C 260.872,142.91 259.705,140.577 258,138.5C 254.977,136.302 252.144,133.969 249.5,131.5C 248.08,128.412 245.747,126.412 242.5,125.5C 243.183,123.824 244.517,123.157 246.5,123.5 Z"/></g>
<g><path style="opacity:0.396" fill="#535353" d="M 296.5,125.5 C 298.25,126.659 299.25,128.326 299.5,130.5C 298.833,130.5 298.167,130.5 297.5,130.5C 297.5,130.167 297.5,129.833 297.5,129.5C 297.167,128.167 296.833,126.833 296.5,125.5 Z"/></g>
<g><path style="opacity:0.38" fill="#8a8a8a" d="M 253.5,127.5 C 256.005,127.98 258.338,128.98 260.5,130.5C 261.298,130.957 261.631,131.624 261.5,132.5C 257.859,132.348 255.193,130.682 253.5,127.5 Z"/></g>
<g><path style="opacity:0.314" fill="#959595" d="M 73.5,126.5 C 70.4063,131.022 67.073,135.356 63.5,139.5C 64.0488,137.099 64.8822,134.765 66,132.5C 68.7312,130.582 71.2312,128.582 73.5,126.5 Z"/></g>
<g><path style="opacity:0.125" fill="#b5b5b5" d="M 297.5,130.5 C 298.167,130.5 298.833,130.5 299.5,130.5C 300.942,131.82 301.608,133.486 301.5,135.5C 299.457,134.421 298.124,132.754 297.5,130.5 Z"/></g>
<g><path style="opacity:0.325" fill="#8e8e8e" d="M 92.5,122.5 C 87.667,125.944 82.667,129.444 77.5,133C 74.9174,136.068 72.5841,139.235 70.5,142.5C 69.7777,143.551 68.7777,144.218 67.5,144.5C 72.4096,133.256 80.7429,125.923 92.5,122.5 Z"/></g>
<g><path style="opacity:0.204" fill="#989898" d="M 249.5,131.5 C 252.144,133.969 254.977,136.302 258,138.5C 259.705,140.577 260.872,142.91 261.5,145.5C 257.132,141.133 253.132,136.467 249.5,131.5 Z"/></g>
<g><path style="opacity:0.38" fill="#959595" d="M 261.5,132.5 C 264.438,133.622 266.438,135.622 267.5,138.5C 264.478,137.478 262.478,135.478 261.5,132.5 Z"/></g>
<g><path style="opacity:0.451" fill="#a7a7a7" d="M 301.5,136.5 C 304.666,138.154 306.333,140.821 306.5,144.5C 304.05,142.371 302.383,139.704 301.5,136.5 Z"/></g>
<g><path style="opacity:0.078" fill="#959595" d="M 103.5,125.5 C 106.952,132.972 111.286,139.972 116.5,146.5C 109.495,142.135 105.162,135.801 103.5,127.5C 103.5,126.833 103.5,126.167 103.5,125.5 Z"/></g>
<g><path style="opacity:0.055" fill="#a3a3a3" d="M 267.5,138.5 C 269.773,138.957 271.106,140.29 271.5,142.5C 269.167,142.167 267.833,140.833 267.5,138.5 Z"/></g>
<g><path style="opacity:0.373" fill="#949494" d="M 308.5,132.5 C 309.376,132.369 310.043,132.702 310.5,133.5C 314.144,139.459 316.811,145.793 318.5,152.5C 317.371,151.53 316.371,150.364 315.5,149C 313.275,143.391 310.941,137.891 308.5,132.5 Z"/></g>
<g><path style="opacity:0.298" fill="#888888" d="M 185.5,125.5 C 186.167,125.5 186.833,125.5 187.5,125.5C 187.5,132.5 187.5,139.5 187.5,146.5C 186.833,146.5 186.167,146.5 185.5,146.5C 185.5,139.5 185.5,132.5 185.5,125.5 Z"/></g>
<g><path style="opacity:0.129" fill="#b4b4b4" d="M 271.5,142.5 C 272.906,142.973 273.573,143.973 273.5,145.5C 272.094,145.027 271.427,144.027 271.5,142.5 Z"/></g>
<g><path style="opacity:0.426" fill="#686868" d="M 63.5,139.5 C 62.1772,145.255 61.1772,151.088 60.5,157C 61.2967,163.876 62.2967,170.709 63.5,177.5C 62.4138,177.38 61.7472,176.713 61.5,175.5C 58.8472,163.993 58.8472,152.493 61.5,141C 61.8361,139.97 62.5028,139.47 63.5,139.5 Z"/></g>
<g><path style="opacity:0.075" fill="#c5c5c5" d="M 70.5,142.5 C 69.409,147 68.0757,151.334 66.5,155.5C 66.5524,151.802 66.8857,148.135 67.5,144.5C 68.7777,144.218 69.7777,143.551 70.5,142.5 Z"/></g>
<g><path style="opacity:0.624" fill="#7c7c7c" d="M 306.5,144.5 C 308.796,145.733 310.13,147.733 310.5,150.5C 309.833,150.5 309.167,150.5 308.5,150.5C 307.27,148.703 306.604,146.703 306.5,144.5 Z"/></g>
<g><path style="opacity:0.051" fill="#b3b3b3" d="M 261.5,145.5 C 263.876,146.206 265.21,147.873 265.5,150.5C 263.003,149.871 261.67,148.204 261.5,145.5 Z"/></g>
<g><path style="opacity:0.031" fill="#8d8d8d" d="M 95.5,124.5 C 98.2692,129.836 101.269,135.169 104.5,140.5C 107.947,145.09 111.614,149.423 115.5,153.5C 104.648,146.819 97.9811,137.152 95.5,124.5 Z"/></g>
<g><path style="opacity:0.239" fill="#9a9a9a" d="M 273.5,145.5 C 274.376,145.369 275.043,145.702 275.5,146.5C 277.02,148.662 278.02,150.995 278.5,153.5C 277.549,151.882 276.216,150.549 274.5,149.5C 273.754,148.264 273.421,146.93 273.5,145.5 Z"/></g>
<g><path style="opacity:0.016" fill="#d1d1d1" d="M 116.5,146.5 C 118.5,147.833 120.167,149.5 121.5,151.5C 118.833,150.833 117.167,149.167 116.5,146.5 Z"/></g>
<g><path style="opacity:0.008" fill="#dedede" d="M 308.5,150.5 C 309.167,150.5 309.833,150.5 310.5,150.5C 311.038,152.117 311.371,153.784 311.5,155.5C 310.11,154.101 309.11,152.434 308.5,150.5 Z"/></g>
<g><path style="opacity:0.039" fill="#a6a6a6" d="M 115.5,153.5 C 118.204,153.67 119.871,155.003 120.5,157.5C 117.796,157.33 116.129,155.997 115.5,153.5 Z"/></g>
<g><path style="opacity:0.09" fill="#c5c5c5" d="M 121.5,151.5 C 124.711,152.823 125.711,154.99 124.5,158C 122.934,158.765 121.601,158.598 120.5,157.5C 121.5,157.5 122.5,157.5 123.5,157.5C 123.296,155.315 122.63,153.315 121.5,151.5 Z"/></g>
<g><path style="opacity:0.269" fill="#959595" d="M 278.5,153.5 C 281.19,156.569 282.523,160.236 282.5,164.5C 280.16,161.289 278.826,157.622 278.5,153.5 Z"/></g>
<g><path style="opacity:0.118" fill="#a8a8a8" d="M 265.5,151.5 C 269.155,153.75 271.155,157.083 271.5,161.5C 269,158.506 267,155.173 265.5,151.5 Z"/></g>
<g><path style="opacity:0.336" fill="#868686" d="M 318.5,152.5 C 321.032,155.236 322.365,158.57 322.5,162.5C 322.5,162.833 322.5,163.167 322.5,163.5C 321.503,163.53 320.836,163.03 320.5,162C 319.434,158.906 318.768,155.74 318.5,152.5 Z"/></g>
<g><path style="opacity:0.442" fill="#434343" d="M 185.5,146.5 C 186.167,146.5 186.833,146.5 187.5,146.5C 188.123,153.255 187.456,159.588 185.5,165.5C 185.5,159.167 185.5,152.833 185.5,146.5 Z"/></g>
<g><path style="opacity:0.565" fill="#9c9c9c" d="M 271.5,161.5 C 274.364,163.738 275.697,166.738 275.5,170.5C 273.393,167.943 272.059,164.943 271.5,161.5 Z"/></g>
<g><path style="opacity:0.263" fill="#9b9b9b" d="M 128.5,167.5 C 128.5,167.167 128.5,166.833 128.5,166.5C 128.719,165.325 128.386,164.325 127.5,163.5C 125.69,165.531 123.69,167.198 121.5,168.5C 122.12,164.938 124.12,162.605 127.5,161.5C 129.5,161.5 130.5,162.5 130.5,164.5C 130.547,166.038 129.88,167.038 128.5,167.5 Z"/></g>
<g><path style="opacity:0.09" fill="#b8b8b8" d="M 66.5,159.5 C 68.1977,164.628 69.531,169.961 70.5,175.5C 68.9586,174.442 67.9586,172.942 67.5,171C 66.6898,167.208 66.3564,163.375 66.5,159.5 Z"/></g>
<g><path style="opacity:0.11" fill="#ababab" d="M 121.5,168.5 C 122.084,171.285 121.084,172.952 118.5,173.5C 119.36,171.712 120.36,170.045 121.5,168.5 Z"/></g>
<g><path style="opacity:0.118" fill="#c5c5c5" d="M 322.5,162.5 C 323.981,166.751 325.315,171.085 326.5,175.5C 325.833,175.5 325.167,175.5 324.5,175.5C 323.833,171.5 323.167,167.5 322.5,163.5C 322.5,163.167 322.5,162.833 322.5,162.5 Z"/></g>
<g><path style="opacity:0.025" fill="#f0f0f0" d="M 283.5,170.5 C 284.94,171.946 285.607,173.779 285.5,176C 285.693,178.008 285.026,179.508 283.5,180.5C 283.5,177.167 283.5,173.833 283.5,170.5 Z"/></g>
<g><path style="opacity:0.378" fill="#797979" d="M 311.5,155.5 C 312.75,155.577 313.583,156.244 314,157.5C 315.996,164.952 318.163,172.285 320.5,179.5C 319.833,179.5 319.167,179.5 318.5,179.5C 316.78,171.283 314.447,163.283 311.5,155.5 Z"/></g>
<g><path style="opacity:0.169" fill="#797979" d="M 128.5,166.5 C 128.5,166.833 128.5,167.167 128.5,167.5C 128.341,171.291 127.675,174.958 126.5,178.5C 125.833,178.5 125.167,178.5 124.5,178.5C 125.036,175.154 125.703,171.82 126.5,168.5C 126.747,167.287 127.414,166.62 128.5,166.5 Z"/></g>
<g><path style="opacity:0.039" fill="#cfcfcf" d="M 70.5,176.5 C 72.3264,178.147 73.6597,180.147 74.5,182.5C 73.8333,182.5 73.1667,182.5 72.5,182.5C 71.8333,180.5 71.1667,178.5 70.5,176.5 Z"/></g>
<g><path style="opacity:0.788" fill="#7c7c7c" d="M 63.5,177.5 C 66.8409,179.481 67.8409,182.148 66.5,185.5C 65.609,186.11 64.609,186.443 63.5,186.5C 63.5106,184.983 64.1772,183.816 65.5,183C 64.1387,181.416 63.472,179.582 63.5,177.5 Z"/></g>
<g><path style="opacity:0.369" fill="#6a6a6a" d="M 118.5,174.5 C 118.923,175.265 119.257,176.098 119.5,177C 119.294,179.73 118.294,181.897 116.5,183.5C 116.42,180.219 117.087,177.219 118.5,174.5 Z"/></g>
<g><path style="opacity:0.043" fill="#cecece" d="M 75.5,183.5 C 76.9063,183.973 77.573,184.973 77.5,186.5C 76.0937,186.027 75.427,185.027 75.5,183.5 Z"/></g>
<g><path style="opacity:0.337" fill="#858585" d="M 282.5,164.5 C 283.461,166.265 283.795,168.265 283.5,170.5C 283.5,173.833 283.5,177.167 283.5,180.5C 283.54,183.881 283.207,187.214 282.5,190.5C 281.167,190.5 279.833,190.5 278.5,190.5C 277.949,187.193 277.616,183.86 277.5,180.5C 279.308,181.918 279.975,183.918 279.5,186.5C 280.5,186.5 281.5,186.5 282.5,186.5C 282.5,179.167 282.5,171.833 282.5,164.5 Z"/></g>
<g><path style="opacity:0.031" fill="#c4c4c4" d="M 70.5,188.5 C 70.5,188.833 70.5,189.167 70.5,189.5C 69.7611,189.369 69.0944,189.536 68.5,190C 65.9688,193.358 63.3021,196.524 60.5,199.5C 61.7611,193.907 65.0945,190.241 70.5,188.5 Z"/></g>
<g><path style="opacity:0.306" fill="#828282" d="M 72.5,182.5 C 73.1667,182.5 73.8333,182.5 74.5,182.5C 75.1667,182.5 75.5,182.833 75.5,183.5C 75.427,185.027 76.0937,186.027 77.5,186.5C 80.5179,187.762 83.3512,189.429 86,191.5C 90.07,192.947 94.2367,193.947 98.5,194.5C 98.5,195.167 98.5,195.833 98.5,196.5C 94.9019,196.393 91.4019,195.726 88,194.5C 81.456,192.105 76.2894,188.105 72.5,182.5 Z"/></g>
<g><path style="opacity:0.239" fill="#9c9c9c" d="M 63.5,186.5 C 62.9272,189.407 61.2606,191.407 58.5,192.5C 58.7717,189.268 60.4384,187.268 63.5,186.5 Z"/></g>
<g><path style="opacity:0.031" fill="#c6c6c6" d="M 70.5,189.5 C 72.5,189.5 73.5,190.5 73.5,192.5C 71.5,192.5 70.5,191.5 70.5,189.5 Z"/></g>
<g><path style="opacity:0.157" fill="#a2a2a2" d="M 124.5,178.5 C 125.167,178.5 125.833,178.5 126.5,178.5C 126.062,186.629 126.728,194.629 128.5,202.5C 126.588,201.02 125.421,199.02 125,196.5C 124.501,190.509 124.334,184.509 124.5,178.5 Z"/></g>
<g><path style="opacity:0.075" fill="#c9c9c9" d="M 73.5,192.5 C 75.0269,192.427 76.0269,193.094 76.5,194.5C 74.9731,194.573 73.9731,193.906 73.5,192.5 Z"/></g>
<g><path style="opacity:0.482" fill="#6a6a6a" d="M 324.5,175.5 C 325.167,175.5 325.833,175.5 326.5,175.5C 329.141,189.864 329.141,204.197 326.5,218.5C 325.833,218.5 325.167,218.5 324.5,218.5C 327.131,204.18 327.131,189.846 324.5,175.5 Z"/></g>
<g><path style="opacity:0.088" fill="#cacaca" d="M 98.5,194.5 C 103.167,194.5 107.833,194.5 112.5,194.5C 108.285,196.436 103.619,197.103 98.5,196.5C 98.5,195.833 98.5,195.167 98.5,194.5 Z"/></g>
<g><path style="opacity:0.328" fill="#8a8a8a" d="M 185.5,171.5 C 186.663,236.096 186.829,300.763 186,365.5C 178.921,366.48 171.755,366.813 164.5,366.5C 164.5,365.833 164.5,365.167 164.5,364.5C 171.167,364.5 177.833,364.5 184.5,364.5C 184.168,299.998 184.501,235.665 185.5,171.5 Z"/></g>
<g><path style="opacity:0.165" fill="#9a9a9a" d="M 76.5,194.5 C 82.0779,196.137 87.4113,198.137 92.5,200.5C 86.4069,200.25 81.0736,198.25 76.5,194.5 Z"/></g>
<g><path style="opacity:0.082" fill="#bebebe" d="M 318.5,179.5 C 319.167,179.5 319.833,179.5 320.5,179.5C 321.717,189.985 321.717,200.318 320.5,210.5C 321.002,199.972 320.335,189.639 318.5,179.5 Z"/></g>
<g><path style="opacity:0.884" fill="#000000" d="M 799.5,198.5 C 806.91,198.149 813.91,199.649 820.5,203C 823.612,205.439 825.945,208.439 827.5,212C 827,215.167 825.167,217 822,217.5C 818.569,215.739 815.403,213.572 812.5,211C 807.125,209.125 801.791,209.125 796.5,211C 791.167,216 791.167,221 796.5,226C 804.919,229.807 813.253,233.807 821.5,238C 833.322,249.28 833.322,260.613 821.5,272C 809.819,277.96 798.152,277.96 786.5,272C 782.617,269.131 779.95,265.465 778.5,261C 779.634,255.627 782.634,254.294 787.5,257C 795.135,266.574 804.469,268.574 815.5,263C 818.671,259.15 819.504,254.983 818,250.5C 816.5,249 815,247.5 813.5,246C 804.873,242.571 796.54,238.571 788.5,234C 780.683,225.672 779.516,216.505 785,206.5C 789.134,202.354 793.968,199.687 799.5,198.5 Z"/></g>
<g><path style="opacity:0.887" fill="#000000" d="M 391.5,199.5 C 394.272,199.22 396.772,199.887 399,201.5C 407.667,212.167 416.333,222.833 425,233.5C 433.833,222.667 442.667,211.833 451.5,201C 454.46,198.948 457.293,199.114 460,201.5C 461.636,224.77 461.969,248.103 461,271.5C 459.309,275.213 456.475,276.379 452.5,275C 451.299,274.097 450.465,272.931 450,271.5C 449.667,254.5 449.333,237.5 449,220.5C 442.759,227.985 436.759,235.652 431,243.5C 429.093,247.01 426.26,248.176 422.5,247C 415,238.167 407.5,229.333 400,220.5C 399.667,238.167 399.333,255.833 399,273.5C 395.667,276.167 392.333,276.167 389,273.5C 388.333,249.833 388.333,226.167 389,202.5C 390.045,201.627 390.878,200.627 391.5,199.5 Z"/></g>
<g><path style="opacity:0.925" fill="#000000" d="M 481.5,199.5 C 497.503,199.333 513.503,199.5 529.5,200C 532.978,202.706 533.311,205.706 530.5,209C 516.837,209.5 503.171,209.667 489.5,209.5C 489.5,217.167 489.5,224.833 489.5,232.5C 500.172,232.333 510.839,232.5 521.5,233C 524.167,236 524.167,239 521.5,242C 510.839,242.5 500.172,242.667 489.5,242.5C 489.5,250.167 489.5,257.833 489.5,265.5C 502.837,265.333 516.171,265.5 529.5,266C 532.978,268.706 533.311,271.706 530.5,275C 513.593,275.825 496.759,275.658 480,274.5C 478.354,250.588 478.02,226.588 479,202.5C 480.045,201.627 480.878,200.627 481.5,199.5 Z"/></g>
<g><path style="opacity:0.904" fill="#000000" d="M 547.5,199.5 C 552.029,199.496 555.529,201.496 558,205.5C 571,221.833 584,238.167 597,254.5C 597.333,237.167 597.667,219.833 598,202.5C 600.838,198.965 604.005,198.632 607.5,201.5C 608.656,225.457 608.823,249.457 608,273.5C 606.758,274.872 605.258,275.872 603.5,276.5C 600.567,275.07 598.067,273.07 596,270.5C 582.667,253.833 569.333,237.167 556,220.5C 555.667,238.167 555.333,255.833 555,273.5C 551.667,276.167 548.333,276.167 545,273.5C 544.333,249.833 544.333,226.167 545,202.5C 546.045,201.627 546.878,200.627 547.5,199.5 Z"/></g>
<g><path style="opacity:0.896" fill="#000000" d="M 620.5,199.5 C 638.836,199.333 657.17,199.5 675.5,200C 678.978,202.706 679.311,205.706 676.5,209C 668.92,210.396 661.253,210.896 653.5,210.5C 653.667,231.503 653.5,252.503 653,273.5C 649.667,276.167 646.333,276.167 643,273.5C 642.5,252.503 642.333,231.503 642.5,210.5C 634.747,210.896 627.08,210.396 619.5,209C 616.908,205.583 617.241,202.416 620.5,199.5 Z"/></g>
<g><path style="opacity:0.925" fill="#000000" d="M 690.5,199.5 C 706.503,199.333 722.503,199.5 738.5,200C 741.978,202.706 742.311,205.706 739.5,209C 725.837,209.5 712.171,209.667 698.5,209.5C 698.5,217.167 698.5,224.833 698.5,232.5C 709.172,232.333 719.839,232.5 730.5,233C 733.167,236 733.167,239 730.5,242C 719.839,242.5 709.172,242.667 698.5,242.5C 698.5,250.167 698.5,257.833 698.5,265.5C 711.837,265.333 725.171,265.5 738.5,266C 741.978,268.706 742.311,271.706 739.5,275C 722.593,275.825 705.759,275.658 689,274.5C 687.354,250.588 687.02,226.588 688,202.5C 689.045,201.627 689.878,200.627 690.5,199.5 Z"/></g>
<g><path style="opacity:0.887" fill="#000000" d="M 847.5,199.5 C 850.272,199.22 852.772,199.887 855,201.5C 863.667,212.167 872.333,222.833 881,233.5C 889.833,222.667 898.667,211.833 907.5,201C 910.46,198.948 913.293,199.114 916,201.5C 917.636,224.77 917.969,248.103 917,271.5C 915.309,275.213 912.475,276.379 908.5,275C 907.299,274.097 906.465,272.931 906,271.5C 905.667,254.5 905.333,237.5 905,220.5C 898.759,227.985 892.759,235.652 887,243.5C 885.093,247.01 882.26,248.176 878.5,247C 871,238.167 863.5,229.333 856,220.5C 855.667,238.167 855.333,255.833 855,273.5C 851.667,276.167 848.333,276.167 845,273.5C 844.333,249.833 844.333,226.167 845,202.5C 846.045,201.627 846.878,200.627 847.5,199.5 Z"/></g>
<g><path style="opacity:0.897" fill="#000000" d="M 958.5,199.5 C 963.133,198.458 966.299,200.125 968,204.5C 977,225.833 986,247.167 995,268.5C 995.902,273.025 994.069,275.692 989.5,276.5C 987.742,275.872 986.242,274.872 985,273.5C 983.069,269.207 981.236,264.874 979.5,260.5C 967.5,259.167 955.5,259.167 943.5,260.5C 941.551,265.563 939.218,270.396 936.5,275C 930.07,277.219 927.237,275.053 928,268.5C 936.667,247.833 945.333,227.167 954,206.5C 955.012,203.798 956.512,201.465 958.5,199.5 Z M 960.5,216.5 C 962.136,217.749 963.303,219.416 964,221.5C 967.798,230.755 971.298,240.089 974.5,249.5C 965.494,249.666 956.494,249.5 947.5,249C 952.524,238.427 956.857,227.593 960.5,216.5 Z"/></g>
<g><path style="opacity:0.882" fill="#000000" d="M 1009.5,199.5 C 1018.84,199.334 1028.17,199.5 1037.5,200C 1056.61,205.039 1063.77,217.206 1059,236.5C 1056.89,242.272 1053.06,246.438 1047.5,249C 1052,255.5 1056.5,262 1061,268.5C 1061.58,275.125 1058.75,277.292 1052.5,275C 1047.04,267.923 1041.71,260.756 1036.5,253.5C 1030.2,252.504 1023.87,252.17 1017.5,252.5C 1017.92,259.615 1017.42,266.615 1016,273.5C 1011.88,276.592 1008.55,275.925 1006,271.5C 1005.33,249.167 1005.33,226.833 1006,204.5C 1006.26,202.093 1007.42,200.427 1009.5,199.5 Z M 1017.5,209.5 C 1022.51,209.334 1027.51,209.501 1032.5,210C 1046.5,212.004 1051.67,219.838 1048,233.5C 1046.24,236.473 1043.74,238.64 1040.5,240C 1032.92,241.396 1025.25,241.896 1017.5,241.5C 1017.5,230.833 1017.5,220.167 1017.5,209.5 Z"/></g>
<g><path style="opacity:0.86" fill="#000000" d="M 1069.5,199.5 C 1087.5,199.333 1105.5,199.5 1123.5,200C 1127.69,202.239 1128.36,205.239 1125.5,209C 1117.92,210.396 1110.25,210.896 1102.5,210.5C 1102.67,230.836 1102.5,251.169 1102,271.5C 1100.37,275.212 1097.54,276.379 1093.5,275C 1092.11,273.829 1091.27,272.329 1091,270.5C 1090.5,250.503 1090.33,230.503 1090.5,210.5C 1083.05,210.929 1075.72,210.429 1068.5,209C 1065.77,205.508 1066.1,202.342 1069.5,199.5 Z"/></g>
<g><path style="opacity:0.051" fill="#eaeaea" d="M 95.5,200.5 C 99.5,200.5 103.5,200.5 107.5,200.5C 107.389,201.117 107.056,201.617 106.5,202C 104.667,202.167 102.833,202.333 101,202.5C 98.7047,202.453 96.8714,201.787 95.5,200.5 Z"/></g>
<g><path style="opacity:0.147" fill="#9f9f9f" d="M 120.5,205.5 C 118.175,204.345 117.008,202.345 117,199.5C 114.281,200.444 111.448,200.777 108.5,200.5C 111.666,199.404 114.999,198.904 118.5,199C 119.669,201.007 120.335,203.173 120.5,205.5 Z"/></g>
<g><path style="opacity:0.153" fill="#b5b5b5" d="M 60.5,199.5 C 59.8891,202.721 58.7224,205.721 57,208.5C 56.5017,211.817 56.335,215.15 56.5,218.5C 55.1281,213.21 55.4614,207.877 57.5,202.5C 58.548,201.452 59.548,200.452 60.5,199.5 Z"/></g>
<g><path style="opacity:0.09" fill="#a9a9a9" d="M 128.5,202.5 C 130.822,203.802 132.155,205.802 132.5,208.5C 129.708,207.608 128.375,205.608 128.5,202.5 Z"/></g>
<g><path style="opacity:0.997" fill="#171717" d="M 66.5,185.5 C 66.369,186.239 66.5357,186.906 67,187.5C 68.7565,186.015 69.9232,186.348 70.5,188.5C 65.0945,190.241 61.7611,193.907 60.5,199.5C 59.548,200.452 58.548,201.452 57.5,202.5C 55.4614,207.877 55.1281,213.21 56.5,218.5C 56.5,219.167 56.5,219.833 56.5,220.5C 56.3398,222.199 56.5065,223.866 57,225.5C 57.4169,226.756 58.2502,227.423 59.5,227.5C 59.1201,229.698 59.7868,231.365 61.5,232.5C 62.9933,237.898 66.3266,241.565 71.5,243.5C 72.0283,244.721 72.695,245.887 73.5,247C 76.4318,248.145 79.4318,248.978 82.5,249.5C 84.099,249.232 85.4324,249.566 86.5,250.5C 86.7911,251.649 87.6244,252.316 89,252.5C 90.0698,252.472 90.9032,252.139 91.5,251.5C 92.1667,251.5 92.8333,251.5 93.5,251.5C 97.7147,253.436 102.381,254.103 107.5,253.5C 111.49,253.001 115.49,252.501 119.5,252C 121.437,251.878 122.77,251.045 123.5,249.5C 125.604,249.201 127.604,249.534 129.5,250.5C 126.978,251.303 124.978,252.636 123.5,254.5C 120.456,256.011 117.122,256.678 113.5,256.5C 111.833,256.5 110.167,256.5 108.5,256.5C 102.5,256.5 96.5,256.5 90.5,256.5C 89.1667,256.5 87.8333,256.5 86.5,256.5C 85.791,255.596 84.791,255.263 83.5,255.5C 83.3337,262.841 83.5003,270.174 84,277.5C 84.2491,280.392 85.4158,282.725 87.5,284.5C 91.2105,293.887 97.8772,300.387 107.5,304C 116.048,306.092 124.548,305.925 133,303.5C 134.364,302.629 135.53,301.629 136.5,300.5C 139.608,300.625 141.608,299.292 142.5,296.5C 146.363,295.306 149.363,292.973 151.5,289.5C 154.652,288.221 156.652,285.888 157.5,282.5C 159.755,280.469 161.088,277.802 161.5,274.5C 161.5,272.5 161.5,270.5 161.5,268.5C 162.5,268.5 163.5,268.5 164.5,268.5C 164.587,273.537 164.254,278.537 163.5,283.5C 162.122,284.545 161.122,285.878 160.5,287.5C 158.204,288.733 156.87,290.733 156.5,293.5C 151.059,298.952 145.393,303.952 139.5,308.5C 137.448,309.053 137.115,310.053 138.5,311.5C 139.468,313.607 139.802,315.941 139.5,318.5C 139.5,320.5 139.5,322.5 139.5,324.5C 139.5,325.833 139.5,327.167 139.5,328.5C 138.691,326.708 138.191,324.708 138,322.5C 137.305,333.936 137.805,345.269 139.5,356.5C 138.833,356.5 138.167,356.5 137.5,356.5C 136.514,352.03 136.181,347.363 136.5,342.5C 137.113,336.729 136.446,331.396 134.5,326.5C 134.5,325.167 134.5,323.833 134.5,322.5C 135.641,319.36 135.808,316.027 135,312.5C 133.708,311.209 132.542,311.209 131.5,312.5C 123.163,313.786 114.83,313.786 106.5,312.5C 106.167,312.5 105.833,312.5 105.5,312.5C 102.331,309.746 98.6645,307.746 94.5,306.5C 93.8707,304.003 92.204,302.67 89.5,302.5C 89.2876,299.288 87.6209,297.288 84.5,296.5C 84.9118,294.027 83.9118,292.694 81.5,292.5C 81.405,290.214 80.7384,288.214 79.5,286.5C 79.0852,279.76 78.4186,273.094 77.5,266.5C 77.5,265.833 77.5,265.167 77.5,264.5C 79.256,263.448 79.9227,261.781 79.5,259.5C 79.5,259.167 79.5,258.833 79.5,258.5C 80.4345,257.432 80.7678,256.099 80.5,254.5C 79.5,254.5 78.5,254.5 77.5,254.5C 73.6623,251.659 69.6623,248.826 65.5,246C 61.2539,240.933 57.2539,235.767 53.5,230.5C 50.6703,220.45 50.837,210.45 54,200.5C 56.2841,198.264 57.7841,195.598 58.5,192.5C 61.2606,191.407 62.9272,189.407 63.5,186.5C 64.609,186.443 65.609,186.11 66.5,185.5 Z"/></g>
<g><path style="opacity:0.102" fill="#bfbfbf" d="M 132.5,208.5 C 134.5,209.833 136.167,211.5 137.5,213.5C 134.736,213.001 133.069,211.335 132.5,208.5 Z"/></g>
<g><path style="opacity:0.09" fill="#999999" d="M 120.5,205.5 C 123.516,208.52 126.183,211.854 128.5,215.5C 123.988,213.653 121.321,210.32 120.5,205.5 Z"/></g>
<g><path style="opacity:0.376" fill="#b8b8b8" d="M 137.5,213.5 C 142.018,215.895 142.518,218.895 139,222.5C 138.283,221.956 137.783,221.289 137.5,220.5C 138.497,220.53 139.164,220.03 139.5,219C 138.68,217.2 138.014,215.366 137.5,213.5 Z"/></g>
<g><path style="opacity:0.094" fill="#a8a8a8" d="M 128.5,215.5 C 130.632,215.554 131.965,216.554 132.5,218.5C 130.368,218.446 129.035,217.446 128.5,215.5 Z"/></g>
<g><path style="opacity:0.451" fill="#858585" d="M 58.5,192.5 C 57.7841,195.598 56.2841,198.264 54,200.5C 50.837,210.45 50.6703,220.45 53.5,230.5C 52.5028,230.53 51.8361,230.03 51.5,229C 47.7295,216.434 49.2295,204.601 56,193.5C 56.6708,192.748 57.5041,192.414 58.5,192.5 Z"/></g>
<g><path style="opacity:0.008" fill="#dcdcdc" d="M 132.5,218.5 C 134.153,218.66 135.486,219.326 136.5,220.5C 134.62,220.771 133.287,220.104 132.5,218.5 Z"/></g>
<g><path style="opacity:0.527" fill="#727272" d="M 191.5,130.5 C 192.167,130.5 192.833,130.5 193.5,130.5C 194.773,209.663 194.773,288.663 193.5,367.5C 192.833,367.5 192.167,367.5 191.5,367.5C 192.709,288.567 192.709,209.567 191.5,130.5 Z"/></g>
<g><path style="opacity:0.337" fill="#7f7f7f" d="M 320.5,211.5 C 320.529,220.363 318.529,228.696 314.5,236.5C 314.043,237.298 313.376,237.631 312.5,237.5C 315.749,229.507 317.915,221.174 319,212.5C 319.383,211.944 319.883,211.611 320.5,211.5 Z"/></g>
<g><path style="opacity:0.027" fill="#cdcdcd" d="M 324.5,218.5 C 325.167,218.5 325.833,218.5 326.5,218.5C 326.855,222.077 325.855,225.077 323.5,227.5C 323.963,224.518 324.296,221.518 324.5,218.5 Z"/></g>
<g><path style="opacity:0.994" fill="#151515" d="M 278.5,237.5 C 274.822,242.506 270.822,247.173 266.5,251.5C 265.325,251.719 264.325,251.386 263.5,250.5C 265.038,248.757 266.038,246.757 266.5,244.5C 269.292,243.608 270.625,241.608 270.5,238.5C 271.496,238.586 272.329,238.252 273,237.5C 274.145,234.568 274.978,231.568 275.5,228.5C 276.376,228.631 277.043,228.298 277.5,227.5C 278.236,225.459 279.069,223.459 280,221.5C 280.225,226.883 279.725,232.217 278.5,237.5 Z"/></g>
<g><path style="opacity:0.063" fill="#aeaeae" d="M 56.5,220.5 C 58.4484,222.32 59.4484,224.654 59.5,227.5C 58.2502,227.423 57.4169,226.756 57,225.5C 56.5065,223.866 56.3398,222.199 56.5,220.5 Z"/></g>
<g><path style="opacity:0.463" fill="#7c7c7c" d="M 278.5,237.5 C 279.725,232.217 280.225,226.883 280,221.5C 279.069,223.459 278.236,225.459 277.5,227.5C 277.043,228.298 276.376,228.631 275.5,228.5C 276.199,225.427 277.199,222.427 278.5,219.5C 279.689,218.571 281.022,218.238 282.5,218.5C 282.851,224.46 282.184,230.293 280.5,236C 280.164,237.03 279.497,237.53 278.5,237.5 Z"/></g>
<g><path style="opacity:0.341" fill="#a6a6a6" d="M 59.5,227.5 C 60.9313,228.78 61.5979,230.447 61.5,232.5C 59.7868,231.365 59.1201,229.698 59.5,227.5 Z"/></g>
<g><path style="opacity:0.498" fill="#989898" d="M 53.5,230.5 C 57.2539,235.767 61.2539,240.933 65.5,246C 69.6623,248.826 73.6623,251.659 77.5,254.5C 65.4114,250.48 57.4114,242.48 53.5,230.5 Z"/></g>
<g><path style="opacity:0.278" fill="#929292" d="M 61.5,232.5 C 64.8333,236.167 68.1667,239.833 71.5,243.5C 66.3266,241.565 62.9933,237.898 61.5,232.5 Z"/></g>
<g><path style="opacity:0.561" fill="#767676" d="M 275.5,228.5 C 274.978,231.568 274.145,234.568 273,237.5C 272.329,238.252 271.496,238.586 270.5,238.5C 271.421,234.701 273.088,231.368 275.5,228.5 Z"/></g>
<g><path style="opacity:0.055" fill="#b5b5b5" d="M 322.5,232.5 C 322.308,236.102 320.974,239.102 318.5,241.5C 318.303,237.738 319.636,234.738 322.5,232.5 Z"/></g>
<g><path style="opacity:0.196" fill="#9c9c9c" d="M 270.5,238.5 C 270.625,241.608 269.292,243.608 266.5,244.5C 266.845,241.802 268.178,239.802 270.5,238.5 Z"/></g>
<g><path style="opacity:0.063" fill="#959595" d="M 278.5,237.5 C 277.669,242.833 275.003,246.999 270.5,250C 269.255,250.791 267.922,251.291 266.5,251.5C 270.822,247.173 274.822,242.506 278.5,237.5 Z"/></g>
<g><path style="opacity:0.482" fill="#979797" d="M 71.5,243.5 C 75.6553,244.742 79.322,246.742 82.5,249.5C 79.4318,248.978 76.4318,248.145 73.5,247C 72.695,245.887 72.0283,244.721 71.5,243.5 Z"/></g>
<g><path style="opacity:0.036" fill="#e1e1e1" d="M 131.5,248.5 C 130.167,248.5 128.833,248.5 127.5,248.5C 127.62,247.414 128.287,246.747 129.5,246.5C 130.713,246.747 131.38,247.414 131.5,248.5 Z"/></g>
<g><path style="opacity:0.541" fill="#919191" d="M 312.5,237.5 C 311.881,243.385 309.547,248.385 305.5,252.5C 307.067,247.039 309.4,242.039 312.5,237.5 Z"/></g>
<g><path style="opacity:0.227" fill="#b3b3b3" d="M 266.5,244.5 C 266.038,246.757 265.038,248.757 263.5,250.5C 264.325,251.386 265.325,251.719 266.5,251.5C 264.58,252.94 262.913,252.607 261.5,250.5C 262.467,247.871 264.133,245.871 266.5,244.5 Z"/></g>
<g><path style="opacity:0.227" fill="#888888" d="M 86.5,250.5 C 88.4147,250.216 90.0813,250.549 91.5,251.5C 90.9032,252.139 90.0698,252.472 89,252.5C 87.6244,252.316 86.7911,251.649 86.5,250.5 Z"/></g>
<g><path style="opacity:0.176" fill="#9f9f9f" d="M 93.5,251.5 C 98.1667,251.5 102.833,251.5 107.5,251.5C 107.5,252.167 107.5,252.833 107.5,253.5C 102.381,254.103 97.7147,253.436 93.5,251.5 Z"/></g>
<g><path style="opacity:0.323" fill="#737373" d="M 123.5,249.5 C 122.77,251.045 121.437,251.878 119.5,252C 115.49,252.501 111.49,253.001 107.5,253.5C 107.5,252.833 107.5,252.167 107.5,251.5C 112.82,250.74 118.153,250.073 123.5,249.5 Z"/></g>
<g><path style="opacity:0.124" fill="#949494" d="M 123.5,249.5 C 124.568,248.566 125.901,248.232 127.5,248.5C 128.833,248.5 130.167,248.5 131.5,248.5C 132.799,250.153 132.466,251.653 130.5,253C 128.26,253.977 125.927,254.477 123.5,254.5C 124.978,252.636 126.978,251.303 129.5,250.5C 127.604,249.534 125.604,249.201 123.5,249.5 Z"/></g>
<g><path style="opacity:0.022" fill="#d3d3d3" d="M 77.5,254.5 C 78.5,254.5 79.5,254.5 80.5,254.5C 80.7678,256.099 80.4345,257.432 79.5,258.5C 79.4729,256.801 78.8062,255.467 77.5,254.5 Z"/></g>
<g><path style="opacity:0.055" fill="#c8c8c8" d="M 313.5,251.5 C 313.598,253.553 312.931,255.22 311.5,256.5C 311.402,254.447 312.069,252.78 313.5,251.5 Z"/></g>
<g><path style="opacity:0.278" fill="#5d5d5d" d="M 197.5,222.5 C 198.167,222.5 198.833,222.5 199.5,222.5C 199.5,236.5 199.5,250.5 199.5,264.5C 199.5,265.167 199.5,265.833 199.5,266.5C 198.833,266.5 198.167,266.5 197.5,266.5C 197.5,251.833 197.5,237.167 197.5,222.5 Z"/></g>
<g><path style="opacity:0.096" fill="#d2d2d2" d="M 85.5,257.5 C 85.5,256.833 85.8333,256.5 86.5,256.5C 87.8333,256.5 89.1667,256.5 90.5,256.5C 90.5,257.167 90.5,257.833 90.5,258.5C 88.7839,258.371 87.1172,258.038 85.5,257.5 Z"/></g>
<g><path style="opacity:0.633" fill="#686868" d="M 90.5,256.5 C 96.5,256.5 102.5,256.5 108.5,256.5C 108.5,257.167 108.5,257.833 108.5,258.5C 106.5,258.5 104.5,258.5 102.5,258.5C 100.833,257.167 99.1667,257.167 97.5,258.5C 95.1667,258.5 92.8333,258.5 90.5,258.5C 90.5,257.833 90.5,257.167 90.5,256.5 Z"/></g>
<g><path style="opacity:0.037" fill="#e6e6e6" d="M 108.5,256.5 C 110.167,256.5 111.833,256.5 113.5,256.5C 112.22,257.931 110.553,258.598 108.5,258.5C 108.5,257.833 108.5,257.167 108.5,256.5 Z"/></g>
<g><path style="opacity:0.005" fill="#e2e2e2" d="M 102.5,258.5 C 100.833,259.833 99.1667,259.833 97.5,258.5C 99.1667,257.167 100.833,257.167 102.5,258.5 Z"/></g>
<g><path style="opacity:0.608" fill="#717171" d="M 305.5,252.5 C 305.306,256.248 303.639,258.915 300.5,260.5C 301.195,257.085 302.862,254.418 305.5,252.5 Z"/></g>
<g><path style="opacity:0.427" fill="#818181" d="M 318.5,241.5 C 317.958,245.498 316.291,248.832 313.5,251.5C 312.069,252.78 311.402,254.447 311.5,256.5C 309.533,260.804 306.867,264.471 303.5,267.5C 306.06,261.751 308.893,256.085 312,250.5C 313.722,247.133 315.889,244.133 318.5,241.5 Z"/></g>
<g><path style="opacity:0.206" fill="#ababab" d="M 79.5,259.5 C 79.9227,261.781 79.256,263.448 77.5,264.5C 77.1201,262.302 77.7868,260.635 79.5,259.5 Z"/></g>
<g><path style="opacity:0.624" fill="#777777" d="M 300.5,260.5 C 300.536,264.108 298.869,266.441 295.5,267.5C 296.511,265.628 297.345,263.628 298,261.5C 298.671,260.748 299.504,260.414 300.5,260.5 Z"/></g>
<g><path style="opacity:0.075" fill="#b5b5b5" d="M 303.5,267.5 C 303.34,269.153 302.674,270.486 301.5,271.5C 301.229,269.62 301.896,268.287 303.5,267.5 Z"/></g>
<g><path style="opacity:0.108" fill="#dadada" d="M 161.5,268.5 C 161.5,270.5 161.5,272.5 161.5,274.5C 160.833,274.5 160.167,274.5 159.5,274.5C 159.025,271.918 159.692,269.918 161.5,268.5 Z"/></g>
<g><path style="opacity:0.827" fill="#252525" d="M 199.5,264.5 C 200.231,298.007 201.064,331.674 202,365.5C 202.41,366.901 202.91,368.234 203.5,369.5C 202.833,369.5 202.167,369.5 201.5,369.5C 201.013,368.527 200.513,367.527 200,366.5C 199.501,360.509 199.334,354.509 199.5,348.5C 199.5,331.833 199.5,315.167 199.5,298.5C 199.5,287.833 199.5,277.167 199.5,266.5C 199.5,265.833 199.5,265.167 199.5,264.5 Z"/></g>
<g><path style="opacity:0.116" fill="#b5b5b5" d="M 301.5,271.5 C 300.136,273.191 298.803,274.858 297.5,276.5C 297.369,273.633 298.703,271.967 301.5,271.5 Z"/></g>
<g><path style="opacity:0.616" fill="#818181" d="M 295.5,267.5 C 295.019,270.834 293.353,273.167 290.5,274.5C 291.069,271.281 292.736,268.948 295.5,267.5 Z"/></g>
<g><path style="opacity:0.208" fill="#aeaeae" d="M 77.5,266.5 C 78.4186,273.094 79.0852,279.76 79.5,286.5C 78.8826,286.389 78.3826,286.056 78,285.5C 76.4561,279.038 76.2895,272.705 77.5,266.5 Z"/></g>
<g><path style="opacity:0.169" fill="#b5b5b5" d="M 163.5,283.5 C 164.254,278.537 164.587,273.537 164.5,268.5C 163.5,268.5 162.5,268.5 161.5,268.5C 161.5,267.5 161.5,266.5 161.5,265.5C 162.822,265.33 163.989,265.663 165,266.5C 165.667,271.167 165.667,275.833 165,280.5C 164.768,281.737 164.268,282.737 163.5,283.5 Z"/></g>
<g><path style="opacity:0.232" fill="#838383" d="M 197.5,266.5 C 198.167,266.5 198.833,266.5 199.5,266.5C 199.5,277.167 199.5,287.833 199.5,298.5C 198.833,298.5 198.167,298.5 197.5,298.5C 197.5,287.833 197.5,277.167 197.5,266.5 Z"/></g>
<g><path style="opacity:0.341" fill="#8b8b8b" d="M 290.5,274.5 C 290.223,277.683 288.556,279.683 285.5,280.5C 285.772,277.268 287.438,275.268 290.5,274.5 Z"/></g>
<g><path style="opacity:0.147" fill="#989898" d="M 297.5,276.5 C 295.132,280.528 292.132,283.861 288.5,286.5C 290.152,281.853 293.152,278.52 297.5,276.5 Z"/></g>
<g><path style="opacity:0.357" fill="#898989" d="M 86.5,256.5 C 85.8333,256.5 85.5,256.833 85.5,257.5C 85.1188,266.6 85.7855,275.6 87.5,284.5C 85.4158,282.725 84.2491,280.392 84,277.5C 83.5003,270.174 83.3337,262.841 83.5,255.5C 84.791,255.263 85.791,255.596 86.5,256.5 Z"/></g>
<g><path style="opacity:0.875" fill="#585858" d="M 159.5,274.5 C 160.167,274.5 160.833,274.5 161.5,274.5C 161.088,277.802 159.755,280.469 157.5,282.5C 157.5,281.833 157.5,281.167 157.5,280.5C 157.971,278.421 158.637,276.421 159.5,274.5 Z"/></g>
<g><path style="opacity:0.369" fill="#909090" d="M 157.5,280.5 C 157.5,281.167 157.5,281.833 157.5,282.5C 156.652,285.888 154.652,288.221 151.5,289.5C 152.759,285.975 154.759,282.975 157.5,280.5 Z"/></g>
<g><path style="opacity:0.063" fill="#999999" d="M 87.5,284.5 C 99.3151,302.549 115.648,307.882 136.5,300.5C 135.53,301.629 134.364,302.629 133,303.5C 124.548,305.925 116.048,306.092 107.5,304C 97.8772,300.387 91.2105,293.887 87.5,284.5 Z"/></g>
<g><path style="opacity:0.033" fill="#bcbcbc" d="M 163.5,283.5 C 163.072,287.244 161.405,290.244 158.5,292.5C 158.893,290.716 159.559,289.05 160.5,287.5C 161.122,285.878 162.122,284.545 163.5,283.5 Z"/></g>
<g><path style="opacity:0.408" fill="#8d8d8d" d="M 285.5,280.5 C 285.649,281.552 285.483,282.552 285,283.5C 277.274,292.993 269.108,301.993 260.5,310.5C 260.351,309.448 260.517,308.448 261,307.5C 268.402,298.494 275.902,289.66 283.5,281C 284.094,280.536 284.761,280.369 285.5,280.5 Z"/></g>
<g><path style="opacity:0.004" fill="#d3d3d3" d="M 79.5,286.5 C 80.7384,288.214 81.405,290.214 81.5,292.5C 79.9261,290.898 79.2594,288.898 79.5,286.5 Z"/></g>
<g><path style="opacity:0.278" fill="#565656" d="M 160.5,287.5 C 159.559,289.05 158.893,290.716 158.5,292.5C 158.5,293.167 158.167,293.5 157.5,293.5C 157.167,293.5 156.833,293.5 156.5,293.5C 156.87,290.733 158.204,288.733 160.5,287.5 Z"/></g>
<g><path style="opacity:0.227" fill="#a9a9a9" d="M 151.5,289.5 C 149.363,292.973 146.363,295.306 142.5,296.5C 145.208,293.791 148.208,291.458 151.5,289.5 Z"/></g>
<g><path style="opacity:0.024" fill="#a5a5a5" d="M 81.5,292.5 C 83.9118,292.694 84.9118,294.027 84.5,296.5C 82.5544,295.965 81.5544,294.632 81.5,292.5 Z"/></g>
<g><path style="opacity:0.141" fill="#999999" d="M 288.5,286.5 C 288.291,287.922 287.791,289.255 287,290.5C 283.324,294.009 279.824,297.676 276.5,301.5C 276.351,300.448 276.517,299.448 277,298.5C 279.715,293.382 283.548,289.382 288.5,286.5 Z"/></g>
<g><path style="opacity:0.306" fill="#929292" d="M 156.5,293.5 C 156.833,293.5 157.167,293.5 157.5,293.5C 157.649,294.552 157.483,295.552 157,296.5C 153.85,299.979 150.35,303.146 146.5,306C 144.35,307.411 142.016,308.245 139.5,308.5C 145.393,303.952 151.059,298.952 156.5,293.5 Z"/></g>
<g><path style="opacity:0.131" fill="#9a9a9a" d="M 142.5,296.5 C 141.608,299.292 139.608,300.625 136.5,300.5C 137.802,298.178 139.802,296.845 142.5,296.5 Z"/></g>
<g><path style="opacity:0.288" fill="#6e6e6e" d="M 224.5,80.5 C 218.839,80.0932 213.172,79.7599 207.5,79.5C 206.385,175.205 206.385,270.872 207.5,366.5C 206.504,366.586 205.671,366.252 205,365.5C 204.134,269.828 204.467,174.161 206,78.5C 212.494,76.8826 218.661,77.5492 224.5,80.5 Z"/></g>
<g><path style="opacity:0.263" fill="#8a8a8a" d="M 84.5,296.5 C 87.6209,297.288 89.2876,299.288 89.5,302.5C 86.4384,301.732 84.7717,299.732 84.5,296.5 Z"/></g>
<g><path style="opacity:0.061" fill="#bebebe" d="M 276.5,301.5 C 276.027,302.906 275.027,303.573 273.5,303.5C 273.821,301.952 274.821,301.285 276.5,301.5 Z"/></g>
<g><path style="opacity:0.161" fill="#989898" d="M 89.5,302.5 C 92.204,302.67 93.8707,304.003 94.5,306.5C 91.656,306.657 89.9893,305.324 89.5,302.5 Z"/></g>
<g><path style="opacity:0.29" fill="#9e9e9e" d="M 273.5,303.5 C 272.647,307.02 270.647,309.687 267.5,311.5C 268.069,307.671 270.069,305.004 273.5,303.5 Z"/></g>
<g><path style="opacity:0.131" fill="#bebebe" d="M 197.5,298.5 C 198.167,298.5 198.833,298.5 199.5,298.5C 199.5,315.167 199.5,331.833 199.5,348.5C 198.71,347.391 198.21,346.058 198,344.5C 197.5,329.17 197.333,313.837 197.5,298.5 Z"/></g>
<g><path style="opacity:0.333" fill="#a5a5a5" d="M 94.5,306.5 C 98.6645,307.746 102.331,309.746 105.5,312.5C 100.955,311.995 97.2885,309.995 94.5,306.5 Z"/></g>
<g><path style="opacity:0.153" fill="#b1b1b1" d="M 139.5,308.5 C 139.443,309.609 139.11,310.609 138.5,311.5C 137.115,310.053 137.448,309.053 139.5,308.5 Z"/></g>
<g><path style="opacity:0.056" fill="#d7d7d7" d="M 106.5,312.5 C 114.83,313.786 123.163,313.786 131.5,312.5C 123.157,316.446 114.824,316.446 106.5,312.5 Z"/></g>
<g><path style="opacity:0.067" fill="#b0b0b0" d="M 267.5,311.5 C 267.155,314.198 265.822,316.198 263.5,317.5C 263.5,316.833 263.5,316.167 263.5,315.5C 264.167,313.5 265.5,312.167 267.5,311.5 Z"/></g>
<g><path style="opacity:0.506" fill="#7a7a7a" d="M 260.5,310.5 C 259.626,314.578 257.959,318.245 255.5,321.5C 255.439,317.951 256.273,314.618 258,311.5C 258.671,310.748 259.504,310.414 260.5,310.5 Z"/></g>
<g><path style="opacity:0.11" fill="#bababa" d="M 131.5,312.5 C 132.542,311.209 133.708,311.209 135,312.5C 135.808,316.027 135.641,319.36 134.5,322.5C 134.119,318.881 133.119,315.548 131.5,312.5 Z"/></g>
<g><path style="opacity:0.098" fill="#d7d7d7" d="M 139.5,318.5 C 141.28,319.99 141.946,321.99 141.5,324.5C 140.833,324.5 140.167,324.5 139.5,324.5C 139.5,322.5 139.5,320.5 139.5,318.5 Z"/></g>
<g><path style="opacity:0.239" fill="#797979" d="M 139.5,324.5 C 140.167,324.5 140.833,324.5 141.5,324.5C 142.314,329.119 142.647,333.786 142.5,338.5C 141.833,337.833 141.167,337.167 140.5,336.5C 140.721,333.721 140.388,331.054 139.5,328.5C 139.5,327.167 139.5,325.833 139.5,324.5 Z"/></g>
<g><path style="opacity:0.135" fill="#c0c0c0" d="M 255.5,323.5 C 255.5,325.5 255.5,327.5 255.5,329.5C 254.833,329.5 254.167,329.5 253.5,329.5C 253.595,327.214 254.262,325.214 255.5,323.5 Z"/></g>
<g><path style="opacity:0.263" fill="#7b7b7b" d="M 263.5,315.5 C 263.5,316.167 263.5,316.833 263.5,317.5C 262.237,324.129 261.237,330.796 260.5,337.5C 259.833,337.5 259.167,337.5 258.5,337.5C 258.999,332.508 259.499,327.508 260,322.5C 260.139,319.555 261.306,317.221 263.5,315.5 Z"/></g>
<g><path style="opacity:0.28" fill="#656565" d="M 253.5,329.5 C 254.167,329.5 254.833,329.5 255.5,329.5C 255.843,331.483 255.176,332.817 253.5,333.5C 253.5,332.167 253.5,330.833 253.5,329.5 Z"/></g>
<g><path style="opacity:0.088" fill="#bdbdbd" d="M 134.5,326.5 C 136.446,331.396 137.113,336.729 136.5,342.5C 135.194,337.384 134.527,332.051 134.5,326.5 Z"/></g>
<g><path style="opacity:0.306" fill="#b8b8b8" d="M 253.5,335.5 C 254.461,337.265 254.795,339.265 254.5,341.5C 253.833,341.5 253.167,341.5 252.5,341.5C 252.205,339.265 252.539,337.265 253.5,335.5 Z"/></g>
<g><path style="opacity:0.037" fill="#c5c5c5" d="M 258.5,337.5 C 259.167,337.5 259.833,337.5 260.5,337.5C 259.639,345.634 257.806,353.634 255,361.5C 254.292,362.381 253.458,363.047 252.5,363.5C 253.503,359.327 255.003,355.327 257,351.5C 257.994,346.882 258.494,342.215 258.5,337.5 Z"/></g>
<g><path style="opacity:0.816" fill="#656565" d="M 252.5,341.5 C 253.167,341.5 253.833,341.5 254.5,341.5C 254.41,343.696 254.077,345.863 253.5,348C 253.316,349.376 252.649,350.209 251.5,350.5C 251.508,347.455 251.841,344.455 252.5,341.5 Z"/></g>
<g><path style="opacity:0.599" fill="#646464" d="M 140.5,336.5 C 141.167,337.167 141.833,337.833 142.5,338.5C 143.485,342.634 143.818,346.968 143.5,351.5C 143.5,352.833 143.5,354.167 143.5,355.5C 142.732,354.737 142.232,353.737 142,352.5C 141.609,347.146 141.109,341.812 140.5,336.5 Z"/></g>
<g><path style="opacity:0.322" fill="#b5b5b5" d="M 251.5,350.5 C 251.741,352.898 251.074,354.898 249.5,356.5C 249.595,354.214 250.262,352.214 251.5,350.5 Z"/></g>
<g><path style="opacity:0.071" fill="#989898" d="M 143.5,351.5 C 146.142,356.142 149.808,359.808 154.5,362.5C 153.041,362.567 151.708,362.234 150.5,361.5C 146.933,360.932 144.599,358.932 143.5,355.5C 143.5,354.167 143.5,352.833 143.5,351.5 Z"/></g>
<g><path style="opacity:0.127" fill="#979797" d="M 137.5,356.5 C 138.167,356.5 138.833,356.5 139.5,356.5C 140.051,359.267 141.384,361.6 143.5,363.5C 146.662,365.055 149.328,367.055 151.5,369.5C 144.257,367.888 139.591,363.555 137.5,356.5 Z"/></g>
<g><path style="opacity:0.506" fill="#808080" d="M 249.5,356.5 C 249.029,360.503 247.029,363.669 243.5,366C 242.207,366.49 240.873,366.657 239.5,366.5C 243.14,363.527 246.473,360.194 249.5,356.5 Z"/></g>
<g><path style="opacity:0.216" fill="#9e9e9e" d="M 252.5,363.5 C 252.5,366.833 250.833,368.5 247.5,368.5C 248.189,365.811 249.856,364.144 252.5,363.5 Z"/></g>
<g><path style="opacity:0.714" fill="#666666" d="M 150.5,361.5 C 151.708,362.234 153.041,362.567 154.5,362.5C 157.939,362.788 161.272,363.454 164.5,364.5C 164.5,365.167 164.5,365.833 164.5,366.5C 160.259,365.875 156.092,364.875 152,363.5C 150.97,363.164 150.47,362.497 150.5,361.5 Z"/></g>
<g><path style="opacity:0.016" fill="#afafaf" d="M 191.5,367.5 C 192.167,367.5 192.833,367.5 193.5,367.5C 192.388,370.946 190.055,372.946 186.5,373.5C 186.5,372.833 186.5,372.167 186.5,371.5C 189.204,371.33 190.871,369.997 191.5,367.5 Z"/></g>
<g><path style="opacity:0.454" fill="#6d6d6d" d="M 207.5,366.5 C 218.167,367.833 228.833,367.833 239.5,366.5C 238.77,368.045 237.437,368.878 235.5,369C 227.5,369.667 219.5,369.667 211.5,369C 209.563,368.878 208.23,368.045 207.5,366.5 Z"/></g>
<g><path style="opacity:0.353" fill="#787878" d="M 201.5,369.5 C 202.167,369.5 202.833,369.5 203.5,369.5C 205.743,371.118 208.077,372.451 210.5,373.5C 206.591,373.864 203.591,372.53 201.5,369.5 Z"/></g>
<g><path style="opacity:0.012" fill="#d3d3d3" d="M 247.5,368.5 C 246.952,370.532 245.619,371.532 243.5,371.5C 244.035,369.554 245.368,368.554 247.5,368.5 Z"/></g>
<g><path style="opacity:0.21" fill="#a6a6a6" d="M 151.5,369.5 C 156.463,370.426 161.463,371.092 166.5,371.5C 166.833,372.167 167.167,372.833 167.5,373.5C 161.595,373.793 156.262,372.46 151.5,369.5 Z"/></g>
<g><path style="opacity:0.305" fill="#818181" d="M 166.5,371.5 C 173.197,372.798 179.864,372.798 186.5,371.5C 186.5,372.167 186.5,372.833 186.5,373.5C 180.167,374.833 173.833,374.833 167.5,373.5C 167.167,372.833 166.833,372.167 166.5,371.5 Z"/></g>
<g><path style="opacity:0.581" fill="#434343" d="M 240.5,378.5 C 209.79,378.182 179.123,378.515 148.5,379.5C 148.611,378.883 148.944,378.383 149.5,378C 180.003,377.169 210.336,377.336 240.5,378.5 Z"/></g>
<g><path style="opacity:1" fill="#010101" d="M 240.5,378.5 C 240.833,378.5 241.167,378.5 241.5,378.5C 241.5,380.5 242.5,381.5 244.5,381.5C 244.5,381.833 244.5,382.167 244.5,382.5C 243.542,384.302 242.875,386.302 242.5,388.5C 212.53,389.643 182.53,389.81 152.5,389C 151.234,388.691 150.067,388.191 149,387.5C 148.503,384.854 148.336,382.187 148.5,379.5C 179.123,378.515 209.79,378.182 240.5,378.5 Z"/></g>
<g><path style="opacity:0.175" fill="#989898" d="M 241.5,378.5 C 242.833,379.167 243.833,380.167 244.5,381.5C 242.5,381.5 241.5,380.5 241.5,378.5 Z"/></g>
<g><path style="opacity:0.169" fill="#a4a4a4" d="M 244.5,382.5 C 245.28,384.83 244.613,386.83 242.5,388.5C 242.875,386.302 243.542,384.302 244.5,382.5 Z"/></g>
<g><path style="opacity:0.508" fill="#585858" d="M 148.5,379.5 C 148.336,382.187 148.503,384.854 149,387.5C 150.067,388.191 151.234,388.691 152.5,389C 182.53,389.81 212.53,389.643 242.5,388.5C 241.653,389.966 240.32,390.8 238.5,391C 209.5,391.667 180.5,391.667 151.5,391C 146.178,388.211 145.178,384.377 148.5,379.5 Z"/></g>
<g><path style="opacity:0.938" fill="#191919" d="M 241.5,394.5 C 241.5,394.833 241.5,395.167 241.5,395.5C 210.833,395.5 180.167,395.5 149.5,395.5C 149.5,395.167 149.5,394.833 149.5,394.5C 180.167,393.167 210.833,393.167 241.5,394.5 Z"/></g>
<g><path style="opacity:0.977" fill="#000000" d="M 149.5,395.5 C 180.167,395.5 210.833,395.5 241.5,395.5C 241.973,396.906 242.973,397.573 244.5,397.5C 244.5,397.833 244.5,398.167 244.5,398.5C 243.542,400.302 242.875,402.302 242.5,404.5C 240.821,404.285 239.821,404.952 239.5,406.5C 210.167,406.5 180.833,406.5 151.5,406.5C 148.433,403.399 147.767,399.732 149.5,395.5 Z"/></g>
<g><path style="opacity:0.131" fill="#949494" d="M 241.5,394.5 C 242.833,395.167 243.833,396.167 244.5,397.5C 242.973,397.573 241.973,396.906 241.5,395.5C 241.5,395.167 241.5,394.833 241.5,394.5 Z"/></g>
<g><path style="opacity:0.818" fill="#515151" d="M 149.5,394.5 C 149.5,394.833 149.5,395.167 149.5,395.5C 147.767,399.732 148.433,403.399 151.5,406.5C 146.922,405.157 145.422,402.157 147,397.5C 147.377,396.058 148.21,395.058 149.5,394.5 Z"/></g>
<g><path style="opacity:0.208" fill="#a2a2a2" d="M 244.5,398.5 C 245.28,400.83 244.613,402.83 242.5,404.5C 242.875,402.302 243.542,400.302 244.5,398.5 Z"/></g>
<g><path style="opacity:0.592" fill="#717171" d="M 242.5,404.5 C 242.027,405.906 241.027,406.573 239.5,406.5C 239.821,404.952 240.821,404.285 242.5,404.5 Z"/></g>
<g><path style="opacity:0.361" fill="#4e4e4e" d="M 159.5,410.5 C 160.071,412.36 160.071,414.027 159.5,415.5C 158.661,414.359 157.994,413.026 157.5,411.5C 157.957,410.702 158.624,410.369 159.5,410.5 Z"/></g>
<g><path style="opacity:0.906" fill="#070707" d="M 164.5,427.5 C 164.741,424.966 163.741,423.3 161.5,422.5C 160.434,420.299 159.767,417.965 159.5,415.5C 160.071,414.027 160.071,412.36 159.5,410.5C 183.846,410.727 208.18,410.394 232.5,409.5C 231.377,415.538 230.044,421.538 228.5,427.5C 207.167,427.5 185.833,427.5 164.5,427.5 Z"/></g>
<g><path style="opacity:0.494" fill="#545454" d="M 161.5,422.5 C 163.741,423.3 164.741,424.966 164.5,427.5C 162.259,426.7 161.259,425.034 161.5,422.5 Z"/></g>
</svg>
