<?xml version="1.0" encoding="UTF-8"?>
<!DOCTYPE svg PUBLIC "-//W3C//DTD SVG 1.1//EN" "http://www.w3.org/Graphics/SVG/1.1/DTD/svg11.dtd">
<svg xmlns="http://www.w3.org/2000/svg" version="1.1" width="1200px" height="500px" style="shape-rendering:geometricPrecision; text-rendering:geometricPrecision; image-rendering:optimizeQuality; fill-rule:evenodd; clip-rule:evenodd" xmlns:xlink="http://www.w3.org/1999/xlink">
<g><path style="opacity:0.345" fill="#949494" d="M 632.5,72.5 C 625.137,72.1694 617.803,72.5027 610.5,73.5C 610.137,74.1835 609.804,74.8501 609.5,75.5C 608.833,75.5 608.167,75.5 607.5,75.5C 607.36,73.8762 608.027,72.7096 609.5,72C 617.345,71.1777 625.011,71.3443 632.5,72.5 Z"/></g>
<g><path style="opacity:0.547" fill="#747474" d="M 556.5,76.5 C 551.733,75.4344 546.9,74.7678 542,74.5C 537.1,74.7678 532.267,75.4344 527.5,76.5C 527.881,75.0689 528.881,74.2355 530.5,74C 538.167,72 545.833,72 553.5,74C 555.119,74.2355 556.119,75.0689 556.5,76.5 Z"/></g>
<g><path style="opacity:0.998" fill="#111111" d="M 632.5,72.5 C 632.833,72.5 633.167,72.5 633.5,72.5C 634.589,74.1171 636.256,74.9504 638.5,75C 641.039,75.7958 643.372,75.6291 645.5,74.5C 645.833,74.5 646.167,74.5 646.5,74.5C 647.183,76.1765 648.517,76.8432 650.5,76.5C 652.099,76.2322 653.432,76.5655 654.5,77.5C 660.45,82.6383 667.45,85.9716 675.5,87.5C 676.444,89.6879 678.111,91.0212 680.5,91.5C 680.756,93.7761 682.09,94.9428 684.5,95C 691.409,101.083 698.076,107.249 704.5,113.5C 705.262,117.177 707.262,119.844 710.5,121.5C 711.057,124.05 712.39,126.05 714.5,127.5C 715.487,130.146 716.487,132.812 717.5,135.5C 717.957,136.298 718.624,136.631 719.5,136.5C 721.742,142.918 724.242,149.251 727,155.5C 727.417,156.756 728.25,157.423 729.5,157.5C 731.893,167.574 734.226,177.574 736.5,187.5C 736.5,195.5 736.5,203.5 736.5,211.5C 736.468,218.022 735.468,224.356 733.5,230.5C 731.031,231.607 730.031,233.607 730.5,236.5C 730.768,238.099 730.434,239.432 729.5,240.5C 726.704,243.194 725.037,246.528 724.5,250.5C 724.5,250.833 724.5,251.167 724.5,251.5C 719.573,254.791 716.573,259.458 715.5,265.5C 712.277,267.592 710.277,270.592 709.5,274.5C 705.017,276.981 702.017,280.647 700.5,285.5C 700.5,286.167 700.167,286.5 699.5,286.5C 696.812,288.132 694.312,290.132 692,292.5C 691.209,293.745 690.709,295.078 690.5,296.5C 690.5,297.167 690.167,297.5 689.5,297.5C 686.703,297.967 685.369,299.633 685.5,302.5C 684.325,302.281 683.325,302.614 682.5,303.5C 679.5,307.167 676.5,310.833 673.5,314.5C 672.1,317.035 671.1,319.702 670.5,322.5C 670.5,322.833 670.5,323.167 670.5,323.5C 669.778,323.918 669.278,324.584 669,325.5C 668.195,332.529 667.362,339.529 666.5,346.5C 666.276,350.179 665.942,353.846 665.5,357.5C 663.958,360.572 662.125,363.572 660,366.5C 657.243,367.945 655.076,369.945 653.5,372.5C 651.194,372.993 648.861,373.326 646.5,373.5C 637.179,374.805 627.846,374.805 618.5,373.5C 616.784,373.371 615.117,373.038 613.5,372.5C 613.043,370.227 611.71,368.894 609.5,368.5C 609.5,368.167 609.5,367.833 609.5,367.5C 610.461,365.735 610.795,363.735 610.5,361.5C 609.597,311.507 609.263,261.507 609.5,211.5C 608.488,166.128 608.488,120.795 609.5,75.5C 609.804,74.8501 610.137,74.1835 610.5,73.5C 617.803,72.5027 625.137,72.1694 632.5,72.5 Z M 646.5,84.5 C 646.833,84.5 647.167,84.5 647.5,84.5C 657.612,88.8892 667.612,93.8892 677.5,99.5C 678.129,101.997 679.796,103.33 682.5,103.5C 683.92,106.588 686.253,108.588 689.5,109.5C 689.5,111.5 690.5,112.5 692.5,112.5C 693.781,115.447 695.781,117.781 698.5,119.5C 699.136,121.795 700.469,123.461 702.5,124.5C 707.257,132.347 711.757,140.347 716,148.5C 716.708,149.381 717.542,150.047 718.5,150.5C 718.5,150.833 718.5,151.167 718.5,151.5C 721.409,158.227 723.742,165.227 725.5,172.5C 725.747,173.713 726.414,174.38 727.5,174.5C 727.799,178.928 728.465,183.261 729.5,187.5C 729.882,199.906 729.215,212.24 727.5,224.5C 725.603,226.698 724.603,229.364 724.5,232.5C 723.061,234.588 722.394,236.921 722.5,239.5C 720.592,240.486 719.592,242.152 719.5,244.5C 718.069,245.78 717.402,247.447 717.5,249.5C 716.624,249.369 715.957,249.702 715.5,250.5C 714.422,253.207 713.422,255.874 712.5,258.5C 709.647,259.833 707.981,262.166 707.5,265.5C 703.463,269.215 700.13,273.548 697.5,278.5C 695.003,279.129 693.67,280.796 693.5,283.5C 690.339,284.812 688.339,287.145 687.5,290.5C 685.29,290.894 683.957,292.227 683.5,294.5C 680.51,297.792 677.51,301.126 674.5,304.5C 669.32,309.86 665.986,316.194 664.5,323.5C 663.414,330.775 662.748,338.108 662.5,345.5C 660.747,348.146 659.747,351.146 659.5,354.5C 656.677,362.328 651.343,367.328 643.5,369.5C 642.833,369.5 642.167,369.5 641.5,369.5C 633.24,370.15 625.24,369.316 617.5,367C 616.748,366.329 616.414,365.496 616.5,364.5C 616.5,322.833 616.5,281.167 616.5,239.5C 616.5,225.5 616.5,211.5 616.5,197.5C 616.5,181.833 616.5,166.167 616.5,150.5C 617.498,127.673 617.831,104.673 617.5,81.5C 627.234,81.9068 636.901,82.9068 646.5,84.5 Z"/></g>
<g><path style="opacity:0.42" fill="#7e7e7e" d="M 633.5,72.5 C 637.764,72.3442 641.764,73.0109 645.5,74.5C 643.372,75.6291 641.039,75.7958 638.5,75C 636.256,74.9504 634.589,74.1171 633.5,72.5 Z"/></g>
<g><path style="opacity:0.998" fill="#171717" d="M 556.5,76.5 C 558.237,78.8802 560.57,80.5469 563.5,81.5C 570.77,76.9325 578.77,75.2658 587.5,76.5C 591.625,78.9852 595.625,81.6519 599.5,84.5C 598.833,84.5 598.5,84.8333 598.5,85.5C 598.167,85.5 597.833,85.5 597.5,85.5C 594.41,81.9075 590.41,80.2408 585.5,80.5C 585.167,80.5 584.833,80.5 584.5,80.5C 579.965,79.256 575.298,79.256 570.5,80.5C 566.001,82.803 561.334,83.1364 556.5,81.5C 554.735,80.5386 552.735,80.2053 550.5,80.5C 547.167,80.5 543.833,80.5 540.5,80.5C 536.146,79.7492 532.813,81.0825 530.5,84.5C 527.288,84.7124 525.288,86.3791 524.5,89.5C 521.379,90.2876 519.712,92.2876 519.5,95.5C 514.116,98.9223 511.283,103.922 511,110.5C 509.389,118.922 510.889,126.589 515.5,133.5C 515.076,137.002 516.41,139.335 519.5,140.5C 519.67,143.204 521.003,144.871 523.5,145.5C 525.379,149.553 528.212,152.886 532,155.5C 532.749,156.635 532.583,157.635 531.5,158.5C 530.583,157.873 529.583,157.539 528.5,157.5C 527.72,154.447 525.72,152.78 522.5,152.5C 521.833,149.833 520.167,148.167 517.5,147.5C 516.922,144.63 515.255,142.963 512.5,142.5C 512.167,141.833 511.833,141.167 511.5,140.5C 511.741,137.966 510.741,136.3 508.5,135.5C 508.405,133.214 507.738,131.214 506.5,129.5C 506.994,121.229 504.661,119.895 499.5,125.5C 496.309,126.092 493.309,127.259 490.5,129C 489.748,129.671 489.414,130.504 489.5,131.5C 486.237,131.674 484.57,133.341 484.5,136.5C 481.428,137.301 479.762,139.301 479.5,142.5C 477.52,143.848 476.353,145.848 476,148.5C 474.035,157.561 474.368,166.561 477,175.5C 477.852,176.571 478.685,177.571 479.5,178.5C 480.398,181.396 482.065,183.729 484.5,185.5C 485.5,187.833 487.167,189.5 489.5,190.5C 492.172,193.507 495.506,195.507 499.5,196.5C 503.896,198.033 508.563,198.7 513.5,198.5C 517.919,198.564 522.252,198.064 526.5,197C 526.957,196.586 527.291,196.086 527.5,195.5C 526.831,192.47 526.165,189.47 525.5,186.5C 525.5,185.833 525.5,185.167 525.5,184.5C 527.256,183.448 527.923,181.781 527.5,179.5C 527.232,177.901 527.566,176.568 528.5,175.5C 529.376,175.631 530.043,175.298 530.5,174.5C 531.513,171.812 532.513,169.146 533.5,166.5C 533.328,165.508 533.662,164.842 534.5,164.5C 535.833,164.5 537.167,164.5 538.5,164.5C 538.5,165.833 538.5,167.167 538.5,168.5C 538.5,168.833 538.5,169.167 538.5,169.5C 537.503,169.47 536.836,169.97 536.5,171C 535.678,173.434 535.344,175.934 535.5,178.5C 535.5,184.833 535.5,191.167 535.5,197.5C 535.303,201.262 536.636,204.262 539.5,206.5C 539.67,209.204 541.003,210.871 543.5,211.5C 544.192,214.935 546.192,216.935 549.5,217.5C 549.923,219.781 549.256,221.448 547.5,222.5C 547.167,222.5 546.833,222.5 546.5,222.5C 543.062,219.585 539.395,216.752 535.5,214C 533.768,212.028 532.435,209.861 531.5,207.5C 530.601,204.972 529.601,202.472 528.5,200C 522.511,200.164 516.511,200.664 510.5,201.5C 508.117,201.363 505.783,201.029 503.5,200.5C 500.126,200.326 496.793,199.826 493.5,199C 489.438,195.971 485.105,193.471 480.5,191.5C 480.5,190.5 480.5,189.5 480.5,188.5C 475.784,189.555 473.117,192.555 472.5,197.5C 472.5,198.167 472.167,198.5 471.5,198.5C 469.259,199.3 468.259,200.966 468.5,203.5C 466.836,204.743 465.669,206.41 465,208.5C 463.239,218.212 464.906,227.212 470,235.5C 470.671,236.252 471.504,236.586 472.5,236.5C 473.242,238.426 474.242,240.259 475.5,242C 477.852,244.844 480.852,246.678 484.5,247.5C 485.78,248.931 487.447,249.598 489.5,249.5C 489.577,250.75 490.244,251.583 491.5,252C 494.757,253.043 498.09,253.543 501.5,253.5C 510.188,253.587 518.854,253.253 527.5,252.5C 531.306,252.588 534.972,251.921 538.5,250.5C 538.833,250.833 539.167,251.167 539.5,251.5C 537.423,252.885 535.423,254.218 533.5,255.5C 527.5,256.167 521.5,256.833 515.5,257.5C 508.132,257.683 500.799,257.35 493.5,256.5C 493.176,263.354 493.509,270.021 494.5,276.5C 494.5,277.167 494.5,277.833 494.5,278.5C 494.5,279.167 494.5,279.833 494.5,280.5C 493.883,280.389 493.383,280.056 493,279.5C 492.829,271.989 492.329,264.655 491.5,257.5C 490.817,255.824 489.483,255.157 487.5,255.5C 487.167,255.5 486.833,255.5 486.5,255.5C 485.365,253.787 483.698,253.12 481.5,253.5C 480.871,251.003 479.204,249.67 476.5,249.5C 476.033,246.703 474.367,245.369 471.5,245.5C 471.33,242.796 469.997,241.129 467.5,240.5C 466.254,236.336 464.254,232.669 461.5,229.5C 460.549,228.081 460.216,226.415 460.5,224.5C 460.347,218.131 460.68,211.797 461.5,205.5C 464.201,202.765 465.868,199.431 466.5,195.5C 470.1,193.57 473.1,190.903 475.5,187.5C 475.923,186.735 476.257,185.902 476.5,185C 475.68,183.2 475.014,181.366 474.5,179.5C 473.685,177.246 473.019,174.913 472.5,172.5C 472.253,171.287 471.586,170.62 470.5,170.5C 471.01,167.612 470.344,165.279 468.5,163.5C 468.5,159.833 468.5,156.167 468.5,152.5C 470.693,150.478 471.693,147.811 471.5,144.5C 471.5,144.167 471.5,143.833 471.5,143.5C 474.476,140.904 476.476,137.57 477.5,133.5C 479.833,133.167 481.167,131.833 481.5,129.5C 484.204,129.33 485.871,127.997 486.5,125.5C 489.426,124.302 492.426,123.302 495.5,122.5C 498.342,120.983 501.342,119.983 504.5,119.5C 505.226,115.321 505.226,111.321 504.5,107.5C 504.5,107.167 504.5,106.833 504.5,106.5C 506.176,105.817 506.843,104.483 506.5,102.5C 506.5,102.167 506.5,101.833 506.5,101.5C 509.164,99.5156 510.831,96.8489 511.5,93.5C 512.441,91.9505 513.107,90.2838 513.5,88.5C 518.135,84.5078 522.802,80.5078 527.5,76.5C 532.267,75.4344 537.1,74.7678 542,74.5C 546.9,74.7678 551.733,75.4344 556.5,76.5 Z"/></g>
<g><path style="opacity:0.086" fill="#c0c0c0" d="M 646.5,74.5 C 648.153,74.6596 649.486,75.3263 650.5,76.5C 648.517,76.8432 647.183,76.1765 646.5,74.5 Z"/></g>
<g><path style="opacity:0.765" fill="#797979" d="M 587.5,76.5 C 578.77,75.2658 570.77,76.9325 563.5,81.5C 560.57,80.5469 558.237,78.8802 556.5,76.5C 558.905,76.8664 561.238,77.5331 563.5,78.5C 568.54,76.0328 573.873,74.6994 579.5,74.5C 582.59,74.5217 585.257,75.1883 587.5,76.5 Z"/></g>
<g><path style="opacity:0.078" fill="#d3d3d3" d="M 584.5,80.5 C 579.57,80.034 574.903,80.7006 570.5,82.5C 570.5,81.8333 570.5,81.1667 570.5,80.5C 575.298,79.256 579.965,79.256 584.5,80.5 Z"/></g>
<g><path style="opacity:0.161" fill="#8d8d8d" d="M 527.5,76.5 C 522.802,80.5078 518.135,84.5078 513.5,88.5C 516.651,82.6792 521.317,78.6792 527.5,76.5 Z"/></g>
<g><path style="opacity:0.222" fill="#a3a3a3" d="M 540.5,80.5 C 537.607,82.4454 534.273,83.7787 530.5,84.5C 532.813,81.0825 536.146,79.7492 540.5,80.5 Z"/></g>
<g><path style="opacity:0.114" fill="#b5b5b5" d="M 550.5,80.5 C 552.735,80.2053 554.735,80.5386 556.5,81.5C 557.167,82.1667 557.833,82.8333 558.5,83.5C 555.364,83.3969 552.698,82.3969 550.5,80.5 Z"/></g>
<g><path style="opacity:0.557" fill="#6a6a6a" d="M 570.5,80.5 C 570.5,81.1667 570.5,81.8333 570.5,82.5C 566.613,84.533 562.613,84.8664 558.5,83.5C 557.833,82.8333 557.167,82.1667 556.5,81.5C 561.334,83.1364 566.001,82.803 570.5,80.5 Z"/></g>
<g><path style="opacity:0.199" fill="#939393" d="M 646.5,84.5 C 636.901,82.9068 627.234,81.9068 617.5,81.5C 617.831,104.673 617.498,127.673 616.5,150.5C 615.518,136.579 615.185,122.579 615.5,108.5C 615.5,98.8333 615.5,89.1667 615.5,79.5C 622.874,79.3839 630.208,79.8839 637.5,81C 641.042,81.1205 644.042,82.2872 646.5,84.5 Z"/></g>
<g><path style="opacity:0.647" fill="#808080" d="M 654.5,77.5 C 656.564,77.687 658.564,78.187 660.5,79C 665.838,81.3765 670.838,84.2098 675.5,87.5C 667.45,85.9716 660.45,82.6383 654.5,77.5 Z"/></g>
<g><path style="opacity:0.999" fill="#0b0b0b" d="M 599.5,84.5 C 599.5,85.5 599.5,86.5 599.5,87.5C 600,106.163 600.333,124.83 600.5,143.5C 601.752,219.191 601.752,294.857 600.5,370.5C 599.094,370.973 598.427,371.973 598.5,373.5C 589.067,373.846 579.734,373.179 570.5,371.5C 566.443,371.152 562.443,370.486 558.5,369.5C 556.47,366.818 553.803,365.151 550.5,364.5C 548.684,360.716 547.684,356.716 547.5,352.5C 547.39,339.284 546.39,326.284 544.5,313.5C 541.612,312.922 538.612,312.922 535.5,313.5C 530.455,314.72 525.455,314.72 520.5,313.5C 517.833,313.167 515.167,312.833 512.5,312.5C 512.167,312.5 511.833,312.5 511.5,312.5C 506.597,308.676 501.597,305.01 496.5,301.5C 494.056,297.045 492.056,292.379 490.5,287.5C 488.504,278.884 487.837,270.217 488.5,261.5C 489.978,260.552 490.978,259.219 491.5,257.5C 492.329,264.655 492.829,271.989 493,279.5C 493.383,280.056 493.883,280.389 494.5,280.5C 494.838,282.854 495.338,285.187 496,287.5C 496.422,289.426 497.589,290.426 499.5,290.5C 504.049,299.353 511.383,304.353 521.5,305.5C 523.743,306.812 526.41,307.478 529.5,307.5C 533.469,307.706 537.135,307.039 540.5,305.5C 546.131,303.404 551.464,300.57 556.5,297C 557.305,295.887 557.972,294.721 558.5,293.5C 561.973,291.363 564.306,288.363 565.5,284.5C 567.5,284.5 568.5,283.5 568.5,281.5C 569.497,281.53 570.164,281.03 570.5,280C 571.045,276.813 571.711,273.646 572.5,270.5C 573.683,274.175 573.683,277.841 572.5,281.5C 572.02,286.126 570.187,290.126 567,293.5C 560.653,300.53 553.819,306.696 546.5,312C 547,314.5 547.5,317 548,319.5C 548.383,320.056 548.883,320.389 549.5,320.5C 549.586,327.037 550.253,333.37 551.5,339.5C 551.5,339.833 551.5,340.167 551.5,340.5C 551.5,344.167 551.5,347.833 551.5,351.5C 551.412,358.345 554.745,362.012 561.5,362.5C 563.06,364.429 565.06,365.762 567.5,366.5C 568.263,367.268 569.263,367.768 570.5,368C 578.827,368.5 587.16,368.666 595.5,368.5C 595.5,303.5 595.5,238.5 595.5,173.5C 595.5,170.833 595.5,168.167 595.5,165.5C 596.117,165.389 596.617,165.056 597,164.5C 597.393,138.162 597.893,111.829 598.5,85.5C 598.5,84.8333 598.833,84.5 599.5,84.5 Z"/></g>
<g><path style="opacity:0.047" fill="#a3a3a3" d="M 530.5,84.5 C 529.32,87.0978 527.32,88.7645 524.5,89.5C 525.288,86.3791 527.288,84.7124 530.5,84.5 Z"/></g>
<g><path style="opacity:0.247" fill="#797979" d="M 587.5,76.5 C 592.378,77.0698 596.712,78.9031 600.5,82C 601.444,84.7191 601.777,87.5525 601.5,90.5C 600.833,89.5 600.167,88.5 599.5,87.5C 599.5,86.5 599.5,85.5 599.5,84.5C 595.625,81.6519 591.625,78.9852 587.5,76.5 Z"/></g>
<g><path style="opacity:0.222" fill="#8b8b8b" d="M 647.5,84.5 C 651.263,84.8572 654.93,85.6905 658.5,87C 664.325,89.7453 669.992,92.7453 675.5,96C 676.305,97.1127 676.972,98.2794 677.5,99.5C 667.612,93.8892 657.612,88.8892 647.5,84.5 Z"/></g>
<g><path style="opacity:0.049" fill="#bababa" d="M 675.5,87.5 C 678.204,87.6696 679.871,89.0029 680.5,91.5C 678.111,91.0212 676.444,89.6879 675.5,87.5 Z"/></g>
<g><path style="opacity:0.047" fill="#bfbfbf" d="M 513.5,88.5 C 513.107,90.2838 512.441,91.9505 511.5,93.5C 510.833,93.5 510.167,93.5 509.5,93.5C 510.604,91.6115 511.937,89.9448 513.5,88.5 Z"/></g>
<g><path style="opacity:0.094" fill="#a3a3a3" d="M 524.5,89.5 C 523.764,92.32 522.098,94.32 519.5,95.5C 519.712,92.2876 521.379,90.2876 524.5,89.5 Z"/></g>
<g><path style="opacity:0.2" fill="#878787" d="M 585.5,80.5 C 590.41,80.2408 594.41,81.9075 597.5,85.5C 597.795,87.7354 597.461,89.7354 596.5,91.5C 596.799,89.396 596.466,87.396 595.5,85.5C 591.777,84.177 588.444,82.5103 585.5,80.5 Z"/></g>
<g><path style="opacity:0.149" fill="#a3a3a3" d="M 680.5,91.5 C 681.552,91.3505 682.552,91.5172 683.5,92C 686.5,94.3333 689.5,96.6667 692.5,99C 696.853,103.539 700.853,108.372 704.5,113.5C 698.076,107.249 691.409,101.083 684.5,95C 682.09,94.9428 680.756,93.7761 680.5,91.5 Z"/></g>
<g><path style="opacity:0.463" fill="#646464" d="M 509.5,93.5 C 510.167,93.5 510.833,93.5 511.5,93.5C 510.831,96.8489 509.164,99.5156 506.5,101.5C 506.94,98.6202 507.94,95.9535 509.5,93.5 Z"/></g>
<g><path style="opacity:0.161" fill="#999999" d="M 677.5,99.5 C 680.367,99.3692 682.033,100.703 682.5,103.5C 679.796,103.33 678.129,101.997 677.5,99.5 Z"/></g>
<g><path style="opacity:0.545" fill="#989898" d="M 682.5,103.5 C 686.067,104.068 688.401,106.068 689.5,109.5C 686.253,108.588 683.92,106.588 682.5,103.5 Z"/></g>
<g><path style="opacity:0.337" fill="#8f8f8f" d="M 506.5,102.5 C 506.843,104.483 506.176,105.817 504.5,106.5C 504.157,104.517 504.824,103.183 506.5,102.5 Z"/></g>
<g><path style="opacity:0.428" fill="#4c4c4c" d="M 607.5,75.5 C 608.167,75.5 608.833,75.5 609.5,75.5C 608.488,120.795 608.488,166.128 609.5,211.5C 608.833,211.5 608.167,211.5 607.5,211.5C 606.738,166.127 606.738,120.793 607.5,75.5 Z"/></g>
<g><path style="opacity:0.059" fill="#a3a3a3" d="M 689.5,109.5 C 691.5,109.5 692.5,110.5 692.5,112.5C 692.5,110.5 691.5,109.5 689.5,109.5 Z"/></g>
<g><path style="opacity:0.247" fill="#6e6e6e" d="M 504.5,107.5 C 505.226,111.321 505.226,115.321 504.5,119.5C 501.342,119.983 498.342,120.983 495.5,122.5C 495.5,121.833 495.5,121.167 495.5,120.5C 497.993,119.226 500.659,118.56 503.5,118.5C 503.185,114.629 503.518,110.962 504.5,107.5 Z"/></g>
<g><path style="opacity:0.098" fill="#929292" d="M 692.5,112.5 C 695.946,113.612 697.946,115.945 698.5,119.5C 695.781,117.781 693.781,115.447 692.5,112.5 Z"/></g>
<g><path style="opacity:0.231" fill="#9b9b9b" d="M 704.5,113.5 C 707.471,115.443 709.471,118.109 710.5,121.5C 707.262,119.844 705.262,117.177 704.5,113.5 Z"/></g>
<g><path style="opacity:0.192" fill="#b0b0b0" d="M 698.5,119.5 C 701.324,119.989 702.657,121.656 702.5,124.5C 700.469,123.461 699.136,121.795 698.5,119.5 Z"/></g>
<g><path style="opacity:0.098" fill="#bfbfbf" d="M 710.5,121.5 C 713.044,122.708 714.378,124.708 714.5,127.5C 712.39,126.05 711.057,124.05 710.5,121.5 Z"/></g>
<g><path style="opacity:0.051" fill="#bdbdbd" d="M 495.5,120.5 C 495.5,121.167 495.5,121.833 495.5,122.5C 492.426,123.302 489.426,124.302 486.5,125.5C 488.756,122.595 491.756,120.928 495.5,120.5 Z"/></g>
<g><path style="opacity:0.216" fill="#7b7b7b" d="M 506.5,129.5 C 504.903,128.263 503.737,126.596 503,124.5C 501.989,125.337 500.822,125.67 499.5,125.5C 504.661,119.895 506.994,121.229 506.5,129.5 Z"/></g>
<g><path style="opacity:0.244" fill="#8a8a8a" d="M 519.5,95.5 C 516.273,100.335 514.106,105.669 513,111.5C 512.073,119.044 512.906,126.377 515.5,133.5C 510.889,126.589 509.389,118.922 511,110.5C 511.283,103.922 514.116,98.9223 519.5,95.5 Z"/></g>
<g><path style="opacity:0.033" fill="#bebebe" d="M 663.5,128.5 C 660.314,127.662 657.147,126.662 654,125.5C 652.97,125.836 652.47,126.503 652.5,127.5C 651.566,126.432 651.232,125.099 651.5,123.5C 656.232,123.627 660.232,125.293 663.5,128.5 Z"/></g>
<g><path style="opacity:0.176" fill="#9f9f9f" d="M 486.5,125.5 C 485.871,127.997 484.204,129.33 481.5,129.5C 482.27,127.065 483.937,125.731 486.5,125.5 Z"/></g>
<g><path style="opacity:0.18" fill="#9e9e9e" d="M 499.5,125.5 C 496.794,128.521 493.461,130.521 489.5,131.5C 489.414,130.504 489.748,129.671 490.5,129C 493.309,127.259 496.309,126.092 499.5,125.5 Z"/></g>
<g><path style="opacity:0.057" fill="#c1c1c1" d="M 652.5,127.5 C 655.167,128.167 656.833,129.833 657.5,132.5C 655.5,131.167 653.833,129.5 652.5,127.5 Z"/></g>
<g><path style="opacity:0.996" fill="#171717" d="M 663.5,128.5 C 664.833,131.353 667.166,133.019 670.5,133.5C 670.5,135.5 671.5,136.5 673.5,136.5C 674.167,139.167 675.833,140.833 678.5,141.5C 679.247,144.362 680.914,146.362 683.5,147.5C 684.195,150.915 685.862,153.582 688.5,155.5C 689.738,157.214 690.405,159.214 690.5,161.5C 690.833,164.833 691.167,168.167 691.5,171.5C 691.5,175.167 691.5,178.833 691.5,182.5C 691.5,184.5 691.5,186.5 691.5,188.5C 690.5,188.5 689.5,188.5 688.5,188.5C 687.527,186.052 687.194,183.385 687.5,180.5C 687.246,176.061 686.412,171.728 685,167.5C 684.583,166.244 683.75,165.577 682.5,165.5C 682.327,161.253 680.661,157.92 677.5,155.5C 677.21,152.873 675.876,151.206 673.5,150.5C 673.228,147.268 671.562,145.268 668.5,144.5C 667.946,140.945 665.946,138.612 662.5,137.5C 661.833,134.833 660.167,133.167 657.5,132.5C 656.833,129.833 655.167,128.167 652.5,127.5C 652.47,126.503 652.97,125.836 654,125.5C 657.147,126.662 660.314,127.662 663.5,128.5 Z"/></g>
<g><path style="opacity:0.11" fill="#ababab" d="M 714.5,127.5 C 717.45,129.728 719.116,132.728 719.5,136.5C 718.624,136.631 717.957,136.298 717.5,135.5C 716.487,132.812 715.487,130.146 714.5,127.5 Z"/></g>
<g><path style="opacity:0.278" fill="#9f9f9f" d="M 481.5,129.5 C 481.167,131.833 479.833,133.167 477.5,133.5C 477.894,131.29 479.227,129.957 481.5,129.5 Z"/></g>
<g><path style="opacity:0.031" fill="#bebebe" d="M 506.5,129.5 C 507.738,131.214 508.405,133.214 508.5,135.5C 506.926,133.898 506.259,131.898 506.5,129.5 Z"/></g>
<g><path style="opacity:0.102" fill="#afafaf" d="M 663.5,128.5 C 666.396,129.398 668.729,131.065 670.5,133.5C 667.166,133.019 664.833,131.353 663.5,128.5 Z"/></g>
<g><path style="opacity:0.11" fill="#979797" d="M 702.5,124.5 C 703.721,125.028 704.887,125.695 706,126.5C 708.213,131.218 711.046,135.551 714.5,139.5C 716.234,143.037 717.568,146.704 718.5,150.5C 717.542,150.047 716.708,149.381 716,148.5C 711.757,140.347 707.257,132.347 702.5,124.5 Z"/></g>
<g><path style="opacity:0.322" fill="#919191" d="M 489.5,131.5 C 488.833,134.167 487.167,135.833 484.5,136.5C 484.57,133.341 486.237,131.674 489.5,131.5 Z"/></g>
<g><path style="opacity:0.604" fill="#515151" d="M 597.5,85.5 C 597.833,85.5 598.167,85.5 598.5,85.5C 597.893,111.829 597.393,138.162 597,164.5C 596.617,165.056 596.117,165.389 595.5,165.5C 595.336,140.824 595.67,116.157 596.5,91.5C 597.461,89.7354 597.795,87.7354 597.5,85.5 Z"/></g>
<g><path style="opacity:0.709" fill="#757575" d="M 599.5,87.5 C 600.167,88.5 600.833,89.5 601.5,90.5C 602.98,147.132 603.647,203.799 603.5,260.5C 603.5,297.002 603.167,333.335 602.5,369.5C 602.667,302.166 602.5,234.833 602,167.5C 601.829,159.323 601.329,151.323 600.5,143.5C 600.333,124.83 600,106.163 599.5,87.5 Z"/></g>
<g><path style="opacity:0.122" fill="#bebebe" d="M 657.5,132.5 C 660.167,133.167 661.833,134.833 662.5,137.5C 660.5,136.167 658.833,134.5 657.5,132.5 Z"/></g>
<g><path style="opacity:0.078" fill="#a7a7a7" d="M 670.5,133.5 C 672.5,133.5 673.5,134.5 673.5,136.5C 673.5,134.5 672.5,133.5 670.5,133.5 Z"/></g>
<g><path style="opacity:0.471" fill="#9b9b9b" d="M 508.5,135.5 C 510.741,136.3 511.741,137.966 511.5,140.5C 509.592,139.514 508.592,137.848 508.5,135.5 Z"/></g>
<g><path style="opacity:0.247" fill="#9a9a9a" d="M 484.5,136.5 C 483.331,139.511 481.664,142.178 479.5,144.5C 479.5,143.833 479.5,143.167 479.5,142.5C 479.762,139.301 481.428,137.301 484.5,136.5 Z"/></g>
<g><path style="opacity:0.271" fill="#7e7e7e" d="M 515.5,133.5 C 517.942,135.121 519.275,137.454 519.5,140.5C 516.41,139.335 515.076,137.002 515.5,133.5 Z"/></g>
<g><path style="opacity:0.11" fill="#8d8d8d" d="M 673.5,136.5 C 676.189,137.189 677.856,138.856 678.5,141.5C 675.833,140.833 674.167,139.167 673.5,136.5 Z"/></g>
<g><path style="opacity:0.157" fill="#a3a3a3" d="M 662.5,137.5 C 665.946,138.612 667.946,140.945 668.5,144.5C 666.273,142.393 664.273,140.06 662.5,137.5 Z"/></g>
<g><path style="opacity:0.557" fill="#858585" d="M 477.5,133.5 C 476.476,137.57 474.476,140.904 471.5,143.5C 471.977,139.207 473.977,135.873 477.5,133.5 Z"/></g>
<g><path style="opacity:0.4" fill="#8e8e8e" d="M 512.5,142.5 C 515.255,142.963 516.922,144.63 517.5,147.5C 514.833,146.833 513.167,145.167 512.5,142.5 Z"/></g>
<g><path style="opacity:0.071" fill="#bababa" d="M 519.5,140.5 C 521.935,141.27 523.269,142.937 523.5,145.5C 521.003,144.871 519.67,143.204 519.5,140.5 Z"/></g>
<g><path style="opacity:0.027" fill="#9e9e9e" d="M 678.5,141.5 C 681.261,142.593 682.927,144.593 683.5,147.5C 680.914,146.362 679.247,144.362 678.5,141.5 Z"/></g>
<g><path style="opacity:0.267" fill="#9c9c9c" d="M 719.5,136.5 C 721.86,138.713 723.694,141.379 725,144.5C 726.793,148.77 728.293,153.104 729.5,157.5C 728.25,157.423 727.417,156.756 727,155.5C 724.242,149.251 721.742,142.918 719.5,136.5 Z"/></g>
<g><path style="opacity:0.063" fill="#b9b9b9" d="M 668.5,144.5 C 671.562,145.268 673.228,147.268 673.5,150.5C 671.11,149.109 669.443,147.109 668.5,144.5 Z"/></g>
<g><path style="opacity:0.096" fill="#b1b1b1" d="M 471.5,144.5 C 471.693,147.811 470.693,150.478 468.5,152.5C 468.62,149.422 469.62,146.755 471.5,144.5 Z"/></g>
<g><path style="opacity:0.086" fill="#adadad" d="M 683.5,147.5 C 685.993,149.658 687.66,152.324 688.5,155.5C 685.862,153.582 684.195,150.915 683.5,147.5 Z"/></g>
<g><path style="opacity:0.231" fill="#8b8b8b" d="M 517.5,147.5 C 520.167,148.167 521.833,149.833 522.5,152.5C 519.833,151.833 518.167,150.167 517.5,147.5 Z"/></g>
<g><path style="opacity:0.047" fill="#d7d7d7" d="M 478.5,146.5 C 478.247,150.04 477.581,153.373 476.5,156.5C 476.159,152.84 476.825,149.507 478.5,146.5 Z"/></g>
<g><path style="opacity:0.333" fill="#7f7f7f" d="M 522.5,152.5 C 525.72,152.78 527.72,154.447 528.5,157.5C 525.268,157.228 523.268,155.562 522.5,152.5 Z"/></g>
<g><path style="opacity:0.065" fill="#ababab" d="M 673.5,150.5 C 675.876,151.206 677.21,152.873 677.5,155.5C 675.003,154.871 673.67,153.204 673.5,150.5 Z"/></g>
<g><path style="opacity:0.269" fill="#666666" d="M 479.5,142.5 C 479.5,143.167 479.5,143.833 479.5,144.5C 479.672,145.492 479.338,146.158 478.5,146.5C 476.825,149.507 476.159,152.84 476.5,156.5C 476.99,163.584 477.99,170.584 479.5,177.5C 479.5,177.833 479.5,178.167 479.5,178.5C 478.685,177.571 477.852,176.571 477,175.5C 474.368,166.561 474.035,157.561 476,148.5C 476.353,145.848 477.52,143.848 479.5,142.5 Z"/></g>
<g><path style="opacity:0.047" fill="#b4b4b4" d="M 523.5,145.5 C 527.131,148.629 530.631,151.963 534,155.5C 535.167,159.667 533.667,161.167 529.5,160C 528.748,159.329 528.414,158.496 528.5,157.5C 529.583,157.539 530.583,157.873 531.5,158.5C 532.583,157.635 532.749,156.635 532,155.5C 528.212,152.886 525.379,149.553 523.5,145.5 Z"/></g>
<g><path style="opacity:0.122" fill="#959595" d="M 677.5,155.5 C 680.661,157.92 682.327,161.253 682.5,165.5C 681.624,165.631 680.957,165.298 680.5,164.5C 679.199,161.573 678.199,158.573 677.5,155.5 Z"/></g>
<g><path style="opacity:0.096" fill="#d6d6d6" d="M 538.5,168.5 C 538.5,167.167 538.5,165.833 538.5,164.5C 537.167,164.5 535.833,164.5 534.5,164.5C 535.314,162.727 536.648,162.227 538.5,163C 539.807,164.943 539.807,166.777 538.5,168.5 Z"/></g>
<g><path style="opacity:0.173" fill="#a6a6a6" d="M 468.5,163.5 C 470.344,165.279 471.01,167.612 470.5,170.5C 470.5,170.833 470.5,171.167 470.5,171.5C 469.883,171.389 469.383,171.056 469,170.5C 468.503,168.19 468.337,165.857 468.5,163.5 Z"/></g>
<g><path style="opacity:0.326" fill="#565656" d="M 615.5,108.5 C 615.185,122.579 615.518,136.579 616.5,150.5C 616.5,166.167 616.5,181.833 616.5,197.5C 615.833,197.5 615.167,197.5 614.5,197.5C 614.169,167.662 614.502,137.995 615.5,108.5 Z"/></g>
<g><path style="opacity:0.153" fill="#888888" d="M 729.5,157.5 C 734.313,166.76 736.646,176.76 736.5,187.5C 734.226,177.574 731.893,167.574 729.5,157.5 Z"/></g>
<g><path style="opacity:0.4" fill="#979797" d="M 690.5,161.5 C 691.586,161.62 692.253,162.287 692.5,163.5C 693.302,166.449 693.636,169.449 693.5,172.5C 692.833,172.167 692.167,171.833 691.5,171.5C 691.167,168.167 690.833,164.833 690.5,161.5 Z"/></g>
<g><path style="opacity:0.298" fill="#838383" d="M 718.5,151.5 C 723.924,158.045 726.924,165.711 727.5,174.5C 726.414,174.38 725.747,173.713 725.5,172.5C 723.742,165.227 721.409,158.227 718.5,151.5 Z"/></g>
<g><path style="opacity:0.329" fill="#8e8e8e" d="M 533.5,166.5 C 532.513,169.146 531.513,171.812 530.5,174.5C 530.043,175.298 529.376,175.631 528.5,175.5C 528.884,171.728 530.55,168.728 533.5,166.5 Z"/></g>
<g><path style="opacity:0.078" fill="#c1c1c1" d="M 538.5,169.5 C 538.472,172.916 537.472,175.916 535.5,178.5C 535.344,175.934 535.678,173.434 536.5,171C 536.836,169.97 537.503,169.47 538.5,169.5 Z"/></g>
<g><path style="opacity:0.345" fill="#909090" d="M 682.5,165.5 C 683.75,165.577 684.583,166.244 685,167.5C 686.412,171.728 687.246,176.061 687.5,180.5C 686.883,180.389 686.383,180.056 686,179.5C 684.829,174.814 683.662,170.148 682.5,165.5 Z"/></g>
<g><path style="opacity:0.267" fill="#6b6b6b" d="M 691.5,171.5 C 692.167,171.833 692.833,172.167 693.5,172.5C 694.782,175.731 694.782,179.064 693.5,182.5C 692.833,182.5 692.167,182.5 691.5,182.5C 691.5,178.833 691.5,175.167 691.5,171.5 Z"/></g>
<g><path style="opacity:0.529" fill="#515151" d="M 470.5,170.5 C 471.586,170.62 472.253,171.287 472.5,172.5C 473.019,174.913 473.685,177.246 474.5,179.5C 473.833,179.5 473.167,179.5 472.5,179.5C 471.226,177.007 470.56,174.341 470.5,171.5C 470.5,171.167 470.5,170.833 470.5,170.5 Z"/></g>
<g><path style="opacity:0.102" fill="#9f9f9f" d="M 479.5,177.5 C 482.138,179.418 483.805,182.085 484.5,185.5C 482.065,183.729 480.398,181.396 479.5,178.5C 479.5,178.167 479.5,177.833 479.5,177.5 Z"/></g>
<g><path style="opacity:0.247" fill="#a3a3a3" d="M 527.5,179.5 C 527.923,181.781 527.256,183.448 525.5,184.5C 525.12,182.302 525.787,180.635 527.5,179.5 Z"/></g>
<g><path style="opacity:0.137" fill="#aaaaaa" d="M 472.5,179.5 C 473.167,179.5 473.833,179.5 474.5,179.5C 475.014,181.366 475.68,183.2 476.5,185C 476.257,185.902 475.923,186.735 475.5,187.5C 473.589,188.075 471.922,189.075 470.5,190.5C 471.254,187.909 472.921,186.076 475.5,185C 473.393,183.736 472.393,181.903 472.5,179.5 Z"/></g>
<g><path style="opacity:0.133" fill="#a6a6a6" d="M 484.5,185.5 C 487.167,186.167 488.833,187.833 489.5,190.5C 487.167,189.5 485.5,187.833 484.5,185.5 Z"/></g>
<g><path style="opacity:0.059" fill="#959595" d="M 691.5,182.5 C 692.167,182.5 692.833,182.5 693.5,182.5C 693.649,185.607 693.149,188.607 692,191.5C 690.989,192.337 689.822,192.67 688.5,192.5C 688.5,191.167 688.5,189.833 688.5,188.5C 689.5,188.5 690.5,188.5 691.5,188.5C 691.5,186.5 691.5,184.5 691.5,182.5 Z"/></g>
<g><path style="opacity:0.035" fill="#a5a5a5" d="M 480.5,191.5 C 479.448,191.351 478.448,191.517 477.5,192C 475.7,193.812 474.033,195.645 472.5,197.5C 473.117,192.555 475.784,189.555 480.5,188.5C 480.5,189.5 480.5,190.5 480.5,191.5 Z"/></g>
<g><path style="opacity:0.639" fill="#686868" d="M 475.5,187.5 C 473.1,190.903 470.1,193.57 466.5,195.5C 466.67,192.796 468.003,191.129 470.5,190.5C 471.922,189.075 473.589,188.075 475.5,187.5 Z"/></g>
<g><path style="opacity:0.416" fill="#8c8c8c" d="M 489.5,190.5 C 494.735,192.129 499.735,194.129 504.5,196.5C 502.833,196.5 501.167,196.5 499.5,196.5C 495.506,195.507 492.172,193.507 489.5,190.5 Z"/></g>
<g><path style="opacity:0.382" fill="#7c7c7c" d="M 729.5,187.5 C 730.825,191.445 731.492,195.778 731.5,200.5C 732.218,208.997 730.884,216.997 727.5,224.5C 729.215,212.24 729.882,199.906 729.5,187.5 Z"/></g>
<g><path style="opacity:0.081" fill="#e0e0e0" d="M 736.5,187.5 C 737.823,190.938 738.49,194.771 738.5,199C 738.333,202.833 738.167,206.667 738,210.5C 737.617,211.056 737.117,211.389 736.5,211.5C 736.5,203.5 736.5,195.5 736.5,187.5 Z"/></g>
<g><path style="opacity:0.485" fill="#6f6f6f" d="M 525.5,186.5 C 526.165,189.47 526.831,192.47 527.5,195.5C 527.291,196.086 526.957,196.586 526.5,197C 522.252,198.064 517.919,198.564 513.5,198.5C 508.563,198.7 503.896,198.033 499.5,196.5C 501.167,196.5 502.833,196.5 504.5,196.5C 511.175,196.666 517.842,196.5 524.5,196C 524.307,192.843 524.641,189.676 525.5,186.5 Z"/></g>
<g><path style="opacity:0.884" fill="#000000" d="M 780.5,198.5 C 789.289,197.863 797.289,200.03 804.5,205C 810.311,210.231 809.811,214.397 803,217.5C 799.333,215.167 795.667,212.833 792,210.5C 782.947,207.119 776.78,209.786 773.5,218.5C 774.498,222.005 776.498,224.838 779.5,227C 786.833,230.333 794.167,233.667 801.5,237C 811.319,243.46 814.152,252.293 810,263.5C 806.256,269.901 800.756,274.068 793.5,276C 783.776,277.838 774.776,276.171 766.5,271C 761.744,267.611 759.91,263.111 761,257.5C 763.299,255.464 765.799,255.131 768.5,256.5C 775.545,266.011 784.545,268.511 795.5,264C 801.574,258.591 801.907,252.925 796.5,247C 789.335,243.279 782.002,239.946 774.5,237C 762.328,228.809 759.828,218.309 767,205.5C 770.96,201.938 775.46,199.605 780.5,198.5 Z"/></g>
<g><path style="opacity:0.887" fill="#000000" d="M 94.5,199.5 C 98.2727,198.822 101.106,200.156 103,203.5C 111,213.5 119,223.5 127,233.5C 135.978,222.354 145.145,211.354 154.5,200.5C 157.903,198.813 160.736,199.48 163,202.5C 163.667,226.167 163.667,249.833 163,273.5C 159.667,276.167 156.333,276.167 153,273.5C 152.667,255.833 152.333,238.167 152,220.5C 144.978,228.688 138.144,237.021 131.5,245.5C 128.005,248.368 124.838,248.035 122,244.5C 115.667,236.5 109.333,228.5 103,220.5C 102.667,237.5 102.333,254.5 102,271.5C 99.4512,275.925 96.1179,276.592 92,273.5C 90.3546,250.588 90.0212,227.588 91,204.5C 91.2572,202.093 92.4238,200.427 94.5,199.5 Z"/></g>
<g><path style="opacity:0.927" fill="#000000" d="M 184.5,199.5 C 200.503,199.333 216.503,199.5 232.5,200C 235.864,202.729 236.197,205.729 233.5,209C 219.837,209.5 206.171,209.667 192.5,209.5C 192.5,217.167 192.5,224.833 192.5,232.5C 203.172,232.333 213.839,232.5 224.5,233C 227.299,236.339 226.966,239.339 223.5,242C 213.172,242.5 202.839,242.666 192.5,242.5C 192.5,250.167 192.5,257.833 192.5,265.5C 205.837,265.333 219.171,265.5 232.5,266C 236.072,268.626 236.405,271.626 233.5,275C 216.833,275.667 200.167,275.667 183.5,275C 183,274.5 182.5,274 182,273.5C 181.333,249.833 181.333,226.167 182,202.5C 182.698,201.309 183.531,200.309 184.5,199.5 Z"/></g>
<g><path style="opacity:0.88" fill="#000000" d="M 250.5,199.5 C 254.025,199.346 256.859,200.679 259,203.5C 272.667,220.833 286.333,238.167 300,255.5C 300.333,237.5 300.667,219.5 301,201.5C 304.075,198.941 307.075,198.941 310,201.5C 311.148,213.575 311.648,225.741 311.5,238C 311.333,249.5 311.167,261 311,272.5C 307.59,277.556 303.923,277.556 300,272.5C 286.714,254.879 273.048,237.546 259,220.5C 258.667,237.5 258.333,254.5 258,271.5C 255.451,275.925 252.118,276.592 248,273.5C 246.355,250.588 246.021,227.588 247,204.5C 247.257,202.093 248.424,200.427 250.5,199.5 Z"/></g>
<g><path style="opacity:0.86" fill="#000000" d="M 323.5,199.5 C 341.503,199.333 359.503,199.5 377.5,200C 381.692,202.239 382.359,205.239 379.5,209C 371.92,210.396 364.253,210.896 356.5,210.5C 356.667,230.836 356.5,251.169 356,271.5C 354.368,275.212 351.535,276.379 347.5,275C 346.107,273.829 345.273,272.329 345,270.5C 344.5,250.503 344.333,230.503 344.5,210.5C 337.053,210.929 329.719,210.429 322.5,209C 319.765,205.508 320.098,202.342 323.5,199.5 Z"/></g>
<g><path style="opacity:0.927" fill="#000000" d="M 393.5,199.5 C 409.503,199.333 425.503,199.5 441.5,200C 444.864,202.729 445.197,205.729 442.5,209C 428.837,209.5 415.171,209.667 401.5,209.5C 401.5,217.167 401.5,224.833 401.5,232.5C 412.172,232.333 422.839,232.5 433.5,233C 436.299,236.339 435.966,239.339 432.5,242C 422.172,242.5 411.839,242.666 401.5,242.5C 401.5,250.167 401.5,257.833 401.5,265.5C 414.837,265.333 428.171,265.5 441.5,266C 445.072,268.626 445.405,271.626 442.5,275C 425.833,275.667 409.167,275.667 392.5,275C 392,274.5 391.5,274 391,273.5C 390.333,249.833 390.333,226.167 391,202.5C 391.698,201.309 392.531,200.309 393.5,199.5 Z"/></g>
<g><path style="opacity:0.909" fill="#000000" d="M 829.5,199.5 C 834.029,199.496 837.529,201.496 840,205.5C 847.289,215.124 854.955,224.458 863,233.5C 871.808,222.057 880.975,210.891 890.5,200C 893.14,199.161 895.473,199.661 897.5,201.5C 898.656,225.457 898.823,249.457 898,273.5C 895.503,275.478 892.669,275.978 889.5,275C 888.874,274.25 888.374,273.416 888,272.5C 887.667,255.167 887.333,237.833 887,220.5C 880.286,228.212 873.953,236.212 868,244.5C 865.029,248.092 861.696,248.425 858,245.5C 851.713,236.878 845.047,228.545 838,220.5C 837.667,237.833 837.333,255.167 837,272.5C 836.242,274.91 834.575,275.91 832,275.5C 829.966,275.646 828.299,274.98 827,273.5C 826.333,249.833 826.333,226.167 827,202.5C 827.698,201.309 828.531,200.309 829.5,199.5 Z"/></g>
<g><path style="opacity:0.898" fill="#000000" d="M 940.5,199.5 C 943.272,199.22 945.772,199.887 948,201.5C 957.528,223.084 966.861,244.751 976,266.5C 977.648,274.187 974.814,277.021 967.5,275C 964.808,270.089 962.808,264.923 961.5,259.5C 949.495,259.333 937.495,259.5 925.5,260C 923.546,265.205 921.213,270.205 918.5,275C 911.51,277.005 908.676,274.505 910,267.5C 919,246.167 928,224.833 937,203.5C 938.376,202.295 939.542,200.962 940.5,199.5 Z M 942.5,216.5 C 947.649,226.812 952.315,237.479 956.5,248.5C 947.518,249.665 938.518,249.832 929.5,249C 934.252,238.329 938.586,227.496 942.5,216.5 Z"/></g>
<g><path style="opacity:0.901" fill="#000000" d="M 990.5,199.5 C 1000.17,199.334 1009.84,199.5 1019.5,200C 1031.33,202.152 1038.83,208.986 1042,220.5C 1043.19,227.521 1042.19,234.187 1039,240.5C 1035.96,243.711 1032.79,246.711 1029.5,249.5C 1034,255.833 1038.5,262.167 1043,268.5C 1044.25,272.926 1042.59,275.592 1038,276.5C 1036.37,276.122 1034.87,275.456 1033.5,274.5C 1028.29,267.244 1022.96,260.077 1017.5,253C 1011.18,252.5 1004.84,252.334 998.5,252.5C 998.666,259.508 998.5,266.508 998,273.5C 994.337,276.333 991.004,276 988,272.5C 987.333,249.5 987.333,226.5 988,203.5C 988.662,202.016 989.496,200.683 990.5,199.5 Z M 998.5,209.5 C 1005.89,209.253 1013.22,209.753 1020.5,211C 1030.87,216.114 1033.7,223.948 1029,234.5C 1027.13,236.709 1024.96,238.542 1022.5,240C 1014.59,241.401 1006.59,241.901 998.5,241.5C 998.5,230.833 998.5,220.167 998.5,209.5 Z"/></g>
<g><path style="opacity:0.896" fill="#000000" d="M 1050.5,199.5 C 1068.84,199.333 1087.17,199.5 1105.5,200C 1108.98,202.706 1109.31,205.706 1106.5,209C 1098.92,210.396 1091.25,210.896 1083.5,210.5C 1083.67,231.503 1083.5,252.503 1083,273.5C 1079.67,276.167 1076.33,276.167 1073,273.5C 1072.5,252.503 1072.33,231.503 1072.5,210.5C 1064.75,210.896 1057.08,210.396 1049.5,209C 1046.91,205.583 1047.24,202.416 1050.5,199.5 Z"/></g>
<g><path style="opacity:0.031" fill="#b4b4b4" d="M 471.5,198.5 C 471.727,200.933 470.727,202.599 468.5,203.5C 468.259,200.966 469.259,199.3 471.5,198.5 Z"/></g>
<g><path style="opacity:0.337" fill="#888888" d="M 480.5,191.5 C 485.105,193.471 489.438,195.971 493.5,199C 496.793,199.826 500.126,200.326 503.5,200.5C 503.833,201.167 504.167,201.833 504.5,202.5C 500.753,202.608 497.086,202.108 493.5,201C 490.755,198.965 487.755,197.299 484.5,196C 482.959,194.629 481.625,193.129 480.5,191.5 Z"/></g>
<g><path style="opacity:0.745" fill="#707070" d="M 531.5,207.5 C 530.833,207.5 530.167,207.5 529.5,207.5C 528.518,205.594 527.518,203.594 526.5,201.5C 519.078,203.291 511.745,203.624 504.5,202.5C 504.167,201.833 503.833,201.167 503.5,200.5C 505.783,201.029 508.117,201.363 510.5,201.5C 516.511,200.664 522.511,200.164 528.5,200C 529.601,202.472 530.601,204.972 531.5,207.5 Z"/></g>
<g><path style="opacity:0.357" fill="#7e7e7e" d="M 466.5,195.5 C 465.868,199.431 464.201,202.765 461.5,205.5C 461.279,201.132 462.946,197.798 466.5,195.5 Z"/></g>
<g><path style="opacity:0.235" fill="#b0b0b0" d="M 535.5,197.5 C 537.607,200.057 538.941,203.057 539.5,206.5C 536.636,204.262 535.303,201.262 535.5,197.5 Z"/></g>
<g><path style="opacity:0.063" fill="#c4c4c4" d="M 539.5,206.5 C 541.063,207.945 542.396,209.611 543.5,211.5C 541.003,210.871 539.67,209.204 539.5,206.5 Z"/></g>
<g><path style="opacity:0.118" fill="#a8a8a8" d="M 529.5,207.5 C 530.167,207.5 530.833,207.5 531.5,207.5C 532.435,209.861 533.768,212.028 535.5,214C 539.395,216.752 543.062,219.585 546.5,222.5C 538.66,219.995 532.993,214.995 529.5,207.5 Z"/></g>
<g><path style="opacity:0.246" fill="#888888" d="M 468.5,203.5 C 466.651,209.705 466.151,216.038 467,222.5C 469.065,227.069 470.899,231.735 472.5,236.5C 471.504,236.586 470.671,236.252 470,235.5C 464.906,227.212 463.239,218.212 465,208.5C 465.669,206.41 466.836,204.743 468.5,203.5 Z"/></g>
<g><path style="opacity:0.212" fill="#a9a9a9" d="M 461.5,205.5 C 460.68,211.797 460.347,218.131 460.5,224.5C 459.883,224.389 459.383,224.056 459,223.5C 457.781,217.058 458.614,211.058 461.5,205.5 Z"/></g>
<g><path style="opacity:0.063" fill="#bdbdbd" d="M 543.5,211.5 C 545.833,213.167 547.833,215.167 549.5,217.5C 546.192,216.935 544.192,214.935 543.5,211.5 Z"/></g>
<g><path style="opacity:0.212" fill="#b5b5b5" d="M 549.5,217.5 C 550.461,219.265 550.795,221.265 550.5,223.5C 549.209,223.737 548.209,223.404 547.5,222.5C 549.256,221.448 549.923,219.781 549.5,217.5 Z"/></g>
<g><path style="opacity:0.322" fill="#797979" d="M 692.5,226.5 C 691.833,226.5 691.167,226.5 690.5,226.5C 690.843,224.517 690.176,223.183 688.5,222.5C 688.5,221.5 688.5,220.5 688.5,219.5C 689.833,219.5 691.167,219.5 692.5,219.5C 692.5,221.833 692.5,224.167 692.5,226.5 Z"/></g>
<g><path style="opacity:0.335" fill="#909090" d="M 727.5,224.5 C 727.662,226.527 727.495,228.527 727,230.5C 726.583,231.756 725.75,232.423 724.5,232.5C 724.603,229.364 725.603,226.698 727.5,224.5 Z"/></g>
<g><path style="opacity:0.996" fill="#1c1c1c" d="M 688.5,222.5 C 690.176,223.183 690.843,224.517 690.5,226.5C 690.5,228.167 690.5,229.833 690.5,231.5C 690.634,233.292 690.301,234.958 689.5,236.5C 686.54,238.652 684.873,241.652 684.5,245.5C 681.397,247.423 678.397,249.59 675.5,252C 673.843,252.725 672.843,252.225 672.5,250.5C 672.5,249.833 672.833,249.5 673.5,249.5C 675.853,247.899 678.02,245.899 680,243.5C 683.774,237.678 686.274,231.345 687.5,224.5C 687.328,223.508 687.662,222.842 688.5,222.5 Z"/></g>
<g><path style="opacity:0.041" fill="#dbdbdb" d="M 690.5,226.5 C 691.167,226.5 691.833,226.5 692.5,226.5C 692.923,228.781 692.256,230.448 690.5,231.5C 690.5,229.833 690.5,228.167 690.5,226.5 Z"/></g>
<g><path style="opacity:0.357" fill="#7e7e7e" d="M 687.5,224.5 C 686.274,231.345 683.774,237.678 680,243.5C 678.02,245.899 675.853,247.899 673.5,249.5C 673.859,246.763 675.193,244.763 677.5,243.5C 679.104,242.713 679.771,241.38 679.5,239.5C 682.32,235.423 684.32,230.923 685.5,226C 685.836,224.97 686.503,224.47 687.5,224.5 Z"/></g>
<g><path style="opacity:0.024" fill="#cdcdcd" d="M 733.5,230.5 C 732.971,232.784 731.971,234.784 730.5,236.5C 730.031,233.607 731.031,231.607 733.5,230.5 Z"/></g>
<g><path style="opacity:0.1" fill="#b4b4b4" d="M 614.5,197.5 C 615.167,197.5 615.833,197.5 616.5,197.5C 616.5,211.5 616.5,225.5 616.5,239.5C 615.833,239.5 615.167,239.5 614.5,239.5C 614.5,225.5 614.5,211.5 614.5,197.5 Z"/></g>
<g><path style="opacity:0.082" fill="#b4b4b4" d="M 461.5,229.5 C 464.254,232.669 466.254,236.336 467.5,240.5C 464.214,237.6 462.214,233.933 461.5,229.5 Z"/></g>
<g><path style="opacity:0.184" fill="#9b9b9b" d="M 472.5,236.5 C 476.52,240.189 480.52,243.855 484.5,247.5C 480.852,246.678 477.852,244.844 475.5,242C 474.242,240.259 473.242,238.426 472.5,236.5 Z"/></g>
<g><path style="opacity:0.102" fill="#989898" d="M 689.5,236.5 C 689.116,240.272 687.45,243.272 684.5,245.5C 684.873,241.652 686.54,238.652 689.5,236.5 Z"/></g>
<g><path style="opacity:0.791" fill="#1f1f1f" d="M 600.5,143.5 C 601.329,151.323 601.829,159.323 602,167.5C 602.5,234.833 602.667,302.166 602.5,369.5C 601.833,369.833 601.167,370.167 600.5,370.5C 601.752,294.857 601.752,219.191 600.5,143.5 Z"/></g>
<g><path style="opacity:0.018" fill="#dedede" d="M 679.5,239.5 C 679.771,241.38 679.104,242.713 677.5,243.5C 677.66,241.847 678.326,240.514 679.5,239.5 Z"/></g>
<g><path style="opacity:0.067" fill="#b7b7b7" d="M 467.5,240.5 C 469.997,241.129 471.33,242.796 471.5,245.5C 469.413,244.415 468.08,242.749 467.5,240.5 Z"/></g>
<g><path style="opacity:0.102" fill="#b1b1b1" d="M 729.5,240.5 C 728.68,244.302 727.014,247.636 724.5,250.5C 725.037,246.528 726.704,243.194 729.5,240.5 Z"/></g>
<g><path style="opacity:0.435" fill="#8b8b8b" d="M 722.5,239.5 C 722.741,242.034 721.741,243.7 719.5,244.5C 719.592,242.152 720.592,240.486 722.5,239.5 Z"/></g>
<g><path style="opacity:0.169" fill="#909090" d="M 471.5,245.5 C 474.367,245.369 476.033,246.703 476.5,249.5C 473.796,249.33 472.129,247.997 471.5,245.5 Z"/></g>
<g><path style="opacity:0.025" fill="#c8c8c8" d="M 719.5,244.5 C 719.598,246.553 718.931,248.22 717.5,249.5C 717.402,247.447 718.069,245.78 719.5,244.5 Z"/></g>
<g><path style="opacity:0.059" fill="#cacaca" d="M 484.5,247.5 C 486.553,247.402 488.22,248.069 489.5,249.5C 487.447,249.598 485.78,248.931 484.5,247.5 Z"/></g>
<g><path style="opacity:0.059" fill="#a7a7a7" d="M 476.5,249.5 C 479.204,249.67 480.871,251.003 481.5,253.5C 478.937,253.269 477.27,251.935 476.5,249.5 Z"/></g>
<g><path style="opacity:0.612" fill="#8e8e8e" d="M 533.5,255.5 C 535.423,254.218 537.423,252.885 539.5,251.5C 539.167,251.167 538.833,250.833 538.5,250.5C 534.972,251.921 531.306,252.588 527.5,252.5C 527.611,251.883 527.944,251.383 528.5,251C 532.513,249.991 536.513,249.324 540.5,249C 541.833,250.667 541.833,252.333 540.5,254C 538.26,254.977 535.927,255.477 533.5,255.5 Z"/></g>
<g><path style="opacity:0.125" fill="#b5b5b5" d="M 489.5,249.5 C 493.745,250.49 497.745,251.824 501.5,253.5C 498.09,253.543 494.757,253.043 491.5,252C 490.244,251.583 489.577,250.75 489.5,249.5 Z"/></g>
<g><path style="opacity:0.227" fill="#acacac" d="M 684.5,245.5 C 682.924,248.913 680.424,251.58 677,253.5C 674.369,255.068 672.203,254.568 670.5,252C 671.044,251.283 671.711,250.783 672.5,250.5C 672.843,252.225 673.843,252.725 675.5,252C 678.397,249.59 681.397,247.423 684.5,245.5 Z"/></g>
<g><path style="opacity:0.373" fill="#a2a2a2" d="M 481.5,253.5 C 483.698,253.12 485.365,253.787 486.5,255.5C 484.447,255.598 482.78,254.931 481.5,253.5 Z"/></g>
<g><path style="opacity:0.863" fill="#6e6e6e" d="M 717.5,249.5 C 716.969,252.237 716.136,254.904 715,257.5C 714.329,258.252 713.496,258.586 712.5,258.5C 713.422,255.874 714.422,253.207 715.5,250.5C 715.957,249.702 716.624,249.369 717.5,249.5 Z"/></g>
<g><path style="opacity:0.194" fill="#8c8c8c" d="M 487.5,255.5 C 489.483,255.157 490.817,255.824 491.5,257.5C 490.978,259.219 489.978,260.552 488.5,261.5C 488.483,259.435 488.15,257.435 487.5,255.5 Z"/></g>
<g><path style="opacity:0.386" fill="#878787" d="M 533.5,255.5 C 532.653,256.966 531.32,257.8 529.5,258C 523.877,259.029 518.21,259.529 512.5,259.5C 513.5,258.833 514.5,258.167 515.5,257.5C 521.5,256.833 527.5,256.167 533.5,255.5 Z"/></g>
<g><path style="opacity:0.335" fill="#757575" d="M 515.5,257.5 C 514.5,258.167 513.5,258.833 512.5,259.5C 506.664,260.168 500.831,259.835 495,258.5C 494.501,264.491 494.334,270.491 494.5,276.5C 493.509,270.021 493.176,263.354 493.5,256.5C 500.799,257.35 508.132,257.683 515.5,257.5 Z"/></g>
<g><path style="opacity:0.51" fill="#888888" d="M 712.5,258.5 C 712.019,261.834 710.353,264.167 707.5,265.5C 707.981,262.166 709.647,259.833 712.5,258.5 Z"/></g>
<g><path style="opacity:0.067" fill="#9c9c9c" d="M 724.5,251.5 C 722.281,256.709 719.281,261.376 715.5,265.5C 716.573,259.458 719.573,254.791 724.5,251.5 Z"/></g>
<g><path style="opacity:0.294" fill="#a4a4a4" d="M 715.5,265.5 C 714.277,269.049 712.277,272.049 709.5,274.5C 710.277,270.592 712.277,267.592 715.5,265.5 Z"/></g>
<g><path style="opacity:0.536" fill="#626262" d="M 488.5,261.5 C 487.837,270.217 488.504,278.884 490.5,287.5C 489.833,287.5 489.167,287.5 488.5,287.5C 485.884,278.838 485.884,270.172 488.5,261.5 Z"/></g>
<g><path style="opacity:0.263" fill="#9d9d9d" d="M 707.5,265.5 C 707.649,266.552 707.483,267.552 707,268.5C 704.048,272.099 700.882,275.433 697.5,278.5C 700.13,273.548 703.463,269.215 707.5,265.5 Z"/></g>
<g><path style="opacity:0.488" fill="#666666" d="M 574.5,281.5 C 573.833,281.5 573.167,281.5 572.5,281.5C 573.683,277.841 573.683,274.175 572.5,270.5C 571.711,273.646 571.045,276.813 570.5,280C 570.164,281.03 569.497,281.53 568.5,281.5C 568.5,280.833 568.5,280.167 568.5,279.5C 569.222,279.082 569.722,278.416 570,277.5C 570.497,274.854 570.664,272.187 570.5,269.5C 571.455,267.29 572.955,266.957 575,268.5C 575.814,273.02 575.647,277.354 574.5,281.5 Z"/></g>
<g><path style="opacity:0.361" fill="#b4b4b4" d="M 570.5,269.5 C 570.664,272.187 570.497,274.854 570,277.5C 569.722,278.416 569.222,279.082 568.5,279.5C 568.899,275.989 569.566,272.656 570.5,269.5 Z"/></g>
<g><path style="opacity:0.533" fill="#909090" d="M 697.5,278.5 C 697.33,281.204 695.997,282.871 693.5,283.5C 693.67,280.796 695.003,279.129 697.5,278.5 Z"/></g>
<g><path style="opacity:0.141" fill="#a0a0a0" d="M 709.5,274.5 C 707.189,277.663 705.022,280.997 703,284.5C 702.329,285.252 701.496,285.586 700.5,285.5C 702.017,280.647 705.017,276.981 709.5,274.5 Z"/></g>
<g><path style="opacity:0.365" fill="#909090" d="M 568.5,279.5 C 568.5,280.167 568.5,280.833 568.5,281.5C 568.5,283.5 567.5,284.5 565.5,284.5C 565.75,282.326 566.75,280.659 568.5,279.5 Z"/></g>
<g><path style="opacity:0.286" fill="#919191" d="M 494.5,278.5 C 496.62,282.103 498.287,286.103 499.5,290.5C 497.589,290.426 496.422,289.426 496,287.5C 495.338,285.187 494.838,282.854 494.5,280.5C 494.5,279.833 494.5,279.167 494.5,278.5 Z"/></g>
<g><path style="opacity:0.169" fill="#909090" d="M 693.5,283.5 C 692.932,287.067 690.932,289.401 687.5,290.5C 688.339,287.145 690.339,284.812 693.5,283.5 Z"/></g>
<g><path style="opacity:0.341" fill="#979797" d="M 488.5,287.5 C 489.167,287.5 489.833,287.5 490.5,287.5C 492.056,292.379 494.056,297.045 496.5,301.5C 495.504,301.586 494.671,301.252 494,300.5C 492.601,297.371 490.935,294.371 489,291.5C 488.51,290.207 488.343,288.873 488.5,287.5 Z"/></g>
<g><path style="opacity:0.127" fill="#adadad" d="M 565.5,284.5 C 564.306,288.363 561.973,291.363 558.5,293.5C 560.458,290.208 562.791,287.208 565.5,284.5 Z"/></g>
<g><path style="opacity:0.137" fill="#979797" d="M 699.5,286.5 C 697.913,289.268 696.08,291.935 694,294.5C 693.184,295.823 692.017,296.489 690.5,296.5C 690.709,295.078 691.209,293.745 692,292.5C 694.312,290.132 696.812,288.132 699.5,286.5 Z"/></g>
<g><path style="opacity:0.519" fill="#5d5d5d" d="M 607.5,211.5 C 608.167,211.5 608.833,211.5 609.5,211.5C 609.263,261.507 609.597,311.507 610.5,361.5C 609.833,360.833 609.167,360.167 608.5,359.5C 607.543,310.179 607.21,260.845 607.5,211.5 Z"/></g>
<g><path style="opacity:0.235" fill="#a7a7a7" d="M 687.5,290.5 C 687.167,292.833 685.833,294.167 683.5,294.5C 683.957,292.227 685.29,290.894 687.5,290.5 Z"/></g>
<g><path style="opacity:0.161" fill="#a5a5a5" d="M 499.5,290.5 C 502.584,293.079 505.584,295.913 508.5,299C 512.925,301.213 517.259,303.379 521.5,305.5C 511.383,304.353 504.049,299.353 499.5,290.5 Z"/></g>
<g><path style="opacity:0.051" fill="#a5a5a5" d="M 683.5,294.5 C 681.895,299.104 678.895,302.438 674.5,304.5C 677.51,301.126 680.51,297.792 683.5,294.5 Z"/></g>
<g><path style="opacity:0.216" fill="#969696" d="M 689.5,297.5 C 689.33,300.204 687.997,301.871 685.5,302.5C 685.369,299.633 686.703,297.967 689.5,297.5 Z"/></g>
<g><path style="opacity:0.282" fill="#989898" d="M 572.5,281.5 C 573.167,281.5 573.833,281.5 574.5,281.5C 570.45,295.256 561.95,305.256 549,311.5C 549.29,314.413 549.457,317.413 549.5,320.5C 548.883,320.389 548.383,320.056 548,319.5C 547.5,317 547,314.5 546.5,312C 553.819,306.696 560.653,300.53 567,293.5C 570.187,290.126 572.02,286.126 572.5,281.5 Z"/></g>
<g><path style="opacity:0.529" fill="#999999" d="M 558.5,293.5 C 557.972,294.721 557.305,295.887 556.5,297C 551.464,300.57 546.131,303.404 540.5,305.5C 538.833,305.5 537.167,305.5 535.5,305.5C 539.565,303.411 543.898,301.577 548.5,300C 551.464,297.19 554.798,295.024 558.5,293.5 Z"/></g>
<g><path style="opacity:0.573" fill="#616161" d="M 521.5,305.5 C 526.167,305.5 530.833,305.5 535.5,305.5C 537.167,305.5 538.833,305.5 540.5,305.5C 537.135,307.039 533.469,307.706 529.5,307.5C 526.41,307.478 523.743,306.812 521.5,305.5 Z"/></g>
<g><path style="opacity:0.122" fill="#9e9e9e" d="M 496.5,301.5 C 501.597,305.01 506.597,308.676 511.5,312.5C 505.094,310.762 500.094,307.095 496.5,301.5 Z"/></g>
<g><path style="opacity:0.176" fill="#909090" d="M 685.5,302.5 C 682.261,307.286 678.761,311.953 675,316.5C 674.062,318.488 673.228,320.488 672.5,322.5C 671.833,322.5 671.167,322.5 670.5,322.5C 671.1,319.702 672.1,317.035 673.5,314.5C 676.5,310.833 679.5,307.167 682.5,303.5C 683.325,302.614 684.325,302.281 685.5,302.5 Z"/></g>
<g><path style="opacity:0.169" fill="#989898" d="M 512.5,312.5 C 515.167,312.833 517.833,313.167 520.5,313.5C 520.5,314.167 520.5,314.833 520.5,315.5C 517.189,315.693 514.522,314.693 512.5,312.5 Z"/></g>
<g><path style="opacity:0.157" fill="#a7a7a7" d="M 544.5,313.5 C 544.5,316.833 544.5,320.167 544.5,323.5C 543.523,320.713 543.19,317.713 543.5,314.5C 540.873,315.092 538.206,315.425 535.5,315.5C 535.5,314.833 535.5,314.167 535.5,313.5C 538.612,312.922 541.612,312.922 544.5,313.5 Z"/></g>
<g><path style="opacity:0.267" fill="#737373" d="M 520.5,313.5 C 525.455,314.72 530.455,314.72 535.5,313.5C 535.5,314.167 535.5,314.833 535.5,315.5C 530.5,316.833 525.5,316.833 520.5,315.5C 520.5,314.833 520.5,314.167 520.5,313.5 Z"/></g>
<g><path style="opacity:0.282" fill="#999999" d="M 674.5,304.5 C 672.664,309.492 670.164,314.159 667,318.5C 666.506,320.134 666.34,321.801 666.5,323.5C 665.833,323.5 665.167,323.5 664.5,323.5C 665.986,316.194 669.32,309.86 674.5,304.5 Z"/></g>
<g><path style="opacity:0.01" fill="#efefef" d="M 670.5,322.5 C 671.167,322.5 671.833,322.5 672.5,322.5C 672.88,324.698 672.213,326.365 670.5,327.5C 670.5,326.167 670.5,324.833 670.5,323.5C 670.5,323.167 670.5,322.833 670.5,322.5 Z"/></g>
<g><path style="opacity:0.016" fill="#e2e2e2" d="M 614.5,239.5 C 615.167,239.5 615.833,239.5 616.5,239.5C 616.5,281.167 616.5,322.833 616.5,364.5C 615.833,364.5 615.167,364.5 614.5,364.5C 614.5,322.833 614.5,281.167 614.5,239.5 Z"/></g>
<g><path style="opacity:0.357" fill="#a8a8a8" d="M 549.5,320.5 C 550.996,326.605 551.663,332.938 551.5,339.5C 550.253,333.37 549.586,327.037 549.5,320.5 Z"/></g>
<g><path style="opacity:0.573" fill="#616161" d="M 664.5,323.5 C 665.167,323.5 665.833,323.5 666.5,323.5C 665.537,330.46 664.704,337.46 664,344.5C 663.617,345.056 663.117,345.389 662.5,345.5C 662.748,338.108 663.414,330.775 664.5,323.5 Z"/></g>
<g><path style="opacity:0.557" fill="#545454" d="M 670.5,323.5 C 670.5,324.833 670.5,326.167 670.5,327.5C 670.813,331.042 670.479,334.375 669.5,337.5C 669.11,340.797 668.11,343.797 666.5,346.5C 667.362,339.529 668.195,332.529 669,325.5C 669.278,324.584 669.778,323.918 670.5,323.5 Z"/></g>
<g><path style="opacity:0.418" fill="#535353" d="M 544.5,313.5 C 546.39,326.284 547.39,339.284 547.5,352.5C 546.833,352.5 546.167,352.5 545.5,352.5C 544.801,342.849 544.468,333.183 544.5,323.5C 544.5,320.167 544.5,316.833 544.5,313.5 Z"/></g>
<g><path style="opacity:0.051" fill="#dedede" d="M 551.5,340.5 C 552.117,340.611 552.617,340.944 553,341.5C 553.498,344.817 553.665,348.15 553.5,351.5C 552.833,351.5 552.167,351.5 551.5,351.5C 551.5,347.833 551.5,344.167 551.5,340.5 Z"/></g>
<g><path style="opacity:0.285" fill="#9e9e9e" d="M 669.5,337.5 C 669.595,342.887 669.095,348.22 668,353.5C 667.878,355.437 667.045,356.77 665.5,357.5C 665.942,353.846 666.276,350.179 666.5,346.5C 668.11,343.797 669.11,340.797 669.5,337.5 Z"/></g>
<g><path style="opacity:0.22" fill="#aeaeae" d="M 662.5,345.5 C 662.492,348.545 662.159,351.545 661.5,354.5C 660.833,354.5 660.167,354.5 659.5,354.5C 659.747,351.146 660.747,348.146 662.5,345.5 Z"/></g>
<g><path style="opacity:0.322" fill="#acacac" d="M 545.5,352.5 C 546.167,352.5 546.833,352.5 547.5,352.5C 547.684,356.716 548.684,360.716 550.5,364.5C 547.21,361.244 545.543,357.244 545.5,352.5 Z"/></g>
<g><path style="opacity:0.29" fill="#969696" d="M 551.5,351.5 C 552.167,351.5 552.833,351.5 553.5,351.5C 554.615,356.284 557.282,359.95 561.5,362.5C 554.745,362.012 551.412,358.345 551.5,351.5 Z"/></g>
<g><path style="opacity:0.161" fill="#868686" d="M 608.5,359.5 C 609.167,360.167 609.833,360.833 610.5,361.5C 610.795,363.735 610.461,365.735 609.5,367.5C 608.527,365.052 608.194,362.385 608.5,359.5 Z"/></g>
<g><path style="opacity:0.525" fill="#9f9f9f" d="M 561.5,362.5 C 564.733,363.609 568.066,364.442 571.5,365C 572.056,365.383 572.389,365.883 572.5,366.5C 570.833,366.5 569.167,366.5 567.5,366.5C 565.06,365.762 563.06,364.429 561.5,362.5 Z"/></g>
<g><path style="opacity:0.114" fill="#a2a2a2" d="M 665.5,357.5 C 664.783,365.209 660.783,370.209 653.5,372.5C 655.076,369.945 657.243,367.945 660,366.5C 662.125,363.572 663.958,360.572 665.5,357.5 Z"/></g>
<g><path style="opacity:0.094" fill="#989898" d="M 550.5,364.5 C 553.803,365.151 556.47,366.818 558.5,369.5C 555.197,368.849 552.53,367.182 550.5,364.5 Z"/></g>
<g><path style="opacity:0.563" fill="#707070" d="M 595.5,173.5 C 595.5,238.5 595.5,303.5 595.5,368.5C 587.16,368.666 578.827,368.5 570.5,368C 569.263,367.768 568.263,367.268 567.5,366.5C 569.167,366.5 570.833,366.5 572.5,366.5C 579.833,366.5 587.167,366.5 594.5,366.5C 594.168,301.998 594.501,237.665 595.5,173.5 Z"/></g>
<g><path style="opacity:0.245" fill="#828282" d="M 659.5,354.5 C 660.167,354.5 660.833,354.5 661.5,354.5C 659.908,361.264 655.908,366.098 649.5,369C 647.527,369.495 645.527,369.662 643.5,369.5C 651.343,367.328 656.677,362.328 659.5,354.5 Z"/></g>
<g><path style="opacity:0.243" fill="#9e9e9e" d="M 614.5,364.5 C 615.167,364.5 615.833,364.5 616.5,364.5C 616.414,365.496 616.748,366.329 617.5,367C 625.24,369.316 633.24,370.15 641.5,369.5C 633.288,370.844 624.955,370.677 616.5,369C 615.418,367.67 614.751,366.17 614.5,364.5 Z"/></g>
<g><path style="opacity:0.429" fill="#7b7b7b" d="M 558.5,369.5 C 562.443,370.486 566.443,371.152 570.5,371.5C 570.611,372.117 570.944,372.617 571.5,373C 574.036,373.186 576.369,373.686 578.5,374.5C 571.979,374.662 565.646,373.662 559.5,371.5C 558.702,371.043 558.369,370.376 558.5,369.5 Z"/></g>
<g><path style="opacity:0.188" fill="#909090" d="M 602.5,369.5 C 602.167,371.833 600.833,373.167 598.5,373.5C 598.427,371.973 599.094,370.973 600.5,370.5C 601.167,370.167 601.833,369.833 602.5,369.5 Z"/></g>
<g><path style="opacity:0.216" fill="#808080" d="M 609.5,368.5 C 611.71,368.894 613.043,370.227 613.5,372.5C 611.5,371.833 610.167,370.5 609.5,368.5 Z"/></g>
<g><path style="opacity:0.626" fill="#383838" d="M 570.5,371.5 C 579.734,373.179 589.067,373.846 598.5,373.5C 597.791,374.404 596.791,374.737 595.5,374.5C 589.833,374.5 584.167,374.5 578.5,374.5C 576.369,373.686 574.036,373.186 571.5,373C 570.944,372.617 570.611,372.117 570.5,371.5 Z"/></g>
<g><path style="opacity:0.027" fill="#c1c1c1" d="M 613.5,372.5 C 615.117,373.038 616.784,373.371 618.5,373.5C 618.5,374.167 618.5,374.833 618.5,375.5C 616.067,375.727 614.401,374.727 613.5,372.5 Z"/></g>
<g><path style="opacity:0.043" fill="#ededed" d="M 578.5,374.5 C 584.167,374.5 589.833,374.5 595.5,374.5C 595.082,375.222 594.416,375.722 593.5,376C 588.833,376.667 584.167,376.667 579.5,376C 578.944,375.617 578.611,375.117 578.5,374.5 Z"/></g>
<g><path style="opacity:0.441" fill="#797979" d="M 618.5,373.5 C 627.846,374.805 637.179,374.805 646.5,373.5C 646.5,374.167 646.5,374.833 646.5,375.5C 637.209,376.781 627.876,376.781 618.5,375.5C 618.5,374.833 618.5,374.167 618.5,373.5 Z"/></g>
<g><path style="opacity:0.02" fill="#d0d0d0" d="M 653.5,372.5 C 651.815,374.818 649.481,375.818 646.5,375.5C 646.5,374.833 646.5,374.167 646.5,373.5C 648.861,373.326 651.194,372.993 653.5,372.5 Z"/></g>
<g><path style="opacity:0.199" fill="#3f3f3f" d="M 653.5,382.5 C 652.527,382.013 651.527,381.513 650.5,381C 620.5,380.333 590.5,380.333 560.5,381C 559.099,381.41 557.766,381.91 556.5,382.5C 556.574,380.589 557.574,379.422 559.5,379C 589.833,378.333 620.167,378.333 650.5,379C 652.426,379.422 653.426,380.589 653.5,382.5 Z"/></g>
<g><path style="opacity:0.996" fill="#151616" d="M 653.5,382.5 C 655.161,387.343 653.494,390.51 648.5,392C 619.095,392.824 589.761,392.658 560.5,391.5C 558.187,388.98 556.854,385.98 556.5,382.5C 557.766,381.91 559.099,381.41 560.5,381C 590.5,380.333 620.5,380.333 650.5,381C 651.527,381.513 652.527,382.013 653.5,382.5 Z"/></g>
<g><path style="opacity:0.592" fill="#6e6e6e" d="M 556.5,382.5 C 556.854,385.98 558.187,388.98 560.5,391.5C 555.751,389.933 554.417,386.933 556.5,382.5 Z"/></g>
<g><path style="opacity:0.849" fill="#2f2f2f" d="M 653.5,404.5 C 652.833,404.833 652.167,405.167 651.5,405.5C 652.901,402.673 652.567,400.006 650.5,397.5C 620.172,396.333 589.839,396.167 559.5,397C 558.756,398.039 557.756,398.539 556.5,398.5C 556.953,397.542 557.619,396.708 558.5,396C 589.5,395.333 620.5,395.333 651.5,396C 653.956,398.511 654.623,401.344 653.5,404.5 Z"/></g>
<g><path style="opacity:0.941" fill="#000000" d="M 651.5,405.5 C 649.81,405.856 648.81,406.856 648.5,408.5C 619.5,408.5 590.5,408.5 561.5,408.5C 560.793,406.866 559.627,405.532 558,404.5C 557.802,402.618 557.302,400.952 556.5,399.5C 556.5,399.167 556.5,398.833 556.5,398.5C 557.756,398.539 558.756,398.039 559.5,397C 589.839,396.167 620.172,396.333 650.5,397.5C 652.567,400.006 652.901,402.673 651.5,405.5 Z"/></g>
<g><path style="opacity:0.141" fill="#6a6a6a" d="M 556.5,399.5 C 557.302,400.952 557.802,402.618 558,404.5C 559.627,405.532 560.793,406.866 561.5,408.5C 557.655,408.152 555.655,405.985 555.5,402C 555.528,400.93 555.861,400.097 556.5,399.5 Z"/></g>
<g><path style="opacity:0.122" fill="#838383" d="M 653.5,404.5 C 653.033,407.297 651.367,408.631 648.5,408.5C 648.81,406.856 649.81,405.856 651.5,405.5C 652.167,405.167 652.833,404.833 653.5,404.5 Z"/></g>
<g><path style="opacity:0.006" fill="#ababab" d="M 568.5,412.5 C 568.672,413.492 568.338,414.158 567.5,414.5C 566.243,413.377 566.576,412.711 568.5,412.5 Z"/></g>
<g><path style="opacity:0.954" fill="#0b0b0b" d="M 642.5,413.5 C 639.373,417.846 637.373,422.846 636.5,428.5C 615.156,428.833 593.823,428.5 572.5,427.5C 571.355,424.058 570.021,420.725 568.5,417.5C 569.757,416.377 569.424,415.711 567.5,415.5C 567.5,415.167 567.5,414.833 567.5,414.5C 568.338,414.158 568.672,413.492 568.5,412.5C 591.161,412.53 613.995,412.197 637,411.5C 639.295,411.547 641.129,412.213 642.5,413.5 Z"/></g>
<g><path style="opacity:0.055" fill="#a7a7a7" d="M 567.5,415.5 C 569.424,415.711 569.757,416.377 568.5,417.5C 567.662,417.158 567.328,416.492 567.5,415.5 Z"/></g>
<g><path style="opacity:0.463" fill="#686868" d="M 642.5,413.5 C 641.627,419.154 639.627,424.154 636.5,428.5C 637.373,422.846 639.373,417.846 642.5,413.5 Z"/></g>
</svg>
