<?xml version="1.0" encoding="UTF-8"?>
<!DOCTYPE svg PUBLIC "-//W3C//DTD SVG 1.1//EN" "http://www.w3.org/Graphics/SVG/1.1/DTD/svg11.dtd">
<svg xmlns="http://www.w3.org/2000/svg" version="1.1" width="1200px" height="500px" style="shape-rendering:geometricPrecision; text-rendering:geometricPrecision; image-rendering:optimizeQuality; fill-rule:evenodd; clip-rule:evenodd" xmlns:xlink="http://www.w3.org/1999/xlink">
<g><path style="opacity:0.873" fill="#5d5d5f" d="M 145.5,73.5 C 137.713,72.5775 130.047,72.2441 122.5,72.5C 122.791,71.3509 123.624,70.6842 125,70.5C 132.358,68.7026 139.192,69.7026 145.5,73.5 Z"/></g>
<g><path style="opacity:0.998" fill="#f0f0f0" d="M 199.5,72.5 C 209.839,72.3335 220.172,72.5002 230.5,73C 232.708,73.1909 234.708,73.6909 236.5,74.5C 236.47,75.4972 236.97,76.1639 238,76.5C 241.094,77.5655 244.26,78.2322 247.5,78.5C 247.833,78.5 248.167,78.5 248.5,78.5C 249.918,80.3079 251.918,80.9746 254.5,80.5C 255.985,83.0827 258.318,84.416 261.5,84.5C 262.392,87.2921 264.392,88.6254 267.5,88.5C 269.431,91.2644 272.098,92.9311 275.5,93.5C 275.833,96.5 277.5,98.1667 280.5,98.5C 280.833,98.5 281.167,98.5 281.5,98.5C 281.936,101.352 283.603,103.019 286.5,103.5C 287.167,103.5 287.5,103.833 287.5,104.5C 288.573,109.019 291.24,112.019 295.5,113.5C 296.247,116.362 297.914,118.362 300.5,119.5C 301.338,119.842 301.672,120.508 301.5,121.5C 301.956,124.763 303.623,127.096 306.5,128.5C 306.5,128.833 306.5,129.167 306.5,129.5C 307.075,132.954 308.742,135.621 311.5,137.5C 313.636,146.935 317.303,155.602 322.5,163.5C 322.5,163.833 322.5,164.167 322.5,164.5C 323.003,168.683 323.669,172.849 324.5,177C 324.684,178.376 325.351,179.209 326.5,179.5C 327.477,182.287 327.81,185.287 327.5,188.5C 327.5,195.5 327.5,202.5 327.5,209.5C 327.698,214.75 327.031,219.75 325.5,224.5C 323.307,226.522 322.307,229.189 322.5,232.5C 319.918,237.042 317.418,241.708 315,246.5C 313.722,250.165 312.556,253.832 311.5,257.5C 309.065,258.27 307.731,259.937 307.5,262.5C 305.192,265.063 302.858,267.73 300.5,270.5C 298.98,272.662 297.98,274.995 297.5,277.5C 294.428,278.301 292.762,280.301 292.5,283.5C 288.036,287.156 283.869,291.156 280,295.5C 278.374,298.128 276.374,300.461 274,302.5C 273.209,303.745 272.709,305.078 272.5,306.5C 272.5,307.167 272.167,307.5 271.5,307.5C 268.703,307.967 267.369,309.633 267.5,312.5C 264.334,314.154 262.667,316.821 262.5,320.5C 262.159,326.249 261.493,331.916 260.5,337.5C 258.156,340.073 257.823,343.073 259.5,346.5C 259.5,346.833 259.5,347.167 259.5,347.5C 257.744,348.552 257.077,350.219 257.5,352.5C 257.675,354.621 257.341,356.621 256.5,358.5C 252.534,364.466 247.534,369.466 241.5,373.5C 229.498,374.805 217.498,374.805 205.5,373.5C 204.508,373.672 203.842,373.338 203.5,372.5C 202.05,366.762 200.717,361.095 199.5,355.5C 199.5,354.5 199.5,353.5 199.5,352.5C 199.5,340.5 199.5,328.5 199.5,316.5C 199.5,306.833 199.5,297.167 199.5,287.5C 199.5,269.167 199.5,250.833 199.5,232.5C 199.5,179.167 199.5,125.833 199.5,72.5 Z M 227.5,81.5 C 230.495,83.2429 233.829,84.2429 237.5,84.5C 239.993,85.7736 242.659,86.4403 245.5,86.5C 252.587,89.8781 259.587,93.5447 266.5,97.5C 266.5,98.8333 267.167,99.5 268.5,99.5C 269.29,100.401 270.29,101.068 271.5,101.5C 272.167,102.833 273.167,103.833 274.5,104.5C 275.922,105.925 277.589,106.925 279.5,107.5C 280.167,110.167 281.833,111.833 284.5,112.5C 287.617,117.101 290.95,121.434 294.5,125.5C 295.256,128.394 296.923,130.394 299.5,131.5C 299.5,131.833 299.5,132.167 299.5,132.5C 303.244,138.987 306.744,145.653 310,152.5C 310.834,155.172 311.668,157.839 312.5,160.5C 312.957,161.298 313.624,161.631 314.5,161.5C 314.5,161.833 314.5,162.167 314.5,162.5C 315.663,167.819 316.829,173.153 318,178.5C 318.383,179.056 318.883,179.389 319.5,179.5C 319.298,181.95 319.631,184.283 320.5,186.5C 320.69,197.857 320.356,209.19 319.5,220.5C 317.518,222.597 316.518,225.264 316.5,228.5C 316.5,228.833 316.5,229.167 316.5,229.5C 315.076,231.515 314.41,233.848 314.5,236.5C 312.163,238.507 310.829,241.173 310.5,244.5C 309.89,245.391 309.557,246.391 309.5,247.5C 306.585,249.651 304.918,252.651 304.5,256.5C 303.504,256.414 302.671,256.748 302,257.5C 300.194,261.78 298.027,265.78 295.5,269.5C 292.902,270.68 291.236,272.68 290.5,275.5C 286.078,279.587 282.411,284.254 279.5,289.5C 277.629,289.859 276.129,290.859 275,292.5C 272.035,296.821 268.868,300.821 265.5,304.5C 265.167,305.167 264.833,305.833 264.5,306.5C 261.647,307.833 259.981,310.166 259.5,313.5C 259.5,313.833 259.5,314.167 259.5,314.5C 258.504,314.414 257.671,314.748 257,315.5C 255.957,318.757 255.457,322.09 255.5,325.5C 254.518,328.962 254.185,332.629 254.5,336.5C 253.883,336.611 253.383,336.944 253,337.5C 252.382,343.872 251.549,350.206 250.5,356.5C 248.402,359.169 246.402,362.003 244.5,365C 241.402,366.228 238.402,367.394 235.5,368.5C 235.167,368.5 234.833,368.5 234.5,368.5C 226.07,370.071 217.737,369.737 209.5,367.5C 208.504,367.586 207.671,367.252 207,366.5C 206.5,292.834 206.333,219.167 206.5,145.5C 207.497,124.006 207.831,102.34 207.5,80.5C 214.18,80.6123 220.847,80.9457 227.5,81.5 Z"/></g>
<g><path style="opacity:0.851" fill="#595656" d="M 185.5,77.5 C 175.055,74.5088 164.722,74.8421 154.5,78.5C 151.87,77.6221 149.203,76.9555 146.5,76.5C 146.5,75.5 146.5,74.5 146.5,73.5C 149.343,74.1717 151.843,75.505 154,77.5C 155.72,74.9045 158.22,73.4045 161.5,73C 169,71.9885 176.333,72.6552 183.5,75C 184.756,75.4169 185.423,76.2502 185.5,77.5 Z"/></g>
<g><path style="opacity:0.714" fill="#8c8c8c" d="M 236.5,74.5 C 239.74,74.7678 242.906,75.4345 246,76.5C 247.03,76.8361 247.53,77.5028 247.5,78.5C 244.26,78.2322 241.094,77.5655 238,76.5C 236.97,76.1639 236.47,75.4972 236.5,74.5 Z"/></g>
<g><path style="opacity:0.867" fill="#535550" d="M 121.5,72.5 C 119.43,76.3823 116.097,78.549 111.5,79C 110.295,80.3756 108.962,81.5423 107.5,82.5C 110.474,76.8675 115.141,73.5342 121.5,72.5 Z"/></g>
<g><path style="opacity:1" fill="#f4d669" d="M 142.5,78.5 C 144.515,79.9238 146.848,80.5905 149.5,80.5C 153.056,81.9853 156.389,81.652 159.5,79.5C 166.161,78.2263 172.828,78.2263 179.5,79.5C 181.5,80.1667 183.5,80.8333 185.5,81.5C 186.807,95.9611 186.807,110.294 185.5,124.5C 184.669,137.994 184.169,151.661 184,165.5C 183.5,231.832 183.333,298.166 183.5,364.5C 174.937,365.01 166.603,364.177 158.5,362C 161.028,361.002 161.028,360.169 158.5,359.5C 153.312,361.535 149.312,360.202 146.5,355.5C 147.046,353.865 147.38,352.199 147.5,350.5C 146.167,350.5 144.833,350.5 143.5,350.5C 143.806,347.615 143.473,344.948 142.5,342.5C 141.496,331.815 140.663,321.149 140,310.5C 142.064,308.699 143.898,306.699 145.5,304.5C 145.5,303.833 145.833,303.5 146.5,303.5C 148.749,302.92 150.415,301.587 151.5,299.5C 151.833,298.5 152.5,297.833 153.5,297.5C 155.537,295.359 158.037,294.026 161,293.5C 161.236,289.661 162.069,285.994 163.5,282.5C 164.329,277.547 164.663,272.547 164.5,267.5C 163.167,267.5 161.833,267.5 160.5,267.5C 160.881,272.802 159.881,277.802 157.5,282.5C 157.167,283.167 156.833,283.833 156.5,284.5C 154.469,285.539 153.136,287.205 152.5,289.5C 148.687,292.803 144.687,295.969 140.5,299C 135.448,300.959 130.448,302.792 125.5,304.5C 121.486,304.666 117.486,304.499 113.5,304C 110.467,302.156 107.134,301.156 103.5,301C 101.732,297.313 98.7315,295.48 94.5,295.5C 90.6599,292.319 87.9932,288.319 86.5,283.5C 84.8386,274.605 84.1719,265.605 84.5,256.5C 85.8333,256.5 87.1667,256.5 88.5,256.5C 95.5,257.833 102.5,257.833 109.5,256.5C 114.312,257.035 118.645,256.035 122.5,253.5C 124.167,252.833 125.833,252.167 127.5,251.5C 128.5,251.5 129.5,251.5 130.5,251.5C 130.5,250.5 130.5,249.5 130.5,248.5C 125.965,249.137 121.632,250.137 117.5,251.5C 106.831,252.789 96.1648,252.789 85.5,251.5C 73.1564,247.73 63.9897,240.063 58,228.5C 52.1466,212.797 55.3132,199.297 67.5,188C 70.8199,188.265 73.4865,189.931 75.5,193C 77.8864,194.193 80.2198,195.36 82.5,196.5C 84.6174,198.655 87.284,199.655 90.5,199.5C 96.1209,200.354 101.788,200.687 107.5,200.5C 110.518,200.335 113.518,200.502 116.5,201C 118.704,207.148 122.704,211.648 128.5,214.5C 131.555,217.875 135.222,219.209 139.5,218.5C 132.654,212.15 127.821,204.484 125,195.5C 124.333,188.833 124.333,182.167 125,175.5C 125.198,173.618 125.698,171.952 126.5,170.5C 128.04,168.162 128.706,165.495 128.5,162.5C 127.209,162.263 126.209,162.596 125.5,163.5C 123.738,164.262 122.738,165.596 122.5,167.5C 120.407,169.53 118.574,171.864 117,174.5C 115.136,180.697 114.303,187.03 114.5,193.5C 103.973,194.387 93.973,192.887 84.5,189C 82.5273,188.505 80.5273,188.338 78.5,188.5C 74.6307,185.298 71.964,181.298 70.5,176.5C 69.3112,172.15 69.3112,167.817 70.5,163.5C 66.6937,159.339 66.527,155.005 70,150.5C 69.5184,144.707 71.185,139.707 75,135.5C 75.3333,136.833 75.6667,138.167 76,139.5C 76.2724,136.746 76.7724,134.079 77.5,131.5C 82.2337,125.798 88.2337,122.131 95.5,120.5C 95.8004,126.904 97.967,132.571 102,137.5C 107.061,145.561 113.727,151.895 122,156.5C 123.257,156.15 123.591,155.483 123,154.5C 114.389,146.896 107.722,137.896 103,127.5C 102.605,124.793 102.105,122.127 101.5,119.5C 101.248,114.012 101.915,108.678 103.5,103.5C 106.919,94.0785 112.919,86.7451 121.5,81.5C 128.241,78.928 135.241,77.928 142.5,78.5 Z"/></g>
<g><path style="opacity:0.646" fill="#787878" d="M 233.5,81.5 C 231.5,81.5 229.5,81.5 227.5,81.5C 220.847,80.9457 214.18,80.6123 207.5,80.5C 207.831,102.34 207.497,124.006 206.5,145.5C 206.5,132.833 206.5,120.167 206.5,107.5C 206.5,97.8333 206.5,88.1667 206.5,78.5C 215.807,78.0474 224.807,79.0474 233.5,81.5 Z"/></g>
<g><path style="opacity:0.545" fill="#7c7c7c" d="M 248.5,78.5 C 250.786,78.595 252.786,79.2616 254.5,80.5C 251.918,80.9746 249.918,80.3079 248.5,78.5 Z"/></g>
<g><path style="opacity:0.18" fill="#5c5c5c" d="M 227.5,81.5 C 229.5,81.5 231.5,81.5 233.5,81.5C 235.219,82.0221 236.552,83.0221 237.5,84.5C 233.829,84.2429 230.495,83.2429 227.5,81.5 Z"/></g>
<g><path style="opacity:0.046" fill="#4d4d4d" d="M 254.5,80.5 C 257.424,80.8976 259.758,82.231 261.5,84.5C 258.318,84.416 255.985,83.0827 254.5,80.5 Z"/></g>
<g><path style="opacity:0.012" fill="#797775" d="M 186.5,77.5 C 188.755,78.2147 190.588,79.548 192,81.5C 192.498,84.8168 192.665,88.1501 192.5,91.5C 191.833,91.5 191.5,91.8333 191.5,92.5C 190.679,89.3586 190.179,86.0252 190,82.5C 188.613,80.9535 187.447,79.2868 186.5,77.5 Z"/></g>
<g><path style="opacity:0.82" fill="#878787" d="M 261.5,84.5 C 264.337,84.6845 266.337,86.0178 267.5,88.5C 264.392,88.6254 262.392,87.2921 261.5,84.5 Z"/></g>
<g><path style="opacity:0.296" fill="#7b7b7b" d="M 267.5,88.5 C 270.751,89.4538 273.418,91.1204 275.5,93.5C 272.098,92.9311 269.431,91.2644 267.5,88.5 Z"/></g>
<g><path style="opacity:0.573" fill="#7b7b7b" d="M 245.5,86.5 C 249.149,86.9542 252.649,87.9542 256,89.5C 258.928,91.7151 262.095,93.5484 265.5,95C 266.252,95.6708 266.586,96.5041 266.5,97.5C 259.587,93.5447 252.587,89.8781 245.5,86.5 Z"/></g>
<g><path style="opacity:0.153" fill="#929292" d="M 275.5,93.5 C 277.911,94.517 279.578,96.1837 280.5,98.5C 277.5,98.1667 275.833,96.5 275.5,93.5 Z"/></g>
<g><path style="opacity:0.051" fill="#464646" d="M 266.5,97.5 C 267.833,97.5 268.5,98.1667 268.5,99.5C 268.5,98.1667 267.833,97.5 266.5,97.5 Z"/></g>
<g><path style="opacity:0.875" fill="#ababab" d="M 268.5,99.5 C 273.744,99.9797 277.411,102.646 279.5,107.5C 277.589,106.925 275.922,105.925 274.5,104.5C 274.5,102.5 273.5,101.5 271.5,101.5C 270.29,101.068 269.29,100.401 268.5,99.5 Z"/></g>
<g><path style="opacity:0.302" fill="#6b6b6b" d="M 281.5,98.5 C 284.189,99.1894 285.856,100.856 286.5,103.5C 283.603,103.019 281.936,101.352 281.5,98.5 Z"/></g>
<g><path style="opacity:0.024" fill="#2c2c2c" d="M 271.5,101.5 C 273.5,101.5 274.5,102.5 274.5,104.5C 273.167,103.833 272.167,102.833 271.5,101.5 Z"/></g>
<g><path style="opacity:0.187" fill="#c9c9c9" d="M 192.5,91.5 C 193.48,104.421 193.814,117.421 193.5,130.5C 192.833,130.167 192.167,129.833 191.5,129.5C 191.5,117.167 191.5,104.833 191.5,92.5C 191.5,91.8333 191.833,91.5 192.5,91.5 Z"/></g>
<g><path style="opacity:0.882" fill="#979797" d="M 287.5,104.5 C 289.017,104.511 290.184,105.177 291,106.5C 292.389,109.026 293.889,111.359 295.5,113.5C 291.24,112.019 288.573,109.019 287.5,104.5 Z"/></g>
<g><path style="opacity:0.78" fill="#575959" d="M 107.5,82.5 C 103.877,89.4746 100.21,96.4746 96.5,103.5C 95.6978,106.449 95.3645,109.449 95.5,112.5C 94.7656,113.878 94.0989,115.378 93.5,117C 91.1873,117.662 88.854,118.162 86.5,118.5C 88.4261,116.707 90.7594,115.707 93.5,115.5C 93.5878,110.464 94.0878,105.464 95,100.5C 97.8162,95.0386 100.816,89.7052 104,84.5C 104.816,83.1772 105.983,82.5106 107.5,82.5 Z"/></g>
<g><path style="opacity:0.102" fill="#666666" d="M 279.5,107.5 C 281.833,108.5 283.5,110.167 284.5,112.5C 281.833,111.833 280.167,110.167 279.5,107.5 Z"/></g>
<g><path style="opacity:1" fill="#050505" d="M 192.5,191.5 C 192.667,249.834 192.5,308.168 192,366.5C 191.691,367.766 191.191,368.933 190.5,370C 187.956,371.092 185.289,371.759 182.5,372C 174.448,372.362 166.448,371.862 158.5,370.5C 150.648,368.749 144.314,364.749 139.5,358.5C 137.812,346.555 137.312,334.555 138,322.5C 138.21,324.058 138.71,325.391 139.5,326.5C 140.85,334.796 141.85,343.13 142.5,351.5C 143.69,357.027 147.023,360.694 152.5,362.5C 154.617,364.655 157.284,365.655 160.5,365.5C 168.641,366.752 176.641,366.752 184.5,365.5C 186.496,310.51 187.163,255.177 186.5,199.5C 187.507,170.641 188.674,141.641 190,112.5C 190.092,139.018 190.925,165.352 192.5,191.5 Z"/></g>
<g><path style="opacity:0.055" fill="#636363" d="M 295.5,113.5 C 297.914,114.911 299.581,116.911 300.5,119.5C 297.914,118.362 296.247,116.362 295.5,113.5 Z"/></g>
<g><path style="opacity:0.569" fill="#919191" d="M 284.5,112.5 C 289.569,115.431 292.903,119.764 294.5,125.5C 290.95,121.434 287.617,117.101 284.5,112.5 Z"/></g>
<g><path style="opacity:0.749" fill="#3d3d3d" d="M 95.5,112.5 C 95.7394,114.467 95.4061,116.301 94.5,118C 81.6368,121.297 71.6368,128.464 64.5,139.5C 60.3143,148.808 59.3143,158.474 61.5,168.5C 61.0195,165.922 60.0195,163.588 58.5,161.5C 57.043,140.069 66.3764,125.735 86.5,118.5C 88.854,118.162 91.1873,117.662 93.5,117C 94.0989,115.378 94.7656,113.878 95.5,112.5 Z"/></g>
<g><path style="opacity:1" fill="#171613" d="M 121.5,72.5 C 121.833,72.5 122.167,72.5 122.5,72.5C 130.047,72.2441 137.713,72.5775 145.5,73.5C 145.833,73.5 146.167,73.5 146.5,73.5C 146.5,74.5 146.5,75.5 146.5,76.5C 149.203,76.9555 151.87,77.6221 154.5,78.5C 164.722,74.8421 175.055,74.5088 185.5,77.5C 185.833,77.5 186.167,77.5 186.5,77.5C 187.447,79.2868 188.613,80.9535 190,82.5C 190.179,86.0252 190.679,89.3586 191.5,92.5C 191.5,104.833 191.5,117.167 191.5,129.5C 191.588,150.172 191.921,170.838 192.5,191.5C 190.925,165.352 190.092,139.018 190,112.5C 188.674,141.641 187.507,170.641 186.5,199.5C 186.885,160.498 187.052,121.498 187,82.5C 186.617,81.944 186.117,81.6107 185.5,81.5C 183.5,80.8333 181.5,80.1667 179.5,79.5C 176.282,78.0458 172.782,77.3791 169,77.5C 165.523,77.3275 162.356,77.9942 159.5,79.5C 156.389,81.652 153.056,81.9853 149.5,80.5C 147.485,79.0762 145.152,78.4095 142.5,78.5C 138.019,77.3516 133.352,77.1849 128.5,78C 125.719,78.5218 123.385,79.6885 121.5,81.5C 112.919,86.7451 106.919,94.0785 103.5,103.5C 102.207,104.842 101.374,106.509 101,108.5C 100.19,112.358 100.357,116.024 101.5,119.5C 102.105,122.127 102.605,124.793 103,127.5C 107.722,137.896 114.389,146.896 123,154.5C 123.591,155.483 123.257,156.15 122,156.5C 113.727,151.895 107.061,145.561 102,137.5C 97.967,132.571 95.8004,126.904 95.5,120.5C 88.2337,122.131 82.2337,125.798 77.5,131.5C 70.8948,136.353 67.0615,143.02 66,151.5C 65.3677,157.214 65.701,162.881 67,168.5C 67.3221,171.666 68.4887,174.333 70.5,176.5C 71.964,181.298 74.6307,185.298 78.5,188.5C 81.7678,191.254 85.4345,193.254 89.5,194.5C 94.0645,196.04 98.8979,196.707 104,196.5C 107.5,196.333 111,196.167 114.5,196C 115.416,195.722 116.082,195.222 116.5,194.5C 115.523,184.749 117.523,175.749 122.5,167.5C 122.738,165.596 123.738,164.262 125.5,163.5C 126.497,163.47 127.164,163.97 127.5,165C 126.767,166.766 126.433,168.599 126.5,170.5C 125.698,171.952 125.198,173.618 125,175.5C 124.333,182.167 124.333,188.833 125,195.5C 127.821,204.484 132.654,212.15 139.5,218.5C 135.222,219.209 131.555,217.875 128.5,214.5C 126.539,212.037 124.372,209.703 122,207.5C 120.829,204.65 119.662,201.816 118.5,199C 114.647,198.813 110.98,199.313 107.5,200.5C 101.788,200.687 96.1209,200.354 90.5,199.5C 88.064,198.129 85.3973,197.129 82.5,196.5C 80.2198,195.36 77.8864,194.193 75.5,193C 73.4865,189.931 70.8199,188.265 67.5,188C 55.3132,199.297 52.1466,212.797 58,228.5C 63.9897,240.063 73.1564,247.73 85.5,251.5C 96.1631,254.128 106.83,254.128 117.5,251.5C 121.035,250.988 124.368,250.988 127.5,251.5C 125.833,252.167 124.167,252.833 122.5,253.5C 117.908,253.882 113.575,254.882 109.5,256.5C 102.5,257.833 95.5,257.833 88.5,256.5C 87.0813,255.549 85.4147,255.216 83.5,255.5C 83.3337,262.175 83.5004,268.842 84,275.5C 84.546,278.379 85.3794,281.046 86.5,283.5C 87.9932,288.319 90.6599,292.319 94.5,295.5C 103.185,304.254 113.518,307.254 125.5,304.5C 130.448,302.792 135.448,300.959 140.5,299C 144.687,295.969 148.687,292.803 152.5,289.5C 154.543,288.421 155.876,286.754 156.5,284.5C 156.833,283.833 157.167,283.167 157.5,282.5C 158.79,281.942 159.623,280.942 160,279.5C 160.914,275.858 161.748,272.192 162.5,268.5C 163.569,273.156 163.569,277.822 162.5,282.5C 159.937,287.737 156.937,292.737 153.5,297.5C 152.5,297.833 151.833,298.5 151.5,299.5C 149.251,300.08 147.585,301.413 146.5,303.5C 145.833,303.5 145.5,303.833 145.5,304.5C 142.55,305.308 139.883,306.642 137.5,308.5C 136.628,311.317 136.628,314.317 137.5,317.5C 137.167,318.833 136.833,320.167 136.5,321.5C 135.893,321.376 135.56,321.043 135.5,320.5C 136.036,317.302 135.369,314.635 133.5,312.5C 132.833,312.5 132.167,312.5 131.5,312.5C 124.524,313.232 117.524,313.565 110.5,313.5C 105.847,310.725 100.847,308.725 95.5,307.5C 95.4894,305.983 94.8228,304.816 93.5,304C 91.3716,303.345 89.3716,302.511 87.5,301.5C 85.5775,296.488 83.2442,291.654 80.5,287C 77.8665,275.76 78.1998,264.593 81.5,253.5C 79.146,253.162 76.8127,252.662 74.5,252C 68.4471,248.69 63.1138,244.523 58.5,239.5C 55.6061,234.174 53.2728,228.507 51.5,222.5C 50.8331,218.018 50.1664,213.684 49.5,209.5C 49.1449,205.923 50.1449,202.923 52.5,200.5C 56.4294,197.366 59.9294,193.699 63,189.5C 63.49,188.207 63.6567,186.873 63.5,185.5C 65.2517,185.582 66.2517,184.749 66.5,183C 64.4971,178.154 62.8305,173.321 61.5,168.5C 59.3143,158.474 60.3143,148.808 64.5,139.5C 71.6368,128.464 81.6368,121.297 94.5,118C 95.4061,116.301 95.7394,114.467 95.5,112.5C 95.3645,109.449 95.6978,106.449 96.5,103.5C 100.21,96.4746 103.877,89.4746 107.5,82.5C 108.962,81.5423 110.295,80.3756 111.5,79C 116.097,78.549 119.43,76.3823 121.5,72.5 Z"/></g>
<g><path style="opacity:1" fill="#645e43" d="M 103.5,103.5 C 101.915,108.678 101.248,114.012 101.5,119.5C 100.357,116.024 100.19,112.358 101,108.5C 101.374,106.509 102.207,104.842 103.5,103.5 Z"/></g>
<g><path style="opacity:1" fill="#a99b62" d="M 179.5,79.5 C 172.828,78.2263 166.161,78.2263 159.5,79.5C 162.356,77.9942 165.523,77.3275 169,77.5C 172.782,77.3791 176.282,78.0458 179.5,79.5 Z"/></g>
<g><path style="opacity:1" fill="#7e7553" d="M 142.5,78.5 C 145.152,78.4095 147.485,79.0762 149.5,80.5C 146.848,80.5905 144.515,79.9238 142.5,78.5 Z"/></g>
<g><path style="opacity:1" fill="#8d845e" d="M 142.5,78.5 C 135.241,77.928 128.241,78.928 121.5,81.5C 123.385,79.6885 125.719,78.5218 128.5,78C 133.352,77.1849 138.019,77.3516 142.5,78.5 Z"/></g>
<g><path style="opacity:0.078" fill="#333333" d="M 197.5,77.5 C 198.833,107.167 198.833,136.833 197.5,166.5C 196.167,136.833 196.167,107.167 197.5,77.5 Z"/></g>
<g><path style="opacity:0.055" fill="#585858" d="M 301.5,121.5 C 304.323,122.992 305.99,125.326 306.5,128.5C 303.623,127.096 301.956,124.763 301.5,121.5 Z"/></g>
<g><path style="opacity:0.049" fill="#2e2e2e" d="M 245.5,124.5 C 243.204,124.804 242.871,125.804 244.5,127.5C 240.827,126.292 240.66,124.626 244,122.5C 244.717,123.044 245.217,123.711 245.5,124.5 Z"/></g>
<g><path style="opacity:0.733" fill="#707070" d="M 246.5,124.5 C 249.237,125.031 251.904,125.864 254.5,127C 255.252,127.671 255.586,128.504 255.5,129.5C 251.914,128.761 248.914,127.094 246.5,124.5 Z"/></g>
<g><path style="opacity:0.38" fill="#595959" d="M 244.5,127.5 C 246.833,128.5 248.5,130.167 249.5,132.5C 246.833,131.833 245.167,130.167 244.5,127.5 Z"/></g>
<g><path style="opacity:0.38" fill="#888888" d="M 294.5,125.5 C 297.553,126.28 299.22,128.28 299.5,131.5C 296.923,130.394 295.256,128.394 294.5,125.5 Z"/></g>
<g><path style="opacity:0.999" fill="#e9e9e9" d="M 245.5,124.5 C 245.833,124.5 246.167,124.5 246.5,124.5C 248.914,127.094 251.914,128.761 255.5,129.5C 255.833,129.5 256.167,129.5 256.5,129.5C 257.268,132.562 259.268,134.228 262.5,134.5C 263.167,137.167 264.833,138.833 267.5,139.5C 267.957,141.773 269.29,143.106 271.5,143.5C 271.981,146.834 273.647,149.167 276.5,150.5C 277.725,155.847 279.725,160.847 282.5,165.5C 282.077,167.781 282.744,169.448 284.5,170.5C 285.62,174.528 285.62,178.528 284.5,182.5C 282.744,183.552 282.077,185.219 282.5,187.5C 282.5,187.833 282.5,188.167 282.5,188.5C 281.391,188.557 280.391,188.89 279.5,189.5C 279.5,188.5 279.5,187.5 279.5,186.5C 279.589,183.291 279.256,180.125 278.5,177C 278.316,175.624 277.649,174.791 276.5,174.5C 275.388,172.401 274.721,170.067 274.5,167.5C 273.785,161.849 271.618,156.849 268,152.5C 267.184,151.177 266.017,150.511 264.5,150.5C 263.849,147.197 262.182,144.53 259.5,142.5C 258.5,140.167 256.833,138.5 254.5,137.5C 253.5,135.167 251.833,133.5 249.5,132.5C 248.5,130.167 246.833,128.5 244.5,127.5C 242.871,125.804 243.204,124.804 245.5,124.5 Z"/></g>
<g><path style="opacity:0.196" fill="#727272" d="M 256.5,129.5 C 259.155,130.497 261.155,132.164 262.5,134.5C 259.268,134.228 257.268,132.562 256.5,129.5 Z"/></g>
<g><path style="opacity:0.231" fill="#707070" d="M 306.5,129.5 C 309.164,131.484 310.831,134.151 311.5,137.5C 308.742,135.621 307.075,132.954 306.5,129.5 Z"/></g>
<g><path style="opacity:0.067" fill="#505050" d="M 249.5,132.5 C 251.833,133.5 253.5,135.167 254.5,137.5C 251.833,136.833 250.167,135.167 249.5,132.5 Z"/></g>
<g><path style="opacity:0.188" fill="#606060" d="M 262.5,134.5 C 265.167,135.167 266.833,136.833 267.5,139.5C 266.833,136.833 265.167,135.167 262.5,134.5 Z"/></g>
<g><path style="opacity:0.784" fill="#9f9f9f" d="M 299.5,132.5 C 301.932,133.993 303.932,135.993 305.5,138.5C 309.87,145.606 312.87,153.273 314.5,161.5C 313.624,161.631 312.957,161.298 312.5,160.5C 311.668,157.839 310.834,155.172 310,152.5C 306.744,145.653 303.244,138.987 299.5,132.5 Z"/></g>
<g><path style="opacity:0.096" fill="#5f5f5f" d="M 267.5,139.5 C 269.833,139.833 271.167,141.167 271.5,143.5C 269.29,143.106 267.957,141.773 267.5,139.5 Z"/></g>
<g><path style="opacity:0.2" fill="#7a7a7a" d="M 254.5,137.5 C 256.833,138.5 258.5,140.167 259.5,142.5C 256.833,141.833 255.167,140.167 254.5,137.5 Z"/></g>
<g><path style="opacity:1" fill="#ddc770" d="M 77.5,131.5 C 76.7724,134.079 76.2724,136.746 76,139.5C 75.6667,138.167 75.3333,136.833 75,135.5C 71.185,139.707 69.5184,144.707 70,150.5C 66.527,155.005 66.6937,159.339 70.5,163.5C 69.3112,167.817 69.3112,172.15 70.5,176.5C 68.4887,174.333 67.3221,171.666 67,168.5C 65.701,162.881 65.3677,157.214 66,151.5C 67.0615,143.02 70.8948,136.353 77.5,131.5 Z"/></g>
<g><path style="opacity:1" fill="#a59662" d="M 185.5,81.5 C 186.117,81.6107 186.617,81.944 187,82.5C 187.052,121.498 186.885,160.498 186.5,199.5C 187.163,255.177 186.496,310.51 184.5,365.5C 184.393,285.164 184.726,204.831 185.5,124.5C 186.807,110.294 186.807,95.9611 185.5,81.5 Z"/></g>
<g><path style="opacity:0.259" fill="#777777" d="M 259.5,142.5 C 262.182,144.53 263.849,147.197 264.5,150.5C 262.007,148.342 260.34,145.676 259.5,142.5 Z"/></g>
<g><path style="opacity:0.208" fill="#6e6e6e" d="M 271.5,143.5 C 274.323,144.992 275.99,147.326 276.5,150.5C 273.647,149.167 271.981,146.834 271.5,143.5 Z"/></g>
<g><path style="opacity:0.322" fill="#7a7a7a" d="M 264.5,150.5 C 266.017,150.511 267.184,151.177 268,152.5C 271.618,156.849 273.785,161.849 274.5,167.5C 271.464,161.777 268.131,156.11 264.5,150.5 Z"/></g>
<g><path style="opacity:0.055" fill="#737373" d="M 276.5,150.5 C 280.404,154.655 282.404,159.655 282.5,165.5C 279.725,160.847 277.725,155.847 276.5,150.5 Z"/></g>
<g><path style="opacity:0.216" fill="#797979" d="M 191.5,129.5 C 192.167,129.833 192.833,130.167 193.5,130.5C 194.605,209.495 194.772,288.495 194,367.5C 192.301,371.205 189.467,373.372 185.5,374C 176.41,374.769 167.41,374.269 158.5,372.5C 158.5,371.833 158.5,371.167 158.5,370.5C 166.448,371.862 174.448,372.362 182.5,372C 185.289,371.759 187.956,371.092 190.5,370C 191.191,368.933 191.691,367.766 192,366.5C 192.5,308.168 192.667,249.834 192.5,191.5C 191.921,170.838 191.588,150.172 191.5,129.5 Z"/></g>
<g><path style="opacity:0.443" fill="#7c7c7c" d="M 311.5,137.5 C 314.232,141.959 316.732,146.626 319,151.5C 320.79,155.327 321.956,159.327 322.5,163.5C 317.303,155.602 313.636,146.935 311.5,137.5 Z"/></g>
<g><path style="opacity:1" fill="#60563b" d="M 125.5,163.5 C 126.209,162.596 127.209,162.263 128.5,162.5C 128.706,165.495 128.04,168.162 126.5,170.5C 126.433,168.599 126.767,166.766 127.5,165C 127.164,163.97 126.497,163.47 125.5,163.5 Z"/></g>
<g><path style="opacity:1" fill="#ecd274" d="M 185.5,124.5 C 184.726,204.831 184.393,285.164 184.5,365.5C 176.641,366.752 168.641,366.752 160.5,365.5C 158.064,364.129 155.397,363.129 152.5,362.5C 147.023,360.694 143.69,357.027 142.5,351.5C 142.5,348.5 142.5,345.5 142.5,342.5C 143.473,344.948 143.806,347.615 143.5,350.5C 144.833,350.5 146.167,350.5 147.5,350.5C 147.38,352.199 147.046,353.865 146.5,355.5C 149.312,360.202 153.312,361.535 158.5,359.5C 161.028,360.169 161.028,361.002 158.5,362C 166.603,364.177 174.937,365.01 183.5,364.5C 183.333,298.166 183.5,231.832 184,165.5C 184.169,151.661 184.669,137.994 185.5,124.5 Z"/></g>
<g><path style="opacity:0.467" fill="#cfcfcf" d="M 199.5,72.5 C 199.5,125.833 199.5,179.167 199.5,232.5C 198.833,232.5 198.167,232.5 197.5,232.5C 197.5,210.5 197.5,188.5 197.5,166.5C 198.833,136.833 198.833,107.167 197.5,77.5C 197.12,75.302 197.787,73.6354 199.5,72.5 Z"/></g>
<g><path style="opacity:0.488" fill="#878787" d="M 314.5,162.5 C 315.75,162.577 316.583,163.244 317,164.5C 318.416,169.412 319.249,174.412 319.5,179.5C 318.883,179.389 318.383,179.056 318,178.5C 316.829,173.153 315.663,167.819 314.5,162.5 Z"/></g>
<g><path style="opacity:0.069" fill="#787878" d="M 322.5,164.5 C 323.586,164.62 324.253,165.287 324.5,166.5C 325.686,170.761 326.353,175.094 326.5,179.5C 325.351,179.209 324.684,178.376 324.5,177C 323.669,172.849 323.003,168.683 322.5,164.5 Z"/></g>
<g><path style="opacity:0.202" fill="#454545" d="M 282.5,165.5 C 284.213,166.635 284.88,168.302 284.5,170.5C 282.744,169.448 282.077,167.781 282.5,165.5 Z"/></g>
<g><path style="opacity:0.2" fill="#656565" d="M 276.5,174.5 C 277.649,174.791 278.316,175.624 278.5,177C 279.256,180.125 279.589,183.291 279.5,186.5C 278.275,185.848 277.608,184.681 277.5,183C 276.969,180.183 276.636,177.35 276.5,174.5 Z"/></g>
<g><path style="opacity:0.082" fill="#6c6c6c" d="M 58.5,161.5 C 60.0195,163.588 61.0195,165.922 61.5,168.5C 62.8305,173.321 64.4971,178.154 66.5,183C 66.2517,184.749 65.2517,185.582 63.5,185.5C 63.9528,184.542 64.6195,183.708 65.5,183C 61.3258,176.473 58.9925,169.306 58.5,161.5 Z"/></g>
<g><path style="opacity:0.198" fill="#585858" d="M 284.5,182.5 C 284.88,184.698 284.213,186.365 282.5,187.5C 282.077,185.219 282.744,183.552 284.5,182.5 Z"/></g>
<g><path style="opacity:1" fill="#d8c271" d="M 122.5,167.5 C 117.523,175.749 115.523,184.749 116.5,194.5C 107.513,195.657 98.5131,195.657 89.5,194.5C 85.4345,193.254 81.7678,191.254 78.5,188.5C 80.5273,188.338 82.5273,188.505 84.5,189C 93.973,192.887 103.973,194.387 114.5,193.5C 114.303,187.03 115.136,180.697 117,174.5C 118.574,171.864 120.407,169.53 122.5,167.5 Z"/></g>
<g><path style="opacity:0.294" fill="#5d5d5d" d="M 282.5,188.5 C 282.5,189.5 282.5,190.5 282.5,191.5C 280.821,191.715 279.821,191.048 279.5,189.5C 280.391,188.89 281.391,188.557 282.5,188.5 Z"/></g>
<g><path style="opacity:1" fill="#7e7253" d="M 89.5,194.5 C 98.5131,195.657 107.513,195.657 116.5,194.5C 116.082,195.222 115.416,195.722 114.5,196C 111,196.167 107.5,196.333 104,196.5C 98.8979,196.707 94.0645,196.04 89.5,194.5 Z"/></g>
<g><path style="opacity:0.365" fill="#959595" d="M 320.5,186.5 C 321.117,186.611 321.617,186.944 322,187.5C 322.667,196.833 322.667,206.167 322,215.5C 321.901,217.653 321.067,219.319 319.5,220.5C 320.356,209.19 320.69,197.857 320.5,186.5 Z"/></g>
<g><path style="opacity:1" fill="#93875b" d="M 82.5,196.5 C 85.3973,197.129 88.064,198.129 90.5,199.5C 87.284,199.655 84.6174,198.655 82.5,196.5 Z"/></g>
<g><path style="opacity:0.089" fill="#252525" d="M 327.5,188.5 C 328.117,188.611 328.617,188.944 329,189.5C 329.667,195.833 329.667,202.167 329,208.5C 328.617,209.056 328.117,209.389 327.5,209.5C 327.5,202.5 327.5,195.5 327.5,188.5 Z"/></g>
<g><path style="opacity:0.894" fill="#fefffe" d="M 799.5,198.5 C 806.91,198.149 813.91,199.649 820.5,203C 823.612,205.439 825.945,208.439 827.5,212C 827,215.167 825.167,217 822,217.5C 818.569,215.739 815.403,213.572 812.5,211C 807.125,209.125 801.791,209.125 796.5,211C 791.167,216 791.167,221 796.5,226C 804.919,229.807 813.253,233.807 821.5,238C 833.322,249.28 833.322,260.613 821.5,272C 809.819,277.96 798.152,277.96 786.5,272C 782.617,269.131 779.95,265.465 778.5,261C 779.634,255.627 782.634,254.294 787.5,257C 795.135,266.574 804.469,268.574 815.5,263C 818.671,259.15 819.504,254.983 818,250.5C 816.5,249 815,247.5 813.5,246C 804.873,242.571 796.54,238.571 788.5,234C 780.683,225.672 779.516,216.505 785,206.5C 789.134,202.354 793.968,199.687 799.5,198.5 Z"/></g>
<g><path style="opacity:0.78" fill="#504e4e" d="M 63.5,185.5 C 63.6567,186.873 63.49,188.207 63,189.5C 59.9294,193.699 56.4294,197.366 52.5,200.5C 54.9479,194.603 58.6145,189.603 63.5,185.5 Z"/></g>
<g><path style="opacity:1" fill="#bdad6c" d="M 128.5,214.5 C 122.704,211.648 118.704,207.148 116.5,201C 113.518,200.502 110.518,200.335 107.5,200.5C 110.98,199.313 114.647,198.813 118.5,199C 119.662,201.816 120.829,204.65 122,207.5C 124.372,209.703 126.539,212.037 128.5,214.5 Z"/></g>
<g><path style="opacity:0.897" fill="#fefffe" d="M 391.5,199.5 C 394.272,199.22 396.772,199.887 399,201.5C 407.667,212.167 416.333,222.833 425,233.5C 433.833,222.667 442.667,211.833 451.5,201C 454.46,198.948 457.293,199.114 460,201.5C 461.636,224.77 461.969,248.103 461,271.5C 459.309,275.213 456.475,276.379 452.5,275C 451.299,274.097 450.465,272.931 450,271.5C 449.667,254.5 449.333,237.5 449,220.5C 442.759,227.985 436.759,235.652 431,243.5C 429.093,247.01 426.26,248.176 422.5,247C 415,238.167 407.5,229.333 400,220.5C 399.667,238.167 399.333,255.833 399,273.5C 395.667,276.167 392.333,276.167 389,273.5C 388.333,249.833 388.333,226.167 389,202.5C 390.045,201.627 390.878,200.627 391.5,199.5 Z"/></g>
<g><path style="opacity:0.935" fill="#fefffe" d="M 481.5,199.5 C 497.503,199.333 513.503,199.5 529.5,200C 532.978,202.706 533.311,205.706 530.5,209C 516.837,209.5 503.171,209.667 489.5,209.5C 489.5,217.167 489.5,224.833 489.5,232.5C 500.172,232.333 510.839,232.5 521.5,233C 524.167,236 524.167,239 521.5,242C 510.839,242.5 500.172,242.667 489.5,242.5C 489.5,250.167 489.5,257.833 489.5,265.5C 502.837,265.333 516.171,265.5 529.5,266C 532.978,268.706 533.311,271.706 530.5,275C 513.593,275.825 496.759,275.658 480,274.5C 478.354,250.588 478.02,226.588 479,202.5C 480.045,201.627 480.878,200.627 481.5,199.5 Z"/></g>
<g><path style="opacity:0.915" fill="#fefffe" d="M 547.5,199.5 C 552.029,199.496 555.529,201.496 558,205.5C 571,221.833 584,238.167 597,254.5C 597.333,237.167 597.667,219.833 598,202.5C 600.838,198.965 604.005,198.632 607.5,201.5C 608.656,225.457 608.823,249.457 608,273.5C 606.758,274.872 605.258,275.872 603.5,276.5C 600.567,275.07 598.067,273.07 596,270.5C 582.667,253.833 569.333,237.167 556,220.5C 555.667,238.167 555.333,255.833 555,273.5C 551.667,276.167 548.333,276.167 545,273.5C 544.333,249.833 544.333,226.167 545,202.5C 546.045,201.627 546.878,200.627 547.5,199.5 Z"/></g>
<g><path style="opacity:0.907" fill="#fefffe" d="M 620.5,199.5 C 638.836,199.333 657.17,199.5 675.5,200C 678.978,202.706 679.311,205.706 676.5,209C 668.92,210.396 661.253,210.896 653.5,210.5C 653.667,231.503 653.5,252.503 653,273.5C 649.667,276.167 646.333,276.167 643,273.5C 642.5,252.503 642.333,231.503 642.5,210.5C 634.747,210.896 627.08,210.396 619.5,209C 616.908,205.583 617.241,202.416 620.5,199.5 Z"/></g>
<g><path style="opacity:0.935" fill="#fefffe" d="M 690.5,199.5 C 706.503,199.333 722.503,199.5 738.5,200C 741.978,202.706 742.311,205.706 739.5,209C 725.837,209.5 712.171,209.667 698.5,209.5C 698.5,217.167 698.5,224.833 698.5,232.5C 709.172,232.333 719.839,232.5 730.5,233C 733.167,236 733.167,239 730.5,242C 719.839,242.5 709.172,242.667 698.5,242.5C 698.5,250.167 698.5,257.833 698.5,265.5C 711.837,265.333 725.171,265.5 738.5,266C 741.978,268.706 742.311,271.706 739.5,275C 722.593,275.825 705.759,275.658 689,274.5C 687.354,250.588 687.02,226.588 688,202.5C 689.045,201.627 689.878,200.627 690.5,199.5 Z"/></g>
<g><path style="opacity:0.897" fill="#fefffe" d="M 847.5,199.5 C 850.272,199.22 852.772,199.887 855,201.5C 863.667,212.167 872.333,222.833 881,233.5C 889.833,222.667 898.667,211.833 907.5,201C 910.46,198.948 913.293,199.114 916,201.5C 917.636,224.77 917.969,248.103 917,271.5C 915.309,275.213 912.475,276.379 908.5,275C 907.299,274.097 906.465,272.931 906,271.5C 905.667,254.5 905.333,237.5 905,220.5C 898.759,227.985 892.759,235.652 887,243.5C 885.093,247.01 882.26,248.176 878.5,247C 871,238.167 863.5,229.333 856,220.5C 855.667,238.167 855.333,255.833 855,273.5C 851.667,276.167 848.333,276.167 845,273.5C 844.333,249.833 844.333,226.167 845,202.5C 846.045,201.627 846.878,200.627 847.5,199.5 Z"/></g>
<g><path style="opacity:0.907" fill="#fefffe" d="M 958.5,199.5 C 963.133,198.458 966.299,200.125 968,204.5C 977,225.833 986,247.167 995,268.5C 995.902,273.025 994.069,275.692 989.5,276.5C 987.742,275.872 986.242,274.872 985,273.5C 983.069,269.207 981.236,264.874 979.5,260.5C 967.5,259.167 955.5,259.167 943.5,260.5C 941.551,265.563 939.218,270.396 936.5,275C 930.07,277.219 927.237,275.053 928,268.5C 936.667,247.833 945.333,227.167 954,206.5C 955.012,203.798 956.512,201.465 958.5,199.5 Z M 960.5,216.5 C 962.136,217.749 963.303,219.416 964,221.5C 967.798,230.755 971.298,240.089 974.5,249.5C 965.494,249.666 956.494,249.5 947.5,249C 952.524,238.427 956.857,227.593 960.5,216.5 Z"/></g>
<g><path style="opacity:0.891" fill="#fefffe" d="M 1009.5,199.5 C 1018.84,199.334 1028.17,199.5 1037.5,200C 1056.61,205.039 1063.77,217.206 1059,236.5C 1056.89,242.272 1053.06,246.438 1047.5,249C 1052,255.5 1056.5,262 1061,268.5C 1061.58,275.125 1058.75,277.292 1052.5,275C 1047.04,267.923 1041.71,260.756 1036.5,253.5C 1030.2,252.504 1023.87,252.17 1017.5,252.5C 1017.92,259.615 1017.42,266.615 1016,273.5C 1011.88,276.592 1008.55,275.925 1006,271.5C 1005.33,249.167 1005.33,226.833 1006,204.5C 1006.26,202.093 1007.42,200.427 1009.5,199.5 Z M 1017.5,209.5 C 1022.51,209.334 1027.51,209.501 1032.5,210C 1046.5,212.004 1051.67,219.838 1048,233.5C 1046.24,236.473 1043.74,238.64 1040.5,240C 1032.92,241.396 1025.25,241.896 1017.5,241.5C 1017.5,230.833 1017.5,220.167 1017.5,209.5 Z"/></g>
<g><path style="opacity:0.869" fill="#fefffe" d="M 1069.5,199.5 C 1087.5,199.333 1105.5,199.5 1123.5,200C 1127.69,202.239 1128.36,205.239 1125.5,209C 1117.92,210.396 1110.25,210.896 1102.5,210.5C 1102.67,230.836 1102.5,251.169 1102,271.5C 1100.37,275.212 1097.54,276.379 1093.5,275C 1092.11,273.829 1091.27,272.329 1091,270.5C 1090.5,250.503 1090.33,230.503 1090.5,210.5C 1083.05,210.929 1075.72,210.429 1068.5,209C 1065.77,205.508 1066.1,202.342 1069.5,199.5 Z"/></g>
<g><path style="opacity:0.542" fill="#727272" d="M 281.5,231.5 C 281.817,228.428 281.484,225.428 280.5,222.5C 279.511,224.586 278.178,226.253 276.5,227.5C 276.476,223.195 278.476,220.528 282.5,219.5C 282.817,223.702 282.483,227.702 281.5,231.5 Z"/></g>
<g><path style="opacity:0.624" fill="#6c6d6e" d="M 49.5,209.5 C 50.1664,213.684 50.8331,218.018 51.5,222.5C 53.2728,228.507 55.6061,234.174 58.5,239.5C 50.4398,231.292 47.4398,221.292 49.5,209.5 Z"/></g>
<g><path style="opacity:0.184" fill="#585858" d="M 325.5,224.5 C 325.693,227.811 324.693,230.478 322.5,232.5C 322.307,229.189 323.307,226.522 325.5,224.5 Z"/></g>
<g><path style="opacity:0.475" fill="#747474" d="M 319.5,220.5 C 319.977,223.917 318.977,226.584 316.5,228.5C 316.518,225.264 317.518,222.597 319.5,220.5 Z"/></g>
<g><path style="opacity:0.994" fill="#e7e7e7" d="M 281.5,231.5 C 281.5,231.833 281.5,232.167 281.5,232.5C 278.384,237.347 275.384,242.347 272.5,247.5C 270.031,248.569 267.698,249.902 265.5,251.5C 264.702,251.043 264.369,250.376 264.5,249.5C 270.404,245.572 273.737,239.905 274.5,232.5C 274.796,230.597 275.463,228.93 276.5,227.5C 278.178,226.253 279.511,224.586 280.5,222.5C 281.484,225.428 281.817,228.428 281.5,231.5 Z"/></g>
<g><path style="opacity:0.369" fill="#707070" d="M 316.5,229.5 C 316.59,232.152 315.924,234.485 314.5,236.5C 314.41,233.848 315.076,231.515 316.5,229.5 Z"/></g>
<g><path style="opacity:0.231" fill="#737373" d="M 281.5,232.5 C 280.753,237.324 278.919,241.657 276,245.5C 275.184,246.823 274.017,247.489 272.5,247.5C 275.384,242.347 278.384,237.347 281.5,232.5 Z"/></g>
<g><path style="opacity:0.204" fill="#727272" d="M 322.5,232.5 C 322.186,235.947 321.352,239.28 320,242.5C 317.624,247.838 314.79,252.838 311.5,257.5C 312.556,253.832 313.722,250.165 315,246.5C 317.418,241.708 319.918,237.042 322.5,232.5 Z"/></g>
<g><path style="opacity:0.373" fill="#818181" d="M 314.5,236.5 C 314.468,239.994 313.135,242.661 310.5,244.5C 310.829,241.173 312.163,238.507 314.5,236.5 Z"/></g>
<g><path style="opacity:0.902" fill="#9f9f9f" d="M 274.5,232.5 C 273.737,239.905 270.404,245.572 264.5,249.5C 268.102,243.958 271.436,238.291 274.5,232.5 Z"/></g>
<g><path style="opacity:1" fill="#474030" d="M 127.5,251.5 C 124.368,250.988 121.035,250.988 117.5,251.5C 121.632,250.137 125.965,249.137 130.5,248.5C 130.5,249.5 130.5,250.5 130.5,251.5C 129.5,251.5 128.5,251.5 127.5,251.5 Z"/></g>
<g><path style="opacity:0.608" fill="#7d7d7d" d="M 272.5,247.5 C 272.489,249.017 271.823,250.184 270.5,251C 268.42,251.789 266.586,252.956 265,254.5C 263.268,254.266 262.434,253.266 262.5,251.5C 262.747,250.287 263.414,249.62 264.5,249.5C 264.369,250.376 264.702,251.043 265.5,251.5C 267.698,249.902 270.031,248.569 272.5,247.5 Z"/></g>
<g><path style="opacity:0.651" fill="#8a8a8a" d="M 309.5,247.5 C 309.116,251.272 307.45,254.272 304.5,256.5C 304.918,252.651 306.585,249.651 309.5,247.5 Z"/></g>
<g><path style="opacity:1" fill="#8a805b" d="M 85.5,251.5 C 96.1648,252.789 106.831,252.789 117.5,251.5C 106.83,254.128 96.1631,254.128 85.5,251.5 Z"/></g>
<g><path style="opacity:1" fill="#9a8b5a" d="M 122.5,253.5 C 118.645,256.035 114.312,257.035 109.5,256.5C 113.575,254.882 117.908,253.882 122.5,253.5 Z"/></g>
<g><path style="opacity:0.82" fill="#777777" d="M 58.5,239.5 C 63.1138,244.523 68.4471,248.69 74.5,252C 76.8127,252.662 79.146,253.162 81.5,253.5C 78.1998,264.593 77.8665,275.76 80.5,287C 83.2442,291.654 85.5775,296.488 87.5,301.5C 85.1,299.704 83.4333,297.37 82.5,294.5C 82.4077,292.152 81.4077,290.486 79.5,289.5C 77.9774,286.37 77.3107,283.037 77.5,279.5C 77.5,275.167 77.5,270.833 77.5,266.5C 77.7236,262.796 77.8903,259.129 78,255.5C 69.4677,252.452 62.9677,247.119 58.5,239.5 Z"/></g>
<g><path style="opacity:0.259" fill="#646464" d="M 311.5,257.5 C 311.33,260.204 309.997,261.871 307.5,262.5C 307.731,259.937 309.065,258.27 311.5,257.5 Z"/></g>
<g><path style="opacity:0.318" fill="#757575" d="M 307.5,262.5 C 306.951,264.901 306.118,267.235 305,269.5C 302.725,272.39 300.225,275.056 297.5,277.5C 297.98,274.995 298.98,272.662 300.5,270.5C 302.858,267.73 305.192,265.063 307.5,262.5 Z"/></g>
<g><path style="opacity:0.976" fill="#b2b2b2" d="M 304.5,256.5 C 303.41,260.439 301.744,264.106 299.5,267.5C 298.378,268.63 297.044,269.297 295.5,269.5C 298.027,265.78 300.194,261.78 302,257.5C 302.671,256.748 303.504,256.414 304.5,256.5 Z"/></g>
<g><path style="opacity:1" fill="#beac6d" d="M 88.5,256.5 C 87.1667,256.5 85.8333,256.5 84.5,256.5C 84.1719,265.605 84.8386,274.605 86.5,283.5C 85.3794,281.046 84.546,278.379 84,275.5C 83.5004,268.842 83.3337,262.175 83.5,255.5C 85.4147,255.216 87.0813,255.549 88.5,256.5 Z"/></g>
<g><path style="opacity:0.227" fill="#929292" d="M 197.5,232.5 C 198.167,232.5 198.833,232.5 199.5,232.5C 199.5,250.833 199.5,269.167 199.5,287.5C 198.833,287.5 198.167,287.5 197.5,287.5C 197.5,269.167 197.5,250.833 197.5,232.5 Z"/></g>
<g><path style="opacity:0.388" fill="#828282" d="M 295.5,269.5 C 295.228,272.732 293.562,274.732 290.5,275.5C 291.236,272.68 292.902,270.68 295.5,269.5 Z"/></g>
<g><path style="opacity:0.188" fill="#d6d1d2" d="M 77.5,266.5 C 77.5,270.833 77.5,275.167 77.5,279.5C 76.8826,279.389 76.3826,279.056 76,278.5C 75.3333,274.833 75.3333,271.167 76,267.5C 76.3826,266.944 76.8826,266.611 77.5,266.5 Z"/></g>
<g><path style="opacity:0.416" fill="#808080" d="M 290.5,275.5 C 288.22,279.618 285.72,283.618 283,287.5C 281.887,288.305 280.721,288.972 279.5,289.5C 282.411,284.254 286.078,279.587 290.5,275.5 Z"/></g>
<g><path style="opacity:1" fill="#5a543b" d="M 163.5,282.5 C 163.167,282.5 162.833,282.5 162.5,282.5C 163.569,277.822 163.569,273.156 162.5,268.5C 161.748,272.192 160.914,275.858 160,279.5C 159.623,280.942 158.79,281.942 157.5,282.5C 159.881,277.802 160.881,272.802 160.5,267.5C 161.833,267.5 163.167,267.5 164.5,267.5C 164.663,272.547 164.329,277.547 163.5,282.5 Z"/></g>
<g><path style="opacity:0.186" fill="#686868" d="M 297.5,277.5 C 296.581,280.089 294.914,282.089 292.5,283.5C 292.762,280.301 294.428,278.301 297.5,277.5 Z"/></g>
<g><path style="opacity:1" fill="#5b543e" d="M 156.5,284.5 C 155.876,286.754 154.543,288.421 152.5,289.5C 153.136,287.205 154.469,285.539 156.5,284.5 Z"/></g>
<g><path style="opacity:0.137" fill="#b2b2b2" d="M 79.5,289.5 C 81.4077,290.486 82.4077,292.152 82.5,294.5C 80.2729,293.599 79.2729,291.933 79.5,289.5 Z"/></g>
<g><path style="opacity:1" fill="#cdb670" d="M 162.5,282.5 C 162.833,282.5 163.167,282.5 163.5,282.5C 162.069,285.994 161.236,289.661 161,293.5C 158.037,294.026 155.537,295.359 153.5,297.5C 156.937,292.737 159.937,287.737 162.5,282.5 Z"/></g>
<g><path style="opacity:0.831" fill="#8b8b8b" d="M 279.5,289.5 C 277.6,293.732 274.933,297.399 271.5,300.5C 269.473,301.872 267.473,303.205 265.5,304.5C 268.868,300.821 272.035,296.821 275,292.5C 276.129,290.859 277.629,289.859 279.5,289.5 Z"/></g>
<g><path style="opacity:0.067" fill="#6f6f6f" d="M 292.5,283.5 C 287.254,291.252 281.421,298.585 275,305.5C 274.329,306.252 273.496,306.586 272.5,306.5C 272.709,305.078 273.209,303.745 274,302.5C 276.374,300.461 278.374,298.128 280,295.5C 283.869,291.156 288.036,287.156 292.5,283.5 Z"/></g>
<g><path style="opacity:1" fill="#968b5b" d="M 151.5,299.5 C 150.415,301.587 148.749,302.92 146.5,303.5C 147.585,301.413 149.251,300.08 151.5,299.5 Z"/></g>
<g><path style="opacity:1" fill="#c1b06f" d="M 94.5,295.5 C 98.7315,295.48 101.732,297.313 103.5,301C 107.134,301.156 110.467,302.156 113.5,304C 117.486,304.499 121.486,304.666 125.5,304.5C 113.518,307.254 103.185,304.254 94.5,295.5 Z"/></g>
<g><path style="opacity:0.14" fill="#5b5b5b" d="M 197.5,287.5 C 198.167,287.5 198.833,287.5 199.5,287.5C 199.5,297.167 199.5,306.833 199.5,316.5C 198.833,316.5 198.167,316.5 197.5,316.5C 197.5,306.833 197.5,297.167 197.5,287.5 Z"/></g>
<g><path style="opacity:0.486" fill="#888a87" d="M 87.5,301.5 C 89.3716,302.511 91.3716,303.345 93.5,304C 94.8228,304.816 95.4894,305.983 95.5,307.5C 91.9796,306.647 89.3129,304.647 87.5,301.5 Z"/></g>
<g><path style="opacity:0.239" fill="#8c8c8c" d="M 95.5,307.5 C 100.847,308.725 105.847,310.725 110.5,313.5C 104.605,313.431 99.6054,311.431 95.5,307.5 Z"/></g>
<g><path style="opacity:0.239" fill="#7c7c7c" d="M 271.5,307.5 C 271.33,310.204 269.997,311.871 267.5,312.5C 267.369,309.633 268.703,307.967 271.5,307.5 Z"/></g>
<g><path style="opacity:0.424" fill="#858585" d="M 264.5,306.5 C 264.019,309.834 262.353,312.167 259.5,313.5C 259.981,310.166 261.647,307.833 264.5,306.5 Z"/></g>
<g><path style="opacity:1" fill="#c8b770" d="M 145.5,304.5 C 143.898,306.699 142.064,308.699 140,310.5C 140.663,321.149 141.496,331.815 142.5,342.5C 142.5,345.5 142.5,348.5 142.5,351.5C 141.85,343.13 140.85,334.796 139.5,326.5C 139.483,320.42 138.817,314.42 137.5,308.5C 139.883,306.642 142.55,305.308 145.5,304.5 Z"/></g>
<g><path style="opacity:0.047" fill="#dadcda" d="M 131.5,312.5 C 125.23,315.284 118.564,316.118 111.5,315C 110.944,314.617 110.611,314.117 110.5,313.5C 117.524,313.565 124.524,313.232 131.5,312.5 Z"/></g>
<g><path style="opacity:0.735" fill="#858685" d="M 133.5,312.5 C 135.369,314.635 136.036,317.302 135.5,320.5C 134.662,320.842 134.328,321.508 134.5,322.5C 133.521,319.375 133.187,316.042 133.5,312.5 Z"/></g>
<g><path style="opacity:0.18" fill="#717171" d="M 267.5,312.5 C 266.546,315.751 264.88,318.418 262.5,320.5C 262.667,316.821 264.334,314.154 267.5,312.5 Z"/></g>
<g><path style="opacity:0.459" fill="#969696" d="M 259.5,314.5 C 258.362,317.719 257.529,321.053 257,324.5C 256.617,325.056 256.117,325.389 255.5,325.5C 255.457,322.09 255.957,318.757 257,315.5C 257.671,314.748 258.504,314.414 259.5,314.5 Z"/></g>
<g><path style="opacity:0.334" fill="#999999" d="M 206.5,107.5 C 206.5,120.167 206.5,132.833 206.5,145.5C 206.333,219.167 206.5,292.834 207,366.5C 207.671,367.252 208.504,367.586 209.5,367.5C 209.5,368.167 209.5,368.833 209.5,369.5C 207.418,369.376 205.918,368.376 205,366.5C 204.833,323.333 204.667,280.167 204.5,237C 204.5,193.495 205.167,150.328 206.5,107.5 Z"/></g>
<g><path style="opacity:0.502" fill="#9a999c" d="M 134.5,324.5 C 135.809,326.571 136.475,329.071 136.5,332C 136.365,335.534 136.031,339.034 135.5,342.5C 134.51,336.69 134.177,330.69 134.5,324.5 Z"/></g>
<g><path style="opacity:0.074" fill="#2e2e2e" d="M 197.5,316.5 C 198.167,316.5 198.833,316.5 199.5,316.5C 199.5,328.5 199.5,340.5 199.5,352.5C 198.686,350.369 198.186,348.036 198,345.5C 197.5,335.839 197.334,326.172 197.5,316.5 Z"/></g>
<g><path style="opacity:0.349" fill="#6f6f6f" d="M 260.5,337.5 C 260.81,340.713 260.477,343.713 259.5,346.5C 257.823,343.073 258.156,340.073 260.5,337.5 Z"/></g>
<g><path style="opacity:0.31" fill="#787878" d="M 254.5,336.5 C 254.595,341.887 254.095,347.22 253,352.5C 252.8,354.32 251.966,355.653 250.5,356.5C 251.549,350.206 252.382,343.872 253,337.5C 253.383,336.944 253.883,336.611 254.5,336.5 Z"/></g>
<g><path style="opacity:0.96" fill="#30302f" d="M 137.5,308.5 C 138.817,314.42 139.483,320.42 139.5,326.5C 138.71,325.391 138.21,324.058 138,322.5C 137.312,334.555 137.812,346.555 139.5,358.5C 138.833,357.833 138.167,357.167 137.5,356.5C 137.923,354.219 137.256,352.552 135.5,351.5C 135.5,348.5 135.5,345.5 135.5,342.5C 136.031,339.034 136.365,335.534 136.5,332C 136.475,329.071 135.809,326.571 134.5,324.5C 134.5,323.833 134.5,323.167 134.5,322.5C 134.328,321.508 134.662,320.842 135.5,320.5C 135.56,321.043 135.893,321.376 136.5,321.5C 136.833,320.167 137.167,318.833 137.5,317.5C 136.628,314.317 136.628,311.317 137.5,308.5 Z"/></g>
<g><path style="opacity:0.059" fill="#3b3b3b" d="M 259.5,347.5 C 259.923,349.781 259.256,351.448 257.5,352.5C 257.077,350.219 257.744,348.552 259.5,347.5 Z"/></g>
<g><path style="opacity:0.09" fill="#c5cabe" d="M 135.5,351.5 C 137.256,352.552 137.923,354.219 137.5,356.5C 135.744,355.448 135.077,353.781 135.5,351.5 Z"/></g>
<g><path style="opacity:0.597" fill="#979797" d="M 199.5,355.5 C 200.717,361.095 202.05,366.762 203.5,372.5C 202.504,372.586 201.671,372.252 201,371.5C 199.729,366.246 199.229,360.913 199.5,355.5 Z"/></g>
<g><path style="opacity:0.251" fill="#929292" d="M 250.5,356.5 C 248.887,365.143 243.887,369.143 235.5,368.5C 238.402,367.394 241.402,366.228 244.5,365C 246.402,362.003 248.402,359.169 250.5,356.5 Z"/></g>
<g><path style="opacity:0.482" fill="#868789" d="M 137.5,356.5 C 138.167,357.167 138.833,357.833 139.5,358.5C 144.314,364.749 150.648,368.749 158.5,370.5C 158.5,371.167 158.5,371.833 158.5,372.5C 150.668,371.169 144.168,367.503 139,361.5C 137.991,359.975 137.491,358.308 137.5,356.5 Z"/></g>
<g><path style="opacity:1" fill="#5f5840" d="M 152.5,362.5 C 155.397,363.129 158.064,364.129 160.5,365.5C 157.284,365.655 154.617,364.655 152.5,362.5 Z"/></g>
<g><path style="opacity:0.157" fill="#6b6b6b" d="M 256.5,358.5 C 254.611,363.98 251.278,368.48 246.5,372C 244.975,373.009 243.308,373.509 241.5,373.5C 247.534,369.466 252.534,364.466 256.5,358.5 Z"/></g>
<g><path style="opacity:0.248" fill="#666666" d="M 209.5,367.5 C 217.737,369.737 226.07,370.071 234.5,368.5C 231.232,369.822 227.565,370.489 223.5,370.5C 218.799,370.408 214.132,370.075 209.5,369.5C 209.5,368.833 209.5,368.167 209.5,367.5 Z"/></g>
<g><path style="opacity:0.3" fill="#757575" d="M 205.5,373.5 C 217.498,374.805 229.498,374.805 241.5,373.5C 239.974,375.13 237.974,375.963 235.5,376C 227.167,376.667 218.833,376.667 210.5,376C 208.256,375.95 206.589,375.117 205.5,373.5 Z"/></g>
<g><path style="opacity:0.853" fill="#cbcbcb" d="M 243.5,383.5 C 242.373,382.878 241.373,382.045 240.5,381C 210.167,380.333 179.833,380.333 149.5,381C 148.398,383.401 148.231,385.901 149,388.5C 150.417,389.078 151.25,390.078 151.5,391.5C 146.338,389.303 145.171,385.636 148,380.5C 148.75,379.874 149.584,379.374 150.5,379C 180.5,378.333 210.5,378.333 240.5,379C 242.141,380.129 243.141,381.629 243.5,383.5 Z"/></g>
<g><path style="opacity:1" fill="#eaeaea" d="M 243.5,383.5 C 244.756,387.812 243.089,390.646 238.5,392C 209.33,392.83 180.33,392.664 151.5,391.5C 151.25,390.078 150.417,389.078 149,388.5C 148.231,385.901 148.398,383.401 149.5,381C 179.833,380.333 210.167,380.333 240.5,381C 241.373,382.045 242.373,382.878 243.5,383.5 Z"/></g>
<g><path style="opacity:0.147" fill="#dddddd" d="M 151.5,394.5 C 181.338,394.169 211.005,394.502 240.5,395.5C 211.005,396.498 181.338,396.831 151.5,396.5C 151.5,395.833 151.5,395.167 151.5,394.5 Z"/></g>
<g><path style="opacity:0.443" fill="#848484" d="M 151.5,394.5 C 151.5,395.167 151.5,395.833 151.5,396.5C 149.938,396.733 148.605,397.4 147.5,398.5C 147.833,396.167 149.167,394.833 151.5,394.5 Z"/></g>
<g><path style="opacity:0.924" fill="#fafafa" d="M 240.5,395.5 C 245.639,399.404 245.639,403.57 240.5,408C 210.835,408.5 181.169,408.667 151.5,408.5C 151.19,406.856 150.19,405.856 148.5,405.5C 147.007,404.688 146.34,403.355 146.5,401.5C 146.52,400.274 146.853,399.274 147.5,398.5C 148.605,397.4 149.938,396.733 151.5,396.5C 181.338,396.831 211.005,396.498 240.5,395.5 Z"/></g>
<g><path style="opacity:0.004" fill="#585858" d="M 148.5,405.5 C 150.19,405.856 151.19,406.856 151.5,408.5C 149.5,408.5 148.5,407.5 148.5,405.5 Z"/></g>
<g><path style="opacity:0.952" fill="#fcfcfc" d="M 232.5,413.5 C 231.25,413.577 230.417,414.244 230,415.5C 229.503,417.81 229.337,420.143 229.5,422.5C 226.577,423.689 225.911,425.689 227.5,428.5C 205.474,429.156 183.808,428.489 162.5,426.5C 162.66,422.122 161.66,417.789 159.5,413.5C 159.957,412.702 160.624,412.369 161.5,412.5C 184.916,412.783 208.083,412.45 231,411.5C 232.03,411.836 232.53,412.503 232.5,413.5 Z"/></g>
<g><path style="opacity:0.724" fill="#929292" d="M 161.5,412.5 C 160.624,412.369 159.957,412.702 159.5,413.5C 161.66,417.789 162.66,422.122 162.5,426.5C 160.665,422.344 158.999,418.011 157.5,413.5C 158.574,411.466 159.907,411.133 161.5,412.5 Z"/></g>
<g><path style="opacity:0.573" fill="#969696" d="M 232.5,413.5 C 232.072,416.785 231.072,419.785 229.5,422.5C 229.337,420.143 229.503,417.81 230,415.5C 230.417,414.244 231.25,413.577 232.5,413.5 Z"/></g>
<g><path style="opacity:0.698" fill="#9a9a9a" d="M 229.5,422.5 C 229.405,424.786 228.738,426.786 227.5,428.5C 225.911,425.689 226.577,423.689 229.5,422.5 Z"/></g>
</svg>
