<?xml version="1.0" encoding="UTF-8"?>
<!DOCTYPE svg PUBLIC "-//W3C//DTD SVG 1.1//EN" "http://www.w3.org/Graphics/SVG/1.1/DTD/svg11.dtd">
<svg xmlns="http://www.w3.org/2000/svg" version="1.1" width="1200px" height="500px" style="shape-rendering:geometricPrecision; text-rendering:geometricPrecision; image-rendering:optimizeQuality; fill-rule:evenodd; clip-rule:evenodd" xmlns:xlink="http://www.w3.org/1999/xlink">
<g><path style="opacity:0.468" fill="#898989" d="M 230.5,72.5 C 220.514,71.5764 210.514,71.4098 200.5,72C 199.944,72.3826 199.611,72.8826 199.5,73.5C 198.833,73.5 198.167,73.5 197.5,73.5C 197.574,71.5891 198.574,70.4224 200.5,70C 210.207,69.214 219.874,69.5473 229.5,71C 230.056,71.3826 230.389,71.8826 230.5,72.5 Z"/></g>
<g><path style="opacity:0.945" fill="#505050" d="M 151.5,75.5 C 151.5,76.1667 151.5,76.8333 151.5,77.5C 147.691,76.6285 144.024,75.2952 140.5,73.5C 122.289,71.3116 108.956,78.4783 100.5,95C 96.2963,101.889 94.463,109.389 95,117.5C 91.5101,119.428 88.0101,120.094 84.5,119.5C 86.8976,117.026 89.8976,115.692 93.5,115.5C 94.1231,99.6758 100.456,86.5091 112.5,76C 125.339,67.5223 138.339,67.3557 151.5,75.5 Z"/></g>
<g><path style="opacity:0.996" fill="#101010" d="M 230.5,72.5 C 232.735,72.2053 234.735,72.5386 236.5,73.5C 236.47,74.4972 236.97,75.1639 238,75.5C 243.034,77.8817 248.201,79.8817 253.5,81.5C 259.905,84.2059 265.905,87.7059 271.5,92C 272.448,92.4828 273.448,92.6495 274.5,92.5C 276.507,96.0154 279.507,98.3487 283.5,99.5C 283.833,101.833 285.167,103.167 287.5,103.5C 288.845,105.697 290.011,108.03 291,110.5C 291.816,111.823 292.983,112.489 294.5,112.5C 294.78,115.72 296.447,117.72 299.5,118.5C 301.61,124.406 304.943,129.406 309.5,133.5C 309.5,133.833 309.5,134.167 309.5,134.5C 309.873,138.348 311.54,141.348 314.5,143.5C 314.952,149.205 316.952,154.205 320.5,158.5C 320.573,163.127 321.74,167.46 324,171.5C 324.829,176.137 325.329,180.804 325.5,185.5C 326.699,193.779 326.699,202.112 325.5,210.5C 325.5,212.833 325.5,215.167 325.5,217.5C 324.215,220.589 323.549,223.922 323.5,227.5C 321.592,228.486 320.592,230.152 320.5,232.5C 319.85,234.435 319.517,236.435 319.5,238.5C 316.357,241.004 314.691,244.337 314.5,248.5C 311.58,250.662 309.913,253.662 309.5,257.5C 309.5,257.833 309.5,258.167 309.5,258.5C 306.061,260.389 304.061,263.389 303.5,267.5C 300.676,267.989 299.343,269.656 299.5,272.5C 296.438,273.268 294.772,275.268 294.5,278.5C 287.617,285.558 280.784,292.891 274,300.5C 273.517,301.448 273.351,302.448 273.5,303.5C 272.761,303.369 272.094,303.536 271.5,304C 268.284,307.378 265.284,310.878 262.5,314.5C 260.733,319.003 259.733,323.669 259.5,328.5C 259.5,330.833 259.5,333.167 259.5,335.5C 259.813,339.042 259.479,342.375 258.5,345.5C 256.828,349.931 255.494,354.597 254.5,359.5C 253.326,360.514 252.66,361.847 252.5,363.5C 249.833,364.167 248.167,365.833 247.5,368.5C 245.254,369.455 242.921,370.122 240.5,370.5C 229.253,372.966 217.919,373.132 206.5,371C 204.34,369.668 202.34,368.168 200.5,366.5C 200.975,363.918 200.308,361.918 198.5,360.5C 198.5,356.5 198.5,352.5 198.5,348.5C 199.497,326.34 199.831,304.006 199.5,281.5C 199.5,261.167 199.5,240.833 199.5,220.5C 199.5,171.5 199.5,122.5 199.5,73.5C 199.611,72.8826 199.944,72.3826 200.5,72C 210.514,71.4098 220.514,71.5764 230.5,72.5 Z M 207.5,79.5 C 210.5,79.5 213.5,79.5 216.5,79.5C 225.597,81.589 234.93,83.589 244.5,85.5C 244.833,85.5 245.167,85.5 245.5,85.5C 245.369,86.3764 245.702,87.0431 246.5,87.5C 249.45,88.7054 252.45,89.7054 255.5,90.5C 256.659,92.2503 258.326,93.2503 260.5,93.5C 260.842,94.3382 261.508,94.6716 262.5,94.5C 264.237,96.5497 266.237,98.383 268.5,100C 269.448,100.483 270.448,100.649 271.5,100.5C 271.511,102.017 272.177,103.184 273.5,104C 276.729,106.741 280.062,109.241 283.5,111.5C 287.791,117.792 292.458,123.792 297.5,129.5C 297.5,129.833 297.5,130.167 297.5,130.5C 298.145,132.826 299.478,134.493 301.5,135.5C 301.402,137.553 302.069,139.22 303.5,140.5C 303.554,142.632 304.554,143.965 306.5,144.5C 309.157,151.824 311.824,159.157 314.5,166.5C 315.508,168.544 316.508,170.544 317.5,172.5C 317.843,177.253 318.51,181.919 319.5,186.5C 319.5,194.167 319.5,201.833 319.5,209.5C 318.735,212.096 318.401,214.763 318.5,217.5C 317.207,220.679 316.54,224.012 316.5,227.5C 314.464,229.206 313.464,231.539 313.5,234.5C 309.848,241.754 306.181,249.088 302.5,256.5C 299.723,258.951 297.723,261.951 296.5,265.5C 290.947,272.169 285.114,278.836 279,285.5C 277.906,287.078 277.072,288.745 276.5,290.5C 274.973,290.427 273.973,291.094 273.5,292.5C 271.122,294.878 269.122,297.545 267.5,300.5C 264.739,301.593 263.073,303.593 262.5,306.5C 260.453,308.55 258.786,310.883 257.5,313.5C 256.076,315.515 255.41,317.848 255.5,320.5C 255.5,321.5 255.5,322.5 255.5,323.5C 253.631,325.635 252.964,328.302 253.5,331.5C 253.5,332.833 253.5,334.167 253.5,335.5C 252.479,339.98 251.813,344.647 251.5,349.5C 249.733,353.033 247.9,356.7 246,360.5C 243.262,362.426 240.762,364.426 238.5,366.5C 228.167,367.833 217.833,367.833 207.5,366.5C 206.381,270.872 206.381,175.205 207.5,79.5 Z"/></g>
<g><path style="opacity:0.096" fill="#bfbfbf" d="M 244.5,75.5 C 247.697,76.4521 250.697,77.7855 253.5,79.5C 249.818,79.2891 246.818,77.9558 244.5,75.5 Z"/></g>
<g><path style="opacity:0.922" fill="#6d6968" d="M 191.5,88.5 C 192.153,82.631 189.486,79.2977 183.5,78.5C 179.747,75.1225 175.247,73.7892 170,74.5C 163.703,74.7838 157.536,75.7838 151.5,77.5C 151.5,76.8333 151.5,76.1667 151.5,75.5C 152.15,75.8039 152.817,76.1373 153.5,76.5C 162.095,72.2027 171.095,71.3694 180.5,74C 184.194,75.1982 187.528,77.0315 190.5,79.5C 191.484,82.4281 191.817,85.4281 191.5,88.5 Z"/></g>
<g><path style="opacity:0.89" fill="#434343" d="M 236.5,73.5 C 239.341,73.5597 242.007,74.2264 244.5,75.5C 246.818,77.9558 249.818,79.2891 253.5,79.5C 253.5,80.1667 253.5,80.8333 253.5,81.5C 248.201,79.8817 243.034,77.8817 238,75.5C 236.97,75.1639 236.47,74.4972 236.5,73.5 Z"/></g>
<g><path style="opacity:1" fill="#f4d669" d="M 142.5,78.5 C 146.581,80.5256 150.915,81.5256 155.5,81.5C 159.562,79.6545 163.896,78.6545 168.5,78.5C 173.656,78.9585 178.656,79.9585 183.5,81.5C 183.833,81.5 184.167,81.5 184.5,81.5C 185.822,93.8207 185.655,106.154 184,118.5C 183.5,200.499 183.333,282.499 183.5,364.5C 174.549,365.136 165.882,364.136 157.5,361.5C 157.192,360.692 156.692,360.025 156,359.5C 153.015,360.961 150.515,360.295 148.5,357.5C 151.785,357.302 153.452,355.635 153.5,352.5C 150.426,352.127 147.426,351.461 144.5,350.5C 144.357,348.738 144.691,347.071 145.5,345.5C 144.675,344.614 143.675,344.281 142.5,344.5C 142.784,342.585 142.451,340.919 141.5,339.5C 140.979,335.519 140.646,331.519 140.5,327.5C 140.727,322.456 140.394,317.456 139.5,312.5C 141.121,310.395 142.454,308.062 143.5,305.5C 143.973,304.094 144.973,303.427 146.5,303.5C 148.645,302.152 150.812,301.818 153,302.5C 153.245,297.087 156.079,294.087 161.5,293.5C 161.87,289.112 163.203,285.112 165.5,281.5C 166.495,276.208 166.828,270.875 166.5,265.5C 164.123,265.216 161.956,265.216 160,265.5C 159.502,268.482 159.335,271.482 159.5,274.5C 159.371,276.216 159.038,277.883 158.5,279.5C 153.76,287.908 147.093,294.241 138.5,298.5C 135.309,299.092 132.309,300.259 129.5,302C 120.595,303.124 111.928,302.457 103.5,300C 101.933,297.259 99.5993,296.092 96.5,296.5C 91.7252,293.378 88.3919,289.045 86.5,283.5C 85.5384,277.892 84.8717,272.225 84.5,266.5C 84.5235,263.579 84.8568,260.746 85.5,258C 99.7403,259.687 113.407,257.854 126.5,252.5C 127.721,251.972 128.887,251.305 130,250.5C 130.432,249.4 129.932,248.733 128.5,248.5C 124.87,249.426 121.203,250.093 117.5,250.5C 105.026,251.009 92.6923,250.176 80.5,248C 78.8839,247.385 77.5505,246.385 76.5,245C 75.2068,244.51 73.8734,244.343 72.5,244.5C 69.2689,242.78 66.4356,240.447 64,237.5C 62.7993,235.091 61.1326,233.091 59,231.5C 58.6481,229.753 58.1481,228.086 57.5,226.5C 54.8333,218.5 54.8333,210.5 57.5,202.5C 59.6288,195.897 63.4621,190.563 69,186.5C 74.0023,192.343 80.1689,196.343 87.5,198.5C 91.7416,199.968 96.2416,200.634 101,200.5C 105.133,200.714 108.966,200.048 112.5,198.5C 114.288,198.215 115.955,198.548 117.5,199.5C 120.187,205.355 123.854,210.522 128.5,215C 131.525,217.194 134.859,218.694 138.5,219.5C 139.298,219.043 139.631,218.376 139.5,217.5C 137.639,215.255 136.639,212.588 136.5,209.5C 134.61,209.703 133.11,209.037 132,207.5C 131.178,205.212 130.511,202.878 130,200.5C 128.415,199.624 127.415,198.291 127,196.5C 126.333,189.167 126.333,181.833 127,174.5C 127.912,170.723 129.412,167.223 131.5,164C 130.472,160.549 128.139,159.049 124.5,159.5C 124.5,160.833 124.5,162.167 124.5,163.5C 123.833,164.833 123.167,166.167 122.5,167.5C 120.461,168.672 119.128,170.338 118.5,172.5C 115.035,178.883 113.368,185.883 113.5,193.5C 106.159,193.666 98.8258,193.5 91.5,193C 88.3897,191.476 85.0564,190.642 81.5,190.5C 68.7631,180.304 63.5964,166.97 66,150.5C 68.2458,139.772 74.0791,131.772 83.5,126.5C 87.6496,126.174 91.1496,124.507 94,121.5C 94.2401,123.852 95.0735,125.852 96.5,127.5C 99.5614,133.947 103.395,139.947 108,145.5C 111.775,150.113 116.275,153.78 121.5,156.5C 122.583,155.635 122.749,154.635 122,153.5C 111.575,144.634 104.742,133.634 101.5,120.5C 102.094,113.778 103.094,107.111 104.5,100.5C 105.723,96.9505 107.723,93.9505 110.5,91.5C 112.587,90.4154 113.92,88.7488 114.5,86.5C 117.475,83.6771 120.808,81.3437 124.5,79.5C 130.464,78.6932 136.464,78.3599 142.5,78.5 Z"/></g>
<g><path style="opacity:1" fill="#cdbb72" d="M 181.5,79.5 C 182.167,80.1667 182.833,80.8333 183.5,81.5C 178.656,79.9585 173.656,78.9585 168.5,78.5C 163.896,78.6545 159.562,79.6545 155.5,81.5C 156.975,79.5905 158.975,78.4238 161.5,78C 168.294,77.128 174.96,77.628 181.5,79.5 Z"/></g>
<g><path style="opacity:0.353" fill="#909090" d="M 216.5,79.5 C 220.167,79.5 223.833,79.5 227.5,79.5C 231.673,80.6053 236.007,81.6053 240.5,82.5C 242.16,83.1716 243.493,84.1716 244.5,85.5C 234.93,83.589 225.597,81.589 216.5,79.5 Z"/></g>
<g><path style="opacity:0.314" fill="#939393" d="M 245.5,85.5 C 249.726,85.6686 253.059,87.3353 255.5,90.5C 252.45,89.7054 249.45,88.7054 246.5,87.5C 245.702,87.0431 245.369,86.3764 245.5,85.5 Z"/></g>
<g><path style="opacity:1" fill="#9e9366" d="M 114.5,86.5 C 113.92,88.7488 112.587,90.4154 110.5,91.5C 111.08,89.2512 112.413,87.5846 114.5,86.5 Z"/></g>
<g><path style="opacity:0.027" fill="#b1b1b1" d="M 255.5,90.5 C 258.034,90.2591 259.7,91.2591 260.5,93.5C 258.326,93.2503 256.659,92.2503 255.5,90.5 Z"/></g>
<g><path style="opacity:0.302" fill="#969696" d="M 253.5,79.5 C 260.544,82.1895 267.21,85.6895 273.5,90C 274.252,90.6708 274.586,91.5041 274.5,92.5C 273.448,92.6495 272.448,92.4828 271.5,92C 265.905,87.7059 259.905,84.2059 253.5,81.5C 253.5,80.8333 253.5,80.1667 253.5,79.5 Z"/></g>
<g><path style="opacity:0.159" fill="#a2a2a2" d="M 262.5,94.5 C 265.262,95.3795 267.929,96.5462 270.5,98C 271.252,98.6708 271.586,99.5041 271.5,100.5C 270.448,100.649 269.448,100.483 268.5,100C 266.237,98.383 264.237,96.5497 262.5,94.5 Z"/></g>
<g><path style="opacity:0.118" fill="#acacac" d="M 274.5,92.5 C 278.363,93.6936 281.363,96.027 283.5,99.5C 279.507,98.3487 276.507,96.0154 274.5,92.5 Z"/></g>
<g><path style="opacity:0.041" fill="#c8c8c8" d="M 283.5,99.5 C 285.5,100.167 286.833,101.5 287.5,103.5C 286.833,101.5 285.5,100.167 283.5,99.5 Z"/></g>
<g><path style="opacity:1" fill="#12110f" d="M 192.5,179.5 C 192.5,186.167 192.5,192.833 192.5,199.5C 192.5,211.5 192.5,223.5 192.5,235.5C 192.5,259.833 192.5,284.167 192.5,308.5C 192.81,328.546 192.476,348.546 191.5,368.5C 190.078,368.75 189.078,369.583 188.5,371C 184.736,371.985 180.903,372.485 177,372.5C 169.484,371.943 161.984,371.276 154.5,370.5C 154.167,370.5 153.833,370.5 153.5,370.5C 151.284,367.556 148.284,365.889 144.5,365.5C 143.5,362.5 141.5,360.5 138.5,359.5C 138.715,357.821 138.048,356.821 136.5,356.5C 136.5,356.167 136.5,355.833 136.5,355.5C 137.158,354.207 137.492,352.707 137.5,351C 137.431,349.014 136.765,347.514 135.5,346.5C 135.5,345.167 135.5,343.833 135.5,342.5C 136.331,335.869 136.664,329.202 136.5,322.5C 137.693,322.97 138.36,323.97 138.5,325.5C 139.178,330.814 139.678,336.148 140,341.5C 140.278,342.416 140.778,343.082 141.5,343.5C 141.231,356.403 147.565,363.569 160.5,365C 168.827,365.5 177.16,365.666 185.5,365.5C 185.5,296.833 185.5,228.167 185.5,159.5C 186.317,157.031 186.817,154.365 187,151.5C 187.5,135.17 187.667,118.837 187.5,102.5C 188.328,96.0126 188.828,89.346 189,82.5C 190.235,111.145 190.902,139.812 191,168.5C 191.177,172.356 191.677,176.023 192.5,179.5 Z"/></g>
<g><path style="opacity:0.118" fill="#a4a4a4" d="M 271.5,100.5 C 272.766,101.09 274.099,101.59 275.5,102C 278.448,104.963 281.115,108.13 283.5,111.5C 280.062,109.241 276.729,106.741 273.5,104C 272.177,103.184 271.511,102.017 271.5,100.5 Z"/></g>
<g><path style="opacity:0.353" fill="#3c3c3c" d="M 227.5,79.5 C 223.833,79.5 220.167,79.5 216.5,79.5C 213.5,79.5 210.5,79.5 207.5,79.5C 206.778,114.84 205.778,150.173 204.5,185.5C 204.248,149.822 204.748,114.155 206,78.5C 213.322,77.1558 220.489,77.4891 227.5,79.5 Z"/></g>
<g><path style="opacity:0.369" fill="#808080" d="M 287.5,103.5 C 291.012,105.668 293.345,108.668 294.5,112.5C 292.983,112.489 291.816,111.823 291,110.5C 290.011,108.03 288.845,105.697 287.5,103.5 Z"/></g>
<g><path style="opacity:0.165" fill="#a2a2a2" d="M 283.5,111.5 C 284.239,111.369 284.906,111.536 285.5,112C 288.677,114.932 291.51,118.098 294,121.5C 295.454,124.071 296.62,126.738 297.5,129.5C 292.458,123.792 287.791,117.792 283.5,111.5 Z"/></g>
<g><path style="opacity:1" fill="#afa267" d="M 104.5,100.5 C 103.094,107.111 102.094,113.778 101.5,120.5C 100.355,116.689 100.188,112.689 101,108.5C 101.387,105.401 102.554,102.734 104.5,100.5 Z"/></g>
<g><path style="opacity:0.294" fill="#8a8a8a" d="M 294.5,112.5 C 297.562,113.268 299.228,115.268 299.5,118.5C 296.447,117.72 294.78,115.72 294.5,112.5 Z"/></g>
<g><path style="opacity:0.09" fill="#d3d3d3" d="M 249.5,124.5 C 247.599,124.567 245.766,124.233 244,123.5C 242.97,123.836 242.47,124.503 242.5,125.5C 241.133,123.907 241.466,122.574 243.5,121.5C 245.604,122.519 247.604,123.519 249.5,124.5 Z"/></g>
<g><path style="opacity:1" fill="#151412" d="M 151.5,77.5 C 157.536,75.7838 163.703,74.7838 170,74.5C 175.247,73.7892 179.747,75.1225 183.5,78.5C 183.158,79.3382 182.492,79.6716 181.5,79.5C 174.96,77.628 168.294,77.128 161.5,78C 158.975,78.4238 156.975,79.5905 155.5,81.5C 150.915,81.5256 146.581,80.5256 142.5,78.5C 140.19,77.8362 137.69,77.5029 135,77.5C 131.195,77.3037 127.695,77.9704 124.5,79.5C 120.808,81.3437 117.475,83.6771 114.5,86.5C 112.413,87.5846 111.08,89.2512 110.5,91.5C 107.723,93.9505 105.723,96.9505 104.5,100.5C 102.554,102.734 101.387,105.401 101,108.5C 100.188,112.689 100.355,116.689 101.5,120.5C 104.742,133.634 111.575,144.634 122,153.5C 122.749,154.635 122.583,155.635 121.5,156.5C 116.275,153.78 111.775,150.113 108,145.5C 103.395,139.947 99.5614,133.947 96.5,127.5C 96.3259,125.139 95.9926,122.806 95.5,120.5C 90.8159,121.196 86.8159,123.196 83.5,126.5C 74.0791,131.772 68.2458,139.772 66,150.5C 63.5964,166.97 68.7631,180.304 81.5,190.5C 84.1667,191.833 86.8333,193.167 89.5,194.5C 94.4009,196.052 99.5676,196.719 105,196.5C 109.229,196.49 113.062,195.823 116.5,194.5C 116.221,189.405 116.555,184.405 117.5,179.5C 119.759,175.866 121.425,171.866 122.5,167.5C 123.167,166.167 123.833,164.833 124.5,163.5C 125.708,162.766 127.041,162.433 128.5,162.5C 124.726,173.117 123.56,184.117 125,195.5C 127.593,204.364 132.426,211.697 139.5,217.5C 139.631,218.376 139.298,219.043 138.5,219.5C 134.859,218.694 131.525,217.194 128.5,215C 123.854,210.522 120.187,205.355 117.5,199.5C 115.955,198.548 114.288,198.215 112.5,198.5C 104.181,199.63 95.8474,199.63 87.5,198.5C 80.1689,196.343 74.0023,192.343 69,186.5C 63.4621,190.563 59.6288,195.897 57.5,202.5C 56.0337,203.347 55.2004,204.68 55,206.5C 54.3333,211.833 54.3333,217.167 55,222.5C 55.2004,224.32 56.0337,225.653 57.5,226.5C 58.1481,228.086 58.6481,229.753 59,231.5C 61.1326,233.091 62.7993,235.091 64,237.5C 66.4356,240.447 69.2689,242.78 72.5,244.5C 75.6332,248.067 79.6332,250.067 84.5,250.5C 84.6107,251.117 84.944,251.617 85.5,252C 96.353,254.152 107.02,253.986 117.5,251.5C 117.5,251.167 117.5,250.833 117.5,250.5C 121.203,250.093 124.87,249.426 128.5,248.5C 129.932,248.733 130.432,249.4 130,250.5C 128.887,251.305 127.721,251.972 126.5,252.5C 119.815,253.741 113.148,255.074 106.5,256.5C 98.9804,256.092 91.6471,256.092 84.5,256.5C 83.346,262.987 83.1794,269.654 84,276.5C 84.3903,279.104 85.2237,281.438 86.5,283.5C 88.3919,289.045 91.7252,293.378 96.5,296.5C 98.8612,300.018 102.195,302.018 106.5,302.5C 108.026,304.13 110.026,304.963 112.5,305C 117.02,305.814 121.354,305.647 125.5,304.5C 129.066,303.404 132.732,302.238 136.5,301C 137.381,300.292 138.047,299.458 138.5,298.5C 147.093,294.241 153.76,287.908 158.5,279.5C 159.79,278.942 160.623,277.942 161,276.5C 161.498,273.518 161.665,270.518 161.5,267.5C 162.5,267.5 163.5,267.5 164.5,267.5C 164.566,277.136 161.732,285.803 156,293.5C 152.58,296.749 149.413,300.083 146.5,303.5C 144.973,303.427 143.973,304.094 143.5,305.5C 141.716,305.893 140.05,306.559 138.5,307.5C 137.307,307.97 136.64,308.97 136.5,310.5C 136.599,312.799 137.266,314.799 138.5,316.5C 138.808,320.36 139.475,324.026 140.5,327.5C 140.646,331.519 140.979,335.519 141.5,339.5C 141.5,340.833 141.5,342.167 141.5,343.5C 140.778,343.082 140.278,342.416 140,341.5C 139.678,336.148 139.178,330.814 138.5,325.5C 138.36,323.97 137.693,322.97 136.5,322.5C 136.225,318.436 135.225,314.77 133.5,311.5C 131.673,310.418 129.673,310.418 127.5,311.5C 126.287,311.747 125.62,312.414 125.5,313.5C 120.786,313.827 116.12,313.493 111.5,312.5C 107.628,310.992 103.628,309.992 99.5,309.5C 94.5261,304.861 89.5261,300.195 84.5,295.5C 83.9916,292.148 82.6582,289.148 80.5,286.5C 79.8924,283.855 79.3924,281.188 79,278.5C 79.0017,272.083 78.8351,265.75 78.5,259.5C 80.2155,258.426 81.2155,256.759 81.5,254.5C 76.3278,252.412 71.3278,250.079 66.5,247.5C 61.6657,241.819 57.3324,235.819 53.5,229.5C 48.5559,213.857 51.5559,200.024 62.5,188C 68.0332,186.374 68.6998,183.874 64.5,180.5C 61.898,174.493 60.5647,168.16 60.5,161.5C 59.8408,153.763 61.1741,146.43 64.5,139.5C 63.45,137.898 64.1167,137.065 66.5,137C 67.6667,135.167 68.8333,133.333 70,131.5C 74.5101,127.358 79.0101,123.358 83.5,119.5C 83.8333,119.5 84.1667,119.5 84.5,119.5C 88.0101,120.094 91.5101,119.428 95,117.5C 94.463,109.389 96.2963,101.889 100.5,95C 108.956,78.4783 122.289,71.3116 140.5,73.5C 144.024,75.2952 147.691,76.6285 151.5,77.5 Z"/></g>
<g><path style="opacity:1" fill="#928760" d="M 142.5,78.5 C 136.464,78.3599 130.464,78.6932 124.5,79.5C 127.695,77.9704 131.195,77.3037 135,77.5C 137.69,77.5029 140.19,77.8362 142.5,78.5 Z"/></g>
<g><path style="opacity:0.902" fill="#2a2928" d="M 183.5,78.5 C 189.486,79.2977 192.153,82.631 191.5,88.5C 191.5,89.5 191.5,90.5 191.5,91.5C 191.478,120.838 191.811,150.172 192.5,179.5C 191.677,176.023 191.177,172.356 191,168.5C 190.902,139.812 190.235,111.145 189,82.5C 188.828,89.346 188.328,96.0126 187.5,102.5C 187.824,95.6457 187.491,88.979 186.5,82.5C 185.833,82.1667 185.167,81.8333 184.5,81.5C 184.167,81.5 183.833,81.5 183.5,81.5C 182.833,80.8333 182.167,80.1667 181.5,79.5C 182.492,79.6716 183.158,79.3382 183.5,78.5 Z"/></g>
<g><path style="opacity:1" fill="#c9b56d" d="M 96.5,127.5 C 95.0735,125.852 94.2401,123.852 94,121.5C 91.1496,124.507 87.6496,126.174 83.5,126.5C 86.8159,123.196 90.8159,121.196 95.5,120.5C 95.9926,122.806 96.3259,125.139 96.5,127.5 Z"/></g>
<g><path style="opacity:0.871" fill="#414141" d="M 197.5,73.5 C 198.167,73.5 198.833,73.5 199.5,73.5C 199.5,122.5 199.5,171.5 199.5,220.5C 198.833,219.833 198.167,219.167 197.5,218.5C 196.927,170.138 196.927,121.804 197.5,73.5 Z"/></g>
<g><path style="opacity:0.124" fill="#b1b1b1" d="M 249.5,124.5 C 252.676,125.34 255.342,127.007 257.5,129.5C 254.197,128.849 251.53,127.182 249.5,124.5 Z"/></g>
<g><path style="opacity:0.035" fill="#9d9d9d" d="M 299.5,118.5 C 300.496,118.414 301.329,118.748 302,119.5C 304.758,124.075 307.258,128.742 309.5,133.5C 304.943,129.406 301.61,124.406 299.5,118.5 Z"/></g>
<g><path style="opacity:0.212" fill="#a1a1a1" d="M 242.5,125.5 C 245.335,126.069 247.001,127.736 247.5,130.5C 245.167,129.5 243.5,127.833 242.5,125.5 Z"/></g>
<g><path style="opacity:0.998" fill="#131313" d="M 249.5,124.5 C 251.53,127.182 254.197,128.849 257.5,129.5C 258.129,131.997 259.796,133.33 262.5,133.5C 263.167,136.167 264.833,137.833 267.5,138.5C 268.412,140.595 269.579,142.595 271,144.5C 271.671,145.252 272.504,145.586 273.5,145.5C 274.383,148.704 276.05,151.371 278.5,153.5C 279.596,159.333 280.93,165 282.5,170.5C 282.819,175.646 282.153,180.646 280.5,185.5C 280.036,183.025 279.036,181.025 277.5,179.5C 277.626,172.62 275.626,166.62 271.5,161.5C 271.741,158.966 270.741,157.3 268.5,156.5C 267.309,153.111 265.809,149.778 264,146.5C 263.184,145.177 262.017,144.511 260.5,144.5C 259.21,139.675 256.21,136.342 251.5,134.5C 251.167,132.167 249.833,130.833 247.5,130.5C 247.001,127.736 245.335,126.069 242.5,125.5C 242.47,124.503 242.97,123.836 244,123.5C 245.766,124.233 247.599,124.567 249.5,124.5 Z"/></g>
<g><path style="opacity:0.036" fill="#d0d0d0" d="M 247.5,130.5 C 249.833,130.833 251.167,132.167 251.5,134.5C 249.5,133.833 248.167,132.5 247.5,130.5 Z"/></g>
<g><path style="opacity:0.094" fill="#acacac" d="M 257.5,129.5 C 260.204,129.67 261.871,131.003 262.5,133.5C 259.796,133.33 258.129,131.997 257.5,129.5 Z"/></g>
<g><path style="opacity:0.235" fill="#a2a2a2" d="M 297.5,130.5 C 300.297,130.967 301.631,132.633 301.5,135.5C 299.478,134.493 298.145,132.826 297.5,130.5 Z"/></g>
<g><path style="opacity:0.086" fill="#939393" d="M 262.5,133.5 C 264.911,134.517 266.578,136.184 267.5,138.5C 264.833,137.833 263.167,136.167 262.5,133.5 Z"/></g>
<g><path style="opacity:0.051" fill="#cccccc" d="M 301.5,135.5 C 302.931,136.78 303.598,138.447 303.5,140.5C 302.069,139.22 301.402,137.553 301.5,135.5 Z"/></g>
<g><path style="opacity:0.149" fill="#969696" d="M 251.5,134.5 C 256.21,136.342 259.21,139.675 260.5,144.5C 257.517,141.24 254.517,137.906 251.5,134.5 Z"/></g>
<g><path style="opacity:0.039" fill="#9e9e9e" d="M 267.5,138.5 C 270.932,139.599 272.932,141.933 273.5,145.5C 272.504,145.586 271.671,145.252 271,144.5C 269.579,142.595 268.412,140.595 267.5,138.5 Z"/></g>
<g><path style="opacity:0.098" fill="#9d9d9d" d="M 303.5,140.5 C 305.912,140.694 306.912,142.027 306.5,144.5C 304.554,143.965 303.554,142.632 303.5,140.5 Z"/></g>
<g><path style="opacity:0.271" fill="#9c9c9c" d="M 309.5,134.5 C 312.415,136.651 314.082,139.651 314.5,143.5C 311.54,141.348 309.873,138.348 309.5,134.5 Z"/></g>
<g><path style="opacity:0.988" fill="#404040" d="M 83.5,119.5 C 79.0101,123.358 74.5101,127.358 70,131.5C 68.8333,133.333 67.6667,135.167 66.5,137C 64.1167,137.065 63.45,137.898 64.5,139.5C 61.1741,146.43 59.8408,153.763 60.5,161.5C 59.8333,161.5 59.1667,161.5 58.5,161.5C 56.9212,141.448 65.2545,127.448 83.5,119.5 Z"/></g>
<g><path style="opacity:0.404" fill="#959595" d="M 260.5,144.5 C 262.017,144.511 263.184,145.177 264,146.5C 265.809,149.778 267.309,153.111 268.5,156.5C 265.474,152.795 262.808,148.795 260.5,144.5 Z"/></g>
<g><path style="opacity:0.094" fill="#bfbfbf" d="M 273.5,145.5 C 276.182,147.53 277.849,150.197 278.5,153.5C 276.05,151.371 274.383,148.704 273.5,145.5 Z"/></g>
<g><path style="opacity:0.478" fill="#959595" d="M 314.5,143.5 C 317.657,147.957 319.657,152.957 320.5,158.5C 316.952,154.205 314.952,149.205 314.5,143.5 Z"/></g>
<g><path style="opacity:0.206" fill="#a6a6a6" d="M 268.5,156.5 C 270.741,157.3 271.741,158.966 271.5,161.5C 269.75,160.341 268.75,158.674 268.5,156.5 Z"/></g>
<g><path style="opacity:1" fill="#918353" d="M 186.5,82.5 C 187.491,88.979 187.824,95.6457 187.5,102.5C 187.667,118.837 187.5,135.17 187,151.5C 186.817,154.365 186.317,157.031 185.5,159.5C 185.694,133.831 186.027,108.164 186.5,82.5 Z"/></g>
<g><path style="opacity:0.549" fill="#787878" d="M 306.5,144.5 C 307.801,145.64 308.968,146.973 310,148.5C 313.003,154.177 315.17,160.177 316.5,166.5C 315.833,166.5 315.167,166.5 314.5,166.5C 311.824,159.157 309.157,151.824 306.5,144.5 Z"/></g>
<g><path style="opacity:0.424" fill="#808080" d="M 278.5,153.5 C 281.91,158.145 283.576,163.478 283.5,169.5C 282.833,169.5 282.5,169.833 282.5,170.5C 280.93,165 279.596,159.333 278.5,153.5 Z"/></g>
<g><path style="opacity:0.251" fill="#a3a3a3" d="M 320.5,158.5 C 321.117,158.611 321.617,158.944 322,159.5C 324.597,168.109 326.43,176.776 327.5,185.5C 326.833,185.5 326.167,185.5 325.5,185.5C 325.329,180.804 324.829,176.137 324,171.5C 321.74,167.46 320.573,163.127 320.5,158.5 Z"/></g>
<g><path style="opacity:0.19" fill="#7c7c7c" d="M 58.5,161.5 C 59.1667,161.5 59.8333,161.5 60.5,161.5C 60.5647,168.16 61.898,174.493 64.5,180.5C 62.8639,179.251 61.6972,177.584 61,175.5C 59.8416,170.882 59.0083,166.216 58.5,161.5 Z"/></g>
<g><path style="opacity:0.173" fill="#9a9a9a" d="M 271.5,161.5 C 275.626,166.62 277.626,172.62 277.5,179.5C 274.989,173.779 272.989,167.779 271.5,161.5 Z"/></g>
<g><path style="opacity:0.043" fill="#cfcfcf" d="M 314.5,166.5 C 315.167,166.5 315.833,166.5 316.5,166.5C 317.15,168.435 317.483,170.435 317.5,172.5C 316.508,170.544 315.508,168.544 314.5,166.5 Z"/></g>
<g><path style="opacity:1" fill="#574d36" d="M 122.5,167.5 C 121.425,171.866 119.759,175.866 117.5,179.5C 118.219,177.236 118.552,174.903 118.5,172.5C 119.128,170.338 120.461,168.672 122.5,167.5 Z"/></g>
<g><path style="opacity:1" fill="#e0c974" d="M 139.5,217.5 C 132.426,211.697 127.593,204.364 125,195.5C 123.56,184.117 124.726,173.117 128.5,162.5C 127.041,162.433 125.708,162.766 124.5,163.5C 124.5,162.167 124.5,160.833 124.5,159.5C 128.139,159.049 130.472,160.549 131.5,164C 129.412,167.223 127.912,170.723 127,174.5C 126.333,181.833 126.333,189.167 127,196.5C 127.415,198.291 128.415,199.624 130,200.5C 130.511,202.878 131.178,205.212 132,207.5C 133.11,209.037 134.61,209.703 136.5,209.5C 136.639,212.588 137.639,215.255 139.5,217.5 Z"/></g>
<g><path style="opacity:0.427" fill="#797979" d="M 283.5,169.5 C 284.748,175.656 284.415,181.656 282.5,187.5C 281.167,187.5 279.833,187.5 278.5,187.5C 277.612,184.946 277.279,182.279 277.5,179.5C 279.036,181.025 280.036,183.025 280.5,185.5C 282.153,180.646 282.819,175.646 282.5,170.5C 282.5,169.833 282.833,169.5 283.5,169.5 Z"/></g>
<g><path style="opacity:0.761" fill="#6a6a6a" d="M 317.5,172.5 C 318.649,172.791 319.316,173.624 319.5,175C 320.223,178.837 320.889,182.67 321.5,186.5C 320.833,186.5 320.167,186.5 319.5,186.5C 318.51,181.919 317.843,177.253 317.5,172.5 Z"/></g>
<g><path style="opacity:0.144" fill="#cbcbcb" d="M 191.5,91.5 C 192.407,127.388 193.407,163.388 194.5,199.5C 193.833,199.5 193.167,199.5 192.5,199.5C 192.5,192.833 192.5,186.167 192.5,179.5C 191.811,150.172 191.478,120.838 191.5,91.5 Z"/></g>
<g><path style="opacity:0.012" fill="#b6b6b6" d="M 278.5,187.5 C 279.833,187.5 281.167,187.5 282.5,187.5C 282.5,188.5 282.5,189.5 282.5,190.5C 281.167,190.5 279.833,190.5 278.5,190.5C 278.5,189.5 278.5,188.5 278.5,187.5 Z"/></g>
<g><path style="opacity:0.663" fill="#505050" d="M 64.5,180.5 C 68.6998,183.874 68.0332,186.374 62.5,188C 51.5559,200.024 48.5559,213.857 53.5,229.5C 52.8333,228.833 52.1667,228.167 51.5,227.5C 45.6201,210.301 49.7867,195.968 64,184.5C 64.49,183.207 64.6567,181.873 64.5,180.5 Z"/></g>
<g><path style="opacity:1" fill="#dcc674" d="M 118.5,172.5 C 118.552,174.903 118.219,177.236 117.5,179.5C 116.555,184.405 116.221,189.405 116.5,194.5C 107.505,195.797 98.5045,195.797 89.5,194.5C 86.8333,193.167 84.1667,191.833 81.5,190.5C 85.0564,190.642 88.3897,191.476 91.5,193C 98.8258,193.5 106.159,193.666 113.5,193.5C 113.368,185.883 115.035,178.883 118.5,172.5 Z"/></g>
<g><path style="opacity:1" fill="#5a523f" d="M 89.5,194.5 C 98.5045,195.797 107.505,195.797 116.5,194.5C 113.062,195.823 109.229,196.49 105,196.5C 99.5676,196.719 94.4009,196.052 89.5,194.5 Z"/></g>
<g><path style="opacity:0.884" fill="#000000" d="M 799.5,198.5 C 806.91,198.149 813.91,199.649 820.5,203C 823.612,205.439 825.945,208.439 827.5,212C 827,215.167 825.167,217 822,217.5C 818.569,215.739 815.403,213.572 812.5,211C 807.125,209.125 801.791,209.125 796.5,211C 791.167,216 791.167,221 796.5,226C 804.919,229.807 813.253,233.807 821.5,238C 833.322,249.28 833.322,260.613 821.5,272C 809.819,277.96 798.152,277.96 786.5,272C 782.617,269.131 779.95,265.465 778.5,261C 779.634,255.627 782.634,254.294 787.5,257C 795.135,266.574 804.469,268.574 815.5,263C 818.671,259.15 819.504,254.983 818,250.5C 816.5,249 815,247.5 813.5,246C 804.873,242.571 796.54,238.571 788.5,234C 780.683,225.672 779.516,216.505 785,206.5C 789.134,202.354 793.968,199.687 799.5,198.5 Z"/></g>
<g><path style="opacity:1" fill="#746c4a" d="M 87.5,198.5 C 95.8474,199.63 104.181,199.63 112.5,198.5C 108.966,200.048 105.133,200.714 101,200.5C 96.2416,200.634 91.7416,199.968 87.5,198.5 Z"/></g>
<g><path style="opacity:0.072" fill="#c7c7c7" d="M 319.5,186.5 C 320.167,186.5 320.833,186.5 321.5,186.5C 321.5,194.167 321.5,201.833 321.5,209.5C 320.833,209.5 320.167,209.5 319.5,209.5C 319.5,201.833 319.5,194.167 319.5,186.5 Z"/></g>
<g><path style="opacity:0.887" fill="#000000" d="M 391.5,199.5 C 394.272,199.22 396.772,199.887 399,201.5C 407.667,212.167 416.333,222.833 425,233.5C 433.833,222.667 442.667,211.833 451.5,201C 454.46,198.948 457.293,199.114 460,201.5C 461.636,224.77 461.969,248.103 461,271.5C 459.309,275.213 456.475,276.379 452.5,275C 451.299,274.097 450.465,272.931 450,271.5C 449.667,254.5 449.333,237.5 449,220.5C 442.759,227.985 436.759,235.652 431,243.5C 429.093,247.01 426.26,248.176 422.5,247C 415,238.167 407.5,229.333 400,220.5C 399.667,238.167 399.333,255.833 399,273.5C 395.667,276.167 392.333,276.167 389,273.5C 388.333,249.833 388.333,226.167 389,202.5C 390.045,201.627 390.878,200.627 391.5,199.5 Z"/></g>
<g><path style="opacity:0.925" fill="#000000" d="M 481.5,199.5 C 497.503,199.333 513.503,199.5 529.5,200C 532.978,202.706 533.311,205.706 530.5,209C 516.837,209.5 503.171,209.667 489.5,209.5C 489.5,217.167 489.5,224.833 489.5,232.5C 500.172,232.333 510.839,232.5 521.5,233C 524.167,236 524.167,239 521.5,242C 510.839,242.5 500.172,242.667 489.5,242.5C 489.5,250.167 489.5,257.833 489.5,265.5C 502.837,265.333 516.171,265.5 529.5,266C 532.978,268.706 533.311,271.706 530.5,275C 513.593,275.825 496.759,275.658 480,274.5C 478.354,250.588 478.02,226.588 479,202.5C 480.045,201.627 480.878,200.627 481.5,199.5 Z"/></g>
<g><path style="opacity:0.904" fill="#000000" d="M 547.5,199.5 C 552.029,199.496 555.529,201.496 558,205.5C 571,221.833 584,238.167 597,254.5C 597.333,237.167 597.667,219.833 598,202.5C 600.838,198.965 604.005,198.632 607.5,201.5C 608.656,225.457 608.823,249.457 608,273.5C 606.758,274.872 605.258,275.872 603.5,276.5C 600.567,275.07 598.067,273.07 596,270.5C 582.667,253.833 569.333,237.167 556,220.5C 555.667,238.167 555.333,255.833 555,273.5C 551.667,276.167 548.333,276.167 545,273.5C 544.333,249.833 544.333,226.167 545,202.5C 546.045,201.627 546.878,200.627 547.5,199.5 Z"/></g>
<g><path style="opacity:0.896" fill="#000000" d="M 620.5,199.5 C 638.836,199.333 657.17,199.5 675.5,200C 678.978,202.706 679.311,205.706 676.5,209C 668.92,210.396 661.253,210.896 653.5,210.5C 653.667,231.503 653.5,252.503 653,273.5C 649.667,276.167 646.333,276.167 643,273.5C 642.5,252.503 642.333,231.503 642.5,210.5C 634.747,210.896 627.08,210.396 619.5,209C 616.908,205.583 617.241,202.416 620.5,199.5 Z"/></g>
<g><path style="opacity:0.925" fill="#000000" d="M 690.5,199.5 C 706.503,199.333 722.503,199.5 738.5,200C 741.978,202.706 742.311,205.706 739.5,209C 725.837,209.5 712.171,209.667 698.5,209.5C 698.5,217.167 698.5,224.833 698.5,232.5C 709.172,232.333 719.839,232.5 730.5,233C 733.167,236 733.167,239 730.5,242C 719.839,242.5 709.172,242.667 698.5,242.5C 698.5,250.167 698.5,257.833 698.5,265.5C 711.837,265.333 725.171,265.5 738.5,266C 741.978,268.706 742.311,271.706 739.5,275C 722.593,275.825 705.759,275.658 689,274.5C 687.354,250.588 687.02,226.588 688,202.5C 689.045,201.627 689.878,200.627 690.5,199.5 Z"/></g>
<g><path style="opacity:0.887" fill="#000000" d="M 847.5,199.5 C 850.272,199.22 852.772,199.887 855,201.5C 863.667,212.167 872.333,222.833 881,233.5C 889.833,222.667 898.667,211.833 907.5,201C 910.46,198.948 913.293,199.114 916,201.5C 917.636,224.77 917.969,248.103 917,271.5C 915.309,275.213 912.475,276.379 908.5,275C 907.299,274.097 906.465,272.931 906,271.5C 905.667,254.5 905.333,237.5 905,220.5C 898.759,227.985 892.759,235.652 887,243.5C 885.093,247.01 882.26,248.176 878.5,247C 871,238.167 863.5,229.333 856,220.5C 855.667,238.167 855.333,255.833 855,273.5C 851.667,276.167 848.333,276.167 845,273.5C 844.333,249.833 844.333,226.167 845,202.5C 846.045,201.627 846.878,200.627 847.5,199.5 Z"/></g>
<g><path style="opacity:0.897" fill="#000000" d="M 958.5,199.5 C 963.133,198.458 966.299,200.125 968,204.5C 977,225.833 986,247.167 995,268.5C 995.902,273.025 994.069,275.692 989.5,276.5C 987.742,275.872 986.242,274.872 985,273.5C 983.069,269.207 981.236,264.874 979.5,260.5C 967.5,259.167 955.5,259.167 943.5,260.5C 941.551,265.563 939.218,270.396 936.5,275C 930.07,277.219 927.237,275.053 928,268.5C 936.667,247.833 945.333,227.167 954,206.5C 955.012,203.798 956.512,201.465 958.5,199.5 Z M 960.5,216.5 C 962.136,217.749 963.303,219.416 964,221.5C 967.798,230.755 971.298,240.089 974.5,249.5C 965.494,249.666 956.494,249.5 947.5,249C 952.524,238.427 956.857,227.593 960.5,216.5 Z"/></g>
<g><path style="opacity:0.882" fill="#000000" d="M 1009.5,199.5 C 1018.84,199.334 1028.17,199.5 1037.5,200C 1056.61,205.039 1063.77,217.206 1059,236.5C 1056.89,242.272 1053.06,246.438 1047.5,249C 1052,255.5 1056.5,262 1061,268.5C 1061.58,275.125 1058.75,277.292 1052.5,275C 1047.04,267.923 1041.71,260.756 1036.5,253.5C 1030.2,252.504 1023.87,252.17 1017.5,252.5C 1017.92,259.615 1017.42,266.615 1016,273.5C 1011.88,276.592 1008.55,275.925 1006,271.5C 1005.33,249.167 1005.33,226.833 1006,204.5C 1006.26,202.093 1007.42,200.427 1009.5,199.5 Z M 1017.5,209.5 C 1022.51,209.334 1027.51,209.501 1032.5,210C 1046.5,212.004 1051.67,219.838 1048,233.5C 1046.24,236.473 1043.74,238.64 1040.5,240C 1032.92,241.396 1025.25,241.896 1017.5,241.5C 1017.5,230.833 1017.5,220.167 1017.5,209.5 Z"/></g>
<g><path style="opacity:0.86" fill="#000000" d="M 1069.5,199.5 C 1087.5,199.333 1105.5,199.5 1123.5,200C 1127.69,202.239 1128.36,205.239 1125.5,209C 1117.92,210.396 1110.25,210.896 1102.5,210.5C 1102.67,230.836 1102.5,251.169 1102,271.5C 1100.37,275.212 1097.54,276.379 1093.5,275C 1092.11,273.829 1091.27,272.329 1091,270.5C 1090.5,250.503 1090.33,230.503 1090.5,210.5C 1083.05,210.929 1075.72,210.429 1068.5,209C 1065.77,205.508 1066.1,202.342 1069.5,199.5 Z"/></g>
<g><path style="opacity:0.204" fill="#7f7f7f" d="M 325.5,185.5 C 326.167,185.5 326.833,185.5 327.5,185.5C 328.814,193.735 328.814,202.068 327.5,210.5C 326.833,210.5 326.167,210.5 325.5,210.5C 326.699,202.112 326.699,193.779 325.5,185.5 Z"/></g>
<g><path style="opacity:1" fill="#e0c973" d="M 184.5,81.5 C 185.167,81.8333 185.833,82.1667 186.5,82.5C 186.027,108.164 185.694,133.831 185.5,159.5C 185.5,228.167 185.5,296.833 185.5,365.5C 177.16,365.666 168.827,365.5 160.5,365C 147.565,363.569 141.231,356.403 141.5,343.5C 141.5,342.167 141.5,340.833 141.5,339.5C 142.451,340.919 142.784,342.585 142.5,344.5C 143.675,344.281 144.675,344.614 145.5,345.5C 144.691,347.071 144.357,348.738 144.5,350.5C 147.426,351.461 150.426,352.127 153.5,352.5C 153.452,355.635 151.785,357.302 148.5,357.5C 150.515,360.295 153.015,360.961 156,359.5C 156.692,360.025 157.192,360.692 157.5,361.5C 165.882,364.136 174.549,365.136 183.5,364.5C 183.333,282.499 183.5,200.499 184,118.5C 185.655,106.154 185.822,93.8207 184.5,81.5 Z"/></g>
<g><path style="opacity:1" fill="#6b6447" d="M 57.5,202.5 C 54.8333,210.5 54.8333,218.5 57.5,226.5C 56.0337,225.653 55.2004,224.32 55,222.5C 54.3333,217.167 54.3333,211.833 55,206.5C 55.2004,204.68 56.0337,203.347 57.5,202.5 Z"/></g>
<g><path style="opacity:0.092" fill="#c7c7c7" d="M 325.5,210.5 C 326.167,210.5 326.833,210.5 327.5,210.5C 328.01,213.388 327.344,215.721 325.5,217.5C 325.5,215.167 325.5,212.833 325.5,210.5 Z"/></g>
<g><path style="opacity:0.365" fill="#777777" d="M 319.5,209.5 C 320.167,209.5 320.833,209.5 321.5,209.5C 321.482,212.736 320.482,215.403 318.5,217.5C 318.401,214.763 318.735,212.096 319.5,209.5 Z"/></g>
<g><path style="opacity:0.027" fill="#dadada" d="M 282.5,219.5 C 281.167,219.5 279.833,219.5 278.5,219.5C 278.62,218.414 279.287,217.747 280.5,217.5C 281.713,217.747 282.38,218.414 282.5,219.5 Z"/></g>
<g><path style="opacity:0.09" fill="#c2c2c2" d="M 325.5,217.5 C 325.678,221.122 325.011,224.456 323.5,227.5C 323.549,223.922 324.215,220.589 325.5,217.5 Z"/></g>
<g><path style="opacity:0.69" fill="#7f7f7f" d="M 278.5,219.5 C 279.833,219.5 281.167,219.5 282.5,219.5C 282.665,223.182 282.499,226.848 282,230.5C 280.147,234.385 278.48,238.385 277,242.5C 276.329,243.252 275.496,243.586 274.5,243.5C 275.743,239.179 277.409,235.012 279.5,231C 280.426,227.861 280.592,224.694 280,221.5C 277.029,225.777 274.862,230.444 273.5,235.5C 273.043,236.298 272.376,236.631 271.5,236.5C 273.025,230.456 275.358,224.79 278.5,219.5 Z"/></g>
<g><path style="opacity:0.375" fill="#a3a3a2" d="M 192.5,199.5 C 193.167,199.5 193.833,199.5 194.5,199.5C 194.5,211.5 194.5,223.5 194.5,235.5C 193.833,235.5 193.167,235.5 192.5,235.5C 192.5,223.5 192.5,211.5 192.5,199.5 Z"/></g>
<g><path style="opacity:0.997" fill="#121212" d="M 274.5,243.5 C 271.524,246.302 268.358,248.969 265,251.5C 264.005,250.934 263.172,250.267 262.5,249.5C 264.997,248.871 266.33,247.204 266.5,244.5C 267.496,244.586 268.329,244.252 269,243.5C 270.136,241.257 270.97,238.924 271.5,236.5C 272.376,236.631 273.043,236.298 273.5,235.5C 274.862,230.444 277.029,225.777 280,221.5C 280.592,224.694 280.426,227.861 279.5,231C 277.409,235.012 275.743,239.179 274.5,243.5 Z"/></g>
<g><path style="opacity:0.157" fill="#7b7b7b" d="M 323.5,227.5 C 323.634,229.292 323.301,230.958 322.5,232.5C 321.833,232.5 321.167,232.5 320.5,232.5C 320.592,230.152 321.592,228.486 323.5,227.5 Z"/></g>
<g><path style="opacity:0.318" fill="#8c8c8c" d="M 316.5,227.5 C 316.821,230.577 315.821,232.91 313.5,234.5C 313.464,231.539 314.464,229.206 316.5,227.5 Z"/></g>
<g><path style="opacity:0.022" fill="#d5d5d5" d="M 320.5,232.5 C 321.167,232.5 321.833,232.5 322.5,232.5C 321.971,234.784 320.971,236.784 319.5,238.5C 319.517,236.435 319.85,234.435 320.5,232.5 Z"/></g>
<g><path style="opacity:0.416" fill="#929292" d="M 319.5,238.5 C 318.958,242.498 317.291,245.832 314.5,248.5C 314.691,244.337 316.357,241.004 319.5,238.5 Z"/></g>
<g><path style="opacity:0.647" fill="#828282" d="M 271.5,236.5 C 270.97,238.924 270.136,241.257 269,243.5C 268.329,244.252 267.496,244.586 266.5,244.5C 267.195,241.085 268.862,238.418 271.5,236.5 Z"/></g>
<g><path style="opacity:0.322" fill="#7c7c7c" d="M 313.5,234.5 C 313.345,237.609 312.678,240.609 311.5,243.5C 308.939,247.262 306.772,251.262 305,255.5C 304.329,256.252 303.496,256.586 302.5,256.5C 306.181,249.088 309.848,241.754 313.5,234.5 Z"/></g>
<g><path style="opacity:0.216" fill="#7d7c7f" d="M 51.5,227.5 C 52.1667,228.167 52.8333,228.833 53.5,229.5C 57.3324,235.819 61.6657,241.819 66.5,247.5C 58.6144,243.089 53.6144,236.422 51.5,227.5 Z"/></g>
<g><path style="opacity:0.161" fill="#9e9e9e" d="M 266.5,244.5 C 266.33,247.204 264.997,248.871 262.5,249.5C 263.08,247.251 264.413,245.585 266.5,244.5 Z"/></g>
<g><path style="opacity:0.231" fill="#949495" d="M 66.5,247.5 C 71.3278,250.079 76.3278,252.412 81.5,254.5C 81.2155,256.759 80.2155,258.426 78.5,259.5C 78.6567,258.127 78.49,256.793 78,255.5C 74.6103,253.554 71.1103,251.721 67.5,250C 66.7476,249.329 66.4142,248.496 66.5,247.5 Z"/></g>
<g><path style="opacity:0.341" fill="#949494" d="M 274.5,243.5 C 273.817,247.019 271.817,249.519 268.5,251C 266.376,252.582 264.21,252.749 262,251.5C 261.308,250.563 261.475,249.897 262.5,249.5C 263.172,250.267 264.005,250.934 265,251.5C 268.358,248.969 271.524,246.302 274.5,243.5 Z"/></g>
<g><path style="opacity:1" fill="#dbc573" d="M 72.5,244.5 C 73.8734,244.343 75.2068,244.51 76.5,245C 77.5505,246.385 78.8839,247.385 80.5,248C 92.6923,250.176 105.026,251.009 117.5,250.5C 117.5,250.833 117.5,251.167 117.5,251.5C 106.418,253.119 95.4183,252.786 84.5,250.5C 79.6332,250.067 75.6332,248.067 72.5,244.5 Z"/></g>
<g><path style="opacity:0.424" fill="#8b8b8b" d="M 314.5,248.5 C 313.969,251.237 313.136,253.904 312,256.5C 311.329,257.252 310.496,257.586 309.5,257.5C 309.913,253.662 311.58,250.662 314.5,248.5 Z"/></g>
<g><path style="opacity:1" fill="#605a43" d="M 84.5,250.5 C 95.4183,252.786 106.418,253.119 117.5,251.5C 107.02,253.986 96.353,254.152 85.5,252C 84.944,251.617 84.6107,251.117 84.5,250.5 Z"/></g>
<g><path style="opacity:0.377" fill="#5f5f5f" d="M 197.5,218.5 C 198.167,219.167 198.833,219.833 199.5,220.5C 199.5,240.833 199.5,261.167 199.5,281.5C 198.833,279.5 198.167,277.5 197.5,275.5C 197.5,256.5 197.5,237.5 197.5,218.5 Z"/></g>
<g><path style="opacity:1" fill="#7d7350" d="M 84.5,256.5 C 91.6471,256.092 98.9804,256.092 106.5,256.5C 99.324,257.603 91.9907,257.603 84.5,256.5 Z"/></g>
<g><path style="opacity:1" fill="#dbc476" d="M 126.5,252.5 C 113.407,257.854 99.7403,259.687 85.5,258C 84.8568,260.746 84.5235,263.579 84.5,266.5C 84.8717,272.225 85.5384,277.892 86.5,283.5C 85.2237,281.438 84.3903,279.104 84,276.5C 83.1794,269.654 83.346,262.987 84.5,256.5C 91.9907,257.603 99.324,257.603 106.5,256.5C 113.148,255.074 119.815,253.741 126.5,252.5 Z"/></g>
<g><path style="opacity:0.169" fill="#b2b2b2" d="M 302.5,256.5 C 301.277,260.049 299.277,263.049 296.5,265.5C 297.723,261.951 299.723,258.951 302.5,256.5 Z"/></g>
<g><path style="opacity:0.118" fill="#b1b1b1" d="M 309.5,258.5 C 308.277,262.049 306.277,265.049 303.5,267.5C 304.061,263.389 306.061,260.389 309.5,258.5 Z"/></g>
<g><path style="opacity:0.452" fill="#7f807e" d="M 192.5,235.5 C 193.167,235.5 193.833,235.5 194.5,235.5C 194.5,259.833 194.5,284.167 194.5,308.5C 193.833,308.5 193.167,308.5 192.5,308.5C 192.5,284.167 192.5,259.833 192.5,235.5 Z"/></g>
<g><path style="opacity:0.118" fill="#aaaaaa" d="M 303.5,267.5 C 303.33,270.204 301.997,271.871 299.5,272.5C 299.343,269.656 300.676,267.989 303.5,267.5 Z"/></g>
<g><path style="opacity:0.851" fill="#4f4f50" d="M 78.5,259.5 C 78.8351,265.75 79.0017,272.083 79,278.5C 79.3924,281.188 79.8924,283.855 80.5,286.5C 82.6582,289.148 83.9916,292.148 84.5,295.5C 83.8333,295.167 83.1667,294.833 82.5,294.5C 82.7409,291.966 81.7409,290.3 79.5,289.5C 77.9774,286.37 77.3107,283.037 77.5,279.5C 77.5,275.167 77.5,270.833 77.5,266.5C 77.1984,263.941 77.5318,261.607 78.5,259.5 Z"/></g>
<g><path style="opacity:0.263" fill="#d5d2d2" d="M 77.5,266.5 C 77.5,270.833 77.5,275.167 77.5,279.5C 76.8826,279.389 76.3826,279.056 76,278.5C 75.8333,276.5 75.6667,274.5 75.5,272.5C 75.5391,270.048 76.2057,268.048 77.5,266.5 Z"/></g>
<g><path style="opacity:0.545" fill="#858585" d="M 296.5,265.5 C 296.509,267.308 296.009,268.975 295,270.5C 289.023,277.311 282.857,283.978 276.5,290.5C 277.072,288.745 277.906,287.078 279,285.5C 285.114,278.836 290.947,272.169 296.5,265.5 Z"/></g>
<g><path style="opacity:0.263" fill="#898989" d="M 299.5,272.5 C 299.228,275.732 297.562,277.732 294.5,278.5C 294.772,275.268 296.438,273.268 299.5,272.5 Z"/></g>
<g><path style="opacity:1" fill="#5e583c" d="M 161.5,267.5 C 161.665,270.518 161.498,273.518 161,276.5C 160.623,277.942 159.79,278.942 158.5,279.5C 159.038,277.883 159.371,276.216 159.5,274.5C 160.167,272.167 160.833,269.833 161.5,267.5 Z"/></g>
<g><path style="opacity:0.078" fill="#9d9d9d" d="M 294.5,278.5 C 294.649,279.552 294.483,280.552 294,281.5C 287.929,287.898 282.262,294.565 277,301.5C 275.887,302.305 274.721,302.972 273.5,303.5C 273.351,302.448 273.517,301.448 274,300.5C 280.784,292.891 287.617,285.558 294.5,278.5 Z"/></g>
<g><path style="opacity:0.22" fill="#9a9a9a" d="M 79.5,289.5 C 81.7409,290.3 82.7409,291.966 82.5,294.5C 80.2729,293.599 79.2729,291.933 79.5,289.5 Z"/></g>
<g><path style="opacity:0.094" fill="#c9c9c9" d="M 276.5,290.5 C 276.027,291.906 275.027,292.573 273.5,292.5C 273.973,291.094 274.973,290.427 276.5,290.5 Z"/></g>
<g><path style="opacity:1" fill="#e3c970" d="M 146.5,303.5 C 149.413,300.083 152.58,296.749 156,293.5C 161.732,285.803 164.566,277.136 164.5,267.5C 163.5,267.5 162.5,267.5 161.5,267.5C 160.833,269.833 160.167,272.167 159.5,274.5C 159.335,271.482 159.502,268.482 160,265.5C 161.956,265.216 164.123,265.216 166.5,265.5C 166.828,270.875 166.495,276.208 165.5,281.5C 163.203,285.112 161.87,289.112 161.5,293.5C 156.079,294.087 153.245,297.087 153,302.5C 150.812,301.818 148.645,302.152 146.5,303.5 Z"/></g>
<g><path style="opacity:0.208" fill="#aaaaaa" d="M 273.5,292.5 C 272.558,296.09 270.558,298.757 267.5,300.5C 269.122,297.545 271.122,294.878 273.5,292.5 Z"/></g>
<g><path style="opacity:0.604" fill="#717171" d="M 82.5,294.5 C 83.1667,294.833 83.8333,295.167 84.5,295.5C 89.5261,300.195 94.5261,304.861 99.5,309.5C 91.6004,306.928 85.9337,301.928 82.5,294.5 Z"/></g>
<g><path style="opacity:0.333" fill="#9d9d9d" d="M 267.5,300.5 C 266.753,303.362 265.086,305.362 262.5,306.5C 263.073,303.593 264.739,301.593 267.5,300.5 Z"/></g>
<g><path style="opacity:1" fill="#e0c974" d="M 96.5,296.5 C 99.5993,296.092 101.933,297.259 103.5,300C 111.928,302.457 120.595,303.124 129.5,302C 132.309,300.259 135.309,299.092 138.5,298.5C 138.047,299.458 137.381,300.292 136.5,301C 132.732,302.238 129.066,303.404 125.5,304.5C 119.072,304.557 112.739,303.891 106.5,302.5C 102.195,302.018 98.8612,300.018 96.5,296.5 Z"/></g>
<g><path style="opacity:1" fill="#948a62" d="M 106.5,302.5 C 112.739,303.891 119.072,304.557 125.5,304.5C 121.354,305.647 117.02,305.814 112.5,305C 110.026,304.963 108.026,304.13 106.5,302.5 Z"/></g>
<g><path style="opacity:0.106" fill="#9e9e9e" d="M 262.5,306.5 C 262.019,309.834 260.353,312.167 257.5,313.5C 258.786,310.883 260.453,308.55 262.5,306.5 Z"/></g>
<g><path style="opacity:0.773" fill="#949594" d="M 99.5,309.5 C 103.628,309.992 107.628,310.992 111.5,312.5C 116.12,313.493 120.786,313.827 125.5,313.5C 117.305,315.074 109.138,314.407 101,311.5C 99.9701,311.164 99.4701,310.497 99.5,309.5 Z"/></g>
<g><path style="opacity:0.563" fill="#828183" d="M 133.5,311.5 C 133.5,311.833 133.5,312.167 133.5,312.5C 130.873,313.092 128.206,313.425 125.5,313.5C 125.62,312.414 126.287,311.747 127.5,311.5C 129.673,310.418 131.673,310.418 133.5,311.5 Z"/></g>
<g><path style="opacity:0.151" fill="#8d8d8d" d="M 207.5,79.5 C 206.381,175.205 206.381,270.872 207.5,366.5C 206.504,366.586 205.671,366.252 205,365.5C 204.5,305.501 204.333,245.501 204.5,185.5C 205.778,150.173 206.778,114.84 207.5,79.5 Z"/></g>
<g><path style="opacity:1" fill="#756f4d" d="M 138.5,307.5 C 137.628,310.421 137.628,313.421 138.5,316.5C 137.266,314.799 136.599,312.799 136.5,310.5C 136.64,308.97 137.307,307.97 138.5,307.5 Z"/></g>
<g><path style="opacity:1" fill="#d1bf6f" d="M 143.5,305.5 C 142.454,308.062 141.121,310.395 139.5,312.5C 140.394,317.456 140.727,322.456 140.5,327.5C 139.475,324.026 138.808,320.36 138.5,316.5C 137.628,313.421 137.628,310.421 138.5,307.5C 140.05,306.559 141.716,305.893 143.5,305.5 Z"/></g>
<g><path style="opacity:0.286" fill="#b1b1b1" d="M 257.5,313.5 C 257.59,316.152 256.924,318.485 255.5,320.5C 255.41,317.848 256.076,315.515 257.5,313.5 Z"/></g>
<g><path style="opacity:0.282" fill="#b9bab9" d="M 192.5,308.5 C 193.167,308.5 193.833,308.5 194.5,308.5C 194.667,327.836 194.5,347.17 194,366.5C 193.148,367.571 192.315,368.571 191.5,369.5C 191.5,369.167 191.5,368.833 191.5,368.5C 192.476,348.546 192.81,328.546 192.5,308.5 Z"/></g>
<g><path style="opacity:0.259" fill="#858585" d="M 273.5,303.5 C 270.389,307.542 267.389,311.708 264.5,316C 262.801,319.996 261.801,324.163 261.5,328.5C 260.833,328.5 260.167,328.5 259.5,328.5C 259.733,323.669 260.733,319.003 262.5,314.5C 265.284,310.878 268.284,307.378 271.5,304C 272.094,303.536 272.761,303.369 273.5,303.5 Z"/></g>
<g><path style="opacity:0.651" fill="#868587" d="M 133.5,311.5 C 135.225,314.77 136.225,318.436 136.5,322.5C 136.664,329.202 136.331,335.869 135.5,342.5C 134.506,332.674 133.839,322.674 133.5,312.5C 133.5,312.167 133.5,311.833 133.5,311.5 Z"/></g>
<g><path style="opacity:0.31" fill="#a7a7a7" d="M 255.5,323.5 C 256.036,326.698 255.369,329.365 253.5,331.5C 252.964,328.302 253.631,325.635 255.5,323.5 Z"/></g>
<g><path style="opacity:0.033" fill="#e5e5e5" d="M 259.5,328.5 C 260.167,328.5 260.833,328.5 261.5,328.5C 261.662,330.527 261.495,332.527 261,334.5C 260.617,335.056 260.117,335.389 259.5,335.5C 259.5,333.167 259.5,330.833 259.5,328.5 Z"/></g>
<g><path style="opacity:0.147" fill="#a8a8a8" d="M 197.5,275.5 C 198.167,277.5 198.833,279.5 199.5,281.5C 199.831,304.006 199.497,326.34 198.5,348.5C 197.51,324.241 197.177,299.908 197.5,275.5 Z"/></g>
<g><path style="opacity:0.493" fill="#575757" d="M 253.5,335.5 C 254.883,341.998 254.217,348.332 251.5,354.5C 251.5,352.833 251.5,351.167 251.5,349.5C 251.813,344.647 252.479,339.98 253.5,335.5 Z"/></g>
<g><path style="opacity:0.573" fill="#868883" d="M 135.5,346.5 C 136.765,347.514 137.431,349.014 137.5,351C 137.492,352.707 137.158,354.207 136.5,355.5C 135.523,352.713 135.19,349.713 135.5,346.5 Z"/></g>
<g><path style="opacity:0.261" fill="#a4a4a4" d="M 258.5,345.5 C 258.92,350.883 257.587,355.549 254.5,359.5C 255.494,354.597 256.828,349.931 258.5,345.5 Z"/></g>
<g><path style="opacity:0.153" fill="#a9a9a9" d="M 251.5,349.5 C 251.5,351.167 251.5,352.833 251.5,354.5C 249.199,360.135 245.199,364.135 239.5,366.5C 239.167,366.5 238.833,366.5 238.5,366.5C 240.762,364.426 243.262,362.426 246,360.5C 247.9,356.7 249.733,353.033 251.5,349.5 Z"/></g>
<g><path style="opacity:0.153" fill="#b9bcb9" d="M 136.5,356.5 C 138.048,356.821 138.715,357.821 138.5,359.5C 137.094,359.027 136.427,358.027 136.5,356.5 Z"/></g>
<g><path style="opacity:0.341" fill="#86878b" d="M 138.5,359.5 C 141.5,360.5 143.5,362.5 144.5,365.5C 141.167,364.833 139.167,362.833 138.5,359.5 Z"/></g>
<g><path style="opacity:0.043" fill="#cdcdcd" d="M 254.5,359.5 C 254.771,361.38 254.104,362.713 252.5,363.5C 252.66,361.847 253.326,360.514 254.5,359.5 Z"/></g>
<g><path style="opacity:0.09" fill="#b3b3b3" d="M 198.5,360.5 C 200.308,361.918 200.975,363.918 200.5,366.5C 198.72,365.01 198.054,363.01 198.5,360.5 Z"/></g>
<g><path style="opacity:0.839" fill="#919090" d="M 144.5,365.5 C 148.284,365.889 151.284,367.556 153.5,370.5C 150.763,369.969 148.096,369.136 145.5,368C 144.748,367.329 144.414,366.496 144.5,365.5 Z"/></g>
<g><path style="opacity:0.008" fill="#bababa" d="M 252.5,363.5 C 251.833,366.167 250.167,367.833 247.5,368.5C 248.167,365.833 249.833,364.167 252.5,363.5 Z"/></g>
<g><path style="opacity:0.587" fill="#626262" d="M 207.5,366.5 C 217.833,367.833 228.167,367.833 238.5,366.5C 238.833,366.5 239.167,366.5 239.5,366.5C 239.03,367.693 238.03,368.36 236.5,368.5C 228.189,369.575 219.855,369.741 211.5,369C 209.563,368.878 208.23,368.045 207.5,366.5 Z"/></g>
<g><path style="opacity:0.012" fill="#cfcfcf" d="M 247.5,368.5 C 245.017,371.741 241.684,373.408 237.5,373.5C 238.9,372.9 239.9,371.9 240.5,370.5C 242.921,370.122 245.254,369.455 247.5,368.5 Z"/></g>
<g><path style="opacity:0.294" fill="#8c8d8c" d="M 191.5,368.5 C 191.5,368.833 191.5,369.167 191.5,369.5C 191.056,371.113 190.056,372.28 188.5,373C 178.166,374.813 167.832,374.646 157.5,372.5C 155.97,372.36 154.97,371.693 154.5,370.5C 161.984,371.276 169.484,371.943 177,372.5C 180.903,372.485 184.736,371.985 188.5,371C 189.078,369.583 190.078,368.75 191.5,368.5 Z"/></g>
<g><path style="opacity:0.58" fill="#636363" d="M 200.5,366.5 C 202.34,368.168 204.34,369.668 206.5,371C 217.919,373.132 229.253,372.966 240.5,370.5C 239.9,371.9 238.9,372.9 237.5,373.5C 226.864,374.869 216.198,374.703 205.5,373C 202.858,371.532 201.191,369.365 200.5,366.5 Z"/></g>
<g><path style="opacity:0.589" fill="#434343" d="M 240.5,378.5 C 209.79,378.182 179.123,378.515 148.5,379.5C 148.611,378.883 148.944,378.383 149.5,378C 180.003,377.169 210.336,377.336 240.5,378.5 Z"/></g>
<g><path style="opacity:1" fill="#030303" d="M 240.5,378.5 C 240.833,378.5 241.167,378.5 241.5,378.5C 241.427,380.027 242.094,381.027 243.5,381.5C 244.924,384.125 244.591,386.458 242.5,388.5C 212.53,389.643 182.53,389.81 152.5,389C 151.234,388.691 150.067,388.191 149,387.5C 148.503,384.854 148.336,382.187 148.5,379.5C 179.123,378.515 209.79,378.182 240.5,378.5 Z"/></g>
<g><path style="opacity:0.345" fill="#9c9c9c" d="M 241.5,378.5 C 242.906,378.973 243.573,379.973 243.5,381.5C 242.094,381.027 241.427,380.027 241.5,378.5 Z"/></g>
<g><path style="opacity:0.494" fill="#585858" d="M 148.5,379.5 C 148.336,382.187 148.503,384.854 149,387.5C 150.067,388.191 151.234,388.691 152.5,389C 182.53,389.81 212.53,389.643 242.5,388.5C 241.653,389.966 240.32,390.8 238.5,391C 209.5,391.667 180.5,391.667 151.5,391C 146.178,388.211 145.178,384.377 148.5,379.5 Z"/></g>
<g><path style="opacity:0.938" fill="#1f1f1f" d="M 241.5,394.5 C 241.5,394.833 241.5,395.167 241.5,395.5C 210.832,395.333 180.165,395.5 149.5,396C 148.398,398.401 148.231,400.901 149,403.5C 150.417,404.078 151.25,405.078 151.5,406.5C 148.39,405.722 146.724,403.722 146.5,400.5C 146.556,397.889 147.556,395.722 149.5,394C 180.336,393.169 211.003,393.336 241.5,394.5 Z"/></g>
<g><path style="opacity:0.976" fill="#020202" d="M 241.5,395.5 C 241.833,396.5 242.5,397.167 243.5,397.5C 244.924,400.125 244.591,402.458 242.5,404.5C 240.821,404.285 239.821,404.952 239.5,406.5C 210.167,406.5 180.833,406.5 151.5,406.5C 151.25,405.078 150.417,404.078 149,403.5C 148.231,400.901 148.398,398.401 149.5,396C 180.165,395.5 210.832,395.333 241.5,395.5 Z"/></g>
<g><path style="opacity:0.259" fill="#979797" d="M 241.5,394.5 C 242.906,394.973 243.573,395.973 243.5,397.5C 242.5,397.167 241.833,396.5 241.5,395.5C 241.5,395.167 241.5,394.833 241.5,394.5 Z"/></g>
<g><path style="opacity:0.573" fill="#717171" d="M 242.5,404.5 C 242.027,405.906 241.027,406.573 239.5,406.5C 239.821,404.952 240.821,404.285 242.5,404.5 Z"/></g>
<g><path style="opacity:0.905" fill="#080808" d="M 164.5,427.5 C 164.741,424.966 163.741,423.3 161.5,422.5C 160.434,420.299 159.767,417.965 159.5,415.5C 160.096,414.065 160.096,412.398 159.5,410.5C 183.846,410.727 208.18,410.394 232.5,409.5C 231.377,415.538 230.044,421.538 228.5,427.5C 207.167,427.5 185.833,427.5 164.5,427.5 Z"/></g>
<g><path style="opacity:0.68" fill="#4d4d4d" d="M 159.5,410.5 C 160.096,412.398 160.096,414.065 159.5,415.5C 158.661,414.359 157.994,413.026 157.5,411.5C 157.957,410.702 158.624,410.369 159.5,410.5 Z"/></g>
<g><path style="opacity:0.502" fill="#545454" d="M 161.5,422.5 C 163.741,423.3 164.741,424.966 164.5,427.5C 162.259,426.7 161.259,425.034 161.5,422.5 Z"/></g>
</svg>
