<?xml version="1.0" encoding="UTF-8"?>
<!DOCTYPE svg PUBLIC "-//W3C//DTD SVG 1.1//EN" "http://www.w3.org/Graphics/SVG/1.1/DTD/svg11.dtd">
<svg xmlns="http://www.w3.org/2000/svg" version="1.1" width="1200px" height="500px" style="shape-rendering:geometricPrecision; text-rendering:geometricPrecision; image-rendering:optimizeQuality; fill-rule:evenodd; clip-rule:evenodd" xmlns:xlink="http://www.w3.org/1999/xlink">
<g><path style="opacity:0.322" fill="#5a5b5d" d="M 551.5,72.5 C 545.044,71.2498 538.377,71.2498 531.5,72.5C 531.791,71.3509 532.624,70.6842 534,70.5C 539,69.1667 544,69.1667 549,70.5C 550.376,70.6842 551.209,71.3509 551.5,72.5 Z"/></g>
<g><path style="opacity:0.998" fill="#f2f2f2" d="M 610.5,72.5 C 620.348,72.1729 630.014,72.5062 639.5,73.5C 639.611,74.1174 639.944,74.6174 640.5,75C 647.438,76.0466 653.938,78.2133 660,81.5C 661.011,80.6634 662.178,80.33 663.5,80.5C 664.3,82.7409 665.966,83.7409 668.5,83.5C 668.833,83.5 669.167,83.5 669.5,83.5C 671.592,86.7227 674.592,88.7227 678.5,89.5C 678.833,89.5 679.167,89.5 679.5,89.5C 679.989,92.324 681.656,93.6574 684.5,93.5C 684.973,94.9063 685.973,95.573 687.5,95.5C 689.404,97.3217 691.404,98.9883 693.5,100.5C 693.833,102.833 695.167,104.167 697.5,104.5C 698.651,108.493 700.985,111.493 704.5,113.5C 704.777,116.683 706.444,118.683 709.5,119.5C 709.088,121.973 710.088,123.306 712.5,123.5C 712.343,124.873 712.51,126.207 713,127.5C 714.634,129.837 716.467,131.837 718.5,133.5C 719.338,133.842 719.672,134.508 719.5,135.5C 722.974,143.788 726.474,152.122 730,160.5C 732.018,168.893 733.851,177.226 735.5,185.5C 736.797,194.495 736.797,203.495 735.5,212.5C 735.167,216.5 734.833,220.5 734.5,224.5C 731.467,228.932 729.8,233.932 729.5,239.5C 723.747,248 718.747,257 714.5,266.5C 714.5,266.833 714.5,267.167 714.5,267.5C 711.754,269.534 709.254,271.867 707,274.5C 703.887,278.114 701.387,282.114 699.5,286.5C 699.5,287.167 699.167,287.5 698.5,287.5C 695.703,287.967 694.369,289.633 694.5,292.5C 691.833,293.167 690.167,294.833 689.5,297.5C 686.457,299.893 683.624,302.559 681,305.5C 679.441,307.217 678.608,309.217 678.5,311.5C 676.016,312.234 674.016,313.734 672.5,316C 670.696,320.655 669.696,325.488 669.5,330.5C 669.5,332.5 669.5,334.5 669.5,336.5C 669.686,342.31 669.02,347.977 667.5,353.5C 664.281,357.68 661.614,362.346 659.5,367.5C 659.5,368.167 659.167,368.5 658.5,368.5C 655.151,369.169 652.484,370.836 650.5,373.5C 639.486,374.751 628.486,374.751 617.5,373.5C 615.5,372.833 613.5,372.167 611.5,371.5C 609.896,370.713 609.229,369.38 609.5,367.5C 610.163,365.527 610.496,363.361 610.5,361C 610.467,358.39 609.8,356.223 608.5,354.5C 608.5,353.833 608.5,353.167 608.5,352.5C 609.482,314.864 609.815,277.197 609.5,239.5C 608.541,184.836 608.375,130.17 609,75.5C 609.513,74.4734 610.013,73.4734 610.5,72.5 Z M 637.5,81.5 C 641.793,83.7438 646.46,85.0771 651.5,85.5C 654.314,87.0697 657.314,88.4031 660.5,89.5C 661.391,90.1098 662.391,90.4431 663.5,90.5C 665.808,91.7928 668.142,93.1261 670.5,94.5C 672.181,96.0075 674.181,97.0075 676.5,97.5C 677.129,99.9971 678.796,101.33 681.5,101.5C 682.27,103.935 683.937,105.269 686.5,105.5C 687.517,107.911 689.184,109.578 691.5,110.5C 692.517,112.911 694.184,114.578 696.5,115.5C 697.256,118.394 698.923,120.394 701.5,121.5C 706.15,129.894 711.15,137.894 716.5,145.5C 716.328,146.492 716.662,147.158 717.5,147.5C 718.059,150.943 719.393,153.943 721.5,156.5C 722.649,160.092 723.649,163.759 724.5,167.5C 724.747,168.713 725.414,169.38 726.5,169.5C 726.5,170.5 726.5,171.5 726.5,172.5C 727.392,176.975 728.392,181.308 729.5,185.5C 729.5,186.167 729.5,186.833 729.5,187.5C 729.5,194.5 729.5,201.5 729.5,208.5C 729.5,209.833 729.5,211.167 729.5,212.5C 729.5,213.167 729.5,213.833 729.5,214.5C 728.139,219.304 727.139,224.304 726.5,229.5C 725.503,229.47 724.836,229.97 724.5,231C 723.751,233.497 723.084,235.997 722.5,238.5C 722.5,238.833 722.5,239.167 722.5,239.5C 720.088,242.368 718.421,245.701 717.5,249.5C 713.461,255.305 709.794,261.305 706.5,267.5C 703.736,268.948 702.069,271.281 701.5,274.5C 699.983,274.511 698.816,275.177 698,276.5C 696.287,279.266 694.454,281.933 692.5,284.5C 691.662,284.842 691.328,285.508 691.5,286.5C 689.231,288.582 686.731,290.582 684,292.5C 679.623,298.039 675.456,303.706 671.5,309.5C 670.542,309.953 669.708,310.619 669,311.5C 667.409,313.927 666.575,316.593 666.5,319.5C 664.824,320.183 664.157,321.517 664.5,323.5C 664.5,324.5 664.5,325.5 664.5,326.5C 663.182,334.655 662.182,342.989 661.5,351.5C 661.5,351.833 661.5,352.167 661.5,352.5C 659.432,354.979 658.099,357.979 657.5,361.5C 655.5,362.167 654.167,363.5 653.5,365.5C 641.666,370.073 629.666,370.573 617.5,367C 616.748,366.329 616.414,365.496 616.5,364.5C 616.5,318.833 616.5,273.167 616.5,227.5C 616.5,213.833 616.5,200.167 616.5,186.5C 617.062,151.169 617.396,115.836 617.5,80.5C 624.174,80.7129 630.841,81.0462 637.5,81.5 Z"/></g>
<g><path style="opacity:0.235" fill="#6d6b6b" d="M 586.5,73.5 C 589.994,73.5319 592.661,74.8653 594.5,77.5C 592.661,74.8653 589.994,73.5319 586.5,73.5 Z"/></g>
<g><path style="opacity:1" fill="#857642" d="M 560.5,79.5 C 561.568,80.4345 562.901,80.7678 564.5,80.5C 563.903,81.1386 563.07,81.472 562,81.5C 558.228,81.0185 554.728,79.8518 551.5,78C 545.472,77.3594 539.472,77.5261 533.5,78.5C 536.865,76.9608 540.531,76.2942 544.5,76.5C 550.12,76.2414 555.454,77.2414 560.5,79.5 Z"/></g>
<g><path style="opacity:0.969" fill="#322c26" d="M 586.5,73.5 C 588.531,75.755 591.198,77.0884 594.5,77.5C 594.631,78.3764 594.298,79.0431 593.5,79.5C 592.583,78.8728 591.583,78.5394 590.5,78.5C 584.312,76.5816 577.979,76.0816 571.5,77C 570.584,77.2784 569.918,77.7784 569.5,78.5C 567.302,78.1201 565.635,78.7868 564.5,80.5C 562.901,80.7678 561.568,80.4345 560.5,79.5C 561.043,79.44 561.376,79.1067 561.5,78.5C 558.987,77.272 556.987,75.6054 555.5,73.5C 558.6,73.8037 561.1,75.137 563,77.5C 565.158,74.8364 567.991,73.3364 571.5,73C 576.684,72.1837 581.684,72.3503 586.5,73.5 Z"/></g>
<g><path style="opacity:0.514" fill="#424641" d="M 531.5,72.5 C 526.117,75.2931 521.284,78.9597 517,83.5C 516.517,84.448 516.351,85.448 516.5,86.5C 515.167,86.5 513.833,86.5 512.5,86.5C 515.127,82.2888 518.46,78.6221 522.5,75.5C 525.234,73.6294 528.234,72.6294 531.5,72.5 Z"/></g>
<g><path style="opacity:1" fill="#f4d669" d="M 564.5,80.5 C 565.635,78.7868 567.302,78.1201 569.5,78.5C 574.14,77.6027 578.806,77.4361 583.5,78C 586.833,79.3333 590.167,80.6667 593.5,82C 592.179,83.5445 592.512,84.7112 594.5,85.5C 595.417,110.498 595.25,135.498 594,160.5C 593.5,228.499 593.333,296.499 593.5,364.5C 584.482,364.552 575.482,364.218 566.5,363.5C 565.167,363.5 563.833,363.5 562.5,363.5C 560.313,362.242 557.98,361.242 555.5,360.5C 554.529,358.517 553.529,356.517 552.5,354.5C 552.319,346.58 551.319,338.913 549.5,331.5C 549.448,327.802 549.114,324.135 548.5,320.5C 548.251,317.998 547.917,315.498 547.5,313C 547.833,311.833 548.167,310.667 548.5,309.5C 550.375,308.591 551.708,307.257 552.5,305.5C 555.55,306.077 557.55,304.91 558.5,302C 560.96,301.604 562.96,300.437 564.5,298.5C 567.199,291.883 570.366,285.55 574,279.5C 574.808,275.973 574.641,272.64 573.5,269.5C 573.179,267.952 572.179,267.285 570.5,267.5C 569.883,267.389 569.383,267.056 569,266.5C 568.821,269.553 568.321,272.553 567.5,275.5C 566.042,278.762 564.375,281.762 562.5,284.5C 560.856,284.286 559.356,284.62 558,285.5C 558.195,287.126 558.195,288.793 558,290.5C 557.333,289.833 556.667,289.167 556,288.5C 554.301,289.406 552.467,289.739 550.5,289.5C 550.856,292.564 550.023,295.231 548,297.5C 544.062,298.881 540.562,300.881 537.5,303.5C 528.291,304.013 519.291,303.013 510.5,300.5C 509.833,300.167 509.167,299.833 508.5,299.5C 507.415,297.413 505.749,296.08 503.5,295.5C 500.8,293.766 498.8,291.432 497.5,288.5C 494.099,278.783 492.932,268.783 494,258.5C 501.421,257.684 508.921,257.184 516.5,257C 519.522,256.902 522.189,256.068 524.5,254.5C 529.993,254.213 534.993,252.546 539.5,249.5C 538.833,249.167 538.167,248.833 537.5,248.5C 533.87,249.426 530.203,250.093 526.5,250.5C 512.34,251.162 498.34,250.162 484.5,247.5C 484.167,246.5 483.5,245.833 482.5,245.5C 481.199,244.118 480.366,242.452 480,240.5C 475.874,239.771 473.707,237.271 473.5,233C 469.478,230.315 467.311,226.481 467,221.5C 466.17,215.472 466.336,209.472 467.5,203.5C 469.366,199.893 471.033,196.226 472.5,192.5C 473.436,189.728 475.27,187.728 478,186.5C 481.366,189.368 484.866,192.035 488.5,194.5C 490.033,196.245 492.033,197.245 494.5,197.5C 497.763,198.482 501.097,199.149 504.5,199.5C 511.673,200.311 519.007,200.477 526.5,200C 527.163,201.518 528.163,202.685 529.5,203.5C 533.899,210.399 539.732,215.732 547,219.5C 547.5,219.167 548,218.833 548.5,218.5C 543,212.84 538.5,206.507 535,199.5C 533.169,190.87 533.002,182.203 534.5,173.5C 535.586,173.38 536.253,172.713 536.5,171.5C 537.302,168.551 537.636,165.551 537.5,162.5C 534.633,162.369 532.967,163.703 532.5,166.5C 531.685,167.429 530.852,168.429 530,169.5C 529.094,173.626 527.928,177.626 526.5,181.5C 526.167,181.5 525.833,181.5 525.5,181.5C 524.517,185.298 524.183,189.298 524.5,193.5C 516.493,193.666 508.493,193.5 500.5,193C 496.322,191.573 492.322,190.073 488.5,188.5C 480.837,182.853 476.504,175.187 475.5,165.5C 475.334,159.824 475.501,154.157 476,148.5C 478.785,143.265 481.285,137.932 483.5,132.5C 487.375,131.823 490.708,129.99 493.5,127C 496.779,126.027 499.779,124.527 502.5,122.5C 503.794,127.084 505.627,131.418 508,135.5C 509.076,138.079 510.909,139.746 513.5,140.5C 518.566,145.881 523.899,151.047 529.5,156C 530.448,156.483 531.448,156.649 532.5,156.5C 532.719,155.325 532.386,154.325 531.5,153.5C 522.162,146.143 515.829,136.81 512.5,125.5C 511.286,118.49 511.286,111.49 512.5,104.5C 512.629,102.784 512.962,101.117 513.5,99.5C 516.622,97.8743 518.288,95.2076 518.5,91.5C 519.922,91.2914 521.255,90.7914 522.5,90C 524.301,87.5574 525.968,85.0574 527.5,82.5C 529.147,80.6736 531.147,79.3403 533.5,78.5C 539.472,77.5261 545.472,77.3594 551.5,78C 554.728,79.8518 558.228,81.0185 562,81.5C 563.07,81.472 563.903,81.1386 564.5,80.5 Z"/></g>
<g><path style="opacity:0.902" fill="#909090" d="M 639.5,73.5 C 648.156,73.9928 656.156,76.3261 663.5,80.5C 662.178,80.33 661.011,80.6634 660,81.5C 653.938,78.2133 647.438,76.0466 640.5,75C 639.944,74.6174 639.611,74.1174 639.5,73.5 Z"/></g>
<g><path style="opacity:1" fill="#59492f" d="M 594.5,77.5 C 596.514,77.3915 598.18,78.0582 599.5,79.5C 599.5,80.1667 599.5,80.8333 599.5,81.5C 598.518,80.8592 597.518,80.1925 596.5,79.5C 595.537,79.9698 595.537,80.6365 596.5,81.5C 594.033,81.2451 592.033,80.2451 590.5,78.5C 591.583,78.5394 592.583,78.8728 593.5,79.5C 594.298,79.0431 594.631,78.3764 594.5,77.5 Z"/></g>
<g><path style="opacity:0.216" fill="#6e6e6e" d="M 637.5,81.5 C 641.22,81.5642 644.886,82.0642 648.5,83C 650.119,83.2355 651.119,84.0689 651.5,85.5C 646.46,85.0771 641.793,83.7438 637.5,81.5 Z"/></g>
<g><path style="opacity:0.494" fill="#6a6a6a" d="M 663.5,80.5 C 666.034,80.2591 667.7,81.2591 668.5,83.5C 665.966,83.7409 664.3,82.7409 663.5,80.5 Z"/></g>
<g><path style="opacity:0.075" fill="#4b4b4b" d="M 651.5,85.5 C 655.236,85.541 658.236,86.8743 660.5,89.5C 657.314,88.4031 654.314,87.0697 651.5,85.5 Z"/></g>
<g><path style="opacity:0.655" fill="#7f7f7f" d="M 669.5,83.5 C 671.855,84.0944 674.022,85.0944 676,86.5C 677.31,87.1301 678.144,88.1301 678.5,89.5C 674.592,88.7227 671.592,86.7227 669.5,83.5 Z"/></g>
<g><path style="opacity:1" fill="#ad9c5a" d="M 527.5,82.5 C 525.968,85.0574 524.301,87.5574 522.5,90C 521.255,90.7914 519.922,91.2914 518.5,91.5C 519.504,90.3172 520.338,88.9839 521,87.5C 522.77,85.2585 524.937,83.5918 527.5,82.5 Z"/></g>
<g><path style="opacity:0.173" fill="#656565" d="M 679.5,89.5 C 681.795,90.1355 683.461,91.4689 684.5,93.5C 681.656,93.6574 679.989,92.324 679.5,89.5 Z"/></g>
<g><path style="opacity:0.055" fill="#646464" d="M 663.5,90.5 C 666.857,90.2159 669.191,91.5493 670.5,94.5C 668.142,93.1261 665.808,91.7928 663.5,90.5 Z"/></g>
<g><path style="opacity:0.565" fill="#909090" d="M 670.5,94.5 C 672.199,94.3398 673.866,94.5065 675.5,95C 676.252,95.6708 676.586,96.5041 676.5,97.5C 674.181,97.0075 672.181,96.0075 670.5,94.5 Z"/></g>
<g><path style="opacity:0.047" fill="#404040" d="M 684.5,93.5 C 686.027,93.427 687.027,94.0937 687.5,95.5C 685.973,95.573 684.973,94.9063 684.5,93.5 Z"/></g>
<g><path style="opacity:0.421" fill="#706e6e" d="M 599.5,79.5 C 601.295,85.0835 602.129,91.0835 602,97.5C 602.5,114.497 602.667,131.497 602.5,148.5C 601.833,147.167 601.167,145.833 600.5,144.5C 600.523,123.493 600.19,102.493 599.5,81.5C 599.5,80.8333 599.5,80.1667 599.5,79.5 Z"/></g>
<g><path style="opacity:1" fill="#a28f4e" d="M 518.5,91.5 C 518.288,95.2076 516.622,97.8743 513.5,99.5C 514.169,96.1511 515.836,93.4844 518.5,91.5 Z"/></g>
<g><path style="opacity:0.659" fill="#878787" d="M 676.5,97.5 C 679.204,97.6696 680.871,99.0029 681.5,101.5C 678.796,101.33 677.129,99.9971 676.5,97.5 Z"/></g>
<g><path style="opacity:1" fill="#574823" d="M 513.5,99.5 C 512.962,101.117 512.629,102.784 512.5,104.5C 511.833,105.5 511.167,106.5 510.5,107.5C 510.345,104.284 511.345,101.617 513.5,99.5 Z"/></g>
<g><path style="opacity:0.035" fill="#353535" d="M 693.5,100.5 C 695.5,101.167 696.833,102.5 697.5,104.5C 696.833,102.5 695.5,101.167 693.5,100.5 Z"/></g>
<g><path style="opacity:0.188" fill="#838383" d="M 681.5,101.5 C 684.204,101.67 685.871,103.003 686.5,105.5C 683.937,105.269 682.27,103.935 681.5,101.5 Z"/></g>
<g><path style="opacity:0.999" fill="#060403" d="M 599.5,81.5 C 600.19,102.493 600.523,123.493 600.5,144.5C 601.771,218.565 601.771,292.565 600.5,366.5C 600.032,369.966 598.032,371.632 594.5,371.5C 586.112,371.773 577.779,371.44 569.5,370.5C 566.482,370.296 563.482,369.963 560.5,369.5C 558.516,366.836 555.849,365.169 552.5,364.5C 552.443,363.391 552.11,362.391 551.5,361.5C 552.568,360.566 553.901,360.232 555.5,360.5C 557.98,361.242 560.313,362.242 562.5,363.5C 564.515,364.924 566.848,365.59 569.5,365.5C 578.197,366.807 586.863,366.807 595.5,365.5C 596.067,278.326 597.067,190.992 598.5,103.5C 598.333,96.5 598.167,89.5 598,82.5C 597.617,81.944 597.117,81.6107 596.5,81.5C 595.537,80.6365 595.537,79.9698 596.5,79.5C 597.518,80.1925 598.518,80.8592 599.5,81.5 Z"/></g>
<g><path style="opacity:0.106" fill="#797979" d="M 686.5,105.5 C 689.167,106.167 690.833,107.833 691.5,110.5C 689.184,109.578 687.517,107.911 686.5,105.5 Z"/></g>
<g><path style="opacity:0.055" fill="#7d7d7d" d="M 697.5,104.5 C 700.574,107.01 702.907,110.01 704.5,113.5C 700.985,111.493 698.651,108.493 697.5,104.5 Z"/></g>
<g><path style="opacity:0.114" fill="#797979" d="M 691.5,110.5 C 694.167,111.167 695.833,112.833 696.5,115.5C 694.184,114.578 692.517,112.911 691.5,110.5 Z"/></g>
<g><path style="opacity:0.3" fill="#5c5d5c" d="M 504.5,106.5 C 504.665,109.85 504.498,113.183 504,116.5C 501.699,117.867 499.199,118.534 496.5,118.5C 497.574,116.784 499.241,115.784 501.5,115.5C 502.318,112.893 502.818,110.226 503,107.5C 503.383,106.944 503.883,106.611 504.5,106.5 Z"/></g>
<g><path style="opacity:1" fill="#ae9d57" d="M 512.5,104.5 C 511.286,111.49 511.286,118.49 512.5,125.5C 511.687,123.739 510.687,122.072 509.5,120.5C 509.182,115.968 509.515,111.634 510.5,107.5C 511.167,106.5 511.833,105.5 512.5,104.5 Z"/></g>
<g><path style="opacity:1" fill="#312814" d="M 596.5,81.5 C 597.117,81.6107 597.617,81.944 598,82.5C 598.167,89.5 598.333,96.5 598.5,103.5C 597.067,190.992 596.067,278.326 595.5,365.5C 595.32,270.831 595.653,176.164 596.5,81.5 Z"/></g>
<g><path style="opacity:0.239" fill="#727272" d="M 704.5,113.5 C 707.562,114.268 709.228,116.268 709.5,119.5C 706.444,118.683 704.777,116.683 704.5,113.5 Z"/></g>
<g><path style="opacity:0.314" fill="#828282" d="M 696.5,115.5 C 699.553,116.28 701.22,118.28 701.5,121.5C 698.923,120.394 697.256,118.394 696.5,115.5 Z"/></g>
<g><path style="opacity:0.434" fill="#9a9a9a" d="M 610.5,72.5 C 610.013,73.4734 609.513,74.4734 609,75.5C 608.375,130.17 608.541,184.836 609.5,239.5C 608.833,237.167 608.167,234.833 607.5,232.5C 606.616,179.279 606.616,125.946 607.5,72.5C 608.5,72.5 609.5,72.5 610.5,72.5 Z"/></g>
<g><path style="opacity:0.142" fill="#6c6c6c" d="M 709.5,119.5 C 711.446,120.035 712.446,121.368 712.5,123.5C 710.088,123.306 709.088,121.973 709.5,119.5 Z"/></g>
<g><path style="opacity:0.069" fill="#2b2b2b" d="M 654.5,124.5 C 653.167,124.5 652.5,125.167 652.5,126.5C 651.133,124.907 651.466,123.574 653.5,122.5C 654.298,122.957 654.631,123.624 654.5,124.5 Z"/></g>
<g><path style="opacity:1" fill="#cab567" d="M 505.5,125.5 C 505.755,127.967 506.755,129.967 508.5,131.5C 510.596,134.262 512.262,137.262 513.5,140.5C 510.909,139.746 509.076,138.079 508,135.5C 505.627,131.418 503.794,127.084 502.5,122.5C 499.779,124.527 496.779,126.027 493.5,127C 490.708,129.99 487.375,131.823 483.5,132.5C 488.801,125.517 495.801,121.684 504.5,121C 505.38,122.356 505.714,123.856 505.5,125.5 Z"/></g>
<g><path style="opacity:0.522" fill="#8a8a8a" d="M 654.5,124.5 C 656.927,124.523 659.26,125.023 661.5,126C 663.426,126.422 664.426,127.589 664.5,129.5C 661.862,128.508 659.195,127.508 656.5,126.5C 655.708,127.7 655.708,129.033 656.5,130.5C 654.29,130.106 652.957,128.773 652.5,126.5C 652.5,125.167 653.167,124.5 654.5,124.5 Z"/></g>
<g><path style="opacity:0.997" fill="#181512" d="M 551.5,72.5 C 553.099,72.2322 554.432,72.5655 555.5,73.5C 556.987,75.6054 558.987,77.272 561.5,78.5C 561.376,79.1067 561.043,79.44 560.5,79.5C 555.454,77.2414 550.12,76.2414 544.5,76.5C 540.531,76.2942 536.865,76.9608 533.5,78.5C 531.147,79.3403 529.147,80.6736 527.5,82.5C 524.937,83.5918 522.77,85.2585 521,87.5C 520.338,88.9839 519.504,90.3172 518.5,91.5C 515.836,93.4844 514.169,96.1511 513.5,99.5C 511.345,101.617 510.345,104.284 510.5,107.5C 509.515,111.634 509.182,115.968 509.5,120.5C 510.036,123.698 509.369,126.365 507.5,128.5C 507.573,126.973 506.906,125.973 505.5,125.5C 505.714,123.856 505.38,122.356 504.5,121C 495.801,121.684 488.801,125.517 483.5,132.5C 480.216,136.478 477.383,140.812 475,145.5C 474.179,152.346 474.346,159.013 475.5,165.5C 476.504,175.187 480.837,182.853 488.5,188.5C 488.953,189.458 489.619,190.292 490.5,191C 494.54,192.691 498.54,194.191 502.5,195.5C 508.987,196.328 515.654,196.828 522.5,197C 521.944,197.383 521.611,197.883 521.5,198.5C 515.87,199.292 510.203,199.625 504.5,199.5C 501.097,199.149 497.763,198.482 494.5,197.5C 492.967,195.755 490.967,194.755 488.5,194.5C 484.866,192.035 481.366,189.368 478,186.5C 475.27,187.728 473.436,189.728 472.5,192.5C 464.598,199.74 461.765,208.74 464,219.5C 466.233,226.199 469.233,232.532 473,238.5C 475.781,241.462 478.948,243.796 482.5,245.5C 483.5,245.833 484.167,246.5 484.5,247.5C 487.392,249.114 490.392,250.447 493.5,251.5C 491.801,251.34 490.134,251.506 488.5,252C 489.056,252.383 489.389,252.883 489.5,253.5C 487.565,252.85 485.565,252.517 483.5,252.5C 481.919,249.932 479.586,248.599 476.5,248.5C 475.833,247.833 475.167,247.167 474.5,246.5C 473.833,243.833 472.167,242.167 469.5,241.5C 462.049,234.008 458.383,224.841 458.5,214C 459.077,208.371 460.244,202.871 462,197.5C 465.774,192.19 469.94,187.19 474.5,182.5C 471.126,177.338 469.459,171.671 469.5,165.5C 469.5,159.833 469.5,154.167 469.5,148.5C 469.437,141.963 471.603,136.297 476,131.5C 479.409,127.422 483.409,124.088 488,121.5C 490.744,120.197 493.577,119.197 496.5,118.5C 499.199,118.534 501.699,117.867 504,116.5C 504.498,113.183 504.665,109.85 504.5,106.5C 505.017,98.9448 507.684,92.2781 512.5,86.5C 513.833,86.5 515.167,86.5 516.5,86.5C 516.351,85.448 516.517,84.448 517,83.5C 521.284,78.9597 526.117,75.2931 531.5,72.5C 538.377,71.2498 545.044,71.2498 551.5,72.5 Z"/></g>
<g><path style="opacity:0.998" fill="#e8e8e8" d="M 664.5,129.5 C 664.833,129.5 665.167,129.5 665.5,129.5C 666.904,132.377 669.237,134.044 672.5,134.5C 673.167,137.167 674.833,138.833 677.5,139.5C 678.473,142.135 680.14,144.135 682.5,145.5C 682.343,146.873 682.51,148.207 683,149.5C 684.933,152.37 687.099,155.037 689.5,157.5C 689.907,161.203 690.574,164.87 691.5,168.5C 691.747,169.713 692.414,170.38 693.5,170.5C 693.5,171.5 693.5,172.5 693.5,173.5C 692.873,178.141 692.54,182.807 692.5,187.5C 692.5,187.833 692.5,188.167 692.5,188.5C 691.167,188.833 689.833,189.167 688.5,189.5C 687.647,184.53 686.98,179.53 686.5,174.5C 686.715,172.821 686.048,171.821 684.5,171.5C 684.5,171.167 684.5,170.833 684.5,170.5C 685.66,168.831 685.66,166.997 684.5,165C 684.293,163.05 683.293,161.884 681.5,161.5C 681.446,159.368 680.446,158.035 678.5,157.5C 677.662,157.158 677.328,156.492 677.5,155.5C 676.62,152.738 675.454,150.071 674,147.5C 673.329,146.748 672.496,146.414 671.5,146.5C 671.22,143.28 669.553,141.28 666.5,140.5C 665.833,137.833 664.167,136.167 661.5,135.5C 661.5,133.5 660.5,132.5 658.5,132.5C 657.5,132.167 656.833,131.5 656.5,130.5C 655.708,129.033 655.708,127.7 656.5,126.5C 659.195,127.508 661.862,128.508 664.5,129.5 Z"/></g>
<g><path style="opacity:1" fill="#6e612f" d="M 505.5,125.5 C 506.906,125.973 507.573,126.973 507.5,128.5C 508.11,129.391 508.443,130.391 508.5,131.5C 506.755,129.967 505.755,127.967 505.5,125.5 Z"/></g>
<g><path style="opacity:0.482" fill="#929292" d="M 701.5,121.5 C 702.239,121.369 702.906,121.536 703.5,122C 704.212,124.881 705.878,127.048 708.5,128.5C 710.163,132.496 712.329,136.163 715,139.5C 715.813,141.436 716.313,143.436 716.5,145.5C 711.15,137.894 706.15,129.894 701.5,121.5 Z"/></g>
<g><path style="opacity:0.302" fill="#727272" d="M 665.5,129.5 C 668.37,130.433 670.704,132.1 672.5,134.5C 669.237,134.044 666.904,132.377 665.5,129.5 Z"/></g>
<g><path style="opacity:0.429" fill="#7e7e7e" d="M 712.5,123.5 C 715.521,126.206 717.521,129.539 718.5,133.5C 716.467,131.837 714.634,129.837 713,127.5C 712.51,126.207 712.343,124.873 712.5,123.5 Z"/></g>
<g><path style="opacity:0.031" fill="#474747" d="M 658.5,132.5 C 660.5,132.5 661.5,133.5 661.5,135.5C 659.5,135.5 658.5,134.5 658.5,132.5 Z"/></g>
<g><path style="opacity:0.051" fill="#5e5e5e" d="M 672.5,134.5 C 674.911,135.517 676.578,137.184 677.5,139.5C 674.833,138.833 673.167,137.167 672.5,134.5 Z"/></g>
<g><path style="opacity:0.067" fill="#606060" d="M 661.5,135.5 C 664.167,136.167 665.833,137.833 666.5,140.5C 664.184,139.578 662.517,137.911 661.5,135.5 Z"/></g>
<g><path style="opacity:0.255" fill="#7f7f7f" d="M 719.5,135.5 C 720.497,135.47 721.164,135.97 721.5,137C 727.352,149.188 732.186,161.688 736,174.5C 736.936,178.114 737.436,181.78 737.5,185.5C 736.833,185.5 736.167,185.5 735.5,185.5C 733.851,177.226 732.018,168.893 730,160.5C 726.474,152.122 722.974,143.788 719.5,135.5 Z"/></g>
<g><path style="opacity:0.176" fill="#848484" d="M 666.5,140.5 C 669.553,141.28 671.22,143.28 671.5,146.5C 670.504,146.586 669.671,146.252 669,145.5C 668.634,143.548 667.801,141.882 666.5,140.5 Z"/></g>
<g><path style="opacity:0.084" fill="#595959" d="M 677.5,139.5 C 680.261,140.593 681.927,142.593 682.5,145.5C 680.14,144.135 678.473,142.135 677.5,139.5 Z"/></g>
<g><path style="opacity:1" fill="#261d0e" d="M 509.5,120.5 C 510.687,122.072 511.687,123.739 512.5,125.5C 515.829,136.81 522.162,146.143 531.5,153.5C 532.386,154.325 532.719,155.325 532.5,156.5C 531.448,156.649 530.448,156.483 529.5,156C 523.899,151.047 518.566,145.881 513.5,140.5C 512.262,137.262 510.596,134.262 508.5,131.5C 508.443,130.391 508.11,129.391 507.5,128.5C 509.369,126.365 510.036,123.698 509.5,120.5 Z"/></g>
<g><path style="opacity:0.694" fill="#888888" d="M 717.5,147.5 C 720.341,149.64 721.674,152.64 721.5,156.5C 719.393,153.943 718.059,150.943 717.5,147.5 Z"/></g>
<g><path style="opacity:0.796" fill="#868686" d="M 682.5,145.5 C 686.357,148.538 688.69,152.538 689.5,157.5C 687.099,155.037 684.933,152.37 683,149.5C 682.51,148.207 682.343,146.873 682.5,145.5 Z"/></g>
<g><path style="opacity:0.184" fill="#6f6f6f" d="M 671.5,146.5 C 672.496,146.414 673.329,146.748 674,147.5C 675.454,150.071 676.62,152.738 677.5,155.5C 674.719,153.046 672.719,150.046 671.5,146.5 Z"/></g>
<g><path style="opacity:0.312" fill="#50504d" d="M 469.5,148.5 C 469.5,154.167 469.5,159.833 469.5,165.5C 468.883,165.389 468.383,165.056 468,164.5C 467.833,161.833 467.667,159.167 467.5,156.5C 467.522,153.41 468.188,150.743 469.5,148.5 Z"/></g>
<g><path style="opacity:1" fill="#ae9b59" d="M 483.5,132.5 C 481.285,137.932 478.785,143.265 476,148.5C 475.501,154.157 475.334,159.824 475.5,165.5C 474.346,159.013 474.179,152.346 475,145.5C 477.383,140.812 480.216,136.478 483.5,132.5 Z"/></g>
<g><path style="opacity:0.125" fill="#757575" d="M 678.5,157.5 C 680.446,158.035 681.446,159.368 681.5,161.5C 679.554,160.965 678.554,159.632 678.5,157.5 Z"/></g>
<g><path style="opacity:0.678" fill="#939393" d="M 681.5,161.5 C 683.293,161.884 684.293,163.05 684.5,165C 685.66,166.997 685.66,168.831 684.5,170.5C 682.928,167.785 681.928,164.785 681.5,161.5 Z"/></g>
<g><path style="opacity:0.324" fill="#808080" d="M 721.5,156.5 C 724.824,160.075 726.49,164.408 726.5,169.5C 725.414,169.38 724.747,168.713 724.5,167.5C 723.649,163.759 722.649,160.092 721.5,156.5 Z"/></g>
<g><path style="opacity:1" fill="#97844a" d="M 534.5,173.5 C 535.027,170.091 535.527,166.758 536,163.5C 534.961,164.71 533.794,165.71 532.5,166.5C 532.967,163.703 534.633,162.369 537.5,162.5C 537.636,165.551 537.302,168.551 536.5,171.5C 536.253,172.713 535.586,173.38 534.5,173.5 Z"/></g>
<g><path style="opacity:0.375" fill="#8b8b8b" d="M 637.5,81.5 C 630.841,81.0462 624.174,80.7129 617.5,80.5C 617.396,115.836 617.062,151.169 616.5,186.5C 615.833,186.5 615.167,186.5 614.5,186.5C 614.411,150.495 614.745,114.495 615.5,78.5C 622.547,78.3367 629.547,78.8367 636.5,80C 637.056,80.3826 637.389,80.8826 637.5,81.5 Z"/></g>
<g><path style="opacity:0.573" fill="#808080" d="M 689.5,157.5 C 692.2,161.272 693.534,165.605 693.5,170.5C 692.414,170.38 691.747,169.713 691.5,168.5C 690.574,164.87 689.907,161.203 689.5,157.5 Z"/></g>
<g><path style="opacity:0.054" fill="#3e3e3e" d="M 684.5,171.5 C 686.048,171.821 686.715,172.821 686.5,174.5C 684.952,174.179 684.285,173.179 684.5,171.5 Z"/></g>
<g><path style="opacity:0.373" fill="#5e5e5e" d="M 693.5,173.5 C 694.497,178.213 694.163,182.88 692.5,187.5C 692.54,182.807 692.873,178.141 693.5,173.5 Z"/></g>
<g><path style="opacity:0.341" fill="#787878" d="M 726.5,172.5 C 728.285,172.926 729.285,174.092 729.5,176C 730.686,179.227 730.686,182.394 729.5,185.5C 728.392,181.308 727.392,176.975 726.5,172.5 Z"/></g>
<g><path style="opacity:0.059" fill="#525252" d="M 692.5,188.5 C 692.5,189.5 692.5,190.5 692.5,191.5C 690.517,191.843 689.183,191.176 688.5,189.5C 689.833,189.167 691.167,188.833 692.5,188.5 Z"/></g>
<g><path style="opacity:1" fill="#d6c06f" d="M 525.5,181.5 C 525.5,186.167 525.5,190.833 525.5,195.5C 517.833,195.5 510.167,195.5 502.5,195.5C 498.54,194.191 494.54,192.691 490.5,191C 489.619,190.292 488.953,189.458 488.5,188.5C 492.322,190.073 496.322,191.573 500.5,193C 508.493,193.5 516.493,193.666 524.5,193.5C 524.183,189.298 524.517,185.298 525.5,181.5 Z"/></g>
<g><path style="opacity:1" fill="#4d3f21" d="M 525.5,181.5 C 525.833,181.5 526.167,181.5 526.5,181.5C 526.218,186.927 526.551,192.26 527.5,197.5C 525.435,197.517 523.435,197.85 521.5,198.5C 521.611,197.883 521.944,197.383 522.5,197C 515.654,196.828 508.987,196.328 502.5,195.5C 510.167,195.5 517.833,195.5 525.5,195.5C 525.5,190.833 525.5,186.167 525.5,181.5 Z"/></g>
<g><path style="opacity:1" fill="#776738" d="M 488.5,194.5 C 490.967,194.755 492.967,195.755 494.5,197.5C 492.033,197.245 490.033,196.245 488.5,194.5 Z"/></g>
<g><path style="opacity:1" fill="#a99956" d="M 527.5,197.5 C 528.363,199.421 529.029,201.421 529.5,203.5C 528.163,202.685 527.163,201.518 526.5,200C 519.007,200.477 511.673,200.311 504.5,199.5C 510.203,199.625 515.87,199.292 521.5,198.5C 523.435,197.85 525.435,197.517 527.5,197.5 Z"/></g>
<g><path style="opacity:0.047" fill="#303030" d="M 729.5,187.5 C 731.461,194.087 732.128,201.087 731.5,208.5C 730.833,208.5 730.167,208.5 729.5,208.5C 729.5,201.5 729.5,194.5 729.5,187.5 Z"/></g>
<g><path style="opacity:0.895" fill="#fefffe" d="M 780.5,198.5 C 789.289,197.863 797.289,200.03 804.5,205C 810.311,210.231 809.811,214.397 803,217.5C 799.333,215.167 795.667,212.833 792,210.5C 782.947,207.119 776.78,209.786 773.5,218.5C 774.498,222.005 776.498,224.838 779.5,227C 786.833,230.333 794.167,233.667 801.5,237C 811.319,243.46 814.152,252.293 810,263.5C 806.256,269.901 800.756,274.068 793.5,276C 783.776,277.838 774.776,276.171 766.5,271C 761.744,267.611 759.91,263.111 761,257.5C 763.299,255.464 765.799,255.131 768.5,256.5C 775.545,266.011 784.545,268.511 795.5,264C 801.574,258.591 801.907,252.925 796.5,247C 789.335,243.279 782.002,239.946 774.5,237C 762.328,228.809 759.828,218.309 767,205.5C 770.96,201.938 775.46,199.605 780.5,198.5 Z"/></g>
<g><path style="opacity:0.896" fill="#fefffe" d="M 94.5,199.5 C 98.2727,198.822 101.106,200.156 103,203.5C 111,213.5 119,223.5 127,233.5C 135.978,222.354 145.145,211.354 154.5,200.5C 157.903,198.813 160.736,199.48 163,202.5C 163.667,226.167 163.667,249.833 163,273.5C 159.667,276.167 156.333,276.167 153,273.5C 152.667,255.833 152.333,238.167 152,220.5C 144.978,228.688 138.144,237.021 131.5,245.5C 128.005,248.368 124.838,248.035 122,244.5C 115.667,236.5 109.333,228.5 103,220.5C 102.667,237.5 102.333,254.5 102,271.5C 99.4512,275.925 96.1179,276.592 92,273.5C 90.3546,250.588 90.0212,227.588 91,204.5C 91.2572,202.093 92.4238,200.427 94.5,199.5 Z"/></g>
<g><path style="opacity:0.936" fill="#fefffe" d="M 184.5,199.5 C 200.503,199.333 216.503,199.5 232.5,200C 235.864,202.729 236.197,205.729 233.5,209C 219.837,209.5 206.171,209.667 192.5,209.5C 192.5,217.167 192.5,224.833 192.5,232.5C 203.172,232.333 213.839,232.5 224.5,233C 227.299,236.339 226.966,239.339 223.5,242C 213.172,242.5 202.839,242.666 192.5,242.5C 192.5,250.167 192.5,257.833 192.5,265.5C 205.837,265.333 219.171,265.5 232.5,266C 236.072,268.626 236.405,271.626 233.5,275C 216.833,275.667 200.167,275.667 183.5,275C 183,274.5 182.5,274 182,273.5C 181.333,249.833 181.333,226.167 182,202.5C 182.698,201.309 183.531,200.309 184.5,199.5 Z"/></g>
<g><path style="opacity:0.889" fill="#fefffe" d="M 250.5,199.5 C 254.025,199.346 256.859,200.679 259,203.5C 272.667,220.833 286.333,238.167 300,255.5C 300.333,237.5 300.667,219.5 301,201.5C 304.075,198.941 307.075,198.941 310,201.5C 311.148,213.575 311.648,225.741 311.5,238C 311.333,249.5 311.167,261 311,272.5C 307.59,277.556 303.923,277.556 300,272.5C 286.714,254.879 273.048,237.546 259,220.5C 258.667,237.5 258.333,254.5 258,271.5C 255.451,275.925 252.118,276.592 248,273.5C 246.355,250.588 246.021,227.588 247,204.5C 247.257,202.093 248.424,200.427 250.5,199.5 Z"/></g>
<g><path style="opacity:0.869" fill="#fefffe" d="M 323.5,199.5 C 341.503,199.333 359.503,199.5 377.5,200C 381.692,202.239 382.359,205.239 379.5,209C 371.92,210.396 364.253,210.896 356.5,210.5C 356.667,230.836 356.5,251.169 356,271.5C 354.368,275.212 351.535,276.379 347.5,275C 346.107,273.829 345.273,272.329 345,270.5C 344.5,250.503 344.333,230.503 344.5,210.5C 337.053,210.929 329.719,210.429 322.5,209C 319.765,205.508 320.098,202.342 323.5,199.5 Z"/></g>
<g><path style="opacity:0.936" fill="#fefffe" d="M 393.5,199.5 C 409.503,199.333 425.503,199.5 441.5,200C 444.864,202.729 445.197,205.729 442.5,209C 428.837,209.5 415.171,209.667 401.5,209.5C 401.5,217.167 401.5,224.833 401.5,232.5C 412.172,232.333 422.839,232.5 433.5,233C 436.299,236.339 435.966,239.339 432.5,242C 422.172,242.5 411.839,242.666 401.5,242.5C 401.5,250.167 401.5,257.833 401.5,265.5C 414.837,265.333 428.171,265.5 441.5,266C 445.072,268.626 445.405,271.626 442.5,275C 425.833,275.667 409.167,275.667 392.5,275C 392,274.5 391.5,274 391,273.5C 390.333,249.833 390.333,226.167 391,202.5C 391.698,201.309 392.531,200.309 393.5,199.5 Z"/></g>
<g><path style="opacity:0.92" fill="#fefffe" d="M 829.5,199.5 C 834.029,199.496 837.529,201.496 840,205.5C 847.289,215.124 854.955,224.458 863,233.5C 871.808,222.057 880.975,210.891 890.5,200C 893.14,199.161 895.473,199.661 897.5,201.5C 898.656,225.457 898.823,249.457 898,273.5C 895.503,275.478 892.669,275.978 889.5,275C 888.874,274.25 888.374,273.416 888,272.5C 887.667,255.167 887.333,237.833 887,220.5C 880.286,228.212 873.953,236.212 868,244.5C 865.029,248.092 861.696,248.425 858,245.5C 851.713,236.878 845.047,228.545 838,220.5C 837.667,237.833 837.333,255.167 837,272.5C 836.242,274.91 834.575,275.91 832,275.5C 829.966,275.646 828.299,274.98 827,273.5C 826.333,249.833 826.333,226.167 827,202.5C 827.698,201.309 828.531,200.309 829.5,199.5 Z"/></g>
<g><path style="opacity:0.908" fill="#fefffe" d="M 940.5,199.5 C 943.272,199.22 945.772,199.887 948,201.5C 957.528,223.084 966.861,244.751 976,266.5C 977.648,274.187 974.814,277.021 967.5,275C 964.808,270.089 962.808,264.923 961.5,259.5C 949.495,259.333 937.495,259.5 925.5,260C 923.546,265.205 921.213,270.205 918.5,275C 911.51,277.005 908.676,274.505 910,267.5C 919,246.167 928,224.833 937,203.5C 938.376,202.295 939.542,200.962 940.5,199.5 Z M 942.5,216.5 C 947.649,226.812 952.315,237.479 956.5,248.5C 947.518,249.665 938.518,249.832 929.5,249C 934.252,238.329 938.586,227.496 942.5,216.5 Z"/></g>
<g><path style="opacity:0.911" fill="#fefffe" d="M 990.5,199.5 C 1000.17,199.334 1009.84,199.5 1019.5,200C 1031.33,202.152 1038.83,208.986 1042,220.5C 1043.19,227.521 1042.19,234.187 1039,240.5C 1035.96,243.711 1032.79,246.711 1029.5,249.5C 1034,255.833 1038.5,262.167 1043,268.5C 1044.25,272.926 1042.59,275.592 1038,276.5C 1036.37,276.122 1034.87,275.456 1033.5,274.5C 1028.29,267.244 1022.96,260.077 1017.5,253C 1011.18,252.5 1004.84,252.334 998.5,252.5C 998.666,259.508 998.5,266.508 998,273.5C 994.337,276.333 991.004,276 988,272.5C 987.333,249.5 987.333,226.5 988,203.5C 988.662,202.016 989.496,200.683 990.5,199.5 Z M 998.5,209.5 C 1005.89,209.253 1013.22,209.753 1020.5,211C 1030.87,216.114 1033.7,223.948 1029,234.5C 1027.13,236.709 1024.96,238.542 1022.5,240C 1014.59,241.401 1006.59,241.901 998.5,241.5C 998.5,230.833 998.5,220.167 998.5,209.5 Z"/></g>
<g><path style="opacity:0.907" fill="#fefffe" d="M 1050.5,199.5 C 1068.84,199.333 1087.17,199.5 1105.5,200C 1108.98,202.706 1109.31,205.706 1106.5,209C 1098.92,210.396 1091.25,210.896 1083.5,210.5C 1083.67,231.503 1083.5,252.503 1083,273.5C 1079.67,276.167 1076.33,276.167 1073,273.5C 1072.5,252.503 1072.33,231.503 1072.5,210.5C 1064.75,210.896 1057.08,210.396 1049.5,209C 1046.91,205.583 1047.24,202.416 1050.5,199.5 Z"/></g>
<g><path style="opacity:1" fill="#161007" d="M 534.5,173.5 C 533.002,182.203 533.169,190.87 535,199.5C 538.5,206.507 543,212.84 548.5,218.5C 548,218.833 547.5,219.167 547,219.5C 539.732,215.732 533.899,210.399 529.5,203.5C 529.029,201.421 528.363,199.421 527.5,197.5C 526.551,192.26 526.218,186.927 526.5,181.5C 527.928,177.626 529.094,173.626 530,169.5C 530.852,168.429 531.685,167.429 532.5,166.5C 533.794,165.71 534.961,164.71 536,163.5C 535.527,166.758 535.027,170.091 534.5,173.5 Z"/></g>
<g><path style="opacity:0.28" fill="#8c8c8c" d="M 735.5,185.5 C 736.167,185.5 736.833,185.5 737.5,185.5C 738.801,194.507 738.801,203.507 737.5,212.5C 736.833,212.5 736.167,212.5 735.5,212.5C 736.797,203.495 736.797,194.495 735.5,185.5 Z"/></g>
<g><path style="opacity:1" fill="#cfba67" d="M 472.5,192.5 C 471.033,196.226 469.366,199.893 467.5,203.5C 466.336,209.472 466.17,215.472 467,221.5C 467.311,226.481 469.478,230.315 473.5,233C 473.707,237.271 475.874,239.771 480,240.5C 480.366,242.452 481.199,244.118 482.5,245.5C 478.948,243.796 475.781,241.462 473,238.5C 469.233,232.532 466.233,226.199 464,219.5C 461.765,208.74 464.598,199.74 472.5,192.5 Z"/></g>
<g><path style="opacity:0.345" fill="#8f8f8f" d="M 729.5,208.5 C 730.167,208.5 730.833,208.5 731.5,208.5C 731.843,210.483 731.176,211.817 729.5,212.5C 729.5,211.167 729.5,209.833 729.5,208.5 Z"/></g>
<g><path style="opacity:0.208" fill="#585858" d="M 735.5,212.5 C 736.167,212.5 736.833,212.5 737.5,212.5C 737.219,216.188 736.719,219.855 736,223.5C 735.617,224.056 735.117,224.389 734.5,224.5C 734.833,220.5 735.167,216.5 735.5,212.5 Z"/></g>
<g><path style="opacity:0.545" fill="#9a9a9a" d="M 729.5,214.5 C 730.61,217.168 730.61,220.001 729.5,223C 729.456,225.801 728.456,227.968 726.5,229.5C 727.139,224.304 728.139,219.304 729.5,214.5 Z"/></g>
<g><path style="opacity:0.156" fill="#616161" d="M 614.5,186.5 C 615.167,186.5 615.833,186.5 616.5,186.5C 616.5,200.167 616.5,213.833 616.5,227.5C 615.833,227.5 615.167,227.5 614.5,227.5C 614.5,213.833 614.5,200.167 614.5,186.5 Z"/></g>
<g><path style="opacity:0.995" fill="#efefef" d="M 689.5,235.5 C 686.746,238.669 684.746,242.336 683.5,246.5C 681.226,247.597 679.059,248.93 677,250.5C 676.5,250.167 676,249.833 675.5,249.5C 676.127,248.583 676.461,247.583 676.5,246.5C 677.496,246.586 678.329,246.252 679,245.5C 680.341,242.978 681.174,240.311 681.5,237.5C 683.173,236.657 684.34,235.324 685,233.5C 686.43,230.647 687.263,227.647 687.5,224.5C 688.75,224.423 689.583,223.756 690,222.5C 690.415,226.848 690.249,231.181 689.5,235.5 Z"/></g>
<g><path style="opacity:0.38" fill="#888888" d="M 687.5,224.5 C 687.263,227.647 686.43,230.647 685,233.5C 684.34,235.324 683.173,236.657 681.5,237.5C 682.726,232.72 684.726,228.387 687.5,224.5 Z"/></g>
<g><path style="opacity:0.235" fill="#6a6a6a" d="M 689.5,235.5 C 690.249,231.181 690.415,226.848 690,222.5C 689.583,223.756 688.75,224.423 687.5,224.5C 687.183,220.828 688.849,219.162 692.5,219.5C 692.666,223.514 692.499,227.514 692,231.5C 691.878,233.437 691.045,234.77 689.5,235.5 Z"/></g>
<g><path style="opacity:0.224" fill="#6e6e6e" d="M 734.5,224.5 C 734.192,228.595 733.359,232.595 732,236.5C 731.623,237.942 730.79,238.942 729.5,239.5C 729.8,233.932 731.467,228.932 734.5,224.5 Z"/></g>
<g><path style="opacity:0.659" fill="#838383" d="M 726.5,229.5 C 726.674,233.36 725.341,236.36 722.5,238.5C 723.084,235.997 723.751,233.497 724.5,231C 724.836,229.97 725.503,229.47 726.5,229.5 Z"/></g>
<g><path style="opacity:0.549" fill="#737373" d="M 689.5,235.5 C 689.129,240.169 687.129,243.835 683.5,246.5C 684.746,242.336 686.746,238.669 689.5,235.5 Z"/></g>
<g><path style="opacity:0.329" fill="#797979" d="M 729.5,239.5 C 728.211,245.202 726.045,250.535 723,255.5C 720.484,258.534 718.484,261.868 717,265.5C 716.329,266.252 715.496,266.586 714.5,266.5C 718.747,257 723.747,248 729.5,239.5 Z"/></g>
<g><path style="opacity:0.553" fill="#9b9b9b" d="M 681.5,237.5 C 681.174,240.311 680.341,242.978 679,245.5C 678.329,246.252 677.496,246.586 676.5,246.5C 677.41,243.008 679.076,240.008 681.5,237.5 Z"/></g>
<g><path style="opacity:0.075" fill="#5e5f68" d="M 469.5,241.5 C 472.167,242.167 473.833,243.833 474.5,246.5C 472.184,245.578 470.517,243.911 469.5,241.5 Z"/></g>
<g><path style="opacity:0.278" fill="#999b9b" d="M 476.5,248.5 C 479.586,248.599 481.919,249.932 483.5,252.5C 482.448,252.649 481.448,252.483 480.5,252C 478.681,251.26 477.348,250.093 476.5,248.5 Z"/></g>
<g><path style="opacity:0.565" fill="#a4a4a4" d="M 722.5,239.5 C 722.584,242.748 721.751,245.748 720,248.5C 719.329,249.252 718.496,249.586 717.5,249.5C 718.421,245.701 720.088,242.368 722.5,239.5 Z"/></g>
<g><path style="opacity:1" fill="#d5bf6b" d="M 484.5,247.5 C 498.34,250.162 512.34,251.162 526.5,250.5C 523.829,252.118 520.829,252.785 517.5,252.5C 509.817,252.477 502.15,252.143 494.5,251.5C 494.167,251.5 493.833,251.5 493.5,251.5C 490.392,250.447 487.392,249.114 484.5,247.5 Z"/></g>
<g><path style="opacity:0.29" fill="#939393" d="M 676.5,246.5 C 676.461,247.583 676.127,248.583 675.5,249.5C 676,249.833 676.5,250.167 677,250.5C 679.059,248.93 681.226,247.597 683.5,246.5C 682.833,249.167 681.167,250.833 678.5,251.5C 676.5,251.833 674.5,252.167 672.5,252.5C 671.957,252.44 671.624,252.107 671.5,251.5C 672.524,249.054 674.191,247.388 676.5,246.5 Z"/></g>
<g><path style="opacity:1" fill="#726638" d="M 494.5,251.5 C 502.15,252.143 509.817,252.477 517.5,252.5C 517.5,252.833 517.5,253.167 517.5,253.5C 509.589,253.921 501.923,253.255 494.5,251.5 Z"/></g>
<g><path style="opacity:1" fill="#2d2210" d="M 524.5,254.5 C 523.833,254.5 523.167,254.5 522.5,254.5C 521.081,253.549 519.415,253.216 517.5,253.5C 517.5,253.167 517.5,252.833 517.5,252.5C 520.829,252.785 523.829,252.118 526.5,250.5C 530.203,250.093 533.87,249.426 537.5,248.5C 538.167,248.833 538.833,249.167 539.5,249.5C 534.993,252.546 529.993,254.213 524.5,254.5 Z"/></g>
<g><path style="opacity:0.016" fill="#2e2e2e" d="M 678.5,251.5 C 677.166,252.652 675.666,253.652 674,254.5C 672.97,254.164 672.47,253.497 672.5,252.5C 674.5,252.167 676.5,251.833 678.5,251.5 Z"/></g>
<g><path style="opacity:0.073" fill="#aeb2b1" d="M 483.5,252.5 C 485.565,252.517 487.565,252.85 489.5,253.5C 489.975,256.082 489.308,258.082 487.5,259.5C 487.933,256.019 486.599,253.686 483.5,252.5 Z"/></g>
<g><path style="opacity:0.639" fill="#959595" d="M 717.5,249.5 C 715.889,256.715 712.223,262.715 706.5,267.5C 709.794,261.305 713.461,255.305 717.5,249.5 Z"/></g>
<g><path style="opacity:1" fill="#baa65f" d="M 522.5,254.5 C 523.167,254.5 523.833,254.5 524.5,254.5C 522.189,256.068 519.522,256.902 516.5,257C 508.921,257.184 501.421,257.684 494,258.5C 492.932,268.783 494.099,278.783 497.5,288.5C 495.215,285.665 493.882,282.332 493.5,278.5C 492.483,271.195 492.317,263.861 493,256.5C 493.671,255.748 494.504,255.414 495.5,255.5C 504.557,256.928 513.557,256.595 522.5,254.5 Z"/></g>
<g><path style="opacity:1" fill="#534521" d="M 495.5,255.5 C 494.504,255.414 493.671,255.748 493,256.5C 492.317,263.861 492.483,271.195 493.5,278.5C 492.778,278.082 492.278,277.416 492,276.5C 491.333,269.5 491.333,262.5 492,255.5C 493.292,254.209 494.458,254.209 495.5,255.5 Z"/></g>
<g><path style="opacity:0.469" fill="#6f6f70" d="M 487.5,259.5 C 487.56,268.161 487.56,276.828 487.5,285.5C 484.833,276.833 484.833,268.167 487.5,259.5 Z"/></g>
<g><path style="opacity:0.788" fill="#9b9b9b" d="M 706.5,267.5 C 706.019,270.834 704.353,273.167 701.5,274.5C 702.069,271.281 703.736,268.948 706.5,267.5 Z"/></g>
<g><path style="opacity:1" fill="#322915" d="M 570.5,267.5 C 572.179,267.285 573.179,267.952 573.5,269.5C 573.665,272.518 573.498,275.518 573,278.5C 572.8,280.32 571.966,281.653 570.5,282.5C 570.649,281.448 570.483,280.448 570,279.5C 568.483,281.24 566.983,282.906 565.5,284.5C 565.886,282.063 567.053,280.063 569,278.5C 570.108,274.914 570.608,271.247 570.5,267.5 Z"/></g>
<g><path style="opacity:0.455" fill="#747474" d="M 714.5,267.5 C 712.251,271.598 709.751,275.598 707,279.5C 704.48,281.946 701.98,284.279 699.5,286.5C 701.387,282.114 703.887,278.114 707,274.5C 709.254,271.867 711.754,269.534 714.5,267.5 Z"/></g>
<g><path style="opacity:0.114" fill="#6f6f6f" d="M 701.5,274.5 C 699.922,279.08 696.922,282.413 692.5,284.5C 694.454,281.933 696.287,279.266 698,276.5C 698.816,275.177 699.983,274.511 701.5,274.5 Z"/></g>
<g><path style="opacity:0.637" fill="#3c3e3c" d="M 600.5,144.5 C 601.167,145.833 601.833,147.167 602.5,148.5C 602.5,152.833 602.5,157.167 602.5,161.5C 603.163,230.175 602.497,298.508 600.5,366.5C 601.771,292.565 601.771,218.565 600.5,144.5 Z"/></g>
<g><path style="opacity:0.042" fill="#1d1d1d" d="M 614.5,227.5 C 615.167,227.5 615.833,227.5 616.5,227.5C 616.5,273.167 616.5,318.833 616.5,364.5C 615.833,364.5 615.167,364.5 614.5,364.5C 614.5,318.833 614.5,273.167 614.5,227.5 Z"/></g>
<g><path style="opacity:0.073" fill="#afafaf" d="M 487.5,286.5 C 488.833,286.5 489.5,287.167 489.5,288.5C 489.5,287.167 488.833,286.5 487.5,286.5 Z"/></g>
<g><path style="opacity:0.161" fill="#7d7d7d" d="M 698.5,287.5 C 697.92,289.749 696.587,291.415 694.5,292.5C 694.369,289.633 695.703,287.967 698.5,287.5 Z"/></g>
<g><path style="opacity:1" fill="#e6cc6f" d="M 570.5,267.5 C 570.608,271.247 570.108,274.914 569,278.5C 567.053,280.063 565.886,282.063 565.5,284.5C 563.413,285.585 562.08,287.251 561.5,289.5C 557.033,293.9 552.033,297.566 546.5,300.5C 544.033,300.755 542.033,301.755 540.5,303.5C 539.833,303.5 539.167,303.5 538.5,303.5C 538.167,303.5 537.833,303.5 537.5,303.5C 540.562,300.881 544.062,298.881 548,297.5C 550.023,295.231 550.856,292.564 550.5,289.5C 552.467,289.739 554.301,289.406 556,288.5C 556.667,289.167 557.333,289.833 558,290.5C 558.195,288.793 558.195,287.126 558,285.5C 559.356,284.62 560.856,284.286 562.5,284.5C 564.375,281.762 566.042,278.762 567.5,275.5C 568.321,272.553 568.821,269.553 569,266.5C 569.383,267.056 569.883,267.389 570.5,267.5 Z"/></g>
<g><path style="opacity:0.671" fill="#747474" d="M 489.5,289.5 C 492.164,291.484 493.831,294.151 494.5,297.5C 493.504,297.586 492.671,297.252 492,296.5C 490.882,294.235 490.049,291.901 489.5,289.5 Z"/></g>
<g><path style="opacity:0.016" fill="#404040" d="M 694.5,292.5 C 693.833,295.167 692.167,296.833 689.5,297.5C 690.167,294.833 691.833,293.167 694.5,292.5 Z"/></g>
<g><path style="opacity:1" fill="#110e0b" d="M 493.5,251.5 C 493.833,251.5 494.167,251.5 494.5,251.5C 501.923,253.255 509.589,253.921 517.5,253.5C 519.415,253.216 521.081,253.549 522.5,254.5C 513.557,256.595 504.557,256.928 495.5,255.5C 494.458,254.209 493.292,254.209 492,255.5C 491.333,262.5 491.333,269.5 492,276.5C 492.278,277.416 492.778,278.082 493.5,278.5C 493.882,282.332 495.215,285.665 497.5,288.5C 498.8,291.432 500.8,293.766 503.5,295.5C 504.585,297.587 506.251,298.92 508.5,299.5C 509.167,299.833 509.833,300.167 510.5,300.5C 512.89,303.028 515.89,304.528 519.5,305C 524.5,305.667 529.5,305.667 534.5,305C 536.058,304.79 537.391,304.29 538.5,303.5C 539.167,303.5 539.833,303.5 540.5,303.5C 542.967,303.245 544.967,302.245 546.5,300.5C 552.033,297.566 557.033,293.9 561.5,289.5C 563.587,288.415 564.92,286.749 565.5,284.5C 566.983,282.906 568.483,281.24 570,279.5C 570.483,280.448 570.649,281.448 570.5,282.5C 566.819,291.863 560.819,299.53 552.5,305.5C 548.053,305.726 546.053,308.059 546.5,312.5C 546.382,315.486 547.048,318.152 548.5,320.5C 549.114,324.135 549.448,327.802 549.5,331.5C 550.11,338.15 550.61,344.816 551,351.5C 551.232,352.737 551.732,353.737 552.5,354.5C 553.529,356.517 554.529,358.517 555.5,360.5C 553.901,360.232 552.568,360.566 551.5,361.5C 550.046,359.563 548.379,357.897 546.5,356.5C 545.514,352.03 545.181,347.363 545.5,342.5C 545.5,338.5 545.5,334.5 545.5,330.5C 545.111,323.83 544.611,317.164 544,310.5C 543.667,310.167 543.333,309.833 543,309.5C 539.794,310.246 536.961,311.58 534.5,313.5C 525.989,313.289 517.656,311.956 509.5,309.5C 507.621,306.742 504.954,305.075 501.5,304.5C 501.631,303.761 501.464,303.094 501,302.5C 498.644,300.925 496.478,299.259 494.5,297.5C 493.831,294.151 492.164,291.484 489.5,289.5C 489.5,289.167 489.5,288.833 489.5,288.5C 489.5,287.167 488.833,286.5 487.5,286.5C 487.5,286.167 487.5,285.833 487.5,285.5C 487.56,276.828 487.56,268.161 487.5,259.5C 489.308,258.082 489.975,256.082 489.5,253.5C 489.389,252.883 489.056,252.383 488.5,252C 490.134,251.506 491.801,251.34 493.5,251.5 Z"/></g>
<g><path style="opacity:1" fill="#63582e" d="M 565.5,284.5 C 564.92,286.749 563.587,288.415 561.5,289.5C 562.08,287.251 563.413,285.585 565.5,284.5 Z"/></g>
<g><path style="opacity:1" fill="#c5ae62" d="M 573.5,269.5 C 574.641,272.64 574.808,275.973 574,279.5C 570.366,285.55 567.199,291.883 564.5,298.5C 562.96,300.437 560.96,301.604 558.5,302C 557.55,304.91 555.55,306.077 552.5,305.5C 560.819,299.53 566.819,291.863 570.5,282.5C 571.966,281.653 572.8,280.32 573,278.5C 573.498,275.518 573.665,272.518 573.5,269.5 Z"/></g>
<g><path style="opacity:0.11" fill="#787878" d="M 691.5,286.5 C 688.856,289.994 686.356,293.66 684,297.5C 679.278,301.058 675.111,305.058 671.5,309.5C 675.456,303.706 679.623,298.039 684,292.5C 686.731,290.582 689.231,288.582 691.5,286.5 Z"/></g>
<g><path style="opacity:1" fill="#887940" d="M 503.5,295.5 C 505.749,296.08 507.415,297.413 508.5,299.5C 506.251,298.92 504.585,297.587 503.5,295.5 Z"/></g>
<g><path style="opacity:0.267" fill="#737373" d="M 689.5,297.5 C 686.589,302.746 682.922,307.413 678.5,311.5C 678.608,309.217 679.441,307.217 681,305.5C 683.624,302.559 686.457,299.893 689.5,297.5 Z"/></g>
<g><path style="opacity:0.094" fill="#858685" d="M 494.5,297.5 C 496.478,299.259 498.644,300.925 501,302.5C 501.464,303.094 501.631,303.761 501.5,304.5C 497.5,303.833 495.167,301.5 494.5,297.5 Z"/></g>
<g><path style="opacity:0.431" fill="#8c8c8c" d="M 607.5,232.5 C 608.167,234.833 608.833,237.167 609.5,239.5C 609.815,277.197 609.482,314.864 608.5,352.5C 607.501,312.67 607.168,272.67 607.5,232.5 Z"/></g>
<g><path style="opacity:1" fill="#73673c" d="M 546.5,300.5 C 544.967,302.245 542.967,303.245 540.5,303.5C 542.033,301.755 544.033,300.755 546.5,300.5 Z"/></g>
<g><path style="opacity:1" fill="#baa760" d="M 510.5,300.5 C 519.291,303.013 528.291,304.013 537.5,303.5C 537.833,303.5 538.167,303.5 538.5,303.5C 537.391,304.29 536.058,304.79 534.5,305C 529.5,305.667 524.5,305.667 519.5,305C 515.89,304.528 512.89,303.028 510.5,300.5 Z"/></g>
<g><path style="opacity:0.949" fill="#565656" d="M 501.5,304.5 C 504.954,305.075 507.621,306.742 509.5,309.5C 505.752,309.306 503.085,307.639 501.5,304.5 Z"/></g>
<g><path style="opacity:1" fill="#ab9a58" d="M 552.5,305.5 C 551.708,307.257 550.375,308.591 548.5,309.5C 548.167,310.667 547.833,311.833 547.5,313C 547.917,315.498 548.251,317.998 548.5,320.5C 547.048,318.152 546.382,315.486 546.5,312.5C 546.053,308.059 548.053,305.726 552.5,305.5 Z"/></g>
<g><path style="opacity:0.506" fill="#7e817e" d="M 509.5,309.5 C 517.656,311.956 525.989,313.289 534.5,313.5C 526.874,314.909 519.207,314.409 511.5,312C 510.244,311.583 509.577,310.75 509.5,309.5 Z"/></g>
<g><path style="opacity:0.329" fill="#7c7a7d" d="M 545.5,330.5 C 544.833,330.5 544.167,330.5 543.5,330.5C 543.361,324.443 542.694,318.443 541.5,312.5C 539.253,313.374 536.92,313.708 534.5,313.5C 536.961,311.58 539.794,310.246 543,309.5C 543.333,309.833 543.667,310.167 544,310.5C 544.611,317.164 545.111,323.83 545.5,330.5 Z"/></g>
<g><path style="opacity:0.714" fill="#838383" d="M 671.5,309.5 C 670.633,313.329 668.967,316.663 666.5,319.5C 666.575,316.593 667.409,313.927 669,311.5C 669.708,310.619 670.542,309.953 671.5,309.5 Z"/></g>
<g><path style="opacity:0.163" fill="#a7a8a5" d="M 602.5,161.5 C 603.665,229.999 603.832,298.665 603,367.5C 601.359,371.323 598.526,373.323 594.5,373.5C 594.5,372.833 594.5,372.167 594.5,371.5C 598.032,371.632 600.032,369.966 600.5,366.5C 602.497,298.508 603.163,230.175 602.5,161.5 Z"/></g>
<g><path style="opacity:0.263" fill="#6c6c6c" d="M 666.5,319.5 C 666.843,321.483 666.176,322.817 664.5,323.5C 664.157,321.517 664.824,320.183 666.5,319.5 Z"/></g>
<g><path style="opacity:0.174" fill="#7d7d7d" d="M 678.5,311.5 C 677.727,314.045 676.227,316.045 674,317.5C 672.735,321.754 671.902,326.088 671.5,330.5C 670.833,330.5 670.167,330.5 669.5,330.5C 669.696,325.488 670.696,320.655 672.5,316C 674.016,313.734 676.016,312.234 678.5,311.5 Z"/></g>
<g><path style="opacity:1" fill="#cab668" d="M 590.5,78.5 C 592.033,80.2451 594.033,81.2451 596.5,81.5C 595.653,176.164 595.32,270.831 595.5,365.5C 586.863,366.807 578.197,366.807 569.5,365.5C 568.5,364.833 567.5,364.167 566.5,363.5C 575.482,364.218 584.482,364.552 593.5,364.5C 593.333,296.499 593.5,228.499 594,160.5C 595.25,135.498 595.417,110.498 594.5,85.5C 592.512,84.7112 592.179,83.5445 593.5,82C 590.167,80.6667 586.833,79.3333 583.5,78C 578.806,77.4361 574.14,77.6027 569.5,78.5C 569.918,77.7784 570.584,77.2784 571.5,77C 577.979,76.0816 584.312,76.5816 590.5,78.5 Z"/></g>
<g><path style="opacity:0.043" fill="#1d1d1d" d="M 669.5,330.5 C 670.167,330.5 670.833,330.5 671.5,330.5C 671.946,333.01 671.28,335.01 669.5,336.5C 669.5,334.5 669.5,332.5 669.5,330.5 Z"/></g>
<g><path style="opacity:0.438" fill="#9e9e9e" d="M 664.5,326.5 C 665.16,327.964 665.493,329.631 665.5,331.5C 665,336.5 664.5,341.5 664,346.5C 663.95,348.744 663.117,350.411 661.5,351.5C 662.182,342.989 663.182,334.655 664.5,326.5 Z"/></g>
<g><path style="opacity:0.051" fill="#d9d8db" d="M 543.5,330.5 C 544.167,330.5 544.833,330.5 545.5,330.5C 545.5,334.5 545.5,338.5 545.5,342.5C 544.883,342.389 544.383,342.056 544,341.5C 543.501,337.848 543.335,334.182 543.5,330.5 Z"/></g>
<g><path style="opacity:1" fill="#9d8b51" d="M 549.5,331.5 C 551.319,338.913 552.319,346.58 552.5,354.5C 551.732,353.737 551.232,352.737 551,351.5C 550.61,344.816 550.11,338.15 549.5,331.5 Z"/></g>
<g><path style="opacity:0.312" fill="#848484" d="M 661.5,352.5 C 661.674,356.36 660.341,359.36 657.5,361.5C 658.099,357.979 659.432,354.979 661.5,352.5 Z"/></g>
<g><path style="opacity:0.396" fill="#939393" d="M 608.5,354.5 C 609.8,356.223 610.467,358.39 610.5,361C 610.496,363.361 610.163,365.527 609.5,367.5C 608.515,363.366 608.182,359.032 608.5,354.5 Z"/></g>
<g><path style="opacity:0.059" fill="#7d8180" d="M 546.5,356.5 C 548.379,357.897 550.046,359.563 551.5,361.5C 552.11,362.391 552.443,363.391 552.5,364.5C 548.635,363.294 546.635,360.627 546.5,356.5 Z"/></g>
<g><path style="opacity:0.71" fill="#8f8f8f" d="M 667.5,353.5 C 666.98,357.865 665.48,361.865 663,365.5C 662.184,366.823 661.017,367.489 659.5,367.5C 661.614,362.346 664.281,357.68 667.5,353.5 Z"/></g>
<g><path style="opacity:0.13" fill="#808080" d="M 657.5,361.5 C 657.167,363.833 655.833,365.167 653.5,365.5C 654.167,363.5 655.5,362.167 657.5,361.5 Z"/></g>
<g><path style="opacity:1" fill="#766735" d="M 562.5,363.5 C 563.833,363.5 565.167,363.5 566.5,363.5C 567.5,364.167 568.5,364.833 569.5,365.5C 566.848,365.59 564.515,364.924 562.5,363.5 Z"/></g>
<g><path style="opacity:0.161" fill="#8f8b8a" d="M 552.5,364.5 C 555.849,365.169 558.516,366.836 560.5,369.5C 556.752,369.306 554.085,367.639 552.5,364.5 Z"/></g>
<g><path style="opacity:0.206" fill="#737373" d="M 614.5,364.5 C 615.167,364.5 615.833,364.5 616.5,364.5C 616.414,365.496 616.748,366.329 617.5,367C 629.666,370.573 641.666,370.073 653.5,365.5C 652.657,367.173 651.324,368.34 649.5,369C 638.833,371 628.167,371 617.5,369C 615.624,368.082 614.624,366.582 614.5,364.5 Z"/></g>
<g><path style="opacity:0.525" fill="#7f7f7f" d="M 658.5,368.5 C 656.915,371.639 654.248,373.306 650.5,373.5C 652.484,370.836 655.151,369.169 658.5,368.5 Z"/></g>
<g><path style="opacity:0.024" fill="#b4b7bd" d="M 560.5,369.5 C 563.482,369.963 566.482,370.296 569.5,370.5C 569.5,371.167 569.5,371.833 569.5,372.5C 565.956,372.868 562.956,371.868 560.5,369.5 Z"/></g>
<g><path style="opacity:0.341" fill="#525250" d="M 569.5,370.5 C 577.779,371.44 586.112,371.773 594.5,371.5C 594.5,372.167 594.5,372.833 594.5,373.5C 586.1,374.438 577.766,374.105 569.5,372.5C 569.5,371.833 569.5,371.167 569.5,370.5 Z"/></g>
<g><path style="opacity:0.096" fill="#333333" d="M 611.5,371.5 C 613.5,372.167 615.5,372.833 617.5,373.5C 617.5,374.167 617.5,374.833 617.5,375.5C 615.147,374.66 613.147,373.326 611.5,371.5 Z"/></g>
<g><path style="opacity:0.255" fill="#747474" d="M 617.5,373.5 C 628.486,374.751 639.486,374.751 650.5,373.5C 648.974,375.13 646.974,375.963 644.5,376C 635.465,376.748 626.465,376.581 617.5,375.5C 617.5,374.833 617.5,374.167 617.5,373.5 Z"/></g>
<g><path style="opacity:0.853" fill="#d0d0d0" d="M 653.5,383.5 C 651.804,383.315 650.471,382.481 649.5,381C 619.125,380.182 588.791,380.349 558.5,381.5C 558.833,380.833 559.167,380.167 559.5,379.5C 589.664,378.336 619.997,378.169 650.5,379C 652.141,380.129 653.141,381.629 653.5,383.5 Z"/></g>
<g><path style="opacity:1" fill="#ebebeb" d="M 653.5,383.5 C 654.833,384.833 654.833,386.167 653.5,387.5C 651.839,388.797 650.172,390.13 648.5,391.5C 619.264,392.828 589.931,392.828 560.5,391.5C 557.472,388.67 556.805,385.336 558.5,381.5C 588.791,380.349 619.125,380.182 649.5,381C 650.471,382.481 651.804,383.315 653.5,383.5 Z"/></g>
<g><path style="opacity:0.582" fill="#8d8d8d" d="M 559.5,379.5 C 559.167,380.167 558.833,380.833 558.5,381.5C 556.805,385.336 557.472,388.67 560.5,391.5C 555.338,389.303 554.171,385.636 557,380.5C 557.671,379.748 558.504,379.414 559.5,379.5 Z"/></g>
<g><path style="opacity:0.075" fill="#6a6a6a" d="M 653.5,387.5 C 653.033,390.297 651.367,391.631 648.5,391.5C 650.172,390.13 651.839,388.797 653.5,387.5 Z"/></g>
<g><path style="opacity:0.928" fill="#dfdfdf" d="M 561.5,394.5 C 591.169,394.333 620.835,394.5 650.5,395C 652.141,396.129 653.141,397.629 653.5,399.5C 652.078,399.25 651.078,398.417 650.5,397C 620.835,396.5 591.169,396.333 561.5,396.5C 561.5,395.833 561.5,395.167 561.5,394.5 Z"/></g>
<g><path style="opacity:0.129" fill="#838383" d="M 561.5,394.5 C 561.5,395.167 561.5,395.833 561.5,396.5C 559.833,397.167 558.167,397.833 556.5,398.5C 556.967,395.703 558.633,394.369 561.5,394.5 Z"/></g>
<g><path style="opacity:0.924" fill="#fdfdfd" d="M 561.5,396.5 C 591.169,396.333 620.835,396.5 650.5,397C 651.078,398.417 652.078,399.25 653.5,399.5C 654.833,400.833 654.833,402.167 653.5,403.5C 651.856,403.81 650.856,404.81 650.5,406.5C 650.389,407.117 650.056,407.617 649.5,408C 620.169,408.5 590.835,408.667 561.5,408.5C 560.461,406.469 558.795,405.136 556.5,404.5C 557.833,402.5 557.833,400.5 556.5,398.5C 558.167,397.833 559.833,397.167 561.5,396.5 Z"/></g>
<g><path style="opacity:0.106" fill="#6e6e6e" d="M 556.5,398.5 C 557.833,400.5 557.833,402.5 556.5,404.5C 555.167,402.5 555.167,400.5 556.5,398.5 Z"/></g>
<g><path style="opacity:0.506" fill="#858585" d="M 556.5,404.5 C 558.795,405.136 560.461,406.469 561.5,408.5C 559.251,407.92 557.585,406.587 556.5,404.5 Z"/></g>
<g><path style="opacity:0.141" fill="#737373" d="M 653.5,403.5 C 653.5,405.5 652.5,406.5 650.5,406.5C 650.856,404.81 651.856,403.81 653.5,403.5 Z"/></g>
<g><path style="opacity:0.953" fill="#fafafa" d="M 573.5,428.5 C 571.833,423.167 570.167,417.833 568.5,412.5C 592.515,412.813 616.515,412.48 640.5,411.5C 640.833,412.333 641.167,413.167 641.5,414C 640.059,418.821 638.726,423.654 637.5,428.5C 616.167,428.5 594.833,428.5 573.5,428.5 Z"/></g>
<g><path style="opacity:0.035" fill="#838383" d="M 568.5,412.5 C 570.167,417.833 571.833,423.167 573.5,428.5C 572.21,427.942 571.377,426.942 571,425.5C 569.692,421.24 568.192,417.074 566.5,413C 567.094,412.536 567.761,412.369 568.5,412.5 Z"/></g>
</svg>
