<?xml version="1.0" encoding="UTF-8"?>
<!DOCTYPE svg PUBLIC "-//W3C//DTD SVG 1.1//EN" "http://www.w3.org/Graphics/SVG/1.1/DTD/svg11.dtd">
<svg xmlns="http://www.w3.org/2000/svg" version="1.1" width="700px" height="500px" style="shape-rendering:geometricPrecision; text-rendering:geometricPrecision; image-rendering:optimizeQuality; fill-rule:evenodd; clip-rule:evenodd" xmlns:xlink="http://www.w3.org/1999/xlink">
<g><path style="opacity:0.019" fill="#f5f5f6" d="M 105.5,52.5 C 99.1534,51.2124 92.8201,51.2124 86.5,52.5C 86.1667,52.5 85.8333,52.5 85.5,52.5C 91.4561,49.1069 97.7895,48.6069 104.5,51C 105.056,51.3826 105.389,51.8826 105.5,52.5 Z"/></g>
<g><path style="opacity:0.933" fill="#3c3d41" d="M 105.5,52.5 C 105.833,52.5 106.167,52.5 106.5,52.5C 106.5,52.8333 106.5,53.1667 106.5,53.5C 99.8279,52.2263 93.1613,52.2263 86.5,53.5C 86.5,53.1667 86.5,52.8333 86.5,52.5C 92.8201,51.2124 99.1534,51.2124 105.5,52.5 Z"/></g>
<g><path style="opacity:0.998" fill="#f8f8f8" d="M 165.5,52.5 C 169.5,52.5 173.5,52.5 177.5,52.5C 213.908,55.7956 242.742,72.4622 264,102.5C 272.535,116.116 279.535,130.45 285,145.5C 285.048,142.122 284.548,138.789 283.5,135.5C 292.649,157.663 294.815,180.663 290,204.5C 287.971,210.34 285.804,216.006 283.5,221.5C 283.719,220.325 283.386,219.325 282.5,218.5C 278.86,224.321 275.86,230.488 273.5,237C 270.146,242.19 266.646,247.356 263,252.5C 250.646,267.247 238.313,281.913 226,296.5C 223.485,304.648 222.485,312.981 223,321.5C 223.242,317.57 224.075,313.903 225.5,310.5C 225.027,320.781 223.194,330.781 220,340.5C 215.284,350.379 207.45,355.712 196.5,356.5C 198.026,354.87 200.026,354.037 202.5,354C 191.813,354.999 181.146,354.666 170.5,353C 168.19,351.363 166.69,349.196 166,346.5C 163.974,289.358 163.141,232.191 163.5,175C 163.667,134.833 163.833,94.6667 164,54.5C 164.717,53.9558 165.217,53.2891 165.5,52.5 Z M 186.5,61.5 C 212.172,66.0758 233.672,77.7424 251,96.5C 265.911,114.322 276.078,134.656 281.5,157.5C 285.5,172.5 285.5,187.5 281.5,202.5C 278.104,216.089 272.604,228.755 265,240.5C 252.878,256.647 239.878,272.313 226,287.5C 224.328,290.175 222.661,292.841 221,295.5C 217.857,307.551 216.024,319.884 215.5,332.5C 214.833,332.5 214.5,332.833 214.5,333.5C 213.221,336.986 211.555,340.319 209.5,343.5C 206.367,345.546 203.034,347.212 199.5,348.5C 191.855,349.665 184.188,349.831 176.5,349C 174.781,347.943 172.947,347.11 171,346.5C 170.506,344.866 170.34,343.199 170.5,341.5C 170.367,247.831 170.701,154.164 171.5,60.5C 176.537,60.4126 181.537,60.746 186.5,61.5 Z"/></g>
<g><path style="opacity:0.078" fill="#d4d4d3" d="M 106.5,52.5 C 110.881,53.4004 114.881,55.0671 118.5,57.5C 118.265,58.0967 117.765,58.4301 117,58.5C 113.561,56.5299 110.061,54.8632 106.5,53.5C 106.5,53.1667 106.5,52.8333 106.5,52.5 Z"/></g>
<g><path style="opacity:0.071" fill="#abaaaa" d="M 156.5,141.5 C 156.833,209.669 156.499,277.669 155.5,345.5C 155.76,257.829 155.427,170.162 154.5,82.5C 155.13,74.7572 154.463,67.4238 152.5,60.5C 150.167,59.1667 147.833,57.8333 145.5,56.5C 136.321,53.5135 127.321,53.8468 118.5,57.5C 118.574,55.5891 119.574,54.4224 121.5,54C 129.167,52 136.833,52 144.5,54C 147.952,56.3928 151.619,58.2261 155.5,59.5C 156.312,86.8252 156.646,114.159 156.5,141.5 Z"/></g>
<g><path style="opacity:0.357" fill="#cecfce" d="M 85.5,52.5 C 85.8333,52.5 86.1667,52.5 86.5,52.5C 86.5,52.8333 86.5,53.1667 86.5,53.5C 78.8915,55.5821 72.7248,59.9154 68,66.5C 64.0145,72.5387 60.8479,78.872 58.5,85.5C 61.2884,72.2082 68.2884,61.7082 79.5,54C 81.4357,53.187 83.4357,52.687 85.5,52.5 Z"/></g>
<g><path style="opacity:1" fill="#90804b" d="M 139.5,57.5 C 134.968,57.1818 130.634,57.5151 126.5,58.5C 124.784,58.6287 123.117,58.962 121.5,59.5C 122.347,58.0337 123.68,57.2004 125.5,57C 130.352,56.1849 135.019,56.3516 139.5,57.5 Z"/></g>
<g><path style="opacity:1" fill="#3a2e1c" d="M 145.5,56.5 C 147.833,57.8333 150.167,59.1667 152.5,60.5C 152.833,61.1667 153.167,61.8333 153.5,62.5C 152.833,69.1667 152.167,75.8333 151.5,82.5C 151.5,75.5 151.5,68.5 151.5,61.5C 148.937,60.9117 146.604,59.9117 144.5,58.5C 145.338,58.1583 145.672,57.4916 145.5,56.5 Z"/></g>
<g><path style="opacity:0.765" fill="#e6e6e6" d="M 177.5,52.5 C 193.025,51.42 207.692,54.42 221.5,61.5C 251.209,78.5459 271.875,103.213 283.5,135.5C 284.548,138.789 285.048,142.122 285,145.5C 279.535,130.45 272.535,116.116 264,102.5C 242.742,72.4622 213.908,55.7956 177.5,52.5 Z"/></g>
<g><path style="opacity:1" fill="#f4d669" d="M 92.5,58.5 C 97.1785,58.3342 101.845,58.5008 106.5,59C 109.517,60.2805 112.517,61.4472 115.5,62.5C 118.102,62.5328 120.102,61.5328 121.5,59.5C 123.117,58.962 124.784,58.6287 126.5,58.5C 131.875,58.1718 137.208,58.5052 142.5,59.5C 143.668,61.2174 145.335,61.8841 147.5,61.5C 149.314,72.7127 149.98,84.0461 149.5,95.5C 148.732,96.2625 148.232,97.2625 148,98.5C 147.667,103.5 147.333,108.5 147,113.5C 146.5,190.166 146.333,266.833 146.5,343.5C 138.459,343.664 130.459,343.164 122.5,342C 123.448,341.517 124.448,341.351 125.5,341.5C 125.5,340.167 125.5,338.833 125.5,337.5C 123.319,337.284 121.653,338.117 120.5,340C 118.098,340.814 115.765,340.647 113.5,339.5C 112.721,337.227 111.388,335.394 109.5,334C 110.943,331.922 110.276,331.089 107.5,331.5C 107.433,323.441 107.6,315.441 108,307.5C 106.332,310.21 105.499,310.043 105.5,307C 105.499,303.957 106.332,303.79 108,306.5C 109.188,305.437 109.688,304.103 109.5,302.5C 108.178,302.33 107.011,302.663 106,303.5C 103.978,301.031 104.145,298.865 106.5,297C 105.151,296.228 104.318,295.061 104,293.5C 103.667,293.833 103.333,294.167 103,294.5C 102.506,292.866 102.34,291.199 102.5,289.5C 104.38,289.771 105.713,289.104 106.5,287.5C 107.551,286.778 108.218,285.778 108.5,284.5C 111.089,283.581 113.089,281.914 114.5,279.5C 118.3,277.037 120.967,273.704 122.5,269.5C 122.893,267.716 123.559,266.05 124.5,264.5C 125.935,263.087 126.935,261.42 127.5,259.5C 129.439,255.469 129.939,251.136 129,246.5C 127.062,245.14 125.396,245.473 124,247.5C 123.282,246.549 122.449,246.383 121.5,247C 122.867,249.301 123.534,251.801 123.5,254.5C 123.371,256.216 123.038,257.883 122.5,259.5C 120.801,261.566 119.468,263.9 118.5,266.5C 114.126,271.199 109.126,275.199 103.5,278.5C 99.3111,279.385 95.3111,280.885 91.5,283C 86.5658,284.16 81.5658,284.66 76.5,284.5C 74.1944,284.007 71.861,283.674 69.5,283.5C 66.517,281.861 63.517,280.195 60.5,278.5C 58.1667,275.5 55.5,272.833 52.5,270.5C 51.8698,268.25 50.8698,266.25 49.5,264.5C 47.5587,255.545 47.2253,246.545 48.5,237.5C 50.1667,237.5 51.8333,237.5 53.5,237.5C 54.1667,237.5 54.8333,237.5 55.5,237.5C 62.344,238.819 69.344,238.819 76.5,237.5C 82.593,235.048 88.9263,233.548 95.5,233C 96.8333,231.333 96.8333,229.667 95.5,228C 93.1667,227.333 90.8333,227.333 88.5,228C 86.0261,228.037 84.0261,228.87 82.5,230.5C 81.8333,230.5 81.1667,230.5 80.5,230.5C 69.4514,230.85 58.4514,230.35 47.5,229C 43.9037,227.765 40.5703,226.099 37.5,224C 35.3909,220.727 32.3909,218.894 28.5,218.5C 26.0431,214.567 24.3764,210.234 23.5,205.5C 26.6199,199.875 27.2866,193.875 25.5,187.5C 24.914,187.709 24.414,188.043 24,188.5C 23.8236,191.882 23.3236,195.215 22.5,198.5C 21.914,198.709 21.414,199.043 21,199.5C 20.5008,194.845 20.3342,190.179 20.5,185.5C 23.8554,185.114 24.8554,183.447 23.5,180.5C 25.4487,178.208 26.4487,175.541 26.5,172.5C 28.1857,170.984 30.019,169.65 32,168.5C 33.4064,169.414 34.9064,170.08 36.5,170.5C 37.2029,174.578 39.3696,177.578 43,179.5C 45.6467,178.536 48.1467,179.036 50.5,181C 59.8333,181.333 69.1667,181.667 78.5,182C 79.8333,182.667 79.8333,183.333 78.5,184C 79.6226,185.044 80.9559,185.71 82.5,186C 84.2875,189.449 86.4542,192.616 89,195.5C 90.2051,196.071 91.3717,196.738 92.5,197.5C 91.6906,199.071 91.3573,200.738 91.5,202.5C 93.8211,202.771 95.8211,202.104 97.5,200.5C 99.4086,201.348 101.409,201.682 103.5,201.5C 103.923,199.219 103.256,197.552 101.5,196.5C 101.489,194.983 100.823,193.816 99.5,193C 100.517,191.951 100.684,190.784 100,189.5C 96.7632,188.052 94.4299,185.719 93,182.5C 92.6075,179.367 91.7741,176.367 90.5,173.5C 92.2035,169.973 93.5368,166.64 94.5,163.5C 93.3112,162.571 91.9778,162.238 90.5,162.5C 90.3367,160.143 90.5034,157.81 91,155.5C 92.1653,150.213 93.6653,145.213 95.5,140.5C 88.9713,140.907 86.3046,137.907 87.5,131.5C 85.1791,130.523 82.8458,129.523 80.5,128.5C 76.432,124.761 73.0986,120.428 70.5,115.5C 70.4077,113.152 69.4077,111.486 67.5,110.5C 65.127,103.038 64.127,95.3715 64.5,87.5C 65.7763,85.4375 66.6097,83.1042 67,80.5C 67.7083,79.6195 68.5416,78.9528 69.5,78.5C 72.766,78.5674 74.266,76.9008 74,73.5C 75.2635,71.393 77.0968,70.393 79.5,70.5C 79.8843,67.1042 81.2177,64.1042 83.5,61.5C 83.5,60.8333 83.8333,60.5 84.5,60.5C 87.1123,59.6295 89.779,58.9628 92.5,58.5 Z"/></g>
<g><path style="opacity:1" fill="#ccb96b" d="M 92.5,58.5 C 96.2984,57.5166 100.298,57.1832 104.5,57.5C 108.363,58.3458 112.196,59.3458 116,60.5C 117.878,60.3038 119.712,59.9705 121.5,59.5C 120.102,61.5328 118.102,62.5328 115.5,62.5C 112.517,61.4472 109.517,60.2805 106.5,59C 101.845,58.5008 97.1785,58.3342 92.5,58.5 Z"/></g>
<g><path style="opacity:1" fill="#c7b161" d="M 126.5,58.5 C 130.634,57.5151 134.968,57.1818 139.5,57.5C 141.292,57.366 142.958,57.6993 144.5,58.5C 146.604,59.9117 148.937,60.9117 151.5,61.5C 151.5,68.5 151.5,75.5 151.5,82.5C 151.5,84.8333 151.5,87.1667 151.5,89.5C 150.833,104.833 150.167,120.167 149.5,135.5C 149.5,125.5 149.5,115.5 149.5,105.5C 149.5,102.167 149.5,98.8333 149.5,95.5C 149.98,84.0461 149.314,72.7127 147.5,61.5C 145.335,61.8841 143.668,61.2174 142.5,59.5C 137.208,58.5052 131.875,58.1718 126.5,58.5 Z"/></g>
<g><path style="opacity:1" fill="#d3be6a" d="M 83.5,61.5 C 81.2177,64.1042 79.8843,67.1042 79.5,70.5C 77.0968,70.393 75.2635,71.393 74,73.5C 74.266,76.9008 72.766,78.5674 69.5,78.5C 71.9739,71.0262 76.6406,65.3596 83.5,61.5 Z"/></g>
<g><path style="opacity:0.523" fill="#e7e7e7" d="M 281.5,157.5 C 276.078,134.656 265.911,114.322 251,96.5C 233.672,77.7424 212.172,66.0758 186.5,61.5C 187.134,60.0532 188.301,59.3866 190,59.5C 222.701,66.4338 247.868,84.1005 265.5,112.5C 271.262,122.884 276.428,133.55 281,144.5C 281.912,147.982 282.745,151.482 283.5,155C 283.316,156.376 282.649,157.209 281.5,157.5 Z"/></g>
<g><path style="opacity:0.769" fill="#777777" d="M 152.5,60.5 C 154.463,67.4238 155.13,74.7572 154.5,82.5C 153.509,76.021 153.176,69.3543 153.5,62.5C 153.167,61.8333 152.833,61.1667 152.5,60.5 Z"/></g>
<g><path style="opacity:1" fill="#0b0908" d="M 153.5,62.5 C 153.176,69.3543 153.509,76.021 154.5,82.5C 155.427,170.162 155.76,257.829 155.5,345.5C 155.161,348.669 153.495,350.836 150.5,352C 142.5,352.667 134.5,352.667 126.5,352C 123.69,351.218 121.023,350.384 118.5,349.5C 116.898,347.926 114.898,347.259 112.5,347.5C 106.617,344.613 102.951,339.946 101.5,333.5C 101.5,331.5 101.5,329.5 101.5,327.5C 100.892,322.056 101.558,317.056 103.5,312.5C 103.5,313.167 103.5,313.833 103.5,314.5C 103.652,320.699 104.318,326.699 105.5,332.5C 106.718,336.383 109.051,339.383 112.5,341.5C 115.37,343.794 118.703,345.128 122.5,345.5C 123.263,346.268 124.263,346.768 125.5,347C 132.679,347.821 139.679,347.655 146.5,346.5C 147.609,346.443 148.609,346.11 149.5,345.5C 150.336,260.333 151.003,174.999 151.5,89.5C 151.5,87.1667 151.5,84.8333 151.5,82.5C 152.167,75.8333 152.833,69.1667 153.5,62.5 Z"/></g>
<g><path style="opacity:1" fill="#564a25" d="M 64.5,87.5 C 64.127,95.3715 65.127,103.038 67.5,110.5C 66.2101,109.942 65.3768,108.942 65,107.5C 63.5066,100.699 63.3399,94.0322 64.5,87.5 Z"/></g>
<g><path style="opacity:0.02" fill="#e5e6e5" d="M 58.5,87.5 C 58.6646,90.5184 58.498,93.5184 58,96.5C 56.9887,97.3366 55.8221,97.67 54.5,97.5C 55.8889,94.7207 56.7222,91.7207 57,88.5C 57.3826,87.944 57.8826,87.6107 58.5,87.5 Z"/></g>
<g><path style="opacity:0.176" fill="#c4c3c3" d="M 53.5,97.5 C 50.5113,99.6611 47.178,101.328 43.5,102.5C 43.3691,101.624 43.7025,100.957 44.5,100.5C 47.4271,99.199 50.4271,98.199 53.5,97.5 Z"/></g>
<g><path style="opacity:0.055" fill="#c4c4c4" d="M 42.5,102.5 C 37.1186,107.215 32.1186,112.215 27.5,117.5C 27.9617,115.243 28.9617,113.243 30.5,111.5C 32.8333,109.833 34.8333,107.833 36.5,105.5C 38.5336,104.441 40.5336,103.441 42.5,102.5 Z"/></g>
<g><path style="opacity:1" fill="#f4d669" d="M 58.5,101.5 C 58.5,102.167 58.5,102.833 58.5,103.5C 59.4304,107.586 60.5971,111.586 62,115.5C 63.4264,117.766 65.2598,119.432 67.5,120.5C 69.1006,126.432 72.7672,130.432 78.5,132.5C 80.7488,133.08 82.4154,134.413 83.5,136.5C 83.7869,138.121 84.7869,139.121 86.5,139.5C 87.4519,141.045 87.7852,142.712 87.5,144.5C 86.8902,145.391 86.5569,146.391 86.5,147.5C 83.9558,148.708 82.6225,150.708 82.5,153.5C 82.5,154.167 82.5,154.833 82.5,155.5C 80.5516,157.32 79.5516,159.654 79.5,162.5C 77.5864,165.684 76.9197,169.351 77.5,173.5C 70.4921,173.666 63.4921,173.5 56.5,173C 52.6225,171.631 48.6225,170.798 44.5,170.5C 41.5271,168.194 38.8605,165.527 36.5,162.5C 34.8879,159.172 33.5546,155.672 32.5,152C 32.1639,150.97 31.4972,150.47 30.5,150.5C 30.5,150.167 30.5,149.833 30.5,149.5C 29.1667,140.833 29.1667,132.167 30.5,123.5C 31.1667,123.5 31.5,123.167 31.5,122.5C 32.3764,122.631 33.0431,122.298 33.5,121.5C 35.1248,117.89 37.1248,114.557 39.5,111.5C 43.624,111.369 46.2907,109.369 47.5,105.5C 51.1667,104.167 54.8333,102.833 58.5,101.5 Z"/></g>
<g><path style="opacity:1" fill="#17130d" d="M 106.5,53.5 C 110.061,54.8632 113.561,56.5299 117,58.5C 117.765,58.4301 118.265,58.0967 118.5,57.5C 127.321,53.8468 136.321,53.5135 145.5,56.5C 145.672,57.4916 145.338,58.1583 144.5,58.5C 142.958,57.6993 141.292,57.366 139.5,57.5C 135.019,56.3516 130.352,56.1849 125.5,57C 123.68,57.2004 122.347,58.0337 121.5,59.5C 119.712,59.9705 117.878,60.3038 116,60.5C 112.196,59.3458 108.363,58.3458 104.5,57.5C 100.354,56.353 96.0204,56.1864 91.5,57C 88.7187,57.5218 86.3854,58.6885 84.5,60.5C 83.8333,60.5 83.5,60.8333 83.5,61.5C 76.6406,65.3596 71.9739,71.0262 69.5,78.5C 68.5416,78.9528 67.7083,79.6195 67,80.5C 66.6097,83.1042 65.7763,85.4375 64.5,87.5C 63.3399,94.0322 63.5066,100.699 65,107.5C 65.3768,108.942 66.2101,109.942 67.5,110.5C 67.8333,111.833 68.1667,113.167 68.5,114.5C 68.7148,116.179 68.0481,117.179 66.5,117.5C 63.6391,112.886 60.9724,108.219 58.5,103.5C 58.5,102.833 58.5,102.167 58.5,101.5C 57.0536,100.387 55.3869,100.22 53.5,101C 50.9861,101.881 48.9861,103.381 47.5,105.5C 44.0393,106.551 41.3727,108.551 39.5,111.5C 35.2933,114.041 32.6266,117.708 31.5,122.5C 31.5,123.167 31.1667,123.5 30.5,123.5C 29.7321,124.263 29.2321,125.263 29,126.5C 28.3333,133.5 28.3333,140.5 29,147.5C 29.2784,148.416 29.7784,149.082 30.5,149.5C 30.5,149.833 30.5,150.167 30.5,150.5C 31.225,155.201 33.225,159.201 36.5,162.5C 38.8605,165.527 41.5271,168.194 44.5,170.5C 46.9296,172.381 49.5962,173.715 52.5,174.5C 56.8962,176.033 61.5629,176.7 66.5,176.5C 70.0175,176.498 73.3509,176.165 76.5,175.5C 76.8333,175.5 77.1667,175.5 77.5,175.5C 78.5,175.5 79.5,175.5 80.5,175.5C 80.0643,168.683 80.7309,162.016 82.5,155.5C 82.5,154.833 82.5,154.167 82.5,153.5C 84.2181,151.777 85.5514,149.777 86.5,147.5C 86.5569,146.391 86.8902,145.391 87.5,144.5C 87.8333,144.5 88.1667,144.5 88.5,144.5C 89.1174,144.389 89.6174,144.056 90,143.5C 90.49,144.793 90.6567,146.127 90.5,147.5C 89.5655,148.568 89.2322,149.901 89.5,151.5C 88.7321,152.263 88.2321,153.263 88,154.5C 87.2024,163.213 87.5357,171.88 89,180.5C 89.3826,181.056 89.8826,181.389 90.5,181.5C 93.015,187.348 96.6817,192.348 101.5,196.5C 101.611,197.117 101.944,197.617 102.5,198C 100.833,198.667 99.1667,198.667 97.5,198C 94.3134,195.315 90.9801,192.815 87.5,190.5C 86.5638,187.329 84.8971,184.662 82.5,182.5C 82.7135,180.856 82.3802,179.356 81.5,178C 77.9292,177.552 74.5959,178.052 71.5,179.5C 63.7031,179.925 56.0365,179.258 48.5,177.5C 46.4336,175.801 44.1003,174.468 41.5,173.5C 39.6675,172.752 38.0009,171.752 36.5,170.5C 32.2496,165.011 28.9163,165.678 26.5,172.5C 24.1,174.296 22.4333,176.63 21.5,179.5C 19.6885,181.385 18.5218,183.719 18,186.5C 17.1881,190.689 17.3547,194.689 18.5,198.5C 18.3379,200.527 18.5045,202.527 19,204.5C 19.3826,205.056 19.8826,205.389 20.5,205.5C 22.3387,210.34 25.0054,214.673 28.5,218.5C 33.5735,225.365 40.2402,229.698 48.5,231.5C 55.9227,233.255 63.5894,233.921 71.5,233.5C 74.0593,233.198 76.3926,233.532 78.5,234.5C 75.2722,235.546 71.9389,236.212 68.5,236.5C 62.7969,236.625 57.1302,236.292 51.5,235.5C 49.7768,234.193 47.9435,234.193 46,235.5C 45.7216,234.584 45.2216,233.918 44.5,233.5C 42.1944,233.007 39.861,232.674 37.5,232.5C 35.7334,230.11 33.4001,228.443 30.5,227.5C 28.1395,224.473 25.4729,221.806 22.5,219.5C 21.6167,216.296 19.9501,213.629 17.5,211.5C 13.5,200.5 13.5,189.5 17.5,178.5C 21.0592,173.432 25.2259,168.766 30,164.5C 30.6052,161.797 29.7719,159.797 27.5,158.5C 26.8699,154.952 25.8699,151.619 24.5,148.5C 24.5,141.5 24.5,134.5 24.5,127.5C 25.5,124.167 26.5,120.833 27.5,117.5C 32.1186,112.215 37.1186,107.215 42.5,102.5C 42.8333,102.5 43.1667,102.5 43.5,102.5C 47.178,101.328 50.5113,99.6611 53.5,97.5C 53.8333,97.5 54.1667,97.5 54.5,97.5C 55.8221,97.67 56.9887,97.3366 58,96.5C 58.498,93.5184 58.6646,90.5184 58.5,87.5C 58.5,86.8333 58.5,86.1667 58.5,85.5C 60.8479,78.872 64.0145,72.5387 68,66.5C 72.7248,59.9154 78.8915,55.5821 86.5,53.5C 93.1613,52.2263 99.8279,52.2263 106.5,53.5 Z"/></g>
<g><path style="opacity:1" fill="#bea861" d="M 47.5,105.5 C 46.2907,109.369 43.624,111.369 39.5,111.5C 41.3727,108.551 44.0393,106.551 47.5,105.5 Z"/></g>
<g><path style="opacity:1" fill="#bca963" d="M 58.5,101.5 C 54.8333,102.833 51.1667,104.167 47.5,105.5C 48.9861,103.381 50.9861,101.881 53.5,101C 55.3869,100.22 57.0536,100.387 58.5,101.5 Z"/></g>
<g><path style="opacity:1" fill="#75673a" d="M 104.5,57.5 C 100.298,57.1832 96.2984,57.5166 92.5,58.5C 89.779,58.9628 87.1123,59.6295 84.5,60.5C 86.3854,58.6885 88.7187,57.5218 91.5,57C 96.0204,56.1864 100.354,56.353 104.5,57.5 Z"/></g>
<g><path style="opacity:1" fill="#bdaa61" d="M 58.5,103.5 C 60.9724,108.219 63.6391,112.886 66.5,117.5C 67.1098,118.391 67.4431,119.391 67.5,120.5C 65.2598,119.432 63.4264,117.766 62,115.5C 60.5971,111.586 59.4304,107.586 58.5,103.5 Z"/></g>
<g><path style="opacity:1" fill="#8b7e3f" d="M 67.5,110.5 C 69.4077,111.486 70.4077,113.152 70.5,115.5C 69.8333,115.167 69.1667,114.833 68.5,114.5C 68.1667,113.167 67.8333,111.833 67.5,110.5 Z"/></g>
<g><path style="opacity:0.018" fill="#d7d7d7" d="M 27.5,117.5 C 26.5,120.833 25.5,124.167 24.5,127.5C 24.1667,127.5 23.8333,127.5 23.5,127.5C 23.6785,124.784 24.1785,122.117 25,119.5C 25.4169,118.244 26.2502,117.577 27.5,117.5 Z"/></g>
<g><path style="opacity:1" fill="#231a0c" d="M 68.5,114.5 C 69.1667,114.833 69.8333,115.167 70.5,115.5C 73.0986,120.428 76.432,124.761 80.5,128.5C 81.8121,130.479 83.4788,132.145 85.5,133.5C 86.3857,134.325 86.719,135.325 86.5,136.5C 85.5,136.5 84.5,136.5 83.5,136.5C 82.4154,134.413 80.7488,133.08 78.5,132.5C 74.8616,128.526 71.1949,124.526 67.5,120.5C 67.4431,119.391 67.1098,118.391 66.5,117.5C 68.0481,117.179 68.7148,116.179 68.5,114.5 Z"/></g>
<g><path style="opacity:1" fill="#ae9d5d" d="M 39.5,111.5 C 37.1248,114.557 35.1248,117.89 33.5,121.5C 33.0431,122.298 32.3764,122.631 31.5,122.5C 32.6266,117.708 35.2933,114.041 39.5,111.5 Z"/></g>
<g><path style="opacity:1" fill="#c8b264" d="M 67.5,120.5 C 71.1949,124.526 74.8616,128.526 78.5,132.5C 72.7672,130.432 69.1006,126.432 67.5,120.5 Z"/></g>
<g><path style="opacity:0.896" fill="#fefefe" d="M 338.5,134.5 C 340.199,134.34 341.866,134.506 343.5,135C 352.725,145.967 362.058,156.8 371.5,167.5C 380.47,156.858 389.47,146.192 398.5,135.5C 401.903,133.813 404.736,134.48 407,137.5C 407.667,161.167 407.667,184.833 407,208.5C 403.667,211.167 400.333,211.167 397,208.5C 396.667,190.833 396.333,173.167 396,155.5C 388.978,163.688 382.144,172.021 375.5,180.5C 372.005,183.368 368.838,183.035 366,179.5C 359.667,171.5 353.333,163.5 347,155.5C 346.667,172.5 346.333,189.5 346,206.5C 344.368,210.212 341.535,211.379 337.5,210C 337,209.5 336.5,209 336,208.5C 334.355,185.588 334.021,162.588 335,139.5C 335.257,137.093 336.424,135.427 338.5,134.5 Z"/></g>
<g><path style="opacity:0.912" fill="#fefefe" d="M 428.5,134.5 C 444.17,134.333 459.837,134.5 475.5,135C 479.782,137.769 480.116,140.769 476.5,144C 463.171,144.5 449.837,144.667 436.5,144.5C 436.5,152.167 436.5,159.833 436.5,167.5C 446.839,167.334 457.172,167.5 467.5,168C 471.352,170.858 471.352,173.858 467.5,177C 457.172,177.5 446.839,177.666 436.5,177.5C 436.5,185.167 436.5,192.833 436.5,200.5C 449.504,200.333 462.504,200.5 475.5,201C 480.255,203.51 480.588,206.51 476.5,210C 460.167,210.667 443.833,210.667 427.5,210C 427,209.5 426.5,209 426,208.5C 424.365,185.563 424.031,162.563 425,139.5C 425.257,137.093 426.424,135.427 428.5,134.5 Z"/></g>
<g><path style="opacity:0.89" fill="#fefefe" d="M 494.5,134.5 C 498.025,134.346 500.859,135.679 503,138.5C 516.667,155.833 530.333,173.167 544,190.5C 544.333,172.5 544.667,154.5 545,136.5C 548.075,133.941 551.075,133.941 554,136.5C 555.148,148.575 555.648,160.741 555.5,173C 555.333,184.5 555.167,196 555,207.5C 551.59,212.556 547.923,212.556 544,207.5C 530.714,189.879 517.048,172.546 503,155.5C 502.667,172.5 502.333,189.5 502,206.5C 500.368,210.212 497.535,211.379 493.5,210C 493,209.5 492.5,209 492,208.5C 490.355,185.588 490.021,162.588 491,139.5C 491.257,137.093 492.424,135.427 494.5,134.5 Z"/></g>
<g><path style="opacity:0.869" fill="#fefefe" d="M 567.5,134.5 C 585.503,134.333 603.503,134.5 621.5,135C 625.692,137.239 626.359,140.239 623.5,144C 615.92,145.396 608.253,145.896 600.5,145.5C 600.667,165.836 600.5,186.169 600,206.5C 598.368,210.212 595.535,211.379 591.5,210C 590.107,208.829 589.273,207.329 589,205.5C 588.5,185.503 588.333,165.503 588.5,145.5C 581.053,145.929 573.719,145.429 566.5,144C 563.765,140.508 564.098,137.342 567.5,134.5 Z"/></g>
<g><path style="opacity:0.912" fill="#fefefe" d="M 637.5,134.5 C 653.17,134.333 668.837,134.5 684.5,135C 688.782,137.769 689.116,140.769 685.5,144C 672.171,144.5 658.837,144.667 645.5,144.5C 645.5,152.167 645.5,159.833 645.5,167.5C 655.839,167.334 666.172,167.5 676.5,168C 680.352,170.858 680.352,173.858 676.5,177C 666.172,177.5 655.839,177.666 645.5,177.5C 645.5,185.167 645.5,192.833 645.5,200.5C 658.504,200.333 671.504,200.5 684.5,201C 689.255,203.51 689.588,206.51 685.5,210C 669.167,210.667 652.833,210.667 636.5,210C 636,209.5 635.5,209 635,208.5C 633.365,185.563 633.031,162.563 634,139.5C 634.257,137.093 635.424,135.427 637.5,134.5 Z"/></g>
<g><path style="opacity:0.839" fill="#787776" d="M 23.5,127.5 C 23.8333,127.5 24.1667,127.5 24.5,127.5C 24.5,134.5 24.5,141.5 24.5,148.5C 24.1667,148.5 23.8333,148.5 23.5,148.5C 22.24,141.457 22.24,134.457 23.5,127.5 Z"/></g>
<g><path style="opacity:1" fill="#897740" d="M 30.5,123.5 C 29.1667,132.167 29.1667,140.833 30.5,149.5C 29.7784,149.082 29.2784,148.416 29,147.5C 28.3333,140.5 28.3333,133.5 29,126.5C 29.2321,125.263 29.7321,124.263 30.5,123.5 Z"/></g>
<g><path style="opacity:0.422" fill="#e7e7e7" d="M 205.5,103.5 C 208.947,103.814 212.28,104.648 215.5,106C 222.625,110.467 229.125,115.633 235,121.5C 235.93,124.362 237.597,126.695 240,128.5C 247.806,141.941 249.973,156.274 246.5,171.5C 245.167,171.5 243.833,171.5 242.5,171.5C 242.112,160.557 239.446,150.223 234.5,140.5C 226.952,128.378 217.785,117.711 207,108.5C 205.991,106.975 205.491,105.308 205.5,103.5 Z"/></g>
<g><path style="opacity:0.999" fill="#fbfbfb" d="M 211.5,108.5 C 212.251,107.427 213.251,107.26 214.5,108C 229.85,117.218 240.017,130.385 245,147.5C 245.667,153.5 245.667,159.5 245,165.5C 239.977,142.773 228.811,123.773 211.5,108.5 Z"/></g>
<g><path style="opacity:1" fill="#6d5625" d="M 90.5,147.5 C 90.6567,146.127 90.49,144.793 90,143.5C 89.6174,144.056 89.1174,144.389 88.5,144.5C 88.8212,142.952 89.8212,142.285 91.5,142.5C 91.7845,144.415 91.4511,146.081 90.5,147.5 Z"/></g>
<g><path style="opacity:1" fill="#b0a05f" d="M 30.5,150.5 C 31.4972,150.47 32.1639,150.97 32.5,152C 33.5546,155.672 34.8879,159.172 36.5,162.5C 33.225,159.201 31.225,155.201 30.5,150.5 Z"/></g>
<g><path style="opacity:1" fill="#a58f53" d="M 86.5,147.5 C 85.5514,149.777 84.2181,151.777 82.5,153.5C 82.6225,150.708 83.9558,148.708 86.5,147.5 Z"/></g>
<g><path style="opacity:0.078" fill="#d7d7d7" d="M 23.5,148.5 C 23.8333,148.5 24.1667,148.5 24.5,148.5C 25.8699,151.619 26.8699,154.952 27.5,158.5C 26.5028,158.53 25.8361,158.03 25.5,157C 24.5938,154.209 23.9272,151.376 23.5,148.5 Z"/></g>
<g><path style="opacity:1" fill="#e7cc6e" d="M 80.5,128.5 C 82.8458,129.523 85.1791,130.523 87.5,131.5C 86.3046,137.907 88.9713,140.907 95.5,140.5C 93.6653,145.213 92.1653,150.213 91,155.5C 90.5034,157.81 90.3367,160.143 90.5,162.5C 91.9778,162.238 93.3112,162.571 94.5,163.5C 93.5368,166.64 92.2035,169.973 90.5,173.5C 91.7741,176.367 92.6075,179.367 93,182.5C 94.4299,185.719 96.7632,188.052 100,189.5C 100.684,190.784 100.517,191.951 99.5,193C 100.823,193.816 101.489,194.983 101.5,196.5C 96.6817,192.348 93.015,187.348 90.5,181.5C 88.3189,171.57 87.9855,161.57 89.5,151.5C 89.2322,149.901 89.5655,148.568 90.5,147.5C 91.4511,146.081 91.7845,144.415 91.5,142.5C 89.8212,142.285 88.8212,142.952 88.5,144.5C 88.1667,144.5 87.8333,144.5 87.5,144.5C 87.7852,142.712 87.4519,141.045 86.5,139.5C 84.7869,139.121 83.7869,138.121 83.5,136.5C 84.5,136.5 85.5,136.5 86.5,136.5C 86.719,135.325 86.3857,134.325 85.5,133.5C 83.4788,132.145 81.8121,130.479 80.5,128.5 Z"/></g>
<g><path style="opacity:1" fill="#918247" d="M 82.5,155.5 C 80.7309,162.016 80.0643,168.683 80.5,175.5C 79.5,175.5 78.5,175.5 77.5,175.5C 79.3342,171.486 80.0008,167.153 79.5,162.5C 79.5516,159.654 80.5516,157.32 82.5,155.5 Z"/></g>
<g><path style="opacity:1" fill="#a49459" d="M 89.5,151.5 C 87.9855,161.57 88.3189,171.57 90.5,181.5C 89.8826,181.389 89.3826,181.056 89,180.5C 87.5357,171.88 87.2024,163.213 88,154.5C 88.2321,153.263 88.7321,152.263 89.5,151.5 Z"/></g>
<g><path style="opacity:1" fill="#a79953" d="M 36.5,170.5 C 34.9064,170.08 33.4064,169.414 32,168.5C 30.019,169.65 28.1857,170.984 26.5,172.5C 28.9163,165.678 32.2496,165.011 36.5,170.5 Z"/></g>
<g><path style="opacity:0.333" fill="#cdcccd" d="M 27.5,158.5 C 29.7719,159.797 30.6052,161.797 30,164.5C 25.2259,168.766 21.0592,173.432 17.5,178.5C 19.3093,172.534 22.8093,167.867 28,164.5C 28.4901,162.455 28.3235,160.455 27.5,158.5 Z"/></g>
<g><path style="opacity:1" fill="#e0c872" d="M 79.5,162.5 C 80.0008,167.153 79.3342,171.486 77.5,175.5C 77.1667,175.5 76.8333,175.5 76.5,175.5C 68.4827,175.499 60.4827,175.166 52.5,174.5C 49.5962,173.715 46.9296,172.381 44.5,170.5C 48.6225,170.798 52.6225,171.631 56.5,173C 63.4921,173.5 70.4921,173.666 77.5,173.5C 76.9197,169.351 77.5864,165.684 79.5,162.5 Z"/></g>
<g><path style="opacity:1" fill="#65572d" d="M 41.5,173.5 C 44.1003,174.468 46.4336,175.801 48.5,177.5C 45.4542,177.275 43.1209,175.942 41.5,173.5 Z"/></g>
<g><path style="opacity:1" fill="#6d5f37" d="M 52.5,174.5 C 60.4827,175.166 68.4827,175.499 76.5,175.5C 73.3509,176.165 70.0175,176.498 66.5,176.5C 61.5629,176.7 56.8962,176.033 52.5,174.5 Z"/></g>
<g><path style="opacity:1" fill="#a19152" d="M 82.5,182.5 C 81.7326,181.828 81.0659,180.995 80.5,180C 77.5184,179.502 74.5184,179.335 71.5,179.5C 74.5959,178.052 77.9292,177.552 81.5,178C 82.3802,179.356 82.7135,180.856 82.5,182.5 Z"/></g>
<g><path style="opacity:1" fill="#a1914d" d="M 48.5,177.5 C 56.0365,179.258 63.7031,179.925 71.5,179.5C 65.6812,180.653 59.6812,180.819 53.5,180C 51.3474,179.901 49.6808,179.067 48.5,177.5 Z"/></g>
<g><path style="opacity:1" fill="#e8ce6e" d="M 36.5,170.5 C 38.0009,171.752 39.6675,172.752 41.5,173.5C 43.1209,175.942 45.4542,177.275 48.5,177.5C 49.6808,179.067 51.3474,179.901 53.5,180C 59.6812,180.819 65.6812,180.653 71.5,179.5C 74.5184,179.335 77.5184,179.502 80.5,180C 81.0659,180.995 81.7326,181.828 82.5,182.5C 83.4362,185.671 85.1029,188.338 87.5,190.5C 90.9801,192.815 94.3134,195.315 97.5,198C 99.1667,198.667 100.833,198.667 102.5,198C 101.944,197.617 101.611,197.117 101.5,196.5C 103.256,197.552 103.923,199.219 103.5,201.5C 101.409,201.682 99.4086,201.348 97.5,200.5C 95.8211,202.104 93.8211,202.771 91.5,202.5C 91.3573,200.738 91.6906,199.071 92.5,197.5C 91.3717,196.738 90.2051,196.071 89,195.5C 86.4542,192.616 84.2875,189.449 82.5,186C 80.9559,185.71 79.6226,185.044 78.5,184C 79.8333,183.333 79.8333,182.667 78.5,182C 69.1667,181.667 59.8333,181.333 50.5,181C 48.1467,179.036 45.6467,178.536 43,179.5C 39.3696,177.578 37.2029,174.578 36.5,170.5 Z"/></g>
<g><path style="opacity:1" fill="#f0d46d" d="M 149.5,95.5 C 149.5,98.8333 149.5,102.167 149.5,105.5C 148.669,118.994 148.169,132.661 148,146.5C 147.5,212.832 147.333,279.166 147.5,345.5C 140.5,345.5 133.5,345.5 126.5,345.5C 125.5,345.5 124.5,345.5 123.5,345.5C 120.2,343.358 116.533,342.025 112.5,341.5C 109.051,339.383 106.718,336.383 105.5,332.5C 105.5,328.833 105.5,325.167 105.5,321.5C 105.397,315.139 104.897,308.806 104,302.5C 103.617,301.944 103.117,301.611 102.5,301.5C 101.612,298.946 101.279,296.279 101.5,293.5C 101.5,291.833 101.5,290.167 101.5,288.5C 103.216,288.371 104.883,288.038 106.5,287.5C 105.713,289.104 104.38,289.771 102.5,289.5C 102.34,291.199 102.506,292.866 103,294.5C 103.333,294.167 103.667,293.833 104,293.5C 104.318,295.061 105.151,296.228 106.5,297C 104.145,298.865 103.978,301.031 106,303.5C 107.011,302.663 108.178,302.33 109.5,302.5C 109.688,304.103 109.188,305.437 108,306.5C 106.332,303.79 105.499,303.957 105.5,307C 105.499,310.043 106.332,310.21 108,307.5C 107.6,315.441 107.433,323.441 107.5,331.5C 110.276,331.089 110.943,331.922 109.5,334C 111.388,335.394 112.721,337.227 113.5,339.5C 115.765,340.647 118.098,340.814 120.5,340C 121.653,338.117 123.319,337.284 125.5,337.5C 125.5,338.833 125.5,340.167 125.5,341.5C 124.448,341.351 123.448,341.517 122.5,342C 130.459,343.164 138.459,343.664 146.5,343.5C 146.333,266.833 146.5,190.166 147,113.5C 147.333,108.5 147.667,103.5 148,98.5C 148.232,97.2625 148.732,96.2625 149.5,95.5 Z"/></g>
<g><path style="opacity:1" fill="#463b1e" d="M 151.5,89.5 C 151.003,174.999 150.336,260.333 149.5,345.5C 149.5,275.5 149.5,205.5 149.5,135.5C 150.167,120.167 150.833,104.833 151.5,89.5 Z"/></g>
<g><path style="opacity:1" fill="#94874d" d="M 82.5,182.5 C 84.8971,184.662 86.5638,187.329 87.5,190.5C 85.1029,188.338 83.4362,185.671 82.5,182.5 Z"/></g>
<g><path style="opacity:1" fill="#7a6e42" d="M 21.5,179.5 C 19.007,185.571 18.007,191.905 18.5,198.5C 17.3547,194.689 17.1881,190.689 18,186.5C 18.5218,183.719 19.6885,181.385 21.5,179.5 Z"/></g>
<g><path style="opacity:1" fill="#e9ce6e" d="M 26.5,172.5 C 26.4487,175.541 25.4487,178.208 23.5,180.5C 24.8554,183.447 23.8554,185.114 20.5,185.5C 20.3342,190.179 20.5008,194.845 21,199.5C 21.414,199.043 21.914,198.709 22.5,198.5C 23.3236,195.215 23.8236,191.882 24,188.5C 24.414,188.043 24.914,187.709 25.5,187.5C 27.2866,193.875 26.6199,199.875 23.5,205.5C 24.3764,210.234 26.0431,214.567 28.5,218.5C 25.0054,214.673 22.3387,210.34 20.5,205.5C 20.0733,202.99 19.4067,200.657 18.5,198.5C 18.007,191.905 19.007,185.571 21.5,179.5C 22.4333,176.63 24.1,174.296 26.5,172.5 Z"/></g>
<g><path style="opacity:1" fill="#8a7b40" d="M 18.5,198.5 C 19.4067,200.657 20.0733,202.99 20.5,205.5C 19.8826,205.389 19.3826,205.056 19,204.5C 18.5045,202.527 18.3379,200.527 18.5,198.5 Z"/></g>
<g><path style="opacity:0.204" fill="#c5c5c6" d="M 17.5,178.5 C 13.5,189.5 13.5,200.5 17.5,211.5C 16.2502,211.423 15.4169,210.756 15,209.5C 12.5765,201.222 12.2431,192.888 14,184.5C 14.353,181.848 15.5197,179.848 17.5,178.5 Z"/></g>
<g><path style="opacity:0.306" fill="#d0d1d2" d="M 17.5,211.5 C 19.9501,213.629 21.6167,216.296 22.5,219.5C 21.6236,219.631 20.9569,219.298 20.5,218.5C 18.9802,216.338 17.9802,214.005 17.5,211.5 Z"/></g>
<g><path style="opacity:0.067" fill="#dfdfe0" d="M 22.5,219.5 C 25.4729,221.806 28.1395,224.473 30.5,227.5C 26.1667,226.5 23.5,223.833 22.5,219.5 Z"/></g>
<g><path style="opacity:1" fill="#dec66f" d="M 55.5,237.5 C 60.0323,237.818 64.3656,237.485 68.5,236.5C 71.9389,236.212 75.2722,235.546 78.5,234.5C 84.104,234.453 89.104,232.787 93.5,229.5C 90.4376,228.674 87.4376,229.007 84.5,230.5C 83.8333,230.5 83.1667,230.5 82.5,230.5C 84.0261,228.87 86.0261,228.037 88.5,228C 90.8333,227.333 93.1667,227.333 95.5,228C 96.8333,229.667 96.8333,231.333 95.5,233C 88.9263,233.548 82.593,235.048 76.5,237.5C 69.344,238.819 62.344,238.819 55.5,237.5 Z"/></g>
<g><path style="opacity:0.118" fill="#e2e2e2" d="M 30.5,227.5 C 33.4001,228.443 35.7334,230.11 37.5,232.5C 35.1667,231.833 32.8333,231.167 30.5,230.5C 30.5,229.5 30.5,228.5 30.5,227.5 Z"/></g>
<g><path style="opacity:0.54" fill="#ececec" d="M 242.5,199.5 C 243.833,199.5 245.167,199.5 246.5,199.5C 247.56,215.052 241.56,226.718 228.5,234.5C 227.09,234.132 226.09,233.299 225.5,232C 233.334,222.355 239.001,211.522 242.5,199.5 Z"/></g>
<g><path style="opacity:1" fill="#e0c870" d="M 28.5,218.5 C 32.3909,218.894 35.3909,220.727 37.5,224C 40.5703,226.099 43.9037,227.765 47.5,229C 58.4514,230.35 69.4514,230.85 80.5,230.5C 78.5,231.167 76.5,231.833 74.5,232.5C 73.5,232.5 72.5,232.5 71.5,232.5C 63.8166,232.477 56.1499,232.143 48.5,231.5C 40.2402,229.698 33.5735,225.365 28.5,218.5 Z"/></g>
<g><path style="opacity:1" fill="#83723c" d="M 80.5,230.5 C 81.1667,230.5 81.8333,230.5 82.5,230.5C 83.1667,230.5 83.8333,230.5 84.5,230.5C 81.4928,232.175 78.1595,232.841 74.5,232.5C 76.5,231.833 78.5,231.167 80.5,230.5 Z"/></g>
<g><path style="opacity:1" fill="#807340" d="M 48.5,231.5 C 56.1499,232.143 63.8166,232.477 71.5,232.5C 71.5,232.833 71.5,233.167 71.5,233.5C 63.5894,233.921 55.9227,233.255 48.5,231.5 Z"/></g>
<g><path style="opacity:1" fill="#2d210e" d="M 78.5,234.5 C 76.3926,233.532 74.0593,233.198 71.5,233.5C 71.5,233.167 71.5,232.833 71.5,232.5C 72.5,232.5 73.5,232.5 74.5,232.5C 78.1595,232.841 81.4928,232.175 84.5,230.5C 87.4376,229.007 90.4376,228.674 93.5,229.5C 89.104,232.787 84.104,234.453 78.5,234.5 Z"/></g>
<g><path style="opacity:0.145" fill="#e1e1e2" d="M 37.5,232.5 C 39.861,232.674 42.1944,233.007 44.5,233.5C 44.1667,235.5 43.8333,237.5 43.5,239.5C 43.1667,239.5 42.8333,239.5 42.5,239.5C 42.762,238.022 42.4287,236.689 41.5,235.5C 39.739,234.965 38.4057,233.965 37.5,232.5 Z"/></g>
<g><path style="opacity:1" fill="#3a3021" d="M 44.5,233.5 C 45.2216,233.918 45.7216,234.584 46,235.5C 47.9435,234.193 49.7768,234.193 51.5,235.5C 49.901,235.232 48.5676,235.566 47.5,236.5C 46.5128,241.305 46.1795,246.305 46.5,251.5C 45.6745,247.018 45.1745,242.351 45,237.5C 44.7216,238.416 44.2216,239.082 43.5,239.5C 43.8333,237.5 44.1667,235.5 44.5,233.5 Z"/></g>
<g><path style="opacity:1" fill="#81733f" d="M 47.5,236.5 C 48.5676,235.566 49.901,235.232 51.5,235.5C 57.1302,236.292 62.7969,236.625 68.5,236.5C 64.3656,237.485 60.0323,237.818 55.5,237.5C 54.8333,237.5 54.1667,237.5 53.5,237.5C 51.7354,236.539 49.7354,236.205 47.5,236.5 Z"/></g>
<g><path style="opacity:1" fill="#c4af67" d="M 47.5,236.5 C 49.7354,236.205 51.7354,236.539 53.5,237.5C 51.8333,237.5 50.1667,237.5 48.5,237.5C 47.2253,246.545 47.5587,255.545 49.5,264.5C 47.7402,260.453 46.7402,256.12 46.5,251.5C 46.1795,246.305 46.5128,241.305 47.5,236.5 Z"/></g>
<g><path style="opacity:0.895" fill="#fefefe" d="M 356.5,239.5 C 366.813,238.322 375.647,241.322 383,248.5C 385.853,253.625 384.52,256.959 379,258.5C 375.333,256.167 371.667,253.833 368,251.5C 358.947,248.119 352.78,250.786 349.5,259.5C 350.498,263.005 352.498,265.838 355.5,268C 362.833,271.333 370.167,274.667 377.5,278C 387.319,284.46 390.152,293.293 386,304.5C 382.256,310.901 376.756,315.068 369.5,317C 359.776,318.838 350.776,317.171 342.5,312C 337.744,308.611 335.91,304.111 337,298.5C 339.299,296.464 341.799,296.131 344.5,297.5C 351.545,307.011 360.545,309.511 371.5,305C 377.574,299.591 377.907,293.925 372.5,288C 364.046,284.186 355.712,280.186 347.5,276C 335.537,264.909 335.537,253.909 347.5,243C 350.571,241.704 353.571,240.538 356.5,239.5 Z"/></g>
<g><path style="opacity:0.92" fill="#fefefe" d="M 405.5,240.5 C 410.029,240.496 413.529,242.496 416,246.5C 423.289,256.124 430.955,265.458 439,274.5C 447.808,263.057 456.975,251.891 466.5,241C 469.14,240.161 471.473,240.661 473.5,242.5C 474.656,266.457 474.823,290.457 474,314.5C 471.503,316.478 468.669,316.978 465.5,316C 464.874,315.25 464.374,314.416 464,313.5C 463.667,296.167 463.333,278.833 463,261.5C 456.286,269.212 449.953,277.212 444,285.5C 441.029,289.092 437.696,289.425 434,286.5C 427.713,277.878 421.047,269.545 414,261.5C 413.667,278.833 413.333,296.167 413,313.5C 412.242,315.91 410.575,316.91 408,316.5C 405.966,316.646 404.299,315.98 403,314.5C 402.333,290.833 402.333,267.167 403,243.5C 403.698,242.309 404.531,241.309 405.5,240.5 Z"/></g>
<g><path style="opacity:0.909" fill="#fefefe" d="M 516.5,240.5 C 519.272,240.22 521.772,240.887 524,242.5C 533.528,264.084 542.861,285.751 552,307.5C 553.648,315.187 550.814,318.021 543.5,316C 540.808,311.089 538.808,305.923 537.5,300.5C 525.495,300.333 513.495,300.5 501.5,301C 499.546,306.205 497.213,311.205 494.5,316C 487.51,318.005 484.676,315.505 486,308.5C 495,287.167 504,265.833 513,244.5C 514.376,243.295 515.542,241.962 516.5,240.5 Z M 518.5,257.5 C 523.718,267.783 528.385,278.449 532.5,289.5C 523.518,290.665 514.518,290.832 505.5,290C 510.252,279.329 514.586,268.496 518.5,257.5 Z"/></g>
<g><path style="opacity:0.911" fill="#fefefe" d="M 566.5,240.5 C 576.172,240.334 585.839,240.5 595.5,241C 616.589,247.347 623.089,260.847 615,281.5C 611.958,284.711 608.791,287.711 605.5,290.5C 610.194,296.694 614.694,303.028 619,309.5C 620.252,313.926 618.586,316.592 614,317.5C 612.365,317.122 610.865,316.456 609.5,315.5C 604.288,308.244 598.955,301.077 593.5,294C 587.175,293.5 580.842,293.334 574.5,293.5C 574.666,300.508 574.5,307.508 574,314.5C 570.337,317.333 567.004,317 564,313.5C 563.333,290.5 563.333,267.5 564,244.5C 564.662,243.016 565.496,241.683 566.5,240.5 Z M 574.5,250.5 C 579.844,250.334 585.177,250.501 590.5,251C 605.275,253.391 610.108,261.558 605,275.5C 603.127,277.709 600.96,279.542 598.5,281C 590.585,282.401 582.585,282.901 574.5,282.5C 574.5,271.833 574.5,261.167 574.5,250.5 Z"/></g>
<g><path style="opacity:0.908" fill="#fefefe" d="M 627.5,240.5 C 645.503,240.333 663.503,240.5 681.5,241C 684.379,242.666 685.212,245.166 684,248.5C 683.097,249.701 681.931,250.535 680.5,251C 673.508,251.5 666.508,251.666 659.5,251.5C 659.667,272.503 659.5,293.503 659,314.5C 655.337,317.333 652.004,317 649,313.5C 648.5,292.836 648.333,272.169 648.5,251.5C 641.825,251.666 635.158,251.5 628.5,251C 622.234,247.945 621.9,244.445 627.5,240.5 Z"/></g>
<g><path style="opacity:1" fill="#d6bf68" d="M 127.5,259.5 C 127.5,255.833 127.5,252.167 127.5,248.5C 126.5,248.5 125.5,248.5 124.5,248.5C 124.795,250.735 124.461,252.735 123.5,254.5C 123.534,251.801 122.867,249.301 121.5,247C 122.449,246.383 123.282,246.549 124,247.5C 125.396,245.473 127.062,245.14 129,246.5C 129.939,251.136 129.439,255.469 127.5,259.5 Z"/></g>
<g><path style="opacity:0.388" fill="#e0e0e0" d="M 170.5,341.5 C 170.34,343.199 170.506,344.866 171,346.5C 172.947,347.11 174.781,347.943 176.5,349C 184.188,349.831 191.855,349.665 199.5,348.5C 203.034,347.212 206.367,345.546 209.5,343.5C 211.555,340.319 213.221,336.986 214.5,333.5C 216.847,335.03 217.014,337.03 215,339.5C 212.117,344.05 208.284,347.55 203.5,350C 192.833,352 182.167,352 171.5,350C 170.667,349.167 169.833,348.333 169,347.5C 167.908,329.191 167.408,310.858 167.5,292.5C 168.133,227.501 168.633,162.501 169,97.5C 169.167,179.001 169.667,260.334 170.5,341.5 Z"/></g>
<g><path style="opacity:1" fill="#372d18" d="M 127.5,259.5 C 126.935,261.42 125.935,263.087 124.5,264.5C 125.39,262.218 125.556,259.885 125,257.5C 124.292,258.381 123.458,259.047 122.5,259.5C 123.038,257.883 123.371,256.216 123.5,254.5C 124.461,252.735 124.795,250.735 124.5,248.5C 125.5,248.5 126.5,248.5 127.5,248.5C 127.5,252.167 127.5,255.833 127.5,259.5 Z"/></g>
<g><path style="opacity:0.506" fill="#e6e6e6" d="M 281.5,202.5 C 282.586,202.62 283.253,203.287 283.5,204.5C 278.354,223.455 269.521,240.455 257,255.5C 245.941,268.55 234.941,281.55 224,294.5C 220.548,305.564 218.548,316.898 218,328.5C 217.878,330.437 217.045,331.77 215.5,332.5C 216.024,319.884 217.857,307.551 221,295.5C 222.661,292.841 224.328,290.175 226,287.5C 239.878,272.313 252.878,256.647 265,240.5C 272.604,228.755 278.104,216.089 281.5,202.5 Z"/></g>
<g><path style="opacity:1" fill="#5c4b28" d="M 122.5,259.5 C 122.275,262.546 120.942,264.879 118.5,266.5C 119.468,263.9 120.801,261.566 122.5,259.5 Z"/></g>
<g><path style="opacity:1" fill="#d1bc6d" d="M 149.5,105.5 C 149.5,115.5 149.5,125.5 149.5,135.5C 149.5,205.5 149.5,275.5 149.5,345.5C 148.609,346.11 147.609,346.443 146.5,346.5C 139.646,346.824 132.979,346.491 126.5,345.5C 133.5,345.5 140.5,345.5 147.5,345.5C 147.333,279.166 147.5,212.832 148,146.5C 148.169,132.661 148.669,118.994 149.5,105.5 Z"/></g>
<g><path style="opacity:1" fill="#52431f" d="M 52.5,270.5 C 55.5,272.833 58.1667,275.5 60.5,278.5C 56.8333,276.833 54.1667,274.167 52.5,270.5 Z"/></g>
<g><path style="opacity:1" fill="#948245" d="M 122.5,269.5 C 120.967,273.704 118.3,277.037 114.5,279.5C 116.794,275.873 119.46,272.539 122.5,269.5 Z"/></g>
<g><path style="opacity:0.184" fill="#d1d2d2" d="M 42.5,239.5 C 39.8583,252.205 41.6916,264.205 48,275.5C 51.3955,279.065 54.8955,282.398 58.5,285.5C 58.9731,286.906 59.9731,287.573 61.5,287.5C 64.2558,289.204 67.2558,290.537 70.5,291.5C 71.5,292.167 72.5,292.833 73.5,293.5C 63.8257,291.989 55.659,287.656 49,280.5C 40.2366,268.547 37.57,255.214 41,240.5C 41.3826,239.944 41.8826,239.611 42.5,239.5 Z"/></g>
<g><path style="opacity:1" fill="#0e0b0a" d="M 46.5,251.5 C 46.7402,256.12 47.7402,260.453 49.5,264.5C 50.8698,266.25 51.8698,268.25 52.5,270.5C 54.1667,274.167 56.8333,276.833 60.5,278.5C 63.517,280.195 66.517,281.861 69.5,283.5C 75.609,286.508 81.9423,287.174 88.5,285.5C 90.5,285.5 92.5,285.5 94.5,285.5C 94.8308,287.322 95.4975,288.989 96.5,290.5C 93.5718,290.565 90.9052,291.232 88.5,292.5C 87.8333,292.5 87.1667,292.5 86.5,292.5C 81.1301,292.608 75.7968,292.275 70.5,291.5C 67.2558,290.537 64.2558,289.204 61.5,287.5C 61.0269,286.094 60.0269,285.427 58.5,285.5C 54.8955,282.398 51.3955,279.065 48,275.5C 41.6916,264.205 39.8583,252.205 42.5,239.5C 42.8333,239.5 43.1667,239.5 43.5,239.5C 44.2216,239.082 44.7216,238.416 45,237.5C 45.1745,242.351 45.6745,247.018 46.5,251.5 Z"/></g>
<g><path style="opacity:0.349" fill="#e6e6e6" d="M 283.5,221.5 C 281.341,227.824 278.508,233.824 275,239.5C 271.431,244.294 268.097,249.294 265,254.5C 252.1,269.06 239.6,283.894 227.5,299C 226.562,302.792 225.896,306.625 225.5,310.5C 224.075,313.903 223.242,317.57 223,321.5C 222.485,312.981 223.485,304.648 226,296.5C 238.313,281.913 250.646,267.247 263,252.5C 266.646,247.356 270.146,242.19 273.5,237C 275.86,230.488 278.86,224.321 282.5,218.5C 283.386,219.325 283.719,220.325 283.5,221.5 Z"/></g>
<g><path style="opacity:1" fill="#c9b46a" d="M 103.5,278.5 C 99.1018,282.185 94.1018,284.519 88.5,285.5C 84.2984,285.817 80.2984,285.483 76.5,284.5C 81.5658,284.66 86.5658,284.16 91.5,283C 95.3111,280.885 99.3111,279.385 103.5,278.5 Z"/></g>
<g><path style="opacity:1" fill="#18120a" d="M 124.5,264.5 C 123.559,266.05 122.893,267.716 122.5,269.5C 119.46,272.539 116.794,275.873 114.5,279.5C 111.911,280.419 109.911,282.086 108.5,284.5C 106.072,285.212 103.739,286.212 101.5,287.5C 100.207,289.636 100.207,291.636 101.5,293.5C 101.279,296.279 101.612,298.946 102.5,301.5C 103.244,305.119 103.577,308.785 103.5,312.5C 101.558,317.056 100.892,322.056 101.5,327.5C 100.514,323.03 100.181,318.363 100.5,313.5C 100.603,306.614 99.936,299.947 98.5,293.5C 98.6716,292.508 98.3382,291.842 97.5,291.5C 97.5,290.833 97.1667,290.5 96.5,290.5C 95.4975,288.989 94.8308,287.322 94.5,285.5C 92.5,285.5 90.5,285.5 88.5,285.5C 94.1018,284.519 99.1018,282.185 103.5,278.5C 109.126,275.199 114.126,271.199 118.5,266.5C 120.942,264.879 122.275,262.546 122.5,259.5C 123.458,259.047 124.292,258.381 125,257.5C 125.556,259.885 125.39,262.218 124.5,264.5 Z"/></g>
<g><path style="opacity:1" fill="#978748" d="M 114.5,279.5 C 113.089,281.914 111.089,283.581 108.5,284.5C 109.911,282.086 111.911,280.419 114.5,279.5 Z"/></g>
<g><path style="opacity:1" fill="#4a4122" d="M 69.5,283.5 C 71.861,283.674 74.1944,284.007 76.5,284.5C 80.2984,285.483 84.2984,285.817 88.5,285.5C 81.9423,287.174 75.609,286.508 69.5,283.5 Z"/></g>
<g><path style="opacity:0.769" fill="#5f5f5f" d="M 58.5,285.5 C 60.0269,285.427 61.0269,286.094 61.5,287.5C 59.9731,287.573 58.9731,286.906 58.5,285.5 Z"/></g>
<g><path style="opacity:1" fill="#9f8f52" d="M 108.5,284.5 C 108.218,285.778 107.551,286.778 106.5,287.5C 104.883,288.038 103.216,288.371 101.5,288.5C 101.5,290.167 101.5,291.833 101.5,293.5C 100.207,291.636 100.207,289.636 101.5,287.5C 103.739,286.212 106.072,285.212 108.5,284.5 Z"/></g>
<g><path style="opacity:0.525" fill="#8a8b8c" d="M 96.5,290.5 C 97.1667,290.5 97.5,290.833 97.5,291.5C 96.209,291.263 95.209,291.596 94.5,292.5C 92.5,292.5 90.5,292.5 88.5,292.5C 90.9052,291.232 93.5718,290.565 96.5,290.5 Z"/></g>
<g><path style="opacity:0.744" fill="#666866" d="M 70.5,291.5 C 75.7968,292.275 81.1301,292.608 86.5,292.5C 82.7016,293.483 78.7016,293.817 74.5,293.5C 74.1667,293.5 73.8333,293.5 73.5,293.5C 72.5,292.833 71.5,292.167 70.5,291.5 Z"/></g>
<g><path style="opacity:0.038" fill="#f8f9f8" d="M 86.5,292.5 C 87.1667,292.5 87.8333,292.5 88.5,292.5C 90.5,292.5 92.5,292.5 94.5,292.5C 90.2582,294.16 85.7582,295.16 81,295.5C 78.3897,295.467 76.223,294.8 74.5,293.5C 78.7016,293.817 82.7016,293.483 86.5,292.5 Z"/></g>
<g><path style="opacity:0.038" fill="#f1f1f1" d="M 94.5,292.5 C 95.209,291.596 96.209,291.263 97.5,291.5C 98.3382,291.842 98.6716,292.508 98.5,293.5C 98.5,296.5 98.5,299.5 98.5,302.5C 97.1667,299.167 95.8333,295.833 94.5,292.5 Z"/></g>
<g><path style="opacity:0.635" fill="#5d5a5d" d="M 98.5,293.5 C 99.936,299.947 100.603,306.614 100.5,313.5C 99.8333,310.167 99.1667,306.833 98.5,303.5C 98.5,303.167 98.5,302.833 98.5,302.5C 98.5,299.5 98.5,296.5 98.5,293.5 Z"/></g>
<g><path style="opacity:1" fill="#bfaa5f" d="M 102.5,301.5 C 103.117,301.611 103.617,301.944 104,302.5C 104.897,308.806 105.397,315.139 105.5,321.5C 104.833,319.167 104.167,316.833 103.5,314.5C 103.5,313.833 103.5,313.167 103.5,312.5C 103.577,308.785 103.244,305.119 102.5,301.5 Z"/></g>
<g><path style="opacity:0.221" fill="#e3e3e3" d="M 156.5,141.5 C 157.665,209.999 157.832,278.665 157,347.5C 156.315,350.057 154.815,351.891 152.5,353C 141.142,354.555 129.809,354.222 118.5,352C 116.563,351.878 115.23,351.045 114.5,349.5C 115.833,349.5 117.167,349.5 118.5,349.5C 121.023,350.384 123.69,351.218 126.5,352C 134.5,352.667 142.5,352.667 150.5,352C 153.495,350.836 155.161,348.669 155.5,345.5C 156.499,277.669 156.833,209.669 156.5,141.5 Z"/></g>
<g><path style="opacity:0.546" fill="#adadad" d="M 98.5,303.5 C 99.1667,306.833 99.8333,310.167 100.5,313.5C 100.181,318.363 100.514,323.03 101.5,327.5C 101.5,329.5 101.5,331.5 101.5,333.5C 100.833,332.5 100.167,331.5 99.5,330.5C 98.7817,321.518 98.4484,312.518 98.5,303.5 Z"/></g>
<g><path style="opacity:1" fill="#574826" d="M 103.5,314.5 C 104.167,316.833 104.833,319.167 105.5,321.5C 105.5,325.167 105.5,328.833 105.5,332.5C 104.318,326.699 103.652,320.699 103.5,314.5 Z"/></g>
<g><path style="opacity:0.133" fill="#d8d8d8" d="M 99.5,330.5 C 100.167,331.5 100.833,332.5 101.5,333.5C 102.951,339.946 106.617,344.613 112.5,347.5C 113.167,348.167 113.833,348.833 114.5,349.5C 112.692,349.509 111.025,349.009 109.5,348C 106.656,345.655 103.99,343.155 101.5,340.5C 99.9733,337.34 99.3067,334.007 99.5,330.5 Z"/></g>
<g><path style="opacity:1" fill="#8e7d46" d="M 112.5,341.5 C 116.533,342.025 120.2,343.358 123.5,345.5C 123.167,345.5 122.833,345.5 122.5,345.5C 118.703,345.128 115.37,343.794 112.5,341.5 Z"/></g>
<g><path style="opacity:1" fill="#473c1b" d="M 122.5,345.5 C 122.833,345.5 123.167,345.5 123.5,345.5C 124.5,345.5 125.5,345.5 126.5,345.5C 132.979,346.491 139.646,346.824 146.5,346.5C 139.679,347.655 132.679,347.821 125.5,347C 124.263,346.768 123.263,346.268 122.5,345.5 Z"/></g>
<g><path style="opacity:0.941" fill="#4d4d4f" d="M 112.5,347.5 C 114.898,347.259 116.898,347.926 118.5,349.5C 117.167,349.5 115.833,349.5 114.5,349.5C 113.833,348.833 113.167,348.167 112.5,347.5 Z"/></g>
<g><path style="opacity:0.068" fill="#e8e8e8" d="M 165.5,52.5 C 165.217,53.2891 164.717,53.9558 164,54.5C 163.833,94.6667 163.667,134.833 163.5,175C 163.141,232.191 163.974,289.358 166,346.5C 166.69,349.196 168.19,351.363 170.5,353C 181.146,354.666 191.813,354.999 202.5,354C 200.026,354.037 198.026,354.87 196.5,356.5C 187.441,356.846 178.441,356.346 169.5,355C 167.714,354.215 166.214,353.049 165,351.5C 163.541,347.822 162.708,343.988 162.5,340C 161.857,277.133 161.191,214.299 160.5,151.5C 160.173,118.574 160.507,85.5736 161.5,52.5C 162.833,52.5 164.167,52.5 165.5,52.5 Z"/></g>
<g><path style="opacity:0.994" fill="#f9f9f9" d="M 114.5,358.5 C 144.502,358.333 174.502,358.5 204.5,359C 209.984,364.344 209.317,368.678 202.5,372C 173.5,372.667 144.5,372.667 115.5,372C 107.869,368.044 107.535,363.544 114.5,358.5 Z"/></g>
<g><path style="opacity:0.911" fill="#eaeaea" d="M 207.5,379.5 C 206.883,379.611 206.383,379.944 206,380.5C 205.535,379.069 204.701,377.903 203.5,377C 173.664,376.832 143.997,376.332 114.5,375.5C 144.331,374.336 174.331,374.169 204.5,375C 206.141,376.129 207.141,377.629 207.5,379.5 Z"/></g>
<g><path style="opacity:0.933" fill="#fdfdfd" d="M 114.5,375.5 C 143.997,376.332 173.664,376.832 203.5,377C 204.701,377.903 205.535,379.069 206,380.5C 206.383,379.944 206.883,379.611 207.5,379.5C 208.425,382.888 207.425,385.722 204.5,388C 174.167,388.667 143.833,388.667 113.5,388C 108.027,383.236 108.36,379.069 114.5,375.5 Z"/></g>
<g><path style="opacity:0.943" fill="#fdfdfd" d="M 122.5,391.5 C 147.371,392.787 172.038,392.787 196.5,391.5C 195.944,397.335 194.277,402.835 191.5,408C 169.826,408.833 148.159,408.666 126.5,407.5C 124.059,402.228 122.726,396.895 122.5,391.5 Z"/></g>
</svg>
