<?xml version="1.0" encoding="UTF-8"?>
<!DOCTYPE svg PUBLIC "-//W3C//DTD SVG 1.1//EN" "http://www.w3.org/Graphics/SVG/1.1/DTD/svg11.dtd">
<svg xmlns="http://www.w3.org/2000/svg" version="1.1" width="1200px" height="500px" style="shape-rendering:geometricPrecision; text-rendering:geometricPrecision; image-rendering:optimizeQuality; fill-rule:evenodd; clip-rule:evenodd" xmlns:xlink="http://www.w3.org/1999/xlink">
<g><path style="opacity:0.373" fill="#9a9a9a" d="M 632.5,72.5 C 624.981,72.175 617.648,72.5084 610.5,73.5C 609.833,73.5 609.5,73.8333 609.5,74.5C 608.833,74.8333 608.167,75.1667 607.5,75.5C 607.36,73.8762 608.027,72.7096 609.5,72C 617.345,71.1777 625.011,71.3443 632.5,72.5 Z"/></g>
<g><path style="opacity:0.544" fill="#4b4b4b" d="M 610.5,73.5 C 617.648,72.5084 624.981,72.175 632.5,72.5C 635.609,72.2641 638.609,72.5975 641.5,73.5C 641.5,74.1667 641.5,74.8333 641.5,75.5C 631.256,73.7764 620.923,73.1097 610.5,73.5 Z"/></g>
<g><path style="opacity:0.999" fill="#121212" d="M 610.5,73.5 C 620.923,73.1097 631.256,73.7764 641.5,75.5C 645.79,76.4245 650.124,77.0912 654.5,77.5C 654.577,78.7498 655.244,79.5831 656.5,80C 659.521,80.8494 662.521,81.6827 665.5,82.5C 665.833,82.5 666.167,82.5 666.5,82.5C 668.665,85.462 671.665,87.1287 675.5,87.5C 675.967,90.2974 677.633,91.6308 680.5,91.5C 681.028,92.7206 681.695,93.8873 682.5,95C 688.627,98.6397 694.294,102.806 699.5,107.5C 700.651,111.493 702.985,114.493 706.5,116.5C 706.956,119.763 708.623,122.096 711.5,123.5C 711.554,125.632 712.554,126.965 714.5,127.5C 714.66,129.153 715.326,130.486 716.5,131.5C 718.772,136.8 721.105,142.133 723.5,147.5C 723.957,148.298 724.624,148.631 725.5,148.5C 725.402,150.553 726.069,152.22 727.5,153.5C 727.179,156.577 728.179,158.91 730.5,160.5C 730.171,163.228 730.837,165.562 732.5,167.5C 732.5,167.833 732.5,168.167 732.5,168.5C 732.216,170.415 732.549,172.081 733.5,173.5C 733.504,177.027 733.837,180.527 734.5,184C 734.608,185.681 735.275,186.848 736.5,187.5C 737.814,195.735 737.814,204.068 736.5,212.5C 733.759,222.503 730.759,232.503 727.5,242.5C 724.185,246.135 722.185,250.469 721.5,255.5C 720.357,255.908 719.357,256.575 718.5,257.5C 715.187,263.442 711.353,269.108 707,274.5C 706.517,275.448 706.351,276.448 706.5,277.5C 700.988,280.682 697.322,285.349 695.5,291.5C 689.495,295.174 684.828,300.174 681.5,306.5C 678.354,307.31 676.687,309.31 676.5,312.5C 672.007,315.946 670.007,320.613 670.5,326.5C 670.815,330.371 670.482,334.038 669.5,337.5C 667.532,341.017 666.532,345.017 666.5,349.5C 665.908,352.127 665.575,354.794 665.5,357.5C 664.262,359.214 663.595,361.214 663.5,363.5C 659.161,366.84 654.828,370.174 650.5,373.5C 642.191,374.288 633.858,374.621 625.5,374.5C 620.851,373.395 616.351,371.728 612,369.5C 610.776,364.614 610.109,359.614 610,354.5C 609.007,261.127 608.84,167.794 609.5,74.5C 609.5,73.8333 609.833,73.5 610.5,73.5 Z M 617.5,81.5 C 627.224,81.9879 636.891,82.9879 646.5,84.5C 646.833,84.5 647.167,84.5 647.5,84.5C 647.47,85.4972 647.97,86.1639 649,86.5C 658.343,89.4445 667.176,93.4445 675.5,98.5C 677.443,101.471 680.109,103.471 683.5,104.5C 686.205,108.205 689.538,111.205 693.5,113.5C 693.772,116.732 695.438,118.732 698.5,119.5C 699.256,122.394 700.923,124.394 703.5,125.5C 704.95,129.21 706.95,132.543 709.5,135.5C 712.199,139.896 714.533,144.563 716.5,149.5C 716.957,150.298 717.624,150.631 718.5,150.5C 718.232,152.099 718.566,153.432 719.5,154.5C 720.411,158.924 722.078,162.924 724.5,166.5C 724.232,168.099 724.566,169.432 725.5,170.5C 725.961,176.164 727.294,181.497 729.5,186.5C 729.5,186.833 729.5,187.167 729.5,187.5C 729.5,196.167 729.5,204.833 729.5,213.5C 727.251,218.497 725.917,223.83 725.5,229.5C 723.844,233.458 722.177,237.458 720.5,241.5C 719.463,242.93 718.796,244.597 718.5,246.5C 713.511,254.397 708.511,262.397 703.5,270.5C 701.224,270.756 700.057,272.09 700,274.5C 693.917,280.743 688.417,287.41 683.5,294.5C 680.438,295.268 678.772,297.268 678.5,300.5C 676.167,300.833 674.833,302.167 674.5,304.5C 672.413,305.585 671.08,307.251 670.5,309.5C 666.172,313.467 664.172,318.467 664.5,324.5C 663.57,328.4 663.237,332.4 663.5,336.5C 662.593,338.657 661.927,340.99 661.5,343.5C 661.5,344.167 661.5,344.833 661.5,345.5C 660.454,348.728 659.788,352.061 659.5,355.5C 657.445,359.028 655.111,362.361 652.5,365.5C 649.652,366.772 646.652,367.605 643.5,368C 636.174,368.5 628.841,368.666 621.5,368.5C 619.552,367.869 617.719,366.869 616,365.5C 615.5,294.501 615.333,223.501 615.5,152.5C 616.302,151.048 616.802,149.382 617,147.5C 617.5,125.503 617.667,103.503 617.5,81.5 Z"/></g>
<g><path style="opacity:0.024" fill="#b9b9b9" d="M 641.5,73.5 C 646.31,73.7778 650.643,75.1111 654.5,77.5C 650.124,77.0912 645.79,76.4245 641.5,75.5C 641.5,74.8333 641.5,74.1667 641.5,73.5 Z"/></g>
<g><path style="opacity:0.749" fill="#676564" d="M 549.5,72.5 C 554.544,73.2722 559.044,75.2722 563,78.5C 570.098,73.7476 577.932,72.2476 586.5,74C 588.119,74.2355 589.119,75.0689 589.5,76.5C 588.167,76.5 586.833,76.5 585.5,76.5C 578.658,76.0385 571.991,76.8718 565.5,79C 564.333,79.5 563.5,80.3333 563,81.5C 562.221,80.2718 561.221,79.2718 560,78.5C 557.28,77.7667 554.78,76.7667 552.5,75.5C 551.1,74.8999 550.1,73.8999 549.5,72.5 Z"/></g>
<g><path style="opacity:0.173" fill="#938a86" d="M 595.5,78.5 C 597.404,78.7376 598.738,79.7376 599.5,81.5C 597.027,81.9118 595.694,80.9118 595.5,78.5 Z"/></g>
<g><path style="opacity:0.143" fill="#9f9f9f" d="M 654.5,77.5 C 658.852,77.8457 662.519,79.5124 665.5,82.5C 662.521,81.6827 659.521,80.8494 656.5,80C 655.244,79.5831 654.577,78.7498 654.5,77.5 Z"/></g>
<g><path style="opacity:1" fill="#f3d669" d="M 585.5,79.5 C 589.238,80.4783 592.738,82.145 596,84.5C 596.5,92.1594 596.666,99.8261 596.5,107.5C 595.024,123.643 594.19,139.976 594,156.5C 593.5,226.499 593.333,296.499 593.5,366.5C 583.326,366.714 573.326,366.047 563.5,364.5C 554.216,361.615 550.216,355.282 551.5,345.5C 551.556,340.269 550.889,335.269 549.5,330.5C 549.296,327.482 548.963,324.482 548.5,321.5C 548.154,318.115 547.488,314.782 546.5,311.5C 549.361,308.486 552.694,305.986 556.5,304C 567.732,294.706 573.399,282.873 573.5,268.5C 572.5,268.5 571.5,268.5 570.5,268.5C 570.632,271.57 570.299,274.57 569.5,277.5C 567.539,281.714 565.206,285.714 562.5,289.5C 557.681,294.739 552.014,298.739 545.5,301.5C 540.211,303.324 534.711,304.324 529,304.5C 525.833,304.333 522.667,304.167 519.5,304C 517.111,302.904 514.611,302.071 512,301.5C 511.598,300.128 511.098,298.795 510.5,297.5C 511.5,296.667 512.5,295.833 513.5,295C 511.22,294.788 509.22,293.955 507.5,292.5C 507.167,292.833 506.833,293.167 506.5,293.5C 507.167,294.5 507.833,295.5 508.5,296.5C 508,296.833 507.5,297.167 507,297.5C 504.304,295.626 501.804,293.626 499.5,291.5C 496.15,286.797 494.15,281.463 493.5,275.5C 493.324,270.12 493.658,264.787 494.5,259.5C 501.841,259.666 509.174,259.5 516.5,259C 517.737,258.768 518.737,258.268 519.5,257.5C 526.14,255.844 532.807,254.178 539.5,252.5C 539.5,251.5 539.5,250.5 539.5,249.5C 534.982,249.97 530.649,251.137 526.5,253C 523.854,253.497 521.187,253.664 518.5,253.5C 510.483,253.499 502.483,253.166 494.5,252.5C 492.898,250.926 490.898,250.259 488.5,250.5C 477.992,245.539 470.659,237.539 466.5,226.5C 466.168,222.507 465.835,218.507 465.5,214.5C 465.912,209.687 466.912,205.021 468.5,200.5C 470.766,195.74 473.933,191.74 478,188.5C 484.934,195.293 493.101,199.626 502.5,201.5C 509.982,202.492 517.648,202.825 525.5,202.5C 525.34,204.199 525.506,205.866 526,207.5C 526.893,206.289 527.726,206.289 528.5,207.5C 530.344,212.91 534.011,216.243 539.5,217.5C 542.003,219.494 544.836,220.828 548,221.5C 548.167,220.833 548.333,220.167 548.5,219.5C 545.222,215.048 541.722,210.715 538,206.5C 532.17,193.171 532.004,179.837 537.5,166.5C 538.649,166.209 539.316,165.376 539.5,164C 539.333,163.167 539.167,162.333 539,161.5C 534.98,160.316 533.147,157.65 533.5,153.5C 537.135,153.344 537.468,152.178 534.5,150C 532.965,150.661 531.298,150.994 529.5,151C 528.167,149.667 528.167,148.333 529.5,147C 525.343,147.093 523.01,145.093 522.5,141C 522.93,139.566 523.764,138.399 525,137.5C 525.667,136.5 525.667,135.5 525,134.5C 522.631,134.677 520.131,134.344 517.5,133.5C 516.548,131.955 516.215,130.288 516.5,128.5C 515.5,128.5 514.5,128.5 513.5,128.5C 512.445,122.889 511.779,117.222 511.5,111.5C 513.951,97.872 521.285,87.7053 533.5,81C 543.429,78.8836 553.263,79.3836 563,82.5C 570.24,79.8481 577.74,78.8481 585.5,79.5 Z"/></g>
<g><path style="opacity:0.259" fill="#838383" d="M 646.5,84.5 C 636.891,82.9879 627.224,81.9879 617.5,81.5C 616.833,81.5 616.167,81.5 615.5,81.5C 617.223,80.1999 619.39,79.5332 622,79.5C 628.878,79.9639 635.711,80.7973 642.5,82C 643.858,82.9344 645.192,83.7677 646.5,84.5 Z"/></g>
<g><path style="opacity:1" fill="#39352d" d="M 585.5,76.5 C 586.833,76.5 588.167,76.5 589.5,76.5C 591.703,76.6036 593.703,77.2702 595.5,78.5C 595.694,80.9118 597.027,81.9118 599.5,81.5C 599.5,82.5 599.5,83.5 599.5,84.5C 598.155,97.8106 597.155,111.144 596.5,124.5C 596.5,118.833 596.5,113.167 596.5,107.5C 596.666,99.8261 596.5,92.1594 596,84.5C 592.738,82.145 589.238,80.4783 585.5,79.5C 586.873,79.6567 588.207,79.49 589.5,79C 587.934,78.3918 586.6,77.5585 585.5,76.5 Z"/></g>
<g><path style="opacity:0.182" fill="#a0a0a0" d="M 666.5,82.5 C 669.992,83.4097 672.992,85.0764 675.5,87.5C 671.665,87.1287 668.665,85.462 666.5,82.5 Z"/></g>
<g><path style="opacity:0.449" fill="#898989" d="M 647.5,84.5 C 657.179,86.673 666.179,90.5063 674.5,96C 675.252,96.6708 675.586,97.5041 675.5,98.5C 667.176,93.4445 658.343,89.4445 649,86.5C 647.97,86.1639 647.47,85.4972 647.5,84.5 Z"/></g>
<g><path style="opacity:0.302" fill="#8d8d8d" d="M 675.5,87.5 C 678.127,87.7903 679.794,89.1236 680.5,91.5C 677.633,91.6308 675.967,90.2974 675.5,87.5 Z"/></g>
<g><path style="opacity:0.102" fill="#a9a9a9" d="M 680.5,91.5 C 688.01,95.336 694.344,100.669 699.5,107.5C 694.294,102.806 688.627,98.6397 682.5,95C 681.695,93.8873 681.028,92.7206 680.5,91.5 Z"/></g>
<g><path style="opacity:0.039" fill="#bcbcbc" d="M 675.5,98.5 C 679.329,99.0687 681.996,101.069 683.5,104.5C 680.109,103.471 677.443,101.471 675.5,98.5 Z"/></g>
<g><path style="opacity:0.361" fill="#7f7e7e" d="M 599.5,81.5 C 601.268,85.0442 602.102,89.0442 602,93.5C 602.5,112.164 602.667,130.83 602.5,149.5C 601.833,147.833 601.167,146.167 600.5,144.5C 600.57,124.491 600.236,104.491 599.5,84.5C 599.5,83.5 599.5,82.5 599.5,81.5 Z"/></g>
<g><path style="opacity:0.157" fill="#aaaaaa" d="M 683.5,104.5 C 684.552,104.351 685.552,104.517 686.5,105C 688.751,108.067 691.084,110.9 693.5,113.5C 689.538,111.205 686.205,108.205 683.5,104.5 Z"/></g>
<g><path style="opacity:1" fill="#0a0908" d="M 599.5,84.5 C 600.236,104.491 600.57,124.491 600.5,144.5C 601.586,218.829 601.753,293.162 601,367.5C 600.89,369.848 599.723,371.348 597.5,372C 588.119,372.78 578.786,372.613 569.5,371.5C 563.154,371.751 557.82,369.584 553.5,365C 552.552,364.517 551.552,364.351 550.5,364.5C 549.969,361.763 549.136,359.096 548,356.5C 547.502,353.518 547.335,350.518 547.5,347.5C 546.921,342.701 546.588,337.868 546.5,333C 546.51,328.771 547.177,324.938 548.5,321.5C 548.963,324.482 549.296,327.482 549.5,330.5C 549.444,335.731 550.111,340.731 551.5,345.5C 550.216,355.282 554.216,361.615 563.5,364.5C 566.258,365.761 569.258,366.594 572.5,367C 580.08,367.813 587.58,367.647 595,366.5C 595.211,285.827 595.711,205.16 596.5,124.5C 597.155,111.144 598.155,97.8106 599.5,84.5 Z"/></g>
<g><path style="opacity:0.055" fill="#adadad" d="M 699.5,107.5 C 702.973,109.637 705.306,112.637 706.5,116.5C 702.985,114.493 700.651,111.493 699.5,107.5 Z"/></g>
<g><path style="opacity:0.694" fill="#6a6c6b" d="M 504.5,106.5 C 504.665,110.182 504.499,113.848 504,117.5C 502.989,118.337 501.822,118.67 500.5,118.5C 501.903,114.501 503.236,110.501 504.5,106.5 Z"/></g>
<g><path style="opacity:0.039" fill="#a7a7a7" d="M 693.5,113.5 C 696.646,114.31 698.313,116.31 698.5,119.5C 695.438,118.732 693.772,116.732 693.5,113.5 Z"/></g>
<g><path style="opacity:0.243" fill="#959595" d="M 706.5,116.5 C 709.323,117.992 710.99,120.326 711.5,123.5C 708.623,122.096 706.956,119.763 706.5,116.5 Z"/></g>
<g><path style="opacity:0.259" fill="#979797" d="M 698.5,119.5 C 701.562,120.268 703.228,122.268 703.5,125.5C 700.923,124.394 699.256,122.394 698.5,119.5 Z"/></g>
<g><path style="opacity:0.016" fill="#b4b4b4" d="M 711.5,123.5 C 713.446,124.035 714.446,125.368 714.5,127.5C 712.554,126.965 711.554,125.632 711.5,123.5 Z"/></g>
<g><path style="opacity:0.051" fill="#bbbbbb" d="M 661.5,127.5 C 658.819,127.538 656.319,126.871 654,125.5C 652.97,125.836 652.47,126.503 652.5,127.5C 650.824,126.817 650.157,125.483 650.5,123.5C 654.842,123.278 658.509,124.611 661.5,127.5 Z"/></g>
<g><path style="opacity:1" fill="#f3d569" d="M 526.5,154.5 C 526.833,155.167 527.167,155.833 527.5,156.5C 527.5,157.833 527.5,159.167 527.5,160.5C 529.167,160.5 530.833,160.5 532.5,160.5C 531.523,164.628 530.19,168.628 528.5,172.5C 527.5,172.5 526.5,172.5 525.5,172.5C 524.07,179.656 523.403,186.989 523.5,194.5C 517.211,195.372 510.878,195.705 504.5,195.5C 500.48,194.627 496.48,193.627 492.5,192.5C 486.832,189.162 482.499,184.496 479.5,178.5C 475.602,166.086 475.602,153.753 479.5,141.5C 480.818,137.668 483.152,134.501 486.5,132C 489.167,130 491.833,128 494.5,126C 497.605,124.132 500.938,122.965 504.5,122.5C 507.876,135.93 515.21,146.596 526.5,154.5 Z"/></g>
<g><path style="opacity:0.027" fill="#eaeaea" d="M 615.5,81.5 C 616.167,81.5 616.833,81.5 617.5,81.5C 617.667,103.503 617.5,125.503 617,147.5C 616.802,149.382 616.302,151.048 615.5,152.5C 615.5,147.5 615.5,142.5 615.5,137.5C 615.5,118.833 615.5,100.167 615.5,81.5 Z"/></g>
<g><path style="opacity:0.439" fill="#3f4040" d="M 549.5,72.5 C 550.1,73.8999 551.1,74.8999 552.5,75.5C 537.691,71.9019 525.524,75.9019 516,87.5C 513.333,91.5 510.667,95.5 508,99.5C 506.164,105.696 505.164,112.03 505,118.5C 496.893,121.199 489.393,125.032 482.5,130C 473.518,138.521 469.518,149.021 470.5,161.5C 469.5,161.5 468.5,161.5 467.5,161.5C 467.5,158.5 467.5,155.5 467.5,152.5C 469.256,151.448 469.923,149.781 469.5,147.5C 470.316,140.682 473.316,135.016 478.5,130.5C 482.513,126.833 486.846,123.667 491.5,121C 494.353,119.57 497.353,118.737 500.5,118.5C 501.822,118.67 502.989,118.337 504,117.5C 504.499,113.848 504.665,110.182 504.5,106.5C 507.4,90.4322 516.4,79.2655 531.5,73C 537.476,71.301 543.476,71.1344 549.5,72.5 Z"/></g>
<g><path style="opacity:0.89" fill="#434343" d="M 661.5,127.5 C 661.833,128.167 662.167,128.833 662.5,129.5C 660.863,128.782 659.197,128.616 657.5,129C 658.73,131.306 660.063,133.473 661.5,135.5C 661.167,135.5 660.833,135.5 660.5,135.5C 659.167,134.833 658.167,133.833 657.5,132.5C 657.5,131.167 656.833,130.5 655.5,130.5C 654.167,129.833 653.167,128.833 652.5,127.5C 652.47,126.503 652.97,125.836 654,125.5C 656.319,126.871 658.819,127.538 661.5,127.5 Z"/></g>
<g><path style="opacity:0.576" fill="#868686" d="M 703.5,125.5 C 707.008,127.836 709.008,131.169 709.5,135.5C 706.95,132.543 704.95,129.21 703.5,125.5 Z"/></g>
<g><path style="opacity:0.998" fill="#141414" d="M 662.5,129.5 C 664.837,131.396 667.504,132.73 670.5,133.5C 670.833,135.833 672.167,137.167 674.5,137.5C 675.167,140.167 676.833,141.833 679.5,142.5C 681.684,148.657 685.017,153.99 689.5,158.5C 689.721,161.067 690.388,163.401 691.5,165.5C 691.527,171.051 692.194,176.384 693.5,181.5C 693.5,182.167 693.5,182.833 693.5,183.5C 691.744,184.552 691.077,186.219 691.5,188.5C 690.5,188.5 689.5,188.5 688.5,188.5C 688.665,185.482 688.498,182.482 688,179.5C 687.878,177.563 687.045,176.23 685.5,175.5C 684.566,174.432 684.232,173.099 684.5,171.5C 683.694,162.883 680.027,155.883 673.5,150.5C 673.631,147.633 672.297,145.967 669.5,145.5C 668.908,141.911 666.908,139.578 663.5,138.5C 663.573,136.973 662.906,135.973 661.5,135.5C 660.063,133.473 658.73,131.306 657.5,129C 659.197,128.616 660.863,128.782 662.5,129.5 Z"/></g>
<g><path style="opacity:0.047" fill="#c5c5c5" d="M 714.5,127.5 C 716.104,128.287 716.771,129.62 716.5,131.5C 715.326,130.486 714.66,129.153 714.5,127.5 Z"/></g>
<g><path style="opacity:0.039" fill="#dcdddc" d="M 655.5,130.5 C 656.833,130.5 657.5,131.167 657.5,132.5C 656.167,132.5 655.5,131.833 655.5,130.5 Z"/></g>
<g><path style="opacity:0.145" fill="#a0a0a0" d="M 661.5,127.5 C 665.049,128.723 668.049,130.723 670.5,133.5C 667.504,132.73 664.837,131.396 662.5,129.5C 662.167,128.833 661.833,128.167 661.5,127.5 Z"/></g>
<g><path style="opacity:0.033" fill="#acacac" d="M 670.5,133.5 C 672.773,133.957 674.106,135.29 674.5,137.5C 672.167,137.167 670.833,135.833 670.5,133.5 Z"/></g>
<g><path style="opacity:0.063" fill="#c8c8c8" d="M 660.5,135.5 C 660.833,135.5 661.167,135.5 661.5,135.5C 662.906,135.973 663.573,136.973 663.5,138.5C 661.81,138.144 660.81,137.144 660.5,135.5 Z"/></g>
<g><path style="opacity:0.561" fill="#959595" d="M 716.5,131.5 C 717.458,131.953 718.292,132.619 719,133.5C 721.476,138.447 723.642,143.447 725.5,148.5C 724.624,148.631 723.957,148.298 723.5,147.5C 721.105,142.133 718.772,136.8 716.5,131.5 Z"/></g>
<g><path style="opacity:0.063" fill="#949494" d="M 674.5,137.5 C 676.911,138.517 678.578,140.184 679.5,142.5C 676.833,141.833 675.167,140.167 674.5,137.5 Z"/></g>
<g><path style="opacity:0.153" fill="#a0a0a0" d="M 663.5,138.5 C 666.908,139.578 668.908,141.911 669.5,145.5C 666.8,143.766 664.8,141.432 663.5,138.5 Z"/></g>
<g><path style="opacity:0.631" fill="#878787" d="M 709.5,135.5 C 710.643,135.908 711.643,136.575 712.5,137.5C 715.005,141.65 717.005,145.983 718.5,150.5C 717.624,150.631 716.957,150.298 716.5,149.5C 714.533,144.563 712.199,139.896 709.5,135.5 Z"/></g>
<g><path style="opacity:0.11" fill="#a0a0a0" d="M 669.5,145.5 C 672.297,145.967 673.631,147.633 673.5,150.5C 671.469,149.461 670.136,147.795 669.5,145.5 Z"/></g>
<g><path style="opacity:0.353" fill="#858585" d="M 679.5,142.5 C 684.349,146.86 687.682,152.194 689.5,158.5C 685.017,153.99 681.684,148.657 679.5,142.5 Z"/></g>
<g><path style="opacity:0.02" fill="#d0d0d0" d="M 725.5,148.5 C 726.931,149.78 727.598,151.447 727.5,153.5C 726.069,152.22 725.402,150.553 725.5,148.5 Z"/></g>
<g><path style="opacity:0.29" fill="#9b9b9b" d="M 469.5,147.5 C 469.923,149.781 469.256,151.448 467.5,152.5C 467.402,150.447 468.069,148.78 469.5,147.5 Z"/></g>
<g><path style="opacity:1" fill="#383327" d="M 521.5,145.5 C 526.324,148.979 529.99,153.313 532.5,158.5C 530.486,158.608 528.82,157.942 527.5,156.5C 527.167,155.833 526.833,155.167 526.5,154.5C 527.239,154.631 527.906,154.464 528.5,154C 525.553,151.564 523.22,148.731 521.5,145.5 Z"/></g>
<g><path style="opacity:1" fill="#b9a769" d="M 479.5,141.5 C 475.602,153.753 475.602,166.086 479.5,178.5C 478.034,177.653 477.2,176.32 477,174.5C 474.338,165.898 474.004,157.232 476,148.5C 476.522,145.719 477.689,143.385 479.5,141.5 Z"/></g>
<g><path style="opacity:0.249" fill="#919191" d="M 727.5,153.5 C 729.448,155.32 730.448,157.654 730.5,160.5C 728.179,158.91 727.179,156.577 727.5,153.5 Z"/></g>
<g><path style="opacity:1" fill="#e3ca70" d="M 511.5,111.5 C 511.779,117.222 512.445,122.889 513.5,128.5C 514.5,128.5 515.5,128.5 516.5,128.5C 516.215,130.288 516.548,131.955 517.5,133.5C 520.131,134.344 522.631,134.677 525,134.5C 525.667,135.5 525.667,136.5 525,137.5C 523.764,138.399 522.93,139.566 522.5,141C 523.01,145.093 525.343,147.093 529.5,147C 528.167,148.333 528.167,149.667 529.5,151C 531.298,150.994 532.965,150.661 534.5,150C 537.468,152.178 537.135,153.344 533.5,153.5C 533.147,157.65 534.98,160.316 539,161.5C 539.167,162.333 539.333,163.167 539.5,164C 539.316,165.376 538.649,166.209 537.5,166.5C 537.157,164.775 536.157,164.275 534.5,165C 532.383,166.731 530.883,168.898 530,171.5C 529.119,175.376 527.786,179.042 526,182.5C 525.501,187.155 525.334,191.821 525.5,196.5C 518.351,197.694 511.351,197.694 504.5,196.5C 504.5,196.167 504.5,195.833 504.5,195.5C 510.878,195.705 517.211,195.372 523.5,194.5C 523.403,186.989 524.07,179.656 525.5,172.5C 526.5,172.5 527.5,172.5 528.5,172.5C 530.19,168.628 531.523,164.628 532.5,160.5C 530.833,160.5 529.167,160.5 527.5,160.5C 527.5,159.167 527.5,157.833 527.5,156.5C 528.82,157.942 530.486,158.608 532.5,158.5C 529.99,153.313 526.324,148.979 521.5,145.5C 517.873,139.82 514.706,133.82 512,127.5C 510.449,122.046 510.282,116.712 511.5,111.5 Z"/></g>
<g><path style="opacity:0.01" fill="#d0d0d0" d="M 689.5,158.5 C 691.163,160.438 691.829,162.772 691.5,165.5C 690.388,163.401 689.721,161.067 689.5,158.5 Z"/></g>
<g><path style="opacity:0.029" fill="#b3b3b3" d="M 719.5,154.5 C 722.964,157.625 724.631,161.625 724.5,166.5C 722.078,162.924 720.411,158.924 719.5,154.5 Z"/></g>
<g><path style="opacity:0.471" fill="#999999" d="M 673.5,150.5 C 680.027,155.883 683.694,162.883 684.5,171.5C 681.032,164.455 677.365,157.455 673.5,150.5 Z"/></g>
<g><path style="opacity:0.863" fill="#686868" d="M 467.5,161.5 C 468.5,161.5 469.5,161.5 470.5,161.5C 470.451,169.428 472.118,176.928 475.5,184C 475.43,184.765 475.097,185.265 474.5,185.5C 470.624,178.005 468.291,170.005 467.5,161.5 Z"/></g>
<g><path style="opacity:0.22" fill="#b3b3b3" d="M 730.5,160.5 C 731.924,162.515 732.59,164.848 732.5,167.5C 730.837,165.562 730.171,163.228 730.5,160.5 Z"/></g>
<g><path style="opacity:0.106" fill="#a8a8a8" d="M 732.5,168.5 C 734.851,170.841 735.851,173.841 735.5,177.5C 734.833,176.167 734.167,174.833 733.5,173.5C 732.549,172.081 732.216,170.415 732.5,168.5 Z"/></g>
<g><path style="opacity:0.18" fill="#919191" d="M 725.5,170.5 C 726.931,170.881 727.764,171.881 728,173.5C 728.923,177.79 729.423,182.123 729.5,186.5C 727.294,181.497 725.961,176.164 725.5,170.5 Z"/></g>
<g><path style="opacity:0.12" fill="#9b9b9b" d="M 691.5,165.5 C 692.117,165.611 692.617,165.944 693,166.5C 693.547,170.16 694.047,173.827 694.5,177.5C 694.489,179.045 694.156,180.378 693.5,181.5C 692.194,176.384 691.527,171.051 691.5,165.5 Z"/></g>
<g><path style="opacity:0.227" fill="#9a9a9a" d="M 685.5,175.5 C 687.045,176.23 687.878,177.563 688,179.5C 688.498,182.482 688.665,185.482 688.5,188.5C 686.551,184.521 685.551,180.187 685.5,175.5 Z"/></g>
<g><path style="opacity:0.384" fill="#5c5c5c" d="M 733.5,173.5 C 734.167,174.833 734.833,176.167 735.5,177.5C 736.414,180.728 736.747,184.061 736.5,187.5C 735.275,186.848 734.608,185.681 734.5,184C 733.837,180.527 733.504,177.027 733.5,173.5 Z"/></g>
<g><path style="opacity:0.376" fill="#a7a7a7" d="M 693.5,183.5 C 694.18,187.791 692.514,190.457 688.5,191.5C 688.5,190.5 688.5,189.5 688.5,188.5C 689.5,188.5 690.5,188.5 691.5,188.5C 691.077,186.219 691.744,184.552 693.5,183.5 Z"/></g>
<g><path style="opacity:0.592" fill="#5a5a5a" d="M 474.5,185.5 C 469.629,191.543 465.462,198.209 462,205.5C 460.306,211.844 460.14,218.178 461.5,224.5C 460.833,224.5 460.167,224.5 459.5,224.5C 456.774,208.318 461.774,195.318 474.5,185.5 Z"/></g>
<g><path style="opacity:0.732" fill="#585858" d="M 615.5,137.5 C 615.5,142.5 615.5,147.5 615.5,152.5C 615.333,223.501 615.5,294.501 616,365.5C 617.719,366.869 619.552,367.869 621.5,368.5C 618.453,370.113 615.953,369.446 614,366.5C 613.833,328.333 613.667,290.167 613.5,252C 613.5,213.494 614.167,175.327 615.5,137.5 Z"/></g>
<g><path style="opacity:0.489" fill="#595959" d="M 729.5,187.5 C 730.827,191.783 731.493,196.449 731.5,201.5C 731.333,206.167 731.167,210.833 731,215.5C 730.79,217.058 730.29,218.391 729.5,219.5C 729.5,217.5 729.5,215.5 729.5,213.5C 729.5,204.833 729.5,196.167 729.5,187.5 Z"/></g>
<g><path style="opacity:0.884" fill="#000000" d="M 780.5,198.5 C 789.289,197.863 797.289,200.03 804.5,205C 810.311,210.231 809.811,214.397 803,217.5C 799.333,215.167 795.667,212.833 792,210.5C 782.947,207.119 776.78,209.786 773.5,218.5C 774.498,222.005 776.498,224.838 779.5,227C 786.833,230.333 794.167,233.667 801.5,237C 811.319,243.46 814.152,252.293 810,263.5C 806.256,269.901 800.756,274.068 793.5,276C 783.776,277.838 774.776,276.171 766.5,271C 761.744,267.611 759.91,263.111 761,257.5C 763.299,255.464 765.799,255.131 768.5,256.5C 775.545,266.011 784.545,268.511 795.5,264C 801.574,258.591 801.907,252.925 796.5,247C 789.335,243.279 782.002,239.946 774.5,237C 762.328,228.809 759.828,218.309 767,205.5C 770.96,201.938 775.46,199.605 780.5,198.5 Z"/></g>
<g><path style="opacity:0.887" fill="#000000" d="M 94.5,199.5 C 98.2727,198.822 101.106,200.156 103,203.5C 111,213.5 119,223.5 127,233.5C 135.978,222.354 145.145,211.354 154.5,200.5C 157.903,198.813 160.736,199.48 163,202.5C 163.667,226.167 163.667,249.833 163,273.5C 159.667,276.167 156.333,276.167 153,273.5C 152.667,255.833 152.333,238.167 152,220.5C 144.978,228.688 138.144,237.021 131.5,245.5C 128.005,248.368 124.838,248.035 122,244.5C 115.667,236.5 109.333,228.5 103,220.5C 102.667,237.5 102.333,254.5 102,271.5C 99.4512,275.925 96.1179,276.592 92,273.5C 90.3546,250.588 90.0212,227.588 91,204.5C 91.2572,202.093 92.4238,200.427 94.5,199.5 Z"/></g>
<g><path style="opacity:0.927" fill="#000000" d="M 184.5,199.5 C 200.503,199.333 216.503,199.5 232.5,200C 235.864,202.729 236.197,205.729 233.5,209C 219.837,209.5 206.171,209.667 192.5,209.5C 192.5,217.167 192.5,224.833 192.5,232.5C 203.172,232.333 213.839,232.5 224.5,233C 227.299,236.339 226.966,239.339 223.5,242C 213.172,242.5 202.839,242.666 192.5,242.5C 192.5,250.167 192.5,257.833 192.5,265.5C 205.837,265.333 219.171,265.5 232.5,266C 236.072,268.626 236.405,271.626 233.5,275C 216.833,275.667 200.167,275.667 183.5,275C 183,274.5 182.5,274 182,273.5C 181.333,249.833 181.333,226.167 182,202.5C 182.698,201.309 183.531,200.309 184.5,199.5 Z"/></g>
<g><path style="opacity:0.88" fill="#000000" d="M 250.5,199.5 C 254.025,199.346 256.859,200.679 259,203.5C 272.667,220.833 286.333,238.167 300,255.5C 300.333,237.5 300.667,219.5 301,201.5C 304.075,198.941 307.075,198.941 310,201.5C 311.148,213.575 311.648,225.741 311.5,238C 311.333,249.5 311.167,261 311,272.5C 307.59,277.556 303.923,277.556 300,272.5C 286.714,254.879 273.048,237.546 259,220.5C 258.667,237.5 258.333,254.5 258,271.5C 255.451,275.925 252.118,276.592 248,273.5C 246.355,250.588 246.021,227.588 247,204.5C 247.257,202.093 248.424,200.427 250.5,199.5 Z"/></g>
<g><path style="opacity:0.86" fill="#000000" d="M 323.5,199.5 C 341.503,199.333 359.503,199.5 377.5,200C 381.692,202.239 382.359,205.239 379.5,209C 371.92,210.396 364.253,210.896 356.5,210.5C 356.667,230.836 356.5,251.169 356,271.5C 354.368,275.212 351.535,276.379 347.5,275C 346.107,273.829 345.273,272.329 345,270.5C 344.5,250.503 344.333,230.503 344.5,210.5C 337.053,210.929 329.719,210.429 322.5,209C 319.765,205.508 320.098,202.342 323.5,199.5 Z"/></g>
<g><path style="opacity:0.927" fill="#000000" d="M 393.5,199.5 C 409.503,199.333 425.503,199.5 441.5,200C 444.864,202.729 445.197,205.729 442.5,209C 428.837,209.5 415.171,209.667 401.5,209.5C 401.5,217.167 401.5,224.833 401.5,232.5C 412.172,232.333 422.839,232.5 433.5,233C 436.299,236.339 435.966,239.339 432.5,242C 422.172,242.5 411.839,242.666 401.5,242.5C 401.5,250.167 401.5,257.833 401.5,265.5C 414.837,265.333 428.171,265.5 441.5,266C 445.072,268.626 445.405,271.626 442.5,275C 425.833,275.667 409.167,275.667 392.5,275C 392,274.5 391.5,274 391,273.5C 390.333,249.833 390.333,226.167 391,202.5C 391.698,201.309 392.531,200.309 393.5,199.5 Z"/></g>
<g><path style="opacity:0.909" fill="#000000" d="M 829.5,199.5 C 834.029,199.496 837.529,201.496 840,205.5C 847.289,215.124 854.955,224.458 863,233.5C 871.808,222.057 880.975,210.891 890.5,200C 893.14,199.161 895.473,199.661 897.5,201.5C 898.656,225.457 898.823,249.457 898,273.5C 895.503,275.478 892.669,275.978 889.5,275C 888.874,274.25 888.374,273.416 888,272.5C 887.667,255.167 887.333,237.833 887,220.5C 880.286,228.212 873.953,236.212 868,244.5C 865.029,248.092 861.696,248.425 858,245.5C 851.713,236.878 845.047,228.545 838,220.5C 837.667,237.833 837.333,255.167 837,272.5C 836.242,274.91 834.575,275.91 832,275.5C 829.966,275.646 828.299,274.98 827,273.5C 826.333,249.833 826.333,226.167 827,202.5C 827.698,201.309 828.531,200.309 829.5,199.5 Z"/></g>
<g><path style="opacity:0.898" fill="#000000" d="M 940.5,199.5 C 943.272,199.22 945.772,199.887 948,201.5C 957.528,223.084 966.861,244.751 976,266.5C 977.648,274.187 974.814,277.021 967.5,275C 964.808,270.089 962.808,264.923 961.5,259.5C 949.495,259.333 937.495,259.5 925.5,260C 923.546,265.205 921.213,270.205 918.5,275C 911.51,277.005 908.676,274.505 910,267.5C 919,246.167 928,224.833 937,203.5C 938.376,202.295 939.542,200.962 940.5,199.5 Z M 942.5,216.5 C 947.649,226.812 952.315,237.479 956.5,248.5C 947.518,249.665 938.518,249.832 929.5,249C 934.252,238.329 938.586,227.496 942.5,216.5 Z"/></g>
<g><path style="opacity:0.901" fill="#000000" d="M 990.5,199.5 C 1000.17,199.334 1009.84,199.5 1019.5,200C 1031.33,202.152 1038.83,208.986 1042,220.5C 1043.19,227.521 1042.19,234.187 1039,240.5C 1035.96,243.711 1032.79,246.711 1029.5,249.5C 1034,255.833 1038.5,262.167 1043,268.5C 1044.25,272.926 1042.59,275.592 1038,276.5C 1036.37,276.122 1034.87,275.456 1033.5,274.5C 1028.29,267.244 1022.96,260.077 1017.5,253C 1011.18,252.5 1004.84,252.334 998.5,252.5C 998.666,259.508 998.5,266.508 998,273.5C 994.337,276.333 991.004,276 988,272.5C 987.333,249.5 987.333,226.5 988,203.5C 988.662,202.016 989.496,200.683 990.5,199.5 Z M 998.5,209.5 C 1005.89,209.253 1013.22,209.753 1020.5,211C 1030.87,216.114 1033.7,223.948 1029,234.5C 1027.13,236.709 1024.96,238.542 1022.5,240C 1014.59,241.401 1006.59,241.901 998.5,241.5C 998.5,230.833 998.5,220.167 998.5,209.5 Z"/></g>
<g><path style="opacity:0.896" fill="#000000" d="M 1050.5,199.5 C 1068.84,199.333 1087.17,199.5 1105.5,200C 1108.98,202.706 1109.31,205.706 1106.5,209C 1098.92,210.396 1091.25,210.896 1083.5,210.5C 1083.67,231.503 1083.5,252.503 1083,273.5C 1079.67,276.167 1076.33,276.167 1073,273.5C 1072.5,252.503 1072.33,231.503 1072.5,210.5C 1064.75,210.896 1057.08,210.396 1049.5,209C 1046.91,205.583 1047.24,202.416 1050.5,199.5 Z"/></g>
<g><path style="opacity:1" fill="#c4b475" d="M 468.5,200.5 C 466.912,205.021 465.912,209.687 465.5,214.5C 465.835,218.507 466.168,222.507 466.5,226.5C 465.71,225.391 465.21,224.058 465,222.5C 464.333,217.5 464.333,212.5 465,207.5C 465.67,204.826 466.837,202.493 468.5,200.5 Z"/></g>
<g><path style="opacity:0.549" fill="#858585" d="M 686.5,241.5 C 687.364,236.377 688.697,231.377 690.5,226.5C 690.167,225.167 689.833,223.833 689.5,222.5C 687.549,225.954 686.049,229.621 685,233.5C 683.693,235.192 682.193,236.525 680.5,237.5C 682.811,232.628 684.978,227.628 687,222.5C 687.908,220.561 689.408,219.561 691.5,219.5C 691.876,226.322 691.043,232.988 689,239.5C 688.583,240.756 687.75,241.423 686.5,241.5 Z"/></g>
<g><path style="opacity:0.255" fill="#9d9d9d" d="M 736.5,212.5 C 736.378,217.567 735.711,222.567 734.5,227.5C 732.505,231.651 731.005,235.985 730,240.5C 729.583,241.756 728.75,242.423 727.5,242.5C 730.759,232.503 733.759,222.503 736.5,212.5 Z"/></g>
<g><path style="opacity:0.227" fill="#818181" d="M 729.5,213.5 C 729.5,215.5 729.5,217.5 729.5,219.5C 728.631,221.984 727.964,224.651 727.5,227.5C 727.253,228.713 726.586,229.38 725.5,229.5C 725.917,223.83 727.251,218.497 729.5,213.5 Z"/></g>
<g><path style="opacity:0.995" fill="#1b1b1b" d="M 686.5,241.5 C 685.326,242.514 684.66,243.847 684.5,245.5C 681.703,245.967 680.369,247.633 680.5,250.5C 680.167,250.5 679.833,250.5 679.5,250.5C 677.973,250.427 676.973,251.094 676.5,252.5C 676.167,252.5 675.833,252.5 675.5,252.5C 672.752,252.598 672.086,251.598 673.5,249.5C 675.017,249.489 676.184,248.823 677,247.5C 678.18,244.479 679.346,241.479 680.5,238.5C 680.5,238.167 680.5,237.833 680.5,237.5C 682.193,236.525 683.693,235.192 685,233.5C 686.049,229.621 687.549,225.954 689.5,222.5C 689.833,223.833 690.167,225.167 690.5,226.5C 688.697,231.377 687.364,236.377 686.5,241.5 Z"/></g>
<g><path style="opacity:1" fill="#c4b372" d="M 596.5,107.5 C 596.5,113.167 596.5,118.833 596.5,124.5C 595.711,205.16 595.211,285.827 595,366.5C 587.58,367.647 580.08,367.813 572.5,367C 569.258,366.594 566.258,365.761 563.5,364.5C 573.326,366.047 583.326,366.714 593.5,366.5C 593.333,296.499 593.5,226.499 594,156.5C 594.19,139.976 595.024,123.643 596.5,107.5 Z"/></g>
<g><path style="opacity:0.443" fill="#909090" d="M 725.5,229.5 C 725.561,233.049 724.727,236.382 723,239.5C 722.583,240.756 721.75,241.423 720.5,241.5C 722.177,237.458 723.844,233.458 725.5,229.5 Z"/></g>
<g><path style="opacity:0.478" fill="#6a6b6c" d="M 459.5,224.5 C 460.167,224.5 460.833,224.5 461.5,224.5C 461.699,226.96 462.365,229.293 463.5,231.5C 468.363,240.862 475.363,248.028 484.5,253C 486.74,253.977 489.073,254.477 491.5,254.5C 490.578,259.307 488.912,263.641 486.5,267.5C 486.895,263.815 487.062,260.148 487,256.5C 472.59,250.263 463.424,239.596 459.5,224.5 Z"/></g>
<g><path style="opacity:0.027" fill="#d2d2d2" d="M 686.5,241.5 C 686.771,243.38 686.104,244.713 684.5,245.5C 684.66,243.847 685.326,242.514 686.5,241.5 Z"/></g>
<g><path style="opacity:0.408" fill="#999999" d="M 720.5,241.5 C 720.88,243.698 720.213,245.365 718.5,246.5C 718.796,244.597 719.463,242.93 720.5,241.5 Z"/></g>
<g><path style="opacity:0.643" fill="#8d8d8d" d="M 680.5,238.5 C 679.346,241.479 678.18,244.479 677,247.5C 676.184,248.823 675.017,249.489 673.5,249.5C 675.087,245.317 677.421,241.65 680.5,238.5 Z"/></g>
<g><path style="opacity:0.094" fill="#b4b4b4" d="M 684.5,245.5 C 683.876,247.754 682.543,249.421 680.5,250.5C 680.369,247.633 681.703,245.967 684.5,245.5 Z"/></g>
<g><path style="opacity:0.161" fill="#868686" d="M 727.5,242.5 C 726.639,247.443 724.639,251.776 721.5,255.5C 722.185,250.469 724.185,246.135 727.5,242.5 Z"/></g>
<g><path style="opacity:0.047" fill="#c8c8c8" d="M 673.5,249.5 C 672.086,251.598 672.752,252.598 675.5,252.5C 674.304,254.981 672.804,254.981 671,252.5C 670.481,250.511 671.314,249.511 673.5,249.5 Z"/></g>
<g><path style="opacity:0.035" fill="#d2d2d2" d="M 679.5,250.5 C 679.027,251.906 678.027,252.573 676.5,252.5C 676.973,251.094 677.973,250.427 679.5,250.5 Z"/></g>
<g><path style="opacity:0.694" fill="#818181" d="M 718.5,246.5 C 718.54,249.425 717.707,252.091 716,254.5C 712.996,259.176 709.996,263.843 707,268.5C 706.184,269.823 705.017,270.489 703.5,270.5C 708.511,262.397 713.511,254.397 718.5,246.5 Z"/></g>
<g><path style="opacity:1" fill="#161512" d="M 552.5,75.5 C 554.78,76.7667 557.28,77.7667 560,78.5C 561.221,79.2718 562.221,80.2718 563,81.5C 563.5,80.3333 564.333,79.5 565.5,79C 571.991,76.8718 578.658,76.0385 585.5,76.5C 586.6,77.5585 587.934,78.3918 589.5,79C 588.207,79.49 586.873,79.6567 585.5,79.5C 577.74,78.8481 570.24,79.8481 563,82.5C 553.263,79.3836 543.429,78.8836 533.5,81C 521.285,87.7053 513.951,97.872 511.5,111.5C 510.282,116.712 510.449,122.046 512,127.5C 514.706,133.82 517.873,139.82 521.5,145.5C 523.22,148.731 525.553,151.564 528.5,154C 527.906,154.464 527.239,154.631 526.5,154.5C 515.21,146.596 507.876,135.93 504.5,122.5C 500.938,122.965 497.605,124.132 494.5,126C 491.833,128 489.167,130 486.5,132C 483.152,134.501 480.818,137.668 479.5,141.5C 477.689,143.385 476.522,145.719 476,148.5C 474.004,157.232 474.338,165.898 477,174.5C 477.2,176.32 478.034,177.653 479.5,178.5C 482.499,184.496 486.832,189.162 492.5,192.5C 495.793,195.598 499.793,196.931 504.5,196.5C 511.351,197.694 518.351,197.694 525.5,196.5C 525.334,191.821 525.501,187.155 526,182.5C 527.786,179.042 529.119,175.376 530,171.5C 530.883,168.898 532.383,166.731 534.5,165C 536.157,164.275 537.157,164.775 537.5,166.5C 532.004,179.837 532.17,193.171 538,206.5C 541.722,210.715 545.222,215.048 548.5,219.5C 548.333,220.167 548.167,220.833 548,221.5C 544.836,220.828 542.003,219.494 539.5,217.5C 533.764,212.919 529.764,207.085 527.5,200C 519.247,201.05 510.914,201.55 502.5,201.5C 493.101,199.626 484.934,195.293 478,188.5C 473.933,191.74 470.766,195.74 468.5,200.5C 466.837,202.493 465.67,204.826 465,207.5C 464.333,212.5 464.333,217.5 465,222.5C 465.21,224.058 465.71,225.391 466.5,226.5C 470.659,237.539 477.992,245.539 488.5,250.5C 490.102,252.074 492.102,252.741 494.5,252.5C 502.445,254.556 510.445,254.889 518.5,253.5C 521.187,253.664 523.854,253.497 526.5,253C 530.649,251.137 534.982,249.97 539.5,249.5C 539.5,250.5 539.5,251.5 539.5,252.5C 532.807,254.178 526.14,255.844 519.5,257.5C 510.847,258.645 502.18,258.645 493.5,257.5C 492.281,263.643 492.281,269.643 493.5,275.5C 494.15,281.463 496.15,286.797 499.5,291.5C 507.883,303.805 519.55,308.639 534.5,306C 538.799,305.741 542.466,304.241 545.5,301.5C 552.014,298.739 557.681,294.739 562.5,289.5C 566.88,286.747 569.213,282.747 569.5,277.5C 570.299,274.57 570.632,271.57 570.5,268.5C 571.5,268.5 572.5,268.5 573.5,268.5C 573.399,282.873 567.732,294.706 556.5,304C 552.694,305.986 549.361,308.486 546.5,311.5C 547.488,314.782 548.154,318.115 548.5,321.5C 547.177,324.938 546.51,328.771 546.5,333C 546.588,337.868 546.921,342.701 547.5,347.5C 546.833,347.167 546.167,346.833 545.5,346.5C 545.5,345.5 545.5,344.5 545.5,343.5C 545.5,340.167 545.5,336.833 545.5,333.5C 546.036,330.302 545.369,327.635 543.5,325.5C 543.5,324.833 543.5,324.167 543.5,323.5C 544.482,320.038 544.815,316.371 544.5,312.5C 536.578,314.185 528.578,314.685 520.5,314C 515.049,312.35 509.715,310.516 504.5,308.5C 500.756,305.08 497.256,301.414 494,297.5C 493.153,295.146 492.32,292.812 491.5,290.5C 488.358,283.209 486.691,275.543 486.5,267.5C 488.912,263.641 490.578,259.307 491.5,254.5C 489.073,254.477 486.74,253.977 484.5,253C 475.363,248.028 468.363,240.862 463.5,231.5C 462.365,229.293 461.699,226.96 461.5,224.5C 460.14,218.178 460.306,211.844 462,205.5C 465.462,198.209 469.629,191.543 474.5,185.5C 475.097,185.265 475.43,184.765 475.5,184C 472.118,176.928 470.451,169.428 470.5,161.5C 469.518,149.021 473.518,138.521 482.5,130C 489.393,125.032 496.893,121.199 505,118.5C 505.164,112.03 506.164,105.696 508,99.5C 510.667,95.5 513.333,91.5 516,87.5C 525.524,75.9019 537.691,71.9019 552.5,75.5 Z"/></g>
<g><path style="opacity:1" fill="#a29768" d="M 494.5,252.5 C 502.483,253.166 510.483,253.499 518.5,253.5C 510.445,254.889 502.445,254.556 494.5,252.5 Z"/></g>
<g><path style="opacity:1" fill="#7d7750" d="M 488.5,250.5 C 490.898,250.259 492.898,250.926 494.5,252.5C 492.102,252.741 490.102,252.074 488.5,250.5 Z"/></g>
<g><path style="opacity:1" fill="#d9c471" d="M 539.5,217.5 C 534.011,216.243 530.344,212.91 528.5,207.5C 527.726,206.289 526.893,206.289 526,207.5C 525.506,205.866 525.34,204.199 525.5,202.5C 517.648,202.825 509.982,202.492 502.5,201.5C 510.914,201.55 519.247,201.05 527.5,200C 529.764,207.085 533.764,212.919 539.5,217.5 Z"/></g>
<g><path style="opacity:1" fill="#a09260" d="M 492.5,192.5 C 496.48,193.627 500.48,194.627 504.5,195.5C 504.5,195.833 504.5,196.167 504.5,196.5C 499.793,196.931 495.793,195.598 492.5,192.5 Z"/></g>
<g><path style="opacity:1" fill="#c8b572" d="M 519.5,257.5 C 518.737,258.268 517.737,258.768 516.5,259C 509.174,259.5 501.841,259.666 494.5,259.5C 493.658,264.787 493.324,270.12 493.5,275.5C 492.281,269.643 492.281,263.643 493.5,257.5C 502.18,258.645 510.847,258.645 519.5,257.5 Z"/></g>
<g><path style="opacity:0.024" fill="#a6a6a6" d="M 721.5,255.5 C 717.957,263.949 712.957,271.282 706.5,277.5C 706.351,276.448 706.517,275.448 707,274.5C 711.353,269.108 715.187,263.442 718.5,257.5C 719.357,256.575 720.357,255.908 721.5,255.5 Z"/></g>
<g><path style="opacity:0.869" fill="#60605f" d="M 600.5,144.5 C 601.167,146.167 601.833,147.833 602.5,149.5C 603.66,222.46 603.827,295.46 603,368.5C 601.513,372.333 598.68,374.333 594.5,374.5C 589.167,374.5 583.833,374.5 578.5,374.5C 575.287,374.81 572.287,374.477 569.5,373.5C 569.5,372.833 569.5,372.167 569.5,371.5C 578.786,372.613 588.119,372.78 597.5,372C 599.723,371.348 600.89,369.848 601,367.5C 601.753,293.162 601.586,218.829 600.5,144.5 Z"/></g>
<g><path style="opacity:0.055" fill="#a0a0a0" d="M 706.5,277.5 C 703.589,282.746 699.922,287.413 695.5,291.5C 697.322,285.349 700.988,280.682 706.5,277.5 Z"/></g>
<g><path style="opacity:0.686" fill="#8d8d8d" d="M 703.5,270.5 C 703.649,271.552 703.483,272.552 703,273.5C 698.738,278.396 694.738,283.396 691,288.5C 688.337,290.334 685.837,292.334 683.5,294.5C 688.417,287.41 693.917,280.743 700,274.5C 700.057,272.09 701.224,270.756 703.5,270.5 Z"/></g>
<g><path style="opacity:1" fill="#5d5640" d="M 569.5,277.5 C 569.213,282.747 566.88,286.747 562.5,289.5C 565.206,285.714 567.539,281.714 569.5,277.5 Z"/></g>
<g><path style="opacity:0.896" fill="#6b6a6a" d="M 486.5,267.5 C 486.691,275.543 488.358,283.209 491.5,290.5C 490.167,289.833 488.833,289.167 487.5,288.5C 485.567,281.429 485.234,274.429 486.5,267.5 Z"/></g>
<g><path style="opacity:0.247" fill="#989898" d="M 683.5,294.5 C 683.223,297.683 681.556,299.683 678.5,300.5C 678.772,297.268 680.438,295.268 683.5,294.5 Z"/></g>
<g><path style="opacity:0.431" fill="#919290" d="M 487.5,288.5 C 488.833,289.167 490.167,289.833 491.5,290.5C 492.32,292.812 493.153,295.146 494,297.5C 497.256,301.414 500.756,305.08 504.5,308.5C 502.059,307.443 499.725,306.11 497.5,304.5C 493.144,299.783 489.81,294.45 487.5,288.5 Z"/></g>
<g><path style="opacity:0.196" fill="#9a9a9a" d="M 695.5,291.5 C 691.489,297.175 686.823,302.175 681.5,306.5C 684.828,300.174 689.495,295.174 695.5,291.5 Z"/></g>
<g><path style="opacity:0.278" fill="#9e9e9e" d="M 678.5,300.5 C 677.766,301.708 677.433,303.041 677.5,304.5C 676.5,304.5 675.5,304.5 674.5,304.5C 674.833,302.167 676.167,300.833 678.5,300.5 Z"/></g>
<g><path style="opacity:1" fill="#d7c172" d="M 499.5,291.5 C 501.804,293.626 504.304,295.626 507,297.5C 507.5,297.167 508,296.833 508.5,296.5C 507.833,295.5 507.167,294.5 506.5,293.5C 506.833,293.167 507.167,292.833 507.5,292.5C 509.22,293.955 511.22,294.788 513.5,295C 512.5,295.833 511.5,296.667 510.5,297.5C 511.098,298.795 511.598,300.128 512,301.5C 514.611,302.071 517.111,302.904 519.5,304C 522.667,304.167 525.833,304.333 529,304.5C 534.711,304.324 540.211,303.324 545.5,301.5C 542.466,304.241 538.799,305.741 534.5,306C 519.55,308.639 507.883,303.805 499.5,291.5 Z"/></g>
<g><path style="opacity:0.188" fill="#b6b6b6" d="M 674.5,304.5 C 674.107,306.284 673.441,307.95 672.5,309.5C 671.833,309.5 671.167,309.5 670.5,309.5C 671.08,307.251 672.413,305.585 674.5,304.5 Z"/></g>
<g><path style="opacity:0.216" fill="#a1a1a1" d="M 681.5,306.5 C 681.228,309.732 679.562,311.732 676.5,312.5C 676.687,309.31 678.354,307.31 681.5,306.5 Z"/></g>
<g><path style="opacity:0.599" fill="#575757" d="M 609.5,74.5 C 608.84,167.794 609.007,261.127 610,354.5C 610.109,359.614 610.776,364.614 612,369.5C 616.351,371.728 620.851,373.395 625.5,374.5C 621.846,374.058 618.179,373.724 614.5,373.5C 611.459,372.625 609.625,370.625 609,367.5C 608.667,361.5 608.333,355.5 608,349.5C 607.716,270.665 607.216,191.832 606.5,113C 606.519,100.457 606.852,87.9565 607.5,75.5C 608.167,75.1667 608.833,74.8333 609.5,74.5 Z"/></g>
<g><path style="opacity:0.406" fill="#9d9e9d" d="M 504.5,308.5 C 509.715,310.516 515.049,312.35 520.5,314C 528.578,314.685 536.578,314.185 544.5,312.5C 544.815,316.371 544.482,320.038 543.5,323.5C 542.834,320.311 542.167,316.977 541.5,313.5C 539.453,315.015 537.119,315.849 534.5,316C 524.584,317.55 515.251,315.883 506.5,311C 505.619,310.292 504.953,309.458 504.5,308.5 Z"/></g>
<g><path style="opacity:0.375" fill="#727272" d="M 670.5,309.5 C 671.167,309.5 671.833,309.5 672.5,309.5C 668.989,314.197 666.322,319.197 664.5,324.5C 664.172,318.467 666.172,313.467 670.5,309.5 Z"/></g>
<g><path style="opacity:0.067" fill="#bdbdbd" d="M 676.5,312.5 C 674.453,317.249 672.453,321.915 670.5,326.5C 670.007,320.613 672.007,315.946 676.5,312.5 Z"/></g>
<g><path style="opacity:0.231" fill="#97949a" d="M 543.5,325.5 C 545.369,327.635 546.036,330.302 545.5,333.5C 544.833,333.5 544.167,333.5 543.5,333.5C 543.5,330.833 543.5,328.167 543.5,325.5 Z"/></g>
<g><path style="opacity:0.012" fill="#e7e7e8" d="M 543.5,333.5 C 544.167,333.5 544.833,333.5 545.5,333.5C 545.5,336.833 545.5,340.167 545.5,343.5C 543.598,340.663 542.931,337.329 543.5,333.5 Z"/></g>
<g><path style="opacity:0.184" fill="#a4a4a4" d="M 663.5,336.5 C 664.01,339.388 663.344,341.721 661.5,343.5C 661.927,340.99 662.593,338.657 663.5,336.5 Z"/></g>
<g><path style="opacity:1" fill="#7c714d" d="M 549.5,330.5 C 550.889,335.269 551.556,340.269 551.5,345.5C 550.111,340.731 549.444,335.731 549.5,330.5 Z"/></g>
<g><path style="opacity:0.149" fill="#858585" d="M 669.5,337.5 C 669.693,341.566 669.36,345.566 668.5,349.5C 667.833,349.5 667.167,349.5 666.5,349.5C 666.532,345.017 667.532,341.017 669.5,337.5 Z"/></g>
<g><path style="opacity:0.01" fill="#dedede" d="M 666.5,349.5 C 667.167,349.5 667.833,349.5 668.5,349.5C 668.023,352.438 667.023,355.104 665.5,357.5C 665.575,354.794 665.908,352.127 666.5,349.5 Z"/></g>
<g><path style="opacity:0.871" fill="#5f6160" d="M 545.5,346.5 C 546.167,346.833 546.833,347.167 547.5,347.5C 547.335,350.518 547.502,353.518 548,356.5C 549.136,359.096 549.969,361.763 550.5,364.5C 548.016,362.88 546.516,360.547 546,357.5C 545.501,353.848 545.335,350.182 545.5,346.5 Z"/></g>
<g><path style="opacity:0.565" fill="#8e8e8e" d="M 661.5,345.5 C 662.629,347.628 662.796,349.961 662,352.5C 661.764,354.119 660.931,355.119 659.5,355.5C 659.788,352.061 660.454,348.728 661.5,345.5 Z"/></g>
<g><path style="opacity:0.004" fill="#d7d7d7" d="M 665.5,357.5 C 665.741,359.898 665.074,361.898 663.5,363.5C 663.595,361.214 664.262,359.214 665.5,357.5 Z"/></g>
<g><path style="opacity:0.776" fill="#676767" d="M 659.5,355.5 C 660.602,361.307 658.269,364.641 652.5,365.5C 655.111,362.361 657.445,359.028 659.5,355.5 Z"/></g>
<g><path style="opacity:0.216" fill="#89888c" d="M 550.5,364.5 C 551.552,364.351 552.552,364.517 553.5,365C 557.82,369.584 563.154,371.751 569.5,371.5C 569.5,372.167 569.5,372.833 569.5,373.5C 561.538,373.615 555.205,370.615 550.5,364.5 Z"/></g>
<g><path style="opacity:0.145" fill="#a1a1a1" d="M 663.5,363.5 C 660.828,369.002 656.495,372.335 650.5,373.5C 654.828,370.174 659.161,366.84 663.5,363.5 Z"/></g>
<g><path style="opacity:0.176" fill="#959595" d="M 652.5,365.5 C 652.586,366.496 652.252,367.329 651.5,368C 645.342,369.919 639.009,370.752 632.5,370.5C 628.435,370.489 624.768,369.822 621.5,368.5C 628.841,368.666 636.174,368.5 643.5,368C 646.652,367.605 649.652,366.772 652.5,365.5 Z"/></g>
<g><path style="opacity:0.035" fill="#f2f2f0" d="M 578.5,374.5 C 583.833,374.5 589.167,374.5 594.5,374.5C 589.154,377.038 583.821,377.038 578.5,374.5 Z"/></g>
<g><path style="opacity:0.067" fill="#b8b8b8" d="M 614.5,373.5 C 618.179,373.724 621.846,374.058 625.5,374.5C 633.858,374.621 642.191,374.288 650.5,373.5C 649.158,374.793 647.491,375.626 645.5,376C 637.5,376.667 629.5,376.667 621.5,376C 618.809,375.844 616.476,375.011 614.5,373.5 Z"/></g>
<g><path style="opacity:0.829" fill="#3e3e3e" d="M 653.5,382.5 C 652.527,382.013 651.527,381.513 650.5,381C 620.5,380.333 590.5,380.333 560.5,381C 559.099,381.41 557.766,381.91 556.5,382.5C 556.574,380.589 557.574,379.422 559.5,379C 589.833,378.333 620.167,378.333 650.5,379C 652.426,379.422 653.426,380.589 653.5,382.5 Z"/></g>
<g><path style="opacity:0.995" fill="#161616" d="M 653.5,382.5 C 655.161,387.343 653.494,390.51 648.5,392C 619.095,392.824 589.761,392.658 560.5,391.5C 558.187,388.98 556.854,385.98 556.5,382.5C 557.766,381.91 559.099,381.41 560.5,381C 590.5,380.333 620.5,380.333 650.5,381C 651.527,381.513 652.527,382.013 653.5,382.5 Z"/></g>
<g><path style="opacity:0.529" fill="#757575" d="M 556.5,382.5 C 556.854,385.98 558.187,388.98 560.5,391.5C 555.751,389.933 554.417,386.933 556.5,382.5 Z"/></g>
<g><path style="opacity:0.857" fill="#2b2b2b" d="M 653.5,399.5 C 652.357,399.092 651.357,398.425 650.5,397.5C 620.172,396.333 589.839,396.167 559.5,397C 558.756,398.039 557.756,398.539 556.5,398.5C 556.953,397.542 557.619,396.708 558.5,396C 589.5,395.333 620.5,395.333 651.5,396C 652.823,396.816 653.489,397.983 653.5,399.5 Z"/></g>
<g><path style="opacity:0.94" fill="#010101" d="M 653.5,399.5 C 654.833,401.167 654.833,402.833 653.5,404.5C 651.174,405.145 649.507,406.478 648.5,408.5C 619.5,408.5 590.5,408.5 561.5,408.5C 560.793,406.866 559.627,405.532 558,404.5C 557.802,402.618 557.302,400.952 556.5,399.5C 556.5,399.167 556.5,398.833 556.5,398.5C 557.756,398.539 558.756,398.039 559.5,397C 589.839,396.167 620.172,396.333 650.5,397.5C 651.357,398.425 652.357,399.092 653.5,399.5 Z"/></g>
<g><path style="opacity:0.137" fill="#6a6a6a" d="M 556.5,399.5 C 557.302,400.952 557.802,402.618 558,404.5C 559.627,405.532 560.793,406.866 561.5,408.5C 557.655,408.152 555.655,405.985 555.5,402C 555.528,400.93 555.861,400.097 556.5,399.5 Z"/></g>
<g><path style="opacity:0.114" fill="#858585" d="M 653.5,404.5 C 653.033,407.297 651.367,408.631 648.5,408.5C 649.507,406.478 651.174,405.145 653.5,404.5 Z"/></g>
<g><path style="opacity:0.006" fill="#a8a8a8" d="M 568.5,412.5 C 568.672,413.492 568.338,414.158 567.5,414.5C 566.243,413.377 566.576,412.711 568.5,412.5 Z"/></g>
<g><path style="opacity:0.954" fill="#0b0b0b" d="M 642.5,413.5 C 639.373,417.846 637.373,422.846 636.5,428.5C 615.156,428.833 593.823,428.5 572.5,427.5C 571.347,424.029 570.014,420.696 568.5,417.5C 569.757,416.377 569.424,415.711 567.5,415.5C 567.5,415.167 567.5,414.833 567.5,414.5C 568.338,414.158 568.672,413.492 568.5,412.5C 591.161,412.53 613.995,412.197 637,411.5C 639.295,411.547 641.129,412.213 642.5,413.5 Z"/></g>
<g><path style="opacity:0.11" fill="#9f9f9f" d="M 567.5,415.5 C 569.424,415.711 569.757,416.377 568.5,417.5C 567.662,417.158 567.328,416.492 567.5,415.5 Z"/></g>
<g><path style="opacity:0.447" fill="#6a6a6a" d="M 642.5,413.5 C 641.627,419.154 639.627,424.154 636.5,428.5C 637.373,422.846 639.373,417.846 642.5,413.5 Z"/></g>
</svg>
