<?xml version="1.0" encoding="UTF-8"?>
<!DOCTYPE svg PUBLIC "-//W3C//DTD SVG 1.1//EN" "http://www.w3.org/Graphics/SVG/1.1/DTD/svg11.dtd">
<svg xmlns="http://www.w3.org/2000/svg" version="1.1" width="700px" height="500px" style="shape-rendering:geometricPrecision; text-rendering:geometricPrecision; image-rendering:optimizeQuality; fill-rule:evenodd; clip-rule:evenodd" xmlns:xlink="http://www.w3.org/1999/xlink">
<g><path style="opacity:0.07" fill="#eaeaea" d="M 181.5,51.5 C 174.159,51.3337 166.826,51.5003 159.5,52C 158.619,52.7083 157.953,53.5416 157.5,54.5C 157.167,54.5 156.833,54.5 156.5,54.5C 156.48,52.857 157.147,51.5237 158.5,50.5C 165.811,49.3354 173.144,49.1687 180.5,50C 181.056,50.3826 181.389,50.8826 181.5,51.5 Z"/></g>
<g><path style="opacity:0.999" fill="#111111" d="M 181.5,51.5 C 214.299,58.2655 240.632,75.2655 260.5,102.5C 268.661,116.492 275.495,131.159 281,146.5C 282.498,153.811 283.664,161.144 284.5,168.5C 284.479,177.182 284.146,185.848 283.5,194.5C 280.481,210.548 274.647,225.548 266,239.5C 257.439,251.971 247.939,263.637 237.5,274.5C 237.517,272.435 237.85,270.435 238.5,268.5C 244.166,261.998 249.666,255.331 255,248.5C 255.791,247.255 256.291,245.922 256.5,244.5C 259.68,241.474 262.347,237.974 264.5,234C 266.948,228.57 269.782,223.403 273,218.5C 275.203,211.982 276.703,205.316 277.5,198.5C 278.765,197.486 279.431,195.986 279.5,194C 281.09,181.626 280.757,169.459 278.5,157.5C 277.262,153.671 276.262,149.671 275.5,145.5C 275.245,143.033 274.245,141.033 272.5,139.5C 263.41,112.614 247.41,91.1144 224.5,75C 223.552,74.5172 222.552,74.3505 221.5,74.5C 219.087,72.1128 216.42,69.9461 213.5,68C 197.886,61.2681 181.553,58.1015 164.5,58.5C 164.5,61.8333 164.5,65.1667 164.5,68.5C 163.669,82.6608 163.169,96.9941 163,111.5C 162.5,157.499 162.333,203.499 162.5,249.5C 162.333,281.502 162.5,313.502 163,345.5C 163.383,346.056 163.883,346.389 164.5,346.5C 165.167,346.5 165.5,346.833 165.5,347.5C 170.233,349.046 175.233,349.713 180.5,349.5C 184.349,349.499 188.016,349.165 191.5,348.5C 193.167,348.5 194.833,348.5 196.5,348.5C 198.679,347.941 200.846,347.274 203,346.5C 203.765,346.57 204.265,346.903 204.5,347.5C 200.546,350.235 196.213,351.902 191.5,352.5C 182.792,352.745 174.126,352.411 165.5,351.5C 163.164,349.996 161.331,347.996 160,345.5C 159.667,341.167 159.333,336.833 159,332.5C 158.833,278.665 158.333,224.998 157.5,171.5C 157.5,132.5 157.5,93.5 157.5,54.5C 157.953,53.5416 158.619,52.7083 159.5,52C 166.826,51.5003 174.159,51.3337 181.5,51.5 Z"/></g>
<g><path style="opacity:0.204" fill="#d5d6d5" d="M 79.5,52.5 C 72.2393,56.7587 66.2393,62.4254 61.5,69.5C 61.1436,71.1898 60.1436,72.1898 58.5,72.5C 62.2342,62.4558 69.2342,55.7891 79.5,52.5 Z"/></g>
<g><path style="opacity:1" fill="#383938" d="M 107.5,56.5 C 95.9177,52.0218 84.5843,52.5218 73.5,58C 69.584,62.0861 65.584,65.9195 61.5,69.5C 66.2393,62.4254 72.2393,56.7587 79.5,52.5C 79.8333,52.5 80.1667,52.5 80.5,52.5C 90.1008,50.5851 99.1008,51.9185 107.5,56.5 Z"/></g>
<g><path style="opacity:0.094" fill="#e4e3e3" d="M 151.5,123.5 C 150.515,119.366 150.182,115.032 150.5,110.5C 150.733,94.1431 150.233,77.8098 149,61.5C 146.552,60.0268 144.052,58.6935 141.5,57.5C 131.564,51.921 121.731,52.2543 112,58.5C 110.594,57.5862 109.094,56.9195 107.5,56.5C 99.1008,51.9185 90.1008,50.5851 80.5,52.5C 81.6808,50.9328 83.3474,50.0995 85.5,50C 95.4105,48.9559 104.244,51.4559 112,57.5C 114.194,54.8194 117.027,53.3194 120.5,53C 125.5,52.3333 130.5,52.3333 135.5,53C 140.816,54.6636 145.816,56.8303 150.5,59.5C 151.346,80.8215 151.679,102.155 151.5,123.5 Z"/></g>
<g><path style="opacity:1" fill="#10100e" d="M 141.5,57.5 C 141.631,58.3764 141.298,59.0431 140.5,59.5C 138.929,58.6906 137.262,58.3573 135.5,58.5C 133.19,57.8362 130.69,57.5029 128,57.5C 124.195,57.3037 120.695,57.9704 117.5,59.5C 116.624,59.6309 115.957,59.2975 115.5,58.5C 117.369,57.3764 119.369,56.5431 121.5,56C 128.277,55.2008 134.943,55.7008 141.5,57.5 Z"/></g>
<g><path style="opacity:1" fill="#837a56" d="M 100.5,58.5 C 94.7969,58.3748 89.1302,58.7081 83.5,59.5C 86.5256,57.9814 89.8589,57.3148 93.5,57.5C 96.0254,57.5034 98.3587,57.8367 100.5,58.5 Z"/></g>
<g><path style="opacity:1" fill="#383631" d="M 141.5,57.5 C 134.943,55.7008 128.277,55.2008 121.5,56C 119.369,56.5431 117.369,57.3764 115.5,58.5C 115.957,59.2975 116.624,59.6309 117.5,59.5C 115.799,60.7342 113.799,61.4008 111.5,61.5C 107.94,60.8654 104.606,59.8654 101.5,58.5C 104.082,58.9746 106.082,58.3079 107.5,56.5C 109.094,56.9195 110.594,57.5862 112,58.5C 121.731,52.2543 131.564,51.921 141.5,57.5 Z"/></g>
<g><path style="opacity:1" fill="#998d5d" d="M 135.5,58.5 C 129.464,58.3599 123.464,58.6932 117.5,59.5C 120.695,57.9704 124.195,57.3037 128,57.5C 130.69,57.5029 133.19,57.8362 135.5,58.5 Z"/></g>
<g><path style="opacity:1" fill="#f4d669" d="M 100.5,58.5 C 100.833,58.5 101.167,58.5 101.5,58.5C 104.606,59.8654 107.94,60.8654 111.5,61.5C 113.799,61.4008 115.799,60.7342 117.5,59.5C 123.464,58.6932 129.464,58.3599 135.5,58.5C 138.683,60.01 142.016,61.3433 145.5,62.5C 145.5,70.5 145.5,78.5 145.5,86.5C 144.085,112.321 143.252,138.321 143,164.5C 142.5,224.499 142.333,284.499 142.5,344.5C 133.151,344.517 123.818,344.183 114.5,343.5C 104.036,341.018 99.3698,334.352 100.5,323.5C 100.414,319.143 100.08,314.81 99.5,310.5C 99.5665,305.362 98.8998,300.362 97.5,295.5C 97.5,293.5 97.5,291.5 97.5,289.5C 101.406,288.772 104.74,286.938 107.5,284C 109.207,283.805 110.874,283.805 112.5,284C 113.794,279.867 116.461,277.367 120.5,276.5C 119.891,271.255 121.057,266.588 124,262.5C 126.084,256.431 125.918,250.431 123.5,244.5C 122.086,245.624 120.586,246.624 119,247.5C 118.667,247.167 118.333,246.833 118,246.5C 117.667,249.5 117.333,252.5 117,255.5C 115.245,256.67 114.245,258.337 114,260.5C 113.667,260.167 113.333,259.833 113,259.5C 111.991,261.025 111.491,262.692 111.5,264.5C 106.669,264.162 105.335,266.162 107.5,270.5C 106.167,270.5 104.833,270.5 103.5,270.5C 103.5,272.167 103.5,273.833 103.5,275.5C 98.5036,279.497 92.837,282.164 86.5,283.5C 78.7989,283.691 71.1322,283.358 63.5,282.5C 61.6316,281.737 59.9649,280.737 58.5,279.5C 57.4154,277.413 55.7488,276.08 53.5,275.5C 47.7048,270.513 44.2048,264.18 43,256.5C 42.5004,249.508 42.3337,242.508 42.5,235.5C 44.8056,235.993 47.139,236.326 49.5,236.5C 56.3209,237.655 63.3209,237.821 70.5,237C 74.0523,236.122 77.3856,234.956 80.5,233.5C 82.4144,232.815 84.4144,232.315 86.5,232C 89.5919,231.066 89.9253,229.9 87.5,228.5C 84.4815,229.17 81.4815,229.837 78.5,230.5C 68.1985,231.4 57.8652,231.733 47.5,231.5C 32.3568,229.099 22.0235,220.766 16.5,206.5C 16.2865,204.856 16.6198,203.356 17.5,202C 16.2289,199.446 15.5623,196.613 15.5,193.5C 15.6667,190.833 15.8333,188.167 16,185.5C 18.0237,181.819 20.0237,178.152 22,174.5C 23.3561,173.62 24.8561,173.286 26.5,173.5C 26.2148,171.712 26.5481,170.045 27.5,168.5C 28.6223,169.63 29.9557,170.297 31.5,170.5C 37.1842,175.507 43.8508,178.673 51.5,180C 59.9006,180.47 68.234,180.137 76.5,179C 79.9598,188.96 86.6265,195.793 96.5,199.5C 97.4077,198.21 97.241,196.877 96,195.5C 91.476,191.155 87.976,186.155 85.5,180.5C 83.6723,172.309 83.0056,163.976 83.5,155.5C 85.1326,151.341 86.1326,147.008 86.5,142.5C 85.325,142.281 84.325,142.614 83.5,143.5C 79.3556,148.362 76.8556,154.029 76,160.5C 75.8255,165.351 75.3255,170.018 74.5,174.5C 65.8537,175.614 57.1871,175.614 48.5,174.5C 37.5671,170.901 30.2337,163.567 26.5,152.5C 25.1667,142.833 25.1667,133.167 26.5,123.5C 27.3403,121.147 28.6736,119.147 30.5,117.5C 31.4822,116.859 32.4822,116.193 33.5,115.5C 34.1997,118.015 35.5331,118.682 37.5,117.5C 40.0897,115.996 40.7563,113.996 39.5,111.5C 40.8853,107.455 43.7186,105.455 48,105.5C 48.3333,107.833 48.6667,110.167 49,112.5C 49.2896,110.956 49.9563,109.623 51,108.5C 54.1224,111.11 56.6224,114.11 58.5,117.5C 59.0672,120.212 59.4005,122.879 59.5,125.5C 60.3857,124.675 60.719,123.675 60.5,122.5C 61.5,122.5 62.5,122.5 63.5,122.5C 68.5515,127.72 74.0515,132.387 80,136.5C 80.5,136.167 81,135.833 81.5,135.5C 74.6268,128.641 68.9602,120.974 64.5,112.5C 63.1174,106.625 61.7841,100.792 60.5,95C 61.2332,89.3392 62.5666,83.8392 64.5,78.5C 68.5,69.8333 74.8333,63.5 83.5,59.5C 89.1302,58.7081 94.7969,58.3748 100.5,58.5 Z"/></g>
<g><path style="opacity:1" fill="#060605" d="M 145.5,62.5 C 146.189,61.2264 147.023,61.2264 148,62.5C 149.134,78.4806 149.634,94.4806 149.5,110.5C 150.688,189.871 150.688,269.204 149.5,348.5C 148.313,350.975 146.313,351.975 143.5,351.5C 131.278,351.805 119.278,350.472 107.5,347.5C 101.71,344.688 98.0431,340.021 96.5,333.5C 95.933,319.827 95.2664,306.161 94.5,292.5C 95.1667,293.5 95.8333,294.5 96.5,295.5C 97.4258,300.463 98.0925,305.463 98.5,310.5C 98.2796,315.1 98.9462,319.433 100.5,323.5C 99.3698,334.352 104.036,341.018 114.5,343.5C 119.863,345.998 125.696,346.998 132,346.5C 135.833,346.333 139.667,346.167 143.5,346C 144.056,345.617 144.389,345.117 144.5,344.5C 145.443,272.001 146.11,199.334 146.5,126.5C 146.5,104.997 146.167,83.664 145.5,62.5 Z"/></g>
<g><path style="opacity:0.09" fill="#dbdbdb" d="M 181.5,51.5 C 208.117,54.7251 230.617,66.0584 249,85.5C 251.596,89.0191 254.429,92.3525 257.5,95.5C 259.02,97.6621 260.02,99.9954 260.5,102.5C 240.632,75.2655 214.299,58.2655 181.5,51.5 Z"/></g>
<g><path style="opacity:0.953" fill="#605f5d" d="M 141.5,57.5 C 144.052,58.6935 146.552,60.0268 149,61.5C 150.233,77.8098 150.733,94.1431 150.5,110.5C 150.167,110.5 149.833,110.5 149.5,110.5C 149.634,94.4806 149.134,78.4806 148,62.5C 147.023,61.2264 146.189,61.2264 145.5,62.5C 142.016,61.3433 138.683,60.01 135.5,58.5C 137.262,58.3573 138.929,58.6906 140.5,59.5C 141.298,59.0431 141.631,58.3764 141.5,57.5 Z"/></g>
<g><path style="opacity:0.436" fill="#c6c6c6" d="M 156.5,54.5 C 156.833,54.5 157.167,54.5 157.5,54.5C 157.5,93.5 157.5,132.5 157.5,171.5C 157.5,223.833 157.5,276.167 157.5,328.5C 156.716,249.833 156.049,170.999 155.5,92C 155.519,79.4565 155.852,66.9565 156.5,54.5 Z"/></g>
<g><path style="opacity:0.541" fill="#bcbebd" d="M 58.5,72.5 C 57.5818,77.2179 55.9151,81.5512 53.5,85.5C 53.3398,83.8008 53.5065,82.1341 54,80.5C 54.8596,77.3672 56.3596,74.7005 58.5,72.5 Z"/></g>
<g><path style="opacity:0.015" fill="#e3e3e3" d="M 53.5,85.5 C 53.6653,89.1817 53.4986,92.8484 53,96.5C 51.6439,97.3802 50.1439,97.7135 48.5,97.5C 48.811,96.5222 49.4777,95.8555 50.5,95.5C 51.0133,91.8791 52.0133,88.5458 53.5,85.5 Z"/></g>
<g><path style="opacity:0.078" fill="#dadada" d="M 221.5,74.5 C 222.552,74.3505 223.552,74.5172 224.5,75C 247.41,91.1144 263.41,112.614 272.5,139.5C 272.5,140.167 272.5,140.833 272.5,141.5C 263.836,120.706 251.503,102.206 235.5,86C 230.539,82.3764 225.873,78.543 221.5,74.5 Z"/></g>
<g><path style="opacity:0.616" fill="#b7b7b7" d="M 48.5,97.5 C 45.2721,99.7066 41.6055,101.373 37.5,102.5C 40.6448,99.8872 44.3114,98.2205 48.5,97.5 Z"/></g>
<g><path style="opacity:1" fill="#c3b270" d="M 64.5,78.5 C 62.5666,83.8392 61.2332,89.3392 60.5,95C 61.7841,100.792 63.1174,106.625 64.5,112.5C 59.4022,103.827 58.2355,94.4937 61,84.5C 61.4238,81.9746 62.5905,79.9746 64.5,78.5 Z"/></g>
<g><path style="opacity:0.09" fill="#cbcbcc" d="M 37.5,102.5 C 32.8594,106.805 28.1927,111.139 23.5,115.5C 25.5497,111.773 28.2164,108.439 31.5,105.5C 33.5336,104.441 35.5336,103.441 37.5,102.5 Z"/></g>
<g><path style="opacity:0.208" fill="#dcdcdc" d="M 200.5,102.5 C 203.216,102.678 205.883,103.178 208.5,104C 223.619,112.447 234.453,124.614 241,140.5C 244.09,150.464 244.256,160.464 241.5,170.5C 240.167,170.5 238.833,170.5 237.5,170.5C 235.848,158.232 232.181,146.565 226.5,135.5C 219.635,125.128 211.468,115.795 202,107.5C 200.991,105.975 200.491,104.308 200.5,102.5 Z"/></g>
<g><path style="opacity:0.999" fill="#161616" d="M 237.5,139.5 C 237.755,141.967 238.755,143.967 240.5,145.5C 240.863,148.989 241.196,152.489 241.5,156C 241.577,159.339 240.91,162.505 239.5,165.5C 236.161,149.157 229.327,134.491 219,121.5C 213.5,116 208,110.5 202.5,105C 204.92,105.025 207.253,105.691 209.5,107C 218.636,112.805 226.469,119.972 233,128.5C 235.066,131.961 236.566,135.627 237.5,139.5 Z"/></g>
<g><path style="opacity:1" fill="#9c8e5d" d="M 26.5,123.5 C 25.1667,133.167 25.1667,142.833 26.5,152.5C 22.619,142.821 22.619,133.154 26.5,123.5 Z"/></g>
<g><path style="opacity:1" fill="#161616" d="M 340.5,137.5 C 340.738,139.404 341.738,140.738 343.5,141.5C 344.5,141.833 345.167,142.5 345.5,143.5C 345.427,145.027 346.094,146.027 347.5,146.5C 348.833,147.167 349.833,148.167 350.5,149.5C 350.427,151.027 351.094,152.027 352.5,152.5C 353.5,152.833 354.167,153.5 354.5,154.5C 354.427,156.027 355.094,157.027 356.5,157.5C 357.833,158.167 358.833,159.167 359.5,160.5C 359.427,162.027 360.094,163.027 361.5,163.5C 362.5,163.833 363.167,164.5 363.5,165.5C 363.511,167.017 364.177,168.184 365.5,169C 366.816,169.528 367.483,169.028 367.5,167.5C 368.167,166.167 369.167,165.167 370.5,164.5C 371.906,164.027 372.573,163.027 372.5,161.5C 372.833,160.5 373.5,159.833 374.5,159.5C 375.906,159.027 376.573,158.027 376.5,156.5C 376.833,155.5 377.5,154.833 378.5,154.5C 379.906,154.027 380.573,153.027 380.5,151.5C 381.167,150.167 382.167,149.167 383.5,148.5C 384.906,148.027 385.573,147.027 385.5,145.5C 385.833,144.5 386.5,143.833 387.5,143.5C 388.906,143.027 389.573,142.027 389.5,140.5C 392.532,134.063 396.699,133.063 402,137.5C 402.667,161.167 402.667,184.833 402,208.5C 401.617,209.056 401.117,209.389 400.5,209.5C 397.763,209.599 395.096,209.265 392.5,208.5C 392.833,190.155 392.5,171.821 391.5,153.5C 390.702,153.957 390.369,154.624 390.5,155.5C 383.613,164.649 376.28,173.316 368.5,181.5C 366.435,181.483 364.435,181.15 362.5,180.5C 355.123,172.753 348.457,164.42 342.5,155.5C 342.217,154.711 341.717,154.044 341,153.5C 340.5,171.164 340.333,188.83 340.5,206.5C 340.27,209.465 338.603,210.798 335.5,210.5C 332.699,210.536 330.865,209.203 330,206.5C 329.333,184.167 329.333,161.833 330,139.5C 330.575,136.203 332.575,134.536 336,134.5C 338.183,134.522 339.683,135.522 340.5,137.5 Z"/></g>
<g><path style="opacity:0.999" fill="#121212" d="M 471.5,135.5 C 471.427,137.027 472.094,138.027 473.5,138.5C 474.385,140.673 473.718,142.506 471.5,144C 458.171,144.5 444.837,144.667 431.5,144.5C 430.508,152.316 430.174,160.316 430.5,168.5C 441.167,168.5 451.833,168.5 462.5,168.5C 466.371,170.981 466.371,173.648 462.5,176.5C 451.833,176.5 441.167,176.5 430.5,176.5C 430.5,184.833 430.5,193.167 430.5,201.5C 443.833,201.5 457.167,201.5 470.5,201.5C 470.833,201.5 471.167,201.5 471.5,201.5C 471.427,203.027 472.094,204.027 473.5,204.5C 474.272,206.53 473.606,208.363 471.5,210C 455.167,210.667 438.833,210.667 422.5,210C 421.107,208.829 420.273,207.329 420,205.5C 419.031,182.437 419.365,159.437 421,136.5C 421.75,135.874 422.584,135.374 423.5,135C 439.574,134.183 455.574,134.35 471.5,135.5 Z"/></g>
<g><path style="opacity:1" fill="#191919" d="M 496.5,137.5 C 496.427,139.027 497.094,140.027 498.5,140.5C 499.5,140.833 500.167,141.5 500.5,142.5C 500.427,144.027 501.094,145.027 502.5,145.5C 503.5,145.833 504.167,146.5 504.5,147.5C 504.427,149.027 505.094,150.027 506.5,150.5C 507.5,150.833 508.167,151.5 508.5,152.5C 508.427,154.027 509.094,155.027 510.5,155.5C 511.5,155.833 512.167,156.5 512.5,157.5C 512.427,159.027 513.094,160.027 514.5,160.5C 515.5,160.833 516.167,161.5 516.5,162.5C 516.427,164.027 517.094,165.027 518.5,165.5C 519.5,165.833 520.167,166.5 520.5,167.5C 520.427,169.027 521.094,170.027 522.5,170.5C 523.5,170.833 524.167,171.5 524.5,172.5C 524.427,174.027 525.094,175.027 526.5,175.5C 527.5,175.833 528.167,176.5 528.5,177.5C 528.427,179.027 529.094,180.027 530.5,180.5C 531.5,180.833 532.167,181.5 532.5,182.5C 532.427,184.027 533.094,185.027 534.5,185.5C 535.5,185.833 536.167,186.5 536.5,187.5C 536.427,189.027 537.094,190.027 538.5,190.5C 539.332,172.671 539.832,154.671 540,136.5C 544.2,133.34 547.533,134.006 550,138.5C 550.667,161.5 550.667,184.5 550,207.5C 546.59,212.556 542.923,212.556 539,207.5C 525.667,190.005 512.167,172.671 498.5,155.5C 498.217,154.711 497.717,154.044 497,153.5C 496.5,171.164 496.333,188.83 496.5,206.5C 496.27,209.465 494.603,210.798 491.5,210.5C 488.699,210.536 486.865,209.203 486,206.5C 485.333,184.167 485.333,161.833 486,139.5C 486.441,136.355 488.275,134.688 491.5,134.5C 493.692,134.757 495.359,135.757 496.5,137.5 Z"/></g>
<g><path style="opacity:1" fill="#0e0e0e" d="M 615.5,144.5 C 608.5,144.5 601.5,144.5 594.5,144.5C 594.5,165.167 594.5,185.833 594.5,206.5C 594.27,209.465 592.603,210.798 589.5,210.5C 586.155,210.489 584.489,208.822 584.5,205.5C 584.5,185.167 584.5,164.833 584.5,144.5C 577.5,144.5 570.5,144.5 563.5,144.5C 560.95,144.116 559.617,142.616 559.5,140C 559.484,137.695 560.484,136.028 562.5,135C 580.5,134.333 598.5,134.333 616.5,135C 620.692,137.239 621.359,140.239 618.5,144C 617.552,144.483 616.552,144.649 615.5,144.5 Z"/></g>
<g><path style="opacity:0.999" fill="#121212" d="M 680.5,135.5 C 680.427,137.027 681.094,138.027 682.5,138.5C 683.385,140.673 682.718,142.506 680.5,144C 667.171,144.5 653.837,144.667 640.5,144.5C 639.508,152.316 639.174,160.316 639.5,168.5C 650.167,168.5 660.833,168.5 671.5,168.5C 675.371,170.981 675.371,173.648 671.5,176.5C 660.833,176.5 650.167,176.5 639.5,176.5C 639.5,184.833 639.5,193.167 639.5,201.5C 652.833,201.5 666.167,201.5 679.5,201.5C 679.833,201.5 680.167,201.5 680.5,201.5C 680.427,203.027 681.094,204.027 682.5,204.5C 683.272,206.53 682.606,208.363 680.5,210C 664.167,210.667 647.833,210.667 631.5,210C 630.107,208.829 629.273,207.329 629,205.5C 628.031,182.437 628.365,159.437 630,136.5C 630.75,135.874 631.584,135.374 632.5,135C 648.574,134.183 664.574,134.35 680.5,135.5 Z"/></g>
<g><path style="opacity:0.569" fill="#838383" d="M 471.5,135.5 C 472.906,135.973 473.573,136.973 473.5,138.5C 472.094,138.027 471.427,137.027 471.5,135.5 Z"/></g>
<g><path style="opacity:0.569" fill="#838383" d="M 680.5,135.5 C 681.906,135.973 682.573,136.973 682.5,138.5C 681.094,138.027 680.427,137.027 680.5,135.5 Z"/></g>
<g><path style="opacity:0.792" fill="#8a8a8a" d="M 340.5,137.5 C 342.262,138.262 343.262,139.596 343.5,141.5C 341.738,140.738 340.738,139.404 340.5,137.5 Z"/></g>
<g><path style="opacity:0.733" fill="#8e8e8e" d="M 496.5,137.5 C 497.906,137.973 498.573,138.973 498.5,140.5C 497.094,140.027 496.427,139.027 496.5,137.5 Z"/></g>
<g><path style="opacity:0.655" fill="#6d6d6d" d="M 237.5,139.5 C 239.245,141.033 240.245,143.033 240.5,145.5C 238.755,143.967 237.755,141.967 237.5,139.5 Z"/></g>
<g><path style="opacity:0.718" fill="#757575" d="M 272.5,139.5 C 274.245,141.033 275.245,143.033 275.5,145.5C 274.143,144.41 273.143,143.076 272.5,141.5C 272.5,140.833 272.5,140.167 272.5,139.5 Z"/></g>
<g><path style="opacity:0.706" fill="#939393" d="M 389.5,140.5 C 389.573,142.027 388.906,143.027 387.5,143.5C 387.427,141.973 388.094,140.973 389.5,140.5 Z"/></g>
<g><path style="opacity:0.733" fill="#8f8f8f" d="M 500.5,142.5 C 501.906,142.973 502.573,143.973 502.5,145.5C 501.094,145.027 500.427,144.027 500.5,142.5 Z"/></g>
<g><path style="opacity:0.741" fill="#8b8b8b" d="M 345.5,143.5 C 346.906,143.973 347.573,144.973 347.5,146.5C 346.094,146.027 345.427,145.027 345.5,143.5 Z"/></g>
<g><path style="opacity:0.027" fill="#f4f4f4" d="M 563.5,144.5 C 570.5,144.5 577.5,144.5 584.5,144.5C 584.5,164.833 584.5,185.167 584.5,205.5C 583.503,185.674 583.17,165.674 583.5,145.5C 576.646,145.824 569.979,145.491 563.5,144.5 Z"/></g>
<g><path style="opacity:0.216" fill="#cdcdcd" d="M 615.5,144.5 C 609.021,145.491 602.354,145.824 595.5,145.5C 595.83,166.007 595.497,186.34 594.5,206.5C 594.5,185.833 594.5,165.167 594.5,144.5C 601.5,144.5 608.5,144.5 615.5,144.5 Z"/></g>
<g><path style="opacity:0.757" fill="#888888" d="M 385.5,145.5 C 385.573,147.027 384.906,148.027 383.5,148.5C 383.427,146.973 384.094,145.973 385.5,145.5 Z"/></g>
<g><path style="opacity:0.729" fill="#8f8f8f" d="M 504.5,147.5 C 505.906,147.973 506.573,148.973 506.5,150.5C 505.094,150.027 504.427,149.027 504.5,147.5 Z"/></g>
<g><path style="opacity:0.682" fill="#989898" d="M 350.5,149.5 C 351.906,149.973 352.573,150.973 352.5,152.5C 351.094,152.027 350.427,151.027 350.5,149.5 Z"/></g>
<g><path style="opacity:0.667" fill="#9b9b9b" d="M 380.5,151.5 C 380.573,153.027 379.906,154.027 378.5,154.5C 378.427,152.973 379.094,151.973 380.5,151.5 Z"/></g>
<g><path style="opacity:0.021" fill="#ececec" d="M 272.5,141.5 C 273.143,143.076 274.143,144.41 275.5,145.5C 276.262,149.671 277.262,153.671 278.5,157.5C 278.5,160.167 278.5,162.833 278.5,165.5C 275.916,157.833 273.916,149.833 272.5,141.5 Z"/></g>
<g><path style="opacity:0.623" fill="#666666" d="M 392.5,208.5 C 391.833,190.833 391.167,173.167 390.5,155.5C 390.369,154.624 390.702,153.957 391.5,153.5C 392.5,171.821 392.833,190.155 392.5,208.5 Z"/></g>
<g><path style="opacity:0.722" fill="#919191" d="M 508.5,152.5 C 509.906,152.973 510.573,153.973 510.5,155.5C 509.094,155.027 508.427,154.027 508.5,152.5 Z"/></g>
<g><path style="opacity:0.2" fill="#cbcbcb" d="M 342.5,155.5 C 341.833,172.5 341.167,189.5 340.5,206.5C 340.333,188.83 340.5,171.164 341,153.5C 341.717,154.044 342.217,154.711 342.5,155.5 Z"/></g>
<g><path style="opacity:0.2" fill="#cccccc" d="M 498.5,155.5 C 497.833,172.5 497.167,189.5 496.5,206.5C 496.333,188.83 496.5,171.164 497,153.5C 497.717,154.044 498.217,154.711 498.5,155.5 Z"/></g>
<g><path style="opacity:0.765" fill="#868686" d="M 354.5,154.5 C 355.906,154.973 356.573,155.973 356.5,157.5C 355.094,157.027 354.427,156.027 354.5,154.5 Z"/></g>
<g><path style="opacity:0.725" fill="#8f8f8f" d="M 376.5,156.5 C 376.573,158.027 375.906,159.027 374.5,159.5C 374.427,157.973 375.094,156.973 376.5,156.5 Z"/></g>
<g><path style="opacity:0.718" fill="#929292" d="M 512.5,157.5 C 513.906,157.973 514.573,158.973 514.5,160.5C 513.094,160.027 512.427,159.027 512.5,157.5 Z"/></g>
<g><path style="opacity:0.71" fill="#929292" d="M 359.5,160.5 C 360.906,160.973 361.573,161.973 361.5,163.5C 360.094,163.027 359.427,162.027 359.5,160.5 Z"/></g>
<g><path style="opacity:0.773" fill="#848484" d="M 372.5,161.5 C 372.573,163.027 371.906,164.027 370.5,164.5C 370.427,162.973 371.094,161.973 372.5,161.5 Z"/></g>
<g><path style="opacity:0.714" fill="#939393" d="M 516.5,162.5 C 517.906,162.973 518.573,163.973 518.5,165.5C 517.094,165.027 516.427,164.027 516.5,162.5 Z"/></g>
<g><path style="opacity:1" fill="#7f7553" d="M 83.5,155.5 C 83.0056,163.976 83.6723,172.309 85.5,180.5C 84.0337,179.653 83.2004,178.32 83,176.5C 82.1787,169.321 82.3454,162.321 83.5,155.5 Z"/></g>
<g><path style="opacity:0.784" fill="#909090" d="M 363.5,165.5 C 364.605,166.6 365.938,167.267 367.5,167.5C 367.483,169.028 366.816,169.528 365.5,169C 364.177,168.184 363.511,167.017 363.5,165.5 Z"/></g>
<g><path style="opacity:0.757" fill="#676767" d="M 431.5,144.5 C 431.5,152.167 431.5,159.833 431.5,167.5C 442.014,167.172 452.347,167.506 462.5,168.5C 451.833,168.5 441.167,168.5 430.5,168.5C 430.174,160.316 430.508,152.316 431.5,144.5 Z"/></g>
<g><path style="opacity:0.757" fill="#676767" d="M 640.5,144.5 C 640.5,152.167 640.5,159.833 640.5,167.5C 651.014,167.172 661.347,167.506 671.5,168.5C 660.833,168.5 650.167,168.5 639.5,168.5C 639.174,160.316 639.508,152.316 640.5,144.5 Z"/></g>
<g><path style="opacity:0.706" fill="#949494" d="M 520.5,167.5 C 521.906,167.973 522.573,168.973 522.5,170.5C 521.094,170.027 520.427,169.027 520.5,167.5 Z"/></g>
<g><path style="opacity:0.482" fill="#c7c7c7" d="M 23.5,115.5 C 16.3811,131.832 17.0477,147.832 25.5,163.5C 21.2027,168.133 16.8694,172.8 12.5,177.5C 15.3328,172.231 18.9994,167.564 23.5,163.5C 16.9291,149.297 15.7624,134.631 20,119.5C 20.66,117.676 21.8267,116.343 23.5,115.5 Z"/></g>
<g><path style="opacity:0.702" fill="#959595" d="M 524.5,172.5 C 525.906,172.973 526.573,173.973 526.5,175.5C 525.094,175.027 524.427,174.027 524.5,172.5 Z"/></g>
<g><path style="opacity:0.032" fill="#f1f1f1" d="M 221.5,74.5 C 214.712,71.0618 207.712,67.8951 200.5,65C 189.31,62.2014 177.977,60.3681 166.5,59.5C 166.14,132.403 165.473,205.236 164.5,278C 165.328,300.094 165.828,322.261 166,344.5C 167.31,345.897 168.81,346.897 170.5,347.5C 168.833,347.5 167.167,347.5 165.5,347.5C 165.5,346.833 165.167,346.5 164.5,346.5C 163.515,314.21 163.181,281.877 163.5,249.5C 163.421,189.164 163.754,128.83 164.5,68.5C 164.5,65.1667 164.5,61.8333 164.5,58.5C 181.553,58.1015 197.886,61.2681 213.5,68C 216.42,69.9461 219.087,72.1128 221.5,74.5 Z"/></g>
<g><path style="opacity:0.761" fill="#585858" d="M 284.5,168.5 C 285.165,171.649 285.498,174.982 285.5,178.5C 285.632,184.077 284.965,189.41 283.5,194.5C 284.146,185.848 284.479,177.182 284.5,168.5 Z"/></g>
<g><path style="opacity:1" fill="#cdba70" d="M 31.5,170.5 C 29.9557,170.297 28.6223,169.63 27.5,168.5C 26.5481,170.045 26.2148,171.712 26.5,173.5C 24.8561,173.286 23.3561,173.62 22,174.5C 20.0237,178.152 18.0237,181.819 16,185.5C 15.8333,188.167 15.6667,190.833 15.5,193.5C 15.5623,196.613 16.2289,199.446 17.5,202C 16.6198,203.356 16.2865,204.856 16.5,206.5C 11.6347,195.289 12.8013,184.622 20,174.5C 22.2848,172.093 24.4514,169.593 26.5,167C 28.7715,167.077 30.4382,168.243 31.5,170.5 Z"/></g>
<g><path style="opacity:0.698" fill="#969696" d="M 528.5,177.5 C 529.906,177.973 530.573,178.973 530.5,180.5C 529.094,180.027 528.427,179.027 528.5,177.5 Z"/></g>
<g><path style="opacity:0.337" fill="#9e9e9e" d="M 362.5,180.5 C 364.435,181.15 366.435,181.483 368.5,181.5C 367.903,182.139 367.07,182.472 366,182.5C 364.301,182.613 363.134,181.947 362.5,180.5 Z"/></g>
<g><path style="opacity:0.69" fill="#979797" d="M 532.5,182.5 C 533.906,182.973 534.573,183.973 534.5,185.5C 533.094,185.027 532.427,184.027 532.5,182.5 Z"/></g>
<g><path style="opacity:0.686" fill="#989898" d="M 536.5,187.5 C 537.906,187.973 538.573,188.973 538.5,190.5C 537.094,190.027 536.427,189.027 536.5,187.5 Z"/></g>
<g><path style="opacity:0.404" fill="#c4c4c4" d="M 278.5,157.5 C 280.757,169.459 281.09,181.626 279.5,194C 279.431,195.986 278.765,197.486 277.5,198.5C 278.32,187.521 278.653,176.521 278.5,165.5C 278.5,162.833 278.5,160.167 278.5,157.5 Z"/></g>
<g><path style="opacity:0.035" fill="#dedede" d="M 231.5,214.5 C 232.325,209.024 234.325,204.024 237.5,199.5C 238.689,198.571 240.022,198.238 241.5,198.5C 241.964,211.626 237.297,222.459 227.5,231C 224.621,233.038 221.954,232.871 219.5,230.5C 223.996,225.365 227.996,220.032 231.5,214.5 Z"/></g>
<g><path style="opacity:0.427" fill="#929292" d="M 462.5,176.5 C 452.347,177.494 442.014,177.828 431.5,177.5C 431.5,185.167 431.5,192.833 431.5,200.5C 444.677,200.171 457.677,200.505 470.5,201.5C 457.167,201.5 443.833,201.5 430.5,201.5C 430.5,193.167 430.5,184.833 430.5,176.5C 441.167,176.5 451.833,176.5 462.5,176.5 Z"/></g>
<g><path style="opacity:0.427" fill="#929292" d="M 671.5,176.5 C 661.347,177.494 651.014,177.828 640.5,177.5C 640.5,185.167 640.5,192.833 640.5,200.5C 653.677,200.171 666.677,200.505 679.5,201.5C 666.167,201.5 652.833,201.5 639.5,201.5C 639.5,193.167 639.5,184.833 639.5,176.5C 650.167,176.5 660.833,176.5 671.5,176.5 Z"/></g>
<g><path style="opacity:0.839" fill="#4e4e4e" d="M 237.5,212.5 C 238.008,209.824 238.175,207.157 238,204.5C 237.617,205.056 237.117,205.389 236.5,205.5C 236.685,203.804 237.519,202.471 239,201.5C 239.879,205.477 239.379,209.144 237.5,212.5 Z"/></g>
<g><path style="opacity:0.651" fill="#757575" d="M 471.5,201.5 C 472.906,201.973 473.573,202.973 473.5,204.5C 472.094,204.027 471.427,203.027 471.5,201.5 Z"/></g>
<g><path style="opacity:0.651" fill="#757575" d="M 680.5,201.5 C 681.906,201.973 682.573,202.973 682.5,204.5C 681.094,204.027 680.427,203.027 680.5,201.5 Z"/></g>
<g><path style="opacity:0.999" fill="#191919" d="M 237.5,212.5 C 235.22,218.884 231.554,224.384 226.5,229C 225.5,229.667 224.5,229.667 223.5,229C 226.572,224.353 229.238,219.52 231.5,214.5C 233.926,211.987 235.592,208.987 236.5,205.5C 237.117,205.389 237.617,205.056 238,204.5C 238.175,207.157 238.008,209.824 237.5,212.5 Z"/></g>
<g><path style="opacity:0.745" fill="#484848" d="M 164.5,68.5 C 163.754,128.83 163.421,189.164 163.5,249.5C 163.167,249.5 162.833,249.5 162.5,249.5C 162.333,203.499 162.5,157.499 163,111.5C 163.169,96.9941 163.669,82.6608 164.5,68.5 Z"/></g>
<g><path style="opacity:0.937" fill="#5f5f5f" d="M 392.5,208.5 C 395.096,209.265 397.763,209.599 400.5,209.5C 399.551,210.152 398.385,210.486 397,210.5C 394.992,210.693 393.492,210.026 392.5,208.5 Z"/></g>
<g><path style="opacity:0.019" fill="#d7d7d7" d="M 277.5,198.5 C 276.703,205.316 275.203,211.982 273,218.5C 269.782,223.403 266.948,228.57 264.5,234C 262.347,237.974 259.68,241.474 256.5,244.5C 256.351,243.448 256.517,242.448 257,241.5C 266.05,228.073 272.883,213.739 277.5,198.5 Z"/></g>
<g><path style="opacity:0.012" fill="#d4d4d4" d="M 12.5,177.5 C 5.57984,197.155 9.91317,213.821 25.5,227.5C 24.448,227.649 23.448,227.483 22.5,227C 8.05202,213.374 4.21869,197.207 11,178.5C 11.3826,177.944 11.8826,177.611 12.5,177.5 Z"/></g>
<g><path style="opacity:1" fill="#29261e" d="M 145.5,62.5 C 146.167,83.664 146.5,104.997 146.5,126.5C 146.11,199.334 145.443,272.001 144.5,344.5C 144.258,258.496 144.591,172.496 145.5,86.5C 145.5,78.5 145.5,70.5 145.5,62.5 Z"/></g>
<g><path style="opacity:1" fill="#cbb973" d="M 145.5,86.5 C 144.591,172.496 144.258,258.496 144.5,344.5C 144.389,345.117 144.056,345.617 143.5,346C 139.667,346.167 135.833,346.333 132,346.5C 125.696,346.998 119.863,345.998 114.5,343.5C 123.818,344.183 133.151,344.517 142.5,344.5C 142.333,284.499 142.5,224.499 143,164.5C 143.252,138.321 144.085,112.321 145.5,86.5 Z"/></g>
<g><path style="opacity:0.259" fill="#e5e5e5" d="M 25.5,227.5 C 28.1354,228.811 30.4687,230.478 32.5,232.5C 30.1667,231.833 27.8333,231.167 25.5,230.5C 25.5,229.5 25.5,228.5 25.5,227.5 Z"/></g>
<g><path style="opacity:0.032" fill="#d9d9d9" d="M 260.5,102.5 C 261.496,102.414 262.329,102.748 263,103.5C 277.334,126.187 285.501,150.854 287.5,177.5C 286.809,192.623 283.643,207.29 278,221.5C 274.755,228.324 271.255,234.991 267.5,241.5C 254.396,259.463 240.23,276.796 225,293.5C 222.749,297.326 221.082,301.326 220,305.5C 219.198,314.523 218.198,323.523 217,332.5C 214.37,344.797 206.87,351.964 194.5,354C 186.323,354.823 178.323,354.656 170.5,353.5C 177.687,353.825 184.687,353.491 191.5,352.5C 196.213,351.902 200.546,350.235 204.5,347.5C 205.885,346.386 207.385,345.386 209,344.5C 210.682,341.136 212.349,337.802 214,334.5C 215.82,321.4 218.154,308.4 221,295.5C 226.714,288.625 232.214,281.625 237.5,274.5C 247.939,263.637 257.439,251.971 266,239.5C 274.647,225.548 280.481,210.548 283.5,194.5C 284.965,189.41 285.632,184.077 285.5,178.5C 285.498,174.982 285.165,171.649 284.5,168.5C 283.664,161.144 282.498,153.811 281,146.5C 275.495,131.159 268.661,116.492 260.5,102.5 Z"/></g>
<g><path style="opacity:0.018" fill="#f1f2f2" d="M 32.5,232.5 C 34.5,232.833 36.5,233.167 38.5,233.5C 38.7845,235.415 38.4511,237.081 37.5,238.5C 37.719,237.325 37.3857,236.325 36.5,235.5C 34.739,234.965 33.4057,233.965 32.5,232.5 Z"/></g>
<g><path style="opacity:1" fill="#9f9162" d="M 80.5,233.5 C 77.3856,234.956 74.0523,236.122 70.5,237C 63.3209,237.821 56.3209,237.655 49.5,236.5C 56.175,236.666 62.8417,236.5 69.5,236C 73.0314,234.594 76.6981,233.76 80.5,233.5 Z"/></g>
<g><path style="opacity:1" fill="#161513" d="M 107.5,56.5 C 106.082,58.3079 104.082,58.9746 101.5,58.5C 101.167,58.5 100.833,58.5 100.5,58.5C 98.3587,57.8367 96.0254,57.5034 93.5,57.5C 89.8589,57.3148 86.5256,57.9814 83.5,59.5C 74.8333,63.5 68.5,69.8333 64.5,78.5C 62.5905,79.9746 61.4238,81.9746 61,84.5C 58.2355,94.4937 59.4022,103.827 64.5,112.5C 68.9602,120.974 74.6268,128.641 81.5,135.5C 81,135.833 80.5,136.167 80,136.5C 74.0515,132.387 68.5515,127.72 63.5,122.5C 61.0653,117.293 58.3986,112.293 55.5,107.5C 55.3259,105.139 54.9926,102.806 54.5,100.5C 52.901,100.232 51.5676,100.566 50.5,101.5C 45.3618,103.569 40.6951,106.402 36.5,110C 33.8823,112.106 31.8823,114.606 30.5,117.5C 28.6736,119.147 27.3403,121.147 26.5,123.5C 22.619,133.154 22.619,142.821 26.5,152.5C 30.2337,163.567 37.5671,170.901 48.5,174.5C 53.0771,175.99 57.9104,176.656 63,176.5C 66.1667,176.333 69.3333,176.167 72.5,176C 73.4158,175.722 74.0825,175.222 74.5,174.5C 75.3255,170.018 75.8255,165.351 76,160.5C 76.8556,154.029 79.3556,148.362 83.5,143.5C 84.325,142.614 85.325,142.281 86.5,142.5C 86.1326,147.008 85.1326,151.341 83.5,155.5C 82.3454,162.321 82.1787,169.321 83,176.5C 83.2004,178.32 84.0337,179.653 85.5,180.5C 87.976,186.155 91.476,191.155 96,195.5C 97.241,196.877 97.4077,198.21 96.5,199.5C 86.6265,195.793 79.9598,188.96 76.5,179C 68.234,180.137 59.9006,180.47 51.5,180C 43.8508,178.673 37.1842,175.507 31.5,170.5C 30.4382,168.243 28.7715,167.077 26.5,167C 24.4514,169.593 22.2848,172.093 20,174.5C 12.8013,184.622 11.6347,195.289 16.5,206.5C 22.0235,220.766 32.3568,229.099 47.5,231.5C 50.8646,233.039 54.5313,233.706 58.5,233.5C 64.5163,233.198 70.5163,232.698 76.5,232C 77.4158,231.722 78.0825,231.222 78.5,230.5C 81.4815,229.837 84.4815,229.17 87.5,228.5C 89.9253,229.9 89.5919,231.066 86.5,232C 84.4144,232.315 82.4144,232.815 80.5,233.5C 76.6981,233.76 73.0314,234.594 69.5,236C 62.8417,236.5 56.175,236.666 49.5,236.5C 47.139,236.326 44.8056,235.993 42.5,235.5C 42.3337,242.508 42.5004,249.508 43,256.5C 44.2048,264.18 47.7048,270.513 53.5,275.5C 54.5846,277.587 56.2512,278.92 58.5,279.5C 59.9649,280.737 61.6316,281.737 63.5,282.5C 67.3886,284.868 71.7219,285.868 76.5,285.5C 80.1411,285.685 83.4744,285.019 86.5,283.5C 92.837,282.164 98.5036,279.497 103.5,275.5C 106.5,272.833 109.5,270.167 112.5,267.5C 115.164,265.516 116.831,262.849 117.5,259.5C 120.657,243.822 122.157,243.822 122,259.5C 117.207,272.415 108.707,282.082 96.5,288.5C 95.9426,290.718 95.9426,293.051 96.5,295.5C 95.8333,294.5 95.1667,293.5 94.5,292.5C 94.1667,292.5 93.8333,292.5 93.5,292.5C 93.0377,291.12 92.0377,290.453 90.5,290.5C 83.6936,292.806 76.6936,293.806 69.5,293.5C 67.5853,293.784 65.9187,293.451 64.5,292.5C 61.5373,290.214 58.204,288.381 54.5,287C 46.6194,281.606 41.2861,274.44 38.5,265.5C 36.764,255.167 37.4307,245 40.5,235C 40.1639,233.97 39.4972,233.47 38.5,233.5C 36.5,233.167 34.5,232.833 32.5,232.5C 30.4687,230.478 28.1354,228.811 25.5,227.5C 9.91317,213.821 5.57984,197.155 12.5,177.5C 16.8694,172.8 21.2027,168.133 25.5,163.5C 17.0477,147.832 16.3811,131.832 23.5,115.5C 28.1927,111.139 32.8594,106.805 37.5,102.5C 41.6055,101.373 45.2721,99.7066 48.5,97.5C 50.1439,97.7135 51.6439,97.3802 53,96.5C 53.4986,92.8484 53.6653,89.1817 53.5,85.5C 55.9151,81.5512 57.5818,77.2179 58.5,72.5C 60.1436,72.1898 61.1436,71.1898 61.5,69.5C 65.584,65.9195 69.584,62.0861 73.5,58C 84.5843,52.5218 95.9177,52.0218 107.5,56.5 Z"/></g>
<g><path style="opacity:1" fill="#9d8f5e" d="M 78.5,230.5 C 78.0825,231.222 77.4158,231.722 76.5,232C 70.5163,232.698 64.5163,233.198 58.5,233.5C 54.5313,233.706 50.8646,233.039 47.5,231.5C 57.8652,231.733 68.1985,231.4 78.5,230.5 Z"/></g>
<g><path style="opacity:1" fill="#7b7053" d="M 48.5,174.5 C 57.1871,175.614 65.8537,175.614 74.5,174.5C 74.0825,175.222 73.4158,175.722 72.5,176C 69.3333,176.167 66.1667,176.333 63,176.5C 57.9104,176.656 53.0771,175.99 48.5,174.5 Z"/></g>
<g><path style="opacity:1" fill="#e6cb6e" d="M 50.5,101.5 C 51.5,101.5 52.5,101.5 53.5,101.5C 53.595,103.786 54.2616,105.786 55.5,107.5C 58.3986,112.293 61.0653,117.293 63.5,122.5C 62.5,122.5 61.5,122.5 60.5,122.5C 60.719,123.675 60.3857,124.675 59.5,125.5C 59.4005,122.879 59.0672,120.212 58.5,117.5C 56.6224,114.11 54.1224,111.11 51,108.5C 49.9563,109.623 49.2896,110.956 49,112.5C 48.6667,110.167 48.3333,107.833 48,105.5C 43.7186,105.455 40.8853,107.455 39.5,111.5C 40.7563,113.996 40.0897,115.996 37.5,117.5C 35.5331,118.682 34.1997,118.015 33.5,115.5C 32.4822,116.193 31.4822,116.859 30.5,117.5C 31.8823,114.606 33.8823,112.106 36.5,110C 40.6951,106.402 45.3618,103.569 50.5,101.5 Z"/></g>
<g><path style="opacity:1" fill="#6e6647" d="M 50.5,101.5 C 51.5676,100.566 52.901,100.232 54.5,100.5C 54.9926,102.806 55.3259,105.139 55.5,107.5C 54.2616,105.786 53.595,103.786 53.5,101.5C 52.5,101.5 51.5,101.5 50.5,101.5 Z"/></g>
<g><path style="opacity:1" fill="#1a1a1a" d="M 376.5,247.5 C 376.427,249.027 377.094,250.027 378.5,250.5C 380.469,254.887 378.969,257.553 374,258.5C 372.358,258.022 371.191,257.022 370.5,255.5C 369.738,253.738 368.404,252.738 366.5,252.5C 360.061,249.72 353.728,249.886 347.5,253C 345.015,256.251 344.348,259.751 345.5,263.5C 345.833,265.833 347.167,267.167 349.5,267.5C 357.353,270.928 365.02,274.594 372.5,278.5C 373.539,280.531 375.205,281.864 377.5,282.5C 377.427,284.027 378.094,285.027 379.5,285.5C 380.167,285.5 380.5,285.833 380.5,286.5C 381.254,291.463 381.587,296.463 381.5,301.5C 378.903,309.834 373.236,315.001 364.5,317C 354.776,318.838 345.776,317.171 337.5,312C 332.744,308.611 330.91,304.111 332,298.5C 334.109,296.582 336.275,296.249 338.5,297.5C 338.833,298.5 339.5,299.167 340.5,299.5C 341.167,299.5 341.5,299.833 341.5,300.5C 341.5,302.5 342.5,303.5 344.5,303.5C 353.596,309.363 362.096,308.696 370,301.5C 372.554,296.322 371.721,291.822 367.5,288C 361.07,284.451 354.404,281.451 347.5,279C 334.065,271.896 330.731,261.729 337.5,248.5C 339.167,247.5 340.5,246.167 341.5,244.5C 342.058,243.21 343.058,242.377 344.5,242C 356.404,237.484 367.07,239.317 376.5,247.5 Z"/></g>
<g><path style="opacity:0.427" fill="#9a9a9a" d="M 590.5,241.5 C 580.448,241.216 570.448,241.55 560.5,242.5C 560.611,241.883 560.944,241.383 561.5,241C 571.342,240.175 581.009,240.342 590.5,241.5 Z"/></g>
<g><path style="opacity:1" fill="#111111" d="M 409.5,245.5 C 409.427,247.027 410.094,248.027 411.5,248.5C 412.5,248.833 413.167,249.5 413.5,250.5C 413.738,252.404 414.738,253.738 416.5,254.5C 417.5,254.833 418.167,255.5 418.5,256.5C 418.427,258.027 419.094,259.027 420.5,259.5C 421.833,260.167 422.833,261.167 423.5,262.5C 423.427,264.027 424.094,265.027 425.5,265.5C 426.5,265.833 427.167,266.5 427.5,267.5C 427.427,269.027 428.094,270.027 429.5,270.5C 431.167,271.833 432.833,273.167 434.5,274.5C 435.906,274.027 436.573,273.027 436.5,271.5C 436.833,270.5 437.5,269.833 438.5,269.5C 439.906,269.027 440.573,268.027 440.5,266.5C 440.833,265.5 441.5,264.833 442.5,264.5C 443.906,264.027 444.573,263.027 444.5,261.5C 445.167,260.167 446.167,259.167 447.5,258.5C 448.906,258.027 449.573,257.027 449.5,255.5C 449.833,254.5 450.5,253.833 451.5,253.5C 452.906,253.027 453.573,252.027 453.5,250.5C 453.833,249.5 454.5,248.833 455.5,248.5C 456.906,248.027 457.573,247.027 457.5,245.5C 460.615,239.841 464.449,239.174 469,243.5C 469.667,267.167 469.667,290.833 469,314.5C 468.617,315.056 468.117,315.389 467.5,315.5C 464.763,315.599 462.096,315.265 459.5,314.5C 459.5,314.167 459.5,313.833 459.5,313.5C 459.667,295.497 459.5,277.497 459,259.5C 458.283,260.044 457.783,260.711 457.5,261.5C 451.166,269.339 444.999,277.339 439,285.5C 436.029,289.092 432.696,289.425 429,286.5C 422.667,278.005 416.167,269.671 409.5,261.5C 409.217,260.711 408.717,260.044 408,259.5C 407.5,277.497 407.333,295.497 407.5,313.5C 407.126,315.95 405.626,316.95 403,316.5C 400.966,316.646 399.299,315.98 398,314.5C 397.333,290.833 397.333,267.167 398,243.5C 402.551,239.174 406.385,239.841 409.5,245.5 Z"/></g>
<g><path style="opacity:1" fill="#1a1a1a" d="M 511.5,240.5 C 514.272,240.22 516.772,240.887 519,242.5C 528.528,264.084 537.861,285.751 547,307.5C 548.648,315.187 545.814,318.021 538.5,316C 535.808,311.089 533.808,305.923 532.5,300.5C 520.495,300.333 508.495,300.5 496.5,301C 494.546,306.205 492.213,311.205 489.5,316C 482.51,318.005 479.676,315.505 481,308.5C 490,287.167 499,265.833 508,244.5C 509.376,243.295 510.542,241.962 511.5,240.5 Z M 513.5,257.5 C 514.167,257.833 514.833,258.167 515.5,258.5C 518.981,268.782 522.981,278.782 527.5,288.5C 523.386,289.826 518.886,290.493 514,290.5C 509.32,290.499 504.82,290.166 500.5,289.5C 505.346,279.128 509.679,268.461 513.5,257.5 Z"/></g>
<g><path style="opacity:1" fill="#161616" d="M 590.5,241.5 C 595.903,241.87 600.569,243.87 604.5,247.5C 604.738,249.404 605.738,250.738 607.5,251.5C 611.92,255.79 613.92,261.123 613.5,267.5C 613.586,272.49 612.419,277.156 610,281.5C 606.958,284.711 603.791,287.711 600.5,290.5C 602.22,293.202 603.887,295.868 605.5,298.5C 605.738,300.404 606.738,301.738 608.5,302.5C 608.427,304.027 609.094,305.027 610.5,305.5C 616.289,310.373 615.789,314.373 609,317.5C 608,317.167 607,316.833 606,316.5C 599.924,309.592 594.424,302.258 589.5,294.5C 586.572,293.18 583.239,292.514 579.5,292.5C 575.982,292.502 572.649,292.835 569.5,293.5C 569.666,300.508 569.5,307.508 569,314.5C 565.337,317.333 562.004,317 559,313.5C 558.333,290.5 558.333,267.5 559,244.5C 559.278,243.584 559.778,242.918 560.5,242.5C 570.448,241.55 580.448,241.216 590.5,241.5 Z M 595.5,253.5 C 596.167,254.833 597.167,255.833 598.5,256.5C 602.865,262.425 603.532,268.758 600.5,275.5C 598.5,276.833 596.833,278.5 595.5,280.5C 586.974,282.336 578.307,283.003 569.5,282.5C 569.5,271.833 569.5,261.167 569.5,250.5C 578.402,249.929 587.069,250.929 595.5,253.5 Z"/></g>
<g><path style="opacity:1" fill="#111111" d="M 677.5,241.5 C 678.219,243.764 678.552,246.097 678.5,248.5C 677.942,249.79 676.942,250.623 675.5,251C 668.508,251.5 661.508,251.666 654.5,251.5C 654.667,272.503 654.5,293.503 654,314.5C 651.447,316.729 648.614,317.062 645.5,315.5C 644.702,315.043 644.369,314.376 644.5,313.5C 644.5,292.5 644.5,271.5 644.5,250.5C 637.5,250.5 630.5,250.5 623.5,250.5C 619.114,249.164 617.947,246.497 620,242.5C 620.75,241.874 621.584,241.374 622.5,241C 640.907,240.181 659.24,240.348 677.5,241.5 Z"/></g>
<g><path style="opacity:0.875" fill="#656565" d="M 677.5,241.5 C 678.993,242.312 679.66,243.645 679.5,245.5C 679.48,246.726 679.147,247.726 678.5,248.5C 678.552,246.097 678.219,243.764 677.5,241.5 Z"/></g>
<g><path style="opacity:0.596" fill="#9c9c9c" d="M 341.5,244.5 C 340.5,246.167 339.167,247.5 337.5,248.5C 337.833,246.167 339.167,244.833 341.5,244.5 Z"/></g>
<g><path style="opacity:0.718" fill="#919191" d="M 409.5,245.5 C 410.906,245.973 411.573,246.973 411.5,248.5C 410.094,248.027 409.427,247.027 409.5,245.5 Z"/></g>
<g><path style="opacity:0.651" fill="#9e9e9e" d="M 457.5,245.5 C 457.573,247.027 456.906,248.027 455.5,248.5C 455.427,246.973 456.094,245.973 457.5,245.5 Z"/></g>
<g><path style="opacity:0.78" fill="#8f8f8f" d="M 604.5,247.5 C 606.262,248.262 607.262,249.596 607.5,251.5C 605.738,250.738 604.738,249.404 604.5,247.5 Z"/></g>
<g><path style="opacity:0.482" fill="#989898" d="M 376.5,247.5 C 377.906,247.973 378.573,248.973 378.5,250.5C 377.094,250.027 376.427,249.027 376.5,247.5 Z"/></g>
<g><path style="opacity:0.792" fill="#8a8a8a" d="M 413.5,250.5 C 415.262,251.262 416.262,252.596 416.5,254.5C 414.738,253.738 413.738,252.404 413.5,250.5 Z"/></g>
<g><path style="opacity:0.71" fill="#939393" d="M 453.5,250.5 C 453.573,252.027 452.906,253.027 451.5,253.5C 451.427,251.973 452.094,250.973 453.5,250.5 Z"/></g>
<g><path style="opacity:0.275" fill="#c2c2c2" d="M 623.5,250.5 C 630.5,250.5 637.5,250.5 644.5,250.5C 644.5,271.5 644.5,292.5 644.5,313.5C 643.503,293.007 643.169,272.34 643.5,251.5C 636.646,251.824 629.979,251.491 623.5,250.5 Z"/></g>
<g><path style="opacity:0.667" fill="#9c9c9c" d="M 366.5,252.5 C 368.404,252.738 369.738,253.738 370.5,255.5C 368.596,255.262 367.262,254.262 366.5,252.5 Z"/></g>
<g><path style="opacity:0.983" fill="#3b3b3c" d="M 38.5,233.5 C 39.4972,233.47 40.1639,233.97 40.5,235C 37.4307,245 36.764,255.167 38.5,265.5C 36.9926,261.609 36.3259,257.442 36.5,253C 36.697,248.481 37.0304,243.981 37.5,239.5C 37.5,239.167 37.5,238.833 37.5,238.5C 38.4511,237.081 38.7845,235.415 38.5,233.5 Z"/></g>
<g><path style="opacity:0.867" fill="#808080" d="M 595.5,253.5 C 597.5,253.5 598.5,254.5 598.5,256.5C 597.167,255.833 596.167,254.833 595.5,253.5 Z"/></g>
<g><path style="opacity:0.761" fill="#878787" d="M 449.5,255.5 C 449.573,257.027 448.906,258.027 447.5,258.5C 447.427,256.973 448.094,255.973 449.5,255.5 Z"/></g>
<g><path style="opacity:0.027" fill="#c9c9c9" d="M 515.5,258.5 C 514.833,258.167 514.167,257.833 513.5,257.5C 514.301,255.207 514.968,255.54 515.5,258.5 Z"/></g>
<g><path style="opacity:0.737" fill="#8c8c8c" d="M 418.5,256.5 C 419.906,256.973 420.573,257.973 420.5,259.5C 419.094,259.027 418.427,258.027 418.5,256.5 Z"/></g>
<g><path style="opacity:0.443" fill="#919191" d="M 409.5,261.5 C 408.833,278.833 408.167,296.167 407.5,313.5C 407.333,295.497 407.5,277.497 408,259.5C 408.717,260.044 409.217,260.711 409.5,261.5 Z"/></g>
<g><path style="opacity:0.384" fill="#9f9f9f" d="M 459.5,313.5 C 458.833,296.167 458.167,278.833 457.5,261.5C 457.783,260.711 458.283,260.044 459,259.5C 459.5,277.497 459.667,295.497 459.5,313.5 Z"/></g>
<g><path style="opacity:0.671" fill="#9a9a9a" d="M 444.5,261.5 C 444.573,263.027 443.906,264.027 442.5,264.5C 442.427,262.973 443.094,261.973 444.5,261.5 Z"/></g>
<g><path style="opacity:0.682" fill="#989898" d="M 423.5,262.5 C 424.906,262.973 425.573,263.973 425.5,265.5C 424.094,265.027 423.427,264.027 423.5,262.5 Z"/></g>
<g><path style="opacity:0.776" fill="#999999" d="M 345.5,263.5 C 347.167,264.5 348.5,265.833 349.5,267.5C 347.167,267.167 345.833,265.833 345.5,263.5 Z"/></g>
<g><path style="opacity:0.729" fill="#8f8f8f" d="M 440.5,266.5 C 440.573,268.027 439.906,269.027 438.5,269.5C 438.427,267.973 439.094,266.973 440.5,266.5 Z"/></g>
<g><path style="opacity:0.761" fill="#868686" d="M 427.5,267.5 C 428.906,267.973 429.573,268.973 429.5,270.5C 428.094,270.027 427.427,269.027 427.5,267.5 Z"/></g>
<g><path style="opacity:0.998" fill="#1d1d1d" d="M 238.5,268.5 C 237.85,270.435 237.517,272.435 237.5,274.5C 232.214,281.625 226.714,288.625 221,295.5C 218.154,308.4 215.82,321.4 214,334.5C 212.349,337.802 210.682,341.136 209,344.5C 207.385,345.386 205.885,346.386 204.5,347.5C 204.265,346.903 203.765,346.57 203,346.5C 200.846,347.274 198.679,347.941 196.5,348.5C 196.833,347.833 197.167,347.167 197.5,346.5C 200.179,346.327 202.513,345.327 204.5,343.5C 208.098,340.304 210.098,336.304 210.5,331.5C 211.117,331.389 211.617,331.056 212,330.5C 212.497,328.19 212.663,325.857 212.5,323.5C 213.663,314.55 214.83,305.55 216,296.5C 222.605,286.401 230.105,277.067 238.5,268.5 Z"/></g>
<g><path style="opacity:0.78" fill="#828282" d="M 436.5,271.5 C 436.573,273.027 435.906,274.027 434.5,274.5C 434.427,272.973 435.094,271.973 436.5,271.5 Z"/></g>
<g><path style="opacity:0.914" fill="#70706f" d="M 149.5,110.5 C 149.833,110.5 150.167,110.5 150.5,110.5C 150.182,115.032 150.515,119.366 151.5,123.5C 152.816,198.32 152.816,272.986 151.5,347.5C 150.833,347.833 150.167,348.167 149.5,348.5C 150.688,269.204 150.688,189.871 149.5,110.5 Z"/></g>
<g><path style="opacity:1" fill="#e4ca70" d="M 97.5,295.5 C 97.1667,295.5 96.8333,295.5 96.5,295.5C 95.9426,293.051 95.9426,290.718 96.5,288.5C 108.707,282.082 117.207,272.415 122,259.5C 122.157,243.822 120.657,243.822 117.5,259.5C 115.336,261.822 113.669,264.489 112.5,267.5C 109.5,270.167 106.5,272.833 103.5,275.5C 103.5,273.833 103.5,272.167 103.5,270.5C 104.833,270.5 106.167,270.5 107.5,270.5C 105.335,266.162 106.669,264.162 111.5,264.5C 111.491,262.692 111.991,261.025 113,259.5C 113.333,259.833 113.667,260.167 114,260.5C 114.245,258.337 115.245,256.67 117,255.5C 117.333,252.5 117.667,249.5 118,246.5C 118.333,246.833 118.667,247.167 119,247.5C 120.586,246.624 122.086,245.624 123.5,244.5C 125.918,250.431 126.084,256.431 124,262.5C 121.057,266.588 119.891,271.255 120.5,276.5C 116.461,277.367 113.794,279.867 112.5,284C 110.874,283.805 109.207,283.805 107.5,284C 104.74,286.938 101.406,288.772 97.5,289.5C 97.5,291.5 97.5,293.5 97.5,295.5 Z"/></g>
<g><path style="opacity:1" fill="#5c543e" d="M 117.5,259.5 C 116.831,262.849 115.164,265.516 112.5,267.5C 113.669,264.489 115.336,261.822 117.5,259.5 Z"/></g>
<g><path style="opacity:0.051" fill="#dfdfdf" d="M 256.5,244.5 C 256.291,245.922 255.791,247.255 255,248.5C 249.666,255.331 244.166,261.998 238.5,268.5C 230.105,277.067 222.605,286.401 216,296.5C 214.83,305.55 213.663,314.55 212.5,323.5C 212.167,323.5 211.833,323.5 211.5,323.5C 211.733,313.686 212.9,304.019 215,294.5C 223.368,282.466 232.702,271.133 243,260.5C 246.911,255.678 250.578,250.678 254,245.5C 254.671,244.748 255.504,244.414 256.5,244.5 Z"/></g>
<g><path style="opacity:1" fill="#a09562" d="M 53.5,275.5 C 55.7488,276.08 57.4154,277.413 58.5,279.5C 56.2512,278.92 54.5846,277.587 53.5,275.5 Z"/></g>
<g><path style="opacity:0.627" fill="#8d8d8d" d="M 600.5,275.5 C 599.833,278.167 598.167,279.833 595.5,280.5C 596.833,278.5 598.5,276.833 600.5,275.5 Z"/></g>
<g><path style="opacity:0.953" fill="#868686" d="M 372.5,278.5 C 374.754,279.124 376.421,280.457 377.5,282.5C 375.205,281.864 373.539,280.531 372.5,278.5 Z"/></g>
<g><path style="opacity:0.043" fill="#e2e2e2" d="M 37.5,239.5 C 37.0304,243.981 36.697,248.481 36.5,253C 36.3259,257.442 36.9926,261.609 38.5,265.5C 41.2861,274.44 46.6194,281.606 54.5,287C 58.204,288.381 61.5373,290.214 64.5,292.5C 54.6628,290.171 46.8295,284.838 41,276.5C 34.7723,265.238 33.1057,253.238 36,240.5C 36.3826,239.944 36.8826,239.611 37.5,239.5 Z"/></g>
<g><path style="opacity:1" fill="#bbab6e" d="M 63.5,282.5 C 71.1322,283.358 78.7989,283.691 86.5,283.5C 83.4744,285.019 80.1411,285.685 76.5,285.5C 71.7219,285.868 67.3886,284.868 63.5,282.5 Z"/></g>
<g><path style="opacity:0.494" fill="#959595" d="M 377.5,282.5 C 378.906,282.973 379.573,283.973 379.5,285.5C 378.094,285.027 377.427,284.027 377.5,282.5 Z"/></g>
<g><path style="opacity:0.561" fill="#727272" d="M 527.5,288.5 C 528.404,289.209 528.737,290.209 528.5,291.5C 518.81,291.832 509.144,291.498 499.5,290.5C 499.624,289.893 499.957,289.56 500.5,289.5C 504.82,290.166 509.32,290.499 514,290.5C 518.886,290.493 523.386,289.826 527.5,288.5 Z"/></g>
<g><path style="opacity:0.157" fill="#d8d8d8" d="M 93.5,292.5 C 93.5,295.833 93.5,299.167 93.5,302.5C 91.8962,299.597 90.8962,296.263 90.5,292.5C 85.9214,293.915 81.2548,294.915 76.5,295.5C 73.7954,295.684 71.4621,295.017 69.5,293.5C 76.6936,293.806 83.6936,292.806 90.5,290.5C 92.0377,290.453 93.0377,291.12 93.5,292.5 Z"/></g>
<g><path style="opacity:0.305" fill="#b7b7b7" d="M 569.5,293.5 C 572.649,292.835 575.982,292.502 579.5,292.5C 583.239,292.514 586.572,293.18 589.5,294.5C 582.922,293.54 576.255,293.207 569.5,293.5 Z"/></g>
<g><path style="opacity:0.773" fill="#6f6f6f" d="M 380.5,286.5 C 381.991,289.186 382.657,292.186 382.5,295.5C 382.495,297.696 382.162,299.696 381.5,301.5C 381.587,296.463 381.254,291.463 380.5,286.5 Z"/></g>
<g><path style="opacity:0.016" fill="#b9b9b9" d="M 338.5,297.5 C 339.833,297.5 340.5,298.167 340.5,299.5C 339.5,299.167 338.833,298.5 338.5,297.5 Z"/></g>
<g><path style="opacity:1" fill="#a79a64" d="M 96.5,295.5 C 96.8333,295.5 97.1667,295.5 97.5,295.5C 98.8998,300.362 99.5665,305.362 99.5,310.5C 99.1667,310.5 98.8333,310.5 98.5,310.5C 98.0925,305.463 97.4258,300.463 96.5,295.5 Z"/></g>
<g><path style="opacity:0.702" fill="#7c7c7c" d="M 605.5,298.5 C 607.262,299.262 608.262,300.596 608.5,302.5C 606.738,301.738 605.738,300.404 605.5,298.5 Z"/></g>
<g><path style="opacity:0.706" fill="#9d9d9d" d="M 341.5,300.5 C 342.833,301.167 343.833,302.167 344.5,303.5C 342.5,303.5 341.5,302.5 341.5,300.5 Z"/></g>
<g><path style="opacity:0.588" fill="#828282" d="M 608.5,302.5 C 609.906,302.973 610.573,303.973 610.5,305.5C 609.094,305.027 608.427,304.027 608.5,302.5 Z"/></g>
<g><path style="opacity:0.717" fill="#808081" d="M 93.5,292.5 C 93.8333,292.5 94.1667,292.5 94.5,292.5C 95.2664,306.161 95.933,319.827 96.5,333.5C 95.8333,332.833 95.1667,332.167 94.5,331.5C 93.8008,321.849 93.4675,312.183 93.5,302.5C 93.5,299.167 93.5,295.833 93.5,292.5 Z"/></g>
<g><path style="opacity:0.925" fill="#636363" d="M 459.5,314.5 C 462.096,315.265 464.763,315.599 467.5,315.5C 466.551,316.152 465.385,316.486 464,316.5C 461.992,316.693 460.492,316.026 459.5,314.5 Z"/></g>
<g><path style="opacity:0.278" fill="#a3a3a3" d="M 157.5,171.5 C 158.333,224.998 158.833,278.665 159,332.5C 159.333,336.833 159.667,341.167 160,345.5C 161.331,347.996 163.164,349.996 165.5,351.5C 166.167,352.167 166.833,352.833 167.5,353.5C 162.829,353.245 159.663,350.911 158,346.5C 157.501,340.509 157.334,334.509 157.5,328.5C 157.5,276.167 157.5,223.833 157.5,171.5 Z"/></g>
<g><path style="opacity:1" fill="#62593f" d="M 98.5,310.5 C 98.8333,310.5 99.1667,310.5 99.5,310.5C 100.08,314.81 100.414,319.143 100.5,323.5C 98.9462,319.433 98.2796,315.1 98.5,310.5 Z"/></g>
<g><path style="opacity:0.022" fill="#eaeaea" d="M 211.5,324.5 C 211.552,326.903 211.219,329.236 210.5,331.5C 210.098,336.304 208.098,340.304 204.5,343.5C 202.513,345.327 200.179,346.327 197.5,346.5C 200.384,344.123 203.217,341.456 206,338.5C 207.937,334.354 209.271,330.021 210,325.5C 210.383,324.944 210.883,324.611 211.5,324.5 Z"/></g>
<g><path style="opacity:0.686" fill="#6f6f6f" d="M 211.5,323.5 C 211.833,323.5 212.167,323.5 212.5,323.5C 212.663,325.857 212.497,328.19 212,330.5C 211.617,331.056 211.117,331.389 210.5,331.5C 211.219,329.236 211.552,326.903 211.5,324.5C 211.5,324.167 211.5,323.833 211.5,323.5 Z"/></g>
<g><path style="opacity:0.741" fill="#666666" d="M 162.5,249.5 C 162.833,249.5 163.167,249.5 163.5,249.5C 163.181,281.877 163.515,314.21 164.5,346.5C 163.883,346.389 163.383,346.056 163,345.5C 162.5,313.502 162.333,281.502 162.5,249.5 Z"/></g>
<g><path style="opacity:0.02" fill="#d4d3d4" d="M 94.5,331.5 C 95.1667,332.167 95.8333,332.833 96.5,333.5C 98.0431,340.021 101.71,344.688 107.5,347.5C 108.167,348.167 108.833,348.833 109.5,349.5C 100.267,347.035 95.2665,341.035 94.5,331.5 Z"/></g>
<g><path style="opacity:0.145" fill="#e2e2e2" d="M 197.5,346.5 C 197.167,347.167 196.833,347.833 196.5,348.5C 194.833,348.5 193.167,348.5 191.5,348.5C 185.31,348.823 179.31,348.49 173.5,347.5C 181.529,347.656 189.529,347.323 197.5,346.5 Z"/></g>
<g><path style="opacity:0.505" fill="#9e9e9e" d="M 165.5,347.5 C 167.167,347.5 168.833,347.5 170.5,347.5C 171.5,347.5 172.5,347.5 173.5,347.5C 179.31,348.49 185.31,348.823 191.5,348.5C 188.016,349.165 184.349,349.499 180.5,349.5C 175.233,349.713 170.233,349.046 165.5,347.5 Z"/></g>
<g><path style="opacity:0.184" fill="#dcdcdc" d="M 151.5,347.5 C 151.262,350.148 149.928,351.982 147.5,353C 136.133,354.916 124.8,354.582 113.5,352C 111.68,351.8 110.347,350.966 109.5,349.5C 120.87,352.242 132.204,352.909 143.5,351.5C 146.313,351.975 148.313,350.975 149.5,348.5C 150.167,348.167 150.833,347.833 151.5,347.5 Z"/></g>
<g><path style="opacity:0.973" fill="#353535" d="M 107.5,347.5 C 119.278,350.472 131.278,351.805 143.5,351.5C 132.204,352.909 120.87,352.242 109.5,349.5C 108.833,348.833 108.167,348.167 107.5,347.5 Z"/></g>
<g><path style="opacity:0.666" fill="#7d7d7d" d="M 165.5,351.5 C 174.126,352.411 182.792,352.745 191.5,352.5C 184.687,353.491 177.687,353.825 170.5,353.5C 169.5,353.5 168.5,353.5 167.5,353.5C 166.833,352.833 166.167,352.167 165.5,351.5 Z"/></g>
<g><path style="opacity:0.478" fill="#acacac" d="M 108.5,358.5 C 138.664,357.336 168.997,357.169 199.5,358C 203.385,360.708 204.218,364.208 202,368.5C 200.829,369.893 199.329,370.727 197.5,371C 168.5,371.667 139.5,371.667 110.5,371C 109.584,370.722 108.918,370.222 108.5,369.5C 138.502,369.667 168.502,369.5 198.5,369C 200.646,368.521 201.646,367.188 201.5,365C 201.387,362.601 200.387,360.768 198.5,359.5C 168.671,358.502 138.671,358.169 108.5,358.5 Z"/></g>
<g><path style="opacity:0.908" fill="#29292a" d="M 108.5,358.5 C 138.671,358.169 168.671,358.502 198.5,359.5C 168.123,359.182 137.79,359.515 107.5,360.5C 107.833,359.833 108.167,359.167 108.5,358.5 Z"/></g>
<g><path style="opacity:1" fill="#010101" d="M 198.5,359.5 C 200.387,360.768 201.387,362.601 201.5,365C 201.646,367.188 200.646,368.521 198.5,369C 168.502,369.5 138.502,369.667 108.5,369.5C 106.319,366.737 105.985,363.737 107.5,360.5C 137.79,359.515 168.123,359.182 198.5,359.5 Z"/></g>
<g><path style="opacity:0.063" fill="#e8e8e8" d="M 108.5,358.5 C 108.167,359.167 107.833,359.833 107.5,360.5C 105.985,363.737 106.319,366.737 108.5,369.5C 105.862,368.758 104.529,366.925 104.5,364C 104.529,361.075 105.862,359.242 108.5,358.5 Z"/></g>
<g><path style="opacity:0.315" fill="#c3c3c3" d="M 197.5,386.5 C 201.077,384.142 202.244,380.809 201,376.5C 199.933,375.809 198.766,375.309 197.5,375C 168.5,374.333 139.5,374.333 110.5,375C 106.018,377.722 105.351,381.222 108.5,385.5C 105.862,384.758 104.529,382.925 104.5,380C 104.598,377.127 105.932,375.127 108.5,374C 139.167,373.333 169.833,373.333 200.5,374C 203.504,377.172 204.004,380.672 202,384.5C 200.89,386.037 199.39,386.703 197.5,386.5 Z"/></g>
<g><path style="opacity:1" fill="#090909" d="M 197.5,386.5 C 167.662,386.831 137.995,386.498 108.5,385.5C 105.351,381.222 106.018,377.722 110.5,375C 139.5,374.333 168.5,374.333 197.5,375C 198.766,375.309 199.933,375.809 201,376.5C 202.244,380.809 201.077,384.142 197.5,386.5 Z"/></g>
<g><path style="opacity:0.063" fill="#ededed" d="M 189.5,398.5 C 189.5,397.5 189.5,396.5 189.5,395.5C 189.33,394.178 189.663,393.011 190.5,392C 165.997,391.17 141.663,391.337 117.5,392.5C 116.957,392.44 116.624,392.107 116.5,391.5C 139.671,390.787 162.838,390.121 186,389.5C 187.764,389.544 189.431,389.878 191,390.5C 191.433,393.419 190.933,396.086 189.5,398.5 Z"/></g>
<g><path style="opacity:1" fill="#020202" d="M 189.5,395.5 C 187.792,398.95 186.459,402.617 185.5,406.5C 164.489,406.833 143.489,406.5 122.5,405.5C 122.058,404.261 121.391,403.261 120.5,402.5C 120.975,399.918 120.308,397.918 118.5,396.5C 117.566,395.432 117.232,394.099 117.5,392.5C 141.663,391.337 165.997,391.17 190.5,392C 189.663,393.011 189.33,394.178 189.5,395.5 Z"/></g>
<g><path style="opacity:0.839" fill="#8c8c8c" d="M 118.5,396.5 C 120.308,397.918 120.975,399.918 120.5,402.5C 119.262,400.786 118.595,398.786 118.5,396.5 Z"/></g>
<g><path style="opacity:0.224" fill="#c7c7c7" d="M 189.5,395.5 C 189.5,396.5 189.5,397.5 189.5,398.5C 188.833,401.5 188.167,404.5 187.5,407.5C 165.49,407.833 143.49,407.5 121.5,406.5C 120.754,405.264 120.421,403.93 120.5,402.5C 121.391,403.261 122.058,404.261 122.5,405.5C 143.489,406.5 164.489,406.833 185.5,406.5C 186.459,402.617 187.792,398.95 189.5,395.5 Z"/></g>
</svg>
