<?xml version="1.0" encoding="UTF-8"?>
<!DOCTYPE svg PUBLIC "-//W3C//DTD SVG 1.1//EN" "http://www.w3.org/Graphics/SVG/1.1/DTD/svg11.dtd">
<svg xmlns="http://www.w3.org/2000/svg" version="1.1" width="1200px" height="500px" style="shape-rendering:geometricPrecision; text-rendering:geometricPrecision; image-rendering:optimizeQuality; fill-rule:evenodd; clip-rule:evenodd" xmlns:xlink="http://www.w3.org/1999/xlink">
<g><path style="opacity:0.169" fill="#4c4c4c" d="M 139.5,70.5 C 134.833,70.5 130.167,70.5 125.5,70.5C 125.611,69.8826 125.944,69.3826 126.5,69C 130.5,68.3333 134.5,68.3333 138.5,69C 139.056,69.3826 139.389,69.8826 139.5,70.5 Z"/></g>
<g><path style="opacity:0.251" fill="#828282" d="M 120.5,71.5 C 118.516,74.1639 115.849,75.8305 112.5,76.5C 114.16,73.3738 116.826,71.7072 120.5,71.5 Z"/></g>
<g><path style="opacity:0.671" fill="#696969" d="M 144.5,71.5 C 148.272,71.8838 151.272,73.5505 153.5,76.5C 149.914,75.7606 146.914,74.094 144.5,71.5 Z"/></g>
<g><path style="opacity:0.067" fill="#4c4c4c" d="M 181.5,73.5 C 183.027,73.427 184.027,74.0937 184.5,75.5C 182.821,75.7148 181.821,75.0481 181.5,73.5 Z"/></g>
<g><path style="opacity:0.998" fill="#f2f2f2" d="M 201.5,72.5 C 211.582,72.1926 221.582,72.5259 231.5,73.5C 234.354,75.7288 237.687,77.0621 241.5,77.5C 247.26,80.0866 253.26,82.0866 259.5,83.5C 259.833,83.5 260.167,83.5 260.5,83.5C 260.908,84.6431 261.575,85.6431 262.5,86.5C 268.892,90.0139 274.892,94.0139 280.5,98.5C 280.833,98.5 281.167,98.5 281.5,98.5C 285.471,102.437 288.971,106.77 292,111.5C 293.113,112.305 294.279,112.972 295.5,113.5C 295.777,116.683 297.444,118.683 300.5,119.5C 300.554,121.632 301.554,122.965 303.5,123.5C 304.498,127.505 306.498,130.839 309.5,133.5C 309.343,134.873 309.51,136.207 310,137.5C 310.886,140.093 312.386,142.093 314.5,143.5C 315.338,143.842 315.672,144.508 315.5,145.5C 317.476,152.793 319.81,159.96 322.5,167C 322.836,168.03 323.503,168.53 324.5,168.5C 325.451,169.919 325.784,171.585 325.5,173.5C 325.724,177.179 326.058,180.846 326.5,184.5C 327.833,193.833 327.833,203.167 326.5,212.5C 325.979,216.481 325.646,220.481 325.5,224.5C 323.126,226.934 321.792,229.934 321.5,233.5C 321.167,235.5 320.833,237.5 320.5,239.5C 320.5,239.833 320.5,240.167 320.5,240.5C 317.325,242.992 315.659,246.326 315.5,250.5C 315.5,250.833 315.5,251.167 315.5,251.5C 314.357,251.908 313.357,252.575 312.5,253.5C 306.548,262.424 300.881,271.424 295.5,280.5C 292.447,281.28 290.78,283.28 290.5,286.5C 287.799,288.215 285.299,290.215 283,292.5C 281.4,296.097 279.067,299.097 276,301.5C 275.517,302.448 275.351,303.448 275.5,304.5C 270.384,306.955 267.051,310.955 265.5,316.5C 263.583,317.116 262.416,318.45 262,320.5C 260.729,325.754 260.229,331.087 260.5,336.5C 260.756,340.269 260.423,343.936 259.5,347.5C 258.351,347.791 257.684,348.624 257.5,350C 256.766,353.501 256.1,357.001 255.5,360.5C 252.747,364.32 249.747,367.986 246.5,371.5C 243.157,372.224 239.824,373.057 236.5,374C 235.944,374.383 235.611,374.883 235.5,375.5C 227.167,376.833 218.833,376.833 210.5,375.5C 207.22,373.241 203.886,370.908 200.5,368.5C 201.341,366.621 201.675,364.621 201.5,362.5C 200.658,315.505 200.325,268.505 200.5,221.5C 199.745,173.501 199.579,125.501 200,77.5C 200.352,75.7525 200.852,74.0858 201.5,72.5 Z M 208.5,80.5 C 215.174,80.7129 221.841,81.0462 228.5,81.5C 230.971,83.4433 233.971,84.4433 237.5,84.5C 237.833,84.5 238.167,84.5 238.5,84.5C 244.18,87.3277 250.18,89.661 256.5,91.5C 256.833,91.5 257.167,91.5 257.5,91.5C 258.539,93.5311 260.205,94.8645 262.5,95.5C 262.833,95.5 263.167,95.5 263.5,95.5C 265.951,98.2768 268.951,100.277 272.5,101.5C 273.129,103.997 274.796,105.33 277.5,105.5C 278.189,108.189 279.856,109.856 282.5,110.5C 282.5,111.167 282.833,111.5 283.5,111.5C 283.833,113.833 285.167,115.167 287.5,115.5C 288.256,118.394 289.923,120.394 292.5,121.5C 293.723,125.049 295.723,128.049 298.5,130.5C 298.833,131.167 299.167,131.833 299.5,132.5C 302.001,136.168 304.001,140.168 305.5,144.5C 305.957,145.298 306.624,145.631 307.5,145.5C 307.402,147.553 308.069,149.22 309.5,150.5C 310.756,154.401 312.423,158.068 314.5,161.5C 314.5,161.833 314.5,162.167 314.5,162.5C 314.464,165.461 315.464,167.794 317.5,169.5C 317.216,171.415 317.549,173.081 318.5,174.5C 319.058,179.516 319.725,184.516 320.5,189.5C 320.5,195.833 320.5,202.167 320.5,208.5C 320.043,214.911 319.043,221.244 317.5,227.5C 314.877,235.046 311.877,242.38 308.5,249.5C 305.742,252.678 303.742,256.345 302.5,260.5C 301.504,260.414 300.671,260.748 300,261.5C 299.345,263.628 298.511,265.628 297.5,267.5C 297.5,267.833 297.5,268.167 297.5,268.5C 295.983,268.511 294.816,269.177 294,270.5C 291.771,273.218 289.938,276.218 288.5,279.5C 286.227,279.957 284.894,281.29 284.5,283.5C 281.167,287.167 277.833,290.833 274.5,294.5C 273.326,295.514 272.66,296.847 272.5,298.5C 269.833,299.167 268.167,300.833 267.5,303.5C 265.469,304.539 264.136,306.205 263.5,308.5C 260.207,311.03 258.207,314.363 257.5,318.5C 257.5,318.833 257.5,319.167 257.5,319.5C 255.824,320.183 255.157,321.517 255.5,323.5C 255.5,324.5 255.5,325.5 255.5,326.5C 254.051,335.308 253.051,344.308 252.5,353.5C 250.245,355.531 248.912,358.198 248.5,361.5C 247.662,361.842 247.328,362.508 247.5,363.5C 244.211,365.145 240.878,366.811 237.5,368.5C 228.5,369.833 219.5,369.833 210.5,368.5C 208.532,367.9 207.532,366.567 207.5,364.5C 206.172,320.187 206.172,275.854 207.5,231.5C 207.5,220.167 207.5,208.833 207.5,197.5C 207.5,179.833 207.5,162.167 207.5,144.5C 208.497,123.34 208.831,102.007 208.5,80.5 Z"/></g>
<g><path style="opacity:0.616" fill="#9e9e9e" d="M 231.5,73.5 C 234.988,73.5399 238.321,74.2066 241.5,75.5C 241.5,76.1667 241.5,76.8333 241.5,77.5C 237.687,77.0621 234.354,75.7288 231.5,73.5 Z"/></g>
<g><path style="opacity:0.928" fill="#a2a2a2" d="M 181.5,73.5 C 181.821,75.0481 182.821,75.7148 184.5,75.5C 187.19,76.546 189.857,77.546 192.5,78.5C 192.5,83.1667 192.5,87.8333 192.5,92.5C 191.539,94.2646 191.205,96.2646 191.5,98.5C 190.672,92.6807 190.172,86.6807 190,80.5C 188.494,78.9347 186.994,78.6014 185.5,79.5C 182.994,78.2504 180.327,77.5838 177.5,77.5C 171.464,77.3599 165.464,77.6932 159.5,78.5C 159.881,77.0689 160.881,76.2355 162.5,76C 168.623,75.6536 174.623,75.4869 180.5,75.5C 172.84,72.88 165.173,72.88 157.5,75.5C 157.5,74.8333 157.5,74.1667 157.5,73.5C 165.514,70.8759 173.514,70.8759 181.5,73.5 Z"/></g>
<g><path style="opacity:0.592" fill="#999999" d="M 149.5,80.5 C 141.77,77.3409 133.77,76.6742 125.5,78.5C 122.966,78.2591 121.3,79.2591 120.5,81.5C 120.158,82.3382 119.492,82.6716 118.5,82.5C 117.833,82.5 117.167,82.5 116.5,82.5C 121.454,77.3433 127.621,75.0099 135,75.5C 138.359,75.6127 141.692,75.946 145,76.5C 147.328,76.9988 148.828,78.3321 149.5,80.5 Z"/></g>
<g><path style="opacity:0.459" fill="#6f6f6f" d="M 177.5,77.5 C 180.327,77.5838 182.994,78.2504 185.5,79.5C 186.458,79.9528 187.292,80.6195 188,81.5C 188.796,84.0385 188.629,86.3718 187.5,88.5C 187.799,86.396 187.466,84.396 186.5,82.5C 183.245,81.0449 180.245,79.3782 177.5,77.5 Z"/></g>
<g><path style="opacity:0.543" fill="#9f9f9f" d="M 201.5,72.5 C 200.852,74.0858 200.352,75.7525 200,77.5C 199.579,125.501 199.745,173.501 200.5,221.5C 199.833,214.5 199.167,207.5 198.5,200.5C 197.316,157.816 197.316,115.149 198.5,72.5C 199.5,72.5 200.5,72.5 201.5,72.5 Z"/></g>
<g><path style="opacity:0.714" fill="#b1b1b1" d="M 230.5,81.5 C 229.833,81.5 229.167,81.5 228.5,81.5C 221.841,81.0462 215.174,80.7129 208.5,80.5C 207.833,80.5 207.167,80.5 206.5,80.5C 208.397,79.1952 210.731,78.5286 213.5,78.5C 218.85,78.8167 224.184,79.3167 229.5,80C 230.056,80.3826 230.389,80.8826 230.5,81.5 Z"/></g>
<g><path style="opacity:0.329" fill="#7c7c7c" d="M 112.5,76.5 C 112.033,79.2974 110.367,80.6308 107.5,80.5C 108.129,78.0029 109.796,76.6696 112.5,76.5 Z"/></g>
<g><path style="opacity:0.871" fill="#818181" d="M 241.5,75.5 C 247.031,77.2856 252.531,79.2856 258,81.5C 259.03,81.8361 259.53,82.5028 259.5,83.5C 253.26,82.0866 247.26,80.0866 241.5,77.5C 241.5,76.8333 241.5,76.1667 241.5,75.5 Z"/></g>
<g><path style="opacity:0.071" fill="#454545" d="M 125.5,78.5 C 124.33,80.2785 122.664,81.2785 120.5,81.5C 121.3,79.2591 122.966,78.2591 125.5,78.5 Z"/></g>
<g><path style="opacity:0.112" fill="#696969" d="M 159.5,78.5 C 156.944,81.4238 153.944,82.0905 150.5,80.5C 153.311,79.525 156.311,78.8583 159.5,78.5 Z"/></g>
<g><path style="opacity:0.235" fill="#8a8a8a" d="M 107.5,80.5 C 106.931,83.7191 105.264,86.0525 102.5,87.5C 103.01,84.3257 104.677,81.9923 107.5,80.5 Z"/></g>
<g><path style="opacity:0.38" fill="#707070" d="M 228.5,81.5 C 229.167,81.5 229.833,81.5 230.5,81.5C 233.577,81.179 235.91,82.179 237.5,84.5C 233.971,84.4433 230.971,83.4433 228.5,81.5 Z"/></g>
<g><path style="opacity:0.58" fill="#787878" d="M 260.5,83.5 C 264.787,85.2011 268.787,87.3678 272.5,90C 275.956,92.1985 278.623,95.0319 280.5,98.5C 274.892,94.0139 268.892,90.0139 262.5,86.5C 261.575,85.6431 260.908,84.6431 260.5,83.5 Z"/></g>
<g><path style="opacity:0.249" fill="#707070" d="M 238.5,84.5 C 243.829,85.108 248.996,86.4414 254,88.5C 255.31,89.1301 256.144,90.1301 256.5,91.5C 250.18,89.661 244.18,87.3277 238.5,84.5 Z"/></g>
<g><path style="opacity:0.125" fill="#727272" d="M 116.5,82.5 C 117.167,82.5 117.833,82.5 118.5,82.5C 114.034,86.4628 110.534,91.1295 108,96.5C 107.329,97.2524 106.496,97.5858 105.5,97.5C 108.047,91.6282 111.714,86.6282 116.5,82.5 Z"/></g>
<g><path style="opacity:0.184" fill="#595959" d="M 257.5,91.5 C 260.063,91.7313 261.73,93.0646 262.5,95.5C 260.205,94.8645 258.539,93.5311 257.5,91.5 Z"/></g>
<g><path style="opacity:0.216" fill="#757575" d="M 102.5,87.5 C 102.155,90.1979 100.822,92.1979 98.5,93.5C 98.5809,90.4866 99.9142,88.4866 102.5,87.5 Z"/></g>
<g><path style="opacity:0.165" fill="#7a7a7a" d="M 263.5,95.5 C 267.408,96.2773 270.408,98.2773 272.5,101.5C 268.951,100.277 265.951,98.2768 263.5,95.5 Z"/></g>
<g><path style="opacity:0.145" fill="#636363" d="M 281.5,98.5 C 287.55,102.217 292.217,107.217 295.5,113.5C 294.279,112.972 293.113,112.305 292,111.5C 288.971,106.77 285.471,102.437 281.5,98.5 Z"/></g>
<g><path style="opacity:0.49" fill="#707070" d="M 98.5,93.5 C 98.459,97.2364 97.1257,100.236 94.5,102.5C 94.5284,98.839 95.8617,95.839 98.5,93.5 Z"/></g>
<g><path style="opacity:0.954" fill="#b7b7b7" d="M 105.5,97.5 C 104.5,101.499 103.5,105.499 102.5,109.5C 101.833,109.5 101.167,109.5 100.5,109.5C 101.807,107.848 101.807,106.182 100.5,104.5C 101.669,102.58 102.669,100.58 103.5,98.5C 103.957,97.7025 104.624,97.3691 105.5,97.5 Z"/></g>
<g><path style="opacity:0.275" fill="#8e8e8e" d="M 272.5,101.5 C 275.127,101.79 276.794,103.124 277.5,105.5C 274.796,105.33 273.129,103.997 272.5,101.5 Z"/></g>
<g><path style="opacity:0.112" fill="#797979" d="M 277.5,105.5 C 278.931,106.082 280.264,106.915 281.5,108C 282.252,108.671 282.586,109.504 282.5,110.5C 279.856,109.856 278.189,108.189 277.5,105.5 Z"/></g>
<g><path style="opacity:0.211" fill="#656565" d="M 192.5,92.5 C 193.497,109.659 193.83,126.992 193.5,144.5C 192.833,142.5 192.167,140.5 191.5,138.5C 191.5,125.167 191.5,111.833 191.5,98.5C 191.205,96.2646 191.539,94.2646 192.5,92.5 Z"/></g>
<g><path style="opacity:0.999" fill="#f5f5f5" d="M 185.5,79.5 C 186.994,78.6014 188.494,78.9347 190,80.5C 190.172,86.6807 190.672,92.6807 191.5,98.5C 191.5,111.833 191.5,125.167 191.5,138.5C 192.751,215.203 192.751,291.87 191.5,368.5C 190.694,369.728 189.694,370.728 188.5,371.5C 179.167,371.5 169.833,371.5 160.5,371.5C 156.687,370.213 152.687,369.213 148.5,368.5C 144.203,365.198 140.537,361.198 137.5,356.5C 137.5,354.833 137.5,353.167 137.5,351.5C 137.823,344.978 137.49,338.645 136.5,332.5C 136.5,330.5 136.5,328.5 136.5,326.5C 135.501,321.672 135.501,317.005 136.5,312.5C 137.767,314.039 138.767,315.706 139.5,317.5C 140.344,321.099 140.677,324.766 140.5,328.5C 140.5,330.5 140.5,332.5 140.5,334.5C 140.784,341.911 141.617,349.245 143,356.5C 143.671,357.252 144.504,357.586 145.5,357.5C 147.573,358.3 149.24,359.633 150.5,361.5C 150.369,362.376 150.702,363.043 151.5,363.5C 153.801,364.325 156.135,364.992 158.5,365.5C 159.833,365.5 161.167,365.5 162.5,365.5C 169.833,365.5 177.167,365.5 184.5,365.5C 185.833,333.507 186.5,301.174 186.5,268.5C 186.5,235.998 186.167,203.665 185.5,171.5C 185.5,167.833 185.5,164.167 185.5,160.5C 187.45,155.265 188.117,149.598 187.5,143.5C 187.5,136.167 187.5,128.833 187.5,121.5C 187.5,115.167 187.5,108.833 187.5,102.5C 187.5,97.8333 187.5,93.1667 187.5,88.5C 188.629,86.3718 188.796,84.0385 188,81.5C 187.292,80.6195 186.458,79.9528 185.5,79.5 Z"/></g>
<g><path style="opacity:0.348" fill="#848484" d="M 94.5,103.5 C 94.5,107.833 94.5,112.167 94.5,116.5C 92.8333,116.5 91.1667,116.5 89.5,116.5C 90.5676,115.566 91.901,115.232 93.5,115.5C 93.1832,111.298 93.5166,107.298 94.5,103.5 Z"/></g>
<g><path style="opacity:0.101" fill="#292929" d="M 187.5,102.5 C 187.5,108.833 187.5,115.167 187.5,121.5C 186.833,121.5 186.167,121.5 185.5,121.5C 185.334,115.824 185.501,110.157 186,104.5C 186.278,103.584 186.778,102.918 187.5,102.5 Z"/></g>
<g><path style="opacity:0.124" fill="#727272" d="M 283.5,111.5 C 285.773,111.957 287.106,113.29 287.5,115.5C 285.167,115.167 283.833,113.833 283.5,111.5 Z"/></g>
<g><path style="opacity:0.204" fill="#6d6d6d" d="M 295.5,113.5 C 298.086,114.638 299.753,116.638 300.5,119.5C 297.444,118.683 295.777,116.683 295.5,113.5 Z"/></g>
<g><path style="opacity:0.718" fill="#909090" d="M 89.5,116.5 C 86.4464,119.093 82.7797,120.759 78.5,121.5C 78.9528,120.542 79.6195,119.708 80.5,119C 83.3527,117.57 86.3527,116.737 89.5,116.5 Z"/></g>
<g><path style="opacity:0.416" fill="#8f8f8f" d="M 287.5,115.5 C 290.553,116.28 292.22,118.28 292.5,121.5C 289.923,120.394 288.256,118.394 287.5,115.5 Z"/></g>
<g><path style="opacity:0.25" fill="#787878" d="M 100.5,109.5 C 101.167,109.5 101.833,109.5 102.5,109.5C 102.125,116.718 103.125,123.718 105.5,130.5C 103.39,129.547 102.223,127.881 102,125.5C 100.809,120.233 100.309,114.899 100.5,109.5 Z"/></g>
<g><path style="opacity:0.089" fill="#626262" d="M 300.5,119.5 C 302.262,120.262 303.262,121.596 303.5,123.5C 301.554,122.965 300.554,121.632 300.5,119.5 Z"/></g>
<g><path style="opacity:0.997" fill="#e7e7e7" d="M 125.5,70.5 C 130.167,70.5 134.833,70.5 139.5,70.5C 141.292,70.366 142.958,70.6993 144.5,71.5C 146.914,74.094 149.914,75.7606 153.5,76.5C 154.167,76.1667 154.833,75.8333 155.5,75.5C 156.167,75.5 156.833,75.5 157.5,75.5C 165.173,72.88 172.84,72.88 180.5,75.5C 174.623,75.4869 168.623,75.6536 162.5,76C 160.881,76.2355 159.881,77.0689 159.5,78.5C 156.311,78.8583 153.311,79.525 150.5,80.5C 150.167,80.5 149.833,80.5 149.5,80.5C 148.828,78.3321 147.328,76.9988 145,76.5C 141.692,75.946 138.359,75.6127 135,75.5C 127.621,75.0099 121.454,77.3433 116.5,82.5C 111.714,86.6282 108.047,91.6282 105.5,97.5C 104.624,97.3691 103.957,97.7025 103.5,98.5C 102.669,100.58 101.669,102.58 100.5,104.5C 101.807,106.182 101.807,107.848 100.5,109.5C 100.309,114.899 100.809,120.233 102,125.5C 102.223,127.881 103.39,129.547 105.5,130.5C 105.259,133.034 106.259,134.7 108.5,135.5C 108.664,138.986 110.331,141.319 113.5,142.5C 113.427,144.027 114.094,145.027 115.5,145.5C 115.674,148.763 117.341,150.43 120.5,150.5C 123.655,155.708 122.655,156.708 117.5,153.5C 117.167,153.5 116.833,153.5 116.5,153.5C 114.525,150.694 112.025,148.361 109,146.5C 107.789,142.925 105.622,140.258 102.5,138.5C 102.082,134.651 100.415,131.651 97.5,129.5C 97.6138,126.784 96.6138,124.784 94.5,123.5C 94.5,122.833 94.5,122.167 94.5,121.5C 94.5299,120.503 94.0299,119.836 93,119.5C 91.0503,119.707 89.8836,120.707 89.5,122.5C 86.763,123.031 84.0964,123.864 81.5,125C 80.1772,125.816 79.5106,126.983 79.5,128.5C 79.5,129.167 79.1667,129.5 78.5,129.5C 75.7374,129.744 73.5707,131.077 72,133.5C 68.4817,137.537 66.315,142.203 65.5,147.5C 65.5,149.167 65.5,150.833 65.5,152.5C 65.5,155.167 65.5,157.833 65.5,160.5C 65.3359,163.187 65.5026,165.854 66,168.5C 66.2355,170.119 67.0689,171.119 68.5,171.5C 69.4582,173.302 70.1249,175.302 70.5,177.5C 70.5,178.833 71.1667,179.5 72.5,179.5C 72.5,179.833 72.5,180.167 72.5,180.5C 71.4502,180.905 71.4502,181.571 72.5,182.5C 74.264,184.278 76.264,185.611 78.5,186.5C 79.5,187.167 80.5,187.833 81.5,188.5C 82.7921,192.703 85.4587,194.037 89.5,192.5C 89.8333,192.5 90.1667,192.5 90.5,192.5C 90.5774,193.75 91.244,194.583 92.5,195C 94.1341,195.494 95.8008,195.66 97.5,195.5C 102.944,196.108 107.944,195.442 112.5,193.5C 113.552,193.649 114.552,193.483 115.5,193C 114.39,189.551 114.39,186.051 115.5,182.5C 117.256,181.448 117.923,179.781 117.5,177.5C 117.232,175.901 117.566,174.568 118.5,173.5C 120.837,171.493 122.171,168.827 122.5,165.5C 124.5,164.833 125.833,163.5 126.5,161.5C 128.256,162.552 128.923,164.219 128.5,166.5C 126.023,168.416 125.023,171.083 125.5,174.5C 125.5,181.5 125.5,188.5 125.5,195.5C 125.287,199.91 126.954,203.243 130.5,205.5C 130.5,205.833 130.5,206.167 130.5,206.5C 131.764,210.763 134.431,213.763 138.5,215.5C 139.167,215.5 139.5,215.833 139.5,216.5C 139.719,217.675 139.386,218.675 138.5,219.5C 137.264,218.754 135.93,218.421 134.5,218.5C 133.004,215.672 130.671,214.006 127.5,213.5C 126.833,210.833 125.167,209.167 122.5,208.5C 122.201,206.545 121.201,205.211 119.5,204.5C 117.926,202.898 117.259,200.898 117.5,198.5C 116.5,198.5 115.5,198.5 114.5,198.5C 111.612,197.99 109.279,198.656 107.5,200.5C 106.5,200.5 105.5,200.5 104.5,200.5C 101.833,199.167 99.1667,199.167 96.5,200.5C 95.8333,200.5 95.1667,200.5 94.5,200.5C 93.0821,198.692 91.0821,198.025 88.5,198.5C 88.5299,197.503 88.0299,196.836 87,196.5C 84.7752,195.904 82.6085,195.237 80.5,194.5C 78.0206,193.026 75.3539,192.026 72.5,191.5C 72.5,189.5 71.5,188.5 69.5,188.5C 69.5,187.5 69.5,186.5 69.5,185.5C 66.858,185.488 65.5246,186.821 65.5,189.5C 59.0499,193.731 55.7165,199.731 55.5,207.5C 55.5,211.833 55.5,216.167 55.5,220.5C 55.4207,223.271 55.9207,225.937 57,228.5C 57.4169,229.756 58.2502,230.423 59.5,230.5C 59.6696,233.204 61.0029,234.871 63.5,235.5C 64.1667,239.5 66.5,241.833 70.5,242.5C 70.5,244.5 71.5,245.5 73.5,245.5C 74.4916,245.328 75.1583,245.662 75.5,246.5C 75.5774,247.75 76.244,248.583 77.5,249C 80.0627,250.079 82.7294,250.579 85.5,250.5C 96.4946,251.77 107.495,251.77 118.5,250.5C 122.159,250.851 125.159,249.851 127.5,247.5C 127.833,247.5 128.167,247.5 128.5,247.5C 129.404,248.209 129.737,249.209 129.5,250.5C 126.539,250.464 124.206,251.464 122.5,253.5C 119.833,253.833 117.167,254.167 114.5,254.5C 103.822,255.779 93.1555,255.779 82.5,254.5C 82.3336,262.507 82.5003,270.507 83,278.5C 83.2004,280.32 84.0337,281.653 85.5,282.5C 85.667,286.179 87.3337,288.846 90.5,290.5C 90.6696,293.204 92.0029,294.871 94.5,295.5C 94.8333,295.5 95.1667,295.5 95.5,295.5C 97.1607,299.186 100.161,301.186 104.5,301.5C 104.577,302.75 105.244,303.583 106.5,304C 109.117,304.822 111.784,305.322 114.5,305.5C 117.167,305.5 119.833,305.5 122.5,305.5C 125.811,305.693 128.478,304.693 130.5,302.5C 135.043,301.707 139.376,300.207 143.5,298C 144.252,297.329 144.586,296.496 144.5,295.5C 150.104,291.731 154.938,287.064 159,281.5C 159.495,279.527 159.662,277.527 159.5,275.5C 159.5,275.167 159.5,274.833 159.5,274.5C 161.176,273.817 161.843,272.483 161.5,270.5C 161.369,269.624 161.702,268.957 162.5,268.5C 163.713,273.592 163.379,278.592 161.5,283.5C 158.887,289.733 155.053,295.066 150,299.5C 149.517,300.448 149.351,301.448 149.5,302.5C 148.833,302.833 148.167,303.167 147.5,303.5C 145.5,303.5 144.5,304.5 144.5,306.5C 144.167,306.5 143.833,306.5 143.5,306.5C 141.847,306.66 140.514,307.326 139.5,308.5C 138.5,308.5 137.5,308.5 136.5,308.5C 136.5,309.833 136.5,311.167 136.5,312.5C 135.501,317.005 135.501,321.672 136.5,326.5C 135.833,326.167 135.167,325.833 134.5,325.5C 133.8,321.202 133.467,316.869 133.5,312.5C 130.545,313.159 127.545,313.492 124.5,313.5C 119.833,313.5 115.167,313.5 110.5,313.5C 108.095,312.232 105.428,311.565 102.5,311.5C 100.065,309.109 97.0648,307.442 93.5,306.5C 93.1667,306.5 92.8333,306.5 92.5,306.5C 92.5,304.5 91.5,303.5 89.5,303.5C 88.5,303.167 87.8333,302.5 87.5,301.5C 87.4393,297.929 85.7726,295.596 82.5,294.5C 81.9825,289.928 80.3158,285.928 77.5,282.5C 77.5,281.167 77.5,279.833 77.5,278.5C 77.5,274.5 77.5,270.5 77.5,266.5C 77.5079,263.455 77.8413,260.455 78.5,257.5C 79.1239,257.083 79.4573,256.416 79.5,255.5C 79.2528,254.287 78.5862,253.62 77.5,253.5C 77.1667,253.5 76.8333,253.5 76.5,253.5C 74.2842,250.556 71.2842,248.889 67.5,248.5C 67.0133,247.527 66.5133,246.527 66,245.5C 63.1482,243.049 60.3149,240.715 57.5,238.5C 57.0871,234.662 55.4205,231.662 52.5,229.5C 49.8791,219.82 49.8791,210.153 52.5,200.5C 52.5,199.833 52.5,199.167 52.5,198.5C 55.4707,196.557 57.4707,193.891 58.5,190.5C 60.9971,189.871 62.3304,188.204 62.5,185.5C 62.8333,185.5 63.1667,185.5 63.5,185.5C 65.4841,185.516 66.4841,184.516 66.5,182.5C 64.5447,177.441 62.2114,172.774 59.5,168.5C 59.5,168.167 59.5,167.833 59.5,167.5C 60.299,160.246 60.799,152.912 61,145.5C 63.405,140.634 65.5717,135.634 67.5,130.5C 68.9063,130.027 69.573,129.027 69.5,127.5C 71.0269,127.573 72.0269,126.906 72.5,125.5C 75.344,125.657 77.0107,124.324 77.5,121.5C 77.8333,121.5 78.1667,121.5 78.5,121.5C 82.7797,120.759 86.4464,119.093 89.5,116.5C 91.1667,116.5 92.8333,116.5 94.5,116.5C 94.5,112.167 94.5,107.833 94.5,103.5C 94.5,103.167 94.5,102.833 94.5,102.5C 97.1257,100.236 98.459,97.2364 98.5,93.5C 100.822,92.1979 102.155,90.1979 102.5,87.5C 105.264,86.0525 106.931,83.7191 107.5,80.5C 110.367,80.6308 112.033,79.2974 112.5,76.5C 115.849,75.8305 118.516,74.1639 120.5,71.5C 121.919,70.5489 123.585,70.2155 125.5,70.5 Z"/></g>
<g><path style="opacity:0.114" fill="#5a5a5a" d="M 94.5,121.5 C 92.8828,122.038 91.2161,122.371 89.5,122.5C 89.8836,120.707 91.0503,119.707 93,119.5C 94.0299,119.836 94.5299,120.503 94.5,121.5 Z"/></g>
<g><path style="opacity:0.039" fill="#2c2d2c" d="M 157.5,73.5 C 157.5,74.1667 157.5,74.8333 157.5,75.5C 156.833,75.5 156.167,75.5 155.5,75.5C 155.5,74.1667 156.167,73.5 157.5,73.5 Z"/></g>
<g><path style="opacity:0.193" fill="#6e6e6e" d="M 77.5,121.5 C 77.0107,124.324 75.344,125.657 72.5,125.5C 73.5387,123.469 75.2054,122.136 77.5,121.5 Z"/></g>
<g><path style="opacity:0.055" fill="#1d1d1d" d="M 245.5,124.5 C 244.167,124.5 243.5,125.167 243.5,126.5C 242.596,125.791 242.263,124.791 242.5,123.5C 243.791,123.263 244.791,123.596 245.5,124.5 Z"/></g>
<g><path style="opacity:0.141" fill="#414141" d="M 72.5,125.5 C 72.0269,126.906 71.0269,127.573 69.5,127.5C 69.9731,126.094 70.9731,125.427 72.5,125.5 Z"/></g>
<g><path style="opacity:0.216" fill="#6d6d6d" d="M 89.5,122.5 C 86.4308,124.895 83.0975,126.895 79.5,128.5C 79.5106,126.983 80.1772,125.816 81.5,125C 84.0964,123.864 86.763,123.031 89.5,122.5 Z"/></g>
<g><path style="opacity:0.276" fill="#686868" d="M 94.5,123.5 C 96.6138,124.784 97.6138,126.784 97.5,129.5C 95.3862,128.216 94.3862,126.216 94.5,123.5 Z"/></g>
<g><path style="opacity:0.241" fill="#767676" d="M 292.5,121.5 C 295.209,123.903 297.209,126.903 298.5,130.5C 295.723,128.049 293.723,125.049 292.5,121.5 Z"/></g>
<g><path style="opacity:0.165" fill="#505050" d="M 69.5,127.5 C 69.573,129.027 68.9063,130.027 67.5,130.5C 67.427,128.973 68.0937,127.973 69.5,127.5 Z"/></g>
<g><path style="opacity:0.012" fill="#292929" d="M 206.5,80.5 C 207.167,80.5 207.833,80.5 208.5,80.5C 208.831,102.007 208.497,123.34 207.5,144.5C 206.532,142.393 206.198,140.059 206.5,137.5C 206.5,127.5 206.5,117.5 206.5,107.5C 206.5,98.5 206.5,89.5 206.5,80.5 Z"/></g>
<g><path style="opacity:0.999" fill="#f1f1f1" d="M 261.5,133.5 C 263.214,136.213 265.547,138.213 268.5,139.5C 269.845,141.697 271.011,144.03 272,146.5C 273.113,147.305 274.279,147.972 275.5,148.5C 276.545,153.155 278.378,157.488 281,161.5C 281.826,164.793 282.326,168.126 282.5,171.5C 282.827,176.544 282.494,181.544 281.5,186.5C 280.671,183.198 280.004,179.865 279.5,176.5C 279.253,175.287 278.586,174.62 277.5,174.5C 277.697,170.738 276.364,167.738 273.5,165.5C 272.766,164.292 272.433,162.959 272.5,161.5C 272.269,158.937 270.935,157.27 268.5,156.5C 268.167,155.833 267.833,155.167 267.5,154.5C 267.333,150.821 265.666,148.154 262.5,146.5C 262.22,143.28 260.553,141.28 257.5,140.5C 257.631,139.761 257.464,139.094 257,138.5C 255.6,137.252 254.1,136.252 252.5,135.5C 251.833,133.5 250.5,132.167 248.5,131.5C 247.833,131.5 247.5,131.167 247.5,130.5C 246.374,129.142 246.374,127.808 247.5,126.5C 251.936,129.262 256.602,131.596 261.5,133.5 Z"/></g>
<g><path style="opacity:0.031" fill="#505050" d="M 303.5,123.5 C 306.521,126.206 308.521,129.539 309.5,133.5C 306.498,130.839 304.498,127.505 303.5,123.5 Z"/></g>
<g><path style="opacity:0.51" fill="#818181" d="M 245.5,124.5 C 252.094,125.48 257.427,128.48 261.5,133.5C 256.602,131.596 251.936,129.262 247.5,126.5C 246.374,127.808 246.374,129.142 247.5,130.5C 245.167,130.167 243.833,128.833 243.5,126.5C 243.5,125.167 244.167,124.5 245.5,124.5 Z"/></g>
<g><path style="opacity:0.039" fill="#606060" d="M 105.5,130.5 C 107.25,131.659 108.25,133.326 108.5,135.5C 106.259,134.7 105.259,133.034 105.5,130.5 Z"/></g>
<g><path style="opacity:0.259" fill="#555555" d="M 248.5,131.5 C 250.5,132.167 251.833,133.5 252.5,135.5C 250.167,135.167 248.833,133.833 248.5,131.5 Z"/></g>
<g><path style="opacity:0.096" fill="#848484" d="M 97.5,129.5 C 100.415,131.651 102.082,134.651 102.5,138.5C 99.5795,136.338 97.9129,133.338 97.5,129.5 Z"/></g>
<g><path style="opacity:0.541" fill="#6d6d6d" d="M 261.5,133.5 C 264.427,134.757 266.761,136.757 268.5,139.5C 265.547,138.213 263.214,136.213 261.5,133.5 Z"/></g>
<g><path style="opacity:0.886" fill="#959595" d="M 299.5,132.5 C 304.358,135.315 307.025,139.648 307.5,145.5C 306.624,145.631 305.957,145.298 305.5,144.5C 304.001,140.168 302.001,136.168 299.5,132.5 Z"/></g>
<g><path style="opacity:0.055" fill="#5a5a5a" d="M 252.5,135.5 C 254.1,136.252 255.6,137.252 257,138.5C 257.464,139.094 257.631,139.761 257.5,140.5C 254.856,139.856 253.189,138.189 252.5,135.5 Z"/></g>
<g><path style="opacity:0.498" fill="#828282" d="M 78.5,129.5 C 75.9172,132.266 73.4172,135.266 71,138.5C 69.3733,141.357 68.2067,144.357 67.5,147.5C 66.8333,147.5 66.1667,147.5 65.5,147.5C 66.315,142.203 68.4817,137.537 72,133.5C 73.5707,131.077 75.7374,129.744 78.5,129.5 Z"/></g>
<g><path style="opacity:0.227" fill="#696969" d="M 108.5,135.5 C 110.522,137.531 112.189,139.865 113.5,142.5C 110.331,141.319 108.664,138.986 108.5,135.5 Z"/></g>
<g><path style="opacity:0.2" fill="#868686" d="M 309.5,133.5 C 312.207,136.247 313.873,139.58 314.5,143.5C 312.386,142.093 310.886,140.093 310,137.5C 309.51,136.207 309.343,134.873 309.5,133.5 Z"/></g>
<g><path style="opacity:0.26" fill="#6f6f6f" d="M 185.5,121.5 C 186.167,121.5 186.833,121.5 187.5,121.5C 187.5,128.833 187.5,136.167 187.5,143.5C 186.833,143.5 186.167,143.5 185.5,143.5C 185.5,136.167 185.5,128.833 185.5,121.5 Z"/></g>
<g><path style="opacity:0.051" fill="#343434" d="M 113.5,142.5 C 114.906,142.973 115.573,143.973 115.5,145.5C 114.094,145.027 113.427,144.027 113.5,142.5 Z"/></g>
<g><path style="opacity:0.337" fill="#888888" d="M 257.5,140.5 C 260.553,141.28 262.22,143.28 262.5,146.5C 259.923,145.394 258.256,143.394 257.5,140.5 Z"/></g>
<g><path style="opacity:0.059" fill="#555555" d="M 102.5,138.5 C 105.622,140.258 107.789,142.925 109,146.5C 112.025,148.361 114.525,150.694 116.5,153.5C 109.791,150.423 105.125,145.423 102.5,138.5 Z"/></g>
<g><path style="opacity:0.259" fill="#6c6c6c" d="M 268.5,139.5 C 271.973,141.637 274.306,144.637 275.5,148.5C 274.279,147.972 273.113,147.305 272,146.5C 271.011,144.03 269.845,141.697 268.5,139.5 Z"/></g>
<g><path style="opacity:0.769" fill="#888888" d="M 307.5,145.5 C 309.256,146.552 309.923,148.219 309.5,150.5C 308.069,149.22 307.402,147.553 307.5,145.5 Z"/></g>
<g><path style="opacity:0.041" fill="#272727" d="M 65.5,147.5 C 66.1667,147.5 66.8333,147.5 67.5,147.5C 67.8799,149.698 67.2132,151.365 65.5,152.5C 65.5,150.833 65.5,149.167 65.5,147.5 Z"/></g>
<g><path style="opacity:0.357" fill="#7a7a7a" d="M 115.5,145.5 C 118.167,146.167 119.833,147.833 120.5,150.5C 117.341,150.43 115.674,148.763 115.5,145.5 Z"/></g>
<g><path style="opacity:0.249" fill="#6f6f6f" d="M 262.5,146.5 C 265.666,148.154 267.333,150.821 267.5,154.5C 265.12,152.418 263.454,149.751 262.5,146.5 Z"/></g>
<g><path style="opacity:0.227" fill="#797979" d="M 315.5,145.5 C 318.438,150.148 320.938,155.148 323,160.5C 323.822,163.117 324.322,165.784 324.5,168.5C 323.503,168.53 322.836,168.03 322.5,167C 319.81,159.96 317.476,152.793 315.5,145.5 Z"/></g>
<g><path style="opacity:0.333" fill="#6e6e6e" d="M 120.5,150.5 C 123.986,151.152 125.153,153.152 124,156.5C 120.552,158.264 118.385,157.264 117.5,153.5C 122.655,156.708 123.655,155.708 120.5,150.5 Z"/></g>
<g><path style="opacity:0.413" fill="#ababab" d="M 67.5,130.5 C 65.5717,135.634 63.405,140.634 61,145.5C 60.799,152.912 60.299,160.246 59.5,167.5C 57.8786,157.854 58.3786,148.187 61,138.5C 62.8889,136.517 64.2223,134.184 65,131.5C 65.6708,130.748 66.5041,130.414 67.5,130.5 Z"/></g>
<g><path style="opacity:0.533" fill="#777777" d="M 275.5,148.5 C 276.458,148.953 277.292,149.619 278,150.5C 279.1,153.866 280.6,157.033 282.5,160C 283.958,164.043 284.625,168.209 284.5,172.5C 283.833,172.167 283.167,171.833 282.5,171.5C 282.326,168.126 281.826,164.793 281,161.5C 278.378,157.488 276.545,153.155 275.5,148.5 Z"/></g>
<g><path style="opacity:0.584" fill="#9c9c9c" d="M 309.5,150.5 C 311.6,152.155 313.266,154.322 314.5,157C 315.608,158.677 315.608,160.177 314.5,161.5C 312.423,158.068 310.756,154.401 309.5,150.5 Z"/></g>
<g><path style="opacity:0.39" fill="#afafaf" d="M 185.5,143.5 C 186.167,143.5 186.833,143.5 187.5,143.5C 188.117,149.598 187.45,155.265 185.5,160.5C 185.5,154.833 185.5,149.167 185.5,143.5 Z"/></g>
<g><path style="opacity:0.308" fill="#747474" d="M 268.5,156.5 C 270.935,157.27 272.269,158.937 272.5,161.5C 270.469,160.461 269.136,158.795 268.5,156.5 Z"/></g>
<g><path style="opacity:0.055" fill="#212121" d="M 124.5,161.5 C 125.919,160.549 127.585,160.216 129.5,160.5C 129.795,162.735 129.461,164.735 128.5,166.5C 128.923,164.219 128.256,162.552 126.5,161.5C 125.833,161.5 125.167,161.5 124.5,161.5 Z"/></g>
<g><path style="opacity:0.604" fill="#757575" d="M 314.5,162.5 C 316.821,164.09 317.821,166.423 317.5,169.5C 315.464,167.794 314.464,165.461 314.5,162.5 Z"/></g>
<g><path style="opacity:0.302" fill="#828282" d="M 124.5,161.5 C 125.167,161.5 125.833,161.5 126.5,161.5C 125.833,163.5 124.5,164.833 122.5,165.5C 122.733,163.938 123.4,162.605 124.5,161.5 Z"/></g>
<g><path style="opacity:0.292" fill="#a1a1a1" d="M 206.5,137.5 C 206.198,140.059 206.532,142.393 207.5,144.5C 207.5,162.167 207.5,179.833 207.5,197.5C 206.833,197.5 206.167,197.5 205.5,197.5C 205.17,177.326 205.503,157.326 206.5,137.5 Z"/></g>
<g><path style="opacity:0.263" fill="#606060" d="M 65.5,160.5 C 66.1174,160.611 66.6174,160.944 67,161.5C 67.6103,164.827 68.1103,168.161 68.5,171.5C 67.0689,171.119 66.2355,170.119 66,168.5C 65.5026,165.854 65.3359,163.187 65.5,160.5 Z"/></g>
<g><path style="opacity:0.502" fill="#767676" d="M 122.5,165.5 C 122.171,168.827 120.837,171.493 118.5,173.5C 118.532,170.006 119.865,167.339 122.5,165.5 Z"/></g>
<g><path style="opacity:0.251" fill="#6a6a6a" d="M 128.5,166.5 C 128.482,169.736 127.482,172.403 125.5,174.5C 125.023,171.083 126.023,168.416 128.5,166.5 Z"/></g>
<g><path style="opacity:0.398" fill="#7d7d7d" d="M 273.5,165.5 C 276.364,167.738 277.697,170.738 277.5,174.5C 276.414,174.38 275.747,173.713 275.5,172.5C 274.533,170.238 273.866,167.905 273.5,165.5 Z"/></g>
<g><path style="opacity:0.733" fill="#8a8a8a" d="M 59.5,168.5 C 62.2114,172.774 64.5447,177.441 66.5,182.5C 66.4841,184.516 65.4841,185.516 63.5,185.5C 64.3821,181.458 63.3821,177.791 60.5,174.5C 59.8444,172.547 59.5111,170.547 59.5,168.5 Z"/></g>
<g><path style="opacity:0.122" fill="#565656" d="M 70.5,177.5 C 71.8333,177.5 72.5,178.167 72.5,179.5C 72.5,178.167 71.8333,177.5 70.5,177.5 Z"/></g>
<g><path style="opacity:0.286" fill="#616161" d="M 325.5,173.5 C 326.117,173.611 326.617,173.944 327,174.5C 327.826,177.793 328.326,181.126 328.5,184.5C 327.833,184.5 327.167,184.5 326.5,184.5C 326.058,180.846 325.724,177.179 325.5,173.5 Z"/></g>
<g><path style="opacity:0.292" fill="#686868" d="M 117.5,177.5 C 117.923,179.781 117.256,181.448 115.5,182.5C 115.077,180.219 115.744,178.552 117.5,177.5 Z"/></g>
<g><path style="opacity:0.386" fill="#919191" d="M 318.5,174.5 C 319.586,174.62 320.253,175.287 320.5,176.5C 321.493,180.791 322.16,185.124 322.5,189.5C 321.833,189.5 321.167,189.5 320.5,189.5C 319.725,184.516 319.058,179.516 318.5,174.5 Z"/></g>
<g><path style="opacity:0.231" fill="#646464" d="M 72.5,180.5 C 74.8333,182.167 76.8333,184.167 78.5,186.5C 76.264,185.611 74.264,184.278 72.5,182.5C 71.4502,181.571 71.4502,180.905 72.5,180.5 Z"/></g>
<g><path style="opacity:0.404" fill="#777777" d="M 69.5,188.5 C 68.1667,188.833 66.8333,189.167 65.5,189.5C 65.5246,186.821 66.858,185.488 69.5,185.5C 69.5,186.5 69.5,187.5 69.5,188.5 Z"/></g>
<g><path style="opacity:0.208" fill="#a2a2a2" d="M 282.5,171.5 C 283.167,171.833 283.833,172.167 284.5,172.5C 285.492,177.9 285.158,183.233 283.5,188.5C 282.167,188.833 280.833,189.167 279.5,189.5C 278.647,184.53 277.98,179.53 277.5,174.5C 278.586,174.62 279.253,175.287 279.5,176.5C 280.004,179.865 280.671,183.198 281.5,186.5C 282.494,181.544 282.827,176.544 282.5,171.5 Z"/></g>
<g><path style="opacity:0.263" fill="#828282" d="M 62.5,185.5 C 62.3304,188.204 60.9971,189.871 58.5,190.5C 59.1355,188.205 60.4689,186.539 62.5,185.5 Z"/></g>
<g><path style="opacity:0.043" fill="#2f2f2f" d="M 69.5,188.5 C 71.5,188.5 72.5,189.5 72.5,191.5C 71.1667,190.833 70.1667,189.833 69.5,188.5 Z"/></g>
<g><path style="opacity:0.157" fill="#585858" d="M 283.5,188.5 C 283.5,189.5 283.5,190.5 283.5,191.5C 281.517,191.843 280.183,191.176 279.5,189.5C 280.833,189.167 282.167,188.833 283.5,188.5 Z"/></g>
<g><path style="opacity:0.269" fill="#898989" d="M 326.5,184.5 C 327.167,184.5 327.833,184.5 328.5,184.5C 329.768,193.845 329.768,203.178 328.5,212.5C 327.833,212.5 327.167,212.5 326.5,212.5C 327.833,203.167 327.833,193.833 326.5,184.5 Z"/></g>
<g><path style="opacity:0.863" fill="#848484" d="M 81.5,188.5 C 83.9373,190.385 86.6039,191.719 89.5,192.5C 85.4587,194.037 82.7921,192.703 81.5,188.5 Z"/></g>
<g><path style="opacity:0.224" fill="#767676" d="M 58.5,190.5 C 57.4707,193.891 55.4707,196.557 52.5,198.5C 53.2616,194.823 55.2616,192.156 58.5,190.5 Z"/></g>
<g><path style="opacity:0.147" fill="#5f5f5f" d="M 72.5,191.5 C 75.3539,192.026 78.0206,193.026 80.5,194.5C 80.5,195.167 80.5,195.833 80.5,196.5C 77.4887,195.331 74.822,193.664 72.5,191.5 Z"/></g>
<g><path style="opacity:0.459" fill="#a1a1a1" d="M 90.5,192.5 C 92.8056,192.993 95.139,193.326 97.5,193.5C 97.5,194.167 97.5,194.833 97.5,195.5C 95.8008,195.66 94.1341,195.494 92.5,195C 91.244,194.583 90.5774,193.75 90.5,192.5 Z"/></g>
<g><path style="opacity:0.095" fill="#363636" d="M 97.5,193.5 C 102.5,193.5 107.5,193.5 112.5,193.5C 107.944,195.442 102.944,196.108 97.5,195.5C 97.5,194.833 97.5,194.167 97.5,193.5 Z"/></g>
<g><path style="opacity:0.549" fill="#9d9d9d" d="M 80.5,194.5 C 82.6085,195.237 84.7752,195.904 87,196.5C 88.0299,196.836 88.5299,197.503 88.5,198.5C 85.5049,198.706 82.8383,198.04 80.5,196.5C 80.5,195.833 80.5,195.167 80.5,194.5 Z"/></g>
<g><path style="opacity:0.42" fill="#6e6e6e" d="M 65.5,189.5 C 61.6125,195.283 58.2791,201.283 55.5,207.5C 55.7165,199.731 59.0499,193.731 65.5,189.5 Z"/></g>
<g><path style="opacity:0.247" fill="#707070" d="M 88.5,198.5 C 91.0821,198.025 93.0821,198.692 94.5,200.5C 92.1016,200.741 90.1016,200.074 88.5,198.5 Z"/></g>
<g><path style="opacity:0.092" fill="#4d4d4d" d="M 114.5,198.5 C 112.485,199.924 110.152,200.59 107.5,200.5C 109.279,198.656 111.612,197.99 114.5,198.5 Z"/></g>
<g><path style="opacity:0.052" fill="#2c2c2c" d="M 320.5,189.5 C 321.167,189.5 321.833,189.5 322.5,189.5C 322.5,195.833 322.5,202.167 322.5,208.5C 321.833,208.5 321.167,208.5 320.5,208.5C 320.5,202.167 320.5,195.833 320.5,189.5 Z"/></g>
<g><path style="opacity:0.894" fill="#fefffe" d="M 799.5,198.5 C 806.91,198.149 813.91,199.649 820.5,203C 823.612,205.439 825.945,208.439 827.5,212C 827,215.167 825.167,217 822,217.5C 818.569,215.739 815.403,213.572 812.5,211C 807.125,209.125 801.791,209.125 796.5,211C 791.167,216 791.167,221 796.5,226C 804.919,229.807 813.253,233.807 821.5,238C 833.322,249.28 833.322,260.613 821.5,272C 809.819,277.96 798.152,277.96 786.5,272C 782.617,269.131 779.95,265.465 778.5,261C 779.634,255.627 782.634,254.294 787.5,257C 795.135,266.574 804.469,268.574 815.5,263C 818.671,259.15 819.504,254.983 818,250.5C 816.5,249 815,247.5 813.5,246C 804.873,242.571 796.54,238.571 788.5,234C 780.683,225.672 779.516,216.505 785,206.5C 789.134,202.354 793.968,199.687 799.5,198.5 Z"/></g>
<g><path style="opacity:0.897" fill="#fefffe" d="M 391.5,199.5 C 394.272,199.22 396.772,199.887 399,201.5C 407.667,212.167 416.333,222.833 425,233.5C 433.833,222.667 442.667,211.833 451.5,201C 454.46,198.948 457.293,199.114 460,201.5C 461.636,224.77 461.969,248.103 461,271.5C 459.309,275.213 456.475,276.379 452.5,275C 451.299,274.097 450.465,272.931 450,271.5C 449.667,254.5 449.333,237.5 449,220.5C 442.759,227.985 436.759,235.652 431,243.5C 429.093,247.01 426.26,248.176 422.5,247C 415,238.167 407.5,229.333 400,220.5C 399.667,238.167 399.333,255.833 399,273.5C 395.667,276.167 392.333,276.167 389,273.5C 388.333,249.833 388.333,226.167 389,202.5C 390.045,201.627 390.878,200.627 391.5,199.5 Z"/></g>
<g><path style="opacity:0.935" fill="#fefffe" d="M 481.5,199.5 C 497.503,199.333 513.503,199.5 529.5,200C 532.978,202.706 533.311,205.706 530.5,209C 516.837,209.5 503.171,209.667 489.5,209.5C 489.5,217.167 489.5,224.833 489.5,232.5C 500.172,232.333 510.839,232.5 521.5,233C 524.167,236 524.167,239 521.5,242C 510.839,242.5 500.172,242.667 489.5,242.5C 489.5,250.167 489.5,257.833 489.5,265.5C 502.837,265.333 516.171,265.5 529.5,266C 532.978,268.706 533.311,271.706 530.5,275C 513.593,275.825 496.759,275.658 480,274.5C 478.354,250.588 478.02,226.588 479,202.5C 480.045,201.627 480.878,200.627 481.5,199.5 Z"/></g>
<g><path style="opacity:0.915" fill="#fefffe" d="M 547.5,199.5 C 552.029,199.496 555.529,201.496 558,205.5C 571,221.833 584,238.167 597,254.5C 597.333,237.167 597.667,219.833 598,202.5C 600.838,198.965 604.005,198.632 607.5,201.5C 608.656,225.457 608.823,249.457 608,273.5C 606.758,274.872 605.258,275.872 603.5,276.5C 600.567,275.07 598.067,273.07 596,270.5C 582.667,253.833 569.333,237.167 556,220.5C 555.667,238.167 555.333,255.833 555,273.5C 551.667,276.167 548.333,276.167 545,273.5C 544.333,249.833 544.333,226.167 545,202.5C 546.045,201.627 546.878,200.627 547.5,199.5 Z"/></g>
<g><path style="opacity:0.907" fill="#fefffe" d="M 620.5,199.5 C 638.836,199.333 657.17,199.5 675.5,200C 678.978,202.706 679.311,205.706 676.5,209C 668.92,210.396 661.253,210.896 653.5,210.5C 653.667,231.503 653.5,252.503 653,273.5C 649.667,276.167 646.333,276.167 643,273.5C 642.5,252.503 642.333,231.503 642.5,210.5C 634.747,210.896 627.08,210.396 619.5,209C 616.908,205.583 617.241,202.416 620.5,199.5 Z"/></g>
<g><path style="opacity:0.935" fill="#fefffe" d="M 690.5,199.5 C 706.503,199.333 722.503,199.5 738.5,200C 741.978,202.706 742.311,205.706 739.5,209C 725.837,209.5 712.171,209.667 698.5,209.5C 698.5,217.167 698.5,224.833 698.5,232.5C 709.172,232.333 719.839,232.5 730.5,233C 733.167,236 733.167,239 730.5,242C 719.839,242.5 709.172,242.667 698.5,242.5C 698.5,250.167 698.5,257.833 698.5,265.5C 711.837,265.333 725.171,265.5 738.5,266C 741.978,268.706 742.311,271.706 739.5,275C 722.593,275.825 705.759,275.658 689,274.5C 687.354,250.588 687.02,226.588 688,202.5C 689.045,201.627 689.878,200.627 690.5,199.5 Z"/></g>
<g><path style="opacity:0.897" fill="#fefffe" d="M 847.5,199.5 C 850.272,199.22 852.772,199.887 855,201.5C 863.667,212.167 872.333,222.833 881,233.5C 889.833,222.667 898.667,211.833 907.5,201C 910.46,198.948 913.293,199.114 916,201.5C 917.636,224.77 917.969,248.103 917,271.5C 915.309,275.213 912.475,276.379 908.5,275C 907.299,274.097 906.465,272.931 906,271.5C 905.667,254.5 905.333,237.5 905,220.5C 898.759,227.985 892.759,235.652 887,243.5C 885.093,247.01 882.26,248.176 878.5,247C 871,238.167 863.5,229.333 856,220.5C 855.667,238.167 855.333,255.833 855,273.5C 851.667,276.167 848.333,276.167 845,273.5C 844.333,249.833 844.333,226.167 845,202.5C 846.045,201.627 846.878,200.627 847.5,199.5 Z"/></g>
<g><path style="opacity:0.907" fill="#fefffe" d="M 958.5,199.5 C 963.133,198.458 966.299,200.125 968,204.5C 977,225.833 986,247.167 995,268.5C 995.902,273.025 994.069,275.692 989.5,276.5C 987.742,275.872 986.242,274.872 985,273.5C 983.069,269.207 981.236,264.874 979.5,260.5C 967.5,259.167 955.5,259.167 943.5,260.5C 941.551,265.563 939.218,270.396 936.5,275C 930.07,277.219 927.237,275.053 928,268.5C 936.667,247.833 945.333,227.167 954,206.5C 955.012,203.798 956.512,201.465 958.5,199.5 Z M 960.5,216.5 C 962.136,217.749 963.303,219.416 964,221.5C 967.798,230.755 971.298,240.089 974.5,249.5C 965.494,249.666 956.494,249.5 947.5,249C 952.524,238.427 956.857,227.593 960.5,216.5 Z"/></g>
<g><path style="opacity:0.891" fill="#fefffe" d="M 1009.5,199.5 C 1018.84,199.334 1028.17,199.5 1037.5,200C 1056.61,205.039 1063.77,217.206 1059,236.5C 1056.89,242.272 1053.06,246.438 1047.5,249C 1052,255.5 1056.5,262 1061,268.5C 1061.58,275.125 1058.75,277.292 1052.5,275C 1047.04,267.923 1041.71,260.756 1036.5,253.5C 1030.2,252.504 1023.87,252.17 1017.5,252.5C 1017.92,259.615 1017.42,266.615 1016,273.5C 1011.88,276.592 1008.55,275.925 1006,271.5C 1005.33,249.167 1005.33,226.833 1006,204.5C 1006.26,202.093 1007.42,200.427 1009.5,199.5 Z M 1017.5,209.5 C 1022.51,209.334 1027.51,209.501 1032.5,210C 1046.5,212.004 1051.67,219.838 1048,233.5C 1046.24,236.473 1043.74,238.64 1040.5,240C 1032.92,241.396 1025.25,241.896 1017.5,241.5C 1017.5,230.833 1017.5,220.167 1017.5,209.5 Z"/></g>
<g><path style="opacity:0.869" fill="#fefffe" d="M 1069.5,199.5 C 1087.5,199.333 1105.5,199.5 1123.5,200C 1127.69,202.239 1128.36,205.239 1125.5,209C 1117.92,210.396 1110.25,210.896 1102.5,210.5C 1102.67,230.836 1102.5,251.169 1102,271.5C 1100.37,275.212 1097.54,276.379 1093.5,275C 1092.11,273.829 1091.27,272.329 1091,270.5C 1090.5,250.503 1090.33,230.503 1090.5,210.5C 1083.05,210.929 1075.72,210.429 1068.5,209C 1065.77,205.508 1066.1,202.342 1069.5,199.5 Z"/></g>
<g><path style="opacity:0.012" fill="#1d1d1d" d="M 104.5,200.5 C 101.833,201.833 99.1667,201.833 96.5,200.5C 99.1667,199.167 101.833,199.167 104.5,200.5 Z"/></g>
<g><path style="opacity:0.212" fill="#717171" d="M 125.5,195.5 C 127.897,198.288 129.564,201.621 130.5,205.5C 126.954,203.243 125.287,199.91 125.5,195.5 Z"/></g>
<g><path style="opacity:0.073" fill="#595959" d="M 119.5,204.5 C 121.201,205.211 122.201,206.545 122.5,208.5C 120.088,208.306 119.088,206.973 119.5,204.5 Z"/></g>
<g><path style="opacity:0.548" fill="#888888" d="M 52.5,200.5 C 49.8791,210.153 49.8791,219.82 52.5,229.5C 51.0689,229.119 50.2355,228.119 50,226.5C 48,218.5 48,210.5 50,202.5C 50.4169,201.244 51.2502,200.577 52.5,200.5 Z"/></g>
<g><path style="opacity:0.251" fill="#838383" d="M 130.5,206.5 C 132.017,206.511 133.184,207.177 134,208.5C 135.172,211.129 136.672,213.462 138.5,215.5C 134.431,213.763 131.764,210.763 130.5,206.5 Z"/></g>
<g><path style="opacity:0.278" fill="#909090" d="M 122.5,208.5 C 125.167,209.167 126.833,210.833 127.5,213.5C 124.833,212.833 123.167,211.167 122.5,208.5 Z"/></g>
<g><path style="opacity:0.243" fill="#7a7a7a" d="M 127.5,213.5 C 130.671,214.006 133.004,215.672 134.5,218.5C 130.893,218.435 128.56,216.769 127.5,213.5 Z"/></g>
<g><path style="opacity:0.116" fill="#4f4f4f" d="M 326.5,212.5 C 327.167,212.5 327.833,212.5 328.5,212.5C 328.436,216.22 327.936,219.886 327,223.5C 326.617,224.056 326.117,224.389 325.5,224.5C 325.646,220.481 325.979,216.481 326.5,212.5 Z"/></g>
<g><path style="opacity:0.114" fill="#5b5b5b" d="M 139.5,216.5 C 140.451,222.187 138.784,222.854 134.5,218.5C 135.93,218.421 137.264,218.754 138.5,219.5C 139.386,218.675 139.719,217.675 139.5,216.5 Z"/></g>
<g><path style="opacity:0.196" fill="#6a6a6a" d="M 280.5,235.5 C 281.368,231.192 281.534,226.859 281,222.5C 279.97,224.346 278.804,226.013 277.5,227.5C 277.756,225.063 278.423,222.729 279.5,220.5C 280.689,219.571 282.022,219.238 283.5,219.5C 283.666,223.514 283.499,227.514 283,231.5C 282.8,233.32 281.966,234.653 280.5,235.5 Z"/></g>
<g><path style="opacity:0.12" fill="#555555" d="M 205.5,197.5 C 206.167,197.5 206.833,197.5 207.5,197.5C 207.5,208.833 207.5,220.167 207.5,231.5C 206.833,231.5 206.167,231.5 205.5,231.5C 205.5,220.167 205.5,208.833 205.5,197.5 Z"/></g>
<g><path style="opacity:0.596" fill="#a2a2a2" d="M 320.5,208.5 C 321.167,208.5 321.833,208.5 322.5,208.5C 321.772,222.837 317.939,236.17 311,248.5C 310.329,249.252 309.496,249.586 308.5,249.5C 311.877,242.38 314.877,235.046 317.5,227.5C 319.043,221.244 320.043,214.911 320.5,208.5 Z"/></g>
<g><path style="opacity:0.267" fill="#878787" d="M 55.5,220.5 C 57.4454,223.393 58.7787,226.727 59.5,230.5C 58.2502,230.423 57.4169,229.756 57,228.5C 55.9207,225.937 55.4207,223.271 55.5,220.5 Z"/></g>
<g><path style="opacity:0.376" fill="#8e8e8e" d="M 325.5,224.5 C 325.58,227.781 324.913,230.781 323.5,233.5C 322.833,233.5 322.167,233.5 321.5,233.5C 321.792,229.934 323.126,226.934 325.5,224.5 Z"/></g>
<g><path style="opacity:0.995" fill="#eeeeee" d="M 280.5,235.5 C 280.5,235.833 280.5,236.167 280.5,236.5C 277.538,238.665 275.871,241.665 275.5,245.5C 275.5,246.167 275.167,246.5 274.5,246.5C 272.689,247.822 270.689,248.322 268.5,248C 270.862,244.076 272.528,239.909 273.5,235.5C 275.931,233.954 277.264,231.621 277.5,228.5C 277.5,228.167 277.5,227.833 277.5,227.5C 278.804,226.013 279.97,224.346 281,222.5C 281.534,226.859 281.368,231.192 280.5,235.5 Z"/></g>
<g><path style="opacity:0.353" fill="#8f8f8f" d="M 277.5,228.5 C 277.264,231.621 275.931,233.954 273.5,235.5C 273.736,232.379 275.069,230.046 277.5,228.5 Z"/></g>
<g><path style="opacity:0.086" fill="#5b5b5b" d="M 59.5,230.5 C 61.5869,231.585 62.9202,233.251 63.5,235.5C 61.0029,234.871 59.6696,233.204 59.5,230.5 Z"/></g>
<g><path style="opacity:0.055" fill="#4f4f4f" d="M 321.5,233.5 C 322.167,233.5 322.833,233.5 323.5,233.5C 323.539,236.089 322.539,238.089 320.5,239.5C 320.833,237.5 321.167,235.5 321.5,233.5 Z"/></g>
<g><path style="opacity:0.133" fill="#797979" d="M 52.5,229.5 C 55.4205,231.662 57.0871,234.662 57.5,238.5C 54.5795,236.338 52.9129,233.338 52.5,229.5 Z"/></g>
<g><path style="opacity:0.159" fill="#7a7a7a" d="M 63.5,235.5 C 65.8333,237.833 68.1667,240.167 70.5,242.5C 68.1667,240.167 65.8333,237.833 63.5,235.5 Z"/></g>
<g><path style="opacity:0.106" fill="#6b6b6b" d="M 70.5,242.5 C 72.5,242.5 73.5,243.5 73.5,245.5C 73.5,243.5 72.5,242.5 70.5,242.5 Z"/></g>
<g><path style="opacity:0.108" fill="#6f6f6f" d="M 280.5,236.5 C 280.116,240.272 278.45,243.272 275.5,245.5C 275.871,241.665 277.538,238.665 280.5,236.5 Z"/></g>
<g><path style="opacity:0.184" fill="#757575" d="M 57.5,238.5 C 60.3149,240.715 63.1482,243.049 66,245.5C 66.5133,246.527 67.0133,247.527 67.5,248.5C 63.1881,246.188 59.8548,242.855 57.5,238.5 Z"/></g>
<g><path style="opacity:0.725" fill="#838383" d="M 75.5,246.5 C 79.2733,247.221 82.6066,248.555 85.5,250.5C 82.7294,250.579 80.0627,250.079 77.5,249C 76.244,248.583 75.5774,247.75 75.5,246.5 Z"/></g>
<g><path style="opacity:0.027" fill="#636363" d="M 320.5,240.5 C 319.958,244.498 318.291,247.832 315.5,250.5C 315.659,246.326 317.325,242.992 320.5,240.5 Z"/></g>
<g><path style="opacity:0.369" fill="#777777" d="M 127.5,247.5 C 125.159,249.851 122.159,250.851 118.5,250.5C 118.791,249.351 119.624,248.684 121,248.5C 123.137,247.923 125.304,247.59 127.5,247.5 Z"/></g>
<g><path style="opacity:0.967" fill="#b1b1b1" d="M 273.5,235.5 C 272.528,239.909 270.862,244.076 268.5,248C 270.689,248.322 272.689,247.822 274.5,246.5C 273.856,249.144 272.189,250.811 269.5,251.5C 268.07,251.421 266.736,251.754 265.5,252.5C 264.614,251.675 264.281,250.675 264.5,249.5C 267.872,245.012 270.872,240.345 273.5,235.5 Z"/></g>
<g><path style="opacity:0.253" fill="#696969" d="M 67.5,248.5 C 71.2842,248.889 74.2842,250.556 76.5,253.5C 72.7275,253.116 69.7275,251.45 67.5,248.5 Z"/></g>
<g><path style="opacity:0.392" fill="#8a8a8a" d="M 128.5,247.5 C 129.313,246.347 130.313,246.347 131.5,247.5C 132.583,248.365 132.749,249.365 132,250.5C 129.413,252.196 126.579,253.196 123.5,253.5C 123.167,253.5 122.833,253.5 122.5,253.5C 124.206,251.464 126.539,250.464 129.5,250.5C 129.737,249.209 129.404,248.209 128.5,247.5 Z"/></g>
<g><path style="opacity:0.208" fill="#656565" d="M 264.5,249.5 C 264.281,250.675 264.614,251.675 265.5,252.5C 266.736,251.754 268.07,251.421 269.5,251.5C 267.243,254.885 264.909,255.052 262.5,252C 263.066,251.005 263.733,250.172 264.5,249.5 Z"/></g>
<g><path style="opacity:0.082" fill="#343434" d="M 77.5,253.5 C 78.5862,253.62 79.2528,254.287 79.5,255.5C 79.4573,256.416 79.1239,257.083 78.5,257.5C 78.5674,256.041 78.2341,254.708 77.5,253.5 Z"/></g>
<g><path style="opacity:0.059" fill="#444444" d="M 122.5,253.5 C 122.833,253.5 123.167,253.5 123.5,253.5C 120.916,255.472 117.916,256.472 114.5,256.5C 114.5,255.833 114.5,255.167 114.5,254.5C 117.167,254.167 119.833,253.833 122.5,253.5 Z"/></g>
<g><path style="opacity:0.302" fill="#8e8e8e" d="M 114.5,254.5 C 114.5,255.167 114.5,255.833 114.5,256.5C 104.624,257.773 94.7906,257.773 85,256.5C 84.3347,264.856 84.5013,273.189 85.5,281.5C 85.5,281.833 85.5,282.167 85.5,282.5C 84.0337,281.653 83.2004,280.32 83,278.5C 82.5003,270.507 82.3336,262.507 82.5,254.5C 93.1555,255.779 103.822,255.779 114.5,254.5 Z"/></g>
<g><path style="opacity:0.702" fill="#9b9b9b" d="M 308.5,249.5 C 307.64,252.911 306.474,256.244 305,259.5C 304.329,260.252 303.496,260.586 302.5,260.5C 303.742,256.345 305.742,252.678 308.5,249.5 Z"/></g>
<g><path style="opacity:0.549" fill="#7f7f7f" d="M 302.5,260.5 C 301.99,263.674 300.323,266.008 297.5,267.5C 298.511,265.628 299.345,263.628 300,261.5C 300.671,260.748 301.504,260.414 302.5,260.5 Z"/></g>
<g><path style="opacity:0.134" fill="#686868" d="M 185.5,171.5 C 186.167,203.665 186.5,235.998 186.5,268.5C 186.5,301.174 185.833,333.507 184.5,365.5C 184.168,300.665 184.501,235.998 185.5,171.5 Z"/></g>
<g><path style="opacity:0.112" fill="#313131" d="M 77.5,266.5 C 77.5,270.5 77.5,274.5 77.5,278.5C 76.2132,277.129 75.5465,275.295 75.5,273C 75.6667,271.167 75.8333,269.333 76,267.5C 76.3826,266.944 76.8826,266.611 77.5,266.5 Z"/></g>
<g><path style="opacity:0.668" fill="#9d9d9d" d="M 163.5,283.5 C 162.833,283.5 162.167,283.5 161.5,283.5C 163.379,278.592 163.713,273.592 162.5,268.5C 161.702,268.957 161.369,269.624 161.5,270.5C 160.662,270.158 160.328,269.492 160.5,268.5C 161.162,266.168 162.495,265.501 164.5,266.5C 165.949,272.32 165.616,277.987 163.5,283.5 Z"/></g>
<g><path style="opacity:0.733" fill="#979797" d="M 297.5,268.5 C 295.548,273.11 292.548,276.777 288.5,279.5C 289.938,276.218 291.771,273.218 294,270.5C 294.816,269.177 295.983,268.511 297.5,268.5 Z"/></g>
<g><path style="opacity:0.439" fill="#5e5e5e" d="M 160.5,268.5 C 160.328,269.492 160.662,270.158 161.5,270.5C 161.843,272.483 161.176,273.817 159.5,274.5C 159.205,272.265 159.539,270.265 160.5,268.5 Z"/></g>
<g><path style="opacity:0.392" fill="#767676" d="M 315.5,251.5 C 313.439,256.349 310.939,261.016 308,265.5C 304.682,270.119 301.349,274.786 298,279.5C 297.329,280.252 296.496,280.586 295.5,280.5C 300.881,271.424 306.548,262.424 312.5,253.5C 313.357,252.575 314.357,251.908 315.5,251.5 Z"/></g>
<g><path style="opacity:0.629" fill="#969696" d="M 191.5,138.5 C 192.167,140.5 192.833,142.5 193.5,144.5C 194.792,219.23 194.792,293.896 193.5,368.5C 192.833,368.5 192.167,368.5 191.5,368.5C 192.751,291.87 192.751,215.203 191.5,138.5 Z"/></g>
<g><path style="opacity:0.416" fill="#727272" d="M 288.5,279.5 C 288.167,281.833 286.833,283.167 284.5,283.5C 284.894,281.29 286.227,279.957 288.5,279.5 Z"/></g>
<g><path style="opacity:0.067" fill="#777777" d="M 295.5,280.5 C 295.22,283.72 293.553,285.72 290.5,286.5C 290.78,283.28 292.447,281.28 295.5,280.5 Z"/></g>
<g><path style="opacity:0.086" fill="#6f6f6f" d="M 85.5,281.5 C 87.8913,283.935 89.558,286.935 90.5,290.5C 87.3337,288.846 85.667,286.179 85.5,282.5C 85.5,282.167 85.5,281.833 85.5,281.5 Z"/></g>
<g><path style="opacity:0.146" fill="#777777" d="M 284.5,283.5 C 282.558,288.441 279.225,292.108 274.5,294.5C 277.833,290.833 281.167,287.167 284.5,283.5 Z"/></g>
<g><path style="opacity:0.302" fill="#626262" d="M 77.5,282.5 C 80.3158,285.928 81.9825,289.928 82.5,294.5C 79.3025,291.267 77.6358,287.267 77.5,282.5 Z"/></g>
<g><path style="opacity:0.365" fill="#818181" d="M 159.5,275.5 C 159.662,277.527 159.495,279.527 159,281.5C 154.938,287.064 150.104,291.731 144.5,295.5C 144.369,294.761 144.536,294.094 145,293.5C 148,290.833 151,288.167 154,285.5C 156.252,282.375 158.085,279.042 159.5,275.5 Z"/></g>
<g><path style="opacity:0.153" fill="#7e7e7e" d="M 161.5,283.5 C 162.167,283.5 162.833,283.5 163.5,283.5C 160.439,290.912 155.772,297.245 149.5,302.5C 149.351,301.448 149.517,300.448 150,299.5C 155.053,295.066 158.887,289.733 161.5,283.5 Z"/></g>
<g><path style="opacity:0.408" fill="#767676" d="M 290.5,286.5 C 286.247,293.09 281.247,299.09 275.5,304.5C 275.351,303.448 275.517,302.448 276,301.5C 279.067,299.097 281.4,296.097 283,292.5C 285.299,290.215 287.799,288.215 290.5,286.5 Z"/></g>
<g><path style="opacity:0.137" fill="#838383" d="M 90.5,290.5 C 92.5311,291.539 93.8645,293.205 94.5,295.5C 92.0029,294.871 90.6696,293.204 90.5,290.5 Z"/></g>
<g><path style="opacity:0.702" fill="#8d8d8d" d="M 144.5,295.5 C 144.586,296.496 144.252,297.329 143.5,298C 139.376,300.207 135.043,301.707 130.5,302.5C 134.818,299.674 139.484,297.341 144.5,295.5 Z"/></g>
<g><path style="opacity:0.435" fill="#6e6e6e" d="M 82.5,294.5 C 85.7726,295.596 87.4393,297.929 87.5,301.5C 84.6769,300.008 83.0102,297.674 82.5,294.5 Z"/></g>
<g><path style="opacity:0.612" fill="#7d7d7d" d="M 95.5,295.5 C 98.7868,297.14 101.787,299.14 104.5,301.5C 100.161,301.186 97.1607,299.186 95.5,295.5 Z"/></g>
<g><path style="opacity:0.518" fill="#a6a6a6" d="M 198.5,200.5 C 199.167,207.5 199.833,214.5 200.5,221.5C 200.325,268.505 200.658,315.505 201.5,362.5C 200.833,360.833 200.167,359.167 199.5,357.5C 198.522,305.186 198.189,252.852 198.5,200.5 Z"/></g>
<g><path style="opacity:0.927" fill="#e1e1e1" d="M 206.5,107.5 C 206.5,117.5 206.5,127.5 206.5,137.5C 205.503,157.326 205.17,177.326 205.5,197.5C 205.5,208.833 205.5,220.167 205.5,231.5C 205.5,272.833 205.5,314.167 205.5,355.5C 204.778,355.082 204.278,354.416 204,353.5C 203.968,279.167 204.301,204.834 205,130.5C 205.171,122.656 205.671,114.989 206.5,107.5 Z"/></g>
<g><path style="opacity:0.153" fill="#575757" d="M 272.5,298.5 C 271.167,300.5 269.5,302.167 267.5,303.5C 268.167,300.833 269.833,299.167 272.5,298.5 Z"/></g>
<g><path style="opacity:0.573" fill="#8b8b8b" d="M 104.5,301.5 C 107.789,302.374 111.123,303.041 114.5,303.5C 114.5,304.167 114.5,304.833 114.5,305.5C 111.784,305.322 109.117,304.822 106.5,304C 105.244,303.583 104.577,302.75 104.5,301.5 Z"/></g>
<g><path style="opacity:0.098" fill="#373737" d="M 114.5,303.5 C 117.167,303.5 119.833,303.5 122.5,303.5C 122.5,304.167 122.5,304.833 122.5,305.5C 119.833,305.5 117.167,305.5 114.5,305.5C 114.5,304.833 114.5,304.167 114.5,303.5 Z"/></g>
<g><path style="opacity:0.212" fill="#888888" d="M 130.5,302.5 C 128.478,304.693 125.811,305.693 122.5,305.5C 122.5,304.833 122.5,304.167 122.5,303.5C 125.127,302.908 127.794,302.575 130.5,302.5 Z"/></g>
<g><path style="opacity:0.018" fill="#252525" d="M 89.5,303.5 C 91.5,303.5 92.5,304.5 92.5,306.5C 91.1667,305.833 90.1667,304.833 89.5,303.5 Z"/></g>
<g><path style="opacity:0.016" fill="#373737" d="M 147.5,303.5 C 146.833,304.833 145.833,305.833 144.5,306.5C 144.5,304.5 145.5,303.5 147.5,303.5 Z"/></g>
<g><path style="opacity:0.212" fill="#828282" d="M 267.5,303.5 C 267.657,306.344 266.324,308.011 263.5,308.5C 264.136,306.205 265.469,304.539 267.5,303.5 Z"/></g>
<g><path style="opacity:0.027" fill="#474747" d="M 143.5,306.5 C 142.713,308.104 141.38,308.771 139.5,308.5C 140.514,307.326 141.847,306.66 143.5,306.5 Z"/></g>
<g><path style="opacity:0.047" fill="#717171" d="M 275.5,304.5 C 272.167,308.5 268.833,312.5 265.5,316.5C 267.051,310.955 270.384,306.955 275.5,304.5 Z"/></g>
<g><path style="opacity:0.184" fill="#4c4c4c" d="M 93.5,306.5 C 97.0648,307.442 100.065,309.109 102.5,311.5C 99.0516,310.61 96.0516,308.943 93.5,306.5 Z"/></g>
<g><path style="opacity:0.255" fill="#575757" d="M 102.5,311.5 C 105.428,311.565 108.095,312.232 110.5,313.5C 107.505,313.706 104.838,313.04 102.5,311.5 Z"/></g>
<g><path style="opacity:0.235" fill="#808080" d="M 139.5,308.5 C 138.922,311.388 138.922,314.388 139.5,317.5C 138.767,315.706 137.767,314.039 136.5,312.5C 136.5,311.167 136.5,309.833 136.5,308.5C 137.5,308.5 138.5,308.5 139.5,308.5 Z"/></g>
<g><path style="opacity:0.071" fill="#272727" d="M 110.5,313.5 C 115.167,313.5 119.833,313.5 124.5,313.5C 119.904,315.545 115.238,315.545 110.5,313.5 Z"/></g>
<g><path style="opacity:0.42" fill="#818181" d="M 263.5,308.5 C 262.502,312.505 260.502,315.839 257.5,318.5C 258.207,314.363 260.207,311.03 263.5,308.5 Z"/></g>
<g><path style="opacity:0.039" fill="#1c1c1c" d="M 205.5,231.5 C 206.167,231.5 206.833,231.5 207.5,231.5C 206.172,275.854 206.172,320.187 207.5,364.5C 206.833,364.5 206.167,364.5 205.5,364.5C 205.5,361.5 205.5,358.5 205.5,355.5C 205.5,314.167 205.5,272.833 205.5,231.5 Z"/></g>
<g><path style="opacity:0.463" fill="#5d5d5d" d="M 265.5,316.5 C 263.832,323.29 262.166,329.956 260.5,336.5C 260.229,331.087 260.729,325.754 262,320.5C 262.416,318.45 263.583,317.116 265.5,316.5 Z"/></g>
<g><path style="opacity:0.284" fill="#626262" d="M 257.5,319.5 C 257.843,321.483 257.176,322.817 255.5,323.5C 255.157,321.517 255.824,320.183 257.5,319.5 Z"/></g>
<g><path style="opacity:0.431" fill="#686868" d="M 134.5,325.5 C 135.167,325.833 135.833,326.167 136.5,326.5C 136.5,328.5 136.5,330.5 136.5,332.5C 136.721,335.279 136.388,337.946 135.5,340.5C 134.513,335.695 134.179,330.695 134.5,325.5 Z"/></g>
<g><path style="opacity:0.124" fill="#2e2e2e" d="M 140.5,328.5 C 142.28,329.99 142.946,331.99 142.5,334.5C 141.833,334.5 141.167,334.5 140.5,334.5C 140.5,332.5 140.5,330.5 140.5,328.5 Z"/></g>
<g><path style="opacity:0.539" fill="#9c9c9c" d="M 255.5,326.5 C 256.272,335.15 255.772,343.816 254,352.5C 253.617,353.056 253.117,353.389 252.5,353.5C 253.051,344.308 254.051,335.308 255.5,326.5 Z"/></g>
<g><path style="opacity:0.427" fill="#c7c7c7" d="M 136.5,332.5 C 137.49,338.645 137.823,344.978 137.5,351.5C 136.833,351.5 136.167,351.5 135.5,351.5C 135.5,347.833 135.5,344.167 135.5,340.5C 136.388,337.946 136.721,335.279 136.5,332.5 Z"/></g>
<g><path style="opacity:0.498" fill="#767676" d="M 259.5,347.5 C 259.543,350.91 259.043,354.243 258,357.5C 257.764,359.119 256.931,360.119 255.5,360.5C 256.1,357.001 256.766,353.501 257.5,350C 257.684,348.624 258.351,347.791 259.5,347.5 Z"/></g>
<g><path style="opacity:0.194" fill="#505050" d="M 135.5,351.5 C 136.167,351.5 136.833,351.5 137.5,351.5C 137.5,353.167 137.5,354.833 137.5,356.5C 135.787,355.365 135.12,353.698 135.5,351.5 Z"/></g>
<g><path style="opacity:0.306" fill="#858585" d="M 140.5,334.5 C 141.167,334.5 141.833,334.5 142.5,334.5C 142.723,342.302 143.723,349.968 145.5,357.5C 144.504,357.586 143.671,357.252 143,356.5C 141.617,349.245 140.784,341.911 140.5,334.5 Z"/></g>
<g><path style="opacity:0.624" fill="#8e8e8e" d="M 252.5,353.5 C 252.741,357.019 251.407,359.685 248.5,361.5C 248.912,358.198 250.245,355.531 252.5,353.5 Z"/></g>
<g><path style="opacity:0.059" fill="#828282" d="M 137.5,356.5 C 140.537,361.198 144.203,365.198 148.5,368.5C 142.728,366.396 139.061,362.396 137.5,356.5 Z"/></g>
<g><path style="opacity:0.047" fill="#353535" d="M 158.5,363.5 C 160.483,363.157 161.817,363.824 162.5,365.5C 161.167,365.5 159.833,365.5 158.5,365.5C 158.5,364.833 158.5,364.167 158.5,363.5 Z"/></g>
<g><path style="opacity:0.773" fill="#a1a1a1" d="M 150.5,361.5 C 153.267,361.858 155.933,362.525 158.5,363.5C 158.5,364.167 158.5,364.833 158.5,365.5C 156.135,364.992 153.801,364.325 151.5,363.5C 150.702,363.043 150.369,362.376 150.5,361.5 Z"/></g>
<g><path style="opacity:0.271" fill="#828282" d="M 199.5,357.5 C 200.167,359.167 200.833,360.833 201.5,362.5C 201.675,364.621 201.341,366.621 200.5,368.5C 199.518,365.038 199.185,361.371 199.5,357.5 Z"/></g>
<g><path style="opacity:0.333" fill="#898989" d="M 255.5,360.5 C 254.338,365.663 251.338,369.329 246.5,371.5C 249.747,367.986 252.747,364.32 255.5,360.5 Z"/></g>
<g><path style="opacity:0.371" fill="#747474" d="M 148.5,368.5 C 152.687,369.213 156.687,370.213 160.5,371.5C 160.5,371.833 160.5,372.167 160.5,372.5C 155.793,372.931 151.793,371.598 148.5,368.5 Z"/></g>
<g><path style="opacity:0.52" fill="#979797" d="M 247.5,363.5 C 241.323,370.353 233.49,373.019 224,371.5C 219.308,371.427 214.642,371.093 210,370.5C 207.308,369.469 205.808,367.469 205.5,364.5C 206.167,364.5 206.833,364.5 207.5,364.5C 207.532,366.567 208.532,367.9 210.5,368.5C 219.5,369.833 228.5,369.833 237.5,368.5C 240.878,366.811 244.211,365.145 247.5,363.5 Z"/></g>
<g><path style="opacity:0.255" fill="#6c6c6c" d="M 191.5,368.5 C 192.167,368.5 192.833,368.5 193.5,368.5C 192.047,371.394 189.714,373.06 186.5,373.5C 187.167,372.833 187.833,372.167 188.5,371.5C 189.694,370.728 190.694,369.728 191.5,368.5 Z"/></g>
<g><path style="opacity:0.568" fill="#999999" d="M 160.5,371.5 C 169.833,371.5 179.167,371.5 188.5,371.5C 187.833,372.167 187.167,372.833 186.5,373.5C 177.69,374.823 169.023,374.489 160.5,372.5C 160.5,372.167 160.5,371.833 160.5,371.5 Z"/></g>
<g><path style="opacity:0.239" fill="#686868" d="M 200.5,368.5 C 203.886,370.908 207.22,373.241 210.5,375.5C 205.024,376.104 201.691,373.771 200.5,368.5 Z"/></g>
<g><path style="opacity:0.529" fill="#838383" d="M 246.5,371.5 C 243.678,374.778 240.012,376.111 235.5,375.5C 235.611,374.883 235.944,374.383 236.5,374C 239.824,373.057 243.157,372.224 246.5,371.5 Z"/></g>
<g><path style="opacity:0.35" fill="#bebebe" d="M 150.5,379.5 C 180.331,378.336 210.331,378.169 240.5,379C 242.376,379.918 243.376,381.418 243.5,383.5C 241.988,381.683 239.988,380.683 237.5,380.5C 208.671,379.502 179.671,379.169 150.5,379.5 Z"/></g>
<g><path style="opacity:0.867" fill="#dbdbdb" d="M 150.5,379.5 C 179.671,379.169 208.671,379.502 237.5,380.5C 208.165,380.333 178.831,380.5 149.5,381C 148.398,383.401 148.231,385.901 149,388.5C 150.417,389.078 151.25,390.078 151.5,391.5C 146.338,389.303 145.171,385.636 148,380.5C 148.671,379.748 149.504,379.414 150.5,379.5 Z"/></g>
<g><path style="opacity:1" fill="#e9e9e9" d="M 237.5,380.5 C 239.988,380.683 241.988,381.683 243.5,383.5C 244.756,387.812 243.089,390.646 238.5,392C 209.33,392.83 180.33,392.664 151.5,391.5C 151.25,390.078 150.417,389.078 149,388.5C 148.231,385.901 148.398,383.401 149.5,381C 178.831,380.5 208.165,380.333 237.5,380.5 Z"/></g>
<g><path style="opacity:0.221" fill="#d4d4d4" d="M 241.5,406.5 C 241.357,404.738 241.691,403.071 242.5,401.5C 241.926,399.941 241.26,398.441 240.5,397C 210.167,396.333 179.833,396.333 149.5,397C 148.3,400.131 148.3,403.298 149.5,406.5C 145.612,402.861 145.612,399.028 149.5,395C 179.833,394.333 210.167,394.333 240.5,395C 245.323,398.576 245.656,402.409 241.5,406.5 Z"/></g>
<g><path style="opacity:0.993" fill="#fefefe" d="M 241.5,406.5 C 210.736,407.828 180.069,407.828 149.5,406.5C 148.3,403.298 148.3,400.131 149.5,397C 179.833,396.333 210.167,396.333 240.5,397C 241.26,398.441 241.926,399.941 242.5,401.5C 241.691,403.071 241.357,404.738 241.5,406.5 Z"/></g>
<g><path style="opacity:0.898" fill="#fcfcfc" d="M 161.5,411.5 C 185.524,410.843 209.19,411.51 232.5,413.5C 230.692,414.918 230.025,416.918 230.5,419.5C 227.659,421.64 226.326,424.64 226.5,428.5C 205.156,428.833 183.823,428.5 162.5,427.5C 161.754,426.264 161.421,424.93 161.5,423.5C 161.97,420.159 161.303,416.826 159.5,413.5C 160.243,412.818 160.909,412.151 161.5,411.5 Z"/></g>
<g><path style="opacity:0.441" fill="#878787" d="M 232.5,413.5 C 232.405,415.786 231.738,417.786 230.5,419.5C 230.025,416.918 230.692,414.918 232.5,413.5 Z"/></g>
<g><path style="opacity:0.596" fill="#a0a0a0" d="M 161.5,411.5 C 160.909,412.151 160.243,412.818 159.5,413.5C 161.303,416.826 161.97,420.159 161.5,423.5C 159.998,420.346 158.664,417.013 157.5,413.5C 158.32,411.889 159.654,411.222 161.5,411.5 Z"/></g>
<g><path style="opacity:0.078" fill="#a9a9a9" d="M 230.5,419.5 C 230.289,423.182 228.956,426.182 226.5,428.5C 226.326,424.64 227.659,421.64 230.5,419.5 Z"/></g>
</svg>
