<?xml version="1.0" encoding="UTF-8"?>
<!DOCTYPE svg PUBLIC "-//W3C//DTD SVG 1.1//EN" "http://www.w3.org/Graphics/SVG/1.1/DTD/svg11.dtd">
<svg xmlns="http://www.w3.org/2000/svg" version="1.1" width="1200px" height="500px" style="shape-rendering:geometricPrecision; text-rendering:geometricPrecision; image-rendering:optimizeQuality; fill-rule:evenodd; clip-rule:evenodd" xmlns:xlink="http://www.w3.org/1999/xlink">
<g><path style="opacity:0.217" fill="#535353" d="M 549.5,70.5 C 545.167,70.5 540.833,70.5 536.5,70.5C 538.048,69.2057 540.048,68.5391 542.5,68.5C 544.5,68.6667 546.5,68.8333 548.5,69C 549.056,69.3826 549.389,69.8826 549.5,70.5 Z"/></g>
<g><path style="opacity:0.537" fill="#939393" d="M 603.5,139.5 C 602.833,139.5 602.167,139.5 601.5,139.5C 601.829,119.808 601.329,100.141 600,80.5C 599.501,84.4862 599.334,88.4862 599.5,92.5C 598.833,93.1667 598.167,93.8333 597.5,94.5C 598.588,82.4824 592.921,76.8158 580.5,77.5C 576.81,77.692 573.143,78.0253 569.5,78.5C 569.881,77.0689 570.881,76.2355 572.5,76C 579.297,75.0641 585.964,75.5641 592.5,77.5C 592.833,77.1667 593.167,76.8333 593.5,76.5C 584.663,72.8474 575.663,72.5141 566.5,75.5C 567.655,73.1749 569.655,72.0082 572.5,72C 577.5,71.3333 582.5,71.3333 587.5,72C 592.522,74.1793 597.522,76.3459 602.5,78.5C 603.319,98.8222 603.653,119.155 603.5,139.5 Z"/></g>
<g><path style="opacity:0.271" fill="#6b6b6b" d="M 554.5,71.5 C 557.827,71.8294 560.493,73.1627 562.5,75.5C 559.119,75.4603 556.452,74.127 554.5,71.5 Z"/></g>
<g><path style="opacity:0.996" fill="#efefef" d="M 610.5,72.5 C 620.839,72.3335 631.172,72.5002 641.5,73C 643.708,73.1909 645.708,73.6909 647.5,74.5C 647.881,75.9311 648.881,76.7645 650.5,77C 652.066,77.765 653.399,77.5983 654.5,76.5C 654.833,76.5 655.167,76.5 655.5,76.5C 655.821,78.0481 656.821,78.7148 658.5,78.5C 658.577,79.7498 659.244,80.5831 660.5,81C 663.432,82.1449 666.432,82.9782 669.5,83.5C 671.728,86.4495 674.728,88.1162 678.5,88.5C 679.167,88.8333 679.833,89.1667 680.5,89.5C 681.27,91.9354 682.937,93.2687 685.5,93.5C 687.319,96.6547 689.985,98.6547 693.5,99.5C 693.833,101.833 695.167,103.167 697.5,103.5C 698.744,106.26 700.244,108.927 702,111.5C 704.667,114.167 707.333,116.833 710,119.5C 712.484,124.65 715.651,129.316 719.5,133.5C 719.873,137.348 721.54,140.348 724.5,142.5C 724.5,142.833 724.5,143.167 724.5,143.5C 724.691,147.663 726.357,150.996 729.5,153.5C 729.5,153.833 729.5,154.167 729.5,154.5C 729.818,159.47 731.485,163.804 734.5,167.5C 734.5,167.833 734.5,168.167 734.5,168.5C 735.285,175.164 736.118,181.83 737,188.5C 737.383,189.056 737.883,189.389 738.5,189.5C 739.838,199.444 739.505,209.444 737.5,219.5C 736.414,219.62 735.747,220.287 735.5,221.5C 734.731,224.115 734.397,226.781 734.5,229.5C 734.5,229.833 734.5,230.167 734.5,230.5C 731.151,234.83 729.151,239.83 728.5,245.5C 728.5,245.833 728.5,246.167 728.5,246.5C 723.93,250.437 720.93,255.437 719.5,261.5C 714.703,265.024 711.37,269.691 709.5,275.5C 706.923,276.606 705.256,278.606 704.5,281.5C 698,288.179 691.5,295.179 685,302.5C 684.517,303.448 684.351,304.448 684.5,305.5C 684.5,306.167 684.167,306.5 683.5,306.5C 680.703,306.967 679.369,308.633 679.5,311.5C 674.596,313.923 671.763,317.923 671,323.5C 670.609,328.854 670.109,334.188 669.5,339.5C 669.5,341.833 669.5,344.167 669.5,346.5C 669.5,346.833 669.5,347.167 669.5,347.5C 668.883,347.611 668.383,347.944 668,348.5C 667.167,351.833 666.333,355.167 665.5,358.5C 665.543,359.416 665.876,360.083 666.5,360.5C 666.5,360.833 666.5,361.167 666.5,361.5C 665.417,361.539 664.417,361.873 663.5,362.5C 661.323,366.509 658.323,369.676 654.5,372C 643.721,374.982 632.721,376.149 621.5,375.5C 619.585,375.784 617.919,375.451 616.5,374.5C 615.203,372.202 613.537,370.202 611.5,368.5C 611.5,367.167 611.5,365.833 611.5,364.5C 612.01,361.612 611.344,359.279 609.5,357.5C 609.5,355.833 609.5,354.167 609.5,352.5C 610.487,315.876 610.821,279.21 610.5,242.5C 609.697,185.819 609.697,129.152 610.5,72.5 Z M 627.5,80.5 C 631.099,81.3439 634.766,81.6773 638.5,81.5C 638.97,82.6935 639.97,83.3601 641.5,83.5C 643.818,83.9971 646.152,84.3305 648.5,84.5C 650.599,85.6118 652.933,86.2785 655.5,86.5C 655.833,86.5 656.167,86.5 656.5,86.5C 656.47,87.4972 656.97,88.1639 658,88.5C 664.103,90.6885 669.936,93.3552 675.5,96.5C 680.248,101.584 685.581,105.917 691.5,109.5C 692.517,111.911 694.184,113.578 696.5,114.5C 697.72,116.981 699.386,118.981 701.5,120.5C 702.256,123.394 703.923,125.394 706.5,126.5C 707.454,129.751 709.12,132.418 711.5,134.5C 713.996,140.411 716.663,146.244 719.5,152C 719.836,153.03 720.503,153.53 721.5,153.5C 721.595,155.786 722.262,157.786 723.5,159.5C 726.382,166.569 728.382,173.903 729.5,181.5C 729.157,183.483 729.824,184.817 731.5,185.5C 731.5,195.167 731.5,204.833 731.5,214.5C 729.557,216.971 728.557,219.971 728.5,223.5C 728.5,224.167 728.5,224.833 728.5,225.5C 727.388,227.599 726.721,229.933 726.5,232.5C 724.545,234.346 723.545,236.679 723.5,239.5C 719.6,246.298 715.933,253.298 712.5,260.5C 706.618,268.826 700.118,276.826 693,284.5C 692.209,285.745 691.709,287.078 691.5,288.5C 688.833,289.167 687.167,290.833 686.5,293.5C 684.003,294.129 682.67,295.796 682.5,298.5C 679.068,299.599 677.068,301.933 676.5,305.5C 674.5,305.5 673.5,306.5 673.5,308.5C 670.23,311.071 668.23,314.404 667.5,318.5C 666.631,320.717 666.298,323.05 666.5,325.5C 664.787,326.635 664.12,328.302 664.5,330.5C 663.907,337.841 663.24,345.174 662.5,352.5C 662.5,352.833 662.5,353.167 662.5,353.5C 660.085,356.383 658.418,359.716 657.5,363.5C 653.829,365.336 650.162,367.169 646.5,369C 637.144,369.687 627.811,369.521 618.5,368.5C 617.508,311.542 617.175,254.542 617.5,197.5C 617.967,158.501 618.3,119.501 618.5,80.5C 621.5,80.5 624.5,80.5 627.5,80.5 Z"/></g>
<g><path style="opacity:0.31" fill="#8f8f8f" d="M 647.5,74.5 C 650.152,74.4095 652.485,75.0762 654.5,76.5C 653.399,77.5983 652.066,77.765 650.5,77C 648.881,76.7645 647.881,75.9311 647.5,74.5 Z"/></g>
<g><path style="opacity:0.096" fill="#454545" d="M 655.5,76.5 C 657.179,76.2852 658.179,76.9519 658.5,78.5C 656.821,78.7148 655.821,78.0481 655.5,76.5 Z"/></g>
<g><path style="opacity:0.192" fill="#848484" d="M 528.5,72.5 C 524.817,76.1803 520.817,79.5136 516.5,82.5C 518.101,79.23 520.434,76.5633 523.5,74.5C 525.022,73.438 526.688,72.7713 528.5,72.5 Z"/></g>
<g><path style="opacity:0.027" fill="#424242" d="M 535.5,78.5 C 534.198,80.8218 532.198,82.1551 529.5,82.5C 530.634,79.9662 532.634,78.6329 535.5,78.5 Z"/></g>
<g><path style="opacity:0.086" fill="#676767" d="M 569.5,78.5 C 567.385,81.5172 564.718,82.1839 561.5,80.5C 564.003,79.6295 566.67,78.9628 569.5,78.5 Z"/></g>
<g><path style="opacity:0.647" fill="#8c8c8c" d="M 658.5,78.5 C 661.568,79.0218 664.568,79.8551 667.5,81C 668.756,81.4169 669.423,82.2502 669.5,83.5C 666.432,82.9782 663.432,82.1449 660.5,81C 659.244,80.5831 658.577,79.7498 658.5,78.5 Z"/></g>
<g><path style="opacity:0.145" fill="#6c6c6c" d="M 638.5,81.5 C 641.219,81.3975 643.885,81.7308 646.5,82.5C 647.713,82.7472 648.38,83.4138 648.5,84.5C 646.152,84.3305 643.818,83.9971 641.5,83.5C 639.97,83.3601 638.97,82.6935 638.5,81.5 Z"/></g>
<g><path style="opacity:0.999" fill="#f9f9f9" d="M 601.5,139.5 C 602.41,215.162 602.743,290.829 602.5,366.5C 601.857,368.076 600.857,369.41 599.5,370.5C 589.863,371.81 580.197,371.81 570.5,370.5C 566.443,370.152 562.443,369.486 558.5,368.5C 557.508,368.672 556.842,368.338 556.5,367.5C 555.871,365.003 554.204,363.67 551.5,363.5C 551.5,363.167 551.5,362.833 551.5,362.5C 551.13,359.733 549.796,357.733 547.5,356.5C 546.513,351.695 546.179,346.695 546.5,341.5C 546.5,338.5 546.5,335.5 546.5,332.5C 546.5,329.833 546.5,327.167 546.5,324.5C 546.335,321.482 546.502,318.482 547,315.5C 547.24,317.852 548.073,319.852 549.5,321.5C 549.5,322.5 549.5,323.5 549.5,324.5C 550.256,333.832 551.09,343.165 552,352.5C 552.852,353.571 553.685,354.571 554.5,355.5C 554.67,358.204 556.003,359.871 558.5,360.5C 560.046,362.931 562.379,364.264 565.5,364.5C 567.305,366.197 569.639,367.03 572.5,367C 580.746,367.815 588.912,367.648 597,366.5C 597.041,275.151 597.874,183.818 599.5,92.5C 599.334,88.4862 599.501,84.4862 600,80.5C 601.329,100.141 601.829,119.808 601.5,139.5 Z"/></g>
<g><path style="opacity:0.357" fill="#626262" d="M 648.5,84.5 C 651.228,84.1706 653.562,84.8372 655.5,86.5C 652.933,86.2785 650.599,85.6118 648.5,84.5 Z"/></g>
<g><path style="opacity:0.078" fill="#7a7a7a" d="M 669.5,83.5 C 673.338,83.9129 676.338,85.5795 678.5,88.5C 674.728,88.1162 671.728,86.4495 669.5,83.5 Z"/></g>
<g><path style="opacity:0.318" fill="#6b6b6b" d="M 527.5,83.5 C 524.775,86.552 522.108,89.552 519.5,92.5C 520.731,88.2662 523.398,85.2662 527.5,83.5 Z"/></g>
<g><path style="opacity:0.506" fill="#636363" d="M 680.5,89.5 C 682.795,90.1355 684.461,91.4689 685.5,93.5C 682.937,93.2687 681.27,91.9354 680.5,89.5 Z"/></g>
<g><path style="opacity:0.42" fill="#838383" d="M 518.5,93.5 C 518.002,96.3263 516.669,98.6597 514.5,100.5C 514.687,98.4357 515.187,96.4357 516,94.5C 516.671,93.7476 517.504,93.4142 518.5,93.5 Z"/></g>
<g><path style="opacity:0.2" fill="#7c7c7c" d="M 656.5,86.5 C 662.501,87.9373 668.167,90.2706 673.5,93.5C 674.425,94.3569 675.092,95.3569 675.5,96.5C 669.936,93.3552 664.103,90.6885 658,88.5C 656.97,88.1639 656.47,87.4972 656.5,86.5 Z"/></g>
<g><path style="opacity:0.122" fill="#818181" d="M 685.5,93.5 C 688.533,95.016 691.2,97.016 693.5,99.5C 689.985,98.6547 687.319,96.6547 685.5,93.5 Z"/></g>
<g><path style="opacity:0.48" fill="#818181" d="M 675.5,96.5 C 681.303,99.1156 686.47,102.782 691,107.5C 691.464,108.094 691.631,108.761 691.5,109.5C 685.581,105.917 680.248,101.584 675.5,96.5 Z"/></g>
<g><path style="opacity:0.375" fill="#9b9b9b" d="M 610.5,72.5 C 609.697,129.152 609.697,185.819 610.5,242.5C 609.833,239.167 609.167,235.833 608.5,232.5C 607.728,180.501 607.561,128.501 608,76.5C 608.122,74.563 608.955,73.2297 610.5,72.5 Z"/></g>
<g><path style="opacity:0.31" fill="#838383" d="M 512.5,87.5 C 510.605,92.9556 508.438,98.2889 506,103.5C 505.667,107.5 505.333,111.5 505,115.5C 502.313,116.713 499.48,117.38 496.5,117.5C 498.515,116.076 500.848,115.41 503.5,115.5C 503.229,110.087 503.729,104.754 505,99.5C 506.852,96.2895 508.519,92.9561 510,89.5C 510.708,88.6195 511.542,87.9528 512.5,87.5 Z"/></g>
<g><path style="opacity:0.137" fill="#474747" d="M 693.5,99.5 C 695.341,100.402 696.674,101.736 697.5,103.5C 695.167,103.167 693.833,101.833 693.5,99.5 Z"/></g>
<g><path style="opacity:0.702" fill="#858585" d="M 514.5,100.5 C 514.198,103.373 513.531,106.039 512.5,108.5C 510.818,105.209 511.485,102.543 514.5,100.5 Z"/></g>
<g><path style="opacity:0.285" fill="#929292" d="M 627.5,80.5 C 624.5,80.5 621.5,80.5 618.5,80.5C 618.3,119.501 617.967,158.501 617.5,197.5C 616.833,197.5 616.167,197.5 615.5,197.5C 615.382,157.828 615.715,118.162 616.5,78.5C 619.518,78.3354 622.518,78.502 625.5,79C 626.416,79.2784 627.082,79.7784 627.5,80.5 Z"/></g>
<g><path style="opacity:0.404" fill="#797979" d="M 697.5,103.5 C 704.856,110.363 711.356,118.03 717,126.5C 718.118,128.765 718.951,131.099 719.5,133.5C 715.651,129.316 712.484,124.65 710,119.5C 707.333,116.833 704.667,114.167 702,111.5C 700.244,108.927 698.744,106.26 697.5,103.5 Z"/></g>
<g><path style="opacity:0.082" fill="#6e6e6e" d="M 691.5,109.5 C 694.167,110.167 695.833,111.833 696.5,114.5C 694.184,113.578 692.517,111.911 691.5,109.5 Z"/></g>
<g><path style="opacity:0.494" fill="#898989" d="M 696.5,114.5 C 699.621,115.288 701.288,117.288 701.5,120.5C 699.386,118.981 697.72,116.981 696.5,114.5 Z"/></g>
<g><path style="opacity:0.388" fill="#7c7c7c" d="M 495.5,117.5 C 494.7,119.741 493.034,120.741 490.5,120.5C 491.659,118.75 493.326,117.75 495.5,117.5 Z"/></g>
<g><path style="opacity:0.995" fill="#eeeeee" d="M 536.5,70.5 C 540.833,70.5 545.167,70.5 549.5,70.5C 551.292,70.366 552.958,70.6993 554.5,71.5C 556.452,74.127 559.119,75.4603 562.5,75.5C 563.702,76.4054 565.036,76.4054 566.5,75.5C 575.663,72.5141 584.663,72.8474 593.5,76.5C 593.167,76.8333 592.833,77.1667 592.5,77.5C 585.964,75.5641 579.297,75.0641 572.5,76C 570.881,76.2355 569.881,77.0689 569.5,78.5C 566.67,78.9628 564.003,79.6295 561.5,80.5C 560.833,80.5 560.167,80.5 559.5,80.5C 559.423,79.2502 558.756,78.4169 557.5,78C 555.866,77.5065 554.199,77.3398 552.5,77.5C 552.389,76.8826 552.056,76.3826 551.5,76C 549.5,75.8333 547.5,75.6667 545.5,75.5C 543.048,75.5391 541.048,76.2057 539.5,77.5C 538.432,78.4345 537.099,78.7678 535.5,78.5C 532.634,78.6329 530.634,79.9662 529.5,82.5C 528.833,82.8333 528.167,83.1667 527.5,83.5C 523.398,85.2662 520.731,88.2662 519.5,92.5C 519.5,93.1667 519.167,93.5 518.5,93.5C 517.504,93.4142 516.671,93.7476 516,94.5C 515.187,96.4357 514.687,98.4357 514.5,100.5C 511.485,102.543 510.818,105.209 512.5,108.5C 511.2,110.223 510.533,112.39 510.5,115C 510.605,117.865 510.938,120.699 511.5,123.5C 511.747,124.713 512.414,125.38 513.5,125.5C 513.292,129.085 514.625,131.751 517.5,133.5C 518.674,134.514 519.34,135.847 519.5,137.5C 520.431,141.429 522.764,144.095 526.5,145.5C 527.184,148.851 529.184,150.851 532.5,151.5C 533.167,151.5 533.5,151.833 533.5,152.5C 533.719,153.675 533.386,154.675 532.5,155.5C 530.805,154.826 529.138,154.159 527.5,153.5C 527.167,153.5 526.833,153.5 526.5,153.5C 526.013,152.527 525.513,151.527 525,150.5C 522.154,148.085 519.32,145.751 516.5,143.5C 516.22,140.28 514.553,138.28 511.5,137.5C 511.5,137.167 511.5,136.833 511.5,136.5C 510.774,133.821 509.941,131.154 509,128.5C 508.583,127.244 507.75,126.577 506.5,126.5C 506.843,124.517 506.176,123.183 504.5,122.5C 504.5,122.167 504.5,121.833 504.5,121.5C 505.751,120.528 505.418,119.861 503.5,119.5C 497.426,120.619 492.759,123.619 489.5,128.5C 489.5,129.167 489.167,129.5 488.5,129.5C 485.167,129.5 483.5,131.167 483.5,134.5C 478.142,138.346 475.309,143.679 475,150.5C 474.333,154.167 474.333,157.833 475,161.5C 475.002,164.051 475.836,166.051 477.5,167.5C 477.294,170.495 477.96,173.162 479.5,175.5C 479.554,177.632 480.554,178.965 482.5,179.5C 482.5,179.833 482.5,180.167 482.5,180.5C 482.733,182.062 483.4,183.395 484.5,184.5C 490.248,191.77 497.914,195.437 507.5,195.5C 512.944,196.108 517.944,195.442 522.5,193.5C 524.099,193.768 525.432,193.434 526.5,192.5C 526.5,190.167 526.5,187.833 526.5,185.5C 526.5,185.167 526.5,184.833 526.5,184.5C 527.117,184.389 527.617,184.056 528,183.5C 528.979,178.105 530.145,172.772 531.5,167.5C 534.077,166.394 535.744,164.394 536.5,161.5C 538.176,162.183 538.843,163.517 538.5,165.5C 537.414,165.62 536.747,166.287 536.5,167.5C 535.574,171.13 534.907,174.797 534.5,178.5C 534.5,183.5 534.5,188.5 534.5,193.5C 534.592,195.848 535.592,197.514 537.5,198.5C 537.338,200.527 537.505,202.527 538,204.5C 540.596,208.931 543.762,212.931 547.5,216.5C 545.282,217.057 542.949,217.057 540.5,216.5C 540.167,214.167 538.833,212.833 536.5,212.5C 535.833,209.833 534.167,208.167 531.5,207.5C 530.978,204.432 530.145,201.432 529,198.5C 527.708,197.209 526.542,197.209 525.5,198.5C 525.167,198.5 524.833,198.5 524.5,198.5C 521.918,198.025 519.918,198.692 518.5,200.5C 517.167,200.5 515.833,200.5 514.5,200.5C 511.833,199.167 509.167,199.167 506.5,200.5C 505.5,200.5 504.5,200.5 503.5,200.5C 502.448,198.744 500.781,198.077 498.5,198.5C 494.917,196.076 490.917,194.41 486.5,193.5C 485.087,190.581 483.087,188.081 480.5,186C 479.056,185.219 477.723,185.386 476.5,186.5C 473.5,190.5 470.5,194.5 467.5,198.5C 466.187,201.754 465.187,205.088 464.5,208.5C 464.5,211.5 464.5,214.5 464.5,217.5C 464.464,220.461 465.464,222.794 467.5,224.5C 468.738,226.214 469.405,228.214 469.5,230.5C 469.67,233.204 471.003,234.871 473.5,235.5C 473.67,238.204 475.003,239.871 477.5,240.5C 477.833,240.5 478.167,240.5 478.5,240.5C 478.537,243.702 480.203,245.368 483.5,245.5C 485.651,248.415 488.651,250.082 492.5,250.5C 494.216,250.629 495.883,250.962 497.5,251.5C 502.065,253.04 506.898,253.707 512,253.5C 516.359,253.42 520.692,253.086 525,252.5C 526.376,252.684 527.209,253.351 527.5,254.5C 526.167,254.5 524.833,254.5 523.5,254.5C 513.513,255.808 503.513,255.808 493.5,254.5C 493.176,261.354 493.509,268.021 494.5,274.5C 494.5,275.167 494.5,275.833 494.5,276.5C 494.547,279.568 495.047,282.568 496,285.5C 496.422,287.426 497.589,288.426 499.5,288.5C 499.328,289.492 499.662,290.158 500.5,290.5C 500.343,293.344 501.676,295.011 504.5,295.5C 508.321,299.624 512.987,302.624 518.5,304.5C 519.584,304.315 520.584,303.982 521.5,303.5C 521.833,303.5 522.167,303.5 522.5,303.5C 525.337,305.402 528.671,306.069 532.5,305.5C 535.811,305.693 538.478,304.693 540.5,302.5C 540.833,302.5 541.167,302.5 541.5,302.5C 543.822,303.897 545.489,303.23 546.5,300.5C 548.973,300.912 550.306,299.912 550.5,297.5C 551.605,296.4 552.938,295.733 554.5,295.5C 560.219,292.115 564.552,287.448 567.5,281.5C 567.5,281.167 567.5,280.833 567.5,280.5C 568.496,280.586 569.329,280.252 570,279.5C 570.505,277.482 571.005,275.482 571.5,273.5C 571.5,271.5 571.5,269.5 571.5,267.5C 572.172,266.733 573.005,266.066 574,265.5C 574.399,265.728 574.565,266.062 574.5,266.5C 574.608,271.87 574.275,277.203 573.5,282.5C 573.5,282.833 573.5,283.167 573.5,283.5C 571.457,285.208 569.79,287.208 568.5,289.5C 563.453,296.881 557.119,302.881 549.5,307.5C 548.5,307.5 547.5,307.5 546.5,307.5C 547.055,311.584 546.055,312.251 543.5,309.5C 542.893,309.624 542.56,309.957 542.5,310.5C 539.997,311.256 537.663,312.256 535.5,313.5C 535.167,313.5 534.833,313.5 534.5,313.5C 530.167,313.5 525.833,313.5 521.5,313.5C 521.167,313.5 520.833,313.5 520.5,313.5C 516.37,310.676 511.703,309.009 506.5,308.5C 506.011,305.676 504.344,304.343 501.5,304.5C 500.5,302.167 498.833,300.5 496.5,299.5C 495.023,295.212 493.023,291.212 490.5,287.5C 489.51,282.555 488.843,277.555 488.5,272.5C 489.277,266.172 489.944,259.839 490.5,253.5C 489.5,253.5 488.5,253.5 487.5,253.5C 487.167,253.5 486.833,253.5 486.5,253.5C 483.758,250.579 480.425,248.579 476.5,247.5C 475.871,245.003 474.204,243.67 471.5,243.5C 471.5,243.167 471.5,242.833 471.5,242.5C 471.167,240.167 469.833,238.833 467.5,238.5C 465.643,232.77 463.477,227.103 461,221.5C 460.406,215.144 460.573,208.811 461.5,202.5C 461.557,201.391 461.89,200.391 462.5,199.5C 465.138,197.582 466.805,194.915 467.5,191.5C 470.117,190.216 472.117,188.216 473.5,185.5C 475.484,185.516 476.484,184.516 476.5,182.5C 475.758,178.894 474.091,175.894 471.5,173.5C 471.5,173.167 471.5,172.833 471.5,172.5C 471.493,169.962 471.159,167.462 470.5,165C 470.316,163.624 469.649,162.791 468.5,162.5C 468.5,158.5 468.5,154.5 468.5,150.5C 469.649,150.209 470.316,149.376 470.5,148C 471.077,145.863 471.41,143.696 471.5,141.5C 471.5,141.167 471.5,140.833 471.5,140.5C 474.502,137.839 476.502,134.505 477.5,130.5C 479.71,130.106 481.043,128.773 481.5,126.5C 484.262,125.62 486.929,124.454 489.5,123C 490.252,122.329 490.586,121.496 490.5,120.5C 493.034,120.741 494.7,119.741 495.5,117.5C 495.833,117.5 496.167,117.5 496.5,117.5C 499.48,117.38 502.313,116.713 505,115.5C 505.333,111.5 505.667,107.5 506,103.5C 508.438,98.2889 510.605,92.9556 512.5,87.5C 512.67,84.796 514.003,83.1293 516.5,82.5C 520.817,79.5136 524.817,76.1803 528.5,72.5C 530.838,70.9605 533.505,70.2938 536.5,70.5 Z"/></g>
<g><path style="opacity:0.106" fill="#545454" d="M 552.5,77.5 C 554.199,77.3398 555.866,77.5065 557.5,78C 558.756,78.4169 559.423,79.2502 559.5,80.5C 557.145,79.3414 554.812,78.3414 552.5,77.5 Z"/></g>
<g><path style="opacity:0.478" fill="#909090" d="M 552.5,77.5 C 548.167,77.5 543.833,77.5 539.5,77.5C 541.048,76.2057 543.048,75.5391 545.5,75.5C 547.5,75.6667 549.5,75.8333 551.5,76C 552.056,76.3826 552.389,76.8826 552.5,77.5 Z"/></g>
<g><path style="opacity:0.675" fill="#8e8e8e" d="M 490.5,120.5 C 490.586,121.496 490.252,122.329 489.5,123C 486.929,124.454 484.262,125.62 481.5,126.5C 483.592,123.277 486.592,121.277 490.5,120.5 Z"/></g>
<g><path style="opacity:0.518" fill="#8b8b8b" d="M 512.5,108.5 C 512.447,114.196 512.78,119.862 513.5,125.5C 512.414,125.38 511.747,124.713 511.5,123.5C 510.938,120.699 510.605,117.865 510.5,115C 510.533,112.39 511.2,110.223 512.5,108.5 Z"/></g>
<g><path style="opacity:0.345" fill="#838383" d="M 701.5,120.5 C 704.553,121.28 706.22,123.28 706.5,126.5C 703.923,125.394 702.256,123.394 701.5,120.5 Z"/></g>
<g><path style="opacity:0.045" fill="#414141" d="M 504.5,122.5 C 506.176,123.183 506.843,124.517 506.5,126.5C 504.824,125.817 504.157,124.483 504.5,122.5 Z"/></g>
<g><path style="opacity:0.039" fill="#1f1f1f" d="M 656.5,124.5 C 654.821,124.285 653.821,124.952 653.5,126.5C 652.596,125.791 652.263,124.791 652.5,123.5C 654.099,123.232 655.432,123.566 656.5,124.5 Z"/></g>
<g><path style="opacity:0.282" fill="#838383" d="M 504.5,121.5 C 499.077,123.046 494.077,125.38 489.5,128.5C 492.759,123.619 497.426,120.619 503.5,119.5C 505.418,119.861 505.751,120.528 504.5,121.5 Z"/></g>
<g><path style="opacity:0.175" fill="#737373" d="M 656.5,124.5 C 659.994,124.532 662.661,125.865 664.5,128.5C 661.173,128.171 658.507,126.837 656.5,124.5 Z"/></g>
<g><path style="opacity:0.039" fill="#4a4a4a" d="M 653.5,126.5 C 655.5,126.5 656.5,127.5 656.5,129.5C 656.5,127.5 655.5,126.5 653.5,126.5 Z"/></g>
<g><path style="opacity:0.455" fill="#949494" d="M 706.5,126.5 C 707.496,126.414 708.329,126.748 709,127.5C 710.118,129.765 710.951,132.099 711.5,134.5C 709.12,132.418 707.454,129.751 706.5,126.5 Z"/></g>
<g><path style="opacity:0.349" fill="#636363" d="M 481.5,126.5 C 481.043,128.773 479.71,130.106 477.5,130.5C 477.833,128.167 479.167,126.833 481.5,126.5 Z"/></g>
<g><path style="opacity:0.408" fill="#8b8b8b" d="M 506.5,126.5 C 507.75,126.577 508.583,127.244 509,128.5C 509.941,131.154 510.774,133.821 511.5,136.5C 508.339,134.08 506.673,130.747 506.5,126.5 Z"/></g>
<g><path style="opacity:0.064" fill="#5f5f5f" d="M 513.5,125.5 C 515.67,127.692 517.004,130.358 517.5,133.5C 514.625,131.751 513.292,129.085 513.5,125.5 Z"/></g>
<g><path style="opacity:0.998" fill="#eeeeee" d="M 656.5,124.5 C 658.507,126.837 661.173,128.171 664.5,128.5C 664.856,129.87 665.69,130.87 667,131.5C 668.978,132.906 671.145,133.906 673.5,134.5C 673.833,136.833 675.167,138.167 677.5,138.5C 678.167,141.167 679.833,142.833 682.5,143.5C 683.401,144.29 684.068,145.29 684.5,146.5C 684.736,149.621 686.069,151.954 688.5,153.5C 689.338,153.842 689.672,154.508 689.5,155.5C 690.213,159.687 691.213,163.687 692.5,167.5C 692.666,173.842 692.5,180.175 692,186.5C 690.699,181.945 689.532,177.278 688.5,172.5C 688.253,171.287 687.586,170.62 686.5,170.5C 686.741,167.966 685.741,166.3 683.5,165.5C 682.637,163.579 681.971,161.579 681.5,159.5C 681.5,158.167 680.833,157.5 679.5,157.5C 679.614,154.784 678.614,152.784 676.5,151.5C 676.22,148.28 674.553,146.28 671.5,145.5C 671.288,142.288 669.621,140.288 666.5,139.5C 666.5,137.5 665.5,136.5 663.5,136.5C 662.5,136.167 661.833,135.5 661.5,134.5C 661.5,132.5 660.5,131.5 658.5,131.5C 657.5,131.167 656.833,130.5 656.5,129.5C 656.5,127.5 655.5,126.5 653.5,126.5C 653.821,124.952 654.821,124.285 656.5,124.5 Z"/></g>
<g><path style="opacity:0.241" fill="#777777" d="M 664.5,128.5 C 668.049,129.723 671.049,131.723 673.5,134.5C 671.145,133.906 668.978,132.906 667,131.5C 665.69,130.87 664.856,129.87 664.5,128.5 Z"/></g>
<g><path style="opacity:0.357" fill="#6f6f6f" d="M 488.5,129.5 C 487.856,132.144 486.189,133.811 483.5,134.5C 483.5,131.167 485.167,129.5 488.5,129.5 Z"/></g>
<g><path style="opacity:0.031" fill="#434343" d="M 658.5,131.5 C 660.5,131.5 661.5,132.5 661.5,134.5C 659.5,134.5 658.5,133.5 658.5,131.5 Z"/></g>
<g><path style="opacity:0.035" fill="#5a5a5a" d="M 673.5,134.5 C 675.773,134.957 677.106,136.29 677.5,138.5C 675.167,138.167 673.833,136.833 673.5,134.5 Z"/></g>
<g><path style="opacity:0.831" fill="#909090" d="M 711.5,134.5 C 712.496,134.414 713.329,134.748 714,135.5C 714.849,138.561 716.349,141.228 718.5,143.5C 719.909,146.727 720.909,150.06 721.5,153.5C 720.503,153.53 719.836,153.03 719.5,152C 716.663,146.244 713.996,140.411 711.5,134.5 Z"/></g>
<g><path style="opacity:0.384" fill="#7b7b7b" d="M 477.5,130.5 C 476.502,134.505 474.502,137.839 471.5,140.5C 472.207,136.363 474.207,133.03 477.5,130.5 Z"/></g>
<g><path style="opacity:0.059" fill="#545454" d="M 663.5,136.5 C 665.5,136.5 666.5,137.5 666.5,139.5C 664.5,139.5 663.5,138.5 663.5,136.5 Z"/></g>
<g><path style="opacity:0.537" fill="#7d7d7d" d="M 719.5,133.5 C 720.376,133.369 721.043,133.702 721.5,134.5C 722.513,137.188 723.513,139.854 724.5,142.5C 721.54,140.348 719.873,137.348 719.5,133.5 Z"/></g>
<g><path style="opacity:0.231" fill="#6d6d6d" d="M 511.5,137.5 C 514.553,138.28 516.22,140.28 516.5,143.5C 513.923,142.394 512.256,140.394 511.5,137.5 Z"/></g>
<g><path style="opacity:0.145" fill="#616161" d="M 519.5,137.5 C 520.496,137.414 521.329,137.748 522,138.5C 522.965,141.275 524.465,143.608 526.5,145.5C 522.764,144.095 520.431,141.429 519.5,137.5 Z"/></g>
<g><path style="opacity:0.027" fill="#595959" d="M 677.5,138.5 C 679.911,139.517 681.578,141.184 682.5,143.5C 679.833,142.833 678.167,141.167 677.5,138.5 Z"/></g>
<g><path style="opacity:0.127" fill="#7b7b7b" d="M 666.5,139.5 C 669.621,140.288 671.288,142.288 671.5,145.5C 669.386,143.981 667.72,141.981 666.5,139.5 Z"/></g>
<g><path style="opacity:0.335" fill="#757575" d="M 471.5,141.5 C 471.41,143.696 471.077,145.863 470.5,148C 470.316,149.376 469.649,150.209 468.5,150.5C 468.149,146.841 469.149,143.841 471.5,141.5 Z"/></g>
<g><path style="opacity:0.027" fill="#494949" d="M 516.5,143.5 C 519.32,145.751 522.154,148.085 525,150.5C 525.513,151.527 526.013,152.527 526.5,153.5C 523.732,151.913 521.065,150.08 518.5,148C 517.418,146.67 516.751,145.17 516.5,143.5 Z"/></g>
<g><path style="opacity:0.475" fill="#6c6c6c" d="M 526.5,145.5 C 528.833,147.167 530.833,149.167 532.5,151.5C 529.184,150.851 527.184,148.851 526.5,145.5 Z"/></g>
<g><path style="opacity:0.314" fill="#7c7c7c" d="M 671.5,145.5 C 674.553,146.28 676.22,148.28 676.5,151.5C 673.923,150.394 672.256,148.394 671.5,145.5 Z"/></g>
<g><path style="opacity:0.308" fill="#727272" d="M 724.5,143.5 C 725.376,143.369 726.043,143.702 726.5,144.5C 727.801,147.427 728.801,150.427 729.5,153.5C 726.357,150.996 724.691,147.663 724.5,143.5 Z"/></g>
<g><path style="opacity:0.655" fill="#797979" d="M 684.5,146.5 C 687.112,148.052 688.445,150.386 688.5,153.5C 686.069,151.954 684.736,149.621 684.5,146.5 Z"/></g>
<g><path style="opacity:0.342" fill="#909090" d="M 483.5,134.5 C 481.035,138.156 479.201,142.156 478,146.5C 476.245,153.463 476.079,160.463 477.5,167.5C 475.836,166.051 475.002,164.051 475,161.5C 474.333,157.833 474.333,154.167 475,150.5C 475.309,143.679 478.142,138.346 483.5,134.5 Z"/></g>
<g><path style="opacity:0.306" fill="#777777" d="M 676.5,151.5 C 678.614,152.784 679.614,154.784 679.5,157.5C 677.654,155.97 676.654,153.97 676.5,151.5 Z"/></g>
<g><path style="opacity:0.2" fill="#5e5e5e" d="M 533.5,152.5 C 535.029,157.419 533.362,158.586 528.5,156C 527.748,155.329 527.414,154.496 527.5,153.5C 529.138,154.159 530.805,154.826 532.5,155.5C 533.386,154.675 533.719,153.675 533.5,152.5 Z"/></g>
<g><path style="opacity:0.824" fill="#828282" d="M 721.5,153.5 C 722.309,154.469 723.309,155.302 724.5,156C 723.663,157.011 723.33,158.178 723.5,159.5C 722.262,157.786 721.595,155.786 721.5,153.5 Z"/></g>
<g><path style="opacity:0.059" fill="#5e5e5e" d="M 679.5,157.5 C 680.833,157.5 681.5,158.167 681.5,159.5C 680.167,159.5 679.5,158.833 679.5,157.5 Z"/></g>
<g><path style="opacity:0.094" fill="#212121" d="M 535.5,161.5 C 536.568,160.566 537.901,160.232 539.5,160.5C 539.795,162.735 539.461,164.735 538.5,166.5C 538.5,166.167 538.5,165.833 538.5,165.5C 538.843,163.517 538.176,162.183 536.5,161.5C 536.167,161.5 535.833,161.5 535.5,161.5 Z"/></g>
<g><path style="opacity:0.196" fill="#747474" d="M 729.5,154.5 C 730.497,154.47 731.164,154.97 731.5,156C 732.894,159.745 733.894,163.578 734.5,167.5C 731.485,163.804 729.818,159.47 729.5,154.5 Z"/></g>
<g><path style="opacity:0.878" fill="#9e9e9e" d="M 723.5,159.5 C 725.257,160.084 726.59,161.251 727.5,163C 729.155,169.108 730.488,175.275 731.5,181.5C 730.833,181.5 730.167,181.5 729.5,181.5C 728.382,173.903 726.382,166.569 723.5,159.5 Z"/></g>
<g><path style="opacity:0.4" fill="#636363" d="M 468.5,162.5 C 469.649,162.791 470.316,163.624 470.5,165C 471.159,167.462 471.493,169.962 471.5,172.5C 470.351,172.209 469.684,171.376 469.5,170C 468.841,167.538 468.507,165.038 468.5,162.5 Z"/></g>
<g><path style="opacity:0.188" fill="#868686" d="M 535.5,161.5 C 535.833,161.5 536.167,161.5 536.5,161.5C 535.744,164.394 534.077,166.394 531.5,167.5C 531.845,164.802 533.178,162.802 535.5,161.5 Z"/></g>
<g><path style="opacity:0.404" fill="#878787" d="M 689.5,155.5 C 691.48,156.848 692.647,158.848 693,161.5C 694.156,165.418 694.656,169.418 694.5,173.5C 694.5,175.833 694.5,178.167 694.5,180.5C 694.802,183.059 694.468,185.393 693.5,187.5C 693.824,180.646 693.491,173.979 692.5,167.5C 691.213,163.687 690.213,159.687 689.5,155.5 Z"/></g>
<g><path style="opacity:0.09" fill="#757575" d="M 683.5,165.5 C 685.741,166.3 686.741,167.966 686.5,170.5C 684.592,169.514 683.592,167.848 683.5,165.5 Z"/></g>
<g><path style="opacity:0.345" fill="#5e5e5e" d="M 477.5,167.5 C 478.768,169.905 479.435,172.572 479.5,175.5C 477.96,173.162 477.294,170.495 477.5,167.5 Z"/></g>
<g><path style="opacity:0.32" fill="#848484" d="M 538.5,165.5 C 538.5,165.833 538.5,166.167 538.5,166.5C 537.705,170.476 537.038,174.476 536.5,178.5C 535.833,178.5 535.167,178.5 534.5,178.5C 534.907,174.797 535.574,171.13 536.5,167.5C 536.747,166.287 537.414,165.62 538.5,165.5 Z"/></g>
<g><path style="opacity:0.022" fill="#151515" d="M 694.5,173.5 C 695.249,174.531 695.915,175.698 696.5,177C 695.915,178.302 695.249,179.469 694.5,180.5C 694.5,178.167 694.5,175.833 694.5,173.5 Z"/></g>
<g><path style="opacity:0.2" fill="#696969" d="M 479.5,175.5 C 481.446,176.035 482.446,177.368 482.5,179.5C 480.554,178.965 479.554,177.632 479.5,175.5 Z"/></g>
<g><path style="opacity:0.525" fill="#999999" d="M 531.5,167.5 C 530.145,172.772 528.979,178.105 528,183.5C 527.617,184.056 527.117,184.389 526.5,184.5C 526.392,180.753 526.892,177.086 528,173.5C 528.353,170.848 529.52,168.848 531.5,167.5 Z"/></g>
<g><path style="opacity:0.123" fill="#7f7f7f" d="M 471.5,173.5 C 474.091,175.894 475.758,178.894 476.5,182.5C 476.484,184.516 475.484,185.516 473.5,185.5C 473.539,184.417 473.873,183.417 474.5,182.5C 473.199,179.573 472.199,176.573 471.5,173.5 Z"/></g>
<g><path style="opacity:0.028" fill="#222222" d="M 534.5,178.5 C 535.167,178.5 535.833,178.5 536.5,178.5C 536.5,183.5 536.5,188.5 536.5,193.5C 535.833,193.5 535.167,193.5 534.5,193.5C 534.5,188.5 534.5,183.5 534.5,178.5 Z"/></g>
<g><path style="opacity:0.039" fill="#595959" d="M 482.5,180.5 C 484.911,181.517 486.578,183.184 487.5,185.5C 486.391,185.443 485.391,185.11 484.5,184.5C 483.4,183.395 482.733,182.062 482.5,180.5 Z"/></g>
<g><path style="opacity:0.502" fill="#8d8d8d" d="M 734.5,168.5 C 736.067,169.681 736.901,171.347 737,173.5C 738.095,178.78 738.595,184.113 738.5,189.5C 737.883,189.389 737.383,189.056 737,188.5C 736.118,181.83 735.285,175.164 734.5,168.5 Z"/></g>
<g><path style="opacity:0.02" fill="#2c2c2c" d="M 729.5,181.5 C 730.167,181.5 730.833,181.5 731.5,181.5C 731.5,182.833 731.5,184.167 731.5,185.5C 729.824,184.817 729.157,183.483 729.5,181.5 Z"/></g>
<g><path style="opacity:0.396" fill="#b5b5b5" d="M 692.5,167.5 C 693.491,173.979 693.824,180.646 693.5,187.5C 693.5,187.833 693.5,188.167 693.5,188.5C 692.167,188.833 690.833,189.167 689.5,189.5C 688.593,183.153 687.593,176.82 686.5,170.5C 687.586,170.62 688.253,171.287 688.5,172.5C 689.532,177.278 690.699,181.945 692,186.5C 692.5,180.175 692.666,173.842 692.5,167.5 Z"/></g>
<g><path style="opacity:0.045" fill="#161616" d="M 526.5,185.5 C 526.5,187.833 526.5,190.167 526.5,192.5C 525.007,191.688 524.34,190.355 524.5,188.5C 524.64,186.97 525.307,185.97 526.5,185.5 Z"/></g>
<g><path style="opacity:0.427" fill="#848484" d="M 473.5,185.5 C 472.117,188.216 470.117,190.216 467.5,191.5C 468.522,188.478 470.522,186.478 473.5,185.5 Z"/></g>
<g><path style="opacity:0.106" fill="#4e4e4e" d="M 693.5,188.5 C 693.5,189.5 693.5,190.5 693.5,191.5C 691.517,191.843 690.183,191.176 689.5,189.5C 690.833,189.167 692.167,188.833 693.5,188.5 Z"/></g>
<g><path style="opacity:0.894" fill="#999999" d="M 484.5,184.5 C 485.391,185.11 486.391,185.443 487.5,185.5C 493.247,190.308 499.914,192.975 507.5,193.5C 507.5,194.167 507.5,194.833 507.5,195.5C 497.914,195.437 490.248,191.77 484.5,184.5 Z"/></g>
<g><path style="opacity:0.095" fill="#363636" d="M 507.5,193.5 C 512.5,193.5 517.5,193.5 522.5,193.5C 517.944,195.442 512.944,196.108 507.5,195.5C 507.5,194.833 507.5,194.167 507.5,193.5 Z"/></g>
<g><path style="opacity:0.251" fill="#757575" d="M 467.5,191.5 C 466.805,194.915 465.138,197.582 462.5,199.5C 463.151,196.197 464.818,193.53 467.5,191.5 Z"/></g>
<g><path style="opacity:0.4" fill="#737373" d="M 486.5,193.5 C 490.917,194.41 494.917,196.076 498.5,198.5C 493.724,198.439 489.724,196.772 486.5,193.5 Z"/></g>
<g><path style="opacity:0.408" fill="#767676" d="M 534.5,193.5 C 535.167,193.5 535.833,193.5 536.5,193.5C 537.038,195.117 537.371,196.784 537.5,198.5C 535.592,197.514 534.592,195.848 534.5,193.5 Z"/></g>
<g><path style="opacity:0.171" fill="#535353" d="M 498.5,198.5 C 500.781,198.077 502.448,198.744 503.5,200.5C 501.447,200.598 499.78,199.931 498.5,198.5 Z"/></g>
<g><path style="opacity:0.073" fill="#424242" d="M 524.5,198.5 C 522.898,200.074 520.898,200.741 518.5,200.5C 519.918,198.692 521.918,198.025 524.5,198.5 Z"/></g>
<g><path style="opacity:0.895" fill="#fefffe" d="M 780.5,198.5 C 789.289,197.863 797.289,200.03 804.5,205C 810.311,210.231 809.811,214.397 803,217.5C 799.333,215.167 795.667,212.833 792,210.5C 782.947,207.119 776.78,209.786 773.5,218.5C 774.498,222.005 776.498,224.838 779.5,227C 786.833,230.333 794.167,233.667 801.5,237C 811.319,243.46 814.152,252.293 810,263.5C 806.256,269.901 800.756,274.068 793.5,276C 783.776,277.838 774.776,276.171 766.5,271C 761.744,267.611 759.91,263.111 761,257.5C 763.299,255.464 765.799,255.131 768.5,256.5C 775.545,266.011 784.545,268.511 795.5,264C 801.574,258.591 801.907,252.925 796.5,247C 789.335,243.279 782.002,239.946 774.5,237C 762.328,228.809 759.828,218.309 767,205.5C 770.96,201.938 775.46,199.605 780.5,198.5 Z"/></g>
<g><path style="opacity:0.896" fill="#fefffe" d="M 94.5,199.5 C 98.2727,198.822 101.106,200.156 103,203.5C 111,213.5 119,223.5 127,233.5C 135.978,222.354 145.145,211.354 154.5,200.5C 157.903,198.813 160.736,199.48 163,202.5C 163.667,226.167 163.667,249.833 163,273.5C 159.667,276.167 156.333,276.167 153,273.5C 152.667,255.833 152.333,238.167 152,220.5C 144.978,228.688 138.144,237.021 131.5,245.5C 128.005,248.368 124.838,248.035 122,244.5C 115.667,236.5 109.333,228.5 103,220.5C 102.667,237.5 102.333,254.5 102,271.5C 99.4512,275.925 96.1179,276.592 92,273.5C 90.3546,250.588 90.0212,227.588 91,204.5C 91.2572,202.093 92.4238,200.427 94.5,199.5 Z"/></g>
<g><path style="opacity:0.936" fill="#fefffe" d="M 184.5,199.5 C 200.503,199.333 216.503,199.5 232.5,200C 235.864,202.729 236.197,205.729 233.5,209C 219.837,209.5 206.171,209.667 192.5,209.5C 192.5,217.167 192.5,224.833 192.5,232.5C 203.172,232.333 213.839,232.5 224.5,233C 227.299,236.339 226.966,239.339 223.5,242C 213.172,242.5 202.839,242.666 192.5,242.5C 192.5,250.167 192.5,257.833 192.5,265.5C 205.837,265.333 219.171,265.5 232.5,266C 236.072,268.626 236.405,271.626 233.5,275C 216.833,275.667 200.167,275.667 183.5,275C 183,274.5 182.5,274 182,273.5C 181.333,249.833 181.333,226.167 182,202.5C 182.698,201.309 183.531,200.309 184.5,199.5 Z"/></g>
<g><path style="opacity:0.889" fill="#fefffe" d="M 250.5,199.5 C 254.025,199.346 256.859,200.679 259,203.5C 272.667,220.833 286.333,238.167 300,255.5C 300.333,237.5 300.667,219.5 301,201.5C 304.075,198.941 307.075,198.941 310,201.5C 311.148,213.575 311.648,225.741 311.5,238C 311.333,249.5 311.167,261 311,272.5C 307.59,277.556 303.923,277.556 300,272.5C 286.714,254.879 273.048,237.546 259,220.5C 258.667,237.5 258.333,254.5 258,271.5C 255.451,275.925 252.118,276.592 248,273.5C 246.355,250.588 246.021,227.588 247,204.5C 247.257,202.093 248.424,200.427 250.5,199.5 Z"/></g>
<g><path style="opacity:0.869" fill="#fefffe" d="M 323.5,199.5 C 341.503,199.333 359.503,199.5 377.5,200C 381.692,202.239 382.359,205.239 379.5,209C 371.92,210.396 364.253,210.896 356.5,210.5C 356.667,230.836 356.5,251.169 356,271.5C 354.368,275.212 351.535,276.379 347.5,275C 346.107,273.829 345.273,272.329 345,270.5C 344.5,250.503 344.333,230.503 344.5,210.5C 337.053,210.929 329.719,210.429 322.5,209C 319.765,205.508 320.098,202.342 323.5,199.5 Z"/></g>
<g><path style="opacity:0.936" fill="#fefffe" d="M 393.5,199.5 C 409.503,199.333 425.503,199.5 441.5,200C 444.864,202.729 445.197,205.729 442.5,209C 428.837,209.5 415.171,209.667 401.5,209.5C 401.5,217.167 401.5,224.833 401.5,232.5C 412.172,232.333 422.839,232.5 433.5,233C 436.299,236.339 435.966,239.339 432.5,242C 422.172,242.5 411.839,242.666 401.5,242.5C 401.5,250.167 401.5,257.833 401.5,265.5C 414.837,265.333 428.171,265.5 441.5,266C 445.072,268.626 445.405,271.626 442.5,275C 425.833,275.667 409.167,275.667 392.5,275C 392,274.5 391.5,274 391,273.5C 390.333,249.833 390.333,226.167 391,202.5C 391.698,201.309 392.531,200.309 393.5,199.5 Z"/></g>
<g><path style="opacity:0.51" fill="#8c8c8c" d="M 525.5,198.5 C 526.542,197.209 527.708,197.209 529,198.5C 530.145,201.432 530.978,204.432 531.5,207.5C 529.214,204.567 527.214,201.567 525.5,198.5 Z"/></g>
<g><path style="opacity:0.92" fill="#fefffe" d="M 829.5,199.5 C 834.029,199.496 837.529,201.496 840,205.5C 847.289,215.124 854.955,224.458 863,233.5C 871.808,222.057 880.975,210.891 890.5,200C 893.14,199.161 895.473,199.661 897.5,201.5C 898.656,225.457 898.823,249.457 898,273.5C 895.503,275.478 892.669,275.978 889.5,275C 888.874,274.25 888.374,273.416 888,272.5C 887.667,255.167 887.333,237.833 887,220.5C 880.286,228.212 873.953,236.212 868,244.5C 865.029,248.092 861.696,248.425 858,245.5C 851.713,236.878 845.047,228.545 838,220.5C 837.667,237.833 837.333,255.167 837,272.5C 836.242,274.91 834.575,275.91 832,275.5C 829.966,275.646 828.299,274.98 827,273.5C 826.333,249.833 826.333,226.167 827,202.5C 827.698,201.309 828.531,200.309 829.5,199.5 Z"/></g>
<g><path style="opacity:0.908" fill="#fefffe" d="M 940.5,199.5 C 943.272,199.22 945.772,199.887 948,201.5C 957.528,223.084 966.861,244.751 976,266.5C 977.648,274.187 974.814,277.021 967.5,275C 964.808,270.089 962.808,264.923 961.5,259.5C 949.495,259.333 937.495,259.5 925.5,260C 923.546,265.205 921.213,270.205 918.5,275C 911.51,277.005 908.676,274.505 910,267.5C 919,246.167 928,224.833 937,203.5C 938.376,202.295 939.542,200.962 940.5,199.5 Z M 942.5,216.5 C 947.649,226.812 952.315,237.479 956.5,248.5C 947.518,249.665 938.518,249.832 929.5,249C 934.252,238.329 938.586,227.496 942.5,216.5 Z"/></g>
<g><path style="opacity:0.911" fill="#fefffe" d="M 990.5,199.5 C 1000.17,199.334 1009.84,199.5 1019.5,200C 1031.33,202.152 1038.83,208.986 1042,220.5C 1043.19,227.521 1042.19,234.187 1039,240.5C 1035.96,243.711 1032.79,246.711 1029.5,249.5C 1034,255.833 1038.5,262.167 1043,268.5C 1044.25,272.926 1042.59,275.592 1038,276.5C 1036.37,276.122 1034.87,275.456 1033.5,274.5C 1028.29,267.244 1022.96,260.077 1017.5,253C 1011.18,252.5 1004.84,252.334 998.5,252.5C 998.666,259.508 998.5,266.508 998,273.5C 994.337,276.333 991.004,276 988,272.5C 987.333,249.5 987.333,226.5 988,203.5C 988.662,202.016 989.496,200.683 990.5,199.5 Z M 998.5,209.5 C 1005.89,209.253 1013.22,209.753 1020.5,211C 1030.87,216.114 1033.7,223.948 1029,234.5C 1027.13,236.709 1024.96,238.542 1022.5,240C 1014.59,241.401 1006.59,241.901 998.5,241.5C 998.5,230.833 998.5,220.167 998.5,209.5 Z"/></g>
<g><path style="opacity:0.907" fill="#fefffe" d="M 1050.5,199.5 C 1068.84,199.333 1087.17,199.5 1105.5,200C 1108.98,202.706 1109.31,205.706 1106.5,209C 1098.92,210.396 1091.25,210.896 1083.5,210.5C 1083.67,231.503 1083.5,252.503 1083,273.5C 1079.67,276.167 1076.33,276.167 1073,273.5C 1072.5,252.503 1072.33,231.503 1072.5,210.5C 1064.75,210.896 1057.08,210.396 1049.5,209C 1046.91,205.583 1047.24,202.416 1050.5,199.5 Z"/></g>
<g><path style="opacity:0.573" fill="#7f7f7f" d="M 486.5,193.5 C 483.384,191.906 480.384,190.406 477.5,189C 471.931,194.408 468.264,200.908 466.5,208.5C 465.833,208.5 465.167,208.5 464.5,208.5C 465.187,205.088 466.187,201.754 467.5,198.5C 470.5,194.5 473.5,190.5 476.5,186.5C 477.723,185.386 479.056,185.219 480.5,186C 483.087,188.081 485.087,190.581 486.5,193.5 Z"/></g>
<g><path style="opacity:0.012" fill="#1e1e1e" d="M 514.5,200.5 C 511.833,201.833 509.167,201.833 506.5,200.5C 509.167,199.167 511.833,199.167 514.5,200.5 Z"/></g>
<g><path style="opacity:0.107" fill="#2d2d2d" d="M 596.5,170.5 C 596.5,184.167 596.5,197.833 596.5,211.5C 595.833,211.5 595.167,211.5 594.5,211.5C 594.333,198.496 594.5,185.496 595,172.5C 595.278,171.584 595.778,170.918 596.5,170.5 Z"/></g>
<g><path style="opacity:0.018" fill="#2c2c2c" d="M 542.5,207.5 C 543.906,207.973 544.573,208.973 544.5,210.5C 543.094,210.027 542.427,209.027 542.5,207.5 Z"/></g>
<g><path style="opacity:0.724" fill="#d5d5d5" d="M 601.5,139.5 C 602.167,139.5 602.833,139.5 603.5,139.5C 603.5,144.5 603.5,149.5 603.5,154.5C 603.833,225.335 603.499,296.002 602.5,366.5C 602.743,290.829 602.41,215.162 601.5,139.5 Z"/></g>
<g><path style="opacity:0.157" fill="#8c8c8c" d="M 531.5,207.5 C 534.167,208.167 535.833,209.833 536.5,212.5C 533.856,211.856 532.189,210.189 531.5,207.5 Z"/></g>
<g><path style="opacity:0.275" fill="#9e9e9e" d="M 537.5,198.5 C 539.107,201.464 540.774,204.464 542.5,207.5C 542.427,209.027 543.094,210.027 544.5,210.5C 546.86,211.865 548.527,213.865 549.5,216.5C 549.719,217.675 549.386,218.675 548.5,219.5C 547.264,218.754 545.93,218.421 544.5,218.5C 542.847,218.34 541.514,217.674 540.5,216.5C 542.949,217.057 545.282,217.057 547.5,216.5C 543.762,212.931 540.596,208.931 538,204.5C 537.505,202.527 537.338,200.527 537.5,198.5 Z"/></g>
<g><path style="opacity:0.075" fill="#2d2d2d" d="M 464.5,208.5 C 465.167,208.5 465.833,208.5 466.5,208.5C 466.5,211.5 466.5,214.5 466.5,217.5C 465.833,217.5 465.167,217.5 464.5,217.5C 464.5,214.5 464.5,211.5 464.5,208.5 Z"/></g>
<g><path style="opacity:0.059" fill="#646464" d="M 536.5,212.5 C 538.833,212.833 540.167,214.167 540.5,216.5C 538.29,216.106 536.957,214.773 536.5,212.5 Z"/></g>
<g><path style="opacity:0.167" fill="#5b5b5b" d="M 549.5,216.5 C 552.047,218.29 551.714,219.956 548.5,221.5C 547.099,220.479 545.765,219.479 544.5,218.5C 545.93,218.421 547.264,218.754 548.5,219.5C 549.386,218.675 549.719,217.675 549.5,216.5 Z"/></g>
<g><path style="opacity:0.318" fill="#6f6f6f" d="M 731.5,214.5 C 731.492,217.545 731.159,220.545 730.5,223.5C 729.833,223.5 729.167,223.5 728.5,223.5C 728.557,219.971 729.557,216.971 731.5,214.5 Z"/></g>
<g><path style="opacity:0.159" fill="#545454" d="M 737.5,219.5 C 737.712,223.345 736.712,226.679 734.5,229.5C 734.397,226.781 734.731,224.115 735.5,221.5C 735.747,220.287 736.414,219.62 737.5,219.5 Z"/></g>
<g><path style="opacity:0.333" fill="#7e7e7e" d="M 464.5,217.5 C 465.167,217.5 465.833,217.5 466.5,217.5C 466.993,219.806 467.326,222.139 467.5,224.5C 465.464,222.794 464.464,220.461 464.5,217.5 Z"/></g>
<g><path style="opacity:0.886" fill="#7d7d7d" d="M 461.5,202.5 C 460.573,208.811 460.406,215.144 461,221.5C 463.477,227.103 465.643,232.77 467.5,238.5C 459.746,229.661 456.913,219.327 459,207.5C 459.05,205.256 459.883,203.589 461.5,202.5 Z"/></g>
<g><path style="opacity:0.342" fill="#909090" d="M 692.5,232.5 C 691.833,232.5 691.167,232.5 690.5,232.5C 691.492,229.221 691.659,225.888 691,222.5C 690.78,224.973 689.614,226.64 687.5,227.5C 687.756,225.063 688.423,222.729 689.5,220.5C 690.689,219.571 692.022,219.238 693.5,219.5C 693.769,223.931 693.436,228.265 692.5,232.5 Z"/></g>
<g><path style="opacity:0.995" fill="#f2f2f2" d="M 690.5,232.5 C 689.396,237.587 687.396,242.253 684.5,246.5C 682.606,247.048 680.94,248.048 679.5,249.5C 680.033,247.568 680.033,245.568 679.5,243.5C 679.5,243.167 679.5,242.833 679.5,242.5C 680.833,242.5 681.5,241.833 681.5,240.5C 684.661,238.08 686.327,234.747 686.5,230.5C 686.557,229.391 686.89,228.391 687.5,227.5C 689.614,226.64 690.78,224.973 691,222.5C 691.659,225.888 691.492,229.221 690.5,232.5 Z"/></g>
<g><path style="opacity:0.439" fill="#747474" d="M 728.5,225.5 C 728.829,228.228 728.163,230.562 726.5,232.5C 726.721,229.933 727.388,227.599 728.5,225.5 Z"/></g>
<g><path style="opacity:0.949" fill="#c0c0c0" d="M 728.5,223.5 C 729.167,223.5 729.833,223.5 730.5,223.5C 729.927,227.603 728.927,231.603 727.5,235.5C 726.789,237.545 725.456,238.878 723.5,239.5C 723.545,236.679 724.545,234.346 726.5,232.5C 728.163,230.562 728.829,228.228 728.5,225.5C 728.5,224.833 728.5,224.167 728.5,223.5 Z"/></g>
<g><path style="opacity:0.067" fill="#6f6f6f" d="M 469.5,230.5 C 471.997,231.129 473.33,232.796 473.5,235.5C 471.003,234.871 469.67,233.204 469.5,230.5 Z"/></g>
<g><path style="opacity:0.312" fill="#919191" d="M 686.5,230.5 C 686.327,234.747 684.661,238.08 681.5,240.5C 682.168,236.497 683.834,233.164 686.5,230.5 Z"/></g>
<g><path style="opacity:0.814" fill="#cfcfcf" d="M 599.5,92.5 C 597.874,183.818 597.041,275.151 597,366.5C 588.912,367.648 580.746,367.815 572.5,367C 569.639,367.03 567.305,366.197 565.5,364.5C 567.764,365.219 570.097,365.552 572.5,365.5C 572.833,365.5 573.167,365.5 573.5,365.5C 580.902,366.827 588.402,366.827 596,365.5C 596.5,351.837 596.667,338.171 596.5,324.5C 596.5,286.833 596.5,249.167 596.5,211.5C 596.5,197.833 596.5,184.167 596.5,170.5C 596.245,145.151 596.579,119.818 597.5,94.5C 598.167,93.8333 598.833,93.1667 599.5,92.5 Z"/></g>
<g><path style="opacity:0.173" fill="#5e5e5e" d="M 690.5,232.5 C 691.167,232.5 691.833,232.5 692.5,232.5C 691.428,237.099 689.594,241.433 687,245.5C 686.329,246.252 685.496,246.586 684.5,246.5C 687.396,242.253 689.396,237.587 690.5,232.5 Z"/></g>
<g><path style="opacity:0.408" fill="#6b6b6b" d="M 734.5,230.5 C 733.657,236.043 731.657,241.043 728.5,245.5C 729.151,239.83 731.151,234.83 734.5,230.5 Z"/></g>
<g><path style="opacity:0.1" fill="#8c8c8c" d="M 473.5,235.5 C 475.587,236.585 476.92,238.251 477.5,240.5C 475.003,239.871 473.67,238.204 473.5,235.5 Z"/></g>
<g><path style="opacity:0.095" fill="#757575" d="M 467.5,238.5 C 469.833,238.833 471.167,240.167 471.5,242.5C 469.29,242.106 467.957,240.773 467.5,238.5 Z"/></g>
<g><path style="opacity:0.175" fill="#606060" d="M 681.5,240.5 C 681.5,241.833 680.833,242.5 679.5,242.5C 679.5,241.167 680.167,240.5 681.5,240.5 Z"/></g>
<g><path style="opacity:0.345" fill="#828282" d="M 478.5,240.5 C 481.189,241.189 482.856,242.856 483.5,245.5C 480.203,245.368 478.537,243.702 478.5,240.5 Z"/></g>
<g><path style="opacity:0.173" fill="#525252" d="M 615.5,197.5 C 616.167,197.5 616.833,197.5 617.5,197.5C 617.175,254.542 617.508,311.542 618.5,368.5C 617.504,368.586 616.671,368.252 616,367.5C 615.5,310.834 615.333,254.168 615.5,197.5 Z"/></g>
<g><path style="opacity:0.031" fill="#6b6b6b" d="M 471.5,243.5 C 474.204,243.67 475.871,245.003 476.5,247.5C 474.251,246.92 472.585,245.587 471.5,243.5 Z"/></g>
<g><path style="opacity:0.82" fill="#a0a0a0" d="M 483.5,245.5 C 486.598,246.216 489.598,247.216 492.5,248.5C 492.5,249.167 492.5,249.833 492.5,250.5C 488.651,250.082 485.651,248.415 483.5,245.5 Z"/></g>
<g><path style="opacity:0.051" fill="#252525" d="M 531.5,248.5 C 531.179,250.048 530.179,250.715 528.5,250.5C 528.821,248.952 529.821,248.285 531.5,248.5 Z"/></g>
<g><path style="opacity:0.914" fill="#bbbbbb" d="M 679.5,243.5 C 680.033,245.568 680.033,247.568 679.5,249.5C 680.94,248.048 682.606,247.048 684.5,246.5C 683.833,249.167 682.167,250.833 679.5,251.5C 674.584,253.576 673.584,252.576 676.5,248.5C 676.75,246.326 677.75,244.659 679.5,243.5 Z"/></g>
<g><path style="opacity:0.984" fill="#a7a7a7" d="M 723.5,239.5 C 723.414,240.496 723.748,241.329 724.5,242C 721.54,247.74 718.373,253.573 715,259.5C 714.329,260.252 713.496,260.586 712.5,260.5C 715.933,253.298 719.6,246.298 723.5,239.5 Z"/></g>
<g><path style="opacity:0.016" fill="#393939" d="M 538.5,247.5 C 540.684,246.017 542.017,246.684 542.5,249.5C 542.253,250.713 541.586,251.38 540.5,251.5C 540.843,249.517 540.176,248.183 538.5,247.5 Z"/></g>
<g><path style="opacity:0.122" fill="#646464" d="M 476.5,247.5 C 480.425,248.579 483.758,250.579 486.5,253.5C 482.207,253.023 478.873,251.023 476.5,247.5 Z"/></g>
<g><path style="opacity:0.129" fill="#404040" d="M 492.5,248.5 C 495.509,249.629 498.509,250.629 501.5,251.5C 500.167,251.5 498.833,251.5 497.5,251.5C 495.883,250.962 494.216,250.629 492.5,250.5C 492.5,249.833 492.5,249.167 492.5,248.5 Z"/></g>
<g><path style="opacity:0.161" fill="#616161" d="M 728.5,246.5 C 726.225,251.133 723.892,255.8 721.5,260.5C 721.043,261.298 720.376,261.631 719.5,261.5C 720.93,255.437 723.93,250.437 728.5,246.5 Z"/></g>
<g><path style="opacity:0.859" fill="#b2b2b2" d="M 538.5,247.5 C 540.176,248.183 540.843,249.517 540.5,251.5C 538.412,252.939 536.079,253.606 533.5,253.5C 531.821,253.285 530.821,253.952 530.5,255.5C 529.833,255.5 529.167,255.5 528.5,255.5C 528.5,254.833 528.167,254.5 527.5,254.5C 527.209,253.351 526.376,252.684 525,252.5C 520.692,253.086 516.359,253.42 512,253.5C 506.898,253.707 502.065,253.04 497.5,251.5C 498.833,251.5 500.167,251.5 501.5,251.5C 510.521,251.599 519.521,251.266 528.5,250.5C 530.179,250.715 531.179,250.048 531.5,248.5C 533.764,247.781 536.097,247.448 538.5,247.5 Z"/></g>
<g><path style="opacity:0.071" fill="#696969" d="M 676.5,248.5 C 673.584,252.576 674.584,253.576 679.5,251.5C 677.377,255.117 675.043,255.284 672.5,252C 673.103,249.929 674.436,248.762 676.5,248.5 Z"/></g>
<g><path style="opacity:0.096" fill="#3a3a3a" d="M 533.5,253.5 C 532.71,254.401 531.71,255.068 530.5,255.5C 530.821,253.952 531.821,253.285 533.5,253.5 Z"/></g>
<g><path style="opacity:0.067" fill="#4e4e4e" d="M 523.5,254.5 C 524.833,254.5 526.167,254.5 527.5,254.5C 528.167,254.5 528.5,254.833 528.5,255.5C 527.081,256.451 525.415,256.784 523.5,256.5C 523.5,255.833 523.5,255.167 523.5,254.5 Z"/></g>
<g><path style="opacity:0.298" fill="#868686" d="M 523.5,254.5 C 523.5,255.167 523.5,255.833 523.5,256.5C 514,257.821 504.5,257.821 495,256.5C 494.501,262.491 494.334,268.491 494.5,274.5C 493.509,268.021 493.176,261.354 493.5,254.5C 503.513,255.808 513.513,255.808 523.5,254.5 Z"/></g>
<g><path style="opacity:0.217" fill="#686868" d="M 594.5,211.5 C 595.167,211.5 595.833,211.5 596.5,211.5C 596.5,249.167 596.5,286.833 596.5,324.5C 595.833,324.5 595.167,324.5 594.5,324.5C 594.5,286.833 594.5,249.167 594.5,211.5 Z"/></g>
<g><path style="opacity:0.558" fill="#989898" d="M 487.5,253.5 C 488.5,253.5 489.5,253.5 490.5,253.5C 489.944,259.839 489.277,266.172 488.5,272.5C 488.843,277.555 489.51,282.555 490.5,287.5C 489.833,287.5 489.167,287.5 488.5,287.5C 485.649,276.554 485.982,265.721 489.5,255C 488.584,254.722 487.918,254.222 487.5,253.5 Z"/></g>
<g><path style="opacity:0.188" fill="#484848" d="M 574.5,266.5 C 575.117,266.611 575.617,266.944 576,267.5C 577.223,273.033 576.389,278.033 573.5,282.5C 574.275,277.203 574.608,271.87 574.5,266.5 Z"/></g>
<g><path style="opacity:0.188" fill="#7c7c7c" d="M 719.5,261.5 C 717.529,266.105 715.029,270.438 712,274.5C 711.329,275.252 710.496,275.586 709.5,275.5C 711.37,269.691 714.703,265.024 719.5,261.5 Z"/></g>
<g><path style="opacity:0.114" fill="#272727" d="M 571.5,267.5 C 571.5,269.5 571.5,271.5 571.5,273.5C 570.833,273.5 570.167,273.5 569.5,273.5C 569.595,271.214 570.262,269.214 571.5,267.5 Z"/></g>
<g><path style="opacity:0.447" fill="#8b8b8b" d="M 712.5,260.5 C 711.68,262.812 710.847,265.146 710,267.5C 704.277,274.988 698.11,281.988 691.5,288.5C 691.709,287.078 692.209,285.745 693,284.5C 700.118,276.826 706.618,268.826 712.5,260.5 Z"/></g>
<g><path style="opacity:0.494" fill="#7f7f7f" d="M 569.5,273.5 C 570.167,273.5 570.833,273.5 571.5,273.5C 571.005,275.482 570.505,277.482 570,279.5C 569.329,280.252 568.496,280.586 567.5,280.5C 568.167,278.167 568.833,275.833 569.5,273.5 Z"/></g>
<g><path style="opacity:0.133" fill="#7c7c7c" d="M 709.5,275.5 C 709.228,278.732 707.562,280.732 704.5,281.5C 705.256,278.606 706.923,276.606 709.5,275.5 Z"/></g>
<g><path style="opacity:0.233" fill="#6e6e6e" d="M 494.5,276.5 C 496.526,280.216 498.193,284.216 499.5,288.5C 497.589,288.426 496.422,287.426 496,285.5C 495.047,282.568 494.547,279.568 494.5,276.5 Z"/></g>
<g><path style="opacity:0.247" fill="#5a5a5a" d="M 573.5,283.5 C 573.072,287.244 571.405,290.244 568.5,292.5C 568.5,291.5 568.5,290.5 568.5,289.5C 569.79,287.208 571.457,285.208 573.5,283.5 Z"/></g>
<g><path style="opacity:0.055" fill="#313231" d="M 499.5,288.5 C 500.833,288.5 501.5,289.167 501.5,290.5C 501.167,290.5 500.833,290.5 500.5,290.5C 499.662,290.158 499.328,289.492 499.5,288.5 Z"/></g>
<g><path style="opacity:0.741" fill="#707070" d="M 488.5,287.5 C 489.167,287.5 489.833,287.5 490.5,287.5C 493.023,291.212 495.023,295.212 496.5,299.5C 495.504,299.586 494.671,299.252 494,298.5C 492.14,294.78 490.307,291.114 488.5,287.5 Z"/></g>
<g><path style="opacity:0.263" fill="#6c6c6c" d="M 567.5,281.5 C 564.552,287.448 560.219,292.115 554.5,295.5C 558.614,290.614 562.947,285.948 567.5,281.5 Z"/></g>
<g><path style="opacity:0.169" fill="#5f5f5f" d="M 691.5,288.5 C 690.167,290.5 688.5,292.167 686.5,293.5C 687.167,290.833 688.833,289.167 691.5,288.5 Z"/></g>
<g><path style="opacity:0.369" fill="#8d8d8d" d="M 500.5,290.5 C 500.833,290.5 501.167,290.5 501.5,290.5C 503.25,291.659 504.25,293.326 504.5,295.5C 501.676,295.011 500.343,293.344 500.5,290.5 Z"/></g>
<g><path style="opacity:0.263" fill="#7a7a7a" d="M 704.5,281.5 C 704.649,282.552 704.483,283.552 704,284.5C 697.5,291.821 691,298.821 684.5,305.5C 684.351,304.448 684.517,303.448 685,302.5C 691.5,295.179 698,288.179 704.5,281.5 Z"/></g>
<g><path style="opacity:0.263" fill="#8a8a8a" d="M 686.5,293.5 C 686.21,296.127 684.876,297.794 682.5,298.5C 682.67,295.796 684.003,294.129 686.5,293.5 Z"/></g>
<g><path style="opacity:0.314" fill="#707070" d="M 550.5,297.5 C 550.306,299.912 548.973,300.912 546.5,300.5C 547.035,298.554 548.368,297.554 550.5,297.5 Z"/></g>
<g><path style="opacity:0.388" fill="#575757" d="M 496.5,299.5 C 498.833,300.5 500.5,302.167 501.5,304.5C 498.833,303.833 497.167,302.167 496.5,299.5 Z"/></g>
<g><path style="opacity:0.133" fill="#828282" d="M 568.5,289.5 C 568.5,290.5 568.5,291.5 568.5,292.5C 563.862,299.966 557.529,305.3 549.5,308.5C 549.5,308.167 549.5,307.833 549.5,307.5C 557.119,302.881 563.453,296.881 568.5,289.5 Z"/></g>
<g><path style="opacity:0.859" fill="#8d8d8d" d="M 504.5,295.5 C 509.992,298.689 515.658,301.356 521.5,303.5C 520.584,303.982 519.584,304.315 518.5,304.5C 512.987,302.624 508.321,299.624 504.5,295.5 Z"/></g>
<g><path style="opacity:0.557" fill="#898989" d="M 546.5,300.5 C 545.489,303.23 543.822,303.897 541.5,302.5C 542.78,301.069 544.447,300.402 546.5,300.5 Z"/></g>
<g><path style="opacity:0.361" fill="#858585" d="M 682.5,298.5 C 681.652,301.888 679.652,304.221 676.5,305.5C 677.068,301.933 679.068,299.599 682.5,298.5 Z"/></g>
<g><path style="opacity:0.1" fill="#3d3d3d" d="M 522.5,303.5 C 525.833,303.5 529.167,303.5 532.5,303.5C 532.5,304.167 532.5,304.833 532.5,305.5C 528.671,306.069 525.337,305.402 522.5,303.5 Z"/></g>
<g><path style="opacity:0.408" fill="#838383" d="M 540.5,302.5 C 538.478,304.693 535.811,305.693 532.5,305.5C 532.5,304.833 532.5,304.167 532.5,303.5C 535.167,303.167 537.833,302.833 540.5,302.5 Z"/></g>
<g><path style="opacity:0.18" fill="#595959" d="M 501.5,304.5 C 504.344,304.343 506.011,305.676 506.5,308.5C 504.205,307.864 502.539,306.531 501.5,304.5 Z"/></g>
<g><path style="opacity:0.137" fill="#777777" d="M 683.5,306.5 C 682.92,308.749 681.587,310.415 679.5,311.5C 679.369,308.633 680.703,306.967 683.5,306.5 Z"/></g>
<g><path style="opacity:0.435" fill="#6e6e6e" d="M 506.5,308.5 C 511.703,309.009 516.37,310.676 520.5,313.5C 515.169,313.345 510.502,311.679 506.5,308.5 Z"/></g>
<g><path style="opacity:0.678" fill="#7c7c7c" d="M 542.5,310.5 C 543.338,310.842 543.672,311.508 543.5,312.5C 540.904,313.265 538.237,313.599 535.5,313.5C 537.663,312.256 539.997,311.256 542.5,310.5 Z"/></g>
<g><path style="opacity:0.946" fill="#cacaca" d="M 549.5,307.5 C 549.5,307.833 549.5,308.167 549.5,308.5C 549.085,312.046 549.085,315.713 549.5,319.5C 549.5,320.167 549.5,320.833 549.5,321.5C 548.073,319.852 547.24,317.852 547,315.5C 546.502,318.482 546.335,321.482 546.5,324.5C 545.833,324.5 545.167,324.5 544.5,324.5C 544.5,323.5 544.5,322.5 544.5,321.5C 546.177,318.073 545.844,315.073 543.5,312.5C 543.672,311.508 543.338,310.842 542.5,310.5C 542.56,309.957 542.893,309.624 543.5,309.5C 546.055,312.251 547.055,311.584 546.5,307.5C 547.5,307.5 548.5,307.5 549.5,307.5 Z"/></g>
<g><path style="opacity:0.073" fill="#282828" d="M 521.5,313.5 C 525.833,313.5 530.167,313.5 534.5,313.5C 530.217,315.754 525.883,315.754 521.5,313.5 Z"/></g>
<g><path style="opacity:0.296" fill="#6d6d6d" d="M 673.5,308.5 C 672.674,311.485 671.341,314.151 669.5,316.5C 668.833,317.167 668.167,317.833 667.5,318.5C 668.23,314.404 670.23,311.071 673.5,308.5 Z"/></g>
<g><path style="opacity:0.392" fill="#686868" d="M 543.5,312.5 C 545.844,315.073 546.177,318.073 544.5,321.5C 543.523,318.713 543.19,315.713 543.5,312.5 Z"/></g>
<g><path style="opacity:0.604" fill="#808080" d="M 679.5,311.5 C 678.191,314.778 676.358,317.778 674,320.5C 673.034,326.829 672.201,333.162 671.5,339.5C 670.833,339.5 670.167,339.5 669.5,339.5C 670.109,334.188 670.609,328.854 671,323.5C 671.763,317.923 674.596,313.923 679.5,311.5 Z"/></g>
<g><path style="opacity:0.706" fill="#b4b4b4" d="M 669.5,316.5 C 669.067,319.166 668.567,321.832 668,324.5C 667.617,325.056 667.117,325.389 666.5,325.5C 666.298,323.05 666.631,320.717 667.5,318.5C 668.167,317.833 668.833,317.167 669.5,316.5 Z"/></g>
<g><path style="opacity:0.139" fill="#333333" d="M 549.5,319.5 C 551.213,320.635 551.88,322.302 551.5,324.5C 550.833,324.5 550.167,324.5 549.5,324.5C 549.5,323.5 549.5,322.5 549.5,321.5C 549.5,320.833 549.5,320.167 549.5,319.5 Z"/></g>
<g><path style="opacity:0.361" fill="#878787" d="M 549.5,324.5 C 550.167,324.5 550.833,324.5 551.5,324.5C 552.348,334.852 553.348,345.186 554.5,355.5C 553.685,354.571 552.852,353.571 552,352.5C 551.09,343.165 550.256,333.832 549.5,324.5 Z"/></g>
<g><path style="opacity:0.318" fill="#818181" d="M 608.5,232.5 C 609.167,235.833 609.833,239.167 610.5,242.5C 610.821,279.21 610.487,315.876 609.5,352.5C 608.501,312.67 608.168,272.67 608.5,232.5 Z"/></g>
<g><path style="opacity:0.143" fill="#353535" d="M 666.5,325.5 C 666.5,327.167 666.5,328.833 666.5,330.5C 665.833,330.5 665.167,330.5 664.5,330.5C 664.12,328.302 664.787,326.635 666.5,325.5 Z"/></g>
<g><path style="opacity:0.137" fill="#656565" d="M 544.5,324.5 C 545.167,324.5 545.833,324.5 546.5,324.5C 546.5,327.167 546.5,329.833 546.5,332.5C 545.833,332.5 545.167,332.5 544.5,332.5C 544.5,329.833 544.5,327.167 544.5,324.5 Z"/></g>
<g><path style="opacity:0.08" fill="#262626" d="M 544.5,332.5 C 545.167,332.5 545.833,332.5 546.5,332.5C 546.5,335.5 546.5,338.5 546.5,341.5C 545.883,341.389 545.383,341.056 545,340.5C 544.503,337.854 544.336,335.187 544.5,332.5 Z"/></g>
<g><path style="opacity:0.069" fill="#373737" d="M 669.5,339.5 C 670.167,339.5 670.833,339.5 671.5,339.5C 671.662,341.527 671.495,343.527 671,345.5C 670.617,346.056 670.117,346.389 669.5,346.5C 669.5,344.167 669.5,341.833 669.5,339.5 Z"/></g>
<g><path style="opacity:0.765" fill="#a1a1a1" d="M 664.5,330.5 C 665.167,330.5 665.833,330.5 666.5,330.5C 666.665,334.182 666.499,337.848 666,341.5C 665.671,345.673 664.504,349.34 662.5,352.5C 663.24,345.174 663.907,337.841 664.5,330.5 Z"/></g>
<g><path style="opacity:0.365" fill="#8f8f8f" d="M 669.5,347.5 C 669.626,352.222 668.626,356.555 666.5,360.5C 665.876,360.083 665.543,359.416 665.5,358.5C 666.333,355.167 667.167,351.833 668,348.5C 668.383,347.944 668.883,347.611 669.5,347.5 Z"/></g>
<g><path style="opacity:0.149" fill="#7d7d7d" d="M 554.5,355.5 C 556.531,356.539 557.864,358.205 558.5,360.5C 556.003,359.871 554.67,358.204 554.5,355.5 Z"/></g>
<g><path style="opacity:0.302" fill="#8c8c8c" d="M 662.5,353.5 C 662.263,356.647 661.43,359.647 660,362.5C 659.329,363.252 658.496,363.586 657.5,363.5C 658.418,359.716 660.085,356.383 662.5,353.5 Z"/></g>
<g><path style="opacity:0.089" fill="#393939" d="M 594.5,324.5 C 595.167,324.5 595.833,324.5 596.5,324.5C 596.667,338.171 596.5,351.837 596,365.5C 588.402,366.827 580.902,366.827 573.5,365.5C 580.5,365.5 587.5,365.5 594.5,365.5C 594.5,351.833 594.5,338.167 594.5,324.5 Z"/></g>
<g><path style="opacity:0.098" fill="#777777" d="M 547.5,356.5 C 549.796,357.733 551.13,359.733 551.5,362.5C 548.708,361.608 547.375,359.608 547.5,356.5 Z"/></g>
<g><path style="opacity:0.312" fill="#919191" d="M 609.5,357.5 C 611.344,359.279 612.01,361.612 611.5,364.5C 610.833,364.5 610.167,364.5 609.5,364.5C 609.5,362.167 609.5,359.833 609.5,357.5 Z"/></g>
<g><path style="opacity:0.275" fill="#7e7e7e" d="M 558.5,360.5 C 562.241,361.727 566.074,362.727 570,363.5C 571.376,363.684 572.209,364.351 572.5,365.5C 570.097,365.552 567.764,365.219 565.5,364.5C 562.379,364.264 560.046,362.931 558.5,360.5 Z"/></g>
<g><path style="opacity:0.318" fill="#727272" d="M 666.5,361.5 C 659.346,373.854 648.513,378.854 634,376.5C 629.653,376.499 625.486,376.166 621.5,375.5C 632.721,376.149 643.721,374.982 654.5,372C 658.323,369.676 661.323,366.509 663.5,362.5C 664.417,361.873 665.417,361.539 666.5,361.5 Z"/></g>
<g><path style="opacity:0.024" fill="#666666" d="M 551.5,363.5 C 554.204,363.67 555.871,365.003 556.5,367.5C 554.251,366.92 552.585,365.587 551.5,363.5 Z"/></g>
<g><path style="opacity:0.042" fill="#373737" d="M 609.5,364.5 C 610.167,364.5 610.833,364.5 611.5,364.5C 611.5,365.833 611.5,367.167 611.5,368.5C 609.824,367.817 609.157,366.483 609.5,364.5 Z"/></g>
<g><path style="opacity:0.339" fill="#6b6b6b" d="M 558.5,368.5 C 562.443,369.486 566.443,370.152 570.5,370.5C 570.611,371.117 570.944,371.617 571.5,372C 574.365,372.183 577.031,372.683 579.5,373.5C 574.768,373.622 570.102,373.122 565.5,372C 562.558,371.856 560.224,370.689 558.5,368.5 Z"/></g>
<g><path style="opacity:0.024" fill="#626262" d="M 603.5,154.5 C 604.665,225.332 604.832,296.332 604,367.5C 603.388,370.115 601.888,371.781 599.5,372.5C 599.5,371.833 599.5,371.167 599.5,370.5C 600.857,369.41 601.857,368.076 602.5,366.5C 603.499,296.002 603.833,225.335 603.5,154.5 Z"/></g>
<g><path style="opacity:0.518" fill="#949494" d="M 657.5,363.5 C 657.489,365.017 656.823,366.184 655.5,367C 652.497,368.339 649.497,369.673 646.5,371C 638.167,371.667 629.833,371.667 621.5,371C 619.881,370.764 618.881,369.931 618.5,368.5C 618.881,369.931 619.881,370.764 621.5,371C 629.833,371.667 638.167,371.667 646.5,371C 649.497,369.673 652.497,368.339 655.5,367C 656.823,366.184 657.489,365.017 657.5,363.5 Z"/></g>
<g><path style="opacity:0.925" fill="#a5a5a5" d="M 570.5,370.5 C 580.197,371.81 589.863,371.81 599.5,370.5C 599.5,371.167 599.5,371.833 599.5,372.5C 595.966,374.048 592.133,374.714 588,374.5C 584.979,374.498 582.146,374.164 579.5,373.5C 577.031,372.683 574.365,372.183 571.5,372C 570.944,371.617 570.611,371.117 570.5,370.5 Z"/></g>
<g><path style="opacity:0.039" fill="#676767" d="M 611.5,368.5 C 613.537,370.202 615.203,372.202 616.5,374.5C 612.991,374.192 611.324,372.192 611.5,368.5 Z"/></g>
<g><path style="opacity:0.871" fill="#cdcdcd" d="M 652.5,381.5 C 621.875,380.349 591.209,380.182 560.5,381C 557.769,384.732 558.102,388.232 561.5,391.5C 556.338,389.303 555.171,385.636 558,380.5C 558.75,379.874 559.584,379.374 560.5,379C 590.5,378.333 620.5,378.333 650.5,379C 651.756,379.417 652.423,380.25 652.5,381.5 Z"/></g>
<g><path style="opacity:1" fill="#e9e9e9" d="M 652.5,381.5 C 654.918,383.878 655.085,386.545 653,389.5C 651.829,390.893 650.329,391.727 648.5,392C 619.33,392.83 590.33,392.664 561.5,391.5C 558.102,388.232 557.769,384.732 560.5,381C 591.209,380.182 621.875,380.349 652.5,381.5 Z"/></g>
<g><path style="opacity:0.221" fill="#d6d6d6" d="M 653.5,402.5 C 652.527,400.7 651.527,398.866 650.5,397C 620.5,396.333 590.5,396.333 560.5,397C 559.473,397.513 558.473,398.013 557.5,398.5C 557.511,396.983 558.177,395.816 559.5,395C 589.833,394.333 620.167,394.333 650.5,395C 653.434,396.993 654.434,399.493 653.5,402.5 Z"/></g>
<g><path style="opacity:0.993" fill="#fbfbfb" d="M 653.5,402.5 C 653.863,404.911 652.863,406.411 650.5,407C 620.167,407.667 589.833,407.667 559.5,407C 556.52,404.586 555.853,401.752 557.5,398.5C 558.473,398.013 559.473,397.513 560.5,397C 590.5,396.333 620.5,396.333 650.5,397C 651.527,398.866 652.527,400.7 653.5,402.5 Z"/></g>
<g><path style="opacity:0.898" fill="#fdfdfd" d="M 571.5,411.5 C 595.524,410.843 619.19,411.51 642.5,413.5C 641.25,413.577 640.417,414.244 640,415.5C 638.923,419.891 637.757,424.224 636.5,428.5C 615.833,428.5 595.167,428.5 574.5,428.5C 574.468,425.006 573.135,422.339 570.5,420.5C 569.076,418.485 568.41,416.152 568.5,413.5C 569.71,413.068 570.71,412.401 571.5,411.5 Z"/></g>
<g><path style="opacity:0.459" fill="#7c7c7c" d="M 571.5,411.5 C 570.71,412.401 569.71,413.068 568.5,413.5C 567.262,413.19 567.262,412.69 568.5,412C 569.448,411.517 570.448,411.351 571.5,411.5 Z"/></g>
<g><path style="opacity:0.839" fill="#a7a7a7" d="M 642.5,413.5 C 641.627,419.154 639.627,424.154 636.5,428.5C 637.757,424.224 638.923,419.891 640,415.5C 640.417,414.244 641.25,413.577 642.5,413.5 Z"/></g>
<g><path style="opacity:0.914" fill="#9b9b9b" d="M 570.5,420.5 C 573.135,422.339 574.468,425.006 574.5,428.5C 571.865,426.661 570.532,423.994 570.5,420.5 Z"/></g>
</svg>
