<?xml version="1.0" encoding="UTF-8"?>
<!DOCTYPE svg PUBLIC "-//W3C//DTD SVG 1.1//EN" "http://www.w3.org/Graphics/SVG/1.1/DTD/svg11.dtd">
<svg xmlns="http://www.w3.org/2000/svg" version="1.1" width="700px" height="500px" style="shape-rendering:geometricPrecision; text-rendering:geometricPrecision; image-rendering:optimizeQuality; fill-rule:evenodd; clip-rule:evenodd" xmlns:xlink="http://www.w3.org/1999/xlink">
<g><path style="opacity:0.008" fill="#f7f7f7" d="M 111.5,51.5 C 114.225,51.937 116.225,53.2704 117.5,55.5C 115.001,54.6992 113.001,53.3658 111.5,51.5 Z"/></g>
<g><path style="opacity:0.302" fill="#dddddd" d="M 129.5,51.5 C 134.032,51.1818 138.366,51.5151 142.5,52.5C 143.263,53.2679 144.263,53.7679 145.5,54C 145.272,54.3988 144.938,54.5654 144.5,54.5C 138.174,53.2209 131.841,53.2209 125.5,54.5C 127.076,53.8571 128.41,52.8571 129.5,51.5 Z"/></g>
<g><path style="opacity:0.02" fill="#f7f7f7" d="M 129.5,51.5 C 128.41,52.8571 127.076,53.8571 125.5,54.5C 124.041,54.4326 122.708,54.7659 121.5,55.5C 123.531,53.245 126.198,51.9116 129.5,51.5 Z"/></g>
<g><path style="opacity:0.994" fill="#f8f8f8" d="M 144.5,54.5 C 140.828,54.9398 137.162,55.2732 133.5,55.5C 129.993,55.3067 126.66,55.9733 123.5,57.5C 123.167,57.3333 122.833,57.1667 122.5,57C 123.571,56.1482 124.571,55.3149 125.5,54.5C 131.841,53.2209 138.174,53.2209 144.5,54.5 Z"/></g>
<g><path style="opacity:0.999" fill="#fbfbfb" d="M 194.5,52.5 C 195.492,52.3284 196.158,52.6618 196.5,53.5C 195.957,53.56 195.624,53.8933 195.5,54.5C 218.416,59.7921 237.916,70.7921 254,87.5C 267.108,102.697 277.441,119.697 285,138.5C 285.045,135.78 284.545,133.114 283.5,130.5C 285.584,133.053 286.917,136.053 287.5,139.5C 286.503,139.47 285.836,139.97 285.5,141C 290.278,155.438 293.111,170.271 294,185.5C 294.74,179.782 294.573,174.115 293.5,168.5C 294.117,168.611 294.617,168.944 295,169.5C 295.167,172.833 295.333,176.167 295.5,179.5C 295.486,183.239 294.82,186.572 293.5,189.5C 293.631,188.624 293.298,187.957 292.5,187.5C 290.175,206.147 284.175,223.481 274.5,239.5C 262.018,258.083 247.851,275.416 232,291.5C 230.518,294.273 228.852,296.94 227,299.5C 225.942,314.146 223.276,328.479 219,342.5C 212.301,351.8 203.134,355.8 191.5,354.5C 185.484,354.198 179.484,353.698 173.5,353C 170.667,352.167 168.833,350.333 168,347.5C 166.569,293.849 166.069,240.183 166.5,186.5C 166.167,142.495 166.5,98.495 167.5,54.5C 174.631,53.362 181.798,53.362 189,54.5C 191.295,54.4535 193.129,53.7868 194.5,52.5 Z M 173.5,60.5 C 177.5,60.5 181.5,60.5 185.5,60.5C 188.123,62.2655 191.123,62.9321 194.5,62.5C 197.003,63.3705 199.67,64.0372 202.5,64.5C 221.748,70.6076 238.248,80.9409 252,95.5C 265.5,111.162 275.333,128.828 281.5,148.5C 282.391,151.778 283.224,155.111 284,158.5C 284.383,159.056 284.883,159.389 285.5,159.5C 287.139,173.606 286.806,187.606 284.5,201.5C 283.21,204.642 282.21,207.975 281.5,211.5C 277.5,222.833 272.167,233.5 265.5,243.5C 251.678,260.806 237.678,278.139 223.5,295.5C 221.45,303.071 220.117,310.737 219.5,318.5C 218.578,324.056 217.578,329.723 216.5,335.5C 214.204,342.961 209.204,347.461 201.5,349C 192.114,349.853 182.781,349.519 173.5,348C 172.565,345.619 172.232,343.119 172.5,340.5C 172.5,298.5 172.5,256.5 172.5,214.5C 172.5,203.5 172.5,192.5 172.5,181.5C 172.5,177.5 172.5,173.5 172.5,169.5C 172.5,155.167 172.5,140.833 172.5,126.5C 173.497,104.673 173.831,82.673 173.5,60.5 Z"/></g>
<g><path style="opacity:0.923" fill="#eaeaea" d="M 142.5,52.5 C 146.812,53.1552 150.812,54.6552 154.5,57C 156.063,57.7589 157.063,58.9256 157.5,60.5C 155.558,65.0557 154.892,70.0557 155.5,75.5C 155.167,75.5 154.833,75.5 154.5,75.5C 154.834,70.393 154.501,66.0597 153.5,62.5C 153.167,62.5 152.833,62.5 152.5,62.5C 149.242,60.9487 145.909,59.4487 142.5,58C 138.848,57.5014 135.182,57.3347 131.5,57.5C 132.167,56.8333 132.833,56.1667 133.5,55.5C 137.162,55.2732 140.828,54.9398 144.5,54.5C 144.938,54.5654 145.272,54.3988 145.5,54C 144.263,53.7679 143.263,53.2679 142.5,52.5 Z"/></g>
<g><path style="opacity:0.017" fill="#fcfcfc" d="M 163.5,57.5 C 163.175,87.5736 163.508,117.574 164.5,147.5C 164.181,209.523 164.515,271.523 165.5,333.5C 164.732,332.737 164.232,331.737 164,330.5C 163.669,254.499 163.169,178.499 162.5,102.5C 162.5,87.3296 162.833,72.3296 163.5,57.5 Z"/></g>
<g><path style="opacity:0.128" fill="#ececec" d="M 194.5,52.5 C 193.129,53.7868 191.295,54.4535 189,54.5C 181.798,53.362 174.631,53.362 167.5,54.5C 166.5,98.495 166.167,142.495 166.5,186.5C 165.833,173.5 165.167,160.5 164.5,147.5C 163.508,117.574 163.175,87.5736 163.5,57.5C 163.5,55.8333 163.5,54.1667 163.5,52.5C 173.833,52.5 184.167,52.5 194.5,52.5 Z"/></g>
<g><path style="opacity:0.628" fill="#dddddd" d="M 172.5,58.5 C 177.179,58.3342 181.845,58.5008 186.5,59C 187.712,60.1068 187.379,60.6068 185.5,60.5C 181.5,60.5 177.5,60.5 173.5,60.5C 172.662,60.1583 172.328,59.4916 172.5,58.5 Z"/></g>
<g><path style="opacity:0.796" fill="#dbdbdb" d="M 194.5,62.5 C 193.048,61.6981 191.382,61.1981 189.5,61C 193.236,60.3901 196.903,60.7235 200.5,62C 198.527,62.4955 196.527,62.6621 194.5,62.5 Z"/></g>
<g><path style="opacity:0.115" fill="#f4f4f4" d="M 152.5,62.5 C 152.833,62.5 153.167,62.5 153.5,62.5C 153.416,75.5079 153.083,88.5079 152.5,101.5C 152.167,101.5 151.833,101.5 151.5,101.5C 151.928,88.503 152.262,75.503 152.5,62.5 Z"/></g>
<g><path style="opacity:0.649" fill="#dddddd" d="M 157.5,60.5 C 157.5,64.1667 157.5,67.8333 157.5,71.5C 157.665,74.5184 157.498,77.5184 157,80.5C 156.722,79.5842 156.222,78.9175 155.5,78.5C 155.5,77.5 155.5,76.5 155.5,75.5C 154.892,70.0557 155.558,65.0557 157.5,60.5 Z"/></g>
<g><path style="opacity:0.298" fill="#e5e5e5" d="M 111.5,51.5 C 113.001,53.3658 115.001,54.6992 117.5,55.5C 118.964,56.4054 120.298,56.4054 121.5,55.5C 122.708,54.7659 124.041,54.4326 125.5,54.5C 124.571,55.3149 123.571,56.1482 122.5,57C 122.833,57.1667 123.167,57.3333 123.5,57.5C 126.66,55.9733 129.993,55.3067 133.5,55.5C 132.833,56.1667 132.167,56.8333 131.5,57.5C 127.51,58.8227 123.51,60.156 119.5,61.5C 113.727,59.1928 107.727,57.8595 101.5,57.5C 91.9161,58.2919 83.9161,62.2919 77.5,69.5C 75.9136,72.3405 74.0803,75.0072 72,77.5C 70.9623,81.4683 69.4623,85.135 67.5,88.5C 66.8333,88.5 66.1667,88.5 65.5,88.5C 72.8117,61.9819 89.8117,51.4819 116.5,57C 97.3765,47.2392 81.5431,51.0725 69,68.5C 63.6916,77.0636 60.8582,86.3969 60.5,96.5C 58.7049,97.2651 56.8716,97.9318 55,98.5C 53.9701,98.1639 53.4701,97.4972 53.5,96.5C 55.4352,95.8505 57.4352,95.5172 59.5,95.5C 58.9967,74.7864 67.9967,59.953 86.5,51C 94.903,48.8871 103.236,49.0538 111.5,51.5 Z"/></g>
<g><path style="opacity:0.257" fill="#eeeeee" d="M 172.5,58.5 C 172.328,59.4916 172.662,60.1583 173.5,60.5C 173.831,82.673 173.497,104.673 172.5,126.5C 172.667,113.496 172.5,100.496 172,87.5C 171.823,91.3563 171.323,95.023 170.5,98.5C 170.772,84.9916 171.439,71.6583 172.5,58.5 Z"/></g>
<g><path style="opacity:0.275" fill="#efefef" d="M 157.5,71.5 C 158.319,74.3054 158.819,77.3054 159,80.5C 159.5,102.497 159.667,124.497 159.5,146.5C 158.669,130.672 158.169,114.672 158,98.5C 157.5,114.163 157.333,129.83 157.5,145.5C 156.768,123.321 156.102,100.987 155.5,78.5C 156.222,78.9175 156.722,79.5842 157,80.5C 157.498,77.5184 157.665,74.5184 157.5,71.5 Z"/></g>
<g><path style="opacity:0.694" fill="#d8d8d8" d="M 154.5,75.5 C 153.788,96.4924 153.455,117.492 153.5,138.5C 152.505,126.345 152.171,114.011 152.5,101.5C 153.083,88.5079 153.416,75.5079 153.5,62.5C 154.501,66.0597 154.834,70.393 154.5,75.5 Z"/></g>
<g><path style="opacity:0.998" fill="#fbfbfb" d="M 154.5,75.5 C 154.833,75.5 155.167,75.5 155.5,75.5C 155.5,76.5 155.5,77.5 155.5,78.5C 156.102,100.987 156.768,123.321 157.5,145.5C 158.426,205.827 158.76,266.16 158.5,326.5C 158.83,332.868 158.496,339.202 157.5,345.5C 156.769,347.805 155.436,349.638 153.5,351C 142.421,351.95 131.421,351.45 120.5,349.5C 112.51,346.828 106.844,341.828 103.5,334.5C 103.53,323.819 103.196,313.152 102.5,302.5C 102.5,301.833 102.833,301.5 103.5,301.5C 104.388,304.054 104.721,306.721 104.5,309.5C 104.833,310.833 105.167,312.167 105.5,313.5C 105.183,316.572 105.516,319.572 106.5,322.5C 107.107,322.376 107.44,322.043 107.5,321.5C 109.052,326.645 110.385,331.978 111.5,337.5C 110.883,337.389 110.383,337.056 110,336.5C 109.012,333.576 108.346,330.576 108,327.5C 106.183,334.379 108.683,339.546 115.5,343C 118.932,345.072 122.598,345.738 126.5,345C 124.942,344.79 123.609,344.29 122.5,343.5C 124.886,343.259 126.886,343.925 128.5,345.5C 131.938,346.823 135.771,347.49 140,347.5C 143.833,347.333 147.667,347.167 151.5,347C 152.464,342.934 152.797,338.767 152.5,334.5C 152.5,283.833 152.5,233.167 152.5,182.5C 153.414,167.858 153.747,153.191 153.5,138.5C 153.455,117.492 153.788,96.4924 154.5,75.5 Z"/></g>
<g><path style="opacity:0.557" fill="#e7e7e7" d="M 196.5,53.5 C 200.6,53.5243 204.6,54.191 208.5,55.5C 244.822,69.164 269.822,94.164 283.5,130.5C 284.545,133.114 285.045,135.78 285,138.5C 277.441,119.697 267.108,102.697 254,87.5C 237.916,70.7921 218.416,59.7921 195.5,54.5C 195.624,53.8933 195.957,53.56 196.5,53.5 Z"/></g>
<g><path style="opacity:0.998" fill="#fafafa" d="M 65.5,88.5 C 65.2614,94.5652 65.7614,100.565 67,106.5C 67.8518,107.571 68.6851,108.571 69.5,109.5C 72.3316,116.652 76.3316,123.152 81.5,129C 81.2716,129.399 80.9382,129.565 80.5,129.5C 70.4997,121.676 64.1664,111.509 61.5,99C 56.8649,98.9797 52.8649,100.646 49.5,104C 50.5768,104.47 51.5768,104.303 52.5,103.5C 51.493,105.522 49.8263,106.855 47.5,107.5C 47.6309,106.624 47.2975,105.957 46.5,105.5C 38.9545,109.848 34.4545,116.181 33,124.5C 33.2784,123.584 33.7784,122.918 34.5,122.5C 34.7709,124.38 34.1042,125.713 32.5,126.5C 32.44,125.957 32.1067,125.624 31.5,125.5C 26.2457,144.792 31.5791,160.292 47.5,172C 49.8076,172.991 52.1409,173.824 54.5,174.5C 62.4753,175.422 70.4753,176.256 78.5,177C 71.3417,178.462 64.0084,178.962 56.5,178.5C 52.7628,176.469 48.7628,174.802 44.5,173.5C 40.5078,171.003 37.0078,168.003 34,164.5C 17.3875,179.929 15.0542,197.262 27,216.5C 41.8367,232.59 60.0033,237.924 81.5,232.5C 84.0972,232.721 84.0972,233.221 81.5,234C 70.5185,235.769 59.5185,235.936 48.5,234.5C 48.8064,237.385 48.4731,240.052 47.5,242.5C 46.4889,247.693 46.6555,253.027 48,258.5C 48.3826,259.056 48.8826,259.389 49.5,259.5C 52.1001,270.777 58.7667,278.777 69.5,283.5C 77.3562,285.318 85.3562,285.985 93.5,285.5C 111.836,279.997 123.669,267.997 129,249.5C 129.357,253.51 129.19,257.51 128.5,261.5C 122.527,273.139 113.86,282.139 102.5,288.5C 101.778,288.918 101.278,289.584 101,290.5C 99.8545,289.316 98.6879,289.316 97.5,290.5C 75.8663,296.239 59.3663,289.572 48,270.5C 47.0594,267.846 46.2261,265.179 45.5,262.5C 43.9974,252.693 44.664,243.027 47.5,233.5C 46.448,233.351 45.448,233.517 44.5,234C 45.7736,234.977 45.7736,235.811 44.5,236.5C 43.8333,235.5 43.1667,234.5 42.5,233.5C 43.7733,232.923 43.7733,232.257 42.5,231.5C 26.7986,224.129 18.1319,211.795 16.5,194.5C 17.8055,181.727 23.4722,171.227 33.5,163C 26.9153,151.73 24.7486,139.563 27,126.5C 28.509,120.323 31.3424,114.823 35.5,110C 40.6559,105.586 46.3225,101.919 52.5,99C 51.552,98.5172 50.552,98.3505 49.5,98.5C 50.5137,97.3263 51.847,96.6596 53.5,96.5C 53.4701,97.4972 53.9701,98.1639 55,98.5C 56.8716,97.9318 58.7049,97.2651 60.5,96.5C 60.8582,86.3969 63.6916,77.0636 69,68.5C 81.5431,51.0725 97.3765,47.2392 116.5,57C 89.8117,51.4819 72.8117,61.9819 65.5,88.5 Z"/></g>
<g><path style="opacity:0.01" fill="#f9f9f9" d="M 67.5,100.5 C 68.1174,100.611 68.6174,100.944 69,101.5C 69.7388,104.546 70.5721,107.546 71.5,110.5C 70.8333,110.167 70.1667,109.833 69.5,109.5C 68.99,106.461 68.3234,103.461 67.5,100.5 Z"/></g>
<g><path style="opacity:0.182" fill="#e9e9e9" d="M 151.5,101.5 C 151.833,101.5 152.167,101.5 152.5,101.5C 152.171,114.011 152.505,126.345 153.5,138.5C 153.747,153.191 153.414,167.858 152.5,182.5C 151.833,188.5 151.167,194.5 150.5,200.5C 150.82,167.5 151.153,134.5 151.5,101.5 Z"/></g>
<g><path style="opacity:0.799" fill="#dedede" d="M 65.5,88.5 C 66.1667,88.5 66.8333,88.5 67.5,88.5C 67.5,92.5 67.5,96.5 67.5,100.5C 68.3234,103.461 68.99,106.461 69.5,109.5C 68.6851,108.571 67.8518,107.571 67,106.5C 65.7614,100.565 65.2614,94.5652 65.5,88.5 Z"/></g>
<g><path style="opacity:0.453" fill="#e7e7e7" d="M 281.5,148.5 C 275.333,128.828 265.5,111.162 252,95.5C 238.248,80.9409 221.748,70.6076 202.5,64.5C 202.62,63.4138 203.287,62.7472 204.5,62.5C 215.923,65.8337 225.923,70.667 234.5,77C 257.862,95.2272 274.195,118.394 283.5,146.5C 283.253,147.713 282.586,148.38 281.5,148.5 Z"/></g>
<g><path style="opacity:0.675" fill="#e7e7e7" d="M 47.5,107.5 C 42.458,111.94 38.1247,116.94 34.5,122.5C 33.7784,122.918 33.2784,123.584 33,124.5C 34.4545,116.181 38.9545,109.848 46.5,105.5C 47.2975,105.957 47.6309,106.624 47.5,107.5 Z"/></g>
<g><path style="opacity:0.999" fill="#f8f8f8" d="M 217.5,106.5 C 216.448,106.351 215.448,106.517 214.5,107C 231.062,115.951 242.062,129.451 247.5,147.5C 248.298,147.043 248.631,146.376 248.5,145.5C 249.117,145.611 249.617,145.944 250,146.5C 251.891,153.508 251.891,160.508 250,167.5C 249.617,168.056 249.117,168.389 248.5,168.5C 247.272,165.539 246.105,162.539 245,159.5C 244.503,161.81 244.337,164.143 244.5,166.5C 243.383,162.705 242.717,158.705 242.5,154.5C 243.268,155.263 243.768,156.263 244,157.5C 244.056,153.212 243.222,149.046 241.5,145C 233.256,129.167 222.756,115.667 210,104.5C 209.517,105.448 209.351,106.448 209.5,107.5C 207.896,106.713 207.229,105.38 207.5,103.5C 211.214,103.59 214.548,104.59 217.5,106.5 Z"/></g>
<g><path style="opacity:0.602" fill="#e6e6e6" d="M 80.5,129.5 C 81.2299,130.712 82.2299,131.712 83.5,132.5C 83.3764,133.107 83.0431,133.44 82.5,133.5C 76.6126,130.451 71.7793,126.118 68,120.5C 65.9987,117.156 63.9987,113.823 62,110.5C 61.0467,107.568 60.5467,104.568 60.5,101.5C 57.8333,102.167 55.1667,102.833 52.5,103.5C 51.5768,104.303 50.5768,104.47 49.5,104C 52.8649,100.646 56.8649,98.9797 61.5,99C 64.1664,111.509 70.4997,121.676 80.5,129.5 Z"/></g>
<g><path style="opacity:0.481" fill="#e6e6e6" d="M 242.5,154.5 C 235.134,136.437 224.134,120.77 209.5,107.5C 209.351,106.448 209.517,105.448 210,104.5C 222.756,115.667 233.256,129.167 241.5,145C 243.222,149.046 244.056,153.212 244,157.5C 243.768,156.263 243.268,155.263 242.5,154.5 Z"/></g>
<g><path style="opacity:0.481" fill="#dfdfdf" d="M 172.5,126.5 C 172.5,140.833 172.5,155.167 172.5,169.5C 171.833,157.5 171.167,145.5 170.5,133.5C 170.5,121.833 170.5,110.167 170.5,98.5C 171.323,95.023 171.823,91.3563 172,87.5C 172.5,100.496 172.667,113.496 172.5,126.5 Z"/></g>
<g><path style="opacity:0.725" fill="#ececec" d="M 69.5,109.5 C 70.1667,109.833 70.8333,110.167 71.5,110.5C 77.0123,119.028 83.3457,127.028 90.5,134.5C 90.5,136.5 89.5,137.5 87.5,137.5C 85.1853,136.859 83.5186,135.525 82.5,133.5C 83.0431,133.44 83.3764,133.107 83.5,132.5C 82.2299,131.712 81.2299,130.712 80.5,129.5C 80.9382,129.565 81.2716,129.399 81.5,129C 76.3316,123.152 72.3316,116.652 69.5,109.5 Z"/></g>
<g><path style="opacity:0.659" fill="#e6e6e6" d="M 217.5,106.5 C 229.433,113.1 238.766,122.433 245.5,134.5C 247.117,138.014 248.117,141.681 248.5,145.5C 248.631,146.376 248.298,147.043 247.5,147.5C 242.062,129.451 231.062,115.951 214.5,107C 215.448,106.517 216.448,106.351 217.5,106.5 Z"/></g>
<g><path style="opacity:0.896" fill="#fefefe" d="M 340.5,134.5 C 342.199,134.34 343.866,134.506 345.5,135C 354.725,145.967 364.058,156.8 373.5,167.5C 382.47,156.858 391.47,146.192 400.5,135.5C 403.903,133.813 406.736,134.48 409,137.5C 409.667,161.167 409.667,184.833 409,208.5C 405.667,211.167 402.333,211.167 399,208.5C 398.667,190.833 398.333,173.167 398,155.5C 390.978,163.688 384.144,172.021 377.5,180.5C 374.005,183.368 370.838,183.035 368,179.5C 361.667,171.5 355.333,163.5 349,155.5C 348.667,172.5 348.333,189.5 348,206.5C 346.368,210.212 343.535,211.379 339.5,210C 339,209.5 338.5,209 338,208.5C 336.355,185.588 336.021,162.588 337,139.5C 337.257,137.093 338.424,135.427 340.5,134.5 Z"/></g>
<g><path style="opacity:0.912" fill="#fefefe" d="M 430.5,134.5 C 446.17,134.333 461.837,134.5 477.5,135C 481.782,137.769 482.116,140.769 478.5,144C 465.171,144.5 451.837,144.667 438.5,144.5C 438.5,152.167 438.5,159.833 438.5,167.5C 448.839,167.334 459.172,167.5 469.5,168C 473.352,170.858 473.352,173.858 469.5,177C 459.172,177.5 448.839,177.666 438.5,177.5C 438.5,185.167 438.5,192.833 438.5,200.5C 451.504,200.333 464.504,200.5 477.5,201C 482.255,203.51 482.588,206.51 478.5,210C 462.167,210.667 445.833,210.667 429.5,210C 429,209.5 428.5,209 428,208.5C 426.365,185.563 426.031,162.563 427,139.5C 427.257,137.093 428.424,135.427 430.5,134.5 Z"/></g>
<g><path style="opacity:0.89" fill="#fefefe" d="M 496.5,134.5 C 500.025,134.346 502.859,135.679 505,138.5C 518.667,155.833 532.333,173.167 546,190.5C 546.333,172.5 546.667,154.5 547,136.5C 550.075,133.941 553.075,133.941 556,136.5C 557.148,148.575 557.648,160.741 557.5,173C 557.333,184.5 557.167,196 557,207.5C 553.59,212.556 549.923,212.556 546,207.5C 532.714,189.879 519.048,172.546 505,155.5C 504.667,172.5 504.333,189.5 504,206.5C 502.368,210.212 499.535,211.379 495.5,210C 495,209.5 494.5,209 494,208.5C 492.355,185.588 492.021,162.588 493,139.5C 493.257,137.093 494.424,135.427 496.5,134.5 Z"/></g>
<g><path style="opacity:0.869" fill="#fefefe" d="M 569.5,134.5 C 587.503,134.333 605.503,134.5 623.5,135C 627.692,137.239 628.359,140.239 625.5,144C 617.92,145.396 610.253,145.896 602.5,145.5C 602.667,165.836 602.5,186.169 602,206.5C 600.368,210.212 597.535,211.379 593.5,210C 592.107,208.829 591.273,207.329 591,205.5C 590.5,185.503 590.333,165.503 590.5,145.5C 583.053,145.929 575.719,145.429 568.5,144C 565.765,140.508 566.098,137.342 569.5,134.5 Z"/></g>
<g><path style="opacity:0.912" fill="#fefefe" d="M 639.5,134.5 C 655.17,134.333 670.837,134.5 686.5,135C 690.782,137.769 691.116,140.769 687.5,144C 674.171,144.5 660.837,144.667 647.5,144.5C 647.5,152.167 647.5,159.833 647.5,167.5C 657.839,167.334 668.172,167.5 678.5,168C 682.352,170.858 682.352,173.858 678.5,177C 668.172,177.5 657.839,177.666 647.5,177.5C 647.5,185.167 647.5,192.833 647.5,200.5C 660.504,200.333 673.504,200.5 686.5,201C 691.255,203.51 691.588,206.51 687.5,210C 671.167,210.667 654.833,210.667 638.5,210C 638,209.5 637.5,209 637,208.5C 635.365,185.563 635.031,162.563 636,139.5C 636.257,137.093 637.424,135.427 639.5,134.5 Z"/></g>
<g><path style="opacity:0.635" fill="#e1e1e1" d="M 93.5,140.5 C 94.6857,141.961 94.6857,143.295 93.5,144.5C 93.1034,143.475 92.4368,143.308 91.5,144C 90.2125,145.41 89.0458,146.91 88,148.5C 87.8782,146.718 88.3782,145.052 89.5,143.5C 90.0478,141.468 91.3812,140.468 93.5,140.5 Z"/></g>
<g><path style="opacity:0.012" fill="#fafafa" d="M 93.5,140.5 C 94.6935,140.97 95.3601,141.97 95.5,143.5C 95.4008,145.799 94.7342,147.799 93.5,149.5C 93.5,147.833 93.5,146.167 93.5,144.5C 94.6857,143.295 94.6857,141.961 93.5,140.5 Z"/></g>
<g><path style="opacity:0.998" fill="#fafafa" d="M 89.5,143.5 C 88.3782,145.052 87.8782,146.718 88,148.5C 89.0458,146.91 90.2125,145.41 91.5,144C 92.4368,143.308 93.1034,143.475 93.5,144.5C 92.0337,145.347 91.2004,146.68 91,148.5C 84.9796,167.472 89.1463,183.638 103.5,197C 95.2915,194.64 89.2915,189.474 85.5,181.5C 84.8933,181.624 84.56,181.957 84.5,182.5C 82.8235,181.817 82.1568,180.483 82.5,178.5C 84.1316,181.209 84.6316,180.875 84,177.5C 82.6976,176.915 81.531,176.249 80.5,175.5C 81.4959,175.586 82.3292,175.252 83,174.5C 83.1667,172 83.3333,169.5 83.5,167C 83.4752,164.071 82.8086,161.571 81.5,159.5C 81.6206,156.895 82.6206,154.895 84.5,153.5C 83.5269,155.068 83.3603,156.735 84,158.5C 85.3704,155.95 86.5371,153.283 87.5,150.5C 87.0431,149.702 86.3764,149.369 85.5,149.5C 85.8702,146.733 87.2036,144.733 89.5,143.5 Z"/></g>
<g><path style="opacity:0.559" fill="#e1e1e1" d="M 85.5,149.5 C 86.3764,149.369 87.0431,149.702 87.5,150.5C 86.5371,153.283 85.3704,155.95 84,158.5C 83.3603,156.735 83.5269,155.068 84.5,153.5C 84.4326,152.041 84.7659,150.708 85.5,149.5 Z"/></g>
<g><path style="opacity:0.408" fill="#d7d7d7" d="M 283.5,149.5 C 285.203,151.851 285.703,154.518 285,157.5C 284.178,154.883 283.678,152.216 283.5,149.5 Z"/></g>
<g><path style="opacity:0.323" fill="#d9d9d9" d="M 159.5,146.5 C 159.5,206.5 159.5,266.5 159.5,326.5C 159.167,326.5 158.833,326.5 158.5,326.5C 158.76,266.16 158.426,205.827 157.5,145.5C 157.333,129.83 157.5,114.163 158,98.5C 158.169,114.672 158.669,130.672 159.5,146.5 Z"/></g>
<g><path style="opacity:0.738" fill="#e1e1e1" d="M 248.5,168.5 C 248.778,170.346 248.111,171.68 246.5,172.5C 245.831,170.369 245.165,168.369 244.5,166.5C 244.337,164.143 244.503,161.81 245,159.5C 246.105,162.539 247.272,165.539 248.5,168.5 Z"/></g>
<g><path style="opacity:0.793" fill="#e3e3e3" d="M 287.5,139.5 C 291.534,148.69 293.534,158.357 293.5,168.5C 294.573,174.115 294.74,179.782 294,185.5C 293.111,170.271 290.278,155.438 285.5,141C 285.836,139.97 286.503,139.47 287.5,139.5 Z"/></g>
<g><path style="opacity:0.659" fill="#ececec" d="M 81.5,159.5 C 82.8086,161.571 83.4752,164.071 83.5,167C 83.3333,169.5 83.1667,172 83,174.5C 82.3292,175.252 81.4959,175.586 80.5,175.5C 73.1667,174.833 65.8333,174.167 58.5,173.5C 66.1739,173.666 73.8406,173.5 81.5,173C 80.6695,168.574 80.6695,164.074 81.5,159.5 Z"/></g>
<g><path style="opacity:0.551" fill="#e8e8e8" d="M 32.5,126.5 C 29.6991,143.022 34.3658,156.856 46.5,168C 50.3174,170.438 54.3174,172.272 58.5,173.5C 56.901,173.232 55.5676,173.566 54.5,174.5C 52.1409,173.824 49.8076,172.991 47.5,172C 31.5791,160.292 26.2457,144.792 31.5,125.5C 32.1067,125.624 32.44,125.957 32.5,126.5 Z"/></g>
<g><path style="opacity:0.391" fill="#e6e6e6" d="M 93.5,144.5 C 93.5,146.167 93.5,147.833 93.5,149.5C 87.2919,168.036 91.4585,183.703 106,196.5C 106.884,198.641 106.384,200.307 104.5,201.5C 96.9303,198.638 90.7637,193.971 86,187.5C 84.9914,185.975 84.4914,184.308 84.5,182.5C 84.56,181.957 84.8933,181.624 85.5,181.5C 89.2915,189.474 95.2915,194.64 103.5,197C 89.1463,183.638 84.9796,167.472 91,148.5C 91.2004,146.68 92.0337,145.347 93.5,144.5 Z"/></g>
<g><path style="opacity:0.412" fill="#e4e4e4" d="M 49.5,98.5 C 50.552,98.3505 51.552,98.5172 52.5,99C 46.3225,101.919 40.6559,105.586 35.5,110C 31.3424,114.823 28.509,120.323 27,126.5C 24.7486,139.563 26.9153,151.73 33.5,163C 23.4722,171.227 17.8055,181.727 16.5,194.5C 18.1319,211.795 26.7986,224.129 42.5,231.5C 43.7733,232.257 43.7733,232.923 42.5,233.5C 39.1476,233.216 36.1476,232.05 33.5,230C 15.4044,216.471 10.2377,198.971 18,177.5C 21.9694,172.361 26.1361,167.361 30.5,162.5C 27.2988,158.047 25.4655,153.047 25,147.5C 21.123,130.12 25.623,115.62 38.5,104C 42.1954,102.057 45.8621,100.224 49.5,98.5 Z"/></g>
<g><path style="opacity:0.573" fill="#d7d7d7" d="M 170.5,133.5 C 171.167,145.5 171.833,157.5 172.5,169.5C 172.5,173.5 172.5,177.5 172.5,181.5C 171.833,187.5 171.167,193.5 170.5,199.5C 170.5,177.5 170.5,155.5 170.5,133.5 Z"/></g>
<g><path style="opacity:0.776" fill="#d9d9d9" d="M 54.5,174.5 C 55.5676,173.566 56.901,173.232 58.5,173.5C 65.8333,174.167 73.1667,174.833 80.5,175.5C 81.531,176.249 82.6976,176.915 84,177.5C 84.6316,180.875 84.1316,181.209 82.5,178.5C 81.8333,178.5 81.1667,178.5 80.5,178.5C 72.555,179.437 64.555,179.77 56.5,179.5C 56.5,179.167 56.5,178.833 56.5,178.5C 64.0084,178.962 71.3417,178.462 78.5,177C 70.4753,176.256 62.4753,175.422 54.5,174.5 Z"/></g>
<g><path style="opacity:0.015" fill="#f9f9f9" d="M 80.5,178.5 C 76.1274,180.448 71.2941,181.448 66,181.5C 61.9582,181.236 58.1249,180.57 54.5,179.5C 55.1667,179.5 55.8333,179.5 56.5,179.5C 64.555,179.77 72.555,179.437 80.5,178.5 Z"/></g>
<g><path style="opacity:0.322" fill="#dedede" d="M 172.5,181.5 C 172.5,192.5 172.5,203.5 172.5,214.5C 171.833,215.833 171.167,217.167 170.5,218.5C 170.5,212.167 170.5,205.833 170.5,199.5C 171.167,193.5 171.833,187.5 172.5,181.5 Z"/></g>
<g><path style="opacity:0.348" fill="#dbdbdb" d="M 152.5,182.5 C 152.5,233.167 152.5,283.833 152.5,334.5C 151.833,324.833 151.167,315.167 150.5,305.5C 150.5,270.5 150.5,235.5 150.5,200.5C 151.167,194.5 151.833,188.5 152.5,182.5 Z"/></g>
<g><path style="opacity:0.203" fill="#e5e5e5" d="M 284.5,201.5 C 286.806,187.606 287.139,173.606 285.5,159.5C 285.56,158.957 285.893,158.624 286.5,158.5C 290.449,174.565 290.116,190.565 285.5,206.5C 284.548,204.955 284.215,203.288 284.5,201.5 Z"/></g>
<g><path style="opacity:0.406" fill="#e4e4e4" d="M 164.5,147.5 C 165.167,160.5 165.833,173.5 166.5,186.5C 166.069,240.183 166.569,293.849 168,347.5C 168.833,350.333 170.667,352.167 173.5,353C 179.484,353.698 185.484,354.198 191.5,354.5C 203.134,355.8 212.301,351.8 219,342.5C 223.276,328.479 225.942,314.146 227,299.5C 228.852,296.94 230.518,294.273 232,291.5C 247.851,275.416 262.018,258.083 274.5,239.5C 284.175,223.481 290.175,206.147 292.5,187.5C 293.298,187.957 293.631,188.624 293.5,189.5C 293.643,196.284 292.81,202.951 291,209.5C 288.254,218.154 284.754,226.487 280.5,234.5C 268.003,254.488 253.503,272.821 237,289.5C 234.018,292.783 231.518,296.449 229.5,300.5C 227.675,310.248 226.341,320.081 225.5,330C 223.211,345.287 214.544,354.287 199.5,357C 190.021,358.06 180.688,357.393 171.5,355C 168.227,354.06 166.394,351.893 166,348.5C 165.501,343.511 165.334,338.511 165.5,333.5C 164.515,271.523 164.181,209.523 164.5,147.5 Z"/></g>
<g><path style="opacity:0.575" fill="#e7e7e7" d="M 233.5,232.5 C 229.696,234.452 228.696,233.452 230.5,229.5C 231.712,226.697 233.379,224.197 235.5,222C 239.33,214.66 242.663,207.16 245.5,199.5C 246.5,199.5 247.5,199.5 248.5,199.5C 249.42,209.826 246.92,219.16 241,227.5C 238.6,229.415 236.1,231.081 233.5,232.5 Z"/></g>
<g><path style="opacity:0.997" fill="#f9f9f9" d="M 245.5,205.5 C 246.257,215.332 242.591,223.332 234.5,229.5C 234.167,229.167 233.833,228.833 233.5,228.5C 238.403,221.275 242.403,213.608 245.5,205.5 Z"/></g>
<g><path style="opacity:0.871" fill="#e5e5e5" d="M 56.5,178.5 C 56.5,178.833 56.5,179.167 56.5,179.5C 55.8333,179.5 55.1667,179.5 54.5,179.5C 50.9551,178.761 47.6217,177.428 44.5,175.5C 43.7095,174.599 42.7095,173.932 41.5,173.5C 37.9837,172.821 35.4837,170.821 34,167.5C 15.8789,188.596 17.7122,207.762 39.5,225C 52.4617,231.372 66.1284,233.206 80.5,230.5C 80.8333,231.167 81.1667,231.833 81.5,232.5C 60.0033,237.924 41.8367,232.59 27,216.5C 15.0542,197.262 17.3875,179.929 34,164.5C 37.0078,168.003 40.5078,171.003 44.5,173.5C 48.7628,174.802 52.7628,176.469 56.5,178.5 Z"/></g>
<g><path style="opacity:0.013" fill="#fafafa" d="M 41.5,173.5 C 42.7095,173.932 43.7095,174.599 44.5,175.5C 42.8212,175.715 41.8212,175.048 41.5,173.5 Z"/></g>
<g><path style="opacity:0.153" fill="#f4f4f4" d="M 93.5,232.5 C 93.3505,231.448 93.5172,230.448 94,229.5C 94.8928,230.711 95.7261,230.711 96.5,229.5C 92.4122,228.515 88.4122,228.848 84.5,230.5C 84.7911,229.351 85.6244,228.684 87,228.5C 89.888,228.023 92.7213,227.356 95.5,226.5C 96.8805,227 97.5472,228 97.5,229.5C 96.8999,231.468 95.5666,232.468 93.5,232.5 Z"/></g>
<g><path style="opacity:0.525" fill="#e1e1e1" d="M 93.5,232.5 C 91.9582,233.301 90.2915,233.634 88.5,233.5C 83.7886,234.284 79.4553,235.618 75.5,237.5C 68.5,237.5 61.5,237.5 54.5,237.5C 53.0813,236.549 51.4147,236.216 49.5,236.5C 49.4225,240.877 48.9225,245.21 48,249.5C 47.5034,247.19 47.3367,244.857 47.5,242.5C 48.4731,240.052 48.8064,237.385 48.5,234.5C 59.5185,235.936 70.5185,235.769 81.5,234C 84.0972,233.221 84.0972,232.721 81.5,232.5C 81.1667,231.833 80.8333,231.167 80.5,230.5C 81.8333,230.5 83.1667,230.5 84.5,230.5C 88.4122,228.848 92.4122,228.515 96.5,229.5C 95.7261,230.711 94.8928,230.711 94,229.5C 93.5172,230.448 93.3505,231.448 93.5,232.5 Z"/></g>
<g><path style="opacity:0.043" fill="#f6f6f6" d="M 230.5,229.5 C 228.696,233.452 229.696,234.452 233.5,232.5C 232.365,234.213 230.698,234.88 228.5,234.5C 228.077,232.219 228.744,230.552 230.5,229.5 Z"/></g>
<g><path style="opacity:0.147" fill="#f2f2f2" d="M 88.5,233.5 C 88.2089,234.649 87.3756,235.316 86,235.5C 82.47,236.116 78.97,236.782 75.5,237.5C 79.4553,235.618 83.7886,234.284 88.5,233.5 Z"/></g>
<g><path style="opacity:0.506" fill="#efefef" d="M 172.5,214.5 C 172.5,256.5 172.5,298.5 172.5,340.5C 171.668,315.67 171.168,290.67 171,265.5C 170.722,264.584 170.222,263.918 169.5,263.5C 170.229,248.511 170.562,233.511 170.5,218.5C 171.167,217.167 171.833,215.833 172.5,214.5 Z"/></g>
<g><path style="opacity:0.895" fill="#fefefe" d="M 358.5,239.5 C 368.813,238.322 377.647,241.322 385,248.5C 387.853,253.625 386.52,256.959 381,258.5C 377.333,256.167 373.667,253.833 370,251.5C 360.947,248.119 354.78,250.786 351.5,259.5C 352.498,263.005 354.498,265.838 357.5,268C 364.833,271.333 372.167,274.667 379.5,278C 389.319,284.46 392.152,293.293 388,304.5C 384.256,310.901 378.756,315.068 371.5,317C 361.776,318.838 352.776,317.171 344.5,312C 339.744,308.611 337.91,304.111 339,298.5C 341.299,296.464 343.799,296.131 346.5,297.5C 353.545,307.011 362.545,309.511 373.5,305C 379.574,299.591 379.907,293.925 374.5,288C 366.046,284.186 357.712,280.186 349.5,276C 337.537,264.909 337.537,253.909 349.5,243C 352.571,241.704 355.571,240.538 358.5,239.5 Z"/></g>
<g><path style="opacity:0.92" fill="#fefefe" d="M 407.5,240.5 C 412.029,240.496 415.529,242.496 418,246.5C 425.289,256.124 432.955,265.458 441,274.5C 449.808,263.057 458.975,251.891 468.5,241C 471.14,240.161 473.473,240.661 475.5,242.5C 476.656,266.457 476.823,290.457 476,314.5C 473.503,316.478 470.669,316.978 467.5,316C 466.874,315.25 466.374,314.416 466,313.5C 465.667,296.167 465.333,278.833 465,261.5C 458.286,269.212 451.953,277.212 446,285.5C 443.029,289.092 439.696,289.425 436,286.5C 429.713,277.878 423.047,269.545 416,261.5C 415.667,278.833 415.333,296.167 415,313.5C 414.242,315.91 412.575,316.91 410,316.5C 407.966,316.646 406.299,315.98 405,314.5C 404.333,290.833 404.333,267.167 405,243.5C 405.698,242.309 406.531,241.309 407.5,240.5 Z"/></g>
<g><path style="opacity:0.909" fill="#fefefe" d="M 518.5,240.5 C 521.272,240.22 523.772,240.887 526,242.5C 535.528,264.084 544.861,285.751 554,307.5C 555.648,315.187 552.814,318.021 545.5,316C 542.808,311.089 540.808,305.923 539.5,300.5C 527.495,300.333 515.495,300.5 503.5,301C 501.546,306.205 499.213,311.205 496.5,316C 489.51,318.005 486.676,315.505 488,308.5C 497,287.167 506,265.833 515,244.5C 516.376,243.295 517.542,241.962 518.5,240.5 Z M 520.5,257.5 C 525.718,267.783 530.385,278.449 534.5,289.5C 525.518,290.665 516.518,290.832 507.5,290C 512.252,279.329 516.586,268.496 520.5,257.5 Z"/></g>
<g><path style="opacity:0.911" fill="#fefefe" d="M 568.5,240.5 C 578.172,240.334 587.839,240.5 597.5,241C 618.589,247.347 625.089,260.847 617,281.5C 613.958,284.711 610.791,287.711 607.5,290.5C 612.194,296.694 616.694,303.028 621,309.5C 622.252,313.926 620.586,316.592 616,317.5C 614.365,317.122 612.865,316.456 611.5,315.5C 606.288,308.244 600.955,301.077 595.5,294C 589.175,293.5 582.842,293.334 576.5,293.5C 576.666,300.508 576.5,307.508 576,314.5C 572.337,317.333 569.004,317 566,313.5C 565.333,290.5 565.333,267.5 566,244.5C 566.662,243.016 567.496,241.683 568.5,240.5 Z M 576.5,250.5 C 581.844,250.334 587.177,250.501 592.5,251C 607.275,253.391 612.108,261.558 607,275.5C 605.127,277.709 602.96,279.542 600.5,281C 592.585,282.401 584.585,282.901 576.5,282.5C 576.5,271.833 576.5,261.167 576.5,250.5 Z"/></g>
<g><path style="opacity:0.908" fill="#fefefe" d="M 629.5,240.5 C 647.503,240.333 665.503,240.5 683.5,241C 686.379,242.666 687.212,245.166 686,248.5C 685.097,249.701 683.931,250.535 682.5,251C 675.508,251.5 668.508,251.666 661.5,251.5C 661.667,272.503 661.5,293.503 661,314.5C 657.337,317.333 654.004,317 651,313.5C 650.5,292.836 650.333,272.169 650.5,251.5C 643.825,251.666 637.158,251.5 630.5,251C 624.234,247.945 623.9,244.445 629.5,240.5 Z"/></g>
<g><path style="opacity:0.453" fill="#e6e6e6" d="M 219.5,318.5 C 220.117,310.737 221.45,303.071 223.5,295.5C 237.678,278.139 251.678,260.806 265.5,243.5C 272.167,233.5 277.5,222.833 281.5,211.5C 282.966,210.653 283.8,209.32 284,207.5C 283.854,211.959 282.854,216.292 281,220.5C 277.667,227.167 274.333,233.833 271,240.5C 258.42,257.084 245.087,273.084 231,288.5C 228.667,292.5 226.333,296.5 224,300.5C 223.182,311.728 221.516,322.728 219,333.5C 219.161,328.533 219.328,323.533 219.5,318.5 Z"/></g>
<g><path style="opacity:0.267" fill="#f1f1f1" d="M 127.5,266.5 C 128.038,264.883 128.371,263.216 128.5,261.5C 129.268,260.737 129.768,259.737 130,258.5C 130.499,254.848 130.665,251.182 130.5,247.5C 129.5,247.5 128.5,247.5 127.5,247.5C 127.771,249.38 127.104,250.713 125.5,251.5C 125.421,247.571 127.088,245.904 130.5,246.5C 131.661,250.795 131.828,255.129 131,259.5C 130.478,262.281 129.311,264.615 127.5,266.5 Z"/></g>
<g><path style="opacity:0.076" fill="#ececec" d="M 45.5,262.5 C 44.71,261.391 44.21,260.058 44,258.5C 43.3985,261.221 43.5651,263.887 44.5,266.5C 43.8826,266.389 43.3826,266.056 43,265.5C 40.6841,255.64 41.1841,245.974 44.5,236.5C 45.7736,235.811 45.7736,234.977 44.5,234C 45.448,233.517 46.448,233.351 47.5,233.5C 44.664,243.027 43.9974,252.693 45.5,262.5 Z"/></g>
<g><path style="opacity:0.147" fill="#efefef" d="M 54.5,237.5 C 53.1667,237.5 51.8333,237.5 50.5,237.5C 50.2743,244.876 50.6076,252.209 51.5,259.5C 50.8333,259.5 50.1667,259.5 49.5,259.5C 48.8826,259.389 48.3826,259.056 48,258.5C 46.6555,253.027 46.4889,247.693 47.5,242.5C 47.3367,244.857 47.5034,247.19 48,249.5C 48.9225,245.21 49.4225,240.877 49.5,236.5C 51.4147,236.216 53.0813,236.549 54.5,237.5 Z"/></g>
<g><path style="opacity:0.361" fill="#e4e4e4" d="M 169.5,263.5 C 170.222,263.918 170.722,264.584 171,265.5C 171.168,290.67 171.668,315.67 172.5,340.5C 172.232,343.119 172.565,345.619 173.5,348C 182.781,349.519 192.114,349.853 201.5,349C 209.204,347.461 214.204,342.961 216.5,335.5C 217.65,334.15 218.317,334.316 218.5,336C 216.18,343.654 211.18,348.654 203.5,351C 194.167,351.667 184.833,351.667 175.5,351C 173.714,350.215 172.214,349.049 171,347.5C 169.601,319.524 169.101,291.524 169.5,263.5 Z"/></g>
<g><path style="opacity:0.638" fill="#e6e6e6" d="M 128.5,261.5 C 129.19,257.51 129.357,253.51 129,249.5C 123.669,267.997 111.836,279.997 93.5,285.5C 94.2625,284.732 95.2625,284.232 96.5,284C 95.552,283.517 94.552,283.351 93.5,283.5C 93.5,283.167 93.5,282.833 93.5,282.5C 105.897,279.349 115.397,272.349 122,261.5C 124.262,258.547 125.429,255.214 125.5,251.5C 127.104,250.713 127.771,249.38 127.5,247.5C 128.5,247.5 129.5,247.5 130.5,247.5C 130.665,251.182 130.499,254.848 130,258.5C 129.768,259.737 129.268,260.737 128.5,261.5 Z"/></g>
<g><path style="opacity:0.569" fill="#e6e6e6" d="M 49.5,259.5 C 50.1667,259.5 50.8333,259.5 51.5,259.5C 55.4518,270.112 62.4518,277.778 72.5,282.5C 71.209,282.263 70.209,282.596 69.5,283.5C 58.7667,278.777 52.1001,270.777 49.5,259.5 Z"/></g>
<g><path style="opacity:0.008" fill="#f9f9f9" d="M 120.5,276.5 C 119.833,279.167 118.167,280.833 115.5,281.5C 116.833,279.5 118.5,277.833 120.5,276.5 Z"/></g>
<g><path style="opacity:0.5" fill="#e2e2e2" d="M 128.5,261.5 C 128.371,263.216 128.038,264.883 127.5,266.5C 126.627,270.931 124.294,274.264 120.5,276.5C 118.5,277.833 116.833,279.5 115.5,281.5C 113.264,285.294 109.931,287.627 105.5,288.5C 103.87,290.026 103.037,292.026 103,294.5C 102.505,292.527 102.338,290.527 102.5,288.5C 113.86,282.139 122.527,273.139 128.5,261.5 Z"/></g>
<g><path style="opacity:0.314" fill="#e4e4e4" d="M 45.5,262.5 C 46.2261,265.179 47.0594,267.846 48,270.5C 59.3663,289.572 75.8663,296.239 97.5,290.5C 97.5,291.167 97.5,291.833 97.5,292.5C 95.283,293.369 92.9496,293.702 90.5,293.5C 85.8333,294.833 81.1667,294.833 76.5,293.5C 73.4318,293.453 70.4318,292.953 67.5,292C 63.8191,289.976 60.1525,287.976 56.5,286C 52.9971,282.992 49.9971,279.492 47.5,275.5C 45.8954,272.686 44.8954,269.686 44.5,266.5C 43.5651,263.887 43.3985,261.221 44,258.5C 44.21,260.058 44.71,261.391 45.5,262.5 Z"/></g>
<g><path style="opacity:0.026" fill="#f9f9f9" d="M 72.5,282.5 C 79.5204,283.747 86.5204,283.747 93.5,282.5C 93.5,282.833 93.5,283.167 93.5,283.5C 90.4174,284.125 87.2508,284.458 84,284.5C 79.8673,284.714 76.034,284.048 72.5,282.5 Z"/></g>
<g><path style="opacity:0.137" fill="#d8d8d8" d="M 69.5,283.5 C 70.209,282.596 71.209,282.263 72.5,282.5C 76.034,284.048 79.8673,284.714 84,284.5C 87.2508,284.458 90.4174,284.125 93.5,283.5C 94.552,283.351 95.552,283.517 96.5,284C 95.2625,284.232 94.2625,284.732 93.5,285.5C 85.3562,285.985 77.3562,285.318 69.5,283.5 Z"/></g>
<g><path style="opacity:0.643" fill="#dfdfdf" d="M 99.5,299.5 C 99.5,297.167 99.5,294.833 99.5,292.5C 99.81,291.262 100.31,291.262 101,292.5C 101.167,293.667 101.333,294.833 101.5,296C 101.392,297.681 100.725,298.848 99.5,299.5 Z"/></g>
<g><path style="opacity:0.016" fill="#fafafa" d="M 76.5,293.5 C 81.1667,294.833 85.8333,294.833 90.5,293.5C 90.3893,294.117 90.056,294.617 89.5,295C 85.5,295.667 81.5,295.667 77.5,295C 76.944,294.617 76.6107,294.117 76.5,293.5 Z"/></g>
<g><path style="opacity:0.861" fill="#f0f0f0" d="M 102.5,288.5 C 102.338,290.527 102.505,292.527 103,294.5C 103.037,292.026 103.87,290.026 105.5,288.5C 105.461,289.583 105.127,290.583 104.5,291.5C 105.937,298.763 106.937,306.097 107.5,313.5C 106.833,313.5 106.167,313.5 105.5,313.5C 105.167,312.167 104.833,310.833 104.5,309.5C 105.533,304.968 105.366,300.302 104,295.5C 103.505,297.473 103.338,299.473 103.5,301.5C 102.833,301.5 102.5,301.833 102.5,302.5C 101.833,302.5 101.167,302.5 100.5,302.5C 99.596,301.791 99.2627,300.791 99.5,299.5C 100.725,298.848 101.392,297.681 101.5,296C 101.333,294.833 101.167,293.667 101,292.5C 100.31,291.262 99.81,291.262 99.5,292.5C 98.8333,292.5 98.1667,292.5 97.5,292.5C 97.5,291.833 97.5,291.167 97.5,290.5C 98.6879,289.316 99.8545,289.316 101,290.5C 101.278,289.584 101.778,288.918 102.5,288.5 Z"/></g>
<g><path style="opacity:0.519" fill="#d7d7d7" d="M 104.5,309.5 C 104.721,306.721 104.388,304.054 103.5,301.5C 103.338,299.473 103.505,297.473 104,295.5C 105.366,300.302 105.533,304.968 104.5,309.5 Z"/></g>
<g><path style="opacity:0.599" fill="#dedede" d="M 105.5,313.5 C 106.167,313.5 106.833,313.5 107.5,313.5C 107.5,316.167 107.5,318.833 107.5,321.5C 107.44,322.043 107.107,322.376 106.5,322.5C 105.516,319.572 105.183,316.572 105.5,313.5 Z"/></g>
<g><path style="opacity:0.685" fill="#e1e1e1" d="M 100.5,302.5 C 101.167,302.5 101.833,302.5 102.5,302.5C 103.196,313.152 103.53,323.819 103.5,334.5C 103.028,328.404 102.028,322.404 100.5,316.5C 100.5,311.833 100.5,307.167 100.5,302.5 Z"/></g>
<g><path style="opacity:0.568" fill="#e6e6e6" d="M 100.5,316.5 C 102.028,322.404 103.028,328.404 103.5,334.5C 106.844,341.828 112.51,346.828 120.5,349.5C 131.421,351.45 142.421,351.95 153.5,351C 155.436,349.638 156.769,347.805 157.5,345.5C 158.496,339.202 158.83,332.868 158.5,326.5C 158.833,326.5 159.167,326.5 159.5,326.5C 159.666,334.174 159.5,341.841 159,349.5C 157.285,352.397 154.785,353.731 151.5,353.5C 145.833,353.5 140.167,353.5 134.5,353.5C 119.78,354.886 108.946,349.219 102,336.5C 101.61,329.816 101.11,323.15 100.5,316.5 Z"/></g>
<g><path style="opacity:0.512" fill="#e1e1e1" d="M 111.5,337.5 C 114.808,340.26 118.474,342.26 122.5,343.5C 123.609,344.29 124.942,344.79 126.5,345C 122.598,345.738 118.932,345.072 115.5,343C 108.683,339.546 106.183,334.379 108,327.5C 108.346,330.576 109.012,333.576 110,336.5C 110.383,337.056 110.883,337.389 111.5,337.5 Z"/></g>
<g><path style="opacity:0.451" fill="#e3e3e3" d="M 150.5,305.5 C 151.167,315.167 151.833,324.833 152.5,334.5C 152.797,338.767 152.464,342.934 151.5,347C 147.667,347.167 143.833,347.333 140,347.5C 135.771,347.49 131.938,346.823 128.5,345.5C 135.833,345.5 143.167,345.5 150.5,345.5C 150.5,332.167 150.5,318.833 150.5,305.5 Z"/></g>
<g><path style="opacity:0.01" fill="#f7f7f7" d="M 134.5,353.5 C 140.167,353.5 145.833,353.5 151.5,353.5C 151.389,354.117 151.056,354.617 150.5,355C 145.5,355.667 140.5,355.667 135.5,355C 134.944,354.617 134.611,354.117 134.5,353.5 Z"/></g>
<g><path style="opacity:0.246" fill="#eaeaea" d="M 116.5,358.5 C 146.502,358.333 176.502,358.5 206.5,359C 210.044,361.945 210.877,365.445 209,369.5C 207.89,371.037 206.39,371.703 204.5,371.5C 208.881,368.287 209.214,364.787 205.5,361C 175.483,361.161 145.816,360.327 116.5,358.5 Z"/></g>
<g><path style="opacity:0.987" fill="#fcfcfc" d="M 116.5,358.5 C 145.816,360.327 175.483,361.161 205.5,361C 209.214,364.787 208.881,368.287 204.5,371.5C 175.67,372.664 146.67,372.83 117.5,372C 111.468,370.047 109.968,366.213 113,360.5C 114.113,359.695 115.279,359.028 116.5,358.5 Z"/></g>
<g><path style="opacity:0.923" fill="#e3e3e3" d="M 115.5,375.5 C 145.502,375.333 175.502,375.5 205.5,376C 175.833,376.333 146.167,376.667 116.5,377C 113.222,379.288 112.722,382.121 115,385.5C 116.067,386.191 117.234,386.691 118.5,387C 117.552,387.483 116.552,387.649 115.5,387.5C 110.301,383.498 110.301,379.498 115.5,375.5 Z"/></g>
<g><path style="opacity:0.922" fill="#fefefe" d="M 115.5,375.5 C 145.664,374.336 175.997,374.169 206.5,375C 211.833,379.333 211.833,383.667 206.5,388C 175.997,388.831 145.664,388.664 115.5,387.5C 116.552,387.649 117.552,387.483 118.5,387C 117.234,386.691 116.067,386.191 115,385.5C 112.722,382.121 113.222,379.288 116.5,377C 146.167,376.667 175.833,376.333 205.5,376C 175.502,375.5 145.502,375.333 115.5,375.5 Z"/></g>
<g><path style="opacity:0.945" fill="#fefefe" d="M 197.5,396.5 C 197.587,393.402 197.087,393.068 196,395.5C 194.833,399 193.667,402.5 192.5,406C 192.57,406.765 192.903,407.265 193.5,407.5C 172.34,408.497 151.007,408.831 129.5,408.5C 128.568,403.356 126.901,398.689 124.5,394.5C 123.263,393.257 123.596,392.257 125.5,391.5C 150.038,392.777 174.371,392.777 198.5,391.5C 198.784,393.415 198.451,395.081 197.5,396.5 Z"/></g>
<g><path style="opacity:0.831" fill="#e4e4e4" d="M 124.5,394.5 C 126.901,398.689 128.568,403.356 129.5,408.5C 127.065,404.201 125.398,399.534 124.5,394.5 Z"/></g>
<g><path style="opacity:0.075" fill="#ebebeb" d="M 197.5,396.5 C 196.935,400.537 195.601,404.203 193.5,407.5C 192.903,407.265 192.57,406.765 192.5,406C 193.667,402.5 194.833,399 196,395.5C 197.087,393.068 197.587,393.402 197.5,396.5 Z"/></g>
</svg>
